<?xml version="1.0" encoding="UTF-8"?>
<svg width="382px" height="83px" viewBox="0 0 382 83" version="1.1" xmlns="http://www.w3.org/2000/svg" xmlns:xlink="http://www.w3.org/1999/xlink">
    <!-- Generator: Sketch 53.2 (72643) - https://sketchapp.com -->
    <title>button_play_again</title>
    <desc>Created with Sketch.</desc>
    <g id="[Screens]" stroke="none" stroke-width="1" fill="none" fill-rule="evenodd">
        <g id="game-win" transform="translate(-536.000000, -761.000000)" fill-rule="nonzero">
            <g id="overlay_game_win" transform="translate(266.000000, 67.000000)">
                <g id="button" transform="translate(272.000000, 696.000000)">
                    <g id="button_play_again">
                        <rect id="Rectangle" stroke="#111111" stroke-width="3" fill-opacity="0.8" fill="#FFFFFF" stroke-linecap="round" stroke-linejoin="round" x="0" y="0" width="378.458052" height="78.9498586" rx="2"></rect>
                        <path d="M69.0087489,51.8721449 L69.0087489,26.6081901 C69.0087489,26.3074273 69.1277991,26.0505295 69.365903,25.8374891 C69.604007,25.6244488 69.9110311,25.5179302 70.2869847,25.5179302 L77.392472,25.5179302 C79.798575,25.5179302 81.7284411,26.1695733 83.1821283,27.4728791 C84.6358155,28.7761848 85.3626482,30.8313669 85.3626482,33.6384871 L85.3626482,33.9768436 C85.3626482,36.7839637 84.6232839,38.8454116 83.1445331,40.1612492 C81.6657824,41.4770867 79.6983214,42.1349956 77.2420913,42.1349956 L72.1667433,42.1349956 L72.1667433,51.8721449 C72.1667433,52.2230349 72.0100983,52.4987301 71.6968036,52.6992386 C71.383509,52.8997472 71.0138268,53 70.5877461,53 C70.1616654,53 69.7919832,52.8997472 69.4786886,52.6992386 C69.1653939,52.4987301 69.0087489,52.2230349 69.0087489,51.8721449 Z M72.1667433,39.5033337 L77.2420913,39.5033337 C78.8210964,39.5033337 80.0429272,39.058462 80.9076205,38.1687051 C81.7723137,37.2789483 82.2046539,35.9443331 82.2046539,34.1648194 L82.2046539,33.7136774 C82.2046539,31.9341638 81.7723137,30.5995485 80.9076205,29.7097917 C80.0429272,28.8200349 78.8210964,28.3751631 77.2420913,28.3751631 L72.1667433,28.3751631 L72.1667433,39.5033337 Z M96.0146128,51.8721449 L96.0146128,26.6081901 C96.0146128,26.2573001 96.1712578,25.9878707 96.4845524,25.799894 C96.7978471,25.6119172 97.1675292,25.5179302 97.59361,25.5179302 C98.0196907,25.5179302 98.3893729,25.6119172 98.7026675,25.799894 C99.0159622,25.9878707 99.1726071,26.2573001 99.1726071,26.6081901 L99.1726071,50.142767 L109.436089,50.142767 C109.761915,50.142767 110.012547,50.2868804 110.187992,50.5751115 C110.363437,50.8633426 110.451158,51.1954299 110.451158,51.5713835 C110.451158,51.9473371 110.363437,52.2794245 110.187992,52.5676555 C110.012547,52.8558866 109.761915,53 109.436089,53 L97.4432293,53 C97.0672757,53 96.7351883,52.8997472 96.4469573,52.6992386 C96.1587262,52.4987301 96.0146128,52.2230349 96.0146128,51.8721449 Z M118.471461,51.684169 C118.471461,51.6340419 118.496524,51.5337891 118.546651,51.3834077 L126.216066,26.3826191 C126.441638,25.6557755 127.093281,25.2923591 128.171015,25.2923591 C129.248749,25.2923591 129.900392,25.6557755 130.125964,26.3826191 L137.795379,51.3834077 C137.795379,51.4335348 137.801645,51.4836612 137.814176,51.5337883 C137.826708,51.5839155 137.832974,51.6215103 137.832974,51.6465739 C137.832974,51.9974639 137.626203,52.3107538 137.212654,52.5864531 C136.799105,52.8621524 136.354233,53 135.878025,53 C135.276499,53 134.900551,52.7618996 134.75017,52.2856918 L133.095982,46.6840113 L123.208453,46.6840113 L121.554265,52.2856918 C121.403884,52.7618996 121.015404,53 120.388815,53 C119.93767,53 119.50533,52.874684 119.091781,52.6240483 C118.678232,52.3734126 118.471461,52.0601226 118.471461,51.684169 Z M123.922761,44.0899445 L132.344079,44.0899445 L128.171015,29.9541603 L123.922761,44.0899445 Z M143.747947,26.8337611 C143.747947,26.4578076 143.954718,26.1445176 144.368267,25.8938819 C144.781816,25.6432462 145.201625,25.5179302 145.627706,25.5179302 C146.07885,25.5179302 146.454798,25.7936253 146.755561,26.3450239 L153.372311,39.2401675 L159.951466,26.3450239 C160.252229,25.7936253 160.628176,25.5179302 161.079321,25.5179302 C161.530465,25.5179302 161.956539,25.6432462 162.357557,25.8938819 C162.758574,26.1445176 162.959079,26.4578076 162.959079,26.8337611 C162.959079,27.0342697 162.908953,27.2473069 162.808699,27.4728791 L155.026498,41.984615 C154.976371,42.0598057 154.951308,42.1851217 154.951308,42.3605667 L154.951308,51.8721449 C154.951308,52.2230349 154.794663,52.4987301 154.481368,52.6992386 C154.168074,52.8997472 153.798391,53 153.372311,53 C152.94623,53 152.576548,52.8997472 152.263253,52.6992386 C151.949959,52.4987301 151.793314,52.2230349 151.793314,51.8721449 L151.793314,42.3605667 C151.793314,42.2352488 151.755719,42.1099328 151.680528,41.984615 L143.898328,27.4728791 C143.798073,27.2473069 143.747947,27.0342697 143.747947,26.8337611 Z M185.541244,51.684169 C185.541244,51.6340419 185.566307,51.5337891 185.616435,51.3834077 L193.285849,26.3826191 C193.511422,25.6557755 194.163065,25.2923591 195.240798,25.2923591 C196.318532,25.2923591 196.970175,25.6557755 197.195747,26.3826191 L204.865162,51.3834077 C204.865162,51.4335348 204.871428,51.4836612 204.88396,51.5337883 C204.896491,51.5839155 204.902757,51.6215103 204.902757,51.6465739 C204.902757,51.9974639 204.695986,52.3107538 204.282437,52.5864531 C203.868888,52.8621524 203.424016,53 202.947808,53 C202.346283,53 201.970335,52.7618996 201.819953,52.2856918 L200.165766,46.6840113 L190.278236,46.6840113 L188.624048,52.2856918 C188.473667,52.7618996 188.085187,53 187.458598,53 C187.007454,53 186.575114,52.874684 186.161565,52.6240483 C185.748016,52.3734126 185.541244,52.0601226 185.541244,51.684169 Z M190.992544,44.0899445 L199.413862,44.0899445 L195.240798,29.9541603 L190.992544,44.0899445 Z M214.878009,45.0298238 L214.878009,33.7136774 C214.878009,30.8814937 215.611107,28.8075142 217.077326,27.4916766 C218.543545,26.1758391 220.479677,25.5179302 222.88578,25.5179302 C225.34201,25.5179302 227.322003,26.1382443 228.825817,27.3788911 C230.329631,28.619538 231.081527,30.2423799 231.081527,32.2474657 C231.081527,32.8239279 230.949946,33.224939 230.686778,33.4505112 C230.423611,33.6760834 230.028865,33.7888677 229.50253,33.7888677 C228.474924,33.7888677 227.948597,33.4254514 227.923533,32.6986078 C227.597707,29.8162969 225.943536,28.3751631 222.96097,28.3751631 C219.677642,28.3751631 218.036003,30.1546501 218.036003,33.7136774 L218.036003,45.0298238 C218.036003,48.5888511 219.677642,50.368338 222.96097,50.368338 C224.539976,50.368338 225.761806,49.9234663 226.6265,49.0337095 C227.491193,48.1439527 227.923533,46.8093374 227.923533,45.0298238 L227.923533,41.1951164 L223.449708,41.1951164 C223.098818,41.1951164 222.829388,41.0635346 222.641412,40.8003671 C222.453435,40.5371996 222.359448,40.2301754 222.359448,39.8792854 C222.359448,39.5283954 222.459701,39.2213712 222.660209,38.9582037 C222.860718,38.6950362 223.123881,38.5634544 223.449708,38.5634544 L229.991267,38.5634544 C230.342157,38.5634544 230.611587,38.6762388 230.799564,38.901811 C230.98754,39.1273831 231.081527,39.4030783 231.081527,39.7289047 L231.081527,45.0298238 C231.081527,47.8620075 230.342163,49.935987 228.863412,51.2518246 C227.384662,52.5676621 225.417201,53.225571 222.96097,53.225571 C220.50474,53.225571 218.543545,52.5676621 217.077326,51.2518246 C215.611107,49.935987 214.878009,47.8620075 214.878009,45.0298238 Z M240.605637,51.684169 C240.605637,51.6340419 240.6307,51.5337891 240.680827,51.3834077 L248.350242,26.3826191 C248.575814,25.6557755 249.227457,25.2923591 250.305191,25.2923591 C251.382924,25.2923591 252.034568,25.6557755 252.26014,26.3826191 L259.929555,51.3834077 C259.929555,51.4335348 259.93582,51.4836612 259.948352,51.5337883 C259.960884,51.5839155 259.96715,51.6215103 259.96715,51.6465739 C259.96715,51.9974639 259.760378,52.3107538 259.346829,52.5864531 C258.933281,52.8621524 258.488409,53 258.012201,53 C257.410675,53 257.034727,52.7618996 256.884346,52.2856918 L255.230158,46.6840113 L245.342628,46.6840113 L243.688441,52.2856918 C243.538059,52.7618996 243.14958,53 242.522991,53 C242.071846,53 241.639506,52.874684 241.225957,52.6240483 C240.812408,52.3734126 240.605637,52.0601226 240.605637,51.684169 Z M246.056937,44.0899445 L254.478255,44.0899445 L250.305191,29.9541603 L246.056937,44.0899445 Z M270.205567,51.8721449 L270.205567,26.6081901 C270.205567,26.2573001 270.362212,25.9878707 270.675507,25.799894 C270.988802,25.6119172 271.358484,25.5179302 271.784565,25.5179302 C272.210645,25.5179302 272.580328,25.6119172 272.893622,25.799894 C273.206917,25.9878707 273.363562,26.2573001 273.363562,26.6081901 L273.363562,51.8721449 C273.363562,52.2230349 273.206917,52.4987301 272.893622,52.6992386 C272.580328,52.8997472 272.210645,53 271.784565,53 C271.358484,53 270.988802,52.8997472 270.675507,52.6992386 C270.362212,52.4987301 270.205567,52.2230349 270.205567,51.8721449 Z M285.594524,51.8721449 L285.594524,26.6081901 C285.594524,25.8813465 286.120851,25.5179302 287.173521,25.5179302 C287.699856,25.5179302 288.144728,25.6745751 288.508149,25.9878698 C288.871571,26.3011645 289.228722,26.8086942 289.579612,27.5104742 L298.940809,45.8193224 L298.940809,26.6081901 C298.940809,26.2573001 299.097454,25.9878707 299.410749,25.799894 C299.724044,25.6119172 300.093726,25.5179302 300.519806,25.5179302 C300.945887,25.5179302 301.315569,25.6119172 301.628864,25.799894 C301.942159,25.9878707 302.098804,26.2573001 302.098804,26.6081901 L302.098804,51.8721449 C302.098804,52.2230349 301.942159,52.4987301 301.628864,52.6992386 C301.315569,52.8997472 300.945887,53 300.519806,53 C299.717772,53 299.053597,52.5237993 298.527262,51.5713835 L288.752518,32.6610126 L288.752518,51.8721449 C288.752518,52.2230349 288.595873,52.4987301 288.282578,52.6992386 C287.969284,52.8997472 287.599601,53 287.173521,53 C286.74744,53 286.377758,52.8997472 286.064463,52.6992386 C285.751169,52.4987301 285.594524,52.2230349 285.594524,51.8721449 Z" id="PLAYAGAIN" fill="#111111"></path>
                    </g>
                </g>
            </g>
        </g>
    </g>
</svg>