<?xml version="1.0" encoding="UTF-8"?>
<svg width="287px" height="98px" viewBox="0 0 287 98" version="1.1" xmlns="http://www.w3.org/2000/svg" xmlns:xlink="http://www.w3.org/1999/xlink">
    <!-- Generator: Sketch 53 (72520) - https://sketchapp.com -->
    <title>button_game_mode</title>
    <desc>Created with Sketch.</desc>
    <defs>
        <path d="M65.437,20.584 C65.0689982,19.6559954 64.5490034,18.9400025 63.877,18.436 C63.2049966,17.9319975 62.1570071,17.68 60.733,17.68 C59.9489961,17.68 59.2770028,17.779999 58.717,17.98 C58.1569972,18.180001 57.6530022,18.5199976 57.205,19 C56.7569978,19.4800024 56.4210011,20.1719955 56.197,21.076 C55.9729989,21.9800045 55.861,23.0959934 55.861,24.424 L55.861,26.776 C55.861,28.1040066 55.9729989,29.2199955 56.197,30.124 C56.4210011,31.0280045 56.7569978,31.7199976 57.205,32.2 C57.6530022,32.6800024 58.1569972,33.019999 58.717,33.22 C59.2770028,33.420001 59.9489961,33.52 60.733,33.52 C62.1730072,33.52 63.3169958,33.2120031 64.165,32.596 C65.0130042,31.9799969 65.437,31.3200035 65.437,30.616 L65.437,26.56 L62.485,26.56 L62.485,25.84 L66.301,25.84 L66.301,30.376 C66.301,31.4480054 65.8170048,32.3599962 64.849,33.112 C63.8809952,33.8640038 62.5090089,34.24 60.733,34.24 C58.7649902,34.24 57.3410044,33.636006 56.461,32.428 C55.5809956,31.219994 55.141,29.3360128 55.141,26.776 L55.141,24.424 C55.141,21.8639872 55.5809956,19.980006 56.461,18.772 C57.3410044,17.563994 58.7649902,16.96 60.733,16.96 C62.3170079,16.96 63.5009961,17.2519971 64.285,17.836 C65.0690039,18.4200029 65.6769978,19.2479946 66.109,20.32 L65.437,20.584 Z M74.105,33.28 L81.929,33.28 L77.009,21.688 L71.777,34 L71.009,34 L77.009,19.84 L83.009,34 L74.105,34 L74.105,33.28 Z M90.501,33.28 L99.765,33.28 L99.765,21.088 L94.365,26.488 L88.965,21.088 L88.965,34 L88.245,33.976 L88.245,20.08 L88.965,20.08 L94.365,25.48 L99.765,20.08 L100.485,20.08 L100.485,34 L90.501,33.976 L90.501,33.28 Z M116.857,32.584 C115.976996,33.6880055 114.53701,34.24 112.537,34.24 C110.53699,34.24 109.105004,33.6720057 108.241,32.536 C107.376996,31.3999943 106.945,29.5680126 106.945,27.04 C106.945,24.5119874 107.376996,22.6800057 108.241,21.544 C109.105004,20.4079943 110.53699,19.84 112.537,19.84 C114.857012,19.84 116.432996,20.5999924 117.265,22.12 L111.385,27.04 L110.257,27.04 L116.329,21.976 C115.624996,21.0319953 114.361009,20.56 112.537,20.56 C111.736996,20.56 111.065003,20.6439992 110.521,20.812 C109.976997,20.9800008 109.477002,21.2919977 109.021,21.748 C108.564998,22.2040023 108.225001,22.8679956 108.001,23.74 C107.776999,24.6120044 107.665,25.7119934 107.665,27.04 C107.665,28.3680066 107.776999,29.4679956 108.001,30.34 C108.225001,31.2120044 108.564998,31.8759977 109.021,32.332 C109.477002,32.7880023 109.976997,33.0999992 110.521,33.268 C111.065003,33.4360008 111.736996,33.52 112.537,33.52 C114.361009,33.52 115.624996,33.0480047 116.329,32.104 L116.857,32.584 Z M134.937,33.28 L144.393,33.28 L144.393,18.904 L138.993,30.472 L133.593,18.88 L133.593,34 L132.873,33.976 L132.873,17.176 L133.593,17.176 L138.993,28.768 L144.393,17.2 L145.113,17.176 L145.113,34 L134.937,33.976 L134.937,33.28 Z M159.277,20.824 C158.732997,20.6479991 158.061004,20.56 157.261,20.56 C156.460996,20.56 155.789003,20.6439992 155.245,20.812 C154.700997,20.9800008 154.201002,21.2919977 153.745,21.748 C153.288998,22.2040023 152.949001,22.8679956 152.725,23.74 C152.500999,24.6120044 152.389,25.7119934 152.389,27.04 C152.389,28.3680066 152.500999,29.4679956 152.725,30.34 C152.949001,31.2120044 153.288998,31.8759977 153.745,32.332 C154.201002,32.7880023 154.700997,33.0999992 155.245,33.268 C155.789003,33.4360008 156.460996,33.52 157.261,33.52 C158.061004,33.52 158.732997,33.4360008 159.277,33.268 C159.821003,33.0999992 160.320998,32.7880023 160.777,32.332 C161.233002,31.8759977 161.572999,31.2120044 161.797,30.34 C162.021001,29.4679956 162.133,28.3680066 162.133,27.04 C162.133,25.7119934 162.021001,24.6120044 161.797,23.74 C161.572999,22.8679956 161.233002,22.2040023 160.777,21.748 C160.320998,21.2919977 159.821003,20.9840008 159.277,20.824 Z M161.557,32.536 C160.692996,33.6720057 159.26101,34.24 157.261,34.24 C155.26099,34.24 153.829004,33.6720057 152.965,32.536 C152.100996,31.3999943 151.669,29.5680126 151.669,27.04 C151.669,24.5119874 152.100996,22.6800057 152.965,21.544 C153.829004,20.4079943 155.26099,19.84 157.261,19.84 C159.26101,19.84 160.692996,20.4079943 161.557,21.544 C162.421004,22.6800057 162.853,24.5119874 162.853,27.04 C162.853,29.5680126 162.421004,31.3999943 161.557,32.536 Z M171.137,34 L169.313,34 L169.313,20.08 L171.137,20.08 C173.505012,20.08 175.392993,20.7039938 176.801,21.952 C178.209007,23.2000062 178.913,24.8959893 178.913,27.04 C178.913,29.1840107 178.209007,30.8799938 176.801,32.128 C175.392993,33.3760062 173.505012,34 171.137,34 Z M171.137,33.28 C173.297011,33.28 175.012994,32.7280055 176.285,31.624 C177.557006,30.5199945 178.193,28.9920098 178.193,27.04 C178.193,25.0879902 177.557006,23.5600055 176.285,22.456 C175.012994,21.3519945 173.297011,20.8 171.137,20.8 L170.033,20.8 L170.033,33.28 L171.137,33.28 Z M194.397,32.584 C193.516996,33.6880055 192.07701,34.24 190.077,34.24 C188.07699,34.24 186.645004,33.6720057 185.781,32.536 C184.916996,31.3999943 184.485,29.5680126 184.485,27.04 C184.485,24.5119874 184.916996,22.6800057 185.781,21.544 C186.645004,20.4079943 188.07699,19.84 190.077,19.84 C192.397012,19.84 193.972996,20.5999924 194.805,22.12 L188.925,27.04 L187.797,27.04 L193.869,21.976 C193.164996,21.0319953 191.901009,20.56 190.077,20.56 C189.276996,20.56 188.605003,20.6439992 188.061,20.812 C187.516997,20.9800008 187.017002,21.2919977 186.561,21.748 C186.104998,22.2040023 185.765001,22.8679956 185.541,23.74 C185.316999,24.6120044 185.205,25.7119934 185.205,27.04 C185.205,28.3680066 185.316999,29.4679956 185.541,30.34 C185.765001,31.2120044 186.104998,31.8759977 186.561,32.332 C187.017002,32.7880023 187.516997,33.0999992 188.061,33.268 C188.605003,33.4360008 189.276996,33.52 190.077,33.52 C191.901009,33.52 193.164996,33.0480047 193.869,32.104 L194.397,32.584 Z" id="path-1"></path>
    </defs>
    <g id="[Screens]" stroke="none" stroke-width="1" fill="none" fill-rule="evenodd">
        <g id="landing" transform="translate(-357.000000, -722.000000)">
            <g id="buttons" transform="translate(357.000000, 722.000000)">
                <g id="button_game_mode">
                    <rect id="bg" fill="#FFFFFF" fill-rule="nonzero" x="0" y="0" width="287" height="98"></rect>
                    <text id="Use-artificial-selec" font-family="Dosis-ExtraLight, Dosis" font-size="18" font-weight="300" line-spacing="21" letter-spacing="-0.1" fill="#111111">
                        <tspan x="0.5" y="84">Use artificial selection to breed hybrid plants.</tspan>
                    </text>
                    <g id="game_mode_button" transform="translate(17.234000, 1.000000)" fill-rule="nonzero">
                        <rect id="button" stroke="#111111" stroke-width="1.30339075" stroke-linecap="round" stroke-linejoin="round" x="0" y="0" width="250" height="50" rx="1.30339075"></rect>
                        <g id="GameMode" fill="#111111">
                            <use xlink:href="#path-1"></use>
                            <use stroke="#111111" stroke-width="0.588785047" xlink:href="#path-1"></use>
                        </g>
                    </g>
                </g>
            </g>
        </g>
    </g>
</svg>