<?xml version="1.0" encoding="UTF-8"?>
<svg width="271px" height="111px" viewBox="0 0 271 111" version="1.1" xmlns="http://www.w3.org/2000/svg" xmlns:xlink="http://www.w3.org/1999/xlink">
    <!-- Generator: Sketch 52.6 (67491) - http://www.bohemiancoding.com/sketch -->
    <title>button_sow</title>
    <desc>Created with Sketch.</desc>
    <g id="components" stroke="none" stroke-width="1" fill="none" fill-rule="evenodd">
        <g id="ui" transform="translate(0.000000, -362.000000)" fill-rule="nonzero">
            <g id="buttons" transform="translate(2.000000, 364.000000)">
                <g id="button_sow">
                    <rect id="button" stroke="#111111" stroke-width="3" stroke-linecap="round" stroke-linejoin="round" x="0" y="0" width="266.766467" height="106.706587" rx="3"></rect>
                    <path d="M172.80415,71.8739905 C172.562364,72.4424277 171.756478,72.4418735 171.515474,71.8731043 L156.890017,37.357026 C156.602177,36.677725 156.91952,35.8937029 157.598821,35.6058636 C157.763696,35.5360012 157.940934,35.5 158.12,35.5 C158.98287,35.5 159.762231,36.0156218 160.099701,36.8097613 L172.160304,65.1909032 L180.57585,45.4060095 C180.817769,44.8372596 181.624242,44.8382225 181.864802,45.4075483 L190.221443,65.18493 L201.462458,38.7 L167.72,38.7 C166.836344,38.7 166.12,37.9836556 166.12,37.1 C166.12,36.2163444 166.836344,35.5 167.72,35.5 L205.22,35.5 C205.721308,35.5 206.060111,36.0115241 205.864526,36.4731043 L190.864526,71.8731043 C190.62321,72.4426115 189.815938,72.4422029 189.575198,71.8724517 L181.217859,52.0934166 L172.80415,71.8739905 Z M137.197162,67.7637572 C134.889909,70.7973675 131.101582,72.3 125.9,72.3 C120.698418,72.3 116.910091,70.7973675 114.602838,67.7637572 C112.333164,64.7795566 111.22,60.0589167 111.22,53.6 C111.22,47.1410833 112.333164,42.4204434 114.602838,39.4362428 C116.910091,36.4026325 120.698418,34.9 125.9,34.9 C131.101582,34.9 134.889909,36.4026325 137.197162,39.4362428 C139.466836,42.4204434 140.58,47.1410833 140.58,53.6 C140.58,60.0589167 139.466836,64.7795566 137.197162,67.7637572 Z M130.742484,38.7315559 L130.724526,38.7260112 C129.440866,38.3107093 127.831813,38.1 125.9,38.1 C123.965229,38.1 122.353098,38.3015164 121.066551,38.6988323 C119.819148,39.0840597 118.666865,39.803084 117.604975,40.8649747 C116.562419,41.9075302 115.768988,43.4570553 115.237988,45.524162 C114.69425,47.6408573 114.42,50.3343808 114.42,53.6 C114.42,56.8656192 114.69425,59.5591427 115.237988,61.675838 C115.768988,63.7429447 116.562419,65.2924698 117.604975,66.3350253 C118.666865,67.396916 119.819148,68.1159403 121.066551,68.5011677 C122.353098,68.8984836 123.965229,69.1 125.9,69.1 C127.834771,69.1 129.446902,68.8984836 130.733449,68.5011677 C131.980852,68.1159403 133.133135,67.396916 134.195025,66.3350253 C135.237581,65.2924698 136.031012,63.7429447 136.562012,61.675838 C137.10575,59.5591427 137.38,56.8656192 137.38,53.6 C137.38,50.3343808 137.10575,47.6408573 136.562012,45.524162 C136.031012,43.4570553 135.237581,41.9075302 134.195025,40.8649747 C133.135242,39.8051919 131.986116,39.0973302 130.742484,38.7315559 Z M78.58,34.78 C82.9591066,34.78 86.2903008,35.62009 88.5647291,37.3326477 C88.671829,37.4132899 88.7905769,37.5103167 88.9220601,37.6242907 C89.5900812,38.2034633 89.6621836,39.2145038 89.0830712,39.8825821 C89.0706261,39.8968254 89.0706261,39.8968254 89.0579581,39.910871 C88.4837315,40.5425201 87.516813,40.6174501 86.8523,40.0819464 C86.7924536,40.0337495 86.7393485,39.9926991 86.6933132,39.9589473 C84.9061312,38.6486366 82.2854921,37.98 78.82,37.98 C72.93583,37.98 70.16,40.186429 70.16,44.72 C70.16,46.4203548 70.8168025,47.7426019 72.16,48.75 C73.6064401,49.8348301 75.3769256,50.6674368 77.4757534,51.2450958 C79.6614892,51.8466745 81.8471615,52.4783137 84.0328346,53.1400312 C86.3165324,53.831426 88.2635545,54.9470171 89.8649105,56.4851616 C91.5269591,58.0816031 92.36,60.1751663 92.36,62.72 C92.36,65.7064363 91.1106826,68.1173998 88.6487506,69.8882631 C86.2336978,71.6254064 82.7944795,72.48 78.34,72.48 C76.1578552,72.48 74.006131,72.1917307 71.8863728,71.6154858 C70.4379716,71.2217456 69.2271732,70.7005323 68.2549387,70.0467548 C68.0931423,69.937955 67.9146817,69.8013847 67.7176676,69.6363998 C67.0447648,69.0729527 66.9560759,68.070687 67.519557,67.3978155 C67.5404695,67.3731843 67.5404695,67.3731843 67.5620419,67.349129 C68.1376681,66.7159403 69.1023389,66.6291416 69.7817316,67.1493913 C69.9790855,67.3005062 70.1455095,67.4184667 70.2787134,67.5023441 C72.1499631,68.6806549 74.7549494,69.28 78.1,69.28 C81.8448384,69.28 84.6351845,68.5943177 86.4782798,67.2538847 C88.2883259,65.9374876 89.16,64.458283 89.16,62.78 C89.16,60.9891248 88.4936363,59.5687181 87.1375113,58.4624055 C85.6943151,57.2850612 83.9299596,56.398115 81.8385112,55.8032994 C79.6547043,55.1822167 77.4709441,54.5411128 75.2871654,53.8799688 C73.0085753,53.1901204 71.0654456,52.1082698 69.465767,50.6348816 C67.7976498,49.0984578 66.96,47.0704636 66.96,44.6 C66.96,41.3073594 68.0860189,38.8038804 70.3379532,37.1641224 C72.5252505,35.5714302 75.2794276,34.78 78.58,34.78 Z" id="sow" fill="#111111"></path>
                </g>
            </g>
        </g>
    </g>
</svg>