<?xml version="1.0" encoding="UTF-8"?>
<svg width="287px" height="98px" viewBox="0 0 287 98" version="1.1" xmlns="http://www.w3.org/2000/svg" xmlns:xlink="http://www.w3.org/1999/xlink">
    <!-- Generator: Sketch 53 (72520) - https://sketchapp.com -->
    <title>button_ambient_mode</title>
    <desc>Created with Sketch.</desc>
    <defs>
        <path d="M39.021,33.28 L47.853,33.28 L42.765,19.288 L37.413,34 L36.645,34 L42.765,17.176 L48.885,34 L39.021,34 L39.021,33.28 Z M56.353,33.28 L65.617,33.28 L65.617,21.088 L60.217,26.488 L54.817,21.088 L54.817,34 L54.097,33.976 L54.097,20.08 L54.817,20.08 L60.217,25.48 L65.617,20.08 L66.337,20.08 L66.337,34 L56.353,33.976 L56.353,33.28 Z M76.853,34 L73.397,34 L73.397,20.08 L76.037,20.08 C77.9250094,20.08 79.3529952,20.4079967 80.321,21.064 C81.2890048,21.7200033 81.773,22.6159943 81.773,23.752 C81.773,25.1120068 81.173006,26.095997 79.973,26.704 C80.8530044,27.0080015 81.5089978,27.459997 81.941,28.06 C82.3730022,28.660003 82.589,29.3519961 82.589,30.136 C82.589,31.2880058 82.1130048,32.2199964 81.161,32.932 C80.2089952,33.6440036 78.7730096,34 76.853,34 Z M76.853,33.28 C78.261007,33.28 79.4489952,33.0240026 80.417,32.512 C81.3850048,31.9999974 81.869,31.2080054 81.869,30.136 C81.869,29.6399975 81.6850018,29.1000029 81.317,28.516 C80.9489982,27.9319971 80.3810038,27.5040014 79.613,27.232 L78.365,26.8 L79.517,26.2 C79.917002,25.991999 80.2729984,25.6760021 80.585,25.252 C80.8970016,24.8279979 81.053,24.3280029 81.053,23.752 C81.053,22.743995 80.5730048,22.0000024 79.613,21.52 C78.6529952,21.0399976 77.4610071,20.8 76.037,20.8 L74.117,20.8 L74.117,33.28 L76.853,33.28 Z M88.761,20.08 L89.481,20.08 L89.481,34 L88.761,34 L88.761,20.08 Z M105.853,32.584 C104.972996,33.6880055 103.53301,34.24 101.533,34.24 C99.53299,34.24 98.1010043,33.6720057 97.237,32.536 C96.3729957,31.3999943 95.941,29.5680126 95.941,27.04 C95.941,24.5119874 96.3729957,22.6800057 97.237,21.544 C98.1010043,20.4079943 99.53299,19.84 101.533,19.84 C103.853012,19.84 105.428996,20.5999924 106.261,22.12 L100.381,27.04 L99.253,27.04 L105.325,21.976 C104.620996,21.0319953 103.357009,20.56 101.533,20.56 C100.732996,20.56 100.061003,20.6439992 99.517,20.812 C98.9729973,20.9800008 98.4730023,21.2919977 98.017,21.748 C97.5609977,22.2040023 97.2210011,22.8679956 96.997,23.74 C96.7729989,24.6120044 96.661,25.7119934 96.661,27.04 C96.661,28.3680066 96.7729989,29.4679956 96.997,30.34 C97.2210011,31.2120044 97.5609977,31.8759977 98.017,32.332 C98.4730023,32.7880023 98.9729973,33.0999992 99.517,33.268 C100.061003,33.4360008 100.732996,33.52 101.533,33.52 C103.357009,33.52 104.620996,33.0480047 105.325,32.104 L105.853,32.584 Z M112.193,34 L112.193,20.08 L112.913,20.08 L120.737,32.68 L120.737,20.08 L121.457,20.08 L121.457,34 L120.737,34 L112.913,21.376 L112.913,34 L112.193,34 Z M137.517,20.08 L137.517,20.8 L132.477,20.8 L132.477,34 L131.757,34 L131.757,20.8 L126.717,20.8 L126.717,20.08 L137.517,20.08 Z M154.517,33.28 L163.973,33.28 L163.973,18.904 L158.573,30.472 L153.173,18.88 L153.173,34 L152.453,33.976 L152.453,17.176 L153.173,17.176 L158.573,28.768 L163.973,17.2 L164.693,17.176 L164.693,34 L154.517,33.976 L154.517,33.28 Z M178.857,20.824 C178.312997,20.6479991 177.641004,20.56 176.841,20.56 C176.040996,20.56 175.369003,20.6439992 174.825,20.812 C174.280997,20.9800008 173.781002,21.2919977 173.325,21.748 C172.868998,22.2040023 172.529001,22.8679956 172.305,23.74 C172.080999,24.6120044 171.969,25.7119934 171.969,27.04 C171.969,28.3680066 172.080999,29.4679956 172.305,30.34 C172.529001,31.2120044 172.868998,31.8759977 173.325,32.332 C173.781002,32.7880023 174.280997,33.0999992 174.825,33.268 C175.369003,33.4360008 176.040996,33.52 176.841,33.52 C177.641004,33.52 178.312997,33.4360008 178.857,33.268 C179.401003,33.0999992 179.900998,32.7880023 180.357,32.332 C180.813002,31.8759977 181.152999,31.2120044 181.377,30.34 C181.601001,29.4679956 181.713,28.3680066 181.713,27.04 C181.713,25.7119934 181.601001,24.6120044 181.377,23.74 C181.152999,22.8679956 180.813002,22.2040023 180.357,21.748 C179.900998,21.2919977 179.401003,20.9840008 178.857,20.824 Z M181.137,32.536 C180.272996,33.6720057 178.84101,34.24 176.841,34.24 C174.84099,34.24 173.409004,33.6720057 172.545,32.536 C171.680996,31.3999943 171.249,29.5680126 171.249,27.04 C171.249,24.5119874 171.680996,22.6800057 172.545,21.544 C173.409004,20.4079943 174.84099,19.84 176.841,19.84 C178.84101,19.84 180.272996,20.4079943 181.137,21.544 C182.001004,22.6800057 182.433,24.5119874 182.433,27.04 C182.433,29.5680126 182.001004,31.3999943 181.137,32.536 Z M190.717,34 L188.893,34 L188.893,20.08 L190.717,20.08 C193.085012,20.08 194.972993,20.7039938 196.381,21.952 C197.789007,23.2000062 198.493,24.8959893 198.493,27.04 C198.493,29.1840107 197.789007,30.8799938 196.381,32.128 C194.972993,33.3760062 193.085012,34 190.717,34 Z M190.717,33.28 C192.877011,33.28 194.592994,32.7280055 195.865,31.624 C197.137006,30.5199945 197.773,28.9920098 197.773,27.04 C197.773,25.0879902 197.137006,23.5600055 195.865,22.456 C194.592994,21.3519945 192.877011,20.8 190.717,20.8 L189.613,20.8 L189.613,33.28 L190.717,33.28 Z M213.977,32.584 C213.096996,33.6880055 211.65701,34.24 209.657,34.24 C207.65699,34.24 206.225004,33.6720057 205.361,32.536 C204.496996,31.3999943 204.065,29.5680126 204.065,27.04 C204.065,24.5119874 204.496996,22.6800057 205.361,21.544 C206.225004,20.4079943 207.65699,19.84 209.657,19.84 C211.977012,19.84 213.552996,20.5999924 214.385,22.12 L208.505,27.04 L207.377,27.04 L213.449,21.976 C212.744996,21.0319953 211.481009,20.56 209.657,20.56 C208.856996,20.56 208.185003,20.6439992 207.641,20.812 C207.096997,20.9800008 206.597002,21.2919977 206.141,21.748 C205.684998,22.2040023 205.345001,22.8679956 205.121,23.74 C204.896999,24.6120044 204.785,25.7119934 204.785,27.04 C204.785,28.3680066 204.896999,29.4679956 205.121,30.34 C205.345001,31.2120044 205.684998,31.8759977 206.141,32.332 C206.597002,32.7880023 207.096997,33.0999992 207.641,33.268 C208.185003,33.4360008 208.856996,33.52 209.657,33.52 C211.481009,33.52 212.744996,33.0480047 213.449,32.104 L213.977,32.584 Z" id="path-1"></path>
    </defs>
    <g id="[Screens]" stroke="none" stroke-width="1" fill="none" fill-rule="evenodd">
        <g id="landing" transform="translate(-796.000000, -722.000000)">
            <g id="buttons" transform="translate(357.000000, 722.000000)">
                <g id="button_ambient_mode" transform="translate(439.000000, 0.000000)">
                    <rect id="bg" fill="#FFFFFF" fill-rule="nonzero" x="0" y="0" width="287" height="98"></rect>
                    <text id="Sit-back-and-watch-n" font-family="Dosis-ExtraLight, Dosis" font-size="18" font-weight="300" line-spacing="21" letter-spacing="-0.1" fill="#111111">
                        <tspan x="10.75" y="84">Sit back and watch nature take its course.</tspan>
                    </text>
                    <g id="ambient_mode_button" transform="translate(18.234000, 1.000000)" fill-rule="nonzero">
                        <rect id="button" stroke="#111111" stroke-width="1.30339075" stroke-linecap="round" stroke-linejoin="round" x="0" y="0" width="250" height="50" rx="1.30339075"></rect>
                        <g id="AmbientMode">
                            <use fill="#FFFFFF" xlink:href="#path-1"></use>
                            <use stroke="#111111" stroke-width="0.588785047" fill="#111111" xlink:href="#path-1"></use>
                        </g>
                    </g>
                </g>
            </g>
        </g>
    </g>
</svg>