<?xml version="1.0" encoding="UTF-8"?>
<svg width="302px" height="62px" viewBox="0 0 302 62" version="1.1" xmlns="http://www.w3.org/2000/svg" xmlns:xlink="http://www.w3.org/1999/xlink">
    <!-- Generator: Sketch 53.2 (72643) - https://sketchapp.com -->
    <title>button_ambient_mode</title>
    <desc>Created with Sketch.</desc>
    <g id="[Screens]" stroke="none" stroke-width="1" fill="none" fill-rule="evenodd">
        <g id="landing-(dark)" transform="translate(-819.000000, -715.000000)" fill-rule="nonzero">
            <g id="title_landing" transform="translate(216.000000, 12.000000)">
                <g id="buttons" transform="translate(96.000000, 704.000000)">
                    <g id="button_ambient_mode" transform="translate(508.000000, 0.000000)">
                        <rect id="button" stroke="#E3E5D8" stroke-width="1.5640689" stroke-linecap="round" stroke-linejoin="round" x="0" y="0" width="300" height="60" rx="1.5640689"></rect>
                        <path d="M66.558,38.384 C66.558,38.3106663 66.5653333,38.2593335 66.58,38.23 L71.178,23.292 C71.2806672,22.954665 71.5666643,22.786 72.036,22.786 C72.5053357,22.786 72.7986661,22.954665 72.916,23.292 L77.492,38.23 C77.492,38.2446667 77.4956666,38.2666665 77.503,38.296 C77.5103334,38.3253335 77.514,38.3473333 77.514,38.362 C77.514,38.5380009 77.4186676,38.6883327 77.228,38.813 C77.0373324,38.9376673 76.8393344,39 76.634,39 C76.3553319,39 76.1720004,38.8753346 76.084,38.626 L75.072,35.238 L68.978,35.238 L67.966,38.626 C67.907333,38.8753346 67.7166683,39 67.394,39 C67.1886656,39 66.9980009,38.9413339 66.822,38.824 C66.6459991,38.7066661 66.558,38.5600009 66.558,38.384 Z M69.352,33.984 L74.698,33.984 L72.036,25.118 L69.352,33.984 Z M82.648,38.428 L82.648,23.622 C82.648,23.1526643 82.8899976,22.918 83.374,22.918 C83.7993355,22.918 84.1879982,23.25533 84.54,23.93 L88.324,31.234 L92.108,23.93 C92.4600018,23.25533 92.8486645,22.918 93.274,22.918 C93.7580024,22.918 94,23.1526643 94,23.622 L94,38.428 C94,38.6040009 93.930334,38.7433328 93.791,38.846 C93.651666,38.9486672 93.4793344,39 93.274,39 C93.0833324,39 92.9146674,38.9486672 92.768,38.846 C92.6213326,38.7433328 92.548,38.6040009 92.548,38.428 L92.548,26.064 L88.896,32.972 C88.7346659,33.2800015 88.5366678,33.434 88.302,33.434 C88.0819989,33.434 87.8913341,33.2800015 87.73,32.972 L84.1,25.998 L84.1,38.428 C84.1,38.6040009 84.0266674,38.7433328 83.88,38.846 C83.7333326,38.9486672 83.5646676,39 83.374,39 C83.1686656,39 82.996334,38.9486672 82.857,38.846 C82.717666,38.7433328 82.648,38.6040009 82.648,38.428 Z M100.344,38.45 L100.344,23.468 C100.344,23.2919991 100.409999,23.1563338 100.542,23.061 C100.674001,22.9656662 100.827999,22.918 101.004,22.918 L104.612,22.918 C105.28667,22.918 105.873331,22.9693328 106.372,23.072 C106.870669,23.1746672 107.336331,23.3579987 107.769,23.622 C108.201669,23.8860013 108.531666,24.2709975 108.759,24.777 C108.986334,25.2830025 109.1,25.9099963 109.1,26.658 C109.1,27.5673379 108.931335,28.3373302 108.594,28.968 C108.256665,29.5986698 107.802003,30.0386654 107.23,30.288 C107.963337,30.5813348 108.524331,31.0213304 108.913,31.608 C109.301669,32.1946696 109.496,33.0159947 109.496,34.072 L109.496,34.468 C109.496,36.0520079 109.100004,37.2033297 108.308,37.922 C107.515996,38.6406703 106.460007,39 105.14,39 L101.004,39 C100.798666,39 100.637334,38.9450006 100.52,38.835 C100.402666,38.7249994 100.344,38.5966674 100.344,38.45 Z M101.774,37.658 L104.964,37.658 C107.017344,37.658 108.044,36.5726775 108.044,34.402 L108.044,34.028 C108.044,31.9453229 107.017344,30.904 104.964,30.904 L101.774,30.904 L101.774,37.658 Z M101.774,29.65 L104.656,29.65 C105.697339,29.65 106.456331,29.4336688 106.933,29.001 C107.409669,28.5683312 107.648,27.8386718 107.648,26.812 C107.648,25.8586619 107.384003,25.1950019 106.856,24.821 C106.327997,24.4469981 105.565338,24.26 104.568,24.26 L101.774,24.26 L101.774,29.65 Z M115.18,38.428 L115.18,23.446 C115.18,23.0939982 115.421998,22.918 115.906,22.918 C116.390002,22.918 116.632,23.0939982 116.632,23.446 L116.632,38.428 C116.632,38.6040009 116.558667,38.7433328 116.412,38.846 C116.265333,38.9486672 116.096668,39 115.906,39 C115.700666,39 115.528334,38.9486672 115.389,38.846 C115.249666,38.7433328 115.18,38.6040009 115.18,38.428 Z M122.976,38.428 L122.976,23.468 C122.976,23.2919991 123.041999,23.1563338 123.174,23.061 C123.306001,22.9656662 123.459999,22.918 123.636,22.918 L131.468,22.918 C131.834668,22.918 132.018,23.1306645 132.018,23.556 C132.018,23.7466676 131.970334,23.911666 131.875,24.051 C131.779666,24.190334 131.644001,24.26 131.468,24.26 L124.428,24.26 L124.428,30.31 L127.882,30.31 C128.058001,30.31 128.193666,30.3723327 128.289,30.497 C128.384334,30.6216673 128.432,30.7793324 128.432,30.97 C128.432,31.366002 128.248669,31.564 127.882,31.564 L124.428,31.564 L124.428,37.658 L131.468,37.658 C131.629334,37.658 131.761333,37.7239993 131.864,37.856 C131.966667,37.9880007 132.018,38.1493324 132.018,38.34 C132.018,38.7800022 131.834668,39 131.468,39 L123.636,39 C123.459999,39 123.306001,38.9486672 123.174,38.846 C123.041999,38.7433328 122.976,38.6040009 122.976,38.428 Z M137.152,38.428 L137.152,23.468 C137.152,23.1013315 137.393998,22.918 137.878,22.918 C138.288669,22.918 138.669998,23.25533 139.022,23.93 L144.962,35.634 L144.962,23.446 C144.962,23.0939982 145.203998,22.918 145.688,22.918 C146.172002,22.918 146.414,23.0939982 146.414,23.446 L146.414,38.428 C146.414,38.6040009 146.340667,38.7433328 146.194,38.846 C146.047333,38.9486672 145.878668,39 145.688,39 C145.321331,39 144.998668,38.7213361 144.72,38.164 L138.604,26.262 L138.604,38.428 C138.604,38.6040009 138.530667,38.7433328 138.384,38.846 C138.237333,38.9486672 138.068668,39 137.878,39 C137.672666,39 137.500334,38.9486672 137.361,38.846 C137.221666,38.7433328 137.152,38.6040009 137.152,38.428 Z M151.416,23.6 C151.416,23.4239991 151.463666,23.266334 151.559,23.127 C151.654334,22.987666 151.789999,22.918 151.966,22.918 L160.788,22.918 C160.964001,22.918 161.099666,22.9839993 161.195,23.116 C161.290334,23.2480007 161.338,23.4019991 161.338,23.578 C161.338,23.7686676 161.290334,23.933666 161.195,24.073 C161.099666,24.212334 160.964001,24.282 160.788,24.282 L157.114,24.282 L157.114,38.428 C157.114,38.6040009 157.040667,38.7433328 156.894,38.846 C156.747333,38.9486672 156.578668,39 156.388,39 C156.182666,39 156.010334,38.9486672 155.871,38.846 C155.731666,38.7433328 155.662,38.6040009 155.662,38.428 L155.662,24.282 L151.966,24.282 C151.804666,24.282 151.672667,24.2160007 151.57,24.084 C151.467333,23.9519993 151.416,23.7906676 151.416,23.6 Z M173.74,38.428 L173.74,23.622 C173.74,23.1526643 173.981998,22.918 174.466,22.918 C174.891335,22.918 175.279998,23.25533 175.632,23.93 L179.416,31.234 L183.2,23.93 C183.552002,23.25533 183.940665,22.918 184.366,22.918 C184.850002,22.918 185.092,23.1526643 185.092,23.622 L185.092,38.428 C185.092,38.6040009 185.022334,38.7433328 184.883,38.846 C184.743666,38.9486672 184.571334,39 184.366,39 C184.175332,39 184.006667,38.9486672 183.86,38.846 C183.713333,38.7433328 183.64,38.6040009 183.64,38.428 L183.64,26.064 L179.988,32.972 C179.826666,33.2800015 179.628668,33.434 179.394,33.434 C179.173999,33.434 178.983334,33.2800015 178.822,32.972 L175.192,25.998 L175.192,38.428 C175.192,38.6040009 175.118667,38.7433328 174.972,38.846 C174.825333,38.9486672 174.656668,39 174.466,39 C174.260666,39 174.088334,38.9486672 173.949,38.846 C173.809666,38.7433328 173.74,38.6040009 173.74,38.428 Z M191.26,34.424 L191.26,27.604 C191.26,25.9906586 191.674329,24.8063371 192.503,24.051 C193.331671,23.2956629 194.44266,22.918 195.836,22.918 C197.22934,22.918 198.340329,23.2956629 199.169,24.051 C199.997671,24.8063371 200.412,25.9906586 200.412,27.604 L200.412,34.424 C200.412,36.0520081 199.997671,37.2436629 199.169,37.999 C198.340329,38.7543371 197.22934,39.132 195.836,39.132 C194.44266,39.132 193.331671,38.7543371 192.503,37.999 C191.674329,37.2436629 191.26,36.0520081 191.26,34.424 Z M192.712,34.424 C192.712,36.6680112 193.753323,37.79 195.836,37.79 C197.918677,37.79 198.96,36.6680112 198.96,34.424 L198.96,27.604 C198.96,25.3746555 197.918677,24.26 195.836,24.26 C193.753323,24.26 192.712,25.3746555 192.712,27.604 L192.712,34.424 Z M206.58,38.45 L206.58,23.446 C206.58,23.2993326 206.642333,23.1746672 206.767,23.072 C206.891667,22.9693328 207.049332,22.918 207.24,22.918 L211.134,22.918 C212.52734,22.918 213.641996,23.2956629 214.478,24.051 C215.314004,24.8063371 215.732,25.9906586 215.732,27.604 L215.732,34.292 C215.732,35.9200081 215.314004,37.1116629 214.478,37.867 C213.641996,38.6223371 212.52734,39 211.134,39 L207.24,39 C207.049332,39 206.891667,38.9450006 206.767,38.835 C206.642333,38.7249994 206.58,38.5966674 206.58,38.45 Z M208.032,37.658 L211.134,37.658 C212.131338,37.658 212.904997,37.3756695 213.455,36.811 C214.005003,36.2463305 214.28,35.4066722 214.28,34.292 L214.28,27.604 C214.28,26.4893278 214.005003,25.6533361 213.455,25.096 C212.904997,24.5386639 212.131338,24.26 211.134,24.26 L208.032,24.26 L208.032,37.658 Z M221.9,38.428 L221.9,23.468 C221.9,23.2919991 221.965999,23.1563338 222.098,23.061 C222.230001,22.9656662 222.383999,22.918 222.56,22.918 L230.392,22.918 C230.758668,22.918 230.942,23.1306645 230.942,23.556 C230.942,23.7466676 230.894334,23.911666 230.799,24.051 C230.703666,24.190334 230.568001,24.26 230.392,24.26 L223.352,24.26 L223.352,30.31 L226.806,30.31 C226.982001,30.31 227.117666,30.3723327 227.213,30.497 C227.308334,30.6216673 227.356,30.7793324 227.356,30.97 C227.356,31.366002 227.172669,31.564 226.806,31.564 L223.352,31.564 L223.352,37.658 L230.392,37.658 C230.553334,37.658 230.685333,37.7239993 230.788,37.856 C230.890667,37.9880007 230.942,38.1493324 230.942,38.34 C230.942,38.7800022 230.758668,39 230.392,39 L222.56,39 C222.383999,39 222.230001,38.9486672 222.098,38.846 C221.965999,38.7433328 221.9,38.6040009 221.9,38.428 Z" id="AMBIENTMODE" fill="#E3E5D8"></path>
                        <rect id="hover_button" fill-opacity="0.15" fill="#FFFFFF" x="0" y="0" width="300" height="60" rx="1.5640689"></rect>
                    </g>
                </g>
            </g>
        </g>
    </g>
</svg>