<?xml version="1.0" encoding="UTF-8"?>
<svg width="321px" height="292px" viewBox="0 0 321 292" version="1.1" xmlns="http://www.w3.org/2000/svg" xmlns:xlink="http://www.w3.org/1999/xlink">
    <!-- Generator: Sketch 53 (72520) - https://sketchapp.com -->
    <title>modal_restart</title>
    <desc>Created with Sketch.</desc>
    <defs>
        <path d="M3,0 L302,0 C303.656854,-3.04359188e-16 305,1.34314575 305,3 L305,273 C305,274.656854 303.656854,276 302,276 L3,276 C1.34314575,276 2.02906125e-16,274.656854 0,273 L4.4408921e-16,3 C2.41183085e-16,1.34314575 1.34314575,3.04359188e-16 3,0 Z" id="path-1"></path>
        <filter x="-3.9%" y="-4.3%" width="107.9%" height="108.7%" filterUnits="objectBoundingBox" id="filter-2">
            <feOffset dx="0" dy="0" in="SourceAlpha" result="shadowOffsetOuter1"></feOffset>
            <feGaussianBlur stdDeviation="4" in="shadowOffsetOuter1" result="shadowBlurOuter1"></feGaussianBlur>
            <feColorMatrix values="0 0 0 0 0   0 0 0 0 0   0 0 0 0 0  0 0 0 0.3 0" type="matrix" in="shadowBlurOuter1"></feColorMatrix>
        </filter>
    </defs>
    <g id="[Screens]" stroke="none" stroke-width="1" fill="none" fill-rule="evenodd">
        <g id="ambient-mode" transform="translate(-763.000000, -166.000000)" fill-rule="nonzero">
            <g id="modal_restart" transform="translate(771.000000, 174.000000)">
                <g id="card">
                    <use fill="black" fill-opacity="1" filter="url(#filter-2)" xlink:href="#path-1"></use>
                    <use fill="#FFFFFF" xlink:href="#path-1"></use>
                </g>
                <g id="button_restart_cancel" transform="translate(38.000000, 180.000000)">
                    <rect id="Rectangle" fill="#158C12" x="0" y="0" width="230" height="60" rx="2"></rect>
                    <path d="M24.7375638,24.304 C24.7375638,24.099999 24.8565626,23.9271674 25.0945638,23.7855 C25.3325649,23.6438326 25.5875624,23.573 25.8595638,23.573 C26.2108988,23.573 26.4205634,23.6976654 26.4885638,23.947 L29.2765638,33.637 L30.8065638,27.551 C30.8858975,27.1996649 31.1862278,27.024 31.7075638,27.024 C32.2062329,27.024 32.5008966,27.1996649 32.5915638,27.551 L34.1385638,33.637 L36.9095638,23.947 C36.9775641,23.6976654 37.1872287,23.573 37.5385638,23.573 C37.8105651,23.573 38.0655626,23.6438326 38.3035638,23.7855 C38.5415649,23.9271674 38.6605638,24.099999 38.6605638,24.304 C38.6605638,24.3833337 38.6548971,24.4399998 38.6435638,24.474 L35.2775638,35.49 C35.2095634,35.6826676 35.0650649,35.8328328 34.8440638,35.9405 C34.6230626,36.0481672 34.3822317,36.102 34.1215638,36.102 C33.8608958,36.102 33.6200649,36.0481672 33.3990638,35.9405 C33.1780626,35.8328328 33.0448973,35.6826676 32.9995638,35.49 L31.7075638,30.356 L30.4155638,35.49 C30.3702302,35.6826676 30.2370649,35.8328328 30.0160638,35.9405 C29.7950626,36.0481672 29.5485651,36.102 29.2765638,36.102 C29.0045624,36.102 28.7608982,36.0481672 28.5455638,35.9405 C28.3302293,35.8328328 28.1942307,35.6826676 28.1375638,35.49 L24.7545638,24.474 C24.7432304,24.4399998 24.7375638,24.3833337 24.7375638,24.304 Z M39.4199587,33.892 C39.4199587,32.9853288 39.7599553,32.3535018 40.4399587,31.9965 C41.1199621,31.6394982 42.1059522,31.461 43.3979587,31.461 L44.1459587,31.461 L44.1459587,31.155 C44.1459587,30.6563308 44.0071267,30.2256685 43.7294587,29.863 C43.4517906,29.5003315 43.0296282,29.319 42.4629587,29.319 C41.9756229,29.319 41.5477938,29.4039991 41.1794587,29.574 C40.8111235,29.7440008 40.6099588,29.829 40.5759587,29.829 C40.383291,29.829 40.2274592,29.7355009 40.1084587,29.5485 C39.9894581,29.3614991 39.9299587,29.1546678 39.9299587,28.928 C39.9299587,28.6333319 40.2047892,28.3783344 40.7544587,28.163 C41.3041281,27.9476656 41.8849556,27.84 42.4969587,27.84 C43.6642978,27.84 44.5284558,28.1544969 45.0894587,28.7835 C45.6504615,29.4125031 45.9309587,30.1973286 45.9309587,31.138 L45.9309587,35.405 C45.9309587,35.5636675 45.8487928,35.7024994 45.6844587,35.8215 C45.5201245,35.9405006 45.3132932,36 45.0639587,36 C44.8372909,36 44.6446261,35.9405006 44.4859587,35.8215 C44.3272912,35.7024994 44.2479587,35.5636675 44.2479587,35.405 L44.2479587,34.81 C43.4886215,35.6940044 42.6329634,36.136 41.6809587,36.136 C41.023622,36.136 40.4824608,35.9433353 40.0574587,35.558 C39.6324565,35.1726647 39.4199587,34.617337 39.4199587,33.892 Z M41.2219587,33.671 C41.2219587,34.0336685 41.3239576,34.3084991 41.5279587,34.4955 C41.7319597,34.6825009 41.9982903,34.776 42.3269587,34.776 C42.7576275,34.776 43.1684567,34.5946685 43.5594587,34.232 C43.9504606,33.8693315 44.1459587,33.484002 44.1459587,33.076 L44.1459587,32.447 L43.7209587,32.447 C43.2109561,32.447 42.7944603,32.4696664 42.4714587,32.515 C42.148457,32.5603336 41.8594599,32.6793324 41.6044587,32.872 C41.3494574,33.0646676 41.2219587,33.3309983 41.2219587,33.671 Z M48.4753536,24.984 C48.4753536,24.723332 48.5773525,24.5023342 48.7813536,24.321 C48.9853546,24.1396658 49.2290188,24.049 49.5123536,24.049 C49.7956883,24.049 50.0393525,24.1396658 50.2433536,24.321 C50.4473546,24.5023342 50.5493536,24.723332 50.5493536,24.984 C50.5493536,25.2333346 50.4473546,25.4514991 50.2433536,25.6385 C50.0393525,25.8255009 49.7956883,25.919 49.5123536,25.919 C49.2290188,25.919 48.9853546,25.8255009 48.7813536,25.6385 C48.5773525,25.4514991 48.4753536,25.2333346 48.4753536,24.984 Z M48.6283536,35.405 L48.6283536,28.52 C48.6283536,28.3499992 48.7105194,28.2111672 48.8748536,28.1035 C49.0391877,27.9958328 49.2516856,27.942 49.5123536,27.942 C49.7730215,27.942 49.9883527,27.9958328 50.1583536,28.1035 C50.3283544,28.2111672 50.4133536,28.3499992 50.4133536,28.52 L50.4133536,35.405 C50.4133536,35.5523341 50.3255211,35.6883327 50.1498536,35.813 C49.974186,35.9376673 49.7616881,36 49.5123536,36 C49.263019,36 49.0533544,35.9376673 48.8833536,35.813 C48.7133527,35.6883327 48.6283536,35.5523341 48.6283536,35.405 Z M53.1447485,33.348 L53.1447485,24.831 C53.1447485,24.6723325 53.2354142,24.5363339 53.4167485,24.423 C53.5980827,24.3096661 53.8020807,24.253 54.0287485,24.253 C54.2554163,24.253 54.4622475,24.3096661 54.6492485,24.423 C54.8362494,24.5363339 54.9297485,24.6723325 54.9297485,24.831 L54.9297485,27.942 L57.0037485,27.942 C57.1510825,27.942 57.2700813,28.007166 57.3607485,28.1375 C57.4514156,28.267834 57.4967485,28.4236658 57.4967485,28.605 C57.4967485,28.7863342 57.4514156,28.942166 57.3607485,29.0725 C57.2700813,29.202834 57.1510825,29.268 57.0037485,29.268 L54.9297485,29.268 L54.9297485,33.348 C54.9297485,33.756002 55.0175809,34.0449991 55.1932485,34.215 C55.368916,34.3850008 55.6777462,34.47 56.1197485,34.47 L56.7147485,34.47 C56.9527496,34.47 57.1397478,34.5436659 57.2757485,34.691 C57.4117491,34.8383341 57.4797485,35.0196656 57.4797485,35.235 C57.4797485,35.4503344 57.4117491,35.6316659 57.2757485,35.779 C57.1397478,35.9263341 56.9527496,36 56.7147485,36 L56.1197485,36 C54.1364052,36 53.1447485,35.1160088 53.1447485,33.348 Z M59.5481434,35.813 C59.3554757,35.608999 59.2591434,35.3653348 59.2591434,35.082 C59.2591434,34.7986652 59.3554757,34.5578343 59.5481434,34.3595 C59.740811,34.1611657 59.9844752,34.062 60.2791434,34.062 C60.5511447,34.062 60.786309,34.1611657 60.9846434,34.3595 C61.1829777,34.5578343 61.2821434,34.7986652 61.2821434,35.082 C61.2821434,35.3540014 61.1829777,35.591999 60.9846434,35.796 C60.786309,36.000001 60.5511447,36.102 60.2791434,36.102 C59.9844752,36.102 59.740811,36.0056676 59.5481434,35.813 Z M68.1049332,35.405 L68.1049332,24.151 C68.1049332,23.9583324 68.1927656,23.8138338 68.3684332,23.7175 C68.5441007,23.6211662 68.7565986,23.573 69.0059332,23.573 C69.2552677,23.573 69.4677656,23.6211662 69.6434332,23.7175 C69.8191007,23.8138338 69.9069332,23.9583324 69.9069332,24.151 L69.9069332,35.405 C69.9069332,35.5863342 69.8191007,35.7308328 69.6434332,35.8385 C69.4677656,35.9461672 69.2552677,36 69.0059332,36 C68.767932,36 68.5582674,35.9461672 68.3769332,35.8385 C68.1955989,35.7308328 68.1049332,35.5863342 68.1049332,35.405 Z M76.355723,28.622 C76.355723,28.417999 76.4803884,28.2423341 76.729723,28.095 C76.9790575,27.9476659 77.234055,27.874 77.494723,27.874 C77.7780577,27.874 77.9593892,27.9816656 78.038723,28.197 L79.925723,33.484 L81.370723,28.792 C81.4500567,28.531332 81.6597213,28.401 81.999723,28.401 C82.3397247,28.401 82.5493892,28.531332 82.628723,28.792 L84.056723,33.518 L85.960723,28.197 C86.0287233,27.9816656 86.2043882,27.874 86.487723,27.874 C86.7370575,27.874 86.9892217,27.9476659 87.244223,28.095 C87.4992242,28.2423341 87.626723,28.4236656 87.626723,28.639 C87.626723,28.7296671 87.6040565,28.8203329 87.558723,28.911 L84.923723,35.813 C84.8330558,36.0510012 84.5950582,36.17 84.209723,36.17 C83.8243877,36.17 83.5807235,36.0566678 83.478723,35.83 L81.999723,31.444 L80.537723,35.779 C80.4357224,36.039668 80.180725,36.17 79.772723,36.17 C79.3987211,36.17 79.1607235,36.039668 79.058723,35.779 L76.423723,28.911 C76.3783894,28.7749993 76.355723,28.678667 76.355723,28.622 Z M89.1171179,33.892 C89.1171179,32.9853288 89.4571145,32.3535018 90.1371179,31.9965 C90.8171213,31.6394982 91.8031114,31.461 93.0951179,31.461 L93.8431179,31.461 L93.8431179,31.155 C93.8431179,30.6563308 93.7042859,30.2256685 93.4266179,29.863 C93.1489498,29.5003315 92.7267874,29.319 92.1601179,29.319 C91.6727821,29.319 91.244953,29.4039991 90.8766179,29.574 C90.5082827,29.7440008 90.307118,29.829 90.2731179,29.829 C90.0804502,29.829 89.9246184,29.7355009 89.8056179,29.5485 C89.6866173,29.3614991 89.6271179,29.1546678 89.6271179,28.928 C89.6271179,28.6333319 89.9019484,28.3783344 90.4516179,28.163 C91.0012873,27.9476656 91.5821148,27.84 92.1941179,27.84 C93.361457,27.84 94.225615,28.1544969 94.7866179,28.7835 C95.3476207,29.4125031 95.6281179,30.1973286 95.6281179,31.138 L95.6281179,35.405 C95.6281179,35.5636675 95.545952,35.7024994 95.3816179,35.8215 C95.2172837,35.9405006 95.0104524,36 94.7611179,36 C94.5344501,36 94.3417853,35.9405006 94.1831179,35.8215 C94.0244504,35.7024994 93.9451179,35.5636675 93.9451179,35.405 L93.9451179,34.81 C93.1857807,35.6940044 92.3301226,36.136 91.3781179,36.136 C90.7207812,36.136 90.17962,35.9433353 89.7546179,35.558 C89.3296157,35.1726647 89.1171179,34.617337 89.1171179,33.892 Z M90.9191179,33.671 C90.9191179,34.0336685 91.0211168,34.3084991 91.2251179,34.4955 C91.4291189,34.6825009 91.6954495,34.776 92.0241179,34.776 C92.4547867,34.776 92.8656159,34.5946685 93.2566179,34.232 C93.6476198,33.8693315 93.8431179,33.484002 93.8431179,33.076 L93.8431179,32.447 L93.4181179,32.447 C92.9081153,32.447 92.4916195,32.4696664 92.1686179,32.515 C91.8456162,32.5603336 91.5566191,32.6793324 91.3016179,32.872 C91.0466166,33.0646676 90.9191179,33.3309983 90.9191179,33.671 Z M98.3255128,35.405 L98.3255128,28.52 C98.3255128,28.3499992 98.4076786,28.2111672 98.5720128,28.1035 C98.7363469,27.9958328 98.9488448,27.942 99.2095128,27.942 C99.4361806,27.942 99.626012,27.9958328 99.7790128,28.1035 C99.9320135,28.2111672 100.008513,28.3499992 100.008513,28.52 L100.008513,29.132 C100.189847,28.7693315 100.481677,28.4633346 100.884013,28.214 C101.286348,27.9646654 101.753843,27.84 102.286513,27.84 C103.091183,27.84 103.785343,28.1686634 104.369013,28.826 C104.952682,29.4833366 105.244513,30.2709954 105.244513,31.189 L105.244513,35.405 C105.244513,35.5863342 105.15668,35.7308328 104.981013,35.8385 C104.805345,35.9461672 104.592847,36 104.343513,36 C104.116845,36 103.912847,35.9461672 103.731513,35.8385 C103.550179,35.7308328 103.459513,35.5863342 103.459513,35.405 L103.459513,31.189 C103.459513,30.7356644 103.289514,30.3276685 102.949513,29.965 C102.609511,29.6023315 102.207182,29.421 101.742513,29.421 C101.311844,29.421 100.932181,29.5824984 100.603513,29.9055 C100.274844,30.2285016 100.110513,30.6563307 100.110513,31.189 L100.110513,35.405 C100.110513,35.5523341 100.019847,35.6883327 99.8385128,35.813 C99.6571785,35.9376673 99.4475139,36 99.2095128,36 C98.9601782,36 98.7505136,35.9376673 98.5805128,35.813 C98.4105119,35.6883327 98.3255128,35.5523341 98.3255128,35.405 Z M107.907908,33.348 L107.907908,24.831 C107.907908,24.6723325 107.998573,24.5363339 108.179908,24.423 C108.361242,24.3096661 108.56524,24.253 108.791908,24.253 C109.018575,24.253 109.225407,24.3096661 109.412408,24.423 C109.599409,24.5363339 109.692908,24.6723325 109.692908,24.831 L109.692908,27.942 L111.766908,27.942 C111.914242,27.942 112.033241,28.007166 112.123908,28.1375 C112.214575,28.267834 112.259908,28.4236658 112.259908,28.605 C112.259908,28.7863342 112.214575,28.942166 112.123908,29.0725 C112.033241,29.202834 111.914242,29.268 111.766908,29.268 L109.692908,29.268 L109.692908,33.348 C109.692908,33.756002 109.78074,34.0449991 109.956408,34.215 C110.132075,34.3850008 110.440905,34.47 110.882908,34.47 L111.477908,34.47 C111.715909,34.47 111.902907,34.5436659 112.038908,34.691 C112.174908,34.8383341 112.242908,35.0196656 112.242908,35.235 C112.242908,35.4503344 112.174908,35.6316659 112.038908,35.779 C111.902907,35.9263341 111.715909,36 111.477908,36 L110.882908,36 C108.899564,36 107.907908,35.1160088 107.907908,33.348 Z M118.657697,33.348 L118.657697,24.831 C118.657697,24.6723325 118.748363,24.5363339 118.929697,24.423 C119.111032,24.3096661 119.31503,24.253 119.541697,24.253 C119.768365,24.253 119.975197,24.3096661 120.162197,24.423 C120.349198,24.5363339 120.442697,24.6723325 120.442697,24.831 L120.442697,27.942 L122.516697,27.942 C122.664032,27.942 122.78303,28.007166 122.873697,28.1375 C122.964365,28.267834 123.009697,28.4236658 123.009697,28.605 C123.009697,28.7863342 122.964365,28.942166 122.873697,29.0725 C122.78303,29.202834 122.664032,29.268 122.516697,29.268 L120.442697,29.268 L120.442697,33.348 C120.442697,33.756002 120.53053,34.0449991 120.706197,34.215 C120.881865,34.3850008 121.190695,34.47 121.632697,34.47 L122.227697,34.47 C122.465699,34.47 122.652697,34.5436659 122.788697,34.691 C122.924698,34.8383341 122.992697,35.0196656 122.992697,35.235 C122.992697,35.4503344 122.924698,35.6316659 122.788697,35.779 C122.652697,35.9263341 122.465699,36 122.227697,36 L121.632697,36 C119.649354,36 118.657697,35.1160088 118.657697,33.348 Z M124.704092,32.753 L124.704092,31.189 C124.704092,30.2936622 125.049756,29.51167 125.741092,28.843 C126.432429,28.17433 127.259754,27.84 128.223092,27.84 C129.163764,27.84 129.985422,28.1714967 130.688092,28.8345 C131.390763,29.4975033 131.742092,30.2823288 131.742092,31.189 L131.742092,32.753 C131.742092,33.6370044 131.387929,34.4218299 130.679592,35.1075 C129.971255,35.7931701 129.15243,36.136 128.223092,36.136 C127.282421,36.136 126.460763,35.7960034 125.758092,35.116 C125.055422,34.4359966 124.704092,33.6483378 124.704092,32.753 Z M126.489092,32.753 C126.489092,33.217669 126.659091,33.6341648 126.999092,34.0025 C127.339094,34.3708352 127.74709,34.555 128.223092,34.555 C128.687761,34.555 129.092924,34.3708352 129.438592,34.0025 C129.784261,33.6341648 129.957092,33.217669 129.957092,32.753 L129.957092,31.189 C129.957092,30.7356644 129.784261,30.3276685 129.438592,29.965 C129.092924,29.6023315 128.687761,29.421 128.223092,29.421 C127.74709,29.421 127.339094,29.6023315 126.999092,29.965 C126.659091,30.3276685 126.489092,30.7356644 126.489092,31.189 L126.489092,32.753 Z M138.190882,32.753 L138.190882,31.223 C138.190882,30.2143283 138.485546,29.3983364 139.074882,28.775 C139.664218,28.1516635 140.542543,27.84 141.709882,27.84 C142.446553,27.84 143.064213,27.9674987 143.562882,28.2225 C144.061551,28.4775013 144.310882,28.7636651 144.310882,29.081 C144.310882,29.2736676 144.24005,29.4663324 144.098382,29.659 C143.956715,29.8516676 143.78955,29.948 143.596882,29.948 C143.540215,29.948 143.339051,29.8601675 142.993382,29.6845 C142.647714,29.5088325 142.265218,29.421 141.845882,29.421 C140.599209,29.421 139.975882,30.0216607 139.975882,31.223 L139.975882,32.753 C139.975882,33.9543393 140.604876,34.555 141.862882,34.555 C142.293551,34.555 142.681714,34.4615009 143.027382,34.2745 C143.373051,34.0874991 143.579882,33.994 143.647882,33.994 C143.87455,33.994 144.058715,34.0846658 144.200382,34.266 C144.34205,34.4473342 144.412882,34.639999 144.412882,34.844 C144.412882,35.1613349 144.152218,35.4559986 143.630882,35.728 C143.109546,36.0000014 142.474886,36.136 141.726882,36.136 C140.54821,36.136 139.664218,35.8271698 139.074882,35.2095 C138.485546,34.5918302 138.190882,33.7730051 138.190882,32.753 Z M146.175277,32.753 L146.175277,31.189 C146.175277,30.2936622 146.52094,29.51167 147.212277,28.843 C147.903614,28.17433 148.730939,27.84 149.694277,27.84 C150.634948,27.84 151.456607,28.1714967 152.159277,28.8345 C152.861947,29.4975033 153.213277,30.2823288 153.213277,31.189 L153.213277,32.753 C153.213277,33.6370044 152.859114,34.4218299 152.150777,35.1075 C151.44244,35.7931701 150.623615,36.136 149.694277,36.136 C148.753606,36.136 147.931947,35.7960034 147.229277,35.116 C146.526607,34.4359966 146.175277,33.6483378 146.175277,32.753 Z M147.960277,32.753 C147.960277,33.217669 148.130275,33.6341648 148.470277,34.0025 C148.810279,34.3708352 149.218275,34.555 149.694277,34.555 C150.158946,34.555 150.564109,34.3708352 150.909777,34.0025 C151.255445,33.6341648 151.428277,33.217669 151.428277,32.753 L151.428277,31.189 C151.428277,30.7356644 151.255445,30.3276685 150.909777,29.965 C150.564109,29.6023315 150.158946,29.421 149.694277,29.421 C149.218275,29.421 148.810279,29.6023315 148.470277,29.965 C148.130275,30.3276685 147.960277,30.7356644 147.960277,31.189 L147.960277,32.753 Z M155.655672,35.405 L155.655672,28.52 C155.655672,28.3499992 155.737838,28.2111672 155.902172,28.1035 C156.066506,27.9958328 156.279004,27.942 156.539672,27.942 C156.76634,27.942 156.956171,27.9958328 157.109172,28.1035 C157.262173,28.2111672 157.338672,28.3499992 157.338672,28.52 L157.338672,29.132 C157.520006,28.7693315 157.811837,28.4633346 158.214172,28.214 C158.616507,27.9646654 159.084003,27.84 159.616672,27.84 C160.421343,27.84 161.115502,28.1686634 161.699172,28.826 C162.282842,29.4833366 162.574672,30.2709954 162.574672,31.189 L162.574672,35.405 C162.574672,35.5863342 162.486839,35.7308328 162.311172,35.8385 C162.135504,35.9461672 161.923007,36 161.673672,36 C161.447004,36 161.243006,35.9461672 161.061672,35.8385 C160.880338,35.7308328 160.789672,35.5863342 160.789672,35.405 L160.789672,31.189 C160.789672,30.7356644 160.619674,30.3276685 160.279672,29.965 C159.93967,29.6023315 159.537341,29.421 159.072672,29.421 C158.642003,29.421 158.26234,29.5824984 157.933672,29.9055 C157.605004,30.2285016 157.440672,30.6563307 157.440672,31.189 L157.440672,35.405 C157.440672,35.5523341 157.350006,35.6883327 157.168672,35.813 C156.987338,35.9376673 156.777673,36 156.539672,36 C156.290337,36 156.080673,35.9376673 155.910672,35.813 C155.740671,35.6883327 155.655672,35.5523341 155.655672,35.405 Z M165.238067,33.348 L165.238067,24.831 C165.238067,24.6723325 165.328733,24.5363339 165.510067,24.423 C165.691401,24.3096661 165.895399,24.253 166.122067,24.253 C166.348735,24.253 166.555566,24.3096661 166.742567,24.423 C166.929568,24.5363339 167.023067,24.6723325 167.023067,24.831 L167.023067,27.942 L169.097067,27.942 C169.244401,27.942 169.3634,28.007166 169.454067,28.1375 C169.544734,28.267834 169.590067,28.4236658 169.590067,28.605 C169.590067,28.7863342 169.544734,28.942166 169.454067,29.0725 C169.3634,29.202834 169.244401,29.268 169.097067,29.268 L167.023067,29.268 L167.023067,33.348 C167.023067,33.756002 167.110899,34.0449991 167.286567,34.215 C167.462234,34.3850008 167.771065,34.47 168.213067,34.47 L168.808067,34.47 C169.046068,34.47 169.233066,34.5436659 169.369067,34.691 C169.505068,34.8383341 169.573067,35.0196656 169.573067,35.235 C169.573067,35.4503344 169.505068,35.6316659 169.369067,35.779 C169.233066,35.9263341 169.046068,36 168.808067,36 L168.213067,36 C166.229724,36 165.238067,35.1160088 165.238067,33.348 Z M171.573462,24.984 C171.573462,24.723332 171.675461,24.5023342 171.879462,24.321 C172.083463,24.1396658 172.327127,24.049 172.610462,24.049 C172.893797,24.049 173.137461,24.1396658 173.341462,24.321 C173.545463,24.5023342 173.647462,24.723332 173.647462,24.984 C173.647462,25.2333346 173.545463,25.4514991 173.341462,25.6385 C173.137461,25.8255009 172.893797,25.919 172.610462,25.919 C172.327127,25.919 172.083463,25.8255009 171.879462,25.6385 C171.675461,25.4514991 171.573462,25.2333346 171.573462,24.984 Z M171.726462,35.405 L171.726462,28.52 C171.726462,28.3499992 171.808628,28.2111672 171.972962,28.1035 C172.137296,27.9958328 172.349794,27.942 172.610462,27.942 C172.87113,27.942 173.086461,27.9958328 173.256462,28.1035 C173.426463,28.2111672 173.511462,28.3499992 173.511462,28.52 L173.511462,35.405 C173.511462,35.5523341 173.423629,35.6883327 173.247962,35.813 C173.072294,35.9376673 172.859796,36 172.610462,36 C172.361127,36 172.151463,35.9376673 171.981462,35.813 C171.811461,35.6883327 171.726462,35.5523341 171.726462,35.405 Z M176.259857,35.405 L176.259857,28.52 C176.259857,28.3499992 176.342022,28.2111672 176.506357,28.1035 C176.670691,27.9958328 176.883189,27.942 177.143857,27.942 C177.370524,27.942 177.560356,27.9958328 177.713357,28.1035 C177.866357,28.2111672 177.942857,28.3499992 177.942857,28.52 L177.942857,29.132 C178.124191,28.7693315 178.416021,28.4633346 178.818357,28.214 C179.220692,27.9646654 179.688187,27.84 180.220857,27.84 C181.025527,27.84 181.719687,28.1686634 182.303357,28.826 C182.887026,29.4833366 183.178857,30.2709954 183.178857,31.189 L183.178857,35.405 C183.178857,35.5863342 183.091024,35.7308328 182.915357,35.8385 C182.739689,35.9461672 182.527191,36 182.277857,36 C182.051189,36 181.847191,35.9461672 181.665857,35.8385 C181.484522,35.7308328 181.393857,35.5863342 181.393857,35.405 L181.393857,31.189 C181.393857,30.7356644 181.223858,30.3276685 180.883857,29.965 C180.543855,29.6023315 180.141526,29.421 179.676857,29.421 C179.246188,29.421 178.866525,29.5824984 178.537857,29.9055 C178.209188,30.2285016 178.044857,30.6563307 178.044857,31.189 L178.044857,35.405 C178.044857,35.5523341 177.954191,35.6883327 177.772857,35.813 C177.591522,35.9376673 177.381858,36 177.143857,36 C176.894522,36 176.684858,35.9376673 176.514857,35.813 C176.344856,35.6883327 176.259857,35.5523341 176.259857,35.405 Z M185.791252,32.787 L185.791252,28.537 C185.791252,28.3783325 185.881917,28.2395006 186.063252,28.1205 C186.244586,28.0014994 186.45425,27.942 186.692252,27.942 C186.930253,27.942 187.137084,28.0014994 187.312752,28.1205 C187.488419,28.2395006 187.576252,28.3783325 187.576252,28.537 L187.576252,32.787 C187.576252,33.2403356 187.749083,33.6483315 188.094752,34.011 C188.44042,34.3736685 188.845583,34.555 189.310252,34.555 C189.786254,34.555 190.19425,34.3765018 190.534252,34.0195 C190.874253,33.6624982 191.044252,33.251669 191.044252,32.787 L191.044252,28.52 C191.044252,28.3613325 191.132084,28.2253339 191.307752,28.112 C191.483419,27.9986661 191.695917,27.942 191.945252,27.942 C192.194586,27.942 192.401417,27.9986661 192.565752,28.112 C192.730086,28.2253339 192.812252,28.3613325 192.812252,28.52 L192.812252,32.787 C192.812252,33.6823378 192.466588,34.46433 191.775252,35.133 C191.083915,35.80167 190.262256,36.136 189.310252,36.136 C188.358247,36.136 187.533755,35.80167 186.836752,35.133 C186.139748,34.46433 185.791252,33.6823378 185.791252,32.787 Z M195.186646,32.753 L195.186646,31.138 C195.186646,30.2426622 195.53231,29.4691699 196.223646,28.8175 C196.914983,28.1658301 197.747975,27.84 198.722646,27.84 C199.651984,27.84 200.448143,28.137497 201.111146,28.7325 C201.77415,29.327503 202.105646,30.0783288 202.105646,30.985 C202.105646,31.3250017 202.06598,31.5998323 201.986646,31.8095 C201.907313,32.0191677 201.782647,32.1664996 201.612646,32.2515 C201.442646,32.3365004 201.283981,32.3903332 201.136646,32.413 C200.989312,32.4356668 200.796648,32.447 200.558646,32.447 L196.971646,32.447 L196.971646,32.838 C196.971646,33.4046695 197.175644,33.855165 197.583646,34.1895 C197.991648,34.523835 198.52431,34.691 199.181646,34.691 C199.646315,34.691 200.085478,34.5833344 200.499146,34.368 C200.912815,34.1526656 201.164979,34.045 201.255646,34.045 C201.448314,34.045 201.612646,34.1356658 201.748646,34.317 C201.884647,34.4983342 201.952646,34.6739992 201.952646,34.844 C201.952646,35.1273348 201.680649,35.4134986 201.136646,35.7025 C200.592644,35.9915014 199.923984,36.136 199.130646,36.136 C197.974641,36.136 197.028317,35.8243365 196.291646,35.201 C195.554976,34.5776635 195.186646,33.7616717 195.186646,32.753 Z M196.971646,31.342 L199.793646,31.342 C200.042981,31.342 200.210146,31.3080003 200.295146,31.24 C200.380147,31.1719997 200.422646,31.036001 200.422646,30.832 C200.422646,30.3786644 200.258315,29.9933349 199.929646,29.676 C199.600978,29.3586651 199.192982,29.2 198.705646,29.2 C198.229644,29.2 197.821648,29.3501652 197.481646,29.6505 C197.141645,29.9508348 196.971646,30.333331 196.971646,30.798 L196.971646,31.342 Z M204.344041,35.813 C204.151374,35.608999 204.055041,35.3653348 204.055041,35.082 C204.055041,34.7986652 204.151374,34.5578343 204.344041,34.3595 C204.536709,34.1611657 204.780373,34.062 205.075041,34.062 C205.347043,34.062 205.582207,34.1611657 205.780541,34.3595 C205.978876,34.5578343 206.078041,34.7986652 206.078041,35.082 C206.078041,35.3540014 205.978876,35.591999 205.780541,35.796 C205.582207,36.000001 205.347043,36.102 205.075041,36.102 C204.780373,36.102 204.536709,36.0056676 204.344041,35.813 Z" id="Wait.Iwanttocontinue." fill="#FFFFFF"></path>
                </g>
                <g id="button_restart_confirm" transform="translate(38.000000, 94.000000)">
                    <rect id="Rectangle" stroke="#A4A4A4" stroke-width="2" x="1" y="1" width="228" height="58" rx="2"></rect>
                    <path d="M36.7764575,24.168 C36.7764575,23.9979991 36.8699566,23.8563339 37.0569575,23.743 C37.2439584,23.6296661 37.4337899,23.573 37.6264575,23.573 C37.8304585,23.573 38.0004568,23.6976654 38.1364575,23.947 L41.1284575,29.778 L44.1034575,23.947 C44.2394582,23.6976654 44.4094565,23.573 44.6134575,23.573 C44.8174585,23.573 45.0101233,23.6296661 45.1914575,23.743 C45.3727917,23.8563339 45.4634575,23.9979991 45.4634575,24.168 C45.4634575,24.2586671 45.4407911,24.3549995 45.3954575,24.457 L41.8764575,31.019 C41.8537907,31.0530002 41.8424575,31.1096663 41.8424575,31.189 L41.8424575,35.49 C41.8424575,35.6486675 41.7716249,35.7733329 41.6299575,35.864 C41.4882901,35.9546671 41.3211251,36 41.1284575,36 C40.9357899,36 40.7686249,35.9546671 40.6269575,35.864 C40.4852901,35.7733329 40.4144575,35.6486675 40.4144575,35.49 L40.4144575,31.189 C40.4144575,31.132333 40.3974577,31.0756669 40.3634575,31.019 L36.8444575,24.457 C36.7991239,24.3549995 36.7764575,24.2586671 36.7764575,24.168 Z M45.6448525,32.838 L45.6448525,31.053 C45.6448525,30.180329 45.9763492,29.4266698 46.6393525,28.792 C47.3023558,28.1573302 48.0985145,27.84 49.0278525,27.84 C49.9118569,27.84 50.6768493,28.137497 51.3228525,28.7325 C51.9688557,29.327503 52.2918525,30.0726622 52.2918525,30.968 C52.2918525,31.2966683 52.2521862,31.5601657 52.1728525,31.7585 C52.0935188,31.9568343 51.9716867,32.0984996 51.8073525,32.1835 C51.6430183,32.2685004 51.4900199,32.3223332 51.3483525,32.345 C51.2066851,32.3676668 51.0168537,32.379 50.7788525,32.379 L47.0558525,32.379 L47.0558525,32.889 C47.0558525,33.5123364 47.2796836,34.0109981 47.7273525,34.385 C48.1750214,34.7590019 48.7558489,34.946 49.4698525,34.946 C49.8438544,34.946 50.1696844,34.8893339 50.4473525,34.776 C50.7250206,34.6626661 50.9488516,34.5521672 51.1188525,34.4445 C51.2888533,34.3368328 51.424852,34.283 51.5268525,34.283 C51.68552,34.283 51.8215186,34.3538326 51.9348525,34.4955 C52.0481864,34.6371674 52.1048525,34.7816659 52.1048525,34.929 C52.1048525,35.189668 51.8470217,35.4559986 51.3313525,35.728 C50.8156833,36.0000014 50.1781896,36.136 49.4188525,36.136 C48.3081803,36.136 47.4015227,35.8328364 46.6988525,35.2265 C45.9961823,34.6201636 45.6448525,33.8240049 45.6448525,32.838 Z M47.0558525,31.427 L50.2008525,31.427 C50.4955206,31.427 50.693852,31.390167 50.7958525,31.3165 C50.897853,31.242833 50.9488525,31.0983344 50.9488525,30.883 C50.9488525,30.3729974 50.7618544,29.9253353 50.3878525,29.54 C50.0138506,29.1546647 49.5548552,28.962 49.0108525,28.962 C48.4781832,28.962 48.0191878,29.1404982 47.6338525,29.4975 C47.2485172,29.8545018 47.0558525,30.2936641 47.0558525,30.815 L47.0558525,31.427 Z M54.7512475,39.383 L54.7512475,28.435 C54.7512475,28.2876659 54.8164135,28.1686671 54.9467475,28.078 C55.0770815,27.9873329 55.2385799,27.942 55.4312475,27.942 C55.6239151,27.942 55.7825802,27.9873329 55.9072475,28.078 C56.0319148,28.1686671 56.0942475,28.2876659 56.0942475,28.435 L56.0942475,29.132 C56.2982485,28.7693315 56.5985788,28.4633346 56.9952475,28.214 C57.3919161,27.9646654 57.8509116,27.84 58.3722475,27.84 C59.2222517,27.84 59.9447445,28.1601635 60.5397475,28.8005 C61.1347505,29.4408365 61.4322475,30.2086622 61.4322475,31.104 L61.4322475,32.838 C61.4322475,33.6993376 61.1319172,34.46433 60.5312475,35.133 C59.9305778,35.80167 59.2335848,36.136 58.4402475,36.136 C57.9415783,36.136 57.4854162,36.0085013 57.0717475,35.7535 C56.6580788,35.4984987 56.3549151,35.1840019 56.1622475,34.81 L56.1622475,39.383 C56.1622475,39.5076673 56.0914149,39.6238328 55.9497475,39.7315 C55.8080801,39.8391672 55.6409151,39.893 55.4482475,39.893 C55.2555799,39.893 55.0912482,39.8420005 54.9552475,39.74 C54.8192468,39.6379995 54.7512475,39.5190007 54.7512475,39.383 Z M56.1622475,33.297 C56.1622475,33.5803347 56.3577455,33.9118314 56.7487475,34.2915 C57.1397495,34.6711686 57.5845783,34.861 58.0832475,34.861 C58.59325,34.861 59.0437455,34.6541687 59.4347475,34.2405 C59.8257495,33.8268313 60.0212475,33.3593359 60.0212475,32.838 L60.0212475,31.104 C60.0212475,30.5939974 59.8257495,30.135002 59.4347475,29.727 C59.0437455,29.318998 58.5819168,29.115 58.0492475,29.115 C57.5505783,29.115 57.1114161,29.2991648 56.7317475,29.6675 C56.3520789,30.0358352 56.1622475,30.5146637 56.1622475,31.104 L56.1622475,33.297 Z M63.6366425,35.218 C63.6366425,34.9686654 63.7216416,34.7561675 63.8916425,34.5805 C64.0616433,34.4048325 64.2713079,34.317 64.5206425,34.317 C64.7586437,34.317 64.9626416,34.4048325 65.1326425,34.5805 C65.3026433,34.7561675 65.3876425,34.9686654 65.3876425,35.218 C65.3876425,35.4560012 65.3026433,35.6628325 65.1326425,35.8385 C64.9626416,36.0141675 64.7586437,36.102 64.5206425,36.102 C64.2713079,36.102 64.0616433,36.0141675 63.8916425,35.8385 C63.7216416,35.6628325 63.6366425,35.4560012 63.6366425,35.218 Z M72.3634325,35.49 L72.3634325,24.066 C72.3634325,23.9299993 72.4115987,23.8166671 72.5079325,23.726 C72.6042663,23.6353329 72.7260984,23.5843334 72.8734325,23.573 L75.9844325,23.573 C77.1177715,23.573 78.0300957,23.8364974 78.7214325,24.3635 C79.4127693,24.8905026 79.7584325,25.7603273 79.7584325,26.973 C79.7584325,28.8430093 78.9141076,29.9479983 77.2254325,30.288 L79.7414325,35.065 C79.7867661,35.1443337 79.8094325,35.2236663 79.8094325,35.303 C79.8094325,35.4843342 79.7187667,35.6514992 79.5374325,35.8045 C79.3560983,35.9575008 79.1634335,36.034 78.9594325,36.034 C78.7214313,36.034 78.5061001,35.8470019 78.3134325,35.473 L75.7464325,30.492 L73.7914325,30.492 L73.7914325,35.49 C73.7914325,35.6486675 73.7205999,35.7733329 73.5789325,35.864 C73.4372651,35.9546671 73.2701001,36 73.0774325,36 C72.8847649,36 72.7175999,35.9546671 72.5759325,35.864 C72.4342651,35.7733329 72.3634325,35.6486675 72.3634325,35.49 Z M73.7914325,29.302 L75.9844325,29.302 C77.5484403,29.302 78.3304325,28.5596741 78.3304325,27.075 C78.3304325,25.6016593 77.5484403,24.865 75.9844325,24.865 L73.7914325,24.865 L73.7914325,29.302 Z M81.7418275,32.838 L81.7418275,31.053 C81.7418275,30.180329 82.0733242,29.4266698 82.7363275,28.792 C83.3993308,28.1573302 84.1954895,27.84 85.1248275,27.84 C86.0088319,27.84 86.7738243,28.137497 87.4198275,28.7325 C88.0658307,29.327503 88.3888275,30.0726622 88.3888275,30.968 C88.3888275,31.2966683 88.3491612,31.5601657 88.2698275,31.7585 C88.1904938,31.9568343 88.0686617,32.0984996 87.9043275,32.1835 C87.7399933,32.2685004 87.5869949,32.3223332 87.4453275,32.345 C87.3036601,32.3676668 87.1138287,32.379 86.8758275,32.379 L83.1528275,32.379 L83.1528275,32.889 C83.1528275,33.5123364 83.3766586,34.0109981 83.8243275,34.385 C84.2719964,34.7590019 84.8528239,34.946 85.5668275,34.946 C85.9408294,34.946 86.2666594,34.8893339 86.5443275,34.776 C86.8219956,34.6626661 87.0458266,34.5521672 87.2158275,34.4445 C87.3858283,34.3368328 87.521827,34.283 87.6238275,34.283 C87.782495,34.283 87.9184936,34.3538326 88.0318275,34.4955 C88.1451614,34.6371674 88.2018275,34.7816659 88.2018275,34.929 C88.2018275,35.189668 87.9439967,35.4559986 87.4283275,35.728 C86.9126583,36.0000014 86.2751646,36.136 85.5158275,36.136 C84.4051553,36.136 83.4984977,35.8328364 82.7958275,35.2265 C82.0931573,34.6201636 81.7418275,33.8240049 81.7418275,32.838 Z M83.1528275,31.427 L86.2978275,31.427 C86.5924956,31.427 86.790827,31.390167 86.8928275,31.3165 C86.994828,31.242833 87.0458275,31.0983344 87.0458275,30.883 C87.0458275,30.3729974 86.8588294,29.9253353 86.4848275,29.54 C86.1108256,29.1546647 85.6518302,28.962 85.1078275,28.962 C84.5751582,28.962 84.1161628,29.1404982 83.7308275,29.4975 C83.3454922,29.8545018 83.1528275,30.2936641 83.1528275,30.815 L83.1528275,31.427 Z M90.3382225,34.844 C90.3382225,34.6966659 90.3863887,34.5521674 90.4827225,34.4105 C90.5790563,34.2688326 90.6952218,34.198 90.8312225,34.198 C90.9218896,34.198 91.0522216,34.2659993 91.2222225,34.402 C91.3922233,34.5380007 91.6358876,34.671166 91.9532225,34.8015 C92.2705574,34.931834 92.6445537,34.997 93.0752225,34.997 C93.641892,34.997 94.0527212,34.895001 94.3077225,34.691 C94.5627238,34.486999 94.6902225,34.2320015 94.6902225,33.926 C94.6902225,33.5519981 94.5485572,33.2545011 94.2652225,33.0335 C93.9818877,32.8124989 93.6362245,32.6453339 93.2282225,32.532 C92.8202205,32.4186661 92.4122245,32.2940007 92.0042225,32.158 C91.5962205,32.0219993 91.2505572,31.7953349 90.9672225,31.478 C90.6838877,31.1606651 90.5422225,30.7413359 90.5422225,30.22 C90.5422225,29.5739968 90.7717202,29.0158357 91.2307225,28.5455 C91.6897248,28.0751643 92.3895511,27.84 93.3302225,27.84 C93.9308922,27.84 94.4805533,27.9334991 94.9792225,28.1205 C95.4778917,28.3075009 95.7272225,28.5199988 95.7272225,28.758 C95.7272225,28.8940007 95.6733897,29.0469991 95.5657225,29.217 C95.4580553,29.3870008 95.32489,29.472 95.1662225,29.472 C95.1208889,29.472 94.9027245,29.3898342 94.5117225,29.2255 C94.1207205,29.0611658 93.7325578,28.979 93.3472225,28.979 C92.8258866,28.979 92.4377238,29.1008321 92.1827225,29.3445 C91.9277212,29.5881679 91.8002225,29.8629985 91.8002225,30.169 C91.8002225,30.4863349 91.9418877,30.7356658 92.2252225,30.917 C92.5085572,31.0983342 92.8570538,31.2399995 93.2707225,31.342 C93.6843912,31.4440005 94.0952205,31.5686659 94.5032225,31.716 C94.9112245,31.8633341 95.2568877,32.1154982 95.5402225,32.4725 C95.8235572,32.8295018 95.9652225,33.2913305 95.9652225,33.858 C95.9652225,34.5606702 95.7158917,35.115998 95.2172225,35.524 C94.7185533,35.932002 94.0215603,36.136 93.1262225,36.136 C92.355552,36.136 91.6982252,35.9971681 91.1542225,35.7195 C90.6102198,35.4418319 90.3382225,35.1500015 90.3382225,34.844 Z M98.3396175,33.433 L98.3396175,24.678 C98.3396175,24.5419993 98.4132834,24.4258338 98.5606175,24.3295 C98.7079516,24.2331662 98.8666166,24.185 99.0366175,24.185 C99.2179517,24.185 99.3822834,24.2331662 99.5296175,24.3295 C99.6769516,24.4258338 99.7506175,24.5419993 99.7506175,24.678 L99.7506175,27.942 L101.892617,27.942 C102.017285,27.942 102.119284,27.9986661 102.198617,28.112 C102.277951,28.2253339 102.317617,28.3556659 102.317617,28.503 C102.317617,28.6503341 102.277951,28.7778328 102.198617,28.8855 C102.119284,28.9931672 102.017285,29.047 101.892617,29.047 L99.7506175,29.047 L99.7506175,33.433 C99.7506175,33.9203358 99.8554498,34.2631657 100.065117,34.4615 C100.274785,34.6598343 100.640282,34.759 101.161617,34.759 L101.688617,34.759 C101.881285,34.759 102.03145,34.8184994 102.139117,34.9375 C102.246785,35.0565006 102.300617,35.2009992 102.300617,35.371 C102.300617,35.5410009 102.243951,35.6883327 102.130617,35.813 C102.017284,35.9376673 101.869952,36 101.688617,36 L101.161617,36 C99.2802748,36 98.3396175,35.1443419 98.3396175,33.433 Z M103.995012,33.875 C103.995012,32.9909956 104.335009,32.3761684 105.015012,32.0305 C105.695016,31.6848316 106.681006,31.512 107.973012,31.512 L108.789012,31.512 L108.789012,31.155 C108.789012,30.5883305 108.633181,30.0953354 108.321512,29.676 C108.009844,29.2566646 107.542349,29.047 106.919012,29.047 C106.44301,29.047 106.023681,29.1291658 105.661012,29.2935 C105.298344,29.4578342 105.100013,29.54 105.066012,29.54 C104.907345,29.54 104.779846,29.4635008 104.683512,29.3105 C104.587179,29.1574992 104.539012,28.9960009 104.539012,28.826 C104.539012,28.565332 104.796843,28.3358343 105.312512,28.1375 C105.828182,27.9391657 106.37501,27.84 106.953012,27.84 C108.063685,27.84 108.88251,28.1544969 109.409512,28.7835 C109.936515,29.4125031 110.200012,30.1973286 110.200012,31.138 L110.200012,35.49 C110.200012,35.6373341 110.134846,35.7591662 110.004512,35.8555 C109.874179,35.9518338 109.707014,36 109.503012,36 C109.321678,36 109.16868,35.9518338 109.044012,35.8555 C108.919345,35.7591662 108.857012,35.6373341 108.857012,35.49 L108.857012,34.81 C108.086342,35.6940044 107.230684,36.136 106.290012,36.136 C105.610009,36.136 105.057515,35.9433353 104.632512,35.558 C104.20751,35.1726647 103.995012,34.6116703 103.995012,33.875 Z M105.423012,33.722 C105.423012,34.1413354 105.542011,34.4586656 105.780012,34.674 C106.018014,34.8893344 106.335344,34.997 106.732012,34.997 C107.208015,34.997 107.669844,34.8071686 108.117512,34.4275 C108.565181,34.0478314 108.789012,33.6596687 108.789012,33.263 L108.789012,32.379 L108.194012,32.379 C107.865344,32.379 107.582014,32.3874999 107.344012,32.4045 C107.106011,32.4215001 106.859514,32.4554997 106.604512,32.5065 C106.349511,32.5575003 106.139847,32.6311662 105.975512,32.7275 C105.811178,32.8238338 105.678013,32.9541658 105.576012,33.1185 C105.474012,33.2828342 105.423012,33.4839988 105.423012,33.722 Z M113.016407,35.49 L113.016407,28.435 C113.016407,28.2876659 113.081574,28.1686671 113.211907,28.078 C113.342241,27.9873329 113.509406,27.942 113.713407,27.942 C113.894742,27.942 114.04774,27.9873329 114.172407,28.078 C114.297075,28.1686671 114.359407,28.2876659 114.359407,28.435 L114.359407,29.234 C114.563409,28.8486647 114.863739,28.5200014 115.260407,28.248 C115.657076,27.9759986 116.099072,27.84 116.586407,27.84 L117.164407,27.84 C117.311742,27.84 117.43924,27.905166 117.546907,28.0355 C117.654575,28.165834 117.708407,28.3159991 117.708407,28.486 C117.708407,28.6560008 117.654575,28.8033327 117.546907,28.928 C117.43924,29.0526673 117.311742,29.115 117.164407,29.115 L116.586407,29.115 C116.008405,29.115 115.504076,29.347331 115.073407,29.812 C114.642739,30.276669 114.427407,30.8773297 114.427407,31.614 L114.427407,35.49 C114.427407,35.6146673 114.356575,35.7308328 114.214907,35.8385 C114.07324,35.9461672 113.906075,36 113.713407,36 C113.52074,36 113.356408,35.9490005 113.220407,35.847 C113.084407,35.7449995 113.016407,35.6260007 113.016407,35.49 Z M119.708802,33.433 L119.708802,24.678 C119.708802,24.5419993 119.782468,24.4258338 119.929802,24.3295 C120.077137,24.2331662 120.235802,24.185 120.405802,24.185 C120.587137,24.185 120.751468,24.2331662 120.898802,24.3295 C121.046137,24.4258338 121.119802,24.5419993 121.119802,24.678 L121.119802,27.942 L123.261802,27.942 C123.38647,27.942 123.488469,27.9986661 123.567802,28.112 C123.647136,28.2253339 123.686802,28.3556659 123.686802,28.503 C123.686802,28.6503341 123.647136,28.7778328 123.567802,28.8855 C123.488469,28.9931672 123.38647,29.047 123.261802,29.047 L121.119802,29.047 L121.119802,33.433 C121.119802,33.9203358 121.224635,34.2631657 121.434302,34.4615 C121.64397,34.6598343 122.009467,34.759 122.530802,34.759 L123.057802,34.759 C123.25047,34.759 123.400635,34.8184994 123.508302,34.9375 C123.61597,35.0565006 123.669802,35.2009992 123.669802,35.371 C123.669802,35.5410009 123.613136,35.6883327 123.499802,35.813 C123.386469,35.9376673 123.239137,36 123.057802,36 L122.530802,36 C120.64946,36 119.708802,35.1443419 119.708802,33.433 Z M125.517197,35.218 C125.517197,34.9686654 125.602197,34.7561675 125.772197,34.5805 C125.942198,34.4048325 126.151863,34.317 126.401197,34.317 C126.639199,34.317 126.843197,34.4048325 127.013197,34.5805 C127.183198,34.7561675 127.268197,34.9686654 127.268197,35.218 C127.268197,35.4560012 127.183198,35.6628325 127.013197,35.8385 C126.843197,36.0141675 126.639199,36.102 126.401197,36.102 C126.151863,36.102 125.942198,36.0141675 125.772197,35.8385 C125.602197,35.6628325 125.517197,35.4560012 125.517197,35.218 Z M134.243987,35.49 L134.243987,24.066 C134.243987,23.9073325 134.31482,23.7855004 134.456487,23.7005 C134.598155,23.6154996 134.76532,23.573 134.957987,23.573 C135.150655,23.573 135.31782,23.6154996 135.459487,23.7005 C135.601155,23.7855004 135.671987,23.9073325 135.671987,24.066 L135.671987,35.49 C135.671987,35.6486675 135.601155,35.7733329 135.459487,35.864 C135.31782,35.9546671 135.150655,36 134.957987,36 C134.76532,36 134.598155,35.9546671 134.456487,35.864 C134.31482,35.7733329 134.243987,35.6486675 134.243987,35.49 Z M138.352382,23.369 C138.352382,23.2443327 138.414715,23.1423337 138.539382,23.063 C138.66405,22.9836663 138.805715,22.944 138.964382,22.944 C139.12305,22.944 139.267549,22.9836663 139.397882,23.063 C139.528216,23.1423337 139.593382,23.2443327 139.593382,23.369 L139.423382,25.834 C139.423382,25.9586673 139.383716,26.0634996 139.304382,26.1485 C139.225049,26.2335004 139.111717,26.276 138.964382,26.276 C138.669714,26.276 138.522382,26.1286681 138.522382,25.834 L138.352382,23.369 Z M141.865777,35.49 L141.865777,28.435 C141.865777,28.2876659 141.930944,28.1686671 142.061277,28.078 C142.191611,27.9873329 142.358776,27.942 142.562777,27.942 C142.744112,27.942 142.89711,27.9873329 143.021777,28.078 C143.146445,28.1686671 143.208777,28.2876659 143.208777,28.435 L143.208777,29.132 C143.412779,28.7579981 143.710276,28.4491679 144.101277,28.2055 C144.492279,27.9618321 144.948442,27.84 145.469777,27.84 C145.991113,27.84 146.458609,27.9958318 146.872277,28.3075 C147.285946,28.6191682 147.594776,29.0299974 147.798777,29.54 C148.082112,28.9846639 148.456109,28.5625014 148.920777,28.2735 C149.385446,27.9844986 149.872775,27.84 150.382777,27.84 C151.176115,27.84 151.858941,28.1346637 152.431277,28.724 C153.003614,29.3133363 153.289777,30.1066617 153.289777,31.104 L153.289777,35.49 C153.289777,35.6146673 153.218945,35.7308328 153.077277,35.8385 C152.93561,35.9461672 152.768445,36 152.575777,36 C152.394443,36 152.232945,35.9461672 152.091277,35.8385 C151.94961,35.7308328 151.878777,35.6146673 151.878777,35.49 L151.878777,31.104 C151.878777,30.4919969 151.700279,30.0075018 151.343277,29.6505 C150.986276,29.2934982 150.56978,29.115 150.093777,29.115 C149.617775,29.115 149.195613,29.2963315 148.827277,29.659 C148.458942,30.0216685 148.274777,30.4863305 148.274777,31.053 L148.274777,35.507 C148.274777,35.6656675 148.203945,35.7874996 148.062277,35.8725 C147.92061,35.9575004 147.753445,36 147.560777,36 C147.379443,36 147.217945,35.9575004 147.076277,35.8725 C146.93461,35.7874996 146.863777,35.6656675 146.863777,35.507 L146.863777,31.07 C146.863777,30.5033305 146.690946,30.0358352 146.345277,29.6675 C145.999609,29.2991648 145.583113,29.115 145.095777,29.115 C144.608442,29.115 144.183446,29.2963315 143.820777,29.659 C143.458109,30.0216685 143.276777,30.5033303 143.276777,31.104 L143.276777,35.49 C143.276777,35.6146673 143.205945,35.7308328 143.064277,35.8385 C142.92261,35.9461672 142.755445,36 142.562777,36 C142.37011,36 142.205778,35.9490005 142.069777,35.847 C141.933777,35.7449995 141.865777,35.6260007 141.865777,35.49 Z M159.891567,34.844 C159.891567,34.6966659 159.939734,34.5521674 160.036067,34.4105 C160.132401,34.2688326 160.248567,34.198 160.384567,34.198 C160.475235,34.198 160.605567,34.2659993 160.775567,34.402 C160.945568,34.5380007 161.189233,34.671166 161.506567,34.8015 C161.823902,34.931834 162.197899,34.997 162.628567,34.997 C163.195237,34.997 163.606066,34.895001 163.861067,34.691 C164.116069,34.486999 164.243567,34.2320015 164.243567,33.926 C164.243567,33.5519981 164.101902,33.2545011 163.818567,33.0335 C163.535233,32.8124989 163.18957,32.6453339 162.781567,32.532 C162.373565,32.4186661 161.96557,32.2940007 161.557567,32.158 C161.149565,32.0219993 160.803902,31.7953349 160.520567,31.478 C160.237233,31.1606651 160.095567,30.7413359 160.095567,30.22 C160.095567,29.5739968 160.325065,29.0158357 160.784067,28.5455 C161.24307,28.0751643 161.942896,27.84 162.883567,27.84 C163.484237,27.84 164.033898,27.9334991 164.532567,28.1205 C165.031237,28.3075009 165.280567,28.5199988 165.280567,28.758 C165.280567,28.8940007 165.226735,29.0469991 165.119067,29.217 C165.0114,29.3870008 164.878235,29.472 164.719567,29.472 C164.674234,29.472 164.456069,29.3898342 164.065067,29.2255 C163.674066,29.0611658 163.285903,28.979 162.900567,28.979 C162.379232,28.979 161.991069,29.1008321 161.736067,29.3445 C161.481066,29.5881679 161.353567,29.8629985 161.353567,30.169 C161.353567,30.4863349 161.495233,30.7356658 161.778567,30.917 C162.061902,31.0983342 162.410399,31.2399995 162.824067,31.342 C163.237736,31.4440005 163.648565,31.5686659 164.056567,31.716 C164.46457,31.8633341 164.810233,32.1154982 165.093567,32.4725 C165.376902,32.8295018 165.518567,33.2913305 165.518567,33.858 C165.518567,34.5606702 165.269237,35.115998 164.770567,35.524 C164.271898,35.932002 163.574905,36.136 162.679567,36.136 C161.908897,36.136 161.25157,35.9971681 160.707567,35.7195 C160.163565,35.4418319 159.891567,35.1500015 159.891567,34.844 Z M167.858962,32.872 L167.858962,28.452 C167.858962,28.3159993 167.929795,28.1970005 168.071462,28.095 C168.21313,27.9929995 168.380295,27.942 168.572962,27.942 C168.754297,27.942 168.915795,27.9958328 169.057462,28.1035 C169.19913,28.2111672 169.269962,28.3273327 169.269962,28.452 L169.269962,32.872 C169.269962,33.3820025 169.462627,33.840998 169.847962,34.249 C170.233298,34.657002 170.692293,34.861 171.224962,34.861 C171.746298,34.861 172.199627,34.6598353 172.584962,34.2575 C172.970298,33.8551647 173.162962,33.3933359 173.162962,32.872 L173.162962,28.435 C173.162962,28.3103327 173.233795,28.1970005 173.375462,28.095 C173.51713,27.9929995 173.684295,27.942 173.876962,27.942 C174.080964,27.942 174.248129,27.9901662 174.378462,28.0865 C174.508796,28.1828338 174.573962,28.2989993 174.573962,28.435 L174.573962,32.872 C174.573962,33.744671 174.242466,34.5068301 173.579462,35.1585 C172.916459,35.8101699 172.131634,36.136 171.224962,36.136 C170.306958,36.136 169.516466,35.8101699 168.853462,35.1585 C168.190459,34.5068301 167.858962,33.744671 167.858962,32.872 Z M177.390357,35.49 L177.390357,28.435 C177.390357,28.2876659 177.455524,28.1686671 177.585857,28.078 C177.716191,27.9873329 177.883356,27.942 178.087357,27.942 C178.268692,27.942 178.42169,27.9873329 178.546357,28.078 C178.671025,28.1686671 178.733357,28.2876659 178.733357,28.435 L178.733357,29.234 C178.937359,28.8486647 179.237689,28.5200014 179.634357,28.248 C180.031026,27.9759986 180.473022,27.84 180.960357,27.84 L181.538357,27.84 C181.685692,27.84 181.81319,27.905166 181.920857,28.0355 C182.028525,28.165834 182.082357,28.3159991 182.082357,28.486 C182.082357,28.6560008 182.028525,28.8033327 181.920857,28.928 C181.81319,29.0526673 181.685692,29.115 181.538357,29.115 L180.960357,29.115 C180.382355,29.115 179.878026,29.347331 179.447357,29.812 C179.016689,30.276669 178.801357,30.8773297 178.801357,31.614 L178.801357,35.49 C178.801357,35.6146673 178.730525,35.7308328 178.588857,35.8385 C178.44719,35.9461672 178.280025,36 178.087357,36 C177.89469,36 177.730358,35.9490005 177.594357,35.847 C177.458357,35.7449995 177.390357,35.6260007 177.390357,35.49 Z M183.555752,32.838 L183.555752,31.053 C183.555752,30.180329 183.887249,29.4266698 184.550252,28.792 C185.213256,28.1573302 186.009415,27.84 186.938752,27.84 C187.822757,27.84 188.587749,28.137497 189.233752,28.7325 C189.879756,29.327503 190.202752,30.0726622 190.202752,30.968 C190.202752,31.2966683 190.163086,31.5601657 190.083752,31.7585 C190.004419,31.9568343 189.882587,32.0984996 189.718252,32.1835 C189.553918,32.2685004 189.40092,32.3223332 189.259252,32.345 C189.117585,32.3676668 188.927754,32.379 188.689752,32.379 L184.966752,32.379 L184.966752,32.889 C184.966752,33.5123364 185.190584,34.0109981 185.638252,34.385 C186.085921,34.7590019 186.666749,34.946 187.380752,34.946 C187.754754,34.946 188.080584,34.8893339 188.358252,34.776 C188.635921,34.6626661 188.859752,34.5521672 189.029752,34.4445 C189.199753,34.3368328 189.335752,34.283 189.437752,34.283 C189.59642,34.283 189.732419,34.3538326 189.845752,34.4955 C189.959086,34.6371674 190.015752,34.7816659 190.015752,34.929 C190.015752,35.189668 189.757922,35.4559986 189.242252,35.728 C188.726583,36.0000014 188.08909,36.136 187.329752,36.136 C186.21908,36.136 185.312423,35.8328364 184.609752,35.2265 C183.907082,34.6201636 183.555752,33.8240049 183.555752,32.838 Z M184.966752,31.427 L188.111752,31.427 C188.406421,31.427 188.604752,31.390167 188.706752,31.3165 C188.808753,31.242833 188.859752,31.0983344 188.859752,30.883 C188.859752,30.3729974 188.672754,29.9253353 188.298752,29.54 C187.924751,29.1546647 187.465755,28.962 186.921752,28.962 C186.389083,28.962 185.930088,29.1404982 185.544752,29.4975 C185.159417,29.8545018 184.966752,30.2936641 184.966752,30.815 L184.966752,31.427 Z M192.271147,35.218 C192.271147,34.9686654 192.356147,34.7561675 192.526147,34.5805 C192.696148,34.4048325 192.905813,34.317 193.155147,34.317 C193.393149,34.317 193.597147,34.4048325 193.767147,34.5805 C193.937148,34.7561675 194.022147,34.9686654 194.022147,35.218 C194.022147,35.4560012 193.937148,35.6628325 193.767147,35.8385 C193.597147,36.0141675 193.393149,36.102 193.155147,36.102 C192.905813,36.102 192.696148,36.0141675 192.526147,35.8385 C192.356147,35.6628325 192.271147,35.4560012 192.271147,35.218 Z" id="Yep.Restart.I'msure." fill="#6F6F6F"></path>
                </g>
                <path d="M92.7552129,51.1353993 C92.7552129,50.8055345 92.8767402,50.4756747 93.1197985,50.14581 C93.3628567,49.8159452 93.6406334,49.6510153 93.9531368,49.6510153 C94.1441112,49.6510153 94.374145,49.7595218 94.6432452,49.9765381 C94.9123454,50.1935544 95.1771013,50.4279285 95.4375208,50.6796674 C95.6979404,50.9314063 96.0929041,51.1657803 96.6224239,51.3827966 C97.1519436,51.5998129 97.7465593,51.7083194 98.4062888,51.7083194 C99.3958831,51.7083194 100.190151,51.4739454 100.789116,51.0051902 C101.388081,50.536435 101.687559,49.8506738 101.687559,48.947886 C101.687559,48.1145435 101.396761,47.4201018 100.815158,46.8645401 C100.233554,46.3089784 99.5304317,45.8662718 98.7057698,45.536407 C97.8811079,45.2065423 97.0521181,44.8506409 96.2187756,44.4686922 C95.385433,44.0867435 94.6779705,43.5138291 94.0963669,42.7499318 C93.5147632,41.9860345 93.2239658,41.0311771 93.2239658,39.8853311 C93.2239658,38.965182 93.4019164,38.1665741 93.7578232,37.4894832 C94.1137299,36.8123924 94.5954988,36.2915611 95.2031444,35.9269738 C95.81079,35.5623864 96.4488084,35.2976305 97.1172185,35.1326981 C97.7856287,34.9677657 98.4930912,34.8853008 99.2396272,34.8853008 C99.7083824,34.8853008 100.198832,34.9156826 100.71099,34.9764472 C101.223149,35.0372117 101.730959,35.1370377 102.234437,35.2759282 C102.737915,35.4148186 103.15458,35.6144706 103.484445,35.8748901 C103.814309,36.1353097 103.979239,36.4304474 103.979239,36.7603121 C103.979239,37.0901769 103.875073,37.4200367 103.666737,37.7499015 C103.458402,38.0797662 103.180625,38.2446961 102.833399,38.2446961 C102.659786,38.2446961 102.425412,38.1622312 102.13027,37.9972988 C101.835128,37.8323664 101.440164,37.6674365 100.945367,37.5025041 C100.45057,37.3375718 99.8819954,37.2551068 99.2396272,37.2551068 C98.2500329,37.2551068 97.4601055,37.4504185 96.8698212,37.8410479 C96.2795369,38.2316772 95.9843992,38.8262929 95.9843992,39.6249128 C95.9843992,40.1457519 96.1406485,40.5927988 96.453152,40.9660668 C96.7656555,41.3393348 97.1692997,41.6474933 97.6640968,41.8905516 C98.158894,42.1336098 98.7101071,42.3723242 99.3177527,42.6067018 C99.9253983,42.8410794 100.528695,43.1145158 101.12766,43.4270192 C101.726624,43.7395227 102.273497,44.0997643 102.768294,44.507755 C103.263092,44.9157456 103.666736,45.4756392 103.979239,46.1874526 C104.291743,46.8992661 104.447992,47.7239156 104.447992,48.661426 C104.447992,50.4670015 103.90546,51.8428641 102.820378,52.7890552 C101.735297,53.7352462 100.29867,54.2083346 98.5104561,54.2083346 C96.9132162,54.2083346 95.5547146,53.8741345 94.4349106,53.2057244 C93.3151065,52.5373142 92.7552129,51.8472127 92.7552129,51.1353993 Z M107.463057,49.9374754 L107.463057,36.8905213 C107.463057,36.647463 107.601945,36.4391305 107.879726,36.2655175 C108.157507,36.0919045 108.470006,36.0050992 108.817232,36.0050992 C109.164458,36.0050992 109.481297,36.0919045 109.767758,36.2655175 C110.05422,36.4391305 110.197448,36.647463 110.197448,36.8905213 L110.197448,41.6561752 L113.374551,41.6561752 C113.600248,41.6561752 113.782539,41.7560012 113.921429,41.9556561 C114.06032,42.1553111 114.129764,42.3940255 114.129764,42.6718063 C114.129764,42.9495872 114.06032,43.1883015 113.921429,43.3879565 C113.782539,43.5876115 113.600248,43.6874375 113.374551,43.6874375 L110.197448,43.6874375 L110.197448,49.9374754 C110.197448,50.5624823 110.331996,51.0051889 110.601097,51.2656084 C110.870197,51.526028 111.343285,51.6562358 112.020376,51.6562358 L112.93184,51.6562358 C113.296427,51.6562358 113.582884,51.7690826 113.79122,51.9947795 C113.999556,52.2204765 114.103722,52.4982531 114.103722,52.8281179 C114.103722,53.1579827 113.999556,53.4357593 113.79122,53.6614563 C113.582884,53.8871532 113.296427,54 112.93184,54 L112.020376,54 C108.982148,54 107.463057,52.6458387 107.463057,49.9374754 Z M115.998988,50.7708138 C115.998988,49.3819095 116.519819,48.4140314 117.561498,47.8671503 C118.603176,47.3202693 120.113586,47.0468328 122.092775,47.0468328 L123.238615,47.0468328 L123.238615,46.57808 C123.238615,45.8141827 123.025943,45.154463 122.600591,44.5989013 C122.175239,44.0433396 121.52854,43.765563 120.660475,43.765563 C119.913939,43.765563 119.258559,43.8957708 118.694317,44.1561903 C118.130075,44.4166099 117.821916,44.5468177 117.769832,44.5468177 C117.47469,44.5468177 117.235976,44.4035891 117.053682,44.1171276 C116.871388,43.8306661 116.780243,43.5138271 116.780243,43.166601 C116.780243,42.7152071 117.201248,42.3245836 118.043271,41.9947189 C118.885294,41.6648541 119.775048,41.4999242 120.712558,41.4999242 C122.500773,41.4999242 123.824552,41.9816932 124.683937,42.9452455 C125.543321,43.9087978 125.973007,45.11105 125.973007,46.5520382 L125.973007,53.0885361 C125.973007,53.3315944 125.847139,53.5442672 125.5954,53.7265608 C125.343662,53.9088545 125.026822,54 124.644874,54 C124.297648,54 124.00251,53.9088545 123.759452,53.7265608 C123.516394,53.5442672 123.394866,53.3315944 123.394866,53.0885361 L123.394866,52.1770723 C122.231659,53.5312539 120.9209,54.2083346 119.462551,54.2083346 C118.455595,54.2083346 117.626605,53.9131969 116.975556,53.3229126 C116.324508,52.7326283 115.998988,51.8819372 115.998988,50.7708138 Z M118.759421,50.43227 C118.759421,50.9878317 118.915671,51.408837 119.228174,51.6952985 C119.540678,51.98176 119.948662,52.1249886 120.45214,52.1249886 C121.11187,52.1249886 121.741207,51.8472119 122.340172,51.2916502 C122.939137,50.7360885 123.238615,50.1458131 123.238615,49.5208062 L123.238615,48.5572587 L122.58757,48.5572587 C121.806311,48.5572587 121.168293,48.5919808 120.673496,48.661426 C120.178698,48.7308712 119.735992,48.9131621 119.345363,49.2083043 C118.954733,49.5034464 118.759421,49.9114309 118.759421,50.43227 Z M129.482866,53.0885361 L129.482866,42.5415972 C129.482866,42.2811777 129.608734,42.0685049 129.860473,41.9035725 C130.112211,41.7386401 130.42905,41.6561752 130.810999,41.6561752 C131.158225,41.6561752 131.453363,41.7386401 131.696421,41.9035725 C131.939479,42.0685049 132.061007,42.2811777 132.061007,42.5415972 L132.061007,43.6874375 C132.356149,43.0797919 132.803196,42.5633008 133.402161,42.1379489 C134.001126,41.712597 134.656505,41.4999242 135.368318,41.4999242 L136.201657,41.4999242 C136.479438,41.4999242 136.722492,41.6171113 136.930828,41.8514888 C137.139164,42.0858664 137.24333,42.3679834 137.24333,42.6978481 C137.24333,43.0277129 137.139164,43.3141701 136.930828,43.5572284 C136.722492,43.8002866 136.479438,43.9218139 136.201657,43.9218139 L135.368318,43.9218139 C134.534976,43.9218139 133.801472,44.2777153 133.167784,44.9895287 C132.534097,45.7013421 132.217258,46.6214774 132.217258,47.7499621 L132.217258,53.0885361 C132.217258,53.3142331 132.078369,53.5225656 131.800588,53.7135399 C131.522808,53.9045143 131.192948,54 130.810999,54 C130.42905,54 130.112211,53.9045143 129.860473,53.7135399 C129.608734,53.5225656 129.482866,53.3142331 129.482866,53.0885361 Z M139.555265,49.9374754 L139.555265,36.8905213 C139.555265,36.647463 139.694153,36.4391305 139.971934,36.2655175 C140.249715,36.0919045 140.562214,36.0050992 140.90944,36.0050992 C141.256666,36.0050992 141.573505,36.0919045 141.859967,36.2655175 C142.146428,36.4391305 142.289657,36.647463 142.289657,36.8905213 L142.289657,41.6561752 L145.466759,41.6561752 C145.692456,41.6561752 145.874747,41.7560012 146.013638,41.9556561 C146.152528,42.1553111 146.221972,42.3940255 146.221972,42.6718063 C146.221972,42.9495872 146.152528,43.1883015 146.013638,43.3879565 C145.874747,43.5876115 145.692456,43.6874375 145.466759,43.6874375 L142.289657,43.6874375 L142.289657,49.9374754 C142.289657,50.5624823 142.424205,51.0051889 142.693305,51.2656084 C142.962405,51.526028 143.435494,51.6562358 144.112584,51.6562358 L145.024048,51.6562358 C145.388636,51.6562358 145.675093,51.7690826 145.883428,51.9947795 C146.091764,52.2204765 146.19593,52.4982531 146.19593,52.8281179 C146.19593,53.1579827 146.091764,53.4357593 145.883428,53.6614563 C145.675093,53.8871532 145.388636,54 145.024048,54 L144.112584,54 C141.074356,54 139.555265,52.6458387 139.555265,49.9374754 Z M154.309405,49.0260115 L154.309405,46.6301637 C154.309405,45.2586207 154.838917,44.0607088 155.897957,43.0363919 C156.956996,42.012075 158.224352,41.4999242 159.700063,41.4999242 C161.141051,41.4999242 162.399727,42.0077347 163.476128,43.023371 C164.552528,44.0390072 165.090721,45.2412594 165.090721,46.6301637 L165.090721,49.0260115 C165.090721,50.3801932 164.548188,51.5824454 163.463107,52.6328042 C162.378025,53.6831631 161.12369,54.2083346 159.700063,54.2083346 C158.259075,54.2083346 157.000399,53.6875033 155.923999,52.6458251 C154.847598,51.6041469 154.309405,50.3975545 154.309405,49.0260115 Z M157.043797,49.0260115 C157.043797,49.7378249 157.304213,50.3758433 157.825052,50.9400856 C158.345891,51.504328 158.970888,51.7864449 159.700063,51.7864449 C160.411877,51.7864449 161.032534,51.504328 161.562054,50.9400856 C162.091573,50.3758433 162.356329,49.7378249 162.356329,49.0260115 L162.356329,46.6301637 C162.356329,45.9357115 162.091573,45.310714 161.562054,44.7551523 C161.032534,44.1995906 160.411877,43.9218139 159.700063,43.9218139 C158.970888,43.9218139 158.345891,44.1995906 157.825052,44.7551523 C157.304213,45.310714 157.043797,45.9357115 157.043797,46.6301637 L157.043797,49.0260115 Z M166.907861,42.72389 C166.907861,42.4113865 167.107513,42.1379501 167.506823,41.9035725 C167.906133,41.6691949 168.305437,41.5520079 168.704747,41.5520079 C169.13878,41.5520079 169.416557,41.7169378 169.538086,42.0468025 L172.637063,50.2760191 L175.73604,42.0988862 C175.87493,41.7342988 176.152707,41.5520079 176.569378,41.5520079 C176.899243,41.5520079 177.281186,41.6735352 177.715219,41.9165934 C178.149251,42.1596517 178.366264,42.4287478 178.366264,42.72389 C178.366264,42.8454191 178.331542,42.992988 178.262097,43.166601 L173.88707,53.7135399 C173.730819,54.0781273 173.314154,54.2604182 172.637063,54.2604182 C171.959972,54.2604182 171.543307,54.0781273 171.387055,53.7135399 L167.038071,43.166601 C166.951264,42.992988 166.907861,42.8454191 166.907861,42.72389 Z M180.209447,49.0260115 L180.209447,46.5520382 C180.209447,45.1804952 180.738958,43.9956041 181.797998,42.9973291 C182.857037,41.9990542 184.133074,41.4999242 185.626146,41.4999242 C187.049773,41.4999242 188.269386,41.9556516 189.285023,42.86712 C190.300659,43.7785884 190.808469,44.9287575 190.808469,46.3176618 C190.808469,46.8385009 190.747706,47.2595061 190.626177,47.5806902 C190.504647,47.9018744 190.313676,48.1275679 190.053256,48.2577777 C189.792837,48.3879875 189.549782,48.4704524 189.324085,48.505175 C189.098388,48.5398976 188.803251,48.5572587 188.438663,48.5572587 L182.943838,48.5572587 L182.943838,49.1562206 C182.943838,50.0242858 183.256337,50.7143872 183.881344,51.2265457 C184.506351,51.7387041 185.32232,51.9947795 186.329275,51.9947795 C187.041089,51.9947795 187.713829,51.8298496 188.347517,51.4999848 C188.981204,51.1701201 189.367488,51.0051902 189.506378,51.0051902 C189.80152,51.0051902 190.053255,51.1440785 190.261591,51.4218594 C190.469927,51.6996402 190.574093,51.9687364 190.574093,52.2291559 C190.574093,52.6631885 190.157428,53.1015548 189.324085,53.5442681 C188.490743,53.9869813 187.466441,54.2083346 186.25115,54.2083346 C184.480297,54.2083346 183.03065,53.7309059 181.902165,52.7760342 C180.773681,51.8211626 180.209447,50.5711675 180.209447,49.0260115 Z M182.943838,46.8645401 L187.266781,46.8645401 C187.64873,46.8645401 187.904805,46.8124569 188.035015,46.7082891 C188.165225,46.6041213 188.230329,46.3957888 188.230329,46.0832853 C188.230329,45.3888332 187.978594,44.7985578 187.475116,44.3124413 C186.971638,43.8263248 186.34664,43.5832702 185.600104,43.5832702 C184.87093,43.5832702 184.245932,43.813304 183.725093,44.2733785 C183.204254,44.7334531 182.943838,45.3193883 182.943838,46.0312017 L182.943838,46.8645401 Z M193.745408,53.0885361 L193.745408,42.5415972 C193.745408,42.2811777 193.871276,42.0685049 194.123015,41.9035725 C194.374754,41.7386401 194.691593,41.6561752 195.073541,41.6561752 C195.420767,41.6561752 195.715905,41.7386401 195.958963,41.9035725 C196.202022,42.0685049 196.323549,42.2811777 196.323549,42.5415972 L196.323549,43.6874375 C196.618691,43.0797919 197.065738,42.5633008 197.664703,42.1379489 C198.263668,41.712597 198.919047,41.4999242 199.630861,41.4999242 L200.464199,41.4999242 C200.74198,41.4999242 200.985035,41.6171113 201.19337,41.8514888 C201.401706,42.0858664 201.505872,42.3679834 201.505872,42.6978481 C201.505872,43.0277129 201.401706,43.3141701 201.19337,43.5572284 C200.985035,43.8002866 200.74198,43.9218139 200.464199,43.9218139 L199.630861,43.9218139 C198.797518,43.9218139 198.064014,44.2777153 197.430327,44.9895287 C196.796639,45.7013421 196.4798,46.6214774 196.4798,47.7499621 L196.4798,53.0885361 C196.4798,53.3142331 196.340912,53.5225656 196.063131,53.7135399 C195.78535,53.9045143 195.45549,54 195.073541,54 C194.691593,54 194.374754,53.9045143 194.123015,53.7135399 C193.871276,53.5225656 193.745408,53.3142331 193.745408,53.0885361 Z M202.151131,37.4373996 C202.151131,36.829754 202.576476,36.2351383 203.42718,35.6535346 C204.277884,35.0719309 205.354269,34.7811335 206.656366,34.7811335 C208.270967,34.7811335 209.542664,35.2021388 210.471494,36.044162 C211.400323,36.8861852 211.864731,37.9582296 211.864731,39.2603273 C211.864731,39.7985277 211.786606,40.3150187 211.630355,40.8098159 C211.474103,41.304613 211.248409,41.7560001 210.953267,42.1639907 C210.658125,42.5719814 210.393369,42.9105217 210.158992,43.1796219 C209.924614,43.4487221 209.629476,43.7438598 209.27357,44.0650439 C208.917663,44.386228 208.70499,44.5815398 208.635545,44.650985 C208.114706,45.1197402 207.793527,45.5971688 207.671997,46.0832853 C207.550468,46.5694018 207.489705,47.3072461 207.489705,48.2968404 C207.489705,48.8350408 207.125123,49.104137 206.395948,49.104137 C206.031361,49.104137 205.770945,49.0173318 205.614693,48.8437187 C205.458442,48.6701057 205.380317,48.3576069 205.380317,47.9062131 C205.380317,45.9270245 205.849065,44.503419 206.786575,43.6353538 C206.890743,43.531186 207.112096,43.3402145 207.450642,43.0624337 C207.789187,42.7846528 208.049603,42.554619 208.231897,42.3723253 C208.41419,42.1900317 208.626863,41.9469771 208.869921,41.6431543 C209.11298,41.3393314 209.29093,41.0094716 209.403779,40.6535649 C209.516627,40.2976582 209.573051,39.9200555 209.573051,39.5207456 C209.573051,38.687403 209.308295,38.0407042 208.778775,37.5806296 C208.249255,37.1205551 207.515751,36.8905213 206.578241,36.8905213 C206.022679,36.8905213 205.549591,36.9729862 205.158961,37.1379186 C204.768332,37.302851 204.494896,37.4894822 204.338644,37.6978178 C204.182392,37.9061535 204.008782,38.0927847 203.817807,38.2577171 C203.626833,38.4226494 203.427181,38.5051144 203.218845,38.5051144 C202.958426,38.5051144 202.715371,38.4096287 202.489674,38.2186543 C202.263977,38.02768 202.151131,37.7672643 202.151131,37.4373996 Z M204.885522,52.5937415 C204.885522,52.1597089 205.033091,51.7907867 205.328233,51.4869639 C205.623375,51.1831411 205.987957,51.031232 206.42199,51.031232 C206.838661,51.031232 207.198903,51.1831411 207.502726,51.4869639 C207.806548,51.7907867 207.958457,52.1597089 207.958457,52.5937415 C207.958457,53.0104128 207.806548,53.3749946 207.502726,53.6874981 C207.198903,54.0000016 206.838661,54.1562509 206.42199,54.1562509 C205.987957,54.1562509 205.623375,54.0000016 205.328233,53.6874981 C205.033091,53.3749946 204.885522,53.0104128 204.885522,52.5937415 Z" id="Startover?" fill="#111111"></path>
            </g>
        </g>
    </g>
</svg>