<?xml version="1.0" encoding="UTF-8"?>
<svg width="308px" height="143px" viewBox="0 0 308 143" version="1.1" xmlns="http://www.w3.org/2000/svg" xmlns:xlink="http://www.w3.org/1999/xlink">
    <!-- Generator: Sketch 53 (72520) - https://sketchapp.com -->
    <title>THE</title>
    <desc>Created with Sketch.</desc>
    <defs>
        <path d="M13.9079999,322.109 C13.9079999,319.866989 14.4389946,317.890509 15.5009999,316.1795 C16.5630052,314.468491 18.0969899,313.613 20.1029999,313.613 L93.5579999,313.613 C95.5640099,313.613 97.0979946,314.438992 98.1599999,316.091 C99.2220052,317.743008 99.7529999,319.689989 99.7529999,321.932 C99.7529999,324.410012 99.1925055,326.504491 98.0714999,328.2155 C96.9504943,329.926509 95.4460093,330.782 93.5579999,330.782 L66.2999999,330.782 L66.2999999,436.805 C66.2999999,438.693009 65.3560093,440.197494 63.4679999,441.3185 C61.5799904,442.439506 59.3970123,443 56.9189999,443 C54.3229869,443 52.110509,442.439506 50.2814999,441.3185 C48.4524907,440.197494 47.5379999,438.693009 47.5379999,436.805 L47.5379999,330.782 L20.1029999,330.782 C18.2149904,330.782 16.7105055,329.926509 15.5894999,328.2155 C14.4684943,326.504491 13.9079999,324.469012 13.9079999,322.109 Z M120.123,436.805 L120.123,319.631 C120.123,317.62499 121.037491,316.120505 122.8665,315.1175 C124.695509,314.114495 126.907987,313.613 129.504,313.613 C132.100013,313.613 134.312491,314.114495 136.1415,315.1175 C137.970509,316.120505 138.885,317.62499 138.885,319.631 L138.885,368.483 L182.958,368.483 L182.958,319.631 C182.958,317.62499 183.872491,316.120505 185.7015,315.1175 C187.530509,314.114495 189.742987,313.613 192.339,313.613 C194.935013,313.613 197.147491,314.114495 198.9765,315.1175 C200.805509,316.120505 201.72,317.62499 201.72,319.631 L201.72,436.805 C201.72,438.693009 200.805509,440.197494 198.9765,441.3185 C197.147491,442.439506 194.935013,443 192.339,443 C189.860988,443 187.678009,442.439506 185.79,441.3185 C183.90199,440.197494 182.958,438.693009 182.958,436.805 L182.958,383.351 L138.885,383.351 L138.885,436.805 C138.885,438.693009 137.970509,440.197494 136.1415,441.3185 C134.312491,442.439506 132.100013,443 129.504,443 C127.025988,443 124.843009,442.439506 122.955,441.3185 C121.06699,440.197494 120.123,438.693009 120.123,436.805 Z M231.294,436.805 L231.294,319.808 C231.294,317.919991 232.119992,316.415506 233.772,315.2945 C235.424008,314.173494 237.370989,313.613 239.613,313.613 L302.625,313.613 C304.63101,313.613 306.164995,314.438992 307.227,316.091 C308.289005,317.743008 308.82,319.630989 308.82,321.755 C308.82,324.115012 308.259506,326.120992 307.1385,327.773 C306.017494,329.425008 304.513009,330.251 302.625,330.251 L250.056,330.251 L250.056,370.784 L277.314,370.784 C279.202009,370.784 280.706494,371.521493 281.8275,372.9965 C282.948506,374.471507 283.509,376.270989 283.509,378.395 C283.509,380.283009 282.978005,381.964493 281.916,383.4395 C280.853995,384.914507 279.32001,385.652 277.314,385.652 L250.056,385.652 L250.056,426.362 L302.625,426.362 C304.513009,426.362 306.017494,427.187992 307.1385,428.84 C308.259506,430.492008 308.82,432.497988 308.82,434.858 C308.82,436.982011 308.289005,438.869992 307.227,440.522 C306.164995,442.174008 304.63101,443 302.625,443 L239.613,443 C237.370989,443 235.424008,442.439506 233.772,441.3185 C232.119992,440.197494 231.294,438.693009 231.294,436.805 Z" id="path-1"></path>
        <filter x="-3.6%" y="-8.1%" width="107.1%" height="116.2%" filterUnits="objectBoundingBox" id="filter-2">
            <feMorphology radius="0.5" operator="dilate" in="SourceAlpha" result="shadowSpreadOuter1"></feMorphology>
            <feOffset dx="0" dy="0" in="shadowSpreadOuter1" result="shadowOffsetOuter1"></feOffset>
            <feGaussianBlur stdDeviation="3" in="shadowOffsetOuter1" result="shadowBlurOuter1"></feGaussianBlur>
            <feColorMatrix values="0 0 0 0 0   0 0 0 0 0   0 0 0 0 0  0 0 0 1 0" type="matrix" in="shadowBlurOuter1"></feColorMatrix>
        </filter>
    </defs>
    <g id="[Screens]" stroke="none" stroke-width="1" fill="none" fill-rule="evenodd">
        <g id="game-win" transform="translate(-399.000000, -467.000000)" fill-rule="nonzero">
            <g id="overlay_game_win" transform="translate(266.000000, 67.000000)">
                <g id="text" transform="translate(125.500000, 93.000000)">
                    <g id="THE">
                        <use fill="black" fill-opacity="1" filter="url(#filter-2)" xlink:href="#path-1"></use>
                        <use fill="#FFFFFF" xlink:href="#path-1"></use>
                    </g>
                </g>
            </g>
        </g>
    </g>
</svg>