<?xml version="1.0" encoding="UTF-8"?>
<svg width="740px" height="662px" viewBox="0 0 740 662" version="1.1" xmlns="http://www.w3.org/2000/svg" xmlns:xlink="http://www.w3.org/1999/xlink">
    <!-- Generator: Sketch 53 (72520) - https://sketchapp.com -->
    <title>overlay_game_over</title>
    <desc>Created with Sketch.</desc>
    <g id="[Screens]" stroke="none" stroke-width="1" fill="none" fill-rule="evenodd">
        <g id="game-over" transform="translate(-357.000000, -152.000000)">
            <g id="overlay_game_over" transform="translate(357.000000, 152.000000)">
                <g id="try-again-button" transform="translate(181.000000, 581.000000)" opacity="0.6">
                    <g id="button_try_again">
                        <rect id="Rectangle" stroke="#555555" stroke-width="3" fill="#FFFFFF" fill-rule="nonzero" stroke-linecap="round" stroke-linejoin="round" x="0" y="0" width="378.458052" height="78.9498586" rx="2"></rect>
                        <text id="TRY-AGAIN" font-family="Dosis-Medium, Dosis" font-size="37.5951708" font-weight="400" letter-spacing="6.89244752" fill="#555555">
                            <tspan x="78.3386169" y="53">TRY AGAIN</tspan>
                        </text>
                    </g>
                </g>
                <g id="OVER" transform="translate(1.000000, 258.000000)" fill="#FFFFFF" fill-opacity="0.65" fill-rule="nonzero">
                    <path d="M-1.09622905e-05,30.6070178 C2.32046621,27.2879114 4.9774847,24.3049319 7.97104677,21.6580733 C21.2851445,9.88596556 39.0733853,4 61.3363029,4 C83.5992204,4 101.442026,9.88596556 114.865256,21.6580733 C128.288486,33.430181 135,51.8510732 135,76.9213026 L135,172.078697 C135,197.148927 128.288486,215.569819 114.865256,227.341927 C101.442026,239.114034 83.5992204,245 61.3363029,245 C39.0733853,245 21.2851445,239.114034 7.97104677,227.341927 C4.9774847,224.695068 2.32046621,221.712089 -1.09622905e-05,218.392982 L-1.13686838e-13,30.6070021 Z M739,34.279488 L739,107.62932 C737.685627,110.025923 736.209644,112.267556 734.572052,114.354223 C726.275068,124.926483 715.030639,131.956386 700.838428,135.444142 L739,207.016178 L739,240.156956 C735.201789,242.718996 731.214917,244 727.039301,244 C721.362417,244 716.77731,240.621287 713.283843,233.86376 L665.467249,140.348774 L632.388646,140.348774 L632.388646,231.574932 C632.388646,235.062688 630.696523,237.841951 627.312227,239.912807 C623.927931,241.983662 619.834085,243.019074 615.030568,243.019074 C610.445392,243.019074 606.460716,241.983662 603.076419,239.912807 C599.692123,237.841951 598,235.062688 598,231.574932 L598,15.1171662 C598,12.0653798 599.091692,9.44960218 601.275109,7.26975477 C603.458526,5.08990736 606.187757,4 609.462882,4 L671.689956,4 C705.525016,4 727.961623,14.0931002 739.000009,34.2795046 Z M23,172.704918 C23,200.90178 35.7790565,215 61.3375527,215 C73.683606,215 83.2137498,211.502767 89.92827,204.508197 C96.6427903,197.513626 100,186.912639 100,172.704918 L100,77.295082 C100,63.0873607 96.6427903,52.4863738 89.92827,45.4918033 C83.2137498,38.4972328 73.683606,35 61.3375527,35 C35.7790565,35 23,49.0982197 23,77.295082 L23,172.704918 Z M181,18.3880597 C181,14.4640238 183.289697,11.0850436 187.869159,8.25101764 C192.448621,5.41699171 197.355114,4 202.588785,4 C209.130874,4 213.165101,6.39798597 214.691589,11.1940299 L268.663551,197.584803 L322.308411,11.1940299 C323.834899,6.39798597 327.760093,4 334.084112,4 C339.317783,4 344.278793,5.41699171 348.96729,8.25101764 C353.655787,11.0850436 356,14.4640238 356,18.3880597 C356,19.0420657 355.781934,20.0230599 355.345794,21.3310719 L290.579439,233.227951 C289.489091,236.933985 286.872295,239.822468 282.728972,241.893487 C278.585649,243.964506 273.897222,245 268.663551,245 C256.669722,245 249.364499,241.076023 246.747664,233.227951 L181.327103,21.3310719 C181.109033,20.6770659 181,19.6960717 181,18.3880597 Z M405,231.556772 L405,15.4432285 C405,11.9557509 406.523577,9.17670894 409.570776,7.10601915 C412.617976,5.03532936 416.209264,4 420.344749,4 L536.573059,4 C540.27323,4 543.10273,5.52574854 545.061644,8.57729138 C547.020558,11.6288342 548,15.1162595 548,19.0396717 C548,23.3990186 546.966144,27.1044079 544.898402,30.1559508 C542.830659,33.2074936 540.055573,34.7332421 536.573059,34.7332421 L439.607306,34.7332421 L439.607306,109.604651 L489.885845,109.604651 C493.368358,109.604651 496.143445,110.966927 498.211187,113.691518 C500.27893,116.41611 501.312785,119.740062 501.312785,123.663475 C501.312785,127.150952 500.333343,130.25694 498.374429,132.981532 C496.415515,135.706124 493.586015,137.068399 489.885845,137.068399 L439.607306,137.068399 L439.607306,212.266758 L536.573059,212.266758 C540.055573,212.266758 542.830659,213.792506 544.898402,216.844049 C546.966144,219.895592 548,223.600981 548,227.960328 C548,231.883741 547.020558,235.371166 545.061644,238.422709 C543.10273,241.474251 540.27323,243 536.573059,243 L420.344749,243 C416.209264,243 412.617976,241.964671 409.570776,239.893981 C406.523577,237.823291 405,235.044249 405,231.556772 Z M633,113 L672.344262,113 C699.448223,113 713,100.00013 713,74 C713,47.99987 699.448223,35 672.344262,35 L633,35 L633,113 Z" id="Combined-Shape"></path>
                </g>
                <g id="GAME" transform="translate(0.000000, 0.000000)" fill="#FFFFFF" fill-opacity="0.65" fill-rule="nonzero">
                    <path d="M-1.58710822e-11,5.09018857 C1.16279359,3.30138392 2.41777575,1.6046547 3.7649468,-9.07274256e-13 L122.19245,-9.09494702e-13 C131.397521,10.0732273 136,22.571565 136,37.495251 C136,43.8173089 134.635871,48.1772834 131.907572,50.5753053 C129.179274,52.9733272 124.759496,54.1723202 118.648107,54.1723202 C107.298384,54.1723202 101.514478,50.3573425 101.296214,42.7272727 C98.8953109,19.4010593 85.9088038,7.73812754 62.3363029,7.73812754 C36.581163,7.73812754 23.7037862,21.7990453 23.7037862,49.9213026 L23.7037862,145.078697 C23.7037862,173.200955 36.581163,187.261872 62.3363029,187.261872 C74.7773451,187.261872 84.3808125,183.773893 91.1469933,176.797829 C97.9131741,169.821765 101.296214,159.248827 101.296214,145.078697 L101.296214,118.264586 L68.2293987,118.264586 C64.7371763,118.264586 62.0089185,116.902094 60.0445434,114.177069 C58.0801684,111.452044 57.0979955,108.127564 57.0979955,104.203528 C57.0979955,100.715496 58.0801684,97.5545144 60.0445434,94.7204885 C62.0089185,91.8864625 64.7371763,90.4694708 68.2293987,90.4694708 L124.541203,90.4694708 C128.033425,90.4694708 130.816248,91.6139641 132.889755,93.9029851 C134.963262,96.192006 136,98.9714898 136,102.24152 L136,145.078697 C136,170.148927 129.288486,188.569819 115.865256,200.341927 C102.442026,212.114034 84.5992204,218 62.3363029,218 C40.0733853,218 22.2851445,212.114034 8.97104677,200.341927 C5.53811579,197.306585 2.54776801,193.829217 -1.18822729e-11,189.909811 L-1.13686838e-13,5.09018857 Z M226.357013,-9.09494702e-13 L278.622567,-9.09494702e-13 L339.345794,198.668928 C339.781934,199.97694 340,200.957934 340,201.61194 C340,205.535976 337.655787,208.914956 332.96729,211.748982 C328.278793,214.583008 323.317783,216 318.084112,216 C311.760093,216 307.834899,213.602014 306.308411,208.80597 L292.897196,162.371777 L212.102804,162.371777 L198.691589,208.80597 C197.165101,213.602014 193.130874,216 186.588785,216 C181.355114,216 176.448621,214.583008 171.869159,211.748982 C167.289697,208.914956 165,205.535976 165,201.61194 C165,200.303928 165.109033,199.322934 165.327103,198.668928 L226.357013,-9.66338121e-13 Z M374,-9.09494702e-13 L420.71874,-9.09494702e-13 L464.836036,83.2585499 L509.583579,-9.09494702e-13 L556,-9.09494702e-13 L556,204.556772 C556,208.044249 554.305723,210.823291 550.917117,212.893981 C547.528512,214.964671 543.429453,216 538.61982,216 C534.028806,216 529.984402,214.964671 526.486486,212.893981 C522.988571,210.823291 521.23964,208.044249 521.23964,204.556772 L521.23964,47.621067 L477.297297,128.704514 C474.018002,133.935731 469.754981,136.5513 464.508108,136.5513 C459.261235,136.5513 455.326139,133.935731 452.702703,128.704514 L408.76036,45.6593707 L408.76036,204.556772 C408.76036,208.044249 407.066083,210.823291 403.677477,212.893981 C400.288872,214.964671 396.189814,216 391.38018,216 C386.789166,216 382.744762,214.964671 379.246847,212.893981 C375.748931,210.823291 374,208.044249 374,204.556772 L374,-9.09494702e-13 Z M608,-9.09494702e-13 L740,-9.09494702e-13 L740,7.72553685 C739.85889,7.73065095 739.716576,7.73324213 739.573059,7.73324213 L642.607306,7.73324213 L642.607306,82.6046512 L692.885845,82.6046512 C696.368358,82.6046512 699.143445,83.9669266 701.211187,86.6915185 C703.27893,89.4161103 704.312785,92.7400625 704.312785,96.6634747 C704.312785,100.150952 703.333343,103.25694 701.374429,105.981532 C699.415515,108.706124 696.586015,110.068399 692.885845,110.068399 L642.607306,110.068399 L642.607306,185.266758 L739.573059,185.266758 C739.716574,185.266758 739.858888,185.269349 740,185.274531 L740,215.993104 C739.858998,215.997701 739.716685,216 739.573059,216 L623.344749,216 C619.209264,216 615.617976,214.964671 612.570776,212.893981 C609.523577,210.823291 608,208.044249 608,204.556772 L608,-9.09494702e-13 Z M220,135 L285,135 L252.5,23 L220,135 Z" id="Combined-Shape"></path>
                </g>
                <g id="Your-plants-are-dead." transform="translate(239.000000, 413.000000)" fill="#111111" font-family="Dosis-Regular, Dosis" font-size="30" font-weight="normal" letter-spacing="0.525000155" opacity="0.6">
                    <text id="Your-plants-are-dead">
                        <tspan x="0.302498373" y="31">Your plants are dead.</tspan>
                    </text>
                </g>
            </g>
        </g>
    </g>
</svg>