<?xml version="1.0" encoding="UTF-8"?>
<svg width="452px" height="197px" viewBox="0 0 452 197" version="1.1" xmlns="http://www.w3.org/2000/svg" xmlns:xlink="http://www.w3.org/1999/xlink">
    <!-- Generator: Sketch 52.6 (67491) - http://www.bohemiancoding.com/sketch -->
    <title>title</title>
    <desc>Created with Sketch.</desc>
    <defs>
        <linearGradient x1="50%" y1="0%" x2="50%" y2="100%" id="linearGradient-1">
            <stop stop-color="#0D720F" offset="0%"></stop>
            <stop stop-color="#08540A" offset="100%"></stop>
        </linearGradient>
        <linearGradient x1="50%" y1="0%" x2="50%" y2="100%" id="linearGradient-2">
            <stop stop-color="#118C16" offset="0%"></stop>
            <stop stop-color="#0C560E" offset="100%"></stop>
        </linearGradient>
        <linearGradient x1="50%" y1="0%" x2="50%" y2="100%" id="linearGradient-3">
            <stop stop-color="#0D720F" offset="0%"></stop>
            <stop stop-color="#064A07" offset="100%"></stop>
        </linearGradient>
        <linearGradient x1="50%" y1="15.2764682%" x2="50%" y2="70.9337958%" id="linearGradient-4">
            <stop stop-color="#111111" stop-opacity="0" offset="0%"></stop>
            <stop stop-color="#111111" offset="100%"></stop>
        </linearGradient>
    </defs>
    <g id="components" stroke="none" stroke-width="1" fill="none" fill-rule="evenodd">
        <g id="title-(dark-bg)" transform="translate(-42.000000, -44.000000)">
            <g id="title" transform="translate(31.000000, 40.000000)">
                <g id="leaves" fill-rule="nonzero">
                    <g id="bunch-(rear)" opacity="0.631812686" transform="translate(180.000000, 75.000000)">
                        <g id="leaf" transform="translate(34.500000, 61.500000) rotate(-18.000000) translate(-34.500000, -61.500000) translate(18.000000, 6.000000)">
                            <path d="M1.10022241,53.3812816 C1.10022241,33.2952294 7.42360405,15.0053253 15.487374,1.29526183 C12.8859367,55.4077618 24.0561828,67.170688 16.7745965,108.795688 C7.20122909,94.7485087 1.10022241,75.5179921 1.10022241,53.3812816 Z" id="Path" fill="url(#linearGradient-1)"></path>
                            <path d="M31.1276114,56.7096682 C31.1276114,76.7957204 25.2028408,95.0856245 16.7745965,108.795688 C22.0999703,64.395688 10.5287938,45.6952618 15.487374,1.29526183 C25.493448,15.3424411 31.1276114,34.5729577 31.1276114,56.7096682 Z" id="Path" fill="url(#linearGradient-2)"></path>
                        </g>
                        <g id="leaf" transform="translate(40.500000, 61.500000) rotate(14.000000) translate(-40.500000, -61.500000) translate(21.000000, 6.000000)">
                            <path d="M1.30026284,53.3812816 C1.30026284,33.2952294 8.77335025,15.0053253 18.3032602,1.29526183 C15.2288343,55.4077618 28.4300343,67.170688 19.8245232,108.795688 C8.51054347,94.7485087 1.30026284,75.5179921 1.30026284,53.3812816 Z" id="Path" fill="url(#linearGradient-1)"></path>
                            <path d="M36.7871771,56.7096682 C36.7871771,76.7957204 29.7851755,95.0856245 19.8245232,108.795688 C26.1181467,64.395688 12.44312,45.6952618 18.3032602,1.29526183 C30.1286204,15.3424411 36.7871771,34.5729577 36.7871771,56.7096682 Z" id="Path" fill="url(#linearGradient-2)"></path>
                        </g>
                    </g>
                    <g id="bunch-(rear)" opacity="0.7" transform="translate(366.000000, 72.000000)">
                        <g id="leaf" transform="translate(46.500000, 58.500000) rotate(-32.000000) translate(-46.500000, -58.500000) translate(27.000000, 3.000000)">
                            <path d="M1.30026284,53.3812816 C1.30026284,33.2952294 8.77335025,15.0053253 18.3032602,1.29526183 C15.2288343,55.4077618 28.4300343,67.170688 19.8245232,108.795688 C8.51054347,94.7485087 1.30026284,75.5179921 1.30026284,53.3812816 Z" id="Path" fill="url(#linearGradient-1)"></path>
                            <path d="M36.7871771,56.7096682 C36.7871771,76.7957204 29.7851755,95.0856245 19.8245232,108.795688 C26.1181467,64.395688 12.44312,45.6952618 18.3032602,1.29526183 C30.1286204,15.3424411 36.7871771,34.5729577 36.7871771,56.7096682 Z" id="Path" fill="url(#linearGradient-2)"></path>
                        </g>
                        <g id="leaf" transform="translate(58.500000, 64.500000) rotate(22.000000) translate(-58.500000, -64.500000) translate(39.000000, 9.000000)">
                            <path d="M1.30026284,53.3812816 C1.30026284,33.2952294 8.77335025,15.0053253 18.3032602,1.29526183 C15.2288343,55.4077618 28.4300343,67.170688 19.8245232,108.795688 C8.51054347,94.7485087 1.30026284,75.5179921 1.30026284,53.3812816 Z" id="Path" fill="url(#linearGradient-1)"></path>
                            <path d="M36.7871771,56.7096682 C36.7871771,76.7957204 29.7851755,95.0856245 19.8245232,108.795688 C26.1181467,64.395688 12.44312,45.6952618 18.3032602,1.29526183 C30.1286204,15.3424411 36.7871771,34.5729577 36.7871771,56.7096682 Z" id="Path" fill="url(#linearGradient-2)"></path>
                        </g>
                    </g>
                    <g id="bunch-(rear)" opacity="0.631812686" transform="translate(270.000000, 81.000000)">
                        <g id="leaf" transform="translate(37.500000, 61.500000) rotate(-18.000000) translate(-37.500000, -61.500000) translate(18.000000, 6.000000)">
                            <path d="M1.30026284,53.3812816 C1.30026284,33.2952294 8.77335025,15.0053253 18.3032602,1.29526183 C15.2288343,55.4077618 28.4300343,67.170688 19.8245232,108.795688 C8.51054347,94.7485087 1.30026284,75.5179921 1.30026284,53.3812816 Z" id="Path" fill="url(#linearGradient-1)"></path>
                            <path d="M36.7871771,56.7096682 C36.7871771,76.7957204 29.7851755,95.0856245 19.8245232,108.795688 C26.1181467,64.395688 12.44312,45.6952618 18.3032602,1.29526183 C30.1286204,15.3424411 36.7871771,34.5729577 36.7871771,56.7096682 Z" id="Path" fill="url(#linearGradient-2)"></path>
                        </g>
                        <g id="leaf" transform="translate(49.500000, 67.500000) rotate(22.000000) translate(-49.500000, -67.500000) translate(30.000000, 12.000000)">
                            <path d="M1.30026284,53.3812816 C1.30026284,33.2952294 8.77335025,15.0053253 18.3032602,1.29526183 C15.2288343,55.4077618 28.4300343,67.170688 19.8245232,108.795688 C8.51054347,94.7485087 1.30026284,75.5179921 1.30026284,53.3812816 Z" id="Path" fill="url(#linearGradient-1)"></path>
                            <path d="M36.7871771,56.7096682 C36.7871771,76.7957204 29.7851755,95.0856245 19.8245232,108.795688 C26.1181467,64.395688 12.44312,45.6952618 18.3032602,1.29526183 C30.1286204,15.3424411 36.7871771,34.5729577 36.7871771,56.7096682 Z" id="Path" fill="url(#linearGradient-2)"></path>
                        </g>
                    </g>
                    <g id="bunch-(rear)" opacity="0.469005766" transform="translate(54.000000, 87.000000)">
                        <g id="leaf" transform="translate(36.000000, 61.500000) rotate(-18.000000) translate(-36.000000, -61.500000) translate(18.000000, 6.000000)">
                            <path d="M1.20024263,53.3812816 C1.20024263,33.2952294 8.09847715,15.0053253 16.8953171,1.29526183 C14.0573855,55.4077618 26.2431086,67.170688 18.2995598,108.795688 C7.85588628,94.7485087 1.20024263,75.5179921 1.20024263,53.3812816 Z" id="Path" fill="url(#linearGradient-1)"></path>
                            <path d="M33.9573943,56.7096682 C33.9573943,76.7957204 27.4940081,95.0856245 18.2995598,108.795688 C24.1090585,64.395688 11.4859569,45.6952618 16.8953171,1.29526183 C27.8110342,15.3424411 33.9573943,34.5729577 33.9573943,56.7096682 Z" id="Path" fill="url(#linearGradient-2)"></path>
                        </g>
                        <g id="leaf" transform="translate(42.000000, 61.500000) rotate(14.000000) translate(-42.000000, -61.500000) translate(21.000000, 6.000000)">
                            <path d="M1.40028306,53.3812816 C1.40028306,33.2952294 9.44822334,15.0053253 19.7112033,1.29526183 C16.4002831,55.4077618 30.61696,67.170688 21.3494865,108.795688 C9.16520066,94.7485087 1.40028306,75.5179921 1.40028306,53.3812816 Z" id="Path" fill="url(#linearGradient-1)"></path>
                            <path d="M39.61696,56.7096682 C39.61696,76.7957204 32.0763428,95.0856245 21.3494865,108.795688 C28.127235,64.395688 13.4002831,45.6952618 19.7112033,1.29526183 C32.4462066,15.3424411 39.61696,34.5729577 39.61696,56.7096682 Z" id="Path" fill="url(#linearGradient-2)"></path>
                        </g>
                    </g>
                    <g id="bunch" transform="translate(0.000000, 30.000000)">
                        <g id="leaf" transform="translate(34.656668, 64.866411) rotate(-11.000000) translate(-34.656668, -64.866411) translate(12.156668, 4.866411)">
                            <path d="M1.50030328,57.7094936 C1.50030328,35.9948426 10.1230964,16.2219733 21.1191464,1.40028306 C17.5717319,59.9002831 32.8038857,72.61696 22.8744498,117.61696 C9.81985785,102.43082 1.50030328,81.6410726 1.50030328,57.7094936 Z" id="Path" fill="url(#linearGradient-1)"></path>
                            <path d="M42.4467428,61.3077495 C42.4467428,83.0224004 34.3675102,102.79527 22.8744498,117.61696 C30.1363232,69.61696 14.3574461,49.4002831 21.1191464,1.40028306 C34.7637928,16.5864228 42.4467428,37.3761705 42.4467428,61.3077495 Z" id="Path" fill="url(#linearGradient-2)"></path>
                        </g>
                        <g id="leaf" transform="translate(55.500000, 79.500000) rotate(19.000000) translate(-55.500000, -79.500000) translate(36.000000, 24.000000)">
                            <path d="M1.30026284,53.3812816 C1.30026284,33.2952294 8.77335025,15.0053253 18.3032602,1.29526183 C15.2288343,55.4077618 28.4300343,67.170688 19.8245232,108.795688 C8.51054347,94.7485087 1.30026284,75.5179921 1.30026284,53.3812816 Z" id="Path" fill="url(#linearGradient-1)"></path>
                            <path d="M36.7871771,56.7096682 C36.7871771,76.7957204 29.7851755,95.0856245 19.8245232,108.795688 C26.1181467,64.395688 12.44312,45.6952618 18.3032602,1.29526183 C30.1286204,15.3424411 36.7871771,34.5729577 36.7871771,56.7096682 Z" id="Path" fill="url(#linearGradient-2)"></path>
                        </g>
                    </g>
                    <g id="bunch" transform="translate(93.000000, 27.000000)">
                        <g id="leaf" transform="translate(67.500000, 70.038462) rotate(-12.000000) translate(-67.500000, -70.038462) translate(45.000000, 6.000000)">
                            <path d="M1.50030328,61.5937864 C1.50030328,38.4175724 10.1230964,17.3138369 21.1191464,1.49453289 C17.5717319,63.9320329 32.8038857,77.50464 22.8744498,125.533486 C9.81985785,109.325202 1.50030328,87.1361448 1.50030328,61.5937864 Z" id="Path" fill="url(#linearGradient-1)"></path>
                            <path d="M42.4467428,65.4342326 C42.4467428,88.6104466 34.3675102,109.714182 22.8744498,125.533486 C30.1363232,74.3027169 14.3574461,52.7253021 21.1191464,1.49453289 C34.7637928,17.7028166 42.4467428,39.8918743 42.4467428,65.4342326 Z" id="Path" fill="url(#linearGradient-2)"></path>
                        </g>
                        <g id="leaf" transform="translate(87.000000, 65.769231) rotate(14.000000) translate(-87.000000, -65.769231) translate(66.000000, 6.000000)">
                            <path d="M1.40028306,57.487534 C1.40028306,35.8564009 9.44822334,16.1595811 19.7112033,1.39489736 C16.4002831,59.6698974 30.61696,72.337664 21.3494865,117.164587 C9.16520066,102.036856 1.40028306,81.3270684 1.40028306,57.487534 Z" id="Path" fill="url(#linearGradient-1)"></path>
                            <path d="M39.61696,61.0719504 C39.61696,82.7030835 32.0763428,102.399903 21.3494865,117.164587 C28.127235,69.3492024 13.4002831,49.210282 19.7112033,1.39489736 C32.4462066,16.5226289 39.61696,37.232416 39.61696,61.0719504 Z" id="Path" fill="url(#linearGradient-2)"></path>
                        </g>
                        <g id="leaf" transform="translate(43.500000, 94.500000) rotate(-26.000000) translate(-43.500000, -94.500000) translate(24.000000, 39.000000)">
                            <path d="M1.30026284,53.3812816 C1.30026284,33.2952294 8.77335025,15.0053253 18.3032602,1.29526183 C15.2288343,55.4077618 28.4300343,67.170688 19.8245232,108.795688 C8.51054347,94.7485087 1.30026284,75.5179921 1.30026284,53.3812816 Z" id="Path" fill="url(#linearGradient-1)"></path>
                            <path d="M36.7871771,56.7096682 C36.7871771,76.7957204 29.7851755,95.0856245 19.8245232,108.795688 C26.1181467,64.395688 12.44312,45.6952618 18.3032602,1.29526183 C30.1286204,15.3424411 36.7871771,34.5729577 36.7871771,56.7096682 Z" id="Path" fill="url(#linearGradient-2)"></path>
                        </g>
                    </g>
                    <g id="bunch" transform="translate(291.000000, 27.000000)">
                        <g id="leaf" transform="translate(64.572439, 66.002530) rotate(4.000000) translate(-64.572439, -66.002530) translate(42.072439, 3.002530)">
                            <path d="M1.50030328,61.5937864 C1.50030328,38.4175724 10.1230964,17.3138369 21.1191464,1.49453289 C17.5717319,63.9320329 32.8038857,77.50464 22.8744498,125.533486 C9.81985785,109.325202 1.50030328,87.1361448 1.50030328,61.5937864 Z" id="Path" fill="url(#linearGradient-1)"></path>
                            <path d="M42.4467428,65.4342326 C42.4467428,88.6104466 34.3675102,109.714182 22.8744498,125.533486 C30.1363232,74.3027169 14.3574461,52.7253021 21.1191464,1.49453289 C34.7637928,17.7028166 42.4467428,39.8918743 42.4467428,65.4342326 Z" id="Path" fill="url(#linearGradient-2)"></path>
                        </g>
                        <g id="leaf" transform="translate(88.500000, 82.961538) rotate(22.000000) translate(-88.500000, -82.961538) translate(72.000000, 36.000000)">
                            <path d="M1.10022241,45.1687767 C1.10022241,28.1728864 7.42360405,12.6968137 15.487374,1.09599078 C12.8859367,46.8834908 24.0561828,56.836736 16.7745965,92.0578898 C7.20122909,80.1718151 1.10022241,63.8998395 1.10022241,45.1687767 Z" id="Path" fill="url(#linearGradient-1)"></path>
                            <path d="M31.1276114,47.9851039 C31.1276114,64.9809942 25.2028408,80.4570669 16.7745965,92.0578898 C22.0999703,54.4886591 10.5287938,38.6652216 15.487374,1.09599078 C25.493448,12.9820655 31.1276114,29.2540411 31.1276114,47.9851039 Z" id="Path" fill="url(#linearGradient-2)"></path>
                        </g>
                        <g id="leaf" transform="translate(37.500000, 67.500000) rotate(-17.000000) translate(-37.500000, -67.500000) translate(18.000000, 12.000000)">
                            <path d="M1.30026284,53.3812816 C1.30026284,33.2952294 8.77335025,15.0053253 18.3032602,1.29526183 C15.2288343,55.4077618 28.4300343,67.170688 19.8245232,108.795688 C8.51054347,94.7485087 1.30026284,75.5179921 1.30026284,53.3812816 Z" id="Path" fill="url(#linearGradient-1)"></path>
                            <path d="M36.7871771,56.7096682 C36.7871771,76.7957204 29.7851755,95.0856245 19.8245232,108.795688 C26.1181467,64.395688 12.44312,45.6952618 18.3032602,1.29526183 C30.1286204,15.3424411 36.7871771,34.5729577 36.7871771,56.7096682 Z" id="Path" fill="url(#linearGradient-2)"></path>
                        </g>
                    </g>
                    <g id="bunch" transform="translate(189.000000, 0.000000)">
                        <g id="leaf" transform="translate(70.500000, 67.038462) rotate(-4.000000) translate(-70.500000, -67.038462) translate(48.000000, 3.000000)">
                            <path d="M1.50030328,61.5937864 C1.50030328,38.4175724 10.1230964,17.3138369 21.1191464,1.49453289 C17.5717319,63.9320329 32.8038857,77.50464 22.8744498,125.533486 C9.81985785,109.325202 1.50030328,87.1361448 1.50030328,61.5937864 Z" id="Path" fill="url(#linearGradient-1)"></path>
                            <path d="M42.4467428,65.4342326 C42.4467428,88.6104466 34.3675102,109.714182 22.8744498,125.533486 C30.1363232,74.3027169 14.3574461,52.7253021 21.1191464,1.49453289 C34.7637928,17.7028166 42.4467428,39.8918743 42.4467428,65.4342326 Z" id="Path" fill="url(#linearGradient-2)"></path>
                        </g>
                        <g id="leaf" transform="translate(92.959927, 74.996494) rotate(10.000000) translate(-92.959927, -74.996494) translate(71.959927, 14.996494)">
                            <path d="M1.40028306,57.487534 C1.40028306,35.8564009 9.44822334,16.1595811 19.7112033,1.39489736 C16.4002831,59.6698974 30.61696,72.337664 21.3494865,117.164587 C9.16520066,102.036856 1.40028306,81.3270684 1.40028306,57.487534 Z" id="Path" fill="url(#linearGradient-3)"></path>
                            <path d="M39.61696,61.0719504 C39.61696,82.7030835 32.0763428,102.399903 21.3494865,117.164587 C28.127235,69.3492024 13.4002831,49.210282 19.7112033,1.39489736 C32.4462066,16.5226289 39.61696,37.232416 39.61696,61.0719504 Z" id="Path" fill="url(#linearGradient-2)"></path>
                        </g>
                        <g id="leaf" transform="translate(46.500000, 97.500000) rotate(-32.000000) translate(-46.500000, -97.500000) translate(27.000000, 42.000000)">
                            <path d="M1.30026284,53.3812816 C1.30026284,33.2952294 8.77335025,15.0053253 18.3032602,1.29526183 C15.2288343,55.4077618 28.4300343,67.170688 19.8245232,108.795688 C8.51054347,94.7485087 1.30026284,75.5179921 1.30026284,53.3812816 Z" id="Path" fill="url(#linearGradient-1)"></path>
                            <path d="M36.7871771,56.7096682 C36.7871771,76.7957204 29.7851755,95.0856245 19.8245232,108.795688 C26.1181467,64.395688 12.44312,45.6952618 18.3032602,1.29526183 C30.1286204,15.3424411 36.7871771,34.5729577 36.7871771,56.7096682 Z" id="Path" fill="url(#linearGradient-2)"></path>
                        </g>
                        <g id="leaf" transform="translate(106.500000, 106.500000) rotate(42.000000) translate(-106.500000, -106.500000) translate(87.000000, 51.000000)">
                            <path d="M1.30026284,53.3812816 C1.30026284,33.2952294 8.77335025,15.0053253 18.3032602,1.29526183 C15.2288343,55.4077618 28.4300343,67.170688 19.8245232,108.795688 C8.51054347,94.7485087 1.30026284,75.5179921 1.30026284,53.3812816 Z" id="Path" fill="url(#linearGradient-1)"></path>
                            <path d="M36.7871771,56.7096682 C36.7871771,76.7957204 29.7851755,95.0856245 19.8245232,108.795688 C26.1181467,64.395688 12.44312,45.6952618 18.3032602,1.29526183 C30.1286204,15.3424411 36.7871771,34.5729577 36.7871771,56.7096682 Z" id="Path" fill="url(#linearGradient-2)"></path>
                        </g>
                    </g>
                </g>
                <rect id="gradient" fill="url(#linearGradient-4)" fill-rule="nonzero" x="12" y="36" width="450" height="165"></rect>
                <path d="M14.503965,113.076158 L14.503965,168.264501 C14.503965,168.955952 13.9434333,169.516484 13.2519825,169.516484 C12.5605316,169.516484 12,168.955952 12,168.264501 L12,113.076158 C12,112.384707 12.5605316,111.824176 13.2519825,111.824176 C13.9434333,111.824176 14.503965,112.384707 14.503965,113.076158 Z M47.5276279,113.081227 L21.5213481,138.60814 C21.1106128,139.011304 21.1044753,139.6711 21.5076397,140.081836 C21.5121032,140.086383 21.5166084,140.090889 21.5211546,140.095354 L50.198851,168.259099 C50.488006,168.543072 50.4922069,169.007684 50.2082341,169.296839 C50.0702538,169.437337 49.8815947,169.516484 49.6846726,169.516484 C48.5345571,169.516484 47.4304089,169.064968 46.6098346,168.259099 L18.3107768,140.467207 C17.6948312,139.8623 17.6858826,138.872604 18.2907894,138.256658 C18.2974865,138.249839 18.304246,138.243081 18.3110671,138.236386 L43.9386114,113.081227 C44.7594181,112.27555 45.8636293,111.824176 47.0137767,111.824176 C47.4189053,111.824176 47.747327,112.152597 47.747327,112.557726 C47.747327,112.754641 47.6681571,112.943288 47.5276279,113.081227 Z M60.101808,121.714286 C60.7932588,121.714286 61.3537905,122.274817 61.3537905,122.966268 L61.3537905,168.264501 C61.3537905,168.955952 60.7932588,169.516484 60.101808,169.516484 C59.4103572,169.516484 58.8498255,168.955952 58.8498255,168.264501 L58.8498255,122.966268 C58.8498255,122.274817 59.4103572,121.714286 60.101808,121.714286 Z M73.7648935,132.801718 C73.7648935,128.318619 74.9153483,125.083442 77.2162925,123.096089 C79.5172366,121.108736 83.2503452,120.115075 88.41573,120.115075 C92.0314995,120.115075 94.9428545,121.039411 97.1498826,122.888111 C98.4909158,124.011418 99.9359642,126.452873 101.485028,130.212477 L101.484999,130.212489 C101.757851,130.874707 101.545731,131.637644 100.970223,132.06399 L96.7756116,135.171435 C95.8750723,135.838571 94.7839979,136.198688 93.6632653,136.198688 C93.3495985,136.198688 93.0953214,135.944411 93.0953214,135.630744 C93.0953214,135.450457 93.180919,135.280879 93.3259677,135.173808 L99.5447309,130.583288 C98.558612,127.486715 97.1381524,125.314525 95.2833097,124.066652 C93.4284669,122.818779 91.1392966,122.194852 88.41573,122.194852 C86.5374083,122.194852 84.952598,122.310394 83.6612518,122.541482 C82.3699056,122.772569 81.0785788,123.223183 79.7872325,123.893337 C78.4958863,124.563491 77.5215215,125.638032 76.8641089,127.116992 C76.2066963,128.595953 75.8779949,130.490842 75.8779949,132.801718 C75.8779949,134.835288 76.828881,136.637744 78.7306818,138.20914 C80.6324826,139.780535 82.9451316,141.120823 85.6686982,142.230043 C88.3922648,143.339263 91.1275298,144.471575 93.8745754,145.627013 C96.621621,146.782451 98.9460093,148.261389 100.84781,150.063872 C102.749611,151.866355 103.700497,153.946111 103.700497,156.303204 C103.700497,160.924956 102.538303,164.368108 100.21388,166.632766 C97.8894565,168.897424 93.9098219,170.029736 88.2748566,170.029736 C83.6729683,170.029736 80.0572531,169.116954 77.4276026,167.291363 C75.8087699,166.167515 74.143231,163.667643 72.4309857,159.791748 L72.4309634,159.791758 C72.193764,159.254825 72.4367457,158.627267 72.9736782,158.390068 C72.9791287,158.38766 72.9845994,158.385298 72.9900896,158.382982 C73.5296607,158.155384 74.1516368,158.407566 74.3803476,158.946667 C75.9301759,162.599765 77.403761,164.872943 78.8011185,165.766192 C81.0785837,167.222044 84.2364648,167.949959 88.2748566,167.949959 C92.7828289,167.949959 96.1285393,167.094948 98.3120884,165.3849 C100.495637,163.674852 101.587396,160.64765 101.587396,156.303204 C101.587396,154.269634 100.636509,152.467178 98.7347087,150.895783 C96.8329079,149.324387 94.5085196,147.9841 91.761474,146.874879 C89.0144284,145.765659 86.2791633,144.633347 83.5555967,143.477909 C80.8320302,142.322472 78.5193812,140.843533 76.6175804,139.041051 C74.7157796,137.238568 73.7648935,135.158811 73.7648935,132.801718 Z M112.884535,132.801718 C112.884535,128.318619 114.035163,125.083442 116.336452,123.096089 C118.637742,121.108736 122.371411,120.115075 127.537571,120.115075 C131.153883,120.115075 134.065675,121.039411 136.273035,122.888111 C137.614251,124.011403 139.059496,126.452808 140.608768,130.212326 C140.881688,130.87461 140.669532,131.637652 140.093923,132.064009 L135.898781,135.17138 C134.998053,135.838555 133.906802,136.198688 132.785894,136.198688 C132.472218,136.198688 132.217933,135.944403 132.217933,135.630727 C132.217933,135.450421 132.303547,135.280826 132.448619,135.173754 L138.668243,130.583288 C137.681976,127.486715 136.261303,125.314525 134.406182,124.066652 C132.55106,122.818779 130.261546,122.194852 127.537571,122.194852 C125.658967,122.194852 124.073919,122.310394 122.782379,122.541482 C121.490839,122.772569 120.199318,123.223183 118.907778,123.893337 C117.616238,124.563491 116.641727,125.638032 115.984216,127.116992 C115.326704,128.595953 114.997954,130.490842 114.997954,132.801718 C114.997954,134.835288 115.948983,136.637744 117.851069,138.20914 C119.753155,139.780535 122.066151,141.120823 124.790127,142.230043 C127.514102,143.339263 130.249778,144.471575 132.997236,145.627013 C135.744694,146.782451 138.069431,148.261389 139.971517,150.063872 C141.873604,151.866355 142.824633,153.946111 142.824633,156.303204 C142.824633,160.924956 141.662264,164.368108 139.337492,166.632766 C137.01272,168.897424 133.032488,170.029736 127.396676,170.029736 C122.794097,170.029736 119.177839,169.116954 116.547794,167.291363 C114.928734,166.167526 113.262963,163.667693 111.550478,159.791863 L111.550444,159.791878 C111.313207,159.254943 111.556159,158.627353 112.093094,158.390115 C112.098581,158.387691 112.104088,158.385313 112.109615,158.382982 C112.649296,158.155372 113.271375,158.407595 113.500158,158.94678 C115.050176,162.599816 116.523965,164.872953 117.921516,165.766192 C120.199323,167.222044 123.357678,167.949959 127.396676,167.949959 C131.905325,167.949959 135.251538,167.094948 137.435415,165.3849 C139.619292,163.674852 140.711214,160.64765 140.711214,156.303204 C140.711214,154.269634 139.760185,152.467178 137.858099,150.895783 C135.956012,149.324387 133.631275,147.9841 130.883817,146.874879 C128.136359,145.765659 125.400684,144.633347 122.676708,143.477909 C119.952733,142.322472 117.639737,140.843533 115.73765,139.041051 C113.835564,137.238568 112.884535,135.158811 112.884535,132.801718 Z M213.337638,113.06044 C213.337638,113.743209 212.784144,114.296703 212.101374,114.296703 L194.765351,114.296703 C194.189812,114.296703 193.723246,114.76327 193.723246,115.338809 L193.723246,168.264501 C193.723246,168.955952 193.162714,169.516484 192.471263,169.516484 C191.779813,169.516484 191.219281,168.955952 191.219281,168.264501 L191.219281,115.338809 C191.219281,114.76327 190.752715,114.296703 190.177176,114.296703 L172.841153,114.296703 C172.158383,114.296703 171.604889,113.743209 171.604889,113.06044 C171.604889,112.37767 172.158383,111.824176 172.841153,111.824176 L212.101374,111.824176 C212.784144,111.824176 213.337638,112.37767 213.337638,113.06044 Z M250.672397,169.516484 C249.980946,169.516484 249.420414,168.955952 249.420414,168.264501 L249.420414,146.65749 C249.420414,146.081951 248.953848,145.615385 248.378309,145.615385 L225.42287,145.615385 C224.847331,145.615385 224.380765,146.081951 224.380765,146.65749 L224.380765,168.264501 C224.380765,168.955952 223.820233,169.516484 223.128782,169.516484 C222.437331,169.516484 221.8768,168.955952 221.8768,168.264501 L221.8768,122.966268 C221.8768,122.274817 222.437331,121.714286 223.128782,121.714286 C223.820233,121.714286 224.380765,122.274817 224.380765,122.966268 L224.380765,142.100752 C224.380765,142.676291 224.847331,143.142857 225.42287,143.142857 L248.378309,143.142857 C248.953848,143.142857 249.420414,142.676291 249.420414,142.100752 L249.420414,122.966268 C249.420414,122.274817 249.980946,121.714286 250.672397,121.714286 C251.363848,121.714286 251.924379,122.274817 251.924379,122.966268 L251.924379,168.264501 C251.924379,168.955952 251.363848,169.516484 250.672397,169.516484 Z M298.496787,165.358747 C293.506771,168.680022 288.84171,170.340659 284.501605,170.340659 C277.546112,170.340659 272.566053,168.390129 269.56128,164.489011 C266.556507,160.587893 265.054143,154.296747 265.054143,145.615385 C265.054143,136.934023 266.556507,130.642877 269.56128,126.741758 C272.566053,122.84064 277.546112,120.89011 284.501605,120.89011 C291.451762,120.89011 296.63853,123.086397 300.061909,127.47897 L300.061897,127.478979 C300.581916,128.146221 300.476759,129.106083 299.824609,129.644908 L282.007349,144.366052 C281.02994,145.173617 279.80169,145.615385 278.533821,145.615385 C278.145183,145.615385 277.83013,145.300331 277.83013,144.911693 C277.83013,144.701419 277.924165,144.502163 278.086482,144.368491 L297.689153,128.225275 C295.24082,124.9835 290.845014,123.362637 284.501605,123.362637 C281.719407,123.362637 279.382397,123.651096 277.490503,124.228022 C275.598609,124.804948 273.859761,125.876366 272.273909,127.442308 C270.688057,129.00825 269.505641,131.288447 268.726625,134.282967 C267.94761,137.277487 267.558108,141.054922 267.558108,145.615385 C267.558108,150.175847 267.94761,153.953282 268.726625,156.947802 C269.505641,159.942323 270.688057,162.22252 272.273909,163.788462 C273.859761,165.354403 275.598609,166.425821 277.490503,167.002747 C279.382397,167.579673 281.719407,167.868132 284.501605,167.868132 C288.781995,167.868132 292.856903,166.486972 296.726331,163.724651 C297.300512,163.314758 298.082291,163.358405 298.607274,163.82967 C299.005861,164.187473 299.038923,164.800648 298.681121,165.199235 C298.626626,165.259942 298.564689,165.313531 298.496777,165.358731 L298.496787,165.358747 Z M334.799196,126.082418 C334.799196,120.752721 336.162452,116.906605 338.889006,114.543956 C341.615559,112.181307 346.039186,111 352.16002,111 C356.444604,111 359.894476,112.09889 362.509742,114.296703 C364.124772,115.65394 365.867115,118.629835 367.73677,123.224389 C368.005436,123.884608 367.793442,124.642963 367.221358,125.068158 L362.06434,128.90105 C360.998602,129.693147 359.70606,130.120879 358.3782,130.120879 C358.005538,130.120879 357.703435,129.818777 357.703435,129.446115 C357.703435,129.23229 357.804783,129.031119 357.976616,128.903862 L365.347569,123.445055 C363.446418,119.269236 361.763197,116.686818 360.297906,115.697802 C358.09997,114.214278 355.387369,113.472527 352.16002,113.472527 C349.934262,113.472527 348.056307,113.609889 346.526099,113.884615 C344.99589,114.159342 343.465705,114.695051 341.935496,115.491758 C340.405288,116.288466 339.250693,117.565925 338.471678,119.324176 C337.692663,121.082426 337.303161,123.335151 337.303161,126.082418 C337.303161,128.500012 338.429934,130.642848 340.683514,132.510989 C342.937094,134.37913 345.677517,135.972521 348.904866,137.291209 C352.132214,138.609897 355.373425,139.956037 358.628596,141.32967 C361.883767,142.703304 364.638101,144.461528 366.89168,146.604396 C369.14526,148.747263 370.272033,151.219766 370.272033,154.021978 C370.272033,159.516511 368.894866,163.609877 366.140491,166.302198 C363.386116,168.994519 358.670362,170.340659 351.993089,170.340659 C346.539982,170.340659 342.255463,169.255505 339.139402,167.085165 C337.220753,165.748823 335.246737,162.775962 333.217354,158.166581 L333.217373,158.166572 C332.936301,157.528168 333.225976,156.782785 333.864381,156.501713 C333.869928,156.49927 333.875493,156.496868 333.881076,156.494505 C334.519894,156.224164 335.256914,156.522873 335.527256,157.161691 C335.527309,157.161816 335.527361,157.16194 335.527414,157.162065 C337.364306,161.50653 339.110824,164.209836 340.766979,165.271978 C343.465711,167.002756 347.20771,167.868132 351.993089,167.868132 C357.334908,167.868132 361.299479,166.851659 363.886923,164.818681 C366.474366,162.785704 367.768068,159.186839 367.768068,154.021978 C367.768068,151.604384 366.641295,149.461548 364.387716,147.593407 C362.134136,145.725265 359.379802,144.131875 356.124631,142.813187 C352.86946,141.494499 349.628249,140.148359 346.400901,138.774725 C343.173552,137.401092 340.433129,135.642868 338.179549,133.5 C335.925969,131.357132 334.799196,128.884629 334.799196,126.082418 Z M382.400211,168.264501 L382.400211,122.966268 C382.400211,122.274817 382.960743,121.714286 383.652194,121.714286 C384.343645,121.714286 384.904176,122.274817 384.904176,122.966268 L384.904176,168.264501 C384.904176,168.955952 384.343645,169.516484 383.652194,169.516484 C382.960743,169.516484 382.400211,168.955952 382.400211,168.264501 Z M412.001447,168.259781 L388.712928,145.412977 C388.096661,144.808399 388.087185,143.818707 388.691764,143.20244 C388.698889,143.195176 388.706085,143.187983 388.713351,143.18086 L409.330074,122.970503 C410.151462,122.165305 411.255831,121.714286 412.406058,121.714286 C412.81081,121.714286 413.138927,122.042402 413.138927,122.447154 C413.138927,122.644052 413.059697,122.832667 412.919091,122.970503 L391.922941,143.552808 C391.511943,143.955705 391.505376,144.615497 391.908273,145.026494 C391.913022,145.031338 391.917817,145.036136 391.922659,145.040886 L415.590463,168.259781 C415.879549,168.543384 415.883994,169.007641 415.600391,169.296727 C415.462496,169.437289 415.273862,169.516484 415.076954,169.516484 C413.926773,169.516484 412.822496,169.065258 412.001447,168.259781 Z M431.732274,121.714286 L460.426055,121.714286 C461.289363,121.714286 461.989213,122.414135 461.989213,123.277444 C461.989213,123.489242 461.946171,123.698831 461.862701,123.893488 L443.224937,167.3577 C443.197113,167.422586 443.182766,167.492449 443.182766,167.563048 L443.182766,184.748018 C443.182766,185.439468 442.622234,186 441.930784,186 C441.239333,186 440.678801,185.439468 440.678801,184.748018 L440.678801,167.563048 C440.678801,167.492449 440.664454,167.422586 440.636631,167.3577 L421.590712,122.941651 C421.399087,122.494773 421.606011,121.977164 422.05289,121.785539 C422.162524,121.738527 422.280568,121.714286 422.399857,121.714286 C423.210236,121.714286 423.942866,122.196588 424.263211,122.940963 L441.451877,162.881686 C441.565633,163.146017 441.872133,163.268082 442.136464,163.154326 C442.258936,163.101619 442.356543,163.003969 442.409195,162.881473 L458.416403,125.640439 C458.64368,125.111676 458.399277,124.498785 457.870514,124.271508 C457.740513,124.215631 457.600494,124.186813 457.458993,124.186813 L431.732274,124.186813 C431.049504,124.186813 430.49601,123.633319 430.49601,122.950549 C430.49601,122.26778 431.049504,121.714286 431.732274,121.714286 Z" id="KISS-THE-SKY" stroke="#E4E7D1" fill="#E4E7D1"></path>
            </g>
        </g>
    </g>
</svg>