<?xml version="1.0" encoding="UTF-8"?>
<svg width="150px" height="66px" viewBox="0 0 150 66" version="1.1" xmlns="http://www.w3.org/2000/svg" xmlns:xlink="http://www.w3.org/1999/xlink">
    <!-- Generator: Sketch 52.6 (67491) - http://www.bohemiancoding.com/sketch -->
    <title>title</title>
    <desc>Created with Sketch.</desc>
    <defs>
        <linearGradient x1="50%" y1="0%" x2="50%" y2="100%" id="linearGradient-1">
            <stop stop-color="#0D720F" offset="0%"></stop>
            <stop stop-color="#08540A" offset="100%"></stop>
        </linearGradient>
        <linearGradient x1="50%" y1="0%" x2="50%" y2="100%" id="linearGradient-2">
            <stop stop-color="#118C16" offset="0%"></stop>
            <stop stop-color="#0C560E" offset="100%"></stop>
        </linearGradient>
        <linearGradient x1="50%" y1="0%" x2="50%" y2="100%" id="linearGradient-3">
            <stop stop-color="#0D720F" offset="0%"></stop>
            <stop stop-color="#064A07" offset="100%"></stop>
        </linearGradient>
        <linearGradient x1="50%" y1="15.2764682%" x2="50%" y2="70.9337958%" id="linearGradient-4">
            <stop stop-color="#111111" stop-opacity="0" offset="0%"></stop>
            <stop stop-color="#111111" offset="100%"></stop>
        </linearGradient>
    </defs>
    <g id="mockup" stroke="none" stroke-width="1" fill="none" fill-rule="evenodd">
        <g transform="translate(-180.000000, -89.000000)" id="header">
            <g transform="translate(176.000000, 88.000000)">
                <g id="title">
                    <g id="leaves" fill-rule="nonzero">
                        <g id="bunch-(rear)" opacity="0.631812686" transform="translate(60.000000, 25.000000)">
                            <g id="leaf" transform="translate(11.500000, 20.500000) rotate(-18.000000) translate(-11.500000, -20.500000) translate(6.000000, 2.000000)">
                                <path d="M0.366740802,17.7937605 C0.366740802,11.0984098 2.47453468,5.0017751 5.16245802,0.431753945 C4.29531223,18.4692539 8.01872761,22.3902293 5.59153218,36.2652293 C2.4004097,31.5828362 0.366740802,25.172664 0.366740802,17.7937605 Z" id="Path" fill="url(#linearGradient-1)"></path>
                                <path d="M10.3758705,18.9032227 C10.3758705,25.5985735 8.40094693,31.6952082 5.59153218,36.2652293 C7.36665677,21.4652293 3.50959795,15.2317539 5.16245802,0.431753945 C8.49781601,5.11414703 10.3758705,11.5243192 10.3758705,18.9032227 Z" id="Path" fill="url(#linearGradient-2)"></path>
                            </g>
                            <g id="leaf" transform="translate(13.500000, 20.500000) rotate(14.000000) translate(-13.500000, -20.500000) translate(7.000000, 2.000000)">
                                <path d="M0.433420948,17.7937605 C0.433420948,11.0984098 2.92445008,5.0017751 6.10108675,0.431753945 C5.07627809,18.4692539 9.47667809,22.3902293 6.60817439,36.2652293 C2.83684782,31.5828362 0.433420948,25.172664 0.433420948,17.7937605 Z" id="Path" fill="url(#linearGradient-1)"></path>
                                <path d="M12.2623924,18.9032227 C12.2623924,25.5985735 9.92839183,31.6952082 6.60817439,36.2652293 C8.70604891,21.4652293 4.14770666,15.2317539 6.10108675,0.431753945 C10.0428735,5.11414703 12.2623924,11.5243192 12.2623924,18.9032227 Z" id="Path" fill="url(#linearGradient-2)"></path>
                            </g>
                        </g>
                        <g id="bunch-(rear)" opacity="0.7" transform="translate(122.000000, 24.000000)">
                            <g id="leaf" transform="translate(15.500000, 19.500000) rotate(-32.000000) translate(-15.500000, -19.500000) translate(9.000000, 1.000000)">
                                <path d="M0.433420948,17.7937605 C0.433420948,11.0984098 2.92445008,5.0017751 6.10108675,0.431753945 C5.07627809,18.4692539 9.47667809,22.3902293 6.60817439,36.2652293 C2.83684782,31.5828362 0.433420948,25.172664 0.433420948,17.7937605 Z" id="Path" fill="url(#linearGradient-1)"></path>
                                <path d="M12.2623924,18.9032227 C12.2623924,25.5985735 9.92839183,31.6952082 6.60817439,36.2652293 C8.70604891,21.4652293 4.14770666,15.2317539 6.10108675,0.431753945 C10.0428735,5.11414703 12.2623924,11.5243192 12.2623924,18.9032227 Z" id="Path" fill="url(#linearGradient-2)"></path>
                            </g>
                            <g id="leaf" transform="translate(19.500000, 21.500000) rotate(22.000000) translate(-19.500000, -21.500000) translate(13.000000, 3.000000)">
                                <path d="M0.433420948,17.7937605 C0.433420948,11.0984098 2.92445008,5.0017751 6.10108675,0.431753945 C5.07627809,18.4692539 9.47667809,22.3902293 6.60817439,36.2652293 C2.83684782,31.5828362 0.433420948,25.172664 0.433420948,17.7937605 Z" id="Path" fill="url(#linearGradient-1)"></path>
                                <path d="M12.2623924,18.9032227 C12.2623924,25.5985735 9.92839183,31.6952082 6.60817439,36.2652293 C8.70604891,21.4652293 4.14770666,15.2317539 6.10108675,0.431753945 C10.0428735,5.11414703 12.2623924,11.5243192 12.2623924,18.9032227 Z" id="Path" fill="url(#linearGradient-2)"></path>
                            </g>
                        </g>
                        <g id="bunch-(rear)" opacity="0.631812686" transform="translate(90.000000, 27.000000)">
                            <g id="leaf" transform="translate(12.500000, 20.500000) rotate(-18.000000) translate(-12.500000, -20.500000) translate(6.000000, 2.000000)">
                                <path d="M0.433420948,17.7937605 C0.433420948,11.0984098 2.92445008,5.0017751 6.10108675,0.431753945 C5.07627809,18.4692539 9.47667809,22.3902293 6.60817439,36.2652293 C2.83684782,31.5828362 0.433420948,25.172664 0.433420948,17.7937605 Z" id="Path" fill="url(#linearGradient-1)"></path>
                                <path d="M12.2623924,18.9032227 C12.2623924,25.5985735 9.92839183,31.6952082 6.60817439,36.2652293 C8.70604891,21.4652293 4.14770666,15.2317539 6.10108675,0.431753945 C10.0428735,5.11414703 12.2623924,11.5243192 12.2623924,18.9032227 Z" id="Path" fill="url(#linearGradient-2)"></path>
                            </g>
                            <g id="leaf" transform="translate(16.500000, 22.500000) rotate(22.000000) translate(-16.500000, -22.500000) translate(10.000000, 4.000000)">
                                <path d="M0.433420948,17.7937605 C0.433420948,11.0984098 2.92445008,5.0017751 6.10108675,0.431753945 C5.07627809,18.4692539 9.47667809,22.3902293 6.60817439,36.2652293 C2.83684782,31.5828362 0.433420948,25.172664 0.433420948,17.7937605 Z" id="Path" fill="url(#linearGradient-1)"></path>
                                <path d="M12.2623924,18.9032227 C12.2623924,25.5985735 9.92839183,31.6952082 6.60817439,36.2652293 C8.70604891,21.4652293 4.14770666,15.2317539 6.10108675,0.431753945 C10.0428735,5.11414703 12.2623924,11.5243192 12.2623924,18.9032227 Z" id="Path" fill="url(#linearGradient-2)"></path>
                            </g>
                        </g>
                        <g id="bunch-(rear)" opacity="0.469005766" transform="translate(18.000000, 29.000000)">
                            <g id="leaf" transform="translate(12.000000, 20.500000) rotate(-18.000000) translate(-12.000000, -20.500000) translate(6.000000, 2.000000)">
                                <path d="M0.400080875,17.7937605 C0.400080875,11.0984098 2.69949238,5.0017751 5.63177238,0.431753945 C4.68579516,18.4692539 8.74770285,22.3902293 6.09985328,36.2652293 C2.61862876,31.5828362 0.400080875,25.172664 0.400080875,17.7937605 Z" id="Path" fill="url(#linearGradient-1)"></path>
                                <path d="M11.3191314,18.9032227 C11.3191314,25.5985735 9.16466938,31.6952082 6.09985328,36.2652293 C8.03635284,21.4652293 3.8286523,15.2317539 5.63177238,0.431753945 C9.27034474,5.11414703 11.3191314,11.5243192 11.3191314,18.9032227 Z" id="Path" fill="url(#linearGradient-2)"></path>
                            </g>
                            <g id="leaf" transform="translate(14.000000, 20.500000) rotate(14.000000) translate(-14.000000, -20.500000) translate(7.000000, 2.000000)">
                                <path d="M0.466761021,17.7937605 C0.466761021,11.0984098 3.14940778,5.0017751 6.57040111,0.431753945 C5.46676102,18.4692539 10.2056533,22.3902293 7.1164955,36.2652293 C3.05506689,31.5828362 0.466761021,25.172664 0.466761021,17.7937605 Z" id="Path" fill="url(#linearGradient-1)"></path>
                                <path d="M13.2056533,18.9032227 C13.2056533,25.5985735 10.6921143,31.6952082 7.1164955,36.2652293 C9.37574498,21.4652293 4.46676102,15.2317539 6.57040111,0.431753945 C10.8154022,5.11414703 13.2056533,11.5243192 13.2056533,18.9032227 Z" id="Path" fill="url(#linearGradient-2)"></path>
                            </g>
                        </g>
                        <g id="bunch" transform="translate(0.000000, 10.000000)">
                            <g id="leaf" transform="translate(11.552223, 21.622137) rotate(-11.000000) translate(-11.552223, -21.622137) translate(4.052223, 1.622137)">
                                <path d="M0.500101094,19.2364979 C0.500101094,11.9982809 3.37436548,5.40732444 7.03971548,0.466761021 C5.85724395,19.966761 10.9346286,24.2056533 7.6248166,39.2056533 C3.27328595,34.1436067 0.500101094,27.2136909 0.500101094,19.2364979 Z" id="Path" fill="url(#linearGradient-1)"></path>
                                <path d="M14.1489143,20.4359165 C14.1489143,27.6741335 11.4558367,34.2650899 7.6248166,39.2056533 C10.0454411,23.2056533 4.78581538,16.466761 7.03971548,0.466761021 C11.5879309,5.5288076 14.1489143,12.4587235 14.1489143,20.4359165 Z" id="Path" fill="url(#linearGradient-2)"></path>
                            </g>
                            <g id="leaf" transform="translate(18.500000, 26.500000) rotate(19.000000) translate(-18.500000, -26.500000) translate(12.000000, 8.000000)">
                                <path d="M0.433420948,17.7937605 C0.433420948,11.0984098 2.92445008,5.0017751 6.10108675,0.431753945 C5.07627809,18.4692539 9.47667809,22.3902293 6.60817439,36.2652293 C2.83684782,31.5828362 0.433420948,25.172664 0.433420948,17.7937605 Z" id="Path" fill="url(#linearGradient-1)"></path>
                                <path d="M12.2623924,18.9032227 C12.2623924,25.5985735 9.92839183,31.6952082 6.60817439,36.2652293 C8.70604891,21.4652293 4.14770666,15.2317539 6.10108675,0.431753945 C10.0428735,5.11414703 12.2623924,11.5243192 12.2623924,18.9032227 Z" id="Path" fill="url(#linearGradient-2)"></path>
                            </g>
                        </g>
                        <g id="bunch" transform="translate(31.000000, 9.000000)">
                            <g id="leaf" transform="translate(22.500000, 23.346154) rotate(-12.000000) translate(-22.500000, -23.346154) translate(15.000000, 2.000000)">
                                <path d="M0.500101094,20.5312621 C0.500101094,12.8058575 3.37436548,5.77127897 7.03971548,0.498177628 C5.85724395,21.3106776 10.9346286,25.83488 7.6248166,41.8444954 C3.27328595,36.4417341 0.500101094,29.0453816 0.500101094,20.5312621 Z" id="Path" fill="url(#linearGradient-1)"></path>
                                <path d="M14.1489143,21.8114109 C14.1489143,29.5368155 11.4558367,36.571394 7.6248166,41.8444954 C10.0454411,24.7675723 4.78581538,17.5751007 7.03971548,0.498177628 C11.5879309,5.90093888 14.1489143,13.2972914 14.1489143,21.8114109 Z" id="Path" fill="url(#linearGradient-2)"></path>
                            </g>
                            <g id="leaf" transform="translate(29.000000, 21.923077) rotate(14.000000) translate(-29.000000, -21.923077) translate(22.000000, 2.000000)">
                                <path d="M0.466761021,19.1625113 C0.466761021,11.9521336 3.14940778,5.38652704 6.57040111,0.464965786 C5.46676102,19.8899658 10.2056533,24.1125547 7.1164955,39.0548624 C3.05506689,34.0122852 0.466761021,27.1090228 0.466761021,19.1625113 Z" id="Path" fill="url(#linearGradient-1)"></path>
                                <path d="M13.2056533,20.3573168 C13.2056533,27.5676945 10.6921143,34.1333011 7.1164955,39.0548624 C9.37574498,23.1164008 4.46676102,16.4034273 6.57040111,0.464965786 C10.8154022,5.50754295 13.2056533,12.4108053 13.2056533,20.3573168 Z" id="Path" fill="url(#linearGradient-2)"></path>
                            </g>
                            <g id="leaf" transform="translate(14.500000, 31.500000) rotate(-26.000000) translate(-14.500000, -31.500000) translate(8.000000, 13.000000)">
                                <path d="M0.433420948,17.7937605 C0.433420948,11.0984098 2.92445008,5.0017751 6.10108675,0.431753945 C5.07627809,18.4692539 9.47667809,22.3902293 6.60817439,36.2652293 C2.83684782,31.5828362 0.433420948,25.172664 0.433420948,17.7937605 Z" id="Path" fill="url(#linearGradient-1)"></path>
                                <path d="M12.2623924,18.9032227 C12.2623924,25.5985735 9.92839183,31.6952082 6.60817439,36.2652293 C8.70604891,21.4652293 4.14770666,15.2317539 6.10108675,0.431753945 C10.0428735,5.11414703 12.2623924,11.5243192 12.2623924,18.9032227 Z" id="Path" fill="url(#linearGradient-2)"></path>
                            </g>
                        </g>
                        <g id="bunch" transform="translate(97.000000, 9.000000)">
                            <g id="leaf" transform="translate(21.524146, 22.000843) rotate(4.000000) translate(-21.524146, -22.000843) translate(14.024146, 1.000843)">
                                <path d="M0.500101094,20.5312621 C0.500101094,12.8058575 3.37436548,5.77127897 7.03971548,0.498177628 C5.85724395,21.3106776 10.9346286,25.83488 7.6248166,41.8444954 C3.27328595,36.4417341 0.500101094,29.0453816 0.500101094,20.5312621 Z" id="Path" fill="url(#linearGradient-1)"></path>
                                <path d="M14.1489143,21.8114109 C14.1489143,29.5368155 11.4558367,36.571394 7.6248166,41.8444954 C10.0454411,24.7675723 4.78581538,17.5751007 7.03971548,0.498177628 C11.5879309,5.90093888 14.1489143,13.2972914 14.1489143,21.8114109 Z" id="Path" fill="url(#linearGradient-2)"></path>
                            </g>
                            <g id="leaf" transform="translate(29.500000, 27.653846) rotate(22.000000) translate(-29.500000, -27.653846) translate(24.000000, 12.000000)">
                                <path d="M0.366740802,15.0562589 C0.366740802,9.39096215 2.47453468,4.23227124 5.16245802,0.365330261 C4.29531223,15.6278303 8.01872761,18.9455787 5.59153218,30.6859633 C2.4004097,26.7239384 0.366740802,21.2999465 0.366740802,15.0562589 Z" id="Path" fill="url(#linearGradient-1)"></path>
                                <path d="M10.3758705,15.9950346 C10.3758705,21.6603314 8.40094693,26.8190223 5.59153218,30.6859633 C7.36665677,18.1628864 3.50959795,12.8884072 5.16245802,0.365330261 C8.49781601,4.32735518 10.3758705,9.75134704 10.3758705,15.9950346 Z" id="Path" fill="url(#linearGradient-2)"></path>
                            </g>
                            <g id="leaf" transform="translate(12.500000, 22.500000) rotate(-17.000000) translate(-12.500000, -22.500000) translate(6.000000, 4.000000)">
                                <path d="M0.433420948,17.7937605 C0.433420948,11.0984098 2.92445008,5.0017751 6.10108675,0.431753945 C5.07627809,18.4692539 9.47667809,22.3902293 6.60817439,36.2652293 C2.83684782,31.5828362 0.433420948,25.172664 0.433420948,17.7937605 Z" id="Path" fill="url(#linearGradient-1)"></path>
                                <path d="M12.2623924,18.9032227 C12.2623924,25.5985735 9.92839183,31.6952082 6.60817439,36.2652293 C8.70604891,21.4652293 4.14770666,15.2317539 6.10108675,0.431753945 C10.0428735,5.11414703 12.2623924,11.5243192 12.2623924,18.9032227 Z" id="Path" fill="url(#linearGradient-2)"></path>
                            </g>
                        </g>
                        <g id="bunch" transform="translate(63.000000, 0.000000)">
                            <g id="leaf" transform="translate(23.500000, 22.346154) rotate(-4.000000) translate(-23.500000, -22.346154) translate(16.000000, 1.000000)">
                                <path d="M0.500101094,20.5312621 C0.500101094,12.8058575 3.37436548,5.77127897 7.03971548,0.498177628 C5.85724395,21.3106776 10.9346286,25.83488 7.6248166,41.8444954 C3.27328595,36.4417341 0.500101094,29.0453816 0.500101094,20.5312621 Z" id="Path" fill="url(#linearGradient-1)"></path>
                                <path d="M14.1489143,21.8114109 C14.1489143,29.5368155 11.4558367,36.571394 7.6248166,41.8444954 C10.0454411,24.7675723 4.78581538,17.5751007 7.03971548,0.498177628 C11.5879309,5.90093888 14.1489143,13.2972914 14.1489143,21.8114109 Z" id="Path" fill="url(#linearGradient-2)"></path>
                            </g>
                            <g id="leaf" transform="translate(30.986642, 24.998831) rotate(10.000000) translate(-30.986642, -24.998831) translate(23.986642, 4.998831)">
                                <path d="M0.466761021,19.1625113 C0.466761021,11.9521336 3.14940778,5.38652704 6.57040111,0.464965786 C5.46676102,19.8899658 10.2056533,24.1125547 7.1164955,39.0548624 C3.05506689,34.0122852 0.466761021,27.1090228 0.466761021,19.1625113 Z" id="Path" fill="url(#linearGradient-3)"></path>
                                <path d="M13.2056533,20.3573168 C13.2056533,27.5676945 10.6921143,34.1333011 7.1164955,39.0548624 C9.37574498,23.1164008 4.46676102,16.4034273 6.57040111,0.464965786 C10.8154022,5.50754295 13.2056533,12.4108053 13.2056533,20.3573168 Z" id="Path" fill="url(#linearGradient-2)"></path>
                            </g>
                            <g id="leaf" transform="translate(15.500000, 32.500000) rotate(-32.000000) translate(-15.500000, -32.500000) translate(9.000000, 14.000000)">
                                <path d="M0.433420948,17.7937605 C0.433420948,11.0984098 2.92445008,5.0017751 6.10108675,0.431753945 C5.07627809,18.4692539 9.47667809,22.3902293 6.60817439,36.2652293 C2.83684782,31.5828362 0.433420948,25.172664 0.433420948,17.7937605 Z" id="Path" fill="url(#linearGradient-1)"></path>
                                <path d="M12.2623924,18.9032227 C12.2623924,25.5985735 9.92839183,31.6952082 6.60817439,36.2652293 C8.70604891,21.4652293 4.14770666,15.2317539 6.10108675,0.431753945 C10.0428735,5.11414703 12.2623924,11.5243192 12.2623924,18.9032227 Z" id="Path" fill="url(#linearGradient-2)"></path>
                            </g>
                            <g id="leaf" transform="translate(35.500000, 35.500000) rotate(42.000000) translate(-35.500000, -35.500000) translate(29.000000, 17.000000)">
                                <path d="M0.433420948,17.7937605 C0.433420948,11.0984098 2.92445008,5.0017751 6.10108675,0.431753945 C5.07627809,18.4692539 9.47667809,22.3902293 6.60817439,36.2652293 C2.83684782,31.5828362 0.433420948,25.172664 0.433420948,17.7937605 Z" id="Path" fill="url(#linearGradient-1)"></path>
                                <path d="M12.2623924,18.9032227 C12.2623924,25.5985735 9.92839183,31.6952082 6.60817439,36.2652293 C8.70604891,21.4652293 4.14770666,15.2317539 6.10108675,0.431753945 C10.0428735,5.11414703 12.2623924,11.5243192 12.2623924,18.9032227 Z" id="Path" fill="url(#linearGradient-2)"></path>
                            </g>
                        </g>
                    </g>
                    <rect id="gradient" fill="url(#linearGradient-4)" fill-rule="nonzero" x="4" y="12" width="150" height="55"></rect>
                    <path d="M4.83465499,37.6920528 L4.83465499,56.088167 C4.83465499,56.3186506 4.6478111,56.5054945 4.41732749,56.5054945 C4.18684388,56.5054945 4,56.3186506 4,56.088167 L4,37.6920528 C4,37.4615692 4.18684388,37.2747253 4.41732749,37.2747253 C4.6478111,37.2747253 4.83465499,37.4615692 4.83465499,37.6920528 Z M15.8425426,37.6937423 L7.17378271,46.2027133 C7.03687094,46.3371014 7.03482511,46.5570334 7.16921322,46.6939452 C7.17070108,46.695461 7.1722028,46.6969631 7.17371821,46.6984513 L16.7329503,56.0863664 C16.8293353,56.181024 16.8307356,56.3358947 16.736078,56.4322797 C16.6900846,56.4791124 16.6271982,56.5054945 16.5615575,56.5054945 C16.1781857,56.5054945 15.8101363,56.3549892 15.5366115,56.0863664 L6.10359227,46.8224023 C5.89827708,46.6207667 5.89529419,46.2908679 6.09692979,46.0855527 C6.09916216,46.0832796 6.10141534,46.081027 6.10368903,46.0787952 L14.6462038,37.6937423 C14.919806,37.4251833 15.2878764,37.2747253 15.6712589,37.2747253 C15.8063018,37.2747253 15.9157757,37.3841992 15.9157757,37.519242 C15.9157757,37.5848804 15.8893857,37.6477627 15.8425426,37.6937423 Z M20.033936,40.5714286 C20.2644196,40.5714286 20.4512635,40.7582725 20.4512635,40.9887561 L20.4512635,56.088167 C20.4512635,56.3186506 20.2644196,56.5054945 20.033936,56.5054945 C19.8034524,56.5054945 19.6166085,56.3186506 19.6166085,56.088167 L19.6166085,40.9887561 C19.6166085,40.7582725 19.8034524,40.5714286 20.033936,40.5714286 Z M24.5882978,44.2672393 C24.5882978,42.7728731 24.9717828,41.6944807 25.7387642,41.0320297 C26.5057455,40.3695787 27.7501151,40.0383582 29.47191,40.0383582 C30.6771665,40.0383582 31.6476182,40.3464703 32.3832942,40.9627038 C32.8303142,41.3371467 33.3120074,42.1509904 33.8283737,43.4042346 L33.8282927,43.404268 C33.9192288,43.6249741 33.8485322,43.8792477 33.6567254,44.0213417 L32.2585372,45.0571449 C31.9583574,45.2795235 31.594666,45.3995626 31.2210884,45.3995626 C31.1165328,45.3995626 31.0317738,45.3148036 31.0317738,45.210248 C31.0317738,45.1501524 31.0603063,45.0936263 31.1086559,45.057936 L33.181577,43.5277628 C32.8528707,42.4955717 32.3793841,41.7715083 31.7611032,41.3555507 C31.1428223,40.9395931 30.3797655,40.7316174 29.47191,40.7316174 C28.8458028,40.7316174 28.3175327,40.7701314 27.8870839,40.8471606 C27.4566352,40.9241898 27.0261929,41.0743944 26.5957442,41.2977791 C26.1652954,41.5211637 25.8405072,41.879344 25.6213696,42.3723308 C25.4022321,42.8653176 25.292665,43.4969474 25.292665,44.2672393 C25.292665,44.9450961 25.609627,45.5459147 26.2435606,46.0697132 C26.8774942,46.5935116 27.6483772,47.0402742 28.5562327,47.4100143 C29.4640883,47.7797544 30.3758433,48.1571917 31.2915251,48.5423376 C32.207207,48.9274836 32.9820031,49.4204629 33.6159367,50.0212906 C34.2498703,50.6221182 34.5668324,51.3153705 34.5668324,52.1010682 C34.5668324,53.6416518 34.1794343,54.7893695 33.4046266,55.5442555 C32.6298188,56.2991415 31.303274,56.6765788 29.4249522,56.6765788 C27.8909894,56.6765788 26.685751,56.3723181 25.8092009,55.7637876 C25.2695883,55.3891704 24.7144069,54.5558759 24.1436567,53.2639041 C24.0645975,53.084931 24.1455887,52.8757526 24.3245598,52.796689 C24.3263765,52.7958865 24.3281999,52.7950992 24.3300299,52.7943273 C24.5098929,52.7184588 24.7172252,52.8025223 24.7934647,52.9822283 C25.3100615,54.1999262 25.801255,54.9576484 26.2670395,55.2553975 C27.0261946,55.7406813 28.0788216,55.9833196 29.4249522,55.9833196 C30.9276096,55.9833196 32.0428464,55.6983159 32.7706961,55.1283 C33.4985458,54.558284 33.8624652,53.5492168 33.8624652,52.1010682 C33.8624652,51.4232113 33.5455032,50.8223927 32.9115696,50.2985943 C32.277636,49.7747958 31.5028399,49.3280332 30.587158,48.9582931 C29.6714761,48.5885531 28.7597211,48.2111157 27.8518656,47.8259698 C26.9440101,47.4408239 26.1731271,46.9478445 25.5391935,46.3470169 C24.9052599,45.7461892 24.5882978,45.052937 24.5882978,44.2672393 Z M37.6281784,44.2672393 C37.6281784,42.7728731 38.0117209,41.6944807 38.7788174,41.0320297 C39.5459139,40.3695787 40.7904702,40.0383582 42.5125237,40.0383582 C43.7179611,40.0383582 44.6885584,40.3464703 45.4243449,40.9627038 C45.8714081,41.3371267 46.3531459,42.1509032 46.8695583,43.4040332 L46.8696288,43.4040042 C46.9606176,43.6247983 46.8898885,43.8791842 46.69799,44.0213248 L45.2995938,45.0571267 C44.9993511,45.2795185 44.6356005,45.3995626 44.2619647,45.3995626 C44.157406,45.3995626 44.0726445,45.3148011 44.0726445,45.2102424 C44.0726445,45.1501403 44.1011824,45.0936086 44.1495397,45.0579179 L46.2227475,43.5277628 C45.8939918,42.4955717 45.4204343,41.7715083 44.8020605,41.3555507 C44.1836868,40.9395931 43.4205155,40.7316174 42.5125237,40.7316174 C41.8863224,40.7316174 41.357973,40.7701314 40.9274597,40.8471606 C40.4969463,40.9241898 40.0664394,41.0743944 39.6359261,41.2977791 C39.2054127,41.5211637 38.8805757,41.879344 38.6614053,42.3723308 C38.4422348,42.8653176 38.3326512,43.4969474 38.3326512,44.2672393 C38.3326512,44.9450961 38.6496609,45.5459147 39.2836896,46.0697132 C39.9177184,46.5935116 40.6887171,47.0402742 41.5967089,47.4100143 C42.5047007,47.7797544 43.4165926,48.1571917 44.3324119,48.5423376 C45.2482313,48.9274836 46.0231437,49.4204629 46.6571724,50.0212906 C47.2912012,50.6221182 47.6082108,51.3153705 47.6082108,52.1010682 C47.6082108,53.6416518 47.2207546,54.7893695 46.4458306,55.5442555 C45.6709065,56.2991415 44.3441625,56.6765788 42.4655588,56.6765788 C40.9313658,56.6765788 39.7259464,56.3723181 38.8492647,55.7637876 C38.3095765,55.3891741 37.7543174,54.5558925 37.1834875,53.2639426 C37.1044117,53.0849705 37.1853932,52.8757811 37.3643652,52.7967048 C37.3661939,52.7958968 37.3680295,52.7951043 37.3698716,52.7943273 C37.5497834,52.7184497 37.7571638,52.8025321 37.8334327,52.9822783 C38.3500673,54.1999522 38.8413257,54.9576536 39.3071721,55.2553975 C40.0664411,55.7406813 41.1192261,55.9833196 42.4655588,55.9833196 C43.9684418,55.9833196 45.083846,55.6983159 45.811805,55.1283 C46.5397639,54.558284 46.903738,53.5492168 46.903738,52.1010682 C46.903738,51.4232113 46.5867283,50.8223927 45.9526996,50.2985943 C45.3186708,49.7747958 44.5437584,49.3280332 43.6279391,48.9582931 C42.7121197,48.5885531 41.8002279,48.2111157 40.892236,47.8259698 C39.9842442,47.4408239 39.2132455,46.9478445 38.5792168,46.3470169 C37.945188,45.7461892 37.6281784,45.052937 37.6281784,44.2672393 Z M71.112546,37.6868132 C71.112546,37.9144031 70.928048,38.0989011 70.7004581,38.0989011 L64.9217837,38.0989011 C64.7299375,38.0989011 64.5744153,38.2544232 64.5744153,38.4462695 L64.5744153,56.088167 C64.5744153,56.3186506 64.3875714,56.5054945 64.1570878,56.5054945 C63.9266042,56.5054945 63.7397603,56.3186506 63.7397603,56.088167 L63.7397603,38.4462695 C63.7397603,38.2544232 63.5842382,38.0989011 63.3923919,38.0989011 L57.6137175,38.0989011 C57.3861276,38.0989011 57.2016296,37.9144031 57.2016296,37.6868132 C57.2016296,37.4592233 57.3861276,37.2747253 57.6137175,37.2747253 L70.7004581,37.2747253 C70.928048,37.2747253 71.112546,37.4592233 71.112546,37.6868132 Z M83.5574656,56.5054945 C83.326982,56.5054945 83.1401381,56.3186506 83.1401381,56.088167 L83.1401381,48.88583 C83.1401381,48.6939837 82.984616,48.5384615 82.7927697,48.5384615 L75.1409567,48.5384615 C74.9491104,48.5384615 74.7935882,48.6939837 74.7935882,48.88583 L74.7935882,56.088167 C74.7935882,56.3186506 74.6067444,56.5054945 74.3762608,56.5054945 C74.1457771,56.5054945 73.9589333,56.3186506 73.9589333,56.088167 L73.9589333,40.9887561 C73.9589333,40.7582725 74.1457771,40.5714286 74.3762608,40.5714286 C74.6067444,40.5714286 74.7935882,40.7582725 74.7935882,40.9887561 L74.7935882,47.3669173 C74.7935882,47.5587636 74.9491104,47.7142857 75.1409567,47.7142857 L82.7927697,47.7142857 C82.984616,47.7142857 83.1401381,47.5587636 83.1401381,47.3669173 L83.1401381,40.9887561 C83.1401381,40.7582725 83.326982,40.5714286 83.5574656,40.5714286 C83.7879492,40.5714286 83.9747931,40.7582725 83.9747931,40.9887561 L83.9747931,56.088167 C83.9747931,56.3186506 83.7879492,56.5054945 83.5574656,56.5054945 Z M99.4989047,55.1195984 C97.835575,56.2266793 96.2805628,56.7802198 94.8338682,56.7802198 C92.5153705,56.7802198 90.8553511,56.1300431 89.8537601,54.8296703 C88.8521691,53.5292975 88.3513811,51.4322489 88.3513811,48.5384615 C88.3513811,45.6446742 88.8521691,43.5476255 89.8537601,42.2472527 C90.8553511,40.9468799 92.5153705,40.2967033 94.8338682,40.2967033 C97.1506105,40.2967033 98.8795445,41.0288135 100.02067,42.493034 L100.020627,42.4930679 C100.193946,42.7154606 100.158896,43.0353805 99.9415353,43.2149703 L94.0024498,48.1220174 C93.6766465,48.3912057 93.26723,48.5384615 92.8446071,48.5384615 C92.7150612,48.5384615 92.6100434,48.4334438 92.6100434,48.3038978 C92.6100434,48.2338064 92.6413882,48.1673876 92.6954942,48.1228303 L99.2297178,42.7417582 C98.4136066,41.6611668 96.948338,41.1208791 94.8338682,41.1208791 C93.9064691,41.1208791 93.1274656,41.217032 92.4968342,41.4093407 C91.8662028,41.6016493 91.2865871,41.9587886 90.7579697,42.4807692 C90.2293522,43.0027499 89.8352135,43.7628155 89.5755418,44.760989 C89.31587,45.7591625 89.1860361,47.0183074 89.1860361,48.5384615 C89.1860361,50.0586157 89.31587,51.3177606 89.5755418,52.3159341 C89.8352135,53.3141076 90.2293522,54.0741732 90.7579697,54.5961538 C91.2865871,55.1181345 91.8662028,55.4752738 92.4968342,55.6675824 C93.1274656,55.8598911 93.9064691,55.956044 94.8338682,55.956044 C96.2606624,55.956044 97.6189629,55.4956589 98.9087698,54.5748888 C99.100163,54.4382493 99.3607606,54.452799 99.5357579,54.6098901 C99.6686325,54.7291686 99.6796543,54.933579 99.5603759,55.0664536 C99.542209,55.0866913 99.5215613,55.1045559 99.4989219,55.1196242 L99.4989047,55.1195984 Z M111.599732,42.0274725 C111.599732,40.2509069 112.054151,38.9688684 112.963002,38.1813187 C113.871853,37.393769 115.346395,37 117.386673,37 C118.814868,37 119.964825,37.3662967 120.836581,38.0989011 C121.374913,38.5513044 121.955682,39.5432392 122.578886,41.0747054 L122.578974,41.0746699 C122.668545,41.294783 122.597868,41.5476144 122.407139,41.6893717 L120.688113,42.9670168 C120.332867,43.2310491 119.90202,43.3736264 119.4594,43.3736264 C119.335179,43.3736264 119.234478,43.2729256 119.234478,43.1487049 C119.234478,43.0774299 119.268261,43.0103731 119.325539,42.967954 L121.782523,41.1483516 C121.148806,39.7564119 120.587732,38.895606 120.099302,38.5659341 C119.366657,38.0714261 118.462456,37.8241758 117.386673,37.8241758 C116.644754,37.8241758 116.018769,37.8699629 115.5087,37.9615385 C114.99863,38.053114 114.488568,38.2316837 113.978499,38.4972527 C113.468429,38.7628218 113.083564,39.1886418 112.823893,39.7747253 C112.564221,40.3608088 112.434387,41.111717 112.434387,42.0274725 C112.434387,42.8333374 112.809978,43.5476159 113.561171,44.1703297 C114.312365,44.7930434 115.225839,45.3241736 116.301622,45.7637363 C117.377405,46.2032989 118.457808,46.6520124 119.542865,47.1098901 C120.627922,47.5677679 121.546034,48.1538426 122.297227,48.8681319 C123.04842,49.5824212 123.424011,50.4065887 123.424011,51.3406593 C123.424011,53.1721703 122.964955,54.5366255 122.04683,55.4340659 C121.128705,56.3315063 119.556787,56.7802198 117.33103,56.7802198 C115.513327,56.7802198 114.085154,56.4185018 113.046467,55.6950549 C112.40692,55.2496092 111.748916,54.2586601 111.072457,52.7222076 C110.978756,52.5094019 111.075317,52.260932 111.288126,52.1672379 C111.289976,52.1664236 111.291831,52.1656227 111.293692,52.1648352 C111.506639,52.0747181 111.75232,52.1742912 111.842437,52.3872378 C111.842455,52.3872793 111.842472,52.3873208 111.84249,52.3873623 C112.454772,53.8355153 113.036943,54.7366129 113.588993,55.0906593 C114.48857,55.6675853 115.735903,55.956044 117.33103,55.956044 C119.111636,55.956044 120.43316,55.6172195 121.295641,54.9395604 C122.158122,54.2619014 122.589356,53.0622797 122.589356,51.3406593 C122.589356,50.5347945 122.213765,49.8205159 121.462572,49.1978022 C120.711379,48.5750885 119.793267,48.0439582 118.70821,47.6043956 C117.623153,47.164833 116.54275,46.7161195 115.466967,46.2582418 C114.391184,45.800364 113.47771,45.2142893 112.726516,44.5 C111.975323,43.7857107 111.599732,42.9615431 111.599732,42.0274725 Z M127.466737,56.088167 L127.466737,40.9887561 C127.466737,40.7582725 127.653581,40.5714286 127.884065,40.5714286 C128.114548,40.5714286 128.301392,40.7582725 128.301392,40.9887561 L128.301392,56.088167 C128.301392,56.3186506 128.114548,56.5054945 127.884065,56.5054945 C127.653581,56.5054945 127.466737,56.3186506 127.466737,56.088167 Z M137.333816,56.0865937 L129.570976,48.4709925 C129.365554,48.2694662 129.362395,47.9395691 129.563921,47.7341465 C129.566296,47.7317255 129.568695,47.7293277 129.571117,47.7269535 L136.443358,40.9901675 C136.717154,40.7217682 137.085277,40.5714286 137.468686,40.5714286 C137.603603,40.5714286 137.712976,40.6808007 137.712976,40.8157181 C137.712976,40.8813506 137.686566,40.9442225 137.639697,40.9901675 L130.64098,47.850936 C130.503981,47.9852349 130.501792,48.2051656 130.636091,48.3421648 C130.637674,48.3437795 130.639272,48.3453786 130.640886,48.346962 L138.530154,56.0865937 C138.626516,56.1811281 138.627998,56.3358803 138.533464,56.4322424 C138.487499,56.4790963 138.424621,56.5054945 138.358985,56.5054945 C137.975591,56.5054945 137.607499,56.355086 137.333816,56.0865937 Z M143.910758,40.5714286 L153.475352,40.5714286 C153.763121,40.5714286 153.996404,40.8047118 153.996404,41.0924812 C153.996404,41.1630806 153.982057,41.2329437 153.954234,41.2978293 L147.741646,55.7859 C147.732371,55.8075285 147.727589,55.8308162 147.727589,55.8543494 L147.727589,61.5826725 C147.727589,61.8131561 147.540745,62 147.310261,62 C147.079778,62 146.892934,61.8131561 146.892934,61.5826725 L146.892934,55.8543494 C146.892934,55.8308162 146.888151,55.8075285 146.878877,55.7859 L140.530237,40.9805504 C140.466362,40.831591 140.535337,40.6590547 140.684297,40.5951798 C140.720841,40.5795092 140.760189,40.5714286 140.799952,40.5714286 C141.070079,40.5714286 141.314289,40.732196 141.42107,40.9803209 L147.150626,54.2938953 C147.188544,54.3820056 147.290711,54.422694 147.378821,54.3847753 C147.419645,54.3672065 147.452181,54.3346562 147.469732,54.2938243 L152.805468,41.8801464 C152.881227,41.7038921 152.799759,41.499595 152.623505,41.4238361 C152.580171,41.4052102 152.533498,41.3956044 152.486331,41.3956044 L143.910758,41.3956044 C143.683168,41.3956044 143.49867,41.2111064 143.49867,40.9835165 C143.49867,40.7559266 143.683168,40.5714286 143.910758,40.5714286 Z" id="KISS-THE-SKY" fill="#E4E7D1"></path>
                </g>
            </g>
        </g>
    </g>
</svg>