<?xml version="1.0" encoding="UTF-8"?>
<svg width="456px" height="195px" viewBox="0 0 456 195" version="1.1" xmlns="http://www.w3.org/2000/svg" xmlns:xlink="http://www.w3.org/1999/xlink">
    <!-- Generator: Sketch 53 (72520) - https://sketchapp.com -->
    <title>title_landing</title>
    <desc>Created with Sketch.</desc>
    <defs>
        <linearGradient x1="50%" y1="0%" x2="50%" y2="100%" id="linearGradient-1">
            <stop stop-color="#0D720F" offset="0%"></stop>
            <stop stop-color="#08540A" offset="100%"></stop>
        </linearGradient>
        <linearGradient x1="50%" y1="0%" x2="50%" y2="100%" id="linearGradient-2">
            <stop stop-color="#118C16" offset="0%"></stop>
            <stop stop-color="#0C560E" offset="100%"></stop>
        </linearGradient>
        <linearGradient x1="50%" y1="0%" x2="50%" y2="100%" id="linearGradient-3">
            <stop stop-color="#0D720F" offset="0%"></stop>
            <stop stop-color="#08540A" offset="100%"></stop>
        </linearGradient>
        <linearGradient x1="50%" y1="0%" x2="50%" y2="100%" id="linearGradient-4">
            <stop stop-color="#118C16" offset="0%"></stop>
            <stop stop-color="#0C560E" offset="100%"></stop>
        </linearGradient>
        <linearGradient x1="50%" y1="0%" x2="50%" y2="100%" id="linearGradient-5">
            <stop stop-color="#0D720F" offset="0%"></stop>
            <stop stop-color="#08540A" offset="100%"></stop>
        </linearGradient>
        <linearGradient x1="50%" y1="0%" x2="50%" y2="100%" id="linearGradient-6">
            <stop stop-color="#118C16" offset="0%"></stop>
            <stop stop-color="#0C560E" offset="100%"></stop>
        </linearGradient>
        <linearGradient x1="50%" y1="0%" x2="50%" y2="100%" id="linearGradient-7">
            <stop stop-color="#0D720F" offset="0%"></stop>
            <stop stop-color="#08540A" offset="100%"></stop>
        </linearGradient>
        <linearGradient x1="50%" y1="0%" x2="50%" y2="100%" id="linearGradient-8">
            <stop stop-color="#118C16" offset="0%"></stop>
            <stop stop-color="#0C560E" offset="100%"></stop>
        </linearGradient>
        <linearGradient x1="50%" y1="0%" x2="50%" y2="100%" id="linearGradient-9">
            <stop stop-color="#0D720F" offset="0%"></stop>
            <stop stop-color="#08540A" offset="100%"></stop>
        </linearGradient>
        <linearGradient x1="50%" y1="0%" x2="50%" y2="100%" id="linearGradient-10">
            <stop stop-color="#118C16" offset="0%"></stop>
            <stop stop-color="#0C560E" offset="100%"></stop>
        </linearGradient>
        <linearGradient x1="50%" y1="0%" x2="50%" y2="100%" id="linearGradient-11">
            <stop stop-color="#0D720F" offset="0%"></stop>
            <stop stop-color="#08540A" offset="100%"></stop>
        </linearGradient>
        <linearGradient x1="50%" y1="0%" x2="50%" y2="100%" id="linearGradient-12">
            <stop stop-color="#118C16" offset="0%"></stop>
            <stop stop-color="#0C560E" offset="100%"></stop>
        </linearGradient>
        <linearGradient x1="50%" y1="0%" x2="50%" y2="100%" id="linearGradient-13">
            <stop stop-color="#0D720F" offset="0%"></stop>
            <stop stop-color="#064A07" offset="100%"></stop>
        </linearGradient>
        <linearGradient x1="50%" y1="0%" x2="50%" y2="100%" id="linearGradient-14">
            <stop stop-color="#118C16" offset="0%"></stop>
            <stop stop-color="#0C560E" offset="100%"></stop>
        </linearGradient>
        <linearGradient x1="50%" y1="0%" x2="50%" y2="100%" id="linearGradient-15">
            <stop stop-color="#0D720F" offset="0%"></stop>
            <stop stop-color="#08540A" offset="100%"></stop>
        </linearGradient>
        <linearGradient x1="50%" y1="0%" x2="50%" y2="100%" id="linearGradient-16">
            <stop stop-color="#0D720F" offset="0%"></stop>
            <stop stop-color="#08540A" offset="100%"></stop>
        </linearGradient>
        <linearGradient x1="50%" y1="0%" x2="50%" y2="100%" id="linearGradient-17">
            <stop stop-color="#118C16" offset="0%"></stop>
            <stop stop-color="#0C560E" offset="100%"></stop>
        </linearGradient>
        <linearGradient x1="50%" y1="15.2764682%" x2="50%" y2="60.4427083%" id="linearGradient-18">
            <stop stop-color="#FFFFFF" stop-opacity="0" offset="0%"></stop>
            <stop stop-color="#FFFFFF" offset="100%"></stop>
        </linearGradient>
        <path d="M2.836,185.714 L2.836,178.223 C2.836,178.061666 2.93866564,177.973667 3.144,177.959 L5.168,177.959 C5.85733678,177.959 6.40733128,178.145998 6.818,178.52 C7.22866872,178.894002 7.434,179.484329 7.434,180.291 L7.434,180.401 C7.434,181.207671 7.2268354,181.799831 6.8125,182.1775 C6.3981646,182.555169 5.84267015,182.744 5.146,182.744 L3.562,182.744 L3.562,185.714 C3.562,185.802 3.5253337,185.871666 3.452,185.923 C3.3786663,185.974334 3.29433381,186 3.199,186 C3.09633282,186 3.01016701,185.974334 2.9405,185.923 C2.87083298,185.871666 2.836,185.802 2.836,185.714 Z M3.562,182.117 L5.146,182.117 C5.64466916,182.117 6.02966531,181.977668 6.301,181.699 C6.57233469,181.420332 6.708,180.998669 6.708,180.434 L6.708,180.302 C6.708,179.187328 6.18733854,178.63 5.146,178.63 L3.562,178.63 L3.562,182.117 Z M9.5198749,185.714 L9.5198749,177.871 C9.5198749,177.797666 9.55287457,177.735334 9.6188749,177.684 C9.68487523,177.632666 9.76920772,177.607 9.8718749,177.607 C9.97454208,177.607 10.0607079,177.632666 10.1303749,177.684 C10.2000419,177.735334 10.2348749,177.797666 10.2348749,177.871 L10.2348749,185.714 C10.2348749,185.787334 10.2000419,185.853333 10.1303749,185.912 C10.0607079,185.970667 9.97454208,186 9.8718749,186 C9.77654109,186 9.69404191,185.970667 9.6243749,185.912 C9.55470788,185.853333 9.5198749,185.787334 9.5198749,185.714 Z M12.2877498,184.625 C12.2877498,184.060331 12.5059143,183.668001 12.9422498,183.448 C13.3785853,183.227999 14.0147456,183.118 14.8507498,183.118 L15.4117498,183.118 L15.4117498,182.854 C15.4117498,182.450665 15.3054175,182.100501 15.0927498,181.8035 C14.8800821,181.506499 14.553752,181.358 14.1137498,181.358 C13.820415,181.358 13.5545843,181.411166 13.3162498,181.5175 C13.0779153,181.623834 12.9514165,181.677 12.9367498,181.677 C12.8487494,181.677 12.7790834,181.636667 12.7277498,181.556 C12.6764162,181.475333 12.6507498,181.387334 12.6507498,181.292 C12.6507498,181.152666 12.8084149,181.024334 13.1237498,180.907 C13.4390847,180.789666 13.7764147,180.731 14.1357498,180.731 C14.8250866,180.731 15.3292482,180.930831 15.6482498,181.3305 C15.9672514,181.730169 16.1267498,182.237997 16.1267498,182.854 L16.1267498,185.714 C16.1267498,185.794667 16.0937501,185.8625 16.0277498,185.9175 C15.9617495,185.9725 15.877417,186 15.7747498,186 C15.679416,186 15.6005834,185.9725 15.5382498,185.9175 C15.4759162,185.8625 15.4447498,185.794667 15.4447498,185.714 L15.4447498,185.23 C14.953414,185.794669 14.3997529,186.077 13.7837498,186.077 C13.3437476,186.077 12.9844179,185.954168 12.7057498,185.7085 C12.4270817,185.462832 12.2877498,185.101669 12.2877498,184.625 Z M13.0027498,184.559 C13.0027498,184.867002 13.0907489,185.096166 13.2667498,185.2465 C13.4427507,185.396834 13.6737484,185.472 13.9597498,185.472 C14.3044182,185.472 14.6325816,185.343668 14.9442498,185.087 C15.255918,184.830332 15.4117498,184.573668 15.4117498,184.317 L15.4117498,183.613 L14.9497498,183.613 C14.656415,183.613 14.4089175,183.624 14.2072498,183.646 C14.0055821,183.668 13.8057508,183.708333 13.6077498,183.767 C13.4097488,183.825667 13.259417,183.920999 13.1567498,184.053 C13.0540826,184.185001 13.0027498,184.353666 13.0027498,184.559 Z M17.7836247,181.072 C17.7836247,180.984 17.8312909,180.905167 17.9266247,180.8355 C18.0219585,180.765833 18.1209575,180.731 18.2236247,180.731 C18.3629587,180.731 18.4472912,180.782333 18.4766247,180.885 L19.9836247,184.933 L21.4026247,180.885 C21.4466249,180.782333 21.5272908,180.731 21.6446247,180.731 C21.7399585,180.731 21.8371242,180.765833 21.9361247,180.8355 C22.0351252,180.905167 22.0846247,180.987666 22.0846247,181.083 C22.0846247,181.127 22.0772914,181.156333 22.0626247,181.171 L20.3576247,185.791 L20.1596247,186.33 C20.1229578,186.425334 20.0514586,186.597665 19.9451247,186.847 C19.8387908,187.096335 19.7489584,187.275999 19.6756247,187.386 L19.3896247,187.826 C19.2649574,188.009334 19.1457919,188.141333 19.0321247,188.222 C18.9184575,188.302667 18.7809588,188.377833 18.6196247,188.4475 C18.4582906,188.517167 18.2932922,188.552 18.1246247,188.552 C17.9046236,188.552 17.7946247,188.445668 17.7946247,188.233 C17.7946247,188.012999 17.8679573,187.903 18.0146247,187.903 C18.3519597,187.903 18.6654566,187.699502 18.9551247,187.2925 C19.2447928,186.885498 19.4629573,186.381336 19.6096247,185.78 L17.8166247,181.171 C17.7946246,181.134333 17.7836247,181.101333 17.7836247,181.072 Z M26.8283745,183.987 L26.8283745,182.755 C26.8283745,182.204997 27.0337058,181.730169 27.4443745,181.3305 C27.8550432,180.930831 28.3500383,180.731 28.9293745,180.731 C29.4867106,180.731 29.9688725,180.921665 30.3758745,181.303 C30.7828765,181.684335 30.9863745,182.160997 30.9863745,182.733 C30.9863745,182.938334 30.9625414,183.103333 30.9148745,183.228 C30.8672076,183.352667 30.7902084,183.440666 30.6838745,183.492 C30.5775406,183.543334 30.4803749,183.576333 30.3923745,183.591 C30.3043741,183.605667 30.1833753,183.613 30.0293745,183.613 L27.5433745,183.613 L27.5433745,184.02 C27.5433745,184.452669 27.6992063,184.799165 28.0108745,185.0595 C28.3225427,185.319835 28.7240387,185.45 29.2153745,185.45 C29.4647091,185.45 29.6828736,185.413334 29.8698745,185.34 C30.0568754,185.266666 30.199874,185.193334 30.2988745,185.12 C30.397875,185.046666 30.4767075,185.01 30.5353745,185.01 C30.6160416,185.01 30.6875409,185.0485 30.7498745,185.1255 C30.8122081,185.2025 30.8433745,185.277666 30.8433745,185.351 C30.8433745,185.505001 30.6857094,185.664499 30.3703745,185.8295 C30.0550396,185.994501 29.6627102,186.077 29.1933745,186.077 C28.4967043,186.077 27.9283767,185.884502 27.4883745,185.4995 C27.0483723,185.114498 26.8283745,184.610336 26.8283745,183.987 Z M27.5433745,183.085 L29.7433745,183.085 C29.9633756,183.085 30.1100408,183.061167 30.1833745,183.0135 C30.2567082,182.965833 30.2933745,182.865001 30.2933745,182.711 C30.2933745,182.344332 30.1632091,182.021668 29.9028745,181.743 C29.6425399,181.464332 29.3143765,181.325 28.9183745,181.325 C28.5370393,181.325 28.2125425,181.456999 27.9448745,181.721 C27.6772065,181.985001 27.5433745,182.300331 27.5433745,182.667 L27.5433745,183.085 Z M32.4782494,181.105 C32.4782494,181.017 32.5240823,180.94 32.6157494,180.874 C32.7074165,180.808 32.8045822,180.775 32.9072494,180.775 C33.0392501,180.775 33.1272492,180.829999 33.1712494,180.94 L34.6232494,184.9 L36.0752494,180.984 C36.1339164,180.844666 36.2182488,180.775 36.3282494,180.775 C36.4162498,180.775 36.5115822,180.808 36.6142494,180.874 C36.7169166,180.94 36.7682494,181.013333 36.7682494,181.094 C36.7682494,181.152667 36.7535829,181.211333 36.7242494,181.27 L34.9532494,185.912 C34.9092492,186.029334 34.7992503,186.088 34.6232494,186.088 C34.4472485,186.088 34.3372496,186.029334 34.2932494,185.912 L32.5222494,181.27 C32.4929159,181.226 32.4782494,181.171 32.4782494,181.105 Z M38.3591243,183.987 L38.3591243,182.788 C38.3591243,182.230664 38.5644556,181.748502 38.9751243,181.3415 C39.385793,180.934498 39.8734548,180.731 40.4381243,180.731 C41.0027938,180.731 41.4941222,180.932665 41.9121243,181.336 C42.3301264,181.739335 42.5391243,182.223331 42.5391243,182.788 L42.5391243,183.987 C42.5391243,184.537003 42.3282931,185.022831 41.9066243,185.4445 C41.4849555,185.866169 40.9954604,186.077 40.4381243,186.077 C39.8881215,186.077 39.4041264,185.866169 38.9861243,185.4445 C38.5681222,185.022831 38.3591243,184.537003 38.3591243,183.987 Z M39.0741243,183.987 C39.0741243,184.361002 39.2079563,184.692832 39.4756243,184.9825 C39.7432923,185.272168 40.0641224,185.417 40.4381243,185.417 C40.8194595,185.417 41.1457896,185.272168 41.4171243,184.9825 C41.688459,184.692832 41.8241243,184.361002 41.8241243,183.987 L41.8241243,182.788 C41.8241243,182.428665 41.6866257,182.106001 41.4116243,181.82 C41.1366229,181.533999 40.8121262,181.391 40.4381243,181.391 C40.0641224,181.391 39.7432923,181.533999 39.4756243,181.82 C39.2079563,182.106001 39.0741243,182.428665 39.0741243,182.788 L39.0741243,183.987 Z M44.7459992,185.714 L44.7459992,177.871 C44.7459992,177.797666 44.7789989,177.735334 44.8449992,177.684 C44.9109995,177.632666 44.995332,177.607 45.0979992,177.607 C45.2006664,177.607 45.2868322,177.632666 45.3564992,177.684 C45.4261662,177.735334 45.4609992,177.797666 45.4609992,177.871 L45.4609992,185.714 C45.4609992,185.787334 45.4261662,185.853333 45.3564992,185.912 C45.2868322,185.970667 45.2006664,186 45.0979992,186 C45.0026654,186 44.9201662,185.970667 44.8504992,185.912 C44.7808322,185.853333 44.7459992,185.787334 44.7459992,185.714 Z M47.8218741,184.009 L47.8218741,181.072 C47.8218741,181.006 47.8567071,180.943667 47.9263741,180.885 C47.9960411,180.826333 48.0822069,180.797 48.1848741,180.797 C48.2728745,180.797 48.3535404,180.826333 48.4268741,180.885 C48.5002078,180.943667 48.5368741,181.006 48.5368741,181.072 L48.5368741,184.009 C48.5368741,184.375668 48.6725394,184.701999 48.9438741,184.988 C49.2152088,185.274001 49.5378722,185.417 49.9118741,185.417 C50.285876,185.417 50.6085394,185.274001 50.8798741,184.988 C51.1512088,184.701999 51.2868741,184.375668 51.2868741,184.009 L51.2868741,181.061 C51.2868741,180.987666 51.3235404,180.925334 51.3968741,180.874 C51.4702078,180.822666 51.5545403,180.797 51.6498741,180.797 C51.7452079,180.797 51.8277071,180.822666 51.8973741,180.874 C51.9670411,180.925334 52.0018741,180.987666 52.0018741,181.061 L52.0018741,184.009 C52.0018741,184.559003 51.7947095,185.041165 51.3803741,185.4555 C50.9660387,185.869835 50.4765436,186.077 49.9118741,186.077 C49.3398712,186.077 48.8485428,185.869835 48.4378741,185.4555 C48.0272054,185.041165 47.8218741,184.559003 47.8218741,184.009 Z M54.252749,184.383 L54.252749,178.586 C54.252749,178.512666 54.2894153,178.450334 54.362749,178.399 C54.4360827,178.347666 54.5167486,178.322 54.604749,178.322 C54.7000828,178.322 54.7844153,178.347666 54.857749,178.399 C54.9310827,178.450334 54.967749,178.512666 54.967749,178.586 L54.967749,180.797 L56.386749,180.797 C56.4600827,180.797 56.5205821,180.826333 56.568249,180.885 C56.6159159,180.943667 56.639749,181.013333 56.639749,181.094 C56.639749,181.174667 56.6159159,181.244333 56.568249,181.303 C56.5205821,181.361667 56.4600827,181.391 56.386749,181.391 L54.967749,181.391 L54.967749,184.383 C54.967749,184.742335 55.0429149,184.993499 55.193249,185.1365 C55.3435831,185.279501 55.6094138,185.351 55.990749,185.351 L56.298749,185.351 C56.3940828,185.351 56.4729154,185.382166 56.535249,185.4445 C56.5975826,185.506834 56.628749,185.582 56.628749,185.67 C56.628749,185.758 56.5975826,185.835 56.535249,185.901 C56.4729154,185.967 56.3940828,186 56.298749,186 L55.990749,186 C54.8320765,186 54.252749,185.461005 54.252749,184.383 Z M58.4836239,179.125 C58.3882901,179.029666 58.3406239,178.919667 58.3406239,178.795 C58.3406239,178.670333 58.3882901,178.564 58.4836239,178.476 C58.5789577,178.388 58.6962899,178.344 58.8356239,178.344 C58.9676246,178.344 59.0794568,178.388 59.1711239,178.476 C59.262791,178.564 59.3086239,178.670333 59.3086239,178.795 C59.3086239,178.919667 59.262791,179.027833 59.1711239,179.1195 C59.0794568,179.211167 58.9676246,179.257 58.8356239,179.257 C58.6962899,179.257 58.5789577,179.213 58.4836239,179.125 Z M58.4836239,185.714 L58.4836239,181.061 C58.4836239,180.987666 58.5166236,180.925334 58.5826239,180.874 C58.6486242,180.822666 58.7329567,180.797 58.8356239,180.797 C58.9382911,180.797 59.0244569,180.822666 59.0941239,180.874 C59.1637909,180.925334 59.1986239,180.987666 59.1986239,181.061 L59.1986239,185.714 C59.1986239,185.787334 59.1619576,185.853333 59.0886239,185.912 C59.0152902,185.970667 58.9309577,186 58.8356239,186 C58.7402901,186 58.6577909,185.970667 58.5881239,185.912 C58.5184569,185.853333 58.4836239,185.787334 58.4836239,185.714 Z M61.3174988,183.987 L61.3174988,182.788 C61.3174988,182.230664 61.5228301,181.748502 61.9334988,181.3415 C62.3441675,180.934498 62.8318293,180.731 63.3964988,180.731 C63.9611683,180.731 64.4524967,180.932665 64.8704988,181.336 C65.2885009,181.739335 65.4974988,182.223331 65.4974988,182.788 L65.4974988,183.987 C65.4974988,184.537003 65.2866676,185.022831 64.8649988,185.4445 C64.44333,185.866169 63.9538349,186.077 63.3964988,186.077 C62.846496,186.077 62.3625009,185.866169 61.9444988,185.4445 C61.5264967,185.022831 61.3174988,184.537003 61.3174988,183.987 Z M62.0324988,183.987 C62.0324988,184.361002 62.1663308,184.692832 62.4339988,184.9825 C62.7016668,185.272168 63.0224969,185.417 63.3964988,185.417 C63.777834,185.417 64.1041641,185.272168 64.3754988,184.9825 C64.6468335,184.692832 64.7824988,184.361002 64.7824988,183.987 L64.7824988,182.788 C64.7824988,182.428665 64.6450002,182.106001 64.3699988,181.82 C64.0949974,181.533999 63.7705007,181.391 63.3964988,181.391 C63.0224969,181.391 62.7016668,181.533999 62.4339988,181.82 C62.1663308,182.106001 62.0324988,182.428665 62.0324988,182.788 L62.0324988,183.987 Z M67.6163737,185.714 L67.6163737,181.061 C67.6163737,180.980333 67.6493734,180.916167 67.7153737,180.8685 C67.781374,180.820833 67.8657065,180.797 67.9683737,180.797 C68.0563741,180.797 68.1333734,180.822666 68.1993737,180.874 C68.265374,180.925334 68.2983737,180.987666 68.2983737,181.061 L68.2983737,181.567 C68.423041,181.332332 68.6137057,181.134334 68.8703737,180.973 C69.1270416,180.811666 69.4277053,180.731 69.7723737,180.731 C70.3003763,180.731 70.7587051,180.932665 71.1473737,181.336 C71.5360423,181.739335 71.7303737,182.223331 71.7303737,182.788 L71.7303737,185.714 C71.7303737,185.802 71.6937074,185.871666 71.6203737,185.923 C71.54704,185.974334 71.4627075,186 71.3673737,186 C71.2793733,186 71.1987074,185.974334 71.1253737,185.923 C71.05204,185.871666 71.0153737,185.802 71.0153737,185.714 L71.0153737,182.788 C71.0153737,182.428665 70.8797084,182.106001 70.6083737,181.82 C70.337039,181.533999 70.0143756,181.391 69.6403737,181.391 C69.2957053,181.391 68.991375,181.519332 68.7273737,181.776 C68.4633724,182.032668 68.3313737,182.369998 68.3313737,182.788 L68.3313737,185.714 C68.3313737,185.787334 68.2947074,185.853333 68.2213737,185.912 C68.14804,185.970667 68.0637075,186 67.9683737,186 C67.8657065,186 67.781374,185.970667 67.7153737,185.912 C67.6493734,185.853333 67.6163737,185.787334 67.6163737,185.714 Z M73.7612486,185.56 C73.7612486,185.413333 73.8089148,185.2905 73.9042486,185.1915 C73.9995824,185.0925 74.1205812,185.043 74.2672486,185.043 C74.3992493,185.043 74.5147481,185.094333 74.6137486,185.197 C74.7127491,185.299667 74.7622486,185.420666 74.7622486,185.56 C74.7622486,185.692001 74.7127491,185.809333 74.6137486,185.912 C74.5147481,186.014667 74.3992493,186.066 74.2672486,186.066 C74.1205812,186.066 73.9995824,186.0165 73.9042486,185.9175 C73.8089148,185.8185 73.7612486,185.699334 73.7612486,185.56 Z" id="path-19"></path>
    </defs>
    <g id="title_landing" stroke="none" stroke-width="1" fill="none" fill-rule="evenodd">
        <g id="leaves" transform="translate(-9.000000, -3.000000)" fill-rule="nonzero">
            <g id="bunch-(rear)" opacity="0.878641183" transform="translate(366.000000, 72.000000)">
                <g id="leaf" transform="translate(46.500000, 58.500000) rotate(-32.000000) translate(-46.500000, -58.500000) translate(27.000000, 3.000000)">
                    <path d="M1.30026284,53.3812816 C1.30026284,33.2952294 8.77335025,15.0053253 18.3032602,1.29526183 C15.2288343,55.4077618 28.4300343,67.170688 19.8245232,108.795688 C8.51054347,94.7485087 1.30026284,75.5179921 1.30026284,53.3812816 Z" id="Path" fill="url(#linearGradient-1)"></path>
                    <path d="M36.7871771,56.7096682 C36.7871771,76.7957204 29.7851755,95.0856245 19.8245232,108.795688 C26.1181467,64.395688 12.44312,45.6952618 18.3032602,1.29526183 C30.1286204,15.3424411 36.7871771,34.5729577 36.7871771,56.7096682 Z" id="Path" fill="url(#linearGradient-2)"></path>
                </g>
                <g id="leaf" transform="translate(58.500000, 64.500000) rotate(22.000000) translate(-58.500000, -64.500000) translate(39.000000, 9.000000)">
                    <path d="M1.30026284,53.3812816 C1.30026284,33.2952294 8.77335025,15.0053253 18.3032602,1.29526183 C15.2288343,55.4077618 28.4300343,67.170688 19.8245232,108.795688 C8.51054347,94.7485087 1.30026284,75.5179921 1.30026284,53.3812816 Z" id="Path" fill="url(#linearGradient-1)"></path>
                    <path d="M36.7871771,56.7096682 C36.7871771,76.7957204 29.7851755,95.0856245 19.8245232,108.795688 C26.1181467,64.395688 12.44312,45.6952618 18.3032602,1.29526183 C30.1286204,15.3424411 36.7871771,34.5729577 36.7871771,56.7096682 Z" id="Path" fill="url(#linearGradient-2)"></path>
                </g>
            </g>
            <g id="bunch-(rear)" opacity="0.631812686" transform="translate(270.000000, 81.000000)">
                <g id="leaf" transform="translate(37.500000, 61.500000) rotate(-18.000000) translate(-37.500000, -61.500000) translate(18.000000, 6.000000)">
                    <path d="M1.30026284,53.3812816 C1.30026284,33.2952294 8.77335025,15.0053253 18.3032602,1.29526183 C15.2288343,55.4077618 28.4300343,67.170688 19.8245232,108.795688 C8.51054347,94.7485087 1.30026284,75.5179921 1.30026284,53.3812816 Z" id="Path" fill="url(#linearGradient-1)"></path>
                    <path d="M36.7871771,56.7096682 C36.7871771,76.7957204 29.7851755,95.0856245 19.8245232,108.795688 C26.1181467,64.395688 12.44312,45.6952618 18.3032602,1.29526183 C30.1286204,15.3424411 36.7871771,34.5729577 36.7871771,56.7096682 Z" id="Path" fill="url(#linearGradient-2)"></path>
                </g>
                <g id="leaf" transform="translate(49.500000, 67.500000) rotate(22.000000) translate(-49.500000, -67.500000) translate(30.000000, 12.000000)">
                    <path d="M1.30026284,53.3812816 C1.30026284,33.2952294 8.77335025,15.0053253 18.3032602,1.29526183 C15.2288343,55.4077618 28.4300343,67.170688 19.8245232,108.795688 C8.51054347,94.7485087 1.30026284,75.5179921 1.30026284,53.3812816 Z" id="Path" fill="url(#linearGradient-1)"></path>
                    <path d="M36.7871771,56.7096682 C36.7871771,76.7957204 29.7851755,95.0856245 19.8245232,108.795688 C26.1181467,64.395688 12.44312,45.6952618 18.3032602,1.29526183 C30.1286204,15.3424411 36.7871771,34.5729577 36.7871771,56.7096682 Z" id="Path" fill="url(#linearGradient-2)"></path>
                </g>
            </g>
            <g id="bunch-(rear)" opacity="0.631812686" transform="translate(180.000000, 75.000000)">
                <g id="leaf" transform="translate(34.500000, 61.500000) rotate(-18.000000) translate(-34.500000, -61.500000) translate(18.000000, 6.000000)">
                    <path d="M1.10022241,53.3812816 C1.10022241,33.2952294 7.42360405,15.0053253 15.487374,1.29526183 C12.8859367,55.4077618 24.0561828,67.170688 16.7745965,108.795688 C7.20122909,94.7485087 1.10022241,75.5179921 1.10022241,53.3812816 Z" id="Path" fill="url(#linearGradient-3)"></path>
                    <path d="M31.1276114,56.7096682 C31.1276114,76.7957204 25.2028408,95.0856245 16.7745965,108.795688 C22.0999703,64.395688 10.5287938,45.6952618 15.487374,1.29526183 C25.493448,15.3424411 31.1276114,34.5729577 31.1276114,56.7096682 Z" id="Path" fill="url(#linearGradient-4)"></path>
                </g>
                <g id="leaf" transform="translate(40.500000, 61.500000) rotate(14.000000) translate(-40.500000, -61.500000) translate(21.000000, 6.000000)">
                    <path d="M1.30026284,53.3812816 C1.30026284,33.2952294 8.77335025,15.0053253 18.3032602,1.29526183 C15.2288343,55.4077618 28.4300343,67.170688 19.8245232,108.795688 C8.51054347,94.7485087 1.30026284,75.5179921 1.30026284,53.3812816 Z" id="Path" fill="url(#linearGradient-1)"></path>
                    <path d="M36.7871771,56.7096682 C36.7871771,76.7957204 29.7851755,95.0856245 19.8245232,108.795688 C26.1181467,64.395688 12.44312,45.6952618 18.3032602,1.29526183 C30.1286204,15.3424411 36.7871771,34.5729577 36.7871771,56.7096682 Z" id="Path" fill="url(#linearGradient-2)"></path>
                </g>
            </g>
            <g id="bunch-(rear)" opacity="0.469005766" transform="translate(54.000000, 87.000000)">
                <g id="leaf" transform="translate(36.000000, 61.500000) rotate(-18.000000) translate(-36.000000, -61.500000) translate(18.000000, 6.000000)">
                    <path d="M1.20024263,53.3812816 C1.20024263,33.2952294 8.09847715,15.0053253 16.8953171,1.29526183 C14.0573855,55.4077618 26.2431086,67.170688 18.2995598,108.795688 C7.85588628,94.7485087 1.20024263,75.5179921 1.20024263,53.3812816 Z" id="Path" fill="url(#linearGradient-5)"></path>
                    <path d="M33.9573943,56.7096682 C33.9573943,76.7957204 27.4940081,95.0856245 18.2995598,108.795688 C24.1090585,64.395688 11.4859569,45.6952618 16.8953171,1.29526183 C27.8110342,15.3424411 33.9573943,34.5729577 33.9573943,56.7096682 Z" id="Path" fill="url(#linearGradient-6)"></path>
                </g>
                <g id="leaf" transform="translate(42.000000, 61.500000) rotate(14.000000) translate(-42.000000, -61.500000) translate(21.000000, 6.000000)">
                    <path d="M1.40028306,53.3812816 C1.40028306,33.2952294 9.44822334,15.0053253 19.7112033,1.29526183 C16.4002831,55.4077618 30.61696,67.170688 21.3494865,108.795688 C9.16520066,94.7485087 1.40028306,75.5179921 1.40028306,53.3812816 Z" id="Path" fill="url(#linearGradient-7)"></path>
                    <path d="M39.61696,56.7096682 C39.61696,76.7957204 32.0763428,95.0856245 21.3494865,108.795688 C28.127235,64.395688 13.4002831,45.6952618 19.7112033,1.29526183 C32.4462066,15.3424411 39.61696,34.5729577 39.61696,56.7096682 Z" id="Path" fill="url(#linearGradient-8)"></path>
                </g>
            </g>
            <g id="bunch" transform="translate(291.000000, 27.000000)">
                <g id="leaf" transform="translate(64.572439, 66.002530) rotate(4.000000) translate(-64.572439, -66.002530) translate(42.072439, 3.002530)">
                    <path d="M1.50030328,61.5937864 C1.50030328,38.4175724 10.1230964,17.3138369 21.1191464,1.49453289 C17.5717319,63.9320329 32.8038857,77.50464 22.8744498,125.533486 C9.81985785,109.325202 1.50030328,87.1361448 1.50030328,61.5937864 Z" id="Path" fill="url(#linearGradient-9)"></path>
                    <path d="M42.4467428,65.4342326 C42.4467428,88.6104466 34.3675102,109.714182 22.8744498,125.533486 C30.1363232,74.3027169 14.3574461,52.7253021 21.1191464,1.49453289 C34.7637928,17.7028166 42.4467428,39.8918743 42.4467428,65.4342326 Z" id="Path" fill="url(#linearGradient-10)"></path>
                </g>
                <g id="leaf" transform="translate(88.500000, 82.961538) rotate(22.000000) translate(-88.500000, -82.961538) translate(72.000000, 36.000000)">
                    <path d="M1.10022241,45.1687767 C1.10022241,28.1728864 7.42360405,12.6968137 15.487374,1.09599078 C12.8859367,46.8834908 24.0561828,56.836736 16.7745965,92.0578898 C7.20122909,80.1718151 1.10022241,63.8998395 1.10022241,45.1687767 Z" id="Path" fill="url(#linearGradient-11)"></path>
                    <path d="M31.1276114,47.9851039 C31.1276114,64.9809942 25.2028408,80.4570669 16.7745965,92.0578898 C22.0999703,54.4886591 10.5287938,38.6652216 15.487374,1.09599078 C25.493448,12.9820655 31.1276114,29.2540411 31.1276114,47.9851039 Z" id="Path" fill="url(#linearGradient-12)"></path>
                </g>
                <g id="leaf" transform="translate(37.500000, 67.500000) rotate(-17.000000) translate(-37.500000, -67.500000) translate(18.000000, 12.000000)">
                    <path d="M1.30026284,53.3812816 C1.30026284,33.2952294 8.77335025,15.0053253 18.3032602,1.29526183 C15.2288343,55.4077618 28.4300343,67.170688 19.8245232,108.795688 C8.51054347,94.7485087 1.30026284,75.5179921 1.30026284,53.3812816 Z" id="Path" fill="url(#linearGradient-1)"></path>
                    <path d="M36.7871771,56.7096682 C36.7871771,76.7957204 29.7851755,95.0856245 19.8245232,108.795688 C26.1181467,64.395688 12.44312,45.6952618 18.3032602,1.29526183 C30.1286204,15.3424411 36.7871771,34.5729577 36.7871771,56.7096682 Z" id="Path" fill="url(#linearGradient-2)"></path>
                </g>
            </g>
            <g id="bunch" transform="translate(189.000000, 0.000000)">
                <g id="leaf" transform="translate(70.500000, 67.038462) rotate(-4.000000) translate(-70.500000, -67.038462) translate(48.000000, 3.000000)">
                    <path d="M1.50030328,61.5937864 C1.50030328,38.4175724 10.1230964,17.3138369 21.1191464,1.49453289 C17.5717319,63.9320329 32.8038857,77.50464 22.8744498,125.533486 C9.81985785,109.325202 1.50030328,87.1361448 1.50030328,61.5937864 Z" id="Path" fill="url(#linearGradient-9)"></path>
                    <path d="M42.4467428,65.4342326 C42.4467428,88.6104466 34.3675102,109.714182 22.8744498,125.533486 C30.1363232,74.3027169 14.3574461,52.7253021 21.1191464,1.49453289 C34.7637928,17.7028166 42.4467428,39.8918743 42.4467428,65.4342326 Z" id="Path" fill="url(#linearGradient-10)"></path>
                </g>
                <g id="leaf" transform="translate(92.959927, 74.996494) rotate(10.000000) translate(-92.959927, -74.996494) translate(71.959927, 14.996494)">
                    <path d="M1.40028306,57.487534 C1.40028306,35.8564009 9.44822334,16.1595811 19.7112033,1.39489736 C16.4002831,59.6698974 30.61696,72.337664 21.3494865,117.164587 C9.16520066,102.036856 1.40028306,81.3270684 1.40028306,57.487534 Z" id="Path" fill="url(#linearGradient-13)"></path>
                    <path d="M39.61696,61.0719504 C39.61696,82.7030835 32.0763428,102.399903 21.3494865,117.164587 C28.127235,69.3492024 13.4002831,49.210282 19.7112033,1.39489736 C32.4462066,16.5226289 39.61696,37.232416 39.61696,61.0719504 Z" id="Path" fill="url(#linearGradient-14)"></path>
                </g>
                <g id="leaf" transform="translate(46.500000, 97.500000) rotate(-32.000000) translate(-46.500000, -97.500000) translate(27.000000, 42.000000)">
                    <path d="M1.30026284,53.3812816 C1.30026284,33.2952294 8.77335025,15.0053253 18.3032602,1.29526183 C15.2288343,55.4077618 28.4300343,67.170688 19.8245232,108.795688 C8.51054347,94.7485087 1.30026284,75.5179921 1.30026284,53.3812816 Z" id="Path" fill="url(#linearGradient-1)"></path>
                    <path d="M36.7871771,56.7096682 C36.7871771,76.7957204 29.7851755,95.0856245 19.8245232,108.795688 C26.1181467,64.395688 12.44312,45.6952618 18.3032602,1.29526183 C30.1286204,15.3424411 36.7871771,34.5729577 36.7871771,56.7096682 Z" id="Path" fill="url(#linearGradient-2)"></path>
                </g>
                <g id="leaf" transform="translate(106.500000, 106.500000) rotate(42.000000) translate(-106.500000, -106.500000) translate(87.000000, 51.000000)">
                    <path d="M1.30026284,53.3812816 C1.30026284,33.2952294 8.77335025,15.0053253 18.3032602,1.29526183 C15.2288343,55.4077618 28.4300343,67.170688 19.8245232,108.795688 C8.51054347,94.7485087 1.30026284,75.5179921 1.30026284,53.3812816 Z" id="Path" fill="url(#linearGradient-1)"></path>
                    <path d="M36.7871771,56.7096682 C36.7871771,76.7957204 29.7851755,95.0856245 19.8245232,108.795688 C26.1181467,64.395688 12.44312,45.6952618 18.3032602,1.29526183 C30.1286204,15.3424411 36.7871771,34.5729577 36.7871771,56.7096682 Z" id="Path" fill="url(#linearGradient-2)"></path>
                </g>
            </g>
            <g id="bunch" transform="translate(93.000000, 27.000000)">
                <g id="leaf" transform="translate(67.500000, 70.038462) rotate(-12.000000) translate(-67.500000, -70.038462) translate(45.000000, 6.000000)">
                    <path d="M1.50030328,61.5937864 C1.50030328,38.4175724 10.1230964,17.3138369 21.1191464,1.49453289 C17.5717319,63.9320329 32.8038857,77.50464 22.8744498,125.533486 C9.81985785,109.325202 1.50030328,87.1361448 1.50030328,61.5937864 Z" id="Path" fill="url(#linearGradient-9)"></path>
                    <path d="M42.4467428,65.4342326 C42.4467428,88.6104466 34.3675102,109.714182 22.8744498,125.533486 C30.1363232,74.3027169 14.3574461,52.7253021 21.1191464,1.49453289 C34.7637928,17.7028166 42.4467428,39.8918743 42.4467428,65.4342326 Z" id="Path" fill="url(#linearGradient-10)"></path>
                </g>
                <g id="leaf" transform="translate(87.000000, 65.769231) rotate(14.000000) translate(-87.000000, -65.769231) translate(66.000000, 6.000000)">
                    <path d="M1.40028306,57.487534 C1.40028306,35.8564009 9.44822334,16.1595811 19.7112033,1.39489736 C16.4002831,59.6698974 30.61696,72.337664 21.3494865,117.164587 C9.16520066,102.036856 1.40028306,81.3270684 1.40028306,57.487534 Z" id="Path" fill="url(#linearGradient-15)"></path>
                    <path d="M39.61696,61.0719504 C39.61696,82.7030835 32.0763428,102.399903 21.3494865,117.164587 C28.127235,69.3492024 13.4002831,49.210282 19.7112033,1.39489736 C32.4462066,16.5226289 39.61696,37.232416 39.61696,61.0719504 Z" id="Path" fill="url(#linearGradient-14)"></path>
                </g>
                <g id="leaf" transform="translate(43.500000, 94.500000) rotate(-26.000000) translate(-43.500000, -94.500000) translate(24.000000, 39.000000)">
                    <path d="M1.30026284,53.3812816 C1.30026284,33.2952294 8.77335025,15.0053253 18.3032602,1.29526183 C15.2288343,55.4077618 28.4300343,67.170688 19.8245232,108.795688 C8.51054347,94.7485087 1.30026284,75.5179921 1.30026284,53.3812816 Z" id="Path" fill="url(#linearGradient-1)"></path>
                    <path d="M36.7871771,56.7096682 C36.7871771,76.7957204 29.7851755,95.0856245 19.8245232,108.795688 C26.1181467,64.395688 12.44312,45.6952618 18.3032602,1.29526183 C30.1286204,15.3424411 36.7871771,34.5729577 36.7871771,56.7096682 Z" id="Path" fill="url(#linearGradient-2)"></path>
                </g>
            </g>
            <g id="bunch" transform="translate(0.000000, 30.000000)">
                <g id="leaf" transform="translate(34.656668, 64.866411) rotate(-11.000000) translate(-34.656668, -64.866411) translate(12.156668, 4.866411)">
                    <path d="M1.50030328,57.7094936 C1.50030328,35.9948426 10.1230964,16.2219733 21.1191464,1.40028306 C17.5717319,59.9002831 32.8038857,72.61696 22.8744498,117.61696 C9.81985785,102.43082 1.50030328,81.6410726 1.50030328,57.7094936 Z" id="Path" fill="url(#linearGradient-16)"></path>
                    <path d="M42.4467428,61.3077495 C42.4467428,83.0224004 34.3675102,102.79527 22.8744498,117.61696 C30.1363232,69.61696 14.3574461,49.4002831 21.1191464,1.40028306 C34.7637928,16.5864228 42.4467428,37.3761705 42.4467428,61.3077495 Z" id="Path" fill="url(#linearGradient-17)"></path>
                </g>
                <g id="leaf" transform="translate(55.500000, 79.500000) rotate(19.000000) translate(-55.500000, -79.500000) translate(36.000000, 24.000000)">
                    <path d="M1.30026284,53.3812816 C1.30026284,33.2952294 8.77335025,15.0053253 18.3032602,1.29526183 C15.2288343,55.4077618 28.4300343,67.170688 19.8245232,108.795688 C8.51054347,94.7485087 1.30026284,75.5179921 1.30026284,53.3812816 Z" id="Path" fill="url(#linearGradient-1)"></path>
                    <path d="M36.7871771,56.7096682 C36.7871771,76.7957204 29.7851755,95.0856245 19.8245232,108.795688 C26.1181467,64.395688 12.44312,45.6952618 18.3032602,1.29526183 C30.1286204,15.3424411 36.7871771,34.5729577 36.7871771,56.7096682 Z" id="Path" fill="url(#linearGradient-2)"></path>
                </g>
            </g>
        </g>
        <rect id="gradient" fill="url(#linearGradient-18)" fill-rule="nonzero" x="3" y="33" width="450" height="165"></rect>
        <path d="M5.50396496,110.076158 L5.50396496,165.264501 C5.50396496,165.955952 4.94343331,166.516484 4.25198248,166.516484 C3.56053165,166.516484 3,165.955952 3,165.264501 L3,110.076158 C3,109.384707 3.56053165,108.824176 4.25198248,108.824176 C4.94343331,108.824176 5.50396496,109.384707 5.50396496,110.076158 Z M38.5276279,110.081227 L12.5213481,135.60814 C12.1106128,136.011304 12.1044753,136.6711 12.5076397,137.081836 C12.5121032,137.086383 12.5166084,137.090889 12.5211546,137.095354 L41.198851,165.259099 C41.488006,165.543072 41.4922069,166.007684 41.2082341,166.296839 C41.0702538,166.437337 40.8815947,166.516484 40.6846726,166.516484 C39.5345571,166.516484 38.4304089,166.064968 37.6098346,165.259099 L9.31077681,137.467207 C8.69483124,136.8623 8.68588257,135.872604 9.29078938,135.256658 C9.29748649,135.249839 9.30424601,135.243081 9.31106708,135.236386 L34.9386114,110.081227 C35.7594181,109.27555 36.8636293,108.824176 38.0137767,108.824176 C38.4189053,108.824176 38.747327,109.152597 38.747327,109.557726 C38.747327,109.754641 38.6681571,109.943288 38.5276279,110.081227 Z M51.101808,118.714286 C51.7932588,118.714286 52.3537905,119.274817 52.3537905,119.966268 L52.3537905,165.264501 C52.3537905,165.955952 51.7932588,166.516484 51.101808,166.516484 C50.4103572,166.516484 49.8498255,165.955952 49.8498255,165.264501 L49.8498255,119.966268 C49.8498255,119.274817 50.4103572,118.714286 51.101808,118.714286 Z M64.7648935,129.801718 C64.7648935,125.318619 65.9153483,122.083442 68.2162925,120.096089 C70.5172366,118.108736 74.2503452,117.115075 79.41573,117.115075 C83.0314995,117.115075 85.9428545,118.039411 88.1498826,119.888111 C89.4909158,121.011418 90.9359642,123.452873 92.4850278,127.212477 L92.4849988,127.212489 C92.7578512,127.874707 92.5457306,128.637644 91.9702229,129.06399 L87.7756116,132.171435 C86.8750723,132.838571 85.7839979,133.198688 84.6632653,133.198688 C84.3495985,133.198688 84.0953214,132.944411 84.0953214,132.630744 C84.0953214,132.450457 84.180919,132.280879 84.3259677,132.173808 L90.5447309,127.583288 C89.558612,124.486715 88.1381524,122.314525 86.2833097,121.066652 C84.4284669,119.818779 82.1392966,119.194852 79.41573,119.194852 C77.5374083,119.194852 75.952598,119.310394 74.6612518,119.541482 C73.3699056,119.772569 72.0785788,120.223183 70.7872325,120.893337 C69.4958863,121.563491 68.5215215,122.638032 67.8641089,124.116992 C67.2066963,125.595953 66.8779949,127.490842 66.8779949,129.801718 C66.8779949,131.835288 67.828881,133.637744 69.7306818,135.20914 C71.6324826,136.780535 73.9451316,138.120823 76.6686982,139.230043 C79.3922648,140.339263 82.1275298,141.471575 84.8745754,142.627013 C87.621621,143.782451 89.9460093,145.261389 91.8478101,147.063872 C93.7496109,148.866355 94.7004971,150.946111 94.7004971,153.303204 C94.7004971,157.924956 93.5383029,161.368108 91.2138797,163.632766 C88.8894565,165.897424 84.9098219,167.029736 79.2748566,167.029736 C74.6729683,167.029736 71.0572531,166.116954 68.4276026,164.291363 C66.8087699,163.167515 65.143231,160.667643 63.4309857,156.791748 L63.4309634,156.791758 C63.193764,156.254825 63.4367457,155.627267 63.9736782,155.390068 C63.9791287,155.38766 63.9845994,155.385298 63.9900896,155.382982 C64.5296607,155.155384 65.1516368,155.407566 65.3803476,155.946667 C66.9301759,159.599765 68.403761,161.872943 69.8011185,162.766192 C72.0785837,164.222044 75.2364648,164.949959 79.2748566,164.949959 C83.7828289,164.949959 87.1285393,164.094948 89.3120884,162.3849 C91.4956375,160.674852 92.5873956,157.64765 92.5873956,153.303204 C92.5873956,151.269634 91.6365095,149.467178 89.7347087,147.895783 C87.8329079,146.324387 85.5085196,144.9841 82.761474,143.874879 C80.0144284,142.765659 77.2791633,141.633347 74.5555967,140.477909 C71.8320302,139.322472 69.5193812,137.843533 67.6175804,136.041051 C65.7157796,134.238568 64.7648935,132.158811 64.7648935,129.801718 Z M103.884535,129.801718 C103.884535,125.318619 105.035163,122.083442 107.336452,120.096089 C109.637742,118.108736 113.371411,117.115075 118.537571,117.115075 C122.153883,117.115075 125.065675,118.039411 127.273035,119.888111 C128.614251,121.011403 130.059496,123.452808 131.608768,127.212326 C131.881688,127.87461 131.669532,128.637652 131.093923,129.064009 L126.898781,132.17138 C125.998053,132.838555 124.906802,133.198688 123.785894,133.198688 C123.472218,133.198688 123.217933,132.944403 123.217933,132.630727 C123.217933,132.450421 123.303547,132.280826 123.448619,132.173754 L129.668243,127.583288 C128.681976,124.486715 127.261303,122.314525 125.406182,121.066652 C123.55106,119.818779 121.261546,119.194852 118.537571,119.194852 C116.658967,119.194852 115.073919,119.310394 113.782379,119.541482 C112.490839,119.772569 111.199318,120.223183 109.907778,120.893337 C108.616238,121.563491 107.641727,122.638032 106.984216,124.116992 C106.326704,125.595953 105.997954,127.490842 105.997954,129.801718 C105.997954,131.835288 106.948983,133.637744 108.851069,135.20914 C110.753155,136.780535 113.066151,138.120823 115.790127,139.230043 C118.514102,140.339263 121.249778,141.471575 123.997236,142.627013 C126.744694,143.782451 129.069431,145.261389 130.971517,147.063872 C132.873604,148.866355 133.824633,150.946111 133.824633,153.303204 C133.824633,157.924956 132.662264,161.368108 130.337492,163.632766 C128.01272,165.897424 124.032488,167.029736 118.396676,167.029736 C113.794097,167.029736 110.177839,166.116954 107.547794,164.291363 C105.928734,163.167526 104.262963,160.667693 102.550478,156.791863 L102.550444,156.791878 C102.313207,156.254943 102.556159,155.627353 103.093094,155.390115 C103.098581,155.387691 103.104088,155.385313 103.109615,155.382982 C103.649296,155.155372 104.271375,155.407595 104.500158,155.94678 C106.050176,159.599816 107.523965,161.872953 108.921516,162.766192 C111.199323,164.222044 114.357678,164.949959 118.396676,164.949959 C122.905325,164.949959 126.251538,164.094948 128.435415,162.3849 C130.619292,160.674852 131.711214,157.64765 131.711214,153.303204 C131.711214,151.269634 130.760185,149.467178 128.858099,147.895783 C126.956012,146.324387 124.631275,144.9841 121.883817,143.874879 C119.136359,142.765659 116.400684,141.633347 113.676708,140.477909 C110.952733,139.322472 108.639737,137.843533 106.73765,136.041051 C104.835564,134.238568 103.884535,132.158811 103.884535,129.801718 Z M204.337638,110.06044 C204.337638,110.743209 203.784144,111.296703 203.101374,111.296703 L185.765351,111.296703 C185.189812,111.296703 184.723246,111.76327 184.723246,112.338809 L184.723246,165.264501 C184.723246,165.955952 184.162714,166.516484 183.471263,166.516484 C182.779813,166.516484 182.219281,165.955952 182.219281,165.264501 L182.219281,112.338809 C182.219281,111.76327 181.752715,111.296703 181.177176,111.296703 L163.841153,111.296703 C163.158383,111.296703 162.604889,110.743209 162.604889,110.06044 C162.604889,109.37767 163.158383,108.824176 163.841153,108.824176 L203.101374,108.824176 C203.784144,108.824176 204.337638,109.37767 204.337638,110.06044 Z M241.672397,166.516484 C240.980946,166.516484 240.420414,165.955952 240.420414,165.264501 L240.420414,143.65749 C240.420414,143.081951 239.953848,142.615385 239.378309,142.615385 L216.42287,142.615385 C215.847331,142.615385 215.380765,143.081951 215.380765,143.65749 L215.380765,165.264501 C215.380765,165.955952 214.820233,166.516484 214.128782,166.516484 C213.437331,166.516484 212.8768,165.955952 212.8768,165.264501 L212.8768,119.966268 C212.8768,119.274817 213.437331,118.714286 214.128782,118.714286 C214.820233,118.714286 215.380765,119.274817 215.380765,119.966268 L215.380765,139.100752 C215.380765,139.676291 215.847331,140.142857 216.42287,140.142857 L239.378309,140.142857 C239.953848,140.142857 240.420414,139.676291 240.420414,139.100752 L240.420414,119.966268 C240.420414,119.274817 240.980946,118.714286 241.672397,118.714286 C242.363848,118.714286 242.924379,119.274817 242.924379,119.966268 L242.924379,165.264501 C242.924379,165.955952 242.363848,166.516484 241.672397,166.516484 Z M289.496787,162.358747 C284.506771,165.680022 279.84171,167.340659 275.501605,167.340659 C268.546112,167.340659 263.566053,165.390129 260.56128,161.489011 C257.556507,157.587893 256.054143,151.296747 256.054143,142.615385 C256.054143,133.934023 257.556507,127.642877 260.56128,123.741758 C263.566053,119.84064 268.546112,117.89011 275.501605,117.89011 C282.451762,117.89011 287.63853,120.086397 291.061909,124.47897 L291.061897,124.478979 C291.581916,125.146221 291.476759,126.106083 290.824609,126.644908 L273.007349,141.366052 C272.02994,142.173617 270.80169,142.615385 269.533821,142.615385 C269.145183,142.615385 268.83013,142.300331 268.83013,141.911693 C268.83013,141.701419 268.924165,141.502163 269.086482,141.368491 L288.689153,125.225275 C286.24082,121.9835 281.845014,120.362637 275.501605,120.362637 C272.719407,120.362637 270.382397,120.651096 268.490503,121.228022 C266.598609,121.804948 264.859761,122.876366 263.273909,124.442308 C261.688057,126.00825 260.505641,128.288447 259.726625,131.282967 C258.94761,134.277487 258.558108,138.054922 258.558108,142.615385 C258.558108,147.175847 258.94761,150.953282 259.726625,153.947802 C260.505641,156.942323 261.688057,159.22252 263.273909,160.788462 C264.859761,162.354403 266.598609,163.425821 268.490503,164.002747 C270.382397,164.579673 272.719407,164.868132 275.501605,164.868132 C279.781995,164.868132 283.856903,163.486972 287.726331,160.724651 C288.300512,160.314758 289.082291,160.358405 289.607274,160.82967 C290.005861,161.187473 290.038923,161.800648 289.681121,162.199235 C289.626626,162.259942 289.564689,162.313531 289.496777,162.358731 L289.496787,162.358747 Z M325.799196,123.082418 C325.799196,117.752721 327.162452,113.906605 329.889006,111.543956 C332.615559,109.181307 337.039186,108 343.16002,108 C347.444604,108 350.894476,109.09889 353.509742,111.296703 C355.124772,112.65394 356.867115,115.629835 358.73677,120.224389 C359.005436,120.884608 358.793442,121.642963 358.221358,122.068158 L353.06434,125.90105 C351.998602,126.693147 350.70606,127.120879 349.3782,127.120879 C349.005538,127.120879 348.703435,126.818777 348.703435,126.446115 C348.703435,126.23229 348.804783,126.031119 348.976616,125.903862 L356.347569,120.445055 C354.446418,116.269236 352.763197,113.686818 351.297906,112.697802 C349.09997,111.214278 346.387369,110.472527 343.16002,110.472527 C340.934262,110.472527 339.056307,110.609889 337.526099,110.884615 C335.99589,111.159342 334.465705,111.695051 332.935496,112.491758 C331.405288,113.288466 330.250693,114.565925 329.471678,116.324176 C328.692663,118.082426 328.303161,120.335151 328.303161,123.082418 C328.303161,125.500012 329.429934,127.642848 331.683514,129.510989 C333.937094,131.37913 336.677517,132.972521 339.904866,134.291209 C343.132214,135.609897 346.373425,136.956037 349.628596,138.32967 C352.883767,139.703304 355.638101,141.461528 357.89168,143.604396 C360.14526,145.747263 361.272033,148.219766 361.272033,151.021978 C361.272033,156.516511 359.894866,160.609877 357.140491,163.302198 C354.386116,165.994519 349.670362,167.340659 342.993089,167.340659 C337.539982,167.340659 333.255463,166.255505 330.139402,164.085165 C328.220753,162.748823 326.246737,159.775962 324.217354,155.166581 L324.217373,155.166572 C323.936301,154.528168 324.225976,153.782785 324.864381,153.501713 C324.869928,153.49927 324.875493,153.496868 324.881076,153.494505 C325.519894,153.224164 326.256914,153.522873 326.527256,154.161691 C326.527309,154.161816 326.527361,154.16194 326.527414,154.162065 C328.364306,158.50653 330.110824,161.209836 331.766979,162.271978 C334.465711,164.002756 338.20771,164.868132 342.993089,164.868132 C348.334908,164.868132 352.299479,163.851659 354.886923,161.818681 C357.474366,159.785704 358.768068,156.186839 358.768068,151.021978 C358.768068,148.604384 357.641295,146.461548 355.387716,144.593407 C353.134136,142.725265 350.379802,141.131875 347.124631,139.813187 C343.86946,138.494499 340.628249,137.148359 337.400901,135.774725 C334.173552,134.401092 331.433129,132.642868 329.179549,130.5 C326.925969,128.357132 325.799196,125.884629 325.799196,123.082418 Z M373.400211,165.264501 L373.400211,119.966268 C373.400211,119.274817 373.960743,118.714286 374.652194,118.714286 C375.343645,118.714286 375.904176,119.274817 375.904176,119.966268 L375.904176,165.264501 C375.904176,165.955952 375.343645,166.516484 374.652194,166.516484 C373.960743,166.516484 373.400211,165.955952 373.400211,165.264501 Z M403.001447,165.259781 L379.712928,142.412977 C379.096661,141.808399 379.087185,140.818707 379.691764,140.20244 C379.698889,140.195176 379.706085,140.187983 379.713351,140.18086 L400.330074,119.970503 C401.151462,119.165305 402.255831,118.714286 403.406058,118.714286 C403.81081,118.714286 404.138927,119.042402 404.138927,119.447154 C404.138927,119.644052 404.059697,119.832667 403.919091,119.970503 L382.922941,140.552808 C382.511943,140.955705 382.505376,141.615497 382.908273,142.026494 C382.913022,142.031338 382.917817,142.036136 382.922659,142.040886 L406.590463,165.259781 C406.879549,165.543384 406.883994,166.007641 406.600391,166.296727 C406.462496,166.437289 406.273862,166.516484 406.076954,166.516484 C404.926773,166.516484 403.822496,166.065258 403.001447,165.259781 Z M422.732274,118.714286 L451.426055,118.714286 C452.289363,118.714286 452.989213,119.414135 452.989213,120.277444 C452.989213,120.489242 452.946171,120.698831 452.862701,120.893488 L434.224937,164.3577 C434.197113,164.422586 434.182766,164.492449 434.182766,164.563048 L434.182766,181.748018 C434.182766,182.439468 433.622234,183 432.930784,183 C432.239333,183 431.678801,182.439468 431.678801,181.748018 L431.678801,164.563048 C431.678801,164.492449 431.664454,164.422586 431.636631,164.3577 L412.590712,119.941651 C412.399087,119.494773 412.606011,118.977164 413.05289,118.785539 C413.162524,118.738527 413.280568,118.714286 413.399857,118.714286 C414.210236,118.714286 414.942866,119.196588 415.263211,119.940963 L432.451877,159.881686 C432.565633,160.146017 432.872133,160.268082 433.136464,160.154326 C433.258936,160.101619 433.356543,160.003969 433.409195,159.881473 L449.416403,122.640439 C449.64368,122.111676 449.399277,121.498785 448.870514,121.271508 C448.740513,121.215631 448.600494,121.186813 448.458993,121.186813 L422.732274,121.186813 C422.049504,121.186813 421.49601,120.633319 421.49601,119.950549 C421.49601,119.26778 422.049504,118.714286 422.732274,118.714286 Z" id="KISS-THE-SKY" stroke="#222222" stroke-width="1.3" fill="#222222"></path>
        <g id="Playevolution." fill-rule="nonzero">
            <use fill="#FFFFFF" xlink:href="#path-19"></use>
            <use fill="#222222" xlink:href="#path-19"></use>
        </g>
    </g>
</svg>