<?xml version="1.0" encoding="UTF-8"?>
<svg width="456px" height="195px" viewBox="0 0 456 195" version="1.1" xmlns="http://www.w3.org/2000/svg" xmlns:xlink="http://www.w3.org/1999/xlink">
    <!-- Generator: Sketch 52.6 (67491) - http://www.bohemiancoding.com/sketch -->
    <title>title (light bg)</title>
    <desc>Created with Sketch.</desc>
    <defs>
        <linearGradient x1="50%" y1="0%" x2="50%" y2="100%" id="linearGradient-1">
            <stop stop-color="#0D720F" offset="0%"></stop>
            <stop stop-color="#08540A" offset="100%"></stop>
        </linearGradient>
        <linearGradient x1="50%" y1="0%" x2="50%" y2="100%" id="linearGradient-2">
            <stop stop-color="#118C16" offset="0%"></stop>
            <stop stop-color="#0C560E" offset="100%"></stop>
        </linearGradient>
        <linearGradient x1="50%" y1="0%" x2="50%" y2="100%" id="linearGradient-3">
            <stop stop-color="#0D720F" offset="0%"></stop>
            <stop stop-color="#064A07" offset="100%"></stop>
        </linearGradient>
        <linearGradient x1="50%" y1="15.2764682%" x2="50%" y2="60.4427083%" id="linearGradient-4">
            <stop stop-color="#FFFFFF" stop-opacity="0" offset="0%"></stop>
            <stop stop-color="#FFFFFF" offset="100%"></stop>
        </linearGradient>
    </defs>
    <g id="title-(light-bg)" stroke="none" stroke-width="1" fill="none" fill-rule="evenodd">
        <g id="leaves" transform="translate(-9.000000, -3.000000)" fill-rule="nonzero">
            <g id="bunch-(rear)" opacity="0.878641183" transform="translate(366.000000, 72.000000)">
                <g id="leaf" transform="translate(46.500000, 58.500000) rotate(-32.000000) translate(-46.500000, -58.500000) translate(27.000000, 3.000000)">
                    <path d="M1.30026284,53.3812816 C1.30026284,33.2952294 8.77335025,15.0053253 18.3032602,1.29526183 C15.2288343,55.4077618 28.4300343,67.170688 19.8245232,108.795688 C8.51054347,94.7485087 1.30026284,75.5179921 1.30026284,53.3812816 Z" id="Path" fill="url(#linearGradient-1)"></path>
                    <path d="M36.7871771,56.7096682 C36.7871771,76.7957204 29.7851755,95.0856245 19.8245232,108.795688 C26.1181467,64.395688 12.44312,45.6952618 18.3032602,1.29526183 C30.1286204,15.3424411 36.7871771,34.5729577 36.7871771,56.7096682 Z" id="Path" fill="url(#linearGradient-2)"></path>
                </g>
                <g id="leaf" transform="translate(58.500000, 64.500000) rotate(22.000000) translate(-58.500000, -64.500000) translate(39.000000, 9.000000)">
                    <path d="M1.30026284,53.3812816 C1.30026284,33.2952294 8.77335025,15.0053253 18.3032602,1.29526183 C15.2288343,55.4077618 28.4300343,67.170688 19.8245232,108.795688 C8.51054347,94.7485087 1.30026284,75.5179921 1.30026284,53.3812816 Z" id="Path" fill="url(#linearGradient-1)"></path>
                    <path d="M36.7871771,56.7096682 C36.7871771,76.7957204 29.7851755,95.0856245 19.8245232,108.795688 C26.1181467,64.395688 12.44312,45.6952618 18.3032602,1.29526183 C30.1286204,15.3424411 36.7871771,34.5729577 36.7871771,56.7096682 Z" id="Path" fill="url(#linearGradient-2)"></path>
                </g>
            </g>
            <g id="bunch-(rear)" opacity="0.631812686" transform="translate(270.000000, 81.000000)">
                <g id="leaf" transform="translate(37.500000, 61.500000) rotate(-18.000000) translate(-37.500000, -61.500000) translate(18.000000, 6.000000)">
                    <path d="M1.30026284,53.3812816 C1.30026284,33.2952294 8.77335025,15.0053253 18.3032602,1.29526183 C15.2288343,55.4077618 28.4300343,67.170688 19.8245232,108.795688 C8.51054347,94.7485087 1.30026284,75.5179921 1.30026284,53.3812816 Z" id="Path" fill="url(#linearGradient-1)"></path>
                    <path d="M36.7871771,56.7096682 C36.7871771,76.7957204 29.7851755,95.0856245 19.8245232,108.795688 C26.1181467,64.395688 12.44312,45.6952618 18.3032602,1.29526183 C30.1286204,15.3424411 36.7871771,34.5729577 36.7871771,56.7096682 Z" id="Path" fill="url(#linearGradient-2)"></path>
                </g>
                <g id="leaf" transform="translate(49.500000, 67.500000) rotate(22.000000) translate(-49.500000, -67.500000) translate(30.000000, 12.000000)">
                    <path d="M1.30026284,53.3812816 C1.30026284,33.2952294 8.77335025,15.0053253 18.3032602,1.29526183 C15.2288343,55.4077618 28.4300343,67.170688 19.8245232,108.795688 C8.51054347,94.7485087 1.30026284,75.5179921 1.30026284,53.3812816 Z" id="Path" fill="url(#linearGradient-1)"></path>
                    <path d="M36.7871771,56.7096682 C36.7871771,76.7957204 29.7851755,95.0856245 19.8245232,108.795688 C26.1181467,64.395688 12.44312,45.6952618 18.3032602,1.29526183 C30.1286204,15.3424411 36.7871771,34.5729577 36.7871771,56.7096682 Z" id="Path" fill="url(#linearGradient-2)"></path>
                </g>
            </g>
            <g id="bunch-(rear)" opacity="0.631812686" transform="translate(180.000000, 75.000000)">
                <g id="leaf" transform="translate(34.500000, 61.500000) rotate(-18.000000) translate(-34.500000, -61.500000) translate(18.000000, 6.000000)">
                    <path d="M1.10022241,53.3812816 C1.10022241,33.2952294 7.42360405,15.0053253 15.487374,1.29526183 C12.8859367,55.4077618 24.0561828,67.170688 16.7745965,108.795688 C7.20122909,94.7485087 1.10022241,75.5179921 1.10022241,53.3812816 Z" id="Path" fill="url(#linearGradient-1)"></path>
                    <path d="M31.1276114,56.7096682 C31.1276114,76.7957204 25.2028408,95.0856245 16.7745965,108.795688 C22.0999703,64.395688 10.5287938,45.6952618 15.487374,1.29526183 C25.493448,15.3424411 31.1276114,34.5729577 31.1276114,56.7096682 Z" id="Path" fill="url(#linearGradient-2)"></path>
                </g>
                <g id="leaf" transform="translate(40.500000, 61.500000) rotate(14.000000) translate(-40.500000, -61.500000) translate(21.000000, 6.000000)">
                    <path d="M1.30026284,53.3812816 C1.30026284,33.2952294 8.77335025,15.0053253 18.3032602,1.29526183 C15.2288343,55.4077618 28.4300343,67.170688 19.8245232,108.795688 C8.51054347,94.7485087 1.30026284,75.5179921 1.30026284,53.3812816 Z" id="Path" fill="url(#linearGradient-1)"></path>
                    <path d="M36.7871771,56.7096682 C36.7871771,76.7957204 29.7851755,95.0856245 19.8245232,108.795688 C26.1181467,64.395688 12.44312,45.6952618 18.3032602,1.29526183 C30.1286204,15.3424411 36.7871771,34.5729577 36.7871771,56.7096682 Z" id="Path" fill="url(#linearGradient-2)"></path>
                </g>
            </g>
            <g id="bunch-(rear)" opacity="0.469005766" transform="translate(54.000000, 87.000000)">
                <g id="leaf" transform="translate(36.000000, 61.500000) rotate(-18.000000) translate(-36.000000, -61.500000) translate(18.000000, 6.000000)">
                    <path d="M1.20024263,53.3812816 C1.20024263,33.2952294 8.09847715,15.0053253 16.8953171,1.29526183 C14.0573855,55.4077618 26.2431086,67.170688 18.2995598,108.795688 C7.85588628,94.7485087 1.20024263,75.5179921 1.20024263,53.3812816 Z" id="Path" fill="url(#linearGradient-1)"></path>
                    <path d="M33.9573943,56.7096682 C33.9573943,76.7957204 27.4940081,95.0856245 18.2995598,108.795688 C24.1090585,64.395688 11.4859569,45.6952618 16.8953171,1.29526183 C27.8110342,15.3424411 33.9573943,34.5729577 33.9573943,56.7096682 Z" id="Path" fill="url(#linearGradient-2)"></path>
                </g>
                <g id="leaf" transform="translate(42.000000, 61.500000) rotate(14.000000) translate(-42.000000, -61.500000) translate(21.000000, 6.000000)">
                    <path d="M1.40028306,53.3812816 C1.40028306,33.2952294 9.44822334,15.0053253 19.7112033,1.29526183 C16.4002831,55.4077618 30.61696,67.170688 21.3494865,108.795688 C9.16520066,94.7485087 1.40028306,75.5179921 1.40028306,53.3812816 Z" id="Path" fill="url(#linearGradient-1)"></path>
                    <path d="M39.61696,56.7096682 C39.61696,76.7957204 32.0763428,95.0856245 21.3494865,108.795688 C28.127235,64.395688 13.4002831,45.6952618 19.7112033,1.29526183 C32.4462066,15.3424411 39.61696,34.5729577 39.61696,56.7096682 Z" id="Path" fill="url(#linearGradient-2)"></path>
                </g>
            </g>
            <g id="bunch" transform="translate(291.000000, 27.000000)">
                <g id="leaf" transform="translate(64.572439, 66.002530) rotate(4.000000) translate(-64.572439, -66.002530) translate(42.072439, 3.002530)">
                    <path d="M1.50030328,61.5937864 C1.50030328,38.4175724 10.1230964,17.3138369 21.1191464,1.49453289 C17.5717319,63.9320329 32.8038857,77.50464 22.8744498,125.533486 C9.81985785,109.325202 1.50030328,87.1361448 1.50030328,61.5937864 Z" id="Path" fill="url(#linearGradient-1)"></path>
                    <path d="M42.4467428,65.4342326 C42.4467428,88.6104466 34.3675102,109.714182 22.8744498,125.533486 C30.1363232,74.3027169 14.3574461,52.7253021 21.1191464,1.49453289 C34.7637928,17.7028166 42.4467428,39.8918743 42.4467428,65.4342326 Z" id="Path" fill="url(#linearGradient-2)"></path>
                </g>
                <g id="leaf" transform="translate(88.500000, 82.961538) rotate(22.000000) translate(-88.500000, -82.961538) translate(72.000000, 36.000000)">
                    <path d="M1.10022241,45.1687767 C1.10022241,28.1728864 7.42360405,12.6968137 15.487374,1.09599078 C12.8859367,46.8834908 24.0561828,56.836736 16.7745965,92.0578898 C7.20122909,80.1718151 1.10022241,63.8998395 1.10022241,45.1687767 Z" id="Path" fill="url(#linearGradient-1)"></path>
                    <path d="M31.1276114,47.9851039 C31.1276114,64.9809942 25.2028408,80.4570669 16.7745965,92.0578898 C22.0999703,54.4886591 10.5287938,38.6652216 15.487374,1.09599078 C25.493448,12.9820655 31.1276114,29.2540411 31.1276114,47.9851039 Z" id="Path" fill="url(#linearGradient-2)"></path>
                </g>
                <g id="leaf" transform="translate(37.500000, 67.500000) rotate(-17.000000) translate(-37.500000, -67.500000) translate(18.000000, 12.000000)">
                    <path d="M1.30026284,53.3812816 C1.30026284,33.2952294 8.77335025,15.0053253 18.3032602,1.29526183 C15.2288343,55.4077618 28.4300343,67.170688 19.8245232,108.795688 C8.51054347,94.7485087 1.30026284,75.5179921 1.30026284,53.3812816 Z" id="Path" fill="url(#linearGradient-1)"></path>
                    <path d="M36.7871771,56.7096682 C36.7871771,76.7957204 29.7851755,95.0856245 19.8245232,108.795688 C26.1181467,64.395688 12.44312,45.6952618 18.3032602,1.29526183 C30.1286204,15.3424411 36.7871771,34.5729577 36.7871771,56.7096682 Z" id="Path" fill="url(#linearGradient-2)"></path>
                </g>
            </g>
            <g id="bunch" transform="translate(189.000000, 0.000000)">
                <g id="leaf" transform="translate(70.500000, 67.038462) rotate(-4.000000) translate(-70.500000, -67.038462) translate(48.000000, 3.000000)">
                    <path d="M1.50030328,61.5937864 C1.50030328,38.4175724 10.1230964,17.3138369 21.1191464,1.49453289 C17.5717319,63.9320329 32.8038857,77.50464 22.8744498,125.533486 C9.81985785,109.325202 1.50030328,87.1361448 1.50030328,61.5937864 Z" id="Path" fill="url(#linearGradient-1)"></path>
                    <path d="M42.4467428,65.4342326 C42.4467428,88.6104466 34.3675102,109.714182 22.8744498,125.533486 C30.1363232,74.3027169 14.3574461,52.7253021 21.1191464,1.49453289 C34.7637928,17.7028166 42.4467428,39.8918743 42.4467428,65.4342326 Z" id="Path" fill="url(#linearGradient-2)"></path>
                </g>
                <g id="leaf" transform="translate(92.959927, 74.996494) rotate(10.000000) translate(-92.959927, -74.996494) translate(71.959927, 14.996494)">
                    <path d="M1.40028306,57.487534 C1.40028306,35.8564009 9.44822334,16.1595811 19.7112033,1.39489736 C16.4002831,59.6698974 30.61696,72.337664 21.3494865,117.164587 C9.16520066,102.036856 1.40028306,81.3270684 1.40028306,57.487534 Z" id="Path" fill="url(#linearGradient-3)"></path>
                    <path d="M39.61696,61.0719504 C39.61696,82.7030835 32.0763428,102.399903 21.3494865,117.164587 C28.127235,69.3492024 13.4002831,49.210282 19.7112033,1.39489736 C32.4462066,16.5226289 39.61696,37.232416 39.61696,61.0719504 Z" id="Path" fill="url(#linearGradient-2)"></path>
                </g>
                <g id="leaf" transform="translate(46.500000, 97.500000) rotate(-32.000000) translate(-46.500000, -97.500000) translate(27.000000, 42.000000)">
                    <path d="M1.30026284,53.3812816 C1.30026284,33.2952294 8.77335025,15.0053253 18.3032602,1.29526183 C15.2288343,55.4077618 28.4300343,67.170688 19.8245232,108.795688 C8.51054347,94.7485087 1.30026284,75.5179921 1.30026284,53.3812816 Z" id="Path" fill="url(#linearGradient-1)"></path>
                    <path d="M36.7871771,56.7096682 C36.7871771,76.7957204 29.7851755,95.0856245 19.8245232,108.795688 C26.1181467,64.395688 12.44312,45.6952618 18.3032602,1.29526183 C30.1286204,15.3424411 36.7871771,34.5729577 36.7871771,56.7096682 Z" id="Path" fill="url(#linearGradient-2)"></path>
                </g>
                <g id="leaf" transform="translate(106.500000, 106.500000) rotate(42.000000) translate(-106.500000, -106.500000) translate(87.000000, 51.000000)">
                    <path d="M1.30026284,53.3812816 C1.30026284,33.2952294 8.77335025,15.0053253 18.3032602,1.29526183 C15.2288343,55.4077618 28.4300343,67.170688 19.8245232,108.795688 C8.51054347,94.7485087 1.30026284,75.5179921 1.30026284,53.3812816 Z" id="Path" fill="url(#linearGradient-1)"></path>
                    <path d="M36.7871771,56.7096682 C36.7871771,76.7957204 29.7851755,95.0856245 19.8245232,108.795688 C26.1181467,64.395688 12.44312,45.6952618 18.3032602,1.29526183 C30.1286204,15.3424411 36.7871771,34.5729577 36.7871771,56.7096682 Z" id="Path" fill="url(#linearGradient-2)"></path>
                </g>
            </g>
            <g id="bunch" transform="translate(93.000000, 27.000000)">
                <g id="leaf" transform="translate(67.500000, 70.038462) rotate(-12.000000) translate(-67.500000, -70.038462) translate(45.000000, 6.000000)">
                    <path d="M1.50030328,61.5937864 C1.50030328,38.4175724 10.1230964,17.3138369 21.1191464,1.49453289 C17.5717319,63.9320329 32.8038857,77.50464 22.8744498,125.533486 C9.81985785,109.325202 1.50030328,87.1361448 1.50030328,61.5937864 Z" id="Path" fill="url(#linearGradient-1)"></path>
                    <path d="M42.4467428,65.4342326 C42.4467428,88.6104466 34.3675102,109.714182 22.8744498,125.533486 C30.1363232,74.3027169 14.3574461,52.7253021 21.1191464,1.49453289 C34.7637928,17.7028166 42.4467428,39.8918743 42.4467428,65.4342326 Z" id="Path" fill="url(#linearGradient-2)"></path>
                </g>
                <g id="leaf" transform="translate(87.000000, 65.769231) rotate(14.000000) translate(-87.000000, -65.769231) translate(66.000000, 6.000000)">
                    <path d="M1.40028306,57.487534 C1.40028306,35.8564009 9.44822334,16.1595811 19.7112033,1.39489736 C16.4002831,59.6698974 30.61696,72.337664 21.3494865,117.164587 C9.16520066,102.036856 1.40028306,81.3270684 1.40028306,57.487534 Z" id="Path" fill="url(#linearGradient-1)"></path>
                    <path d="M39.61696,61.0719504 C39.61696,82.7030835 32.0763428,102.399903 21.3494865,117.164587 C28.127235,69.3492024 13.4002831,49.210282 19.7112033,1.39489736 C32.4462066,16.5226289 39.61696,37.232416 39.61696,61.0719504 Z" id="Path" fill="url(#linearGradient-2)"></path>
                </g>
                <g id="leaf" transform="translate(43.500000, 94.500000) rotate(-26.000000) translate(-43.500000, -94.500000) translate(24.000000, 39.000000)">
                    <path d="M1.30026284,53.3812816 C1.30026284,33.2952294 8.77335025,15.0053253 18.3032602,1.29526183 C15.2288343,55.4077618 28.4300343,67.170688 19.8245232,108.795688 C8.51054347,94.7485087 1.30026284,75.5179921 1.30026284,53.3812816 Z" id="Path" fill="url(#linearGradient-1)"></path>
                    <path d="M36.7871771,56.7096682 C36.7871771,76.7957204 29.7851755,95.0856245 19.8245232,108.795688 C26.1181467,64.395688 12.44312,45.6952618 18.3032602,1.29526183 C30.1286204,15.3424411 36.7871771,34.5729577 36.7871771,56.7096682 Z" id="Path" fill="url(#linearGradient-2)"></path>
                </g>
            </g>
            <g id="bunch" transform="translate(0.000000, 30.000000)">
                <g id="leaf" transform="translate(34.656668, 64.866411) rotate(-11.000000) translate(-34.656668, -64.866411) translate(12.156668, 4.866411)">
                    <path d="M1.50030328,57.7094936 C1.50030328,35.9948426 10.1230964,16.2219733 21.1191464,1.40028306 C17.5717319,59.9002831 32.8038857,72.61696 22.8744498,117.61696 C9.81985785,102.43082 1.50030328,81.6410726 1.50030328,57.7094936 Z" id="Path" fill="url(#linearGradient-1)"></path>
                    <path d="M42.4467428,61.3077495 C42.4467428,83.0224004 34.3675102,102.79527 22.8744498,117.61696 C30.1363232,69.61696 14.3574461,49.4002831 21.1191464,1.40028306 C34.7637928,16.5864228 42.4467428,37.3761705 42.4467428,61.3077495 Z" id="Path" fill="url(#linearGradient-2)"></path>
                </g>
                <g id="leaf" transform="translate(55.500000, 79.500000) rotate(19.000000) translate(-55.500000, -79.500000) translate(36.000000, 24.000000)">
                    <path d="M1.30026284,53.3812816 C1.30026284,33.2952294 8.77335025,15.0053253 18.3032602,1.29526183 C15.2288343,55.4077618 28.4300343,67.170688 19.8245232,108.795688 C8.51054347,94.7485087 1.30026284,75.5179921 1.30026284,53.3812816 Z" id="Path" fill="url(#linearGradient-1)"></path>
                    <path d="M36.7871771,56.7096682 C36.7871771,76.7957204 29.7851755,95.0856245 19.8245232,108.795688 C26.1181467,64.395688 12.44312,45.6952618 18.3032602,1.29526183 C30.1286204,15.3424411 36.7871771,34.5729577 36.7871771,56.7096682 Z" id="Path" fill="url(#linearGradient-2)"></path>
                </g>
            </g>
        </g>
        <rect id="gradient" fill="url(#linearGradient-4)" fill-rule="nonzero" x="3" y="33" width="450" height="165"></rect>
        <path d="M5.50396496,110.076158 L5.50396496,165.264501 C5.50396496,165.955952 4.94343331,166.516484 4.25198248,166.516484 C3.56053165,166.516484 3,165.955952 3,165.264501 L3,110.076158 C3,109.384707 3.56053165,108.824176 4.25198248,108.824176 C4.94343331,108.824176 5.50396496,109.384707 5.50396496,110.076158 Z M38.5276279,110.081227 L12.5213481,135.60814 C12.1106128,136.011304 12.1044753,136.6711 12.5076397,137.081836 C12.5121032,137.086383 12.5166084,137.090889 12.5211546,137.095354 L41.198851,165.259099 C41.488006,165.543072 41.4922069,166.007684 41.2082341,166.296839 C41.0702538,166.437337 40.8815947,166.516484 40.6846726,166.516484 C39.5345571,166.516484 38.4304089,166.064968 37.6098346,165.259099 L9.31077681,137.467207 C8.69483124,136.8623 8.68588257,135.872604 9.29078938,135.256658 C9.29748649,135.249839 9.30424601,135.243081 9.31106708,135.236386 L34.9386114,110.081227 C35.7594181,109.27555 36.8636293,108.824176 38.0137767,108.824176 C38.4189053,108.824176 38.747327,109.152597 38.747327,109.557726 C38.747327,109.754641 38.6681571,109.943288 38.5276279,110.081227 Z M51.101808,118.714286 C51.7932588,118.714286 52.3537905,119.274817 52.3537905,119.966268 L52.3537905,165.264501 C52.3537905,165.955952 51.7932588,166.516484 51.101808,166.516484 C50.4103572,166.516484 49.8498255,165.955952 49.8498255,165.264501 L49.8498255,119.966268 C49.8498255,119.274817 50.4103572,118.714286 51.101808,118.714286 Z M64.7648935,129.801718 C64.7648935,125.318619 65.9153483,122.083442 68.2162925,120.096089 C70.5172366,118.108736 74.2503452,117.115075 79.41573,117.115075 C83.0314995,117.115075 85.9428545,118.039411 88.1498826,119.888111 C89.4909158,121.011418 90.9359642,123.452873 92.4850278,127.212477 L92.4849988,127.212489 C92.7578512,127.874707 92.5457306,128.637644 91.9702229,129.06399 L87.7756116,132.171435 C86.8750723,132.838571 85.7839979,133.198688 84.6632653,133.198688 C84.3495985,133.198688 84.0953214,132.944411 84.0953214,132.630744 C84.0953214,132.450457 84.180919,132.280879 84.3259677,132.173808 L90.5447309,127.583288 C89.558612,124.486715 88.1381524,122.314525 86.2833097,121.066652 C84.4284669,119.818779 82.1392966,119.194852 79.41573,119.194852 C77.5374083,119.194852 75.952598,119.310394 74.6612518,119.541482 C73.3699056,119.772569 72.0785788,120.223183 70.7872325,120.893337 C69.4958863,121.563491 68.5215215,122.638032 67.8641089,124.116992 C67.2066963,125.595953 66.8779949,127.490842 66.8779949,129.801718 C66.8779949,131.835288 67.828881,133.637744 69.7306818,135.20914 C71.6324826,136.780535 73.9451316,138.120823 76.6686982,139.230043 C79.3922648,140.339263 82.1275298,141.471575 84.8745754,142.627013 C87.621621,143.782451 89.9460093,145.261389 91.8478101,147.063872 C93.7496109,148.866355 94.7004971,150.946111 94.7004971,153.303204 C94.7004971,157.924956 93.5383029,161.368108 91.2138797,163.632766 C88.8894565,165.897424 84.9098219,167.029736 79.2748566,167.029736 C74.6729683,167.029736 71.0572531,166.116954 68.4276026,164.291363 C66.8087699,163.167515 65.143231,160.667643 63.4309857,156.791748 L63.4309634,156.791758 C63.193764,156.254825 63.4367457,155.627267 63.9736782,155.390068 C63.9791287,155.38766 63.9845994,155.385298 63.9900896,155.382982 C64.5296607,155.155384 65.1516368,155.407566 65.3803476,155.946667 C66.9301759,159.599765 68.403761,161.872943 69.8011185,162.766192 C72.0785837,164.222044 75.2364648,164.949959 79.2748566,164.949959 C83.7828289,164.949959 87.1285393,164.094948 89.3120884,162.3849 C91.4956375,160.674852 92.5873956,157.64765 92.5873956,153.303204 C92.5873956,151.269634 91.6365095,149.467178 89.7347087,147.895783 C87.8329079,146.324387 85.5085196,144.9841 82.761474,143.874879 C80.0144284,142.765659 77.2791633,141.633347 74.5555967,140.477909 C71.8320302,139.322472 69.5193812,137.843533 67.6175804,136.041051 C65.7157796,134.238568 64.7648935,132.158811 64.7648935,129.801718 Z M103.884535,129.801718 C103.884535,125.318619 105.035163,122.083442 107.336452,120.096089 C109.637742,118.108736 113.371411,117.115075 118.537571,117.115075 C122.153883,117.115075 125.065675,118.039411 127.273035,119.888111 C128.614251,121.011403 130.059496,123.452808 131.608768,127.212326 C131.881688,127.87461 131.669532,128.637652 131.093923,129.064009 L126.898781,132.17138 C125.998053,132.838555 124.906802,133.198688 123.785894,133.198688 C123.472218,133.198688 123.217933,132.944403 123.217933,132.630727 C123.217933,132.450421 123.303547,132.280826 123.448619,132.173754 L129.668243,127.583288 C128.681976,124.486715 127.261303,122.314525 125.406182,121.066652 C123.55106,119.818779 121.261546,119.194852 118.537571,119.194852 C116.658967,119.194852 115.073919,119.310394 113.782379,119.541482 C112.490839,119.772569 111.199318,120.223183 109.907778,120.893337 C108.616238,121.563491 107.641727,122.638032 106.984216,124.116992 C106.326704,125.595953 105.997954,127.490842 105.997954,129.801718 C105.997954,131.835288 106.948983,133.637744 108.851069,135.20914 C110.753155,136.780535 113.066151,138.120823 115.790127,139.230043 C118.514102,140.339263 121.249778,141.471575 123.997236,142.627013 C126.744694,143.782451 129.069431,145.261389 130.971517,147.063872 C132.873604,148.866355 133.824633,150.946111 133.824633,153.303204 C133.824633,157.924956 132.662264,161.368108 130.337492,163.632766 C128.01272,165.897424 124.032488,167.029736 118.396676,167.029736 C113.794097,167.029736 110.177839,166.116954 107.547794,164.291363 C105.928734,163.167526 104.262963,160.667693 102.550478,156.791863 L102.550444,156.791878 C102.313207,156.254943 102.556159,155.627353 103.093094,155.390115 C103.098581,155.387691 103.104088,155.385313 103.109615,155.382982 C103.649296,155.155372 104.271375,155.407595 104.500158,155.94678 C106.050176,159.599816 107.523965,161.872953 108.921516,162.766192 C111.199323,164.222044 114.357678,164.949959 118.396676,164.949959 C122.905325,164.949959 126.251538,164.094948 128.435415,162.3849 C130.619292,160.674852 131.711214,157.64765 131.711214,153.303204 C131.711214,151.269634 130.760185,149.467178 128.858099,147.895783 C126.956012,146.324387 124.631275,144.9841 121.883817,143.874879 C119.136359,142.765659 116.400684,141.633347 113.676708,140.477909 C110.952733,139.322472 108.639737,137.843533 106.73765,136.041051 C104.835564,134.238568 103.884535,132.158811 103.884535,129.801718 Z M204.337638,110.06044 C204.337638,110.743209 203.784144,111.296703 203.101374,111.296703 L185.765351,111.296703 C185.189812,111.296703 184.723246,111.76327 184.723246,112.338809 L184.723246,165.264501 C184.723246,165.955952 184.162714,166.516484 183.471263,166.516484 C182.779813,166.516484 182.219281,165.955952 182.219281,165.264501 L182.219281,112.338809 C182.219281,111.76327 181.752715,111.296703 181.177176,111.296703 L163.841153,111.296703 C163.158383,111.296703 162.604889,110.743209 162.604889,110.06044 C162.604889,109.37767 163.158383,108.824176 163.841153,108.824176 L203.101374,108.824176 C203.784144,108.824176 204.337638,109.37767 204.337638,110.06044 Z M241.672397,166.516484 C240.980946,166.516484 240.420414,165.955952 240.420414,165.264501 L240.420414,143.65749 C240.420414,143.081951 239.953848,142.615385 239.378309,142.615385 L216.42287,142.615385 C215.847331,142.615385 215.380765,143.081951 215.380765,143.65749 L215.380765,165.264501 C215.380765,165.955952 214.820233,166.516484 214.128782,166.516484 C213.437331,166.516484 212.8768,165.955952 212.8768,165.264501 L212.8768,119.966268 C212.8768,119.274817 213.437331,118.714286 214.128782,118.714286 C214.820233,118.714286 215.380765,119.274817 215.380765,119.966268 L215.380765,139.100752 C215.380765,139.676291 215.847331,140.142857 216.42287,140.142857 L239.378309,140.142857 C239.953848,140.142857 240.420414,139.676291 240.420414,139.100752 L240.420414,119.966268 C240.420414,119.274817 240.980946,118.714286 241.672397,118.714286 C242.363848,118.714286 242.924379,119.274817 242.924379,119.966268 L242.924379,165.264501 C242.924379,165.955952 242.363848,166.516484 241.672397,166.516484 Z M289.496787,162.358747 C284.506771,165.680022 279.84171,167.340659 275.501605,167.340659 C268.546112,167.340659 263.566053,165.390129 260.56128,161.489011 C257.556507,157.587893 256.054143,151.296747 256.054143,142.615385 C256.054143,133.934023 257.556507,127.642877 260.56128,123.741758 C263.566053,119.84064 268.546112,117.89011 275.501605,117.89011 C282.451762,117.89011 287.63853,120.086397 291.061909,124.47897 L291.061897,124.478979 C291.581916,125.146221 291.476759,126.106083 290.824609,126.644908 L273.007349,141.366052 C272.02994,142.173617 270.80169,142.615385 269.533821,142.615385 C269.145183,142.615385 268.83013,142.300331 268.83013,141.911693 C268.83013,141.701419 268.924165,141.502163 269.086482,141.368491 L288.689153,125.225275 C286.24082,121.9835 281.845014,120.362637 275.501605,120.362637 C272.719407,120.362637 270.382397,120.651096 268.490503,121.228022 C266.598609,121.804948 264.859761,122.876366 263.273909,124.442308 C261.688057,126.00825 260.505641,128.288447 259.726625,131.282967 C258.94761,134.277487 258.558108,138.054922 258.558108,142.615385 C258.558108,147.175847 258.94761,150.953282 259.726625,153.947802 C260.505641,156.942323 261.688057,159.22252 263.273909,160.788462 C264.859761,162.354403 266.598609,163.425821 268.490503,164.002747 C270.382397,164.579673 272.719407,164.868132 275.501605,164.868132 C279.781995,164.868132 283.856903,163.486972 287.726331,160.724651 C288.300512,160.314758 289.082291,160.358405 289.607274,160.82967 C290.005861,161.187473 290.038923,161.800648 289.681121,162.199235 C289.626626,162.259942 289.564689,162.313531 289.496777,162.358731 L289.496787,162.358747 Z M325.799196,123.082418 C325.799196,117.752721 327.162452,113.906605 329.889006,111.543956 C332.615559,109.181307 337.039186,108 343.16002,108 C347.444604,108 350.894476,109.09889 353.509742,111.296703 C355.124772,112.65394 356.867115,115.629835 358.73677,120.224389 C359.005436,120.884608 358.793442,121.642963 358.221358,122.068158 L353.06434,125.90105 C351.998602,126.693147 350.70606,127.120879 349.3782,127.120879 C349.005538,127.120879 348.703435,126.818777 348.703435,126.446115 C348.703435,126.23229 348.804783,126.031119 348.976616,125.903862 L356.347569,120.445055 C354.446418,116.269236 352.763197,113.686818 351.297906,112.697802 C349.09997,111.214278 346.387369,110.472527 343.16002,110.472527 C340.934262,110.472527 339.056307,110.609889 337.526099,110.884615 C335.99589,111.159342 334.465705,111.695051 332.935496,112.491758 C331.405288,113.288466 330.250693,114.565925 329.471678,116.324176 C328.692663,118.082426 328.303161,120.335151 328.303161,123.082418 C328.303161,125.500012 329.429934,127.642848 331.683514,129.510989 C333.937094,131.37913 336.677517,132.972521 339.904866,134.291209 C343.132214,135.609897 346.373425,136.956037 349.628596,138.32967 C352.883767,139.703304 355.638101,141.461528 357.89168,143.604396 C360.14526,145.747263 361.272033,148.219766 361.272033,151.021978 C361.272033,156.516511 359.894866,160.609877 357.140491,163.302198 C354.386116,165.994519 349.670362,167.340659 342.993089,167.340659 C337.539982,167.340659 333.255463,166.255505 330.139402,164.085165 C328.220753,162.748823 326.246737,159.775962 324.217354,155.166581 L324.217373,155.166572 C323.936301,154.528168 324.225976,153.782785 324.864381,153.501713 C324.869928,153.49927 324.875493,153.496868 324.881076,153.494505 C325.519894,153.224164 326.256914,153.522873 326.527256,154.161691 C326.527309,154.161816 326.527361,154.16194 326.527414,154.162065 C328.364306,158.50653 330.110824,161.209836 331.766979,162.271978 C334.465711,164.002756 338.20771,164.868132 342.993089,164.868132 C348.334908,164.868132 352.299479,163.851659 354.886923,161.818681 C357.474366,159.785704 358.768068,156.186839 358.768068,151.021978 C358.768068,148.604384 357.641295,146.461548 355.387716,144.593407 C353.134136,142.725265 350.379802,141.131875 347.124631,139.813187 C343.86946,138.494499 340.628249,137.148359 337.400901,135.774725 C334.173552,134.401092 331.433129,132.642868 329.179549,130.5 C326.925969,128.357132 325.799196,125.884629 325.799196,123.082418 Z M373.400211,165.264501 L373.400211,119.966268 C373.400211,119.274817 373.960743,118.714286 374.652194,118.714286 C375.343645,118.714286 375.904176,119.274817 375.904176,119.966268 L375.904176,165.264501 C375.904176,165.955952 375.343645,166.516484 374.652194,166.516484 C373.960743,166.516484 373.400211,165.955952 373.400211,165.264501 Z M403.001447,165.259781 L379.712928,142.412977 C379.096661,141.808399 379.087185,140.818707 379.691764,140.20244 C379.698889,140.195176 379.706085,140.187983 379.713351,140.18086 L400.330074,119.970503 C401.151462,119.165305 402.255831,118.714286 403.406058,118.714286 C403.81081,118.714286 404.138927,119.042402 404.138927,119.447154 C404.138927,119.644052 404.059697,119.832667 403.919091,119.970503 L382.922941,140.552808 C382.511943,140.955705 382.505376,141.615497 382.908273,142.026494 C382.913022,142.031338 382.917817,142.036136 382.922659,142.040886 L406.590463,165.259781 C406.879549,165.543384 406.883994,166.007641 406.600391,166.296727 C406.462496,166.437289 406.273862,166.516484 406.076954,166.516484 C404.926773,166.516484 403.822496,166.065258 403.001447,165.259781 Z M422.732274,118.714286 L451.426055,118.714286 C452.289363,118.714286 452.989213,119.414135 452.989213,120.277444 C452.989213,120.489242 452.946171,120.698831 452.862701,120.893488 L434.224937,164.3577 C434.197113,164.422586 434.182766,164.492449 434.182766,164.563048 L434.182766,181.748018 C434.182766,182.439468 433.622234,183 432.930784,183 C432.239333,183 431.678801,182.439468 431.678801,181.748018 L431.678801,164.563048 C431.678801,164.492449 431.664454,164.422586 431.636631,164.3577 L412.590712,119.941651 C412.399087,119.494773 412.606011,118.977164 413.05289,118.785539 C413.162524,118.738527 413.280568,118.714286 413.399857,118.714286 C414.210236,118.714286 414.942866,119.196588 415.263211,119.940963 L432.451877,159.881686 C432.565633,160.146017 432.872133,160.268082 433.136464,160.154326 C433.258936,160.101619 433.356543,160.003969 433.409195,159.881473 L449.416403,122.640439 C449.64368,122.111676 449.399277,121.498785 448.870514,121.271508 C448.740513,121.215631 448.600494,121.186813 448.458993,121.186813 L422.732274,121.186813 C422.049504,121.186813 421.49601,120.633319 421.49601,119.950549 C421.49601,119.26778 422.049504,118.714286 422.732274,118.714286 Z" id="KISS-THE-SKY" stroke="#222222" stroke-width="1.3" fill="#222222"></path>
        <text id="Play-Evolution." fill="#222222" font-family="AmaticSC-Bold, Amatic SC" font-size="14" font-weight="bold" letter-spacing="1.19875">
            <tspan x="2" y="192">Play Evolutio</tspan>
            <tspan x="70.53175" y="192" letter-spacing="-0.4">n.</tspan>
        </text>
    </g>
</svg>