<?xml version="1.0" standalone="no"?>
<!DOCTYPE svg PUBLIC "-//W3C//DTD SVG 20010904//EN"
 "http://www.w3.org/TR/2001/REC-SVG-20010904/DTD/svg10.dtd">
<svg version="1.0" xmlns="http://www.w3.org/2000/svg"
 width="354.000000pt" height="354.000000pt" viewBox="0 0 354.000000 354.000000"
 preserveAspectRatio="xMidYMid meet">
<metadata>
Created by potrace 1.11, written by Peter Selinger 2001-2013
</metadata>
<g transform="translate(0.000000,354.000000) scale(0.100000,-0.100000)"
fill="#000000" stroke="none">
<path d="M1663 3443 c-169 -168 -269 -346 -301 -535 -9 -57 -9 -220 1 -285 10
-62 37 -158 65 -228 10 -27 23 -59 27 -70 5 -11 -12 7 -37 40 -226 302 -543
430 -904 365 -107 -19 -264 -67 -264 -80 0 -7 16 -85 35 -170 10 -47 54 -156
92 -230 107 -208 288 -359 513 -428 89 -27 238 -54 253 -46 8 5 9 4 2 -3 -5
-6 -37 -13 -70 -16 -147 -15 -343 -91 -461 -180 -97 -74 -187 -184 -246 -302
-26 -51 -74 -177 -83 -218 -2 -12 -12 -55 -21 -95 -10 -40 -15 -74 -12 -77 11
-11 148 -54 223 -71 94 -20 289 -27 360 -13 28 5 63 12 79 15 55 9 179 67 255
118 83 55 178 146 242 231 46 61 57 69 35 27 -22 -44 -73 -212 -82 -272 -16
-105 -9 -269 14 -360 31 -118 103 -261 180 -354 42 -51 202 -206 213 -206 19
0 173 157 232 235 205 273 242 609 103 931 -28 64 -31 65 43 -26 146 -180 329
-295 532 -335 152 -30 411 -2 568 61 49 19 48 13 15 164 -12 55 -59 179 -94
250 -132 263 -380 435 -688 476 -57 7 -80 24 -35 25 37 1 64 5 148 26 166 39
298 113 415 232 90 92 146 177 198 303 30 72 82 262 82 300 0 13 -22 24 -82
44 -221 70 -425 79 -608 28 -127 -36 -276 -129 -380 -239 -77 -80 -73 -76
-104 -120 -26 -38 -27 -39 -20 -10 4 17 10 35 14 40 4 6 17 39 28 75 66 204
67 415 3 594 -20 55 -96 205 -110 216 -4 3 -30 35 -59 72 -52 66 -187 198
-203 198 -4 0 -52 -44 -106 -97z"/>
</g>
</svg>
