<?xml version="1.0" encoding="UTF-8"?>
<svg width="230px" height="60px" viewBox="0 0 230 60" version="1.1" xmlns="http://www.w3.org/2000/svg" xmlns:xlink="http://www.w3.org/1999/xlink">
    <!-- Generator: Sketch 53 (72520) - https://sketchapp.com -->
    <title>button_restart_confirm_hover</title>
    <desc>Created with Sketch.</desc>
    <defs>
        <path d="M34.7194575,24.321 C34.7194575,24.116999 34.8441229,23.9413341 35.0934575,23.794 C35.3427921,23.6466659 35.5977895,23.573 35.8584575,23.573 C36.1077921,23.573 36.3061234,23.7089986 36.4534575,23.981 L39.2584575,29.37 L42.0464575,23.981 C42.1824582,23.7089986 42.3807895,23.573 42.6414575,23.573 C42.9021255,23.573 43.1542896,23.6466659 43.3979575,23.794 C43.6416254,23.9413341 43.7634575,24.116999 43.7634575,24.321 C43.7634575,24.4230005 43.7464577,24.5079997 43.7124575,24.576 L40.1934575,30.917 C40.1707907,30.9850003 40.1594575,31.047333 40.1594575,31.104 L40.1594575,35.405 C40.1594575,35.5863342 40.0687917,35.7308328 39.8874575,35.8385 C39.7061233,35.9461672 39.4964587,36 39.2584575,36 C39.0091229,36 38.796625,35.9461672 38.6209575,35.8385 C38.44529,35.7308328 38.3574575,35.5863342 38.3574575,35.405 L38.3574575,31.104 C38.3574575,31.0813332 38.3404577,31.0190005 38.3064575,30.917 L34.7874575,24.576 C34.7421239,24.4853329 34.7194575,24.4003337 34.7194575,24.321 Z M43.7918525,32.753 L43.7918525,31.138 C43.7918525,30.2426622 44.1375157,29.4691699 44.8288525,28.8175 C45.5201893,28.1658301 46.353181,27.84 47.3278525,27.84 C48.2571905,27.84 49.0533492,28.137497 49.7163525,28.7325 C50.3793558,29.327503 50.7108525,30.0783288 50.7108525,30.985 C50.7108525,31.3250017 50.6711862,31.5998323 50.5918525,31.8095 C50.5125188,32.0191677 50.3878533,32.1664996 50.2178525,32.2515 C50.0478516,32.3365004 49.8891866,32.3903332 49.7418525,32.413 C49.5945184,32.4356668 49.4018537,32.447 49.1638525,32.447 L45.5768525,32.447 L45.5768525,32.838 C45.5768525,33.4046695 45.7808505,33.855165 46.1888525,34.1895 C46.5968545,34.523835 47.1295159,34.691 47.7868525,34.691 C48.2515215,34.691 48.6906838,34.5833344 49.1043525,34.368 C49.5180212,34.1526656 49.7701854,34.045 49.8608525,34.045 C50.0535201,34.045 50.2178518,34.1356658 50.3538525,34.317 C50.4898532,34.4983342 50.5578525,34.6739992 50.5578525,34.844 C50.5578525,35.1273348 50.2858552,35.4134986 49.7418525,35.7025 C49.1978498,35.9915014 48.5291898,36.136 47.7358525,36.136 C46.5798467,36.136 45.6335228,35.8243365 44.8968525,35.201 C44.1601821,34.5776635 43.7918525,33.7616717 43.7918525,32.753 Z M45.5768525,31.342 L48.3988525,31.342 C48.6481871,31.342 48.8153521,31.3080003 48.9003525,31.24 C48.9853529,31.1719997 49.0278525,31.036001 49.0278525,30.832 C49.0278525,30.3786644 48.8635208,29.9933349 48.5348525,29.676 C48.2061842,29.3586651 47.7981883,29.2 47.3108525,29.2 C46.8348501,29.2 46.4268542,29.3501652 46.0868525,29.6505 C45.7468508,29.9508348 45.5768525,30.333331 45.5768525,30.798 L45.5768525,31.342 Z M53.0512475,39.23 L53.0512475,28.52 C53.0512475,28.3499992 53.1334133,28.2111672 53.2977475,28.1035 C53.4620817,27.9958328 53.6632463,27.942 53.9012475,27.942 C54.1392487,27.942 54.33758,27.9958328 54.4962475,28.1035 C54.654915,28.2111672 54.7342475,28.3499992 54.7342475,28.52 L54.7342475,29.132 C54.9382485,28.7693315 55.2414122,28.4633346 55.6437475,28.214 C56.0460828,27.9646654 56.5022449,27.84 57.0122475,27.84 C57.8622517,27.84 58.5847445,28.1686634 59.1797475,28.826 C59.7747505,29.4833366 60.0722475,30.2709954 60.0722475,31.189 L60.0722475,32.753 C60.0722475,33.6370044 59.7719172,34.4218299 59.1712475,35.1075 C58.5705778,35.7931701 57.8735848,36.136 57.0802475,36.136 C56.5929117,36.136 56.1424162,36.005668 55.7287475,35.745 C55.3150788,35.484332 55.0175817,35.1726685 54.8362475,34.81 L54.8362475,39.23 C54.8362475,39.3886675 54.7455817,39.5274994 54.5642475,39.6465 C54.3829133,39.7655006 54.1675821,39.825 53.9182475,39.825 C53.6689129,39.825 53.4620817,39.7655006 53.2977475,39.6465 C53.1334133,39.5274994 53.0512475,39.3886675 53.0512475,39.23 Z M54.8362475,33.144 C54.8362475,33.3933346 55.0090791,33.6908316 55.3547475,34.0365 C55.7004159,34.3821684 56.0999119,34.555 56.5532475,34.555 C57.0065831,34.555 57.4089124,34.3708352 57.7602475,34.0025 C58.1115826,33.6341648 58.2872475,33.217669 58.2872475,32.753 L58.2872475,31.189 C58.2872475,30.7356644 58.1115826,30.3276685 57.7602475,29.965 C57.4089124,29.6023315 56.9952499,29.421 56.5192475,29.421 C56.0772453,29.421 55.6862492,29.5824984 55.3462475,29.9055 C55.0062458,30.2285016 54.8362475,30.6563307 54.8362475,31.189 L54.8362475,33.144 Z M62.4296425,35.813 C62.2369749,35.608999 62.1406425,35.3653348 62.1406425,35.082 C62.1406425,34.7986652 62.2369749,34.5578343 62.4296425,34.3595 C62.6223101,34.1611657 62.8659744,34.062 63.1606425,34.062 C63.4326439,34.062 63.6678082,34.1611657 63.8661425,34.3595 C64.0644768,34.5578343 64.1636425,34.7986652 64.1636425,35.082 C64.1636425,35.3540014 64.0644768,35.591999 63.8661425,35.796 C63.6678082,36.000001 63.4326439,36.102 63.1606425,36.102 C62.8659744,36.102 62.6223101,36.0056676 62.4296425,35.813 Z M70.9864325,35.405 L70.9864325,24.151 C70.9864325,23.9923325 71.0430986,23.8563339 71.1564325,23.743 C71.2697664,23.6296661 71.4114316,23.573 71.5814325,23.573 L74.8114325,23.573 C77.4181122,23.573 78.7214325,24.7289884 78.7214325,27.041 C78.7214325,28.0043381 78.5061013,28.7608306 78.0754325,29.3105 C77.6447637,29.8601694 77.0611028,30.2256658 76.3244325,30.407 L78.7044325,34.878 C78.7497661,34.9573337 78.7724325,35.0423329 78.7724325,35.133 C78.7724325,35.3596678 78.656267,35.5693324 78.4239325,35.762 C78.191598,35.9546676 77.9451005,36.051 77.6844325,36.051 C77.3897644,36.051 77.1517667,35.8753351 76.9704325,35.524 L74.4884325,30.662 L72.7714325,30.662 L72.7714325,35.405 C72.7714325,35.5863342 72.6836,35.7308328 72.5079325,35.8385 C72.332265,35.9461672 72.1197671,36 71.8704325,36 C71.6324313,36 71.4256,35.9461672 71.2499325,35.8385 C71.074265,35.7308328 70.9864325,35.5863342 70.9864325,35.405 Z M72.7714325,29.217 L74.8114325,29.217 C76.2167729,29.217 76.9194325,28.5426734 76.9194325,27.194 C76.9194325,25.8453266 76.2167729,25.171 74.8114325,25.171 L72.7714325,25.171 L72.7714325,29.217 Z M80.6368275,32.753 L80.6368275,31.138 C80.6368275,30.2426622 80.9824907,29.4691699 81.6738275,28.8175 C82.3651643,28.1658301 83.198156,27.84 84.1728275,27.84 C85.1021655,27.84 85.8983242,28.137497 86.5613275,28.7325 C87.2243308,29.327503 87.5558275,30.0783288 87.5558275,30.985 C87.5558275,31.3250017 87.5161612,31.5998323 87.4368275,31.8095 C87.3574938,32.0191677 87.2328283,32.1664996 87.0628275,32.2515 C86.8928266,32.3365004 86.7341616,32.3903332 86.5868275,32.413 C86.4394934,32.4356668 86.2468287,32.447 86.0088275,32.447 L82.4218275,32.447 L82.4218275,32.838 C82.4218275,33.4046695 82.6258255,33.855165 83.0338275,34.1895 C83.4418295,34.523835 83.9744909,34.691 84.6318275,34.691 C85.0964965,34.691 85.5356588,34.5833344 85.9493275,34.368 C86.3629962,34.1526656 86.6151604,34.045 86.7058275,34.045 C86.8984951,34.045 87.0628268,34.1356658 87.1988275,34.317 C87.3348282,34.4983342 87.4028275,34.6739992 87.4028275,34.844 C87.4028275,35.1273348 87.1308302,35.4134986 86.5868275,35.7025 C86.0428248,35.9915014 85.3741648,36.136 84.5808275,36.136 C83.4248217,36.136 82.4784978,35.8243365 81.7418275,35.201 C81.0051571,34.5776635 80.6368275,33.7616717 80.6368275,32.753 Z M82.4218275,31.342 L85.2438275,31.342 C85.4931621,31.342 85.6603271,31.3080003 85.7453275,31.24 C85.8303279,31.1719997 85.8728275,31.036001 85.8728275,30.832 C85.8728275,30.3786644 85.7084958,29.9933349 85.3798275,29.676 C85.0511592,29.3586651 84.6431633,29.2 84.1558275,29.2 C83.6798251,29.2 83.2718292,29.3501652 82.9318275,29.6505 C82.5918258,29.9508348 82.4218275,30.333331 82.4218275,30.798 L82.4218275,31.342 Z M89.4032225,34.776 C89.4032225,34.6059992 89.4627219,34.4303342 89.5817225,34.249 C89.7007231,34.0676658 89.8452216,33.977 90.0152225,33.977 C90.117223,33.977 90.2588883,34.042166 90.4402225,34.1725 C90.6215567,34.302834 90.865221,34.433166 91.1712225,34.5635 C91.477224,34.693834 91.8455537,34.759 92.2762225,34.759 C93.2395606,34.759 93.7212225,34.4530031 93.7212225,33.841 C93.7212225,33.5123317 93.5795572,33.2545009 93.2962225,33.0675 C93.0128877,32.8804991 92.6700578,32.7331672 92.2677225,32.6255 C91.8653872,32.5178328 91.4658911,32.3960007 91.0692225,32.26 C90.6725538,32.1239993 90.3325572,31.8916683 90.0492225,31.563 C89.7658877,31.2343317 89.6242225,30.8093359 89.6242225,30.288 C89.6242225,29.61933 89.8622201,29.0441691 90.3382225,28.5625 C90.8142249,28.0808309 91.5452176,27.84 92.5312225,27.84 C93.1772257,27.84 93.7637199,27.9391657 94.2907225,28.1375 C94.8177251,28.3358343 95.0812225,28.5709986 95.0812225,28.843 C95.0812225,29.0016675 95.0160565,29.1858323 94.8857225,29.3955 C94.7553885,29.6051677 94.5938901,29.71 94.4012225,29.71 C94.3332222,29.71 94.1008911,29.6278342 93.7042225,29.4635 C93.3075538,29.2991658 92.927891,29.217 92.5652225,29.217 C92.1118869,29.217 91.769057,29.318999 91.5367225,29.523 C91.304388,29.727001 91.1882225,29.9536654 91.1882225,30.203 C91.1882225,30.4750014 91.3298877,30.6903325 91.6132225,30.849 C91.8965572,31.0076675 92.2422205,31.1379995 92.6502225,31.24 C93.0582245,31.3420005 93.4633872,31.4666659 93.8657225,31.614 C94.2680578,31.7613341 94.6108877,32.0163315 94.8942225,32.379 C95.1775572,32.7416685 95.3192225,33.2063305 95.3192225,33.773 C95.3192225,34.5096704 95.0585584,35.0876646 94.5372225,35.507 C94.0158866,35.9263354 93.2792273,36.136 92.3272225,36.136 C91.5225518,36.136 90.8340587,35.9943348 90.2617225,35.711 C89.6893863,35.4276653 89.4032225,35.1160017 89.4032225,34.776 Z M97.6086175,33.348 L97.6086175,24.831 C97.6086175,24.6723325 97.6992833,24.5363339 97.8806175,24.423 C98.0619517,24.3096661 98.2659497,24.253 98.4926175,24.253 C98.7192853,24.253 98.9261166,24.3096661 99.1131175,24.423 C99.3001184,24.5363339 99.3936175,24.6723325 99.3936175,24.831 L99.3936175,27.942 L101.467617,27.942 C101.614952,27.942 101.73395,28.007166 101.824617,28.1375 C101.915285,28.267834 101.960617,28.4236658 101.960617,28.605 C101.960617,28.7863342 101.915285,28.942166 101.824617,29.0725 C101.73395,29.202834 101.614952,29.268 101.467617,29.268 L99.3936175,29.268 L99.3936175,33.348 C99.3936175,33.756002 99.48145,34.0449991 99.6571175,34.215 C99.832785,34.3850008 100.141615,34.47 100.583617,34.47 L101.178617,34.47 C101.416619,34.47 101.603617,34.5436659 101.739617,34.691 C101.875618,34.8383341 101.943617,35.0196656 101.943617,35.235 C101.943617,35.4503344 101.875618,35.6316659 101.739617,35.779 C101.603617,35.9263341 101.416619,36 101.178617,36 L100.583617,36 C98.6002742,36 97.6086175,35.1160088 97.6086175,33.348 Z M103.587012,33.892 C103.587012,32.9853288 103.927009,32.3535018 104.607012,31.9965 C105.287016,31.6394982 106.273006,31.461 107.565012,31.461 L108.313012,31.461 L108.313012,31.155 C108.313012,30.6563308 108.174181,30.2256685 107.896512,29.863 C107.618844,29.5003315 107.196682,29.319 106.630012,29.319 C106.142677,29.319 105.714848,29.4039991 105.346512,29.574 C104.978177,29.7440008 104.777013,29.829 104.743012,29.829 C104.550345,29.829 104.394513,29.7355009 104.275512,29.5485 C104.156512,29.3614991 104.097012,29.1546678 104.097012,28.928 C104.097012,28.6333319 104.371843,28.3783344 104.921512,28.163 C105.471182,27.9476656 106.052009,27.84 106.664012,27.84 C107.831352,27.84 108.69551,28.1544969 109.256512,28.7835 C109.817515,29.4125031 110.098012,30.1973286 110.098012,31.138 L110.098012,35.405 C110.098012,35.5636675 110.015847,35.7024994 109.851512,35.8215 C109.687178,35.9405006 109.480347,36 109.231012,36 C109.004345,36 108.81168,35.9405006 108.653012,35.8215 C108.494345,35.7024994 108.415012,35.5636675 108.415012,35.405 L108.415012,34.81 C107.655675,35.6940044 106.800017,36.136 105.848012,36.136 C105.190676,36.136 104.649515,35.9433353 104.224512,35.558 C103.79951,35.1726647 103.587012,34.617337 103.587012,33.892 Z M105.389012,33.671 C105.389012,34.0336685 105.491011,34.3084991 105.695012,34.4955 C105.899014,34.6825009 106.165344,34.776 106.494012,34.776 C106.924681,34.776 107.335511,34.5946685 107.726512,34.232 C108.117514,33.8693315 108.313012,33.484002 108.313012,33.076 L108.313012,32.447 L107.888012,32.447 C107.37801,32.447 106.961514,32.4696664 106.638512,32.515 C106.315511,32.5603336 106.026514,32.6793324 105.771512,32.872 C105.516511,33.0646676 105.389012,33.3309983 105.389012,33.671 Z M112.795407,35.405 L112.795407,28.52 C112.795407,28.3499992 112.877573,28.2111672 113.041907,28.1035 C113.206242,27.9958328 113.413073,27.942 113.662407,27.942 C113.889075,27.942 114.08174,27.9958328 114.240407,28.1035 C114.399075,28.2111672 114.478407,28.3499992 114.478407,28.52 L114.478407,29.268 C114.671075,28.8713313 114.962906,28.5341681 115.353907,28.2565 C115.744909,27.9788319 116.172739,27.84 116.637407,27.84 L117.181407,27.84 C117.362742,27.84 117.521407,27.9164992 117.657407,28.0695 C117.793408,28.2225008 117.861407,28.4066656 117.861407,28.622 C117.861407,28.8373344 117.793408,29.0243325 117.657407,29.183 C117.521407,29.3416675 117.362742,29.421 117.181407,29.421 L116.637407,29.421 C116.093405,29.421 115.614576,29.653331 115.200907,30.118 C114.787239,30.582669 114.580407,31.1833297 114.580407,31.92 L114.580407,35.405 C114.580407,35.5523341 114.489742,35.6883327 114.308407,35.813 C114.127073,35.9376673 113.911742,36 113.662407,36 C113.413073,36 113.206242,35.9376673 113.041907,35.813 C112.877573,35.6883327 112.795407,35.5523341 112.795407,35.405 Z M119.776802,33.348 L119.776802,24.831 C119.776802,24.6723325 119.867468,24.5363339 120.048802,24.423 C120.230137,24.3096661 120.434135,24.253 120.660802,24.253 C120.88747,24.253 121.094302,24.3096661 121.281302,24.423 C121.468303,24.5363339 121.561802,24.6723325 121.561802,24.831 L121.561802,27.942 L123.635802,27.942 C123.783137,27.942 123.902135,28.007166 123.992802,28.1375 C124.08347,28.267834 124.128802,28.4236658 124.128802,28.605 C124.128802,28.7863342 124.08347,28.942166 123.992802,29.0725 C123.902135,29.202834 123.783137,29.268 123.635802,29.268 L121.561802,29.268 L121.561802,33.348 C121.561802,33.756002 121.649635,34.0449991 121.825302,34.215 C122.00097,34.3850008 122.3098,34.47 122.751802,34.47 L123.346802,34.47 C123.584804,34.47 123.771802,34.5436659 123.907802,34.691 C124.043803,34.8383341 124.111802,35.0196656 124.111802,35.235 C124.111802,35.4503344 124.043803,35.6316659 123.907802,35.779 C123.771802,35.9263341 123.584804,36 123.346802,36 L122.751802,36 C120.768459,36 119.776802,35.1160088 119.776802,33.348 Z M126.180197,35.813 C125.98753,35.608999 125.891197,35.3653348 125.891197,35.082 C125.891197,34.7986652 125.98753,34.5578343 126.180197,34.3595 C126.372865,34.1611657 126.616529,34.062 126.911197,34.062 C127.183199,34.062 127.418363,34.1611657 127.616697,34.3595 C127.815032,34.5578343 127.914197,34.7986652 127.914197,35.082 C127.914197,35.3540014 127.815032,35.591999 127.616697,35.796 C127.418363,36.000001 127.183199,36.102 126.911197,36.102 C126.616529,36.102 126.372865,36.0056676 126.180197,35.813 Z M134.736987,35.405 L134.736987,24.151 C134.736987,23.9583324 134.82482,23.8138338 135.000487,23.7175 C135.176155,23.6211662 135.388653,23.573 135.637987,23.573 C135.887322,23.573 136.09982,23.6211662 136.275487,23.7175 C136.451155,23.8138338 136.538987,23.9583324 136.538987,24.151 L136.538987,35.405 C136.538987,35.5863342 136.451155,35.7308328 136.275487,35.8385 C136.09982,35.9461672 135.887322,36 135.637987,36 C135.399986,36 135.190322,35.9461672 135.008987,35.8385 C134.827653,35.7308328 134.736987,35.5863342 134.736987,35.405 Z M139.083382,23.437 C139.083382,23.3009993 139.154215,23.1848338 139.295882,23.0885 C139.43755,22.9921662 139.599048,22.944 139.780382,22.944 C139.961717,22.944 140.128882,22.9921662 140.281882,23.0885 C140.434883,23.1848338 140.511382,23.3009993 140.511382,23.437 L140.341382,25.834 C140.341382,25.9700007 140.293216,26.0889995 140.196882,26.191 C140.100549,26.2930005 139.961717,26.344 139.780382,26.344 C139.429047,26.344 139.253382,26.1740017 139.253382,25.834 L139.083382,23.437 Z M142.664777,35.405 L142.664777,28.52 C142.664777,28.3499992 142.746943,28.2111672 142.911277,28.1035 C143.075612,27.9958328 143.28811,27.942 143.548777,27.942 C143.764112,27.942 143.95111,27.9958328 144.109777,28.1035 C144.268445,28.2111672 144.347777,28.3499992 144.347777,28.52 L144.347777,29.132 C144.835113,28.2706624 145.588772,27.84 146.608777,27.84 C147.107447,27.84 147.552276,27.9958318 147.943277,28.3075 C148.334279,28.6191682 148.631776,29.0299974 148.835777,29.54 C149.119112,28.9846639 149.490275,28.5625014 149.949277,28.2735 C150.40828,27.9844986 150.892775,27.84 151.402777,27.84 C152.207448,27.84 152.901608,28.1431636 153.485277,28.7495 C154.068947,29.3558364 154.360777,30.1689949 154.360777,31.189 L154.360777,35.405 C154.360777,35.5523341 154.270112,35.6883327 154.088777,35.813 C153.907443,35.9376673 153.697779,36 153.459777,36 C153.23311,36 153.029112,35.9376673 152.847777,35.813 C152.666443,35.6883327 152.575777,35.5523341 152.575777,35.405 L152.575777,31.189 C152.575777,30.6336639 152.417112,30.1973349 152.099777,29.88 C151.782443,29.5626651 151.414113,29.404 150.994777,29.404 C150.575442,29.404 150.204279,29.5626651 149.881277,29.88 C149.558276,30.1973349 149.396777,30.6223307 149.396777,31.155 L149.396777,35.422 C149.396777,35.6146676 149.308945,35.7591662 149.133277,35.8555 C148.95761,35.9518338 148.745112,36 148.495777,36 C148.26911,36 148.065112,35.9518338 147.883777,35.8555 C147.702443,35.7591662 147.611777,35.6146676 147.611777,35.422 L147.611777,31.172 C147.611777,30.6619975 147.455946,30.2426683 147.144277,29.914 C146.832609,29.5853317 146.461446,29.421 146.030777,29.421 C145.600109,29.421 145.228946,29.5796651 144.917277,29.897 C144.605609,30.2143349 144.449777,30.6449973 144.449777,31.189 L144.449777,35.405 C144.449777,35.5523341 144.359112,35.6883327 144.177777,35.813 C143.996443,35.9376673 143.786779,36 143.548777,36 C143.299443,36 143.089778,35.9376673 142.919777,35.813 C142.749777,35.6883327 142.664777,35.5523341 142.664777,35.405 Z M160.843567,34.776 C160.843567,34.6059992 160.903067,34.4303342 161.022067,34.249 C161.141068,34.0676658 161.285567,33.977 161.455567,33.977 C161.557568,33.977 161.699233,34.042166 161.880567,34.1725 C162.061902,34.302834 162.305566,34.433166 162.611567,34.5635 C162.917569,34.693834 163.285899,34.759 163.716567,34.759 C164.679906,34.759 165.161567,34.4530031 165.161567,33.841 C165.161567,33.5123317 165.019902,33.2545009 164.736567,33.0675 C164.453233,32.8804991 164.110403,32.7331672 163.708067,32.6255 C163.305732,32.5178328 162.906236,32.3960007 162.509567,32.26 C162.112899,32.1239993 161.772902,31.8916683 161.489567,31.563 C161.206233,31.2343317 161.064567,30.8093359 161.064567,30.288 C161.064567,29.61933 161.302565,29.0441691 161.778567,28.5625 C162.25457,28.0808309 162.985563,27.84 163.971567,27.84 C164.617571,27.84 165.204065,27.9391657 165.731067,28.1375 C166.25807,28.3358343 166.521567,28.5709986 166.521567,28.843 C166.521567,29.0016675 166.456401,29.1858323 166.326067,29.3955 C166.195734,29.6051677 166.034235,29.71 165.841567,29.71 C165.773567,29.71 165.541236,29.6278342 165.144567,29.4635 C164.747899,29.2991658 164.368236,29.217 164.005567,29.217 C163.552232,29.217 163.209402,29.318999 162.977067,29.523 C162.744733,29.727001 162.628567,29.9536654 162.628567,30.203 C162.628567,30.4750014 162.770233,30.6903325 163.053567,30.849 C163.336902,31.0076675 163.682565,31.1379995 164.090567,31.24 C164.49857,31.3420005 164.903732,31.4666659 165.306067,31.614 C165.708403,31.7613341 166.051233,32.0163315 166.334567,32.379 C166.617902,32.7416685 166.759567,33.2063305 166.759567,33.773 C166.759567,34.5096704 166.498903,35.0876646 165.977567,35.507 C165.456232,35.9263354 164.719572,36.136 163.767567,36.136 C162.962897,36.136 162.274404,35.9943348 161.702067,35.711 C161.129731,35.4276653 160.843567,35.1160017 160.843567,34.776 Z M168.997962,32.787 L168.997962,28.537 C168.997962,28.3783325 169.088628,28.2395006 169.269962,28.1205 C169.451297,28.0014994 169.660961,27.942 169.898962,27.942 C170.136964,27.942 170.343795,28.0014994 170.519462,28.1205 C170.69513,28.2395006 170.782962,28.3783325 170.782962,28.537 L170.782962,32.787 C170.782962,33.2403356 170.955794,33.6483315 171.301462,34.011 C171.647131,34.3736685 172.052294,34.555 172.516962,34.555 C172.992965,34.555 173.400961,34.3765018 173.740962,34.0195 C174.080964,33.6624982 174.250962,33.251669 174.250962,32.787 L174.250962,28.52 C174.250962,28.3613325 174.338795,28.2253339 174.514462,28.112 C174.69013,27.9986661 174.902628,27.942 175.151962,27.942 C175.401297,27.942 175.608128,27.9986661 175.772462,28.112 C175.936797,28.2253339 176.018962,28.3613325 176.018962,28.52 L176.018962,32.787 C176.018962,33.6823378 175.673299,34.46433 174.981962,35.133 C174.290626,35.80167 173.468967,36.136 172.516962,36.136 C171.564958,36.136 170.740466,35.80167 170.043462,35.133 C169.346459,34.46433 168.997962,33.6823378 168.997962,32.787 Z M178.699357,35.405 L178.699357,28.52 C178.699357,28.3499992 178.781523,28.2111672 178.945857,28.1035 C179.110192,27.9958328 179.317023,27.942 179.566357,27.942 C179.793025,27.942 179.98569,27.9958328 180.144357,28.1035 C180.303025,28.2111672 180.382357,28.3499992 180.382357,28.52 L180.382357,29.268 C180.575025,28.8713313 180.866856,28.5341681 181.257857,28.2565 C181.648859,27.9788319 182.076689,27.84 182.541357,27.84 L183.085357,27.84 C183.266692,27.84 183.425357,27.9164992 183.561357,28.0695 C183.697358,28.2225008 183.765357,28.4066656 183.765357,28.622 C183.765357,28.8373344 183.697358,29.0243325 183.561357,29.183 C183.425357,29.3416675 183.266692,29.421 183.085357,29.421 L182.541357,29.421 C181.997355,29.421 181.518526,29.653331 181.104857,30.118 C180.691189,30.582669 180.484357,31.1833297 180.484357,31.92 L180.484357,35.405 C180.484357,35.5523341 180.393692,35.6883327 180.212357,35.813 C180.031023,35.9376673 179.815692,36 179.566357,36 C179.317023,36 179.110192,35.9376673 178.945857,35.813 C178.781523,35.6883327 178.699357,35.5523341 178.699357,35.405 Z M185.187752,32.753 L185.187752,31.138 C185.187752,30.2426622 185.533416,29.4691699 186.224752,28.8175 C186.916089,28.1658301 187.749081,27.84 188.723752,27.84 C189.65309,27.84 190.449249,28.137497 191.112252,28.7325 C191.775256,29.327503 192.106752,30.0783288 192.106752,30.985 C192.106752,31.3250017 192.067086,31.5998323 191.987752,31.8095 C191.908419,32.0191677 191.783753,32.1664996 191.613752,32.2515 C191.443752,32.3365004 191.285087,32.3903332 191.137752,32.413 C190.990418,32.4356668 190.797754,32.447 190.559752,32.447 L186.972752,32.447 L186.972752,32.838 C186.972752,33.4046695 187.17675,33.855165 187.584752,34.1895 C187.992755,34.523835 188.525416,34.691 189.182752,34.691 C189.647421,34.691 190.086584,34.5833344 190.500252,34.368 C190.913921,34.1526656 191.166085,34.045 191.256752,34.045 C191.44942,34.045 191.613752,34.1356658 191.749752,34.317 C191.885753,34.4983342 191.953752,34.6739992 191.953752,34.844 C191.953752,35.1273348 191.681755,35.4134986 191.137752,35.7025 C190.59375,35.9915014 189.92509,36.136 189.131752,36.136 C187.975747,36.136 187.029423,35.8243365 186.292752,35.201 C185.556082,34.5776635 185.187752,33.7616717 185.187752,32.753 Z M186.972752,31.342 L189.794752,31.342 C190.044087,31.342 190.211252,31.3080003 190.296252,31.24 C190.381253,31.1719997 190.423752,31.036001 190.423752,30.832 C190.423752,30.3786644 190.259421,29.9933349 189.930752,29.676 C189.602084,29.3586651 189.194088,29.2 188.706752,29.2 C188.23075,29.2 187.822754,29.3501652 187.482752,29.6505 C187.142751,29.9508348 186.972752,30.333331 186.972752,30.798 L186.972752,31.342 Z M194.345147,35.813 C194.15248,35.608999 194.056147,35.3653348 194.056147,35.082 C194.056147,34.7986652 194.15248,34.5578343 194.345147,34.3595 C194.537815,34.1611657 194.781479,34.062 195.076147,34.062 C195.348149,34.062 195.583313,34.1611657 195.781647,34.3595 C195.979982,34.5578343 196.079147,34.7986652 196.079147,35.082 C196.079147,35.3540014 195.979982,35.591999 195.781647,35.796 C195.583313,36.000001 195.348149,36.102 195.076147,36.102 C194.781479,36.102 194.537815,36.0056676 194.345147,35.813 Z" id="path-1"></path>
    </defs>
    <g id="[Screens]" stroke="none" stroke-width="1" fill="none" fill-rule="evenodd">
        <g id="ambient-mode" transform="translate(-809.000000, -268.000000)" fill-rule="nonzero">
            <g id="modal_restart" transform="translate(771.000000, 174.000000)">
                <g id="button_restart_confirm_hover" transform="translate(38.000000, 94.000000)">
                    <rect id="Rectangle" stroke="#A10000" stroke-width="2" fill="#A10000" x="1" y="1" width="228" height="58" rx="2"></rect>
                    <g id="Yep.Restart.I'msure." fill="#FFFFFF">
                        <use xlink:href="#path-1"></use>
                        <use xlink:href="#path-1"></use>
                    </g>
                </g>
            </g>
        </g>
    </g>
</svg>