<?xml version="1.0" encoding="UTF-8"?>
<svg width="126px" height="52px" viewBox="0 0 126 52" version="1.1" xmlns="http://www.w3.org/2000/svg" xmlns:xlink="http://www.w3.org/1999/xlink">
    <!-- Generator: Sketch 53.1 (72631) - https://sketchapp.com -->
    <title>button_sow</title>
    <desc>Created with Sketch.</desc>
    <g id="[Screens]" stroke="none" stroke-width="1" fill="none" fill-rule="evenodd">
        <g id="game-mode-settings" transform="translate(-664.000000, -765.000000)" fill-rule="nonzero">
            <g id="sew-button" transform="translate(665.000000, 766.000000)">
                <g id="button_sow">
                    <rect id="button" stroke="#111111" stroke-width="1.39571629" stroke-linecap="round" stroke-linejoin="round" x="0" y="0" width="124.110101" height="49.6440406" rx="1.39571629"></rect>
                    <path d="M36.5,31.576 C36.5,31.383999 36.5759992,31.188001 36.728,30.988 C36.8800008,30.787999 37.0439991,30.688 37.22,30.688 C37.3480006,30.688 37.507999,30.791999 37.7,31 L38.372,31.696 C38.6120012,31.9520013 38.9919974,32.179999 39.512,32.38 C40.0320026,32.580001 40.6359966,32.68 41.324,32.68 C42.4600057,32.68 43.3399969,32.3960028 43.964,31.828 C44.5880031,31.2599972 44.9,30.4400054 44.9,29.368 C44.9,28.6479964 44.7520015,28.0360025 44.456,27.532 C44.1599985,27.0279975 43.7800023,26.6400014 43.316,26.368 C42.8679978,26.0799986 42.3560029,25.8240011 41.78,25.6 L40.052,24.928 C39.4759971,24.7039989 38.9600023,24.4360016 38.504,24.124 C38.0479977,23.8119984 37.6720015,23.3720028 37.376,22.804 C37.0799985,22.2359972 36.932,21.5600039 36.932,20.776 C36.932,19.9439958 37.0879984,19.228003 37.4,18.628 C37.7120016,18.027997 38.1319974,17.5760015 38.66,17.272 C39.1880026,16.9679985 39.7279972,16.7480007 40.28,16.612 C40.8320028,16.4759993 41.411997,16.408 42.02,16.408 C42.9960049,16.408 43.9119957,16.5479986 44.768,16.828 C45.6240043,17.1080014 46.052,17.4559979 46.052,17.872 C46.052,18.064001 45.9840007,18.259999 45.848,18.46 C45.7119993,18.660001 45.548001,18.76 45.356,18.76 C45.2599995,18.76 45.0760014,18.6840008 44.804,18.532 C44.5319986,18.3799992 44.1520024,18.2280008 43.664,18.076 C43.1759976,17.9239992 42.6200031,17.848 41.996,17.848 C40.987995,17.848 40.1560033,18.0639978 39.5,18.496 C38.8439967,18.9280022 38.516,19.639995 38.516,20.632 C38.516,21.3200034 38.711998,21.8959977 39.104,22.36 C39.496002,22.8240023 39.987997,23.159999 40.58,23.368 C41.172003,23.576001 41.8119966,23.8239986 42.5,24.112 C43.1880034,24.4000014 43.827997,24.7079984 44.42,25.036 C45.012003,25.3640016 45.503998,25.8839964 45.896,26.596 C46.288002,27.3080036 46.484,28.1839948 46.484,29.224 C46.484,30.8720082 46.0280046,32.1079959 45.116,32.932 C44.2039954,33.7560041 42.9720078,34.168 41.42,34.168 C40.027993,34.168 38.8600047,33.868003 37.916,33.268 C36.9719953,32.667997 36.5,32.1040026 36.5,31.576 Z M54.3639998,29.008 L54.3639998,21.568 C54.3639998,19.8079912 54.8159953,18.5160041 55.7199998,17.692 C56.6240043,16.8679959 57.8359922,16.456 59.3559998,16.456 C60.8760074,16.456 62.0879953,16.8679959 62.9919998,17.692 C63.8960043,18.5160041 64.3479998,19.8079912 64.3479998,21.568 L64.3479998,29.008 C64.3479998,30.7840089 63.8960043,32.0839959 62.9919998,32.908 C62.0879953,33.7320041 60.8760074,34.144 59.3559998,34.144 C57.8359922,34.144 56.6240043,33.7320041 55.7199998,32.908 C54.8159953,32.0839959 54.3639998,30.7840089 54.3639998,29.008 Z M55.9479998,29.008 C55.9479998,31.4560122 57.0839884,32.68 59.3559998,32.68 C61.6280111,32.68 62.7639998,31.4560122 62.7639998,29.008 L62.7639998,21.568 C62.7639998,19.1359878 61.6280111,17.92 59.3559998,17.92 C57.0839884,17.92 55.9479998,19.1359878 55.9479998,21.568 L55.9479998,29.008 Z M70.7479995,17.104 C70.7479995,16.9279991 70.8439986,16.7760006 71.0359995,16.648 C71.2280005,16.5199994 71.4359984,16.456 71.6599995,16.456 C71.9960012,16.456 72.2039991,16.5919986 72.2839995,16.864 L76.4359995,31.6 L78.8359995,22.648 C78.9159999,22.2799982 79.1959971,22.096 79.6759995,22.096 C80.1080017,22.096 80.379999,22.2799982 80.4919995,22.648 L82.8919995,31.6 L87.0439995,16.864 C87.1239999,16.5919986 87.3319979,16.456 87.6679995,16.456 C87.8920007,16.456 88.0999986,16.5199994 88.2919995,16.648 C88.4840005,16.7760006 88.5799995,16.9279991 88.5799995,17.104 C88.5799995,17.1840004 88.5719996,17.2479998 88.5559995,17.296 L83.8519995,33.568 C83.7239989,33.9520019 83.4040021,34.144 82.8919995,34.144 C82.3639969,34.144 82.052,33.9520019 81.9559995,33.568 L79.6759995,25.096 L77.3959995,33.568 C77.2999991,33.9520019 76.9880022,34.144 76.4599995,34.144 C75.9319969,34.144 75.6120001,33.9520019 75.4999995,33.568 L70.7719995,17.296 C70.7559995,17.2479998 70.7479995,17.1840004 70.7479995,17.104 Z" id="SOW" fill="#111111"></path>
                </g>
            </g>
        </g>
    </g>
</svg>