<?xml version="1.0" encoding="UTF-8"?>
<svg width="166px" height="128px" viewBox="0 0 166 128" version="1.1" xmlns="http://www.w3.org/2000/svg" xmlns:xlink="http://www.w3.org/1999/xlink">
    <!-- Generator: Sketch 58 (84663) - https://sketch.com -->
    <title>game mode</title>
    <desc>Created with Sketch.</desc>
    <g id="Redesign" stroke="none" stroke-width="1" fill="none" fill-rule="evenodd">
        <g id="landing-(dark)" transform="translate(-468.000000, -754.000000)" fill-rule="nonzero">
            <g id="title_landing" transform="translate(221.500000, 12.000000)">
                <g id="buttons" transform="translate(245.500000, 740.799999)">
                    <g id="game-mode" transform="translate(0.852438, 0.541395)">
                        <rect id="button-bg" fill="#202020" x="0.147562138" y="0.658606319" width="166" height="128"></rect>
                        <path d="M25.0295619,123.175002 L25.0295619,113.641002 C25.0295619,113.529002 25.0715614,113.442669 25.1555619,113.382002 C25.2395623,113.321335 25.3375613,113.291002 25.4495619,113.291002 L27.7455619,113.291002 C28.1748973,113.291002 28.5482269,113.323668 28.8655619,113.389002 C29.1828968,113.454336 29.4792272,113.571001 29.7545619,113.739002 C30.0298966,113.907003 30.2398945,114.152 30.3845619,114.474002 C30.5292293,114.796004 30.6015619,115.195 30.6015619,115.671002 C30.6015619,116.249672 30.4942296,116.739667 30.2795619,117.141002 C30.0648941,117.542337 29.7755637,117.822335 29.4115619,117.981002 C29.8782309,118.16767 30.2352273,118.447667 30.4825619,118.821002 C30.7298964,119.194337 30.8535619,119.716999 30.8535619,120.389002 L30.8535619,120.641002 C30.8535619,121.649007 30.6015644,122.381666 30.0975619,122.839002 C29.5935593,123.296338 28.9215661,123.525002 28.0815619,123.525002 L25.4495619,123.525002 C25.3188945,123.525002 25.2162289,123.490002 25.1415619,123.420002 C25.0668948,123.350002 25.0295619,123.268336 25.0295619,123.175002 Z M25.9395619,122.671002 L27.9695619,122.671002 C29.2762351,122.671002 29.9295619,121.980342 29.9295619,120.599002 L29.9295619,120.361002 C29.9295619,119.035662 29.2762351,118.373002 27.9695619,118.373002 L25.9395619,118.373002 L25.9395619,122.671002 Z M25.9395619,117.575002 L27.7735619,117.575002 C28.4362318,117.575002 28.919227,117.437337 29.2225619,117.162002 C29.5258967,116.886667 29.6775619,116.422339 29.6775619,115.769002 C29.6775619,115.162332 29.5095635,114.740003 29.1735619,114.502002 C28.8375602,114.264001 28.3522317,114.145002 27.7175619,114.145002 L25.9395619,114.145002 L25.9395619,117.575002 Z M33.0795619,123.161002 L33.0795619,117.239002 C33.0795619,117.145668 33.1215615,117.066336 33.2055619,117.001002 C33.2895623,116.935668 33.3968946,116.903002 33.5275619,116.903002 C33.6488958,116.903002 33.7515615,116.935668 33.8355619,117.001002 C33.9195623,117.066336 33.9615619,117.145668 33.9615619,117.239002 L33.9615619,117.925002 C34.1295627,117.617001 34.3768936,117.35567 34.7035619,117.141002 C35.0302302,116.926334 35.4082264,116.819002 35.8375619,116.819002 L36.3275619,116.819002 C36.4208957,116.819002 36.5048948,116.861002 36.5795619,116.945002 C36.6542289,117.029003 36.6915619,117.127002 36.6915619,117.239002 C36.6915619,117.351003 36.6542289,117.449002 36.5795619,117.533002 C36.5048948,117.617003 36.4208957,117.659002 36.3275619,117.659002 L35.8375619,117.659002 C35.3522261,117.659002 34.9228971,117.848 34.5495619,118.226002 C34.1762267,118.604004 33.9895619,119.096332 33.9895619,119.703002 L33.9895619,123.161002 C33.9895619,123.254336 33.945229,123.338335 33.8565619,123.413002 C33.7678948,123.487669 33.6582292,123.525002 33.5275619,123.525002 C33.4062279,123.525002 33.301229,123.487669 33.2125619,123.413002 C33.1238948,123.338335 33.0795619,123.254336 33.0795619,123.161002 Z M37.9095619,120.963002 L37.9095619,119.395002 C37.9095619,118.694999 38.1708926,118.090671 38.6935619,117.582002 C39.2162312,117.073333 39.8462249,116.819002 40.5835619,116.819002 C41.2928988,116.819002 41.9065593,117.061666 42.4245619,117.547002 C42.9425645,118.032338 43.2015619,118.638998 43.2015619,119.367002 C43.2015619,119.628337 43.1712289,119.838335 43.1105619,119.997002 C43.0498949,120.15567 42.9518959,120.267668 42.8165619,120.333002 C42.6812279,120.398336 42.5575625,120.440335 42.4455619,120.459002 C42.3335614,120.477669 42.1795629,120.487002 41.9835619,120.487002 L38.8195619,120.487002 L38.8195619,121.005002 C38.8195619,121.555672 39.0178933,121.996667 39.4145619,122.328002 C39.8112306,122.659337 40.3222255,122.825002 40.9475619,122.825002 C41.2648968,122.825002 41.5425607,122.778336 41.7805619,122.685002 C41.9709629,122.610335 42.1255219,122.535669 42.2442418,122.461002 L42.3265619,122.405002 C42.4525625,122.311668 42.5528949,122.265002 42.6275619,122.265002 C42.7302291,122.265002 42.8212282,122.314002 42.9005619,122.412002 C42.9798956,122.510003 43.0195619,122.605668 43.0195619,122.699002 C43.0195619,122.895003 42.8188973,123.098001 42.4175619,123.308002 C42.0162266,123.518003 41.5168982,123.623002 40.9195619,123.623002 C40.0328908,123.623002 39.3095647,123.378005 38.7495619,122.888002 C38.1895591,122.398 37.9095619,121.756339 37.9095619,120.963002 Z M38.8195619,119.815002 L41.6195619,119.815002 C41.8995633,119.815002 42.0862281,119.784669 42.1795619,119.724002 C42.2728957,119.663335 42.3195619,119.535003 42.3195619,119.339002 C42.3195619,118.872333 42.1538969,118.461671 41.8225619,118.107002 C41.4912269,117.752334 41.0735644,117.575002 40.5695619,117.575002 C40.0842262,117.575002 39.6712303,117.743 39.3305619,118.079002 C38.9898935,118.415004 38.8195619,118.816333 38.8195619,119.283002 L38.8195619,119.815002 Z M45.0215619,120.963002 L45.0215619,119.395002 C45.0215619,118.694999 45.2828927,118.090671 45.8055619,117.582002 C46.3282312,117.073333 46.9582249,116.819002 47.6955619,116.819002 C48.4048988,116.819002 49.0185594,117.061666 49.5365619,117.547002 C50.0545645,118.032338 50.3135619,118.638998 50.3135619,119.367002 C50.3135619,119.628337 50.2832289,119.838335 50.2225619,119.997002 C50.161895,120.15567 50.063896,120.267668 49.9285619,120.333002 C49.7932279,120.398336 49.6695625,120.440335 49.5575619,120.459002 C49.4455614,120.477669 49.2915629,120.487002 49.0955619,120.487002 L45.9315619,120.487002 L45.9315619,121.005002 C45.9315619,121.555672 46.1298933,121.996667 46.5265619,122.328002 C46.9232306,122.659337 47.4342255,122.825002 48.0595619,122.825002 C48.3768969,122.825002 48.6545608,122.778336 48.8925619,122.685002 C49.0829629,122.610335 49.2375219,122.535669 49.3562418,122.461002 L49.4385619,122.405002 C49.5645626,122.311668 49.6648949,122.265002 49.7395619,122.265002 C49.8422291,122.265002 49.9332282,122.314002 50.0125619,122.412002 C50.0918957,122.510003 50.1315619,122.605668 50.1315619,122.699002 C50.1315619,122.895003 49.9308973,123.098001 49.5295619,123.308002 C49.1282266,123.518003 48.6288983,123.623002 48.0315619,123.623002 C47.1448908,123.623002 46.4215647,123.378005 45.8615619,122.888002 C45.3015591,122.398 45.0215619,121.756339 45.0215619,120.963002 Z M45.9315619,119.815002 L48.7315619,119.815002 C49.0115633,119.815002 49.1982281,119.784669 49.2915619,119.724002 C49.3848957,119.663335 49.4315619,119.535003 49.4315619,119.339002 C49.4315619,118.872333 49.2658969,118.461671 48.9345619,118.107002 C48.603227,117.752334 48.1855645,117.575002 47.6815619,117.575002 C47.1962262,117.575002 46.7832303,117.743 46.4425619,118.079002 C46.1018936,118.415004 45.9315619,118.816333 45.9315619,119.283002 L45.9315619,119.815002 Z M52.133562,120.963002 L52.133562,119.437002 C52.133562,118.718332 52.3785595,118.102338 52.868562,117.589002 C53.3585644,117.075666 53.9488919,116.819002 54.639562,116.819002 C55.0688975,116.819002 55.4445604,116.921668 55.766562,117.127002 C56.0885636,117.332336 56.3288945,117.584334 56.487562,117.883002 L56.487562,113.179002 C56.487562,113.085668 56.5342282,113.006336 56.627562,112.941002 C56.7208958,112.875668 56.8328947,112.843002 56.963562,112.843002 C57.0942293,112.843002 57.1992282,112.875668 57.278562,112.941002 C57.3578957,113.006336 57.397562,113.085668 57.397562,113.179002 L57.397562,123.161002 C57.397562,123.254336 57.3555624,123.338335 57.271562,123.413002 C57.1875616,123.487669 57.0848959,123.525002 56.963562,123.525002 C56.8515614,123.525002 56.7512291,123.487669 56.662562,123.413002 C56.5738949,123.338335 56.529562,123.254336 56.529562,123.161002 L56.529562,122.545002 C56.3708945,122.84367 56.1165637,123.098001 55.766562,123.308002 C55.4165602,123.518003 55.0315641,123.623002 54.611562,123.623002 C53.948892,123.623002 53.3702311,123.354671 52.875562,122.818002 C52.3808928,122.281333 52.133562,121.663006 52.133562,120.963002 Z M53.043562,120.963002 C53.043562,121.429671 53.2162269,121.849667 53.561562,122.223002 C53.906897,122.596337 54.312893,122.783002 54.779562,122.783002 C55.2275642,122.783002 55.6242269,122.615004 55.969562,122.279002 C56.314897,121.943 56.487562,121.649003 56.487562,121.397002 L56.487562,119.437002 C56.487562,118.904999 56.3172303,118.47567 55.976562,118.149002 C55.6358936,117.822334 55.2415642,117.659002 54.793562,117.659002 C54.3175596,117.659002 53.906897,117.841 53.561562,118.205002 C53.2162269,118.569004 53.043562,118.979666 53.043562,119.437002 L53.043562,120.963002 Z M63.361562,123.161002 L63.361562,113.179002 C63.361562,113.085668 63.4035616,113.006336 63.487562,112.941002 C63.5715624,112.875668 63.6788947,112.843002 63.809562,112.843002 C63.9402293,112.843002 64.0498949,112.875668 64.138562,112.941002 C64.2272291,113.006336 64.271562,113.085668 64.271562,113.179002 L64.271562,117.883002 C64.4302295,117.584334 64.6705604,117.332336 64.992562,117.127002 C65.3145636,116.921668 65.6902265,116.819002 66.119562,116.819002 C66.7915654,116.819002 67.3725596,117.075666 67.862562,117.589002 C68.3525645,118.102338 68.597562,118.718332 68.597562,119.437002 L68.597562,123.161002 C68.597562,123.273003 68.5532291,123.361668 68.464562,123.427002 C68.3758949,123.492336 68.2662293,123.525002 68.135562,123.525002 C68.0235615,123.525002 67.9208958,123.492336 67.827562,123.427002 C67.7342282,123.361668 67.687562,123.273003 67.687562,123.161002 L67.687562,119.437002 C67.687562,118.979666 67.5148971,118.569004 67.169562,118.205002 C66.824227,117.841 66.418231,117.659002 65.951562,117.659002 C65.5128932,117.659002 65.1232304,117.822334 64.782562,118.149002 C64.4418937,118.47567 64.271562,118.904999 64.271562,119.437002 L64.271562,123.161002 C64.271562,123.254336 64.2248958,123.338335 64.131562,123.413002 C64.0382282,123.487669 63.930896,123.525002 63.809562,123.525002 C63.6882281,123.525002 63.5832291,123.487669 63.494562,123.413002 C63.4058949,123.338335 63.361562,123.254336 63.361562,123.161002 Z M70.1935621,117.253002 C70.1935621,117.141002 70.2542281,117.040669 70.3755621,116.952002 C70.496896,116.863335 70.6228947,116.819002 70.7535621,116.819002 C70.9308963,116.819002 71.0382285,116.884335 71.0755621,117.015002 L72.9935621,122.167002 L74.7995621,117.015002 C74.8555623,116.884335 74.958228,116.819002 75.1075621,116.819002 C75.228896,116.819002 75.3525614,116.863335 75.4785621,116.952002 C75.6045627,117.040669 75.6675621,117.145668 75.6675621,117.267002 C75.6675621,117.323002 75.6582288,117.360335 75.6395621,117.379002 L73.2175621,123.945002 L73.0651179,124.318335 L73.0651179,124.318335 L72.9445621,124.603002 C72.809228,124.920337 72.6948959,125.149001 72.6015621,125.289002 L72.2375621,125.849002 C72.0788946,126.082337 71.9272294,126.250335 71.7825621,126.353002 C71.6378947,126.455669 71.4628964,126.551335 71.2575621,126.640002 C71.0522277,126.728669 70.8422298,126.773002 70.6275621,126.773002 C70.3475607,126.773002 70.2075621,126.63767 70.2075621,126.367002 C70.2075621,126.122001 70.2790197,125.984189 70.4219368,125.953565 L70.4875621,125.947002 C70.9168975,125.947002 71.3158935,125.688005 71.6845621,125.170002 C72.0532306,124.652 72.3308945,124.010339 72.5175621,123.245002 L70.2355621,117.379002 C70.2075619,117.332335 70.1935621,117.290336 70.1935621,117.253002 Z M77.4595621,123.161002 L77.4595621,113.179002 C77.4595621,113.085668 77.5015617,113.006336 77.5855621,112.941002 C77.6695625,112.875668 77.7768948,112.843002 77.9075621,112.843002 C78.0382294,112.843002 78.147895,112.875668 78.2365621,112.941002 C78.3252292,113.006336 78.3695621,113.085668 78.3695621,113.179002 L78.3695621,117.883002 C78.5375629,117.575001 78.7825605,117.32067 79.1045621,117.120002 C79.4265637,116.919334 79.8022266,116.819002 80.2315621,116.819002 C80.9222322,116.819002 81.5125596,117.075666 82.0025621,117.589002 C82.4925645,118.102338 82.7375621,118.718332 82.7375621,119.437002 L82.7375621,120.963002 C82.7375621,121.663006 82.4878979,122.281333 81.9885621,122.818002 C81.4892263,123.354671 80.9128987,123.623002 80.2595621,123.623002 C79.83956,123.623002 79.4522305,123.518003 79.0975621,123.308002 C78.7428936,123.098001 78.4908962,122.84367 78.3415621,122.545002 L78.3415621,123.161002 C78.3415621,123.254336 78.2995625,123.338335 78.2155621,123.413002 C78.1315617,123.487669 78.028896,123.525002 77.9075621,123.525002 C77.7862281,123.525002 77.6812292,123.487669 77.5925621,123.413002 C77.503895,123.338335 77.4595621,123.254336 77.4595621,123.161002 Z M78.3695621,121.397002 C78.3695621,121.649003 78.5445603,121.943 78.8945621,122.279002 C79.2445638,122.615004 79.6435598,122.783002 80.0915621,122.783002 C80.5582311,122.783002 80.964227,122.596337 81.3095621,122.223002 C81.6548971,121.849667 81.8275621,121.429671 81.8275621,120.963002 L81.8275621,119.437002 C81.8275621,118.979666 81.6548971,118.569004 81.3095621,118.205002 C80.964227,117.841 80.5535645,117.659002 80.0775621,117.659002 C79.6295598,117.659002 79.2328971,117.822334 78.8875621,118.149002 C78.542227,118.47567 78.3695621,118.904999 78.3695621,119.437002 L78.3695621,121.397002 Z M84.9355621,123.161002 L84.9355621,117.239002 C84.9355621,117.145668 84.9775617,117.066336 85.0615621,117.001002 C85.1455625,116.935668 85.2528948,116.903002 85.3835621,116.903002 C85.5048961,116.903002 85.6075617,116.935668 85.6915621,117.001002 C85.7755625,117.066336 85.8175621,117.145668 85.8175621,117.239002 L85.8175621,117.925002 C85.985563,117.617001 86.2328938,117.35567 86.5595621,117.141002 C86.8862304,116.926334 87.2642266,116.819002 87.6935621,116.819002 L88.1835621,116.819002 C88.2768959,116.819002 88.3608951,116.861002 88.4355621,116.945002 C88.5102292,117.029003 88.5475621,117.127002 88.5475621,117.239002 C88.5475621,117.351003 88.5102292,117.449002 88.4355621,117.533002 C88.3608951,117.617003 88.2768959,117.659002 88.1835621,117.659002 L87.6935621,117.659002 C87.2082264,117.659002 86.7788973,117.848 86.4055621,118.226002 C86.0322269,118.604004 85.8455621,119.096332 85.8455621,119.703002 L85.8455621,123.161002 C85.8455621,123.254336 85.8012292,123.338335 85.7125621,123.413002 C85.623895,123.487669 85.5142294,123.525002 85.3835621,123.525002 C85.2622282,123.525002 85.1572292,123.487669 85.0685621,123.413002 C84.979895,123.338335 84.9355621,123.254336 84.9355621,123.161002 Z M90.2695621,114.775002 C90.1482282,114.653668 90.0875621,114.51367 90.0875621,114.355002 C90.0875621,114.196335 90.1482282,114.061003 90.2695621,113.949002 C90.3908961,113.837002 90.5402279,113.781002 90.7175621,113.781002 C90.885563,113.781002 91.0278949,113.837002 91.1445621,113.949002 C91.2612294,114.061003 91.3195621,114.196335 91.3195621,114.355002 C91.3195621,114.51367 91.2612294,114.651335 91.1445621,114.768002 C91.0278949,114.884669 90.885563,114.943002 90.7175621,114.943002 C90.5402279,114.943002 90.3908961,114.887003 90.2695621,114.775002 Z M90.2695621,123.161002 L90.2695621,117.239002 C90.2695621,117.145668 90.3115617,117.066336 90.3955621,117.001002 C90.4795626,116.935668 90.5868948,116.903002 90.7175621,116.903002 C90.8482295,116.903002 90.957895,116.935668 91.0465621,117.001002 C91.1352292,117.066336 91.1795621,117.145668 91.1795621,117.239002 L91.1795621,123.161002 C91.1795621,123.254336 91.1328959,123.338335 91.0395621,123.413002 C90.9462283,123.487669 90.8388961,123.525002 90.7175621,123.525002 C90.5962282,123.525002 90.4912292,123.487669 90.4025621,123.413002 C90.313895,123.338335 90.2695621,123.254336 90.2695621,123.161002 Z M93.3915622,120.963002 L93.3915622,119.437002 C93.3915622,118.718332 93.6365597,118.102338 94.1265622,117.589002 C94.6165646,117.075666 95.206892,116.819002 95.8975622,116.819002 C96.3268976,116.819002 96.7025606,116.921668 97.0245622,117.127002 C97.3465638,117.332336 97.5868947,117.584334 97.7455622,117.883002 L97.7455622,113.179002 C97.7455622,113.085668 97.7922284,113.006336 97.8855622,112.941002 C97.978896,112.875668 98.0908948,112.843002 98.2215622,112.843002 C98.3522295,112.843002 98.4572284,112.875668 98.5365622,112.941002 C98.6158959,113.006336 98.6555622,113.085668 98.6555622,113.179002 L98.6555622,123.161002 C98.6555622,123.254336 98.6135626,123.338335 98.5295622,123.413002 C98.4455617,123.487669 98.3428961,123.525002 98.2215622,123.525002 C98.1095616,123.525002 98.0092293,123.487669 97.9205622,123.413002 C97.8318951,123.338335 97.7875622,123.254336 97.7875622,123.161002 L97.7875622,122.545002 C97.6288947,122.84367 97.3745639,123.098001 97.0245622,123.308002 C96.6745604,123.518003 96.2895643,123.623002 95.8695622,123.623002 C95.2068922,123.623002 94.6282313,123.354671 94.1335622,122.818002 C93.638893,122.281333 93.3915622,121.663006 93.3915622,120.963002 Z M94.3015622,120.963002 C94.3015622,121.429671 94.4742271,121.849667 94.8195622,122.223002 C95.1648972,122.596337 95.5708932,122.783002 96.0375622,122.783002 C96.4855644,122.783002 96.8822271,122.615004 97.2275622,122.279002 C97.5728972,121.943 97.7455622,121.649003 97.7455622,121.397002 L97.7455622,119.437002 C97.7455622,118.904999 97.5752305,118.47567 97.2345622,118.149002 C96.8938938,117.822334 96.4995644,117.659002 96.0515622,117.659002 C95.5755598,117.659002 95.1648972,117.841 94.8195622,118.205002 C94.4742271,118.569004 94.3015622,118.979666 94.3015622,119.437002 L94.3015622,120.963002 Z M104.619562,126.423002 L104.619562,117.239002 C104.619562,117.145668 104.661562,117.066336 104.745562,117.001002 C104.829563,116.935668 104.936895,116.903002 105.067562,116.903002 C105.188896,116.903002 105.291562,116.935668 105.375562,117.001002 C105.459563,117.066336 105.501562,117.145668 105.501562,117.239002 L105.501562,117.883002 C105.669563,117.584334 105.916894,117.332336 106.243562,117.127002 C106.570231,116.921668 106.948227,116.819002 107.377562,116.819002 C108.068232,116.819002 108.660893,117.075666 109.155562,117.589002 C109.650231,118.102338 109.897562,118.718332 109.897562,119.437002 L109.897562,120.963002 C109.897562,121.663006 109.647898,122.281333 109.148562,122.818002 C108.649226,123.354671 108.072899,123.623002 107.419562,123.623002 C107.008894,123.623002 106.630897,123.518003 106.285562,123.308002 C105.940227,123.098001 105.68823,122.84367 105.529562,122.545002 L105.529562,126.423002 C105.529562,126.507003 105.485229,126.586335 105.396562,126.661002 C105.307895,126.735669 105.19823,126.773002 105.067562,126.773002 C104.946228,126.773002 104.841229,126.735669 104.752562,126.661002 C104.663895,126.586335 104.619562,126.507003 104.619562,126.423002 Z M105.529562,121.397002 C105.529562,121.649003 105.70456,121.943 106.054562,122.279002 C106.404564,122.615004 106.80356,122.783002 107.251562,122.783002 C107.708898,122.783002 108.11256,122.596337 108.462562,122.223002 C108.812564,121.849667 108.987562,121.429671 108.987562,120.963002 L108.987562,119.437002 C108.987562,118.979666 108.812564,118.569004 108.462562,118.205002 C108.11256,117.841 107.699565,117.659002 107.223562,117.659002 C106.77556,117.659002 106.381231,117.822334 106.040562,118.149002 C105.699894,118.47567 105.529562,118.904999 105.529562,119.437002 L105.529562,121.397002 Z M112.207562,123.161002 L112.207562,113.179002 C112.207562,113.085668 112.249562,113.006336 112.333562,112.941002 C112.417563,112.875668 112.524895,112.843002 112.655562,112.843002 C112.78623,112.843002 112.895895,112.875668 112.984562,112.941002 C113.073229,113.006336 113.117562,113.085668 113.117562,113.179002 L113.117562,123.161002 C113.117562,123.254336 113.073229,123.338335 112.984562,123.413002 C112.895895,123.487669 112.78623,123.525002 112.655562,123.525002 C112.534228,123.525002 112.429229,123.487669 112.340562,123.413002 C112.251895,123.338335 112.207562,123.254336 112.207562,123.161002 Z M115.231562,121.775002 C115.231562,121.056332 115.509226,120.557003 116.064562,120.277002 C116.619898,119.997001 117.429557,119.857002 118.493562,119.857002 L119.207562,119.857002 L119.207562,119.521002 C119.207562,119.007666 119.07223,118.562004 118.801562,118.184002 C118.530894,117.806 118.115565,117.617002 117.555562,117.617002 C117.182227,117.617002 116.843897,117.684668 116.540562,117.820002 L116.09825,118.010315 C116.075791,118.018773 116.062229,118.023002 116.057562,118.023002 C115.945562,118.023002 115.856896,117.971669 115.791562,117.869002 C115.726229,117.766335 115.693562,117.654336 115.693562,117.533002 C115.693562,117.355668 115.894227,117.192336 116.295562,117.043002 C116.696898,116.893668 117.126227,116.819002 117.583562,116.819002 C118.4609,116.819002 119.10256,117.073333 119.508562,117.582002 C119.914564,118.090671 120.117562,118.736998 120.117562,119.521002 L120.117562,123.161002 C120.117562,123.263669 120.075563,123.350002 119.991562,123.420002 C119.907562,123.490002 119.80023,123.525002 119.669562,123.525002 C119.548228,123.525002 119.447896,123.490002 119.368562,123.420002 C119.289229,123.350002 119.249562,123.263669 119.249562,123.161002 L119.249562,122.545002 C118.624226,123.263672 117.919566,123.623002 117.135562,123.623002 C116.575559,123.623002 116.118231,123.46667 115.763562,123.154002 C115.408894,122.841334 115.231562,122.381672 115.231562,121.775002 Z M116.141562,121.691002 C116.141562,122.083004 116.253561,122.374668 116.477562,122.566002 C116.701563,122.757336 116.99556,122.853002 117.359562,122.853002 C117.798231,122.853002 118.215894,122.68967 118.612562,122.363002 C119.009231,122.036334 119.207562,121.70967 119.207562,121.383002 L119.207562,120.487002 L118.619562,120.487002 C118.246227,120.487002 117.93123,120.501002 117.674562,120.529002 C117.417894,120.557002 117.163564,120.608335 116.911562,120.683002 C116.659561,120.757669 116.46823,120.879001 116.337562,121.047002 C116.206895,121.215003 116.141562,121.429667 116.141562,121.691002 Z M122.525562,123.161002 L122.525562,117.239002 C122.525562,117.136335 122.567562,117.054669 122.651562,116.994002 C122.735563,116.933335 122.842895,116.903002 122.973562,116.903002 C123.085563,116.903002 123.183562,116.935668 123.267562,117.001002 C123.351563,117.066336 123.393562,117.145668 123.393562,117.239002 L123.393562,117.883002 C123.55223,117.584334 123.794894,117.332336 124.121562,117.127002 C124.448231,116.921668 124.830893,116.819002 125.269562,116.819002 C125.941566,116.819002 126.524893,117.075666 127.019562,117.589002 C127.514231,118.102338 127.761562,118.718332 127.761562,119.437002 L127.761562,123.161002 C127.761562,123.273003 127.714896,123.361668 127.621562,123.427002 C127.528229,123.492336 127.420896,123.525002 127.299562,123.525002 C127.187562,123.525002 127.084896,123.492336 126.991562,123.427002 C126.898229,123.361668 126.851562,123.273003 126.851562,123.161002 L126.851562,119.437002 C126.851562,118.979666 126.678897,118.569004 126.333562,118.205002 C125.988227,117.841 125.577565,117.659002 125.101562,117.659002 C124.662893,117.659002 124.275564,117.822334 123.939562,118.149002 C123.603561,118.47567 123.435562,118.904999 123.435562,119.437002 L123.435562,123.161002 C123.435562,123.254336 123.388896,123.338335 123.295562,123.413002 C123.202229,123.487669 123.094896,123.525002 122.973562,123.525002 C122.842895,123.525002 122.735563,123.487669 122.651562,123.413002 C122.567562,123.338335 122.525562,123.254336 122.525562,123.161002 Z M130.141562,121.467002 L130.141562,114.089002 C130.141562,113.995668 130.188229,113.916336 130.281562,113.851002 C130.374896,113.785668 130.477562,113.753002 130.589562,113.753002 C130.710896,113.753002 130.818229,113.785668 130.911562,113.851002 C131.004896,113.916336 131.051562,113.995668 131.051562,114.089002 L131.051562,116.903002 L132.857562,116.903002 C132.950896,116.903002 133.027895,116.940335 133.088562,117.015002 C133.149229,117.089669 133.179562,117.178335 133.179562,117.281002 C133.179562,117.383669 133.149229,117.472335 133.088562,117.547002 C133.027895,117.621669 132.950896,117.659002 132.857562,117.659002 L131.051562,117.659002 L131.051562,121.467002 C131.051562,121.924338 131.147228,122.244001 131.338562,122.426002 C131.529897,122.608003 131.868227,122.699002 132.353562,122.699002 L132.745562,122.699002 C132.866896,122.699002 132.967229,122.738668 133.046562,122.818002 C133.125896,122.897336 133.165562,122.993002 133.165562,123.105002 C133.165562,123.217003 133.125896,123.315002 133.046562,123.399002 C132.967229,123.483003 132.866896,123.525002 132.745562,123.525002 L132.353562,123.525002 C130.878888,123.525002 130.141562,122.839009 130.141562,121.467002 Z M134.607562,122.615002 C134.607562,122.521668 134.640229,122.428336 134.705562,122.335002 C134.770896,122.241668 134.845562,122.195002 134.929562,122.195002 C134.981829,122.195002 135.057989,122.229348 135.158042,122.298042 L135.237562,122.356002 C135.377563,122.463336 135.578228,122.573002 135.839562,122.685002 C136.100897,122.797003 136.413561,122.853002 136.777562,122.853002 C137.272232,122.853002 137.636228,122.75967 137.869562,122.573002 C138.102897,122.386334 138.219562,122.148337 138.219562,121.859002 C138.219562,121.523 138.100564,121.25467 137.862562,121.054002 C137.624561,120.853334 137.337564,120.706336 137.001562,120.613002 C136.665561,120.519668 136.327231,120.417003 135.986562,120.305002 C135.645894,120.193002 135.356564,120.00867 135.118562,119.752002 C134.880561,119.495334 134.761562,119.152338 134.761562,118.723002 C134.761562,118.209666 134.945894,117.764004 135.314562,117.386002 C135.683231,117.008 136.236225,116.819002 136.973562,116.819002 C137.430898,116.819002 137.857894,116.891335 138.254562,117.036002 C138.651231,117.180669 138.849562,117.337001 138.849562,117.505002 C138.849562,117.598336 138.812229,117.701002 138.737562,117.813002 C138.662895,117.925003 138.57423,117.981002 138.471562,117.981002 L138.423438,117.968752 C138.348188,117.944252 138.191564,117.883003 137.953562,117.785002 C137.636227,117.654335 137.314231,117.589002 136.987562,117.589002 C136.520893,117.589002 136.170897,117.701001 135.937562,117.925002 C135.704228,118.149003 135.587562,118.401001 135.587562,118.681002 C135.587562,118.970337 135.706561,119.199001 135.944562,119.367002 C136.182564,119.535003 136.471894,119.663335 136.812562,119.752002 C137.153231,119.840669 137.493894,119.943335 137.834562,120.060002 C138.175231,120.176669 138.464561,120.382001 138.702562,120.676002 C138.940564,120.970004 139.059562,121.350333 139.059562,121.817002 C139.059562,122.377005 138.861231,122.818 138.464562,123.140002 C138.067894,123.462004 137.514899,123.623002 136.805562,123.623002 C136.189559,123.623002 135.669231,123.513337 135.244562,123.294002 C134.819894,123.074668 134.607562,122.848337 134.607562,122.615002 Z M140.795562,122.965002 C140.795562,122.778334 140.856228,122.622003 140.977562,122.496002 C141.098896,122.370001 141.252895,122.307002 141.439562,122.307002 C141.607563,122.307002 141.754562,122.372335 141.880562,122.503002 C142.006563,122.633669 142.069562,122.787668 142.069562,122.965002 C142.069562,123.133003 142.006563,123.282335 141.880562,123.413002 C141.754562,123.543669 141.607563,123.609002 141.439562,123.609002 C141.252895,123.609002 141.098896,123.546003 140.977562,123.420002 C140.856228,123.294001 140.795562,123.142336 140.795562,122.965002 Z" id="Breedhybridplants." fill="#DADADA"></path>
                        <path d="M20.1186607,95.3986012 L20.1186607,88.3564011 C20.1186607,86.5010584 20.6107224,85.1378054 21.5948607,84.266601 C22.578999,83.3953966 23.8696527,82.959801 25.4668608,82.959801 C27.0963356,82.959801 28.423289,83.3671636 29.4477609,84.181901 C30.4722327,84.9966384 30.9844609,86.0815943 30.9844609,87.4368011 C30.9844609,87.9046701 30.8836286,88.2273335 30.6819609,88.4048011 C30.4802932,88.5822686 30.1535965,88.6710011 29.7018609,88.6710011 C28.8629233,88.6710011 28.4353942,88.3886706 28.4192608,87.8240011 C28.2417933,86.0977257 27.2818695,85.234601 25.5394608,85.234601 C23.6357179,85.234601 22.6838607,86.2751906 22.6838607,88.3564011 L22.6838607,95.3986012 C22.6838607,97.4798117 23.6357179,98.5204013 25.5394608,98.5204013 C26.4590654,98.5204013 27.168925,98.2622705 27.6690608,97.7460013 C28.1691967,97.229732 28.4192608,96.4472732 28.4192608,95.3986012 L28.4192608,93.4142012 L25.9750608,93.4142012 C25.7169262,93.4142012 25.5152615,93.3133689 25.3700608,93.1117012 C25.22486,92.9100335 25.1522608,92.6640026 25.1522608,92.3736012 C25.1522608,92.1154665 25.22486,91.8815355 25.3700608,91.6718012 C25.5152615,91.4620668 25.7169262,91.3572011 25.9750608,91.3572011 L30.1374609,91.3572011 C30.3955955,91.3572011 30.6012934,91.4419003 30.7545609,91.6113012 C30.9078283,91.780702 30.9844609,91.9863999 30.9844609,92.2284012 L30.9844609,95.3986012 C30.9844609,97.2539439 30.4883658,98.6171969 29.4961609,99.4884013 C28.5039559,100.359606 27.185069,100.795201 25.5394608,100.795201 C23.8938525,100.795201 22.578999,100.359606 21.5948607,99.4884013 C20.6107224,98.6171969 20.1186607,97.2539439 20.1186607,95.3986012 Z M33.694861,99.5852013 C33.694861,99.4884008 33.7029276,99.4158016 33.719061,99.3674013 L38.5348611,83.685801 C38.7284621,83.1049981 39.2689233,82.814601 40.1562611,82.814601 C41.0597323,82.814601 41.6082602,83.1049981 41.8018612,83.685801 L46.5934613,99.3674013 C46.6257281,99.4642018 46.6418613,99.5368011 46.6418613,99.5852013 C46.6418613,99.8756028 46.4684297,100.125667 46.1215612,100.335401 C45.7746928,100.545136 45.4076632,100.650001 45.0204612,100.650001 C44.5525922,100.650001 44.2621951,100.472536 44.1492612,100.117601 L43.1570612,96.6812013 L37.1796611,96.6812013 L36.187461,100.117601 C36.0745271,100.472536 35.7760634,100.650001 35.292061,100.650001 C34.9048591,100.650001 34.5418627,100.545136 34.203061,100.335401 C33.8642593,100.125667 33.694861,99.8756028 33.694861,99.5852013 Z M37.7362611,94.6242012 L42.5762612,94.6242012 L40.1562611,86.323601 L37.7362611,94.6242012 Z M49.7636613,99.8030013 L49.7636613,84.242401 C49.7636613,83.8067988 49.8846601,83.4841354 50.1266614,83.274401 C50.3686626,83.0646666 50.6751928,82.959801 51.0462614,82.959801 C51.5141304,82.959801 51.8972932,83.0606333 52.1957614,83.262301 C52.4942296,83.4639686 52.78866,83.8471315 53.0790614,84.411801 L56.4670615,90.8248011 L59.9034616,84.411801 C60.193863,83.8471315 60.4842601,83.4639686 60.7746616,83.262301 C61.065063,83.0606333 61.4441926,82.959801 61.9120616,82.959801 C62.2831301,82.959801 62.5896604,83.0646666 62.8316616,83.274401 C63.0736628,83.4841354 63.1946616,83.8067988 63.1946616,84.242401 L63.1946616,99.8030013 C63.1946616,100.061136 63.0696296,100.266834 62.8195616,100.420101 C62.5694937,100.573369 62.2669967,100.650001 61.9120616,100.650001 C61.5732599,100.650001 61.2747962,100.573369 61.0166616,100.420101 C60.758527,100.266834 60.6294616,100.061136 60.6294616,99.8030013 L60.6294616,88.1870011 L57.3866615,94.1886012 C57.1446603,94.5758032 56.8300634,94.7694012 56.4428615,94.7694012 C56.0556595,94.7694012 55.7652624,94.5758032 55.5716615,94.1886012 L52.3288614,88.0418011 L52.3288614,99.8030013 C52.3288614,100.061136 52.2038293,100.266834 51.9537614,100.420101 C51.7036935,100.573369 51.4011965,100.650001 51.0462614,100.650001 C50.7074597,100.650001 50.408996,100.573369 50.1508614,100.420101 C49.8927267,100.266834 49.7636613,100.061136 49.7636613,99.8030013 Z M67.5990618,99.8030013 L67.5990618,83.806801 C67.5990618,83.5486664 67.711994,83.3429684 67.9378618,83.189701 C68.1637296,83.0364335 68.4299269,82.959801 68.7364618,82.959801 L77.351662,82.959801 C77.62593,82.959801 77.8356613,83.0727332 77.980862,83.298601 C78.1260627,83.5244688 78.198662,83.7825995 78.198662,84.073001 C78.198662,84.3956693 78.1220294,84.6699332 77.968762,84.895801 C77.8154946,85.1216688 77.6097966,85.234601 77.351662,85.234601 L70.1642618,85.234601 L70.1642618,90.7764011 L73.8910619,90.7764011 C74.1491965,90.7764011 74.3548945,90.8772335 74.5081619,91.0789011 C74.6614293,91.2805688 74.7380619,91.5265997 74.7380619,91.8170012 C74.7380619,92.0751358 74.6654626,92.3050335 74.5202619,92.5067012 C74.3750612,92.7083688 74.1653299,92.8092012 73.8910619,92.8092012 L70.1642618,92.8092012 L70.1642618,98.3752013 L77.351662,98.3752013 C77.6097966,98.3752013 77.8154946,98.4881335 77.968762,98.7140013 C78.1220294,98.9398691 78.198662,99.214133 78.198662,99.5368013 C78.198662,99.8272028 78.1260627,100.085334 77.980862,100.311201 C77.8356613,100.537069 77.62593,100.650001 77.351662,100.650001 L68.7364618,100.650001 C68.4299269,100.650001 68.1637296,100.573369 67.9378618,100.420101 C67.711994,100.266834 67.5990618,100.061136 67.5990618,99.8030013 Z M87.5156622,99.8030013 L87.5156622,84.242401 C87.5156622,83.8067988 87.636661,83.4841354 87.8786623,83.274401 C88.1206635,83.0646666 88.4271937,82.959801 88.7982623,82.959801 C89.2661313,82.959801 89.6492941,83.0606333 89.9477623,83.262301 C90.2462305,83.4639686 90.5406609,83.8471315 90.8310623,84.411801 L94.2190624,90.8248011 L97.6554625,84.411801 C97.9458639,83.8471315 98.236261,83.4639686 98.5266625,83.262301 C98.8170639,83.0606333 99.1961935,82.959801 99.6640625,82.959801 C100.035131,82.959801 100.341661,83.0646666 100.583663,83.274401 C100.825664,83.4841354 100.946663,83.8067988 100.946663,84.242401 L100.946663,99.8030013 C100.946663,100.061136 100.82163,100.266834 100.571563,100.420101 C100.321495,100.573369 100.018998,100.650001 99.6640625,100.650001 C99.3252608,100.650001 99.0267971,100.573369 98.7686625,100.420101 C98.5105279,100.266834 98.3814625,100.061136 98.3814625,99.8030013 L98.3814625,88.1870011 L95.1386624,94.1886012 C94.8966612,94.5758032 94.5820643,94.7694012 94.1948624,94.7694012 C93.8076604,94.7694012 93.5172633,94.5758032 93.3236624,94.1886012 L90.0808623,88.0418011 L90.0808623,99.8030013 C90.0808623,100.061136 89.9558302,100.266834 89.7057623,100.420101 C89.4556944,100.573369 89.1531974,100.650001 88.7982623,100.650001 C88.4594606,100.650001 88.1609969,100.573369 87.9028623,100.420101 C87.6447276,100.266834 87.5156622,100.061136 87.5156622,99.8030013 Z M105.181663,95.3986012 L105.181663,88.3564011 C105.181663,86.5010584 105.673724,85.1378054 106.657863,84.266601 C107.642001,83.3953966 108.956855,82.959801 110.602463,82.959801 C112.248071,82.959801 113.566958,83.3953966 114.559163,84.266601 C115.551368,85.1378054 116.047463,86.5010584 116.047463,88.3564011 L116.047463,95.3986012 C116.047463,97.2539439 115.551368,98.6171969 114.559163,99.4884013 C113.566958,100.359606 112.248071,100.795201 110.602463,100.795201 C108.956855,100.795201 107.642001,100.359606 106.657863,99.4884013 C105.673724,98.6171969 105.181663,97.2539439 105.181663,95.3986012 Z M107.746863,95.3986012 C107.746863,97.4798117 108.69872,98.5204013 110.602463,98.5204013 C111.522067,98.5204013 112.231927,98.2622705 112.732063,97.7460013 C113.232199,97.229732 113.482263,96.4472732 113.482263,95.3986012 L113.482263,88.3564011 C113.482263,87.3077291 113.232199,86.5252703 112.732063,86.009001 C112.231927,85.4927318 111.522067,85.234601 110.602463,85.234601 C108.69872,85.234601 107.746863,86.2751906 107.746863,88.3564011 L107.746863,95.3986012 Z M120.258263,99.8272013 L120.258263,83.782601 C120.258263,83.5567332 120.367162,83.3631351 120.584963,83.201801 C120.802764,83.0404668 121.072995,82.959801 121.395663,82.959801 L125.679063,82.959801 C127.324671,82.959801 128.643558,83.3953966 129.635763,84.266601 C130.627968,85.1378054 131.124063,86.5010584 131.124063,88.3564011 L131.124063,95.2534012 C131.124063,97.1087439 130.627968,98.4719969 129.635763,99.3432013 C128.643558,100.214406 127.324671,100.650001 125.679063,100.650001 L121.395663,100.650001 C121.072995,100.650001 120.802764,100.569335 120.584963,100.408001 C120.367162,100.246667 120.258263,100.053069 120.258263,99.8272013 Z M122.823463,98.3752013 L125.679063,98.3752013 C127.598939,98.3752013 128.558863,97.3346117 128.558863,95.2534012 L128.558863,88.3564011 C128.558863,86.2751906 127.598939,85.234601 125.679063,85.234601 L122.823463,85.234601 L122.823463,98.3752013 Z M135.334863,99.8030013 L135.334863,83.806801 C135.334863,83.5486664 135.447796,83.3429684 135.673663,83.189701 C135.899531,83.0364335 136.165729,82.959801 136.472263,82.959801 L145.087464,82.959801 C145.361732,82.959801 145.571463,83.0727332 145.716664,83.298601 C145.861864,83.5244688 145.934464,83.7825995 145.934464,84.073001 C145.934464,84.3956693 145.857831,84.6699332 145.704564,84.895801 C145.551296,85.1216688 145.345598,85.234601 145.087464,85.234601 L137.900063,85.234601 L137.900063,90.7764011 L141.626863,90.7764011 C141.884998,90.7764011 142.090696,90.8772335 142.243964,91.0789011 C142.397231,91.2805688 142.473864,91.5265997 142.473864,91.8170012 C142.473864,92.0751358 142.401264,92.3050335 142.256064,92.5067012 C142.110863,92.7083688 141.901132,92.8092012 141.626863,92.8092012 L137.900063,92.8092012 L137.900063,98.3752013 L145.087464,98.3752013 C145.345598,98.3752013 145.551296,98.4881335 145.704564,98.7140013 C145.857831,98.9398691 145.934464,99.214133 145.934464,99.5368013 C145.934464,99.8272028 145.861864,100.085334 145.716664,100.311201 C145.571463,100.537069 145.361732,100.650001 145.087464,100.650001 L136.472263,100.650001 C136.165729,100.650001 135.899531,100.573369 135.673663,100.420101 C135.447796,100.266834 135.334863,100.061136 135.334863,99.8030013 Z" id="GAMEMODE" fill="#DADADA"></path>
                        <path d="M83.1475621,1.90000105 C99.7161046,1.90000105 113.147562,15.3314586 113.147562,31.900001 C113.147562,48.4685435 99.7161046,61.900001 83.1475621,61.900001 C66.5790196,61.900001 53.1475621,48.4685435 53.1475621,31.900001 C53.1475621,15.3314586 66.5790196,1.90000105 83.1475621,1.90000105 Z M83.1475621,4.69069872 C68.1202794,4.69069872 55.9382598,16.8727183 55.9382598,31.900001 C55.9382598,46.9272838 68.1202794,59.1093034 83.1475621,59.1093034 C98.1748449,59.1093034 110.356864,46.9272838 110.356864,31.900001 C110.356864,16.8727183 98.1748449,4.69069872 83.1475621,4.69069872 Z M91.9699606,11.9369018 C93.058364,12.752199 92.6886419,14.327512 91.8752421,15.4004626 L84.1309324,26.903755 C84.026272,27.0592161 84.0594578,27.2691835 84.2073634,27.3873367 C84.3497299,27.501065 84.5571827,27.4795336 84.670722,27.3392449 C84.6716798,27.3380614 84.6726293,27.3368712 84.6735702,27.3356744 L88.8295824,22.461564 C89.6843475,21.374396 90.9542414,21.3167022 91.8830233,21.8451953 C93.4046517,22.7110284 93.0199976,24.6948504 92.3326191,25.3644023 L91.7130416,26.1524374 C92.496599,25.5313285 93.3869846,25.3711059 94.2559898,25.9763464 C95.3117861,26.7116823 95.5734382,28.1518901 94.8404062,29.1931405 L93.8553603,30.5923691 C94.2776355,30.50484 94.7321203,30.5479823 95.1546888,30.7447217 C96.1883582,31.2259775 96.7289335,32.5495866 95.4203132,34.5274305 C91.3526972,39.9370511 91.3380542,40.9252555 89.1360068,44.0120531 C86.0268337,48.6618025 84.7419334,47.2732299 82.8782052,52.0017593 C82.7559835,52.3118521 82.4026342,52.4629561 82.0889694,52.3392793 C82.0807935,52.335976 82.072617,52.3326724 82.0644457,52.329371 L71.2463649,47.4676568 C70.9309955,47.3273961 70.7879472,46.9610428 70.9268574,46.6493839 L70.9353301,46.6311848 L70.9353301,46.6311848 C70.9461038,46.6090023 70.9526154,46.5955077 70.9548643,46.590701 C73.9934141,40.0963287 71.8274831,35.7590989 72.4264033,32.838467 C73.0680974,29.7092487 74.5312909,26.0877177 73.4680358,22.9119901 C71.5643585,18.734441 77.6878622,17.0899975 78.2898213,25.6333452 C78.2604536,25.9843904 78.5028225,25.9941092 78.5612772,25.917002 L88.8227696,12.3811318 C89.6361694,11.3081811 90.8815573,11.1216046 91.9699606,11.9369018 Z" id="hand-icon" fill="#DADADA"></path>
                    </g>
                </g>
            </g>
        </g>
    </g>
</svg>