<?xml version="1.0" encoding="UTF-8"?>
<svg width="382px" height="83px" viewBox="0 0 382 83" version="1.1" xmlns="http://www.w3.org/2000/svg" xmlns:xlink="http://www.w3.org/1999/xlink">
    <!-- Generator: Sketch 53.2 (72643) - https://sketchapp.com -->
    <title>button_try_again_hover</title>
    <desc>Created with Sketch.</desc>
    <g id="[Screens]" stroke="none" stroke-width="1" fill="none" fill-rule="evenodd">
        <g id="game-over" transform="translate(-536.000000, -731.000000)" fill-rule="nonzero">
            <g id="overlay_game_over" transform="translate(357.000000, 152.000000)">
                <g id="try-again-button" transform="translate(181.000000, 581.000000)">
                    <g id="button_try_again_hover">
                        <rect id="Rectangle" stroke="#111111" stroke-width="3" fill="#FFFFFF" stroke-linecap="round" stroke-linejoin="round" x="0" y="0" width="378.458052" height="78.9498586" rx="2"></rect>
                        <path d="M78.8273541,26.9465467 C78.8273541,26.5705931 78.9276069,26.2385057 79.1281155,25.9502746 C79.3286241,25.6620436 79.6043192,25.5179302 79.9552092,25.5179302 L95.2564437,25.5179302 C95.6073338,25.5179302 95.8830289,25.6620436 96.0835375,25.9502746 C96.2840461,26.2385057 96.3842989,26.5705931 96.3842989,26.9465467 C96.3842989,27.3475638 96.2840461,27.6984486 96.0835375,27.9992114 C95.8830289,28.2999743 95.6073338,28.4503535 95.2564437,28.4503535 L89.2036213,28.4503535 L89.2036213,51.8721449 C89.2036213,52.2230349 89.0469763,52.4987301 88.7336816,52.6992386 C88.420387,52.8997472 88.0507048,53 87.6246241,53 C87.1985434,53 86.8288612,52.8997472 86.5155665,52.6992386 C86.2022719,52.4987301 86.0456269,52.2230349 86.0456269,51.8721449 L86.0456269,28.4503535 L79.9552092,28.4503535 C79.6043192,28.4503535 79.3286241,28.3062401 79.1281155,28.018009 C78.9276069,27.7297779 78.8273541,27.3726274 78.8273541,26.9465467 Z M106.472336,51.8721449 L106.472336,26.6081901 C106.472336,26.3074273 106.578854,26.0567953 106.791895,25.8562867 C107.004935,25.6557781 107.274365,25.5429937 107.600191,25.5179302 L114.480107,25.5179302 C116.986465,25.5179302 119.004052,26.1006495 120.53293,27.2661056 C122.061808,28.4315617 122.826235,30.3551621 122.826235,33.0369643 C122.826235,37.1724538 120.959027,39.6161154 117.224555,40.3680226 L122.78864,50.9322656 C122.888894,51.1077106 122.939021,51.283153 122.939021,51.458598 C122.939021,51.8596152 122.738515,52.2292973 122.337498,52.5676555 C121.936481,52.9060138 121.510406,53.0751903 121.059262,53.0751903 C120.532927,53.0751903 120.056726,52.6616476 119.630646,51.8345497 L113.953775,40.8191647 L109.63033,40.8191647 L109.63033,51.8721449 C109.63033,52.2230349 109.473685,52.4987301 109.160391,52.6992386 C108.847096,52.8997472 108.477414,53 108.051333,53 C107.625252,53 107.25557,52.8997472 106.942276,52.6992386 C106.628981,52.4987301 106.472336,52.2230349 106.472336,51.8721449 Z M109.63033,38.1875027 L114.480107,38.1875027 C117.93888,38.1875027 119.668241,36.5458633 119.668241,33.2625353 C119.668241,30.0042709 117.93888,28.3751631 114.480107,28.3751631 L109.63033,28.3751631 L109.63033,38.1875027 Z M131.748822,26.8337611 C131.748822,26.4578076 131.955593,26.1445176 132.369142,25.8938819 C132.782691,25.6432462 133.2025,25.5179302 133.62858,25.5179302 C134.079725,25.5179302 134.455673,25.7936253 134.756436,26.3450239 L141.373186,39.2401675 L147.952341,26.3450239 C148.253103,25.7936253 148.629051,25.5179302 149.080196,25.5179302 C149.53134,25.5179302 149.957414,25.6432462 150.358431,25.8938819 C150.759449,26.1445176 150.959954,26.4578076 150.959954,26.8337611 C150.959954,27.0342697 150.909828,27.2473069 150.809574,27.4728791 L143.027373,41.984615 C142.977246,42.0598057 142.952183,42.1851217 142.952183,42.3605667 L142.952183,51.8721449 C142.952183,52.2230349 142.795538,52.4987301 142.482243,52.6992386 C142.168949,52.8997472 141.799266,53 141.373186,53 C140.947105,53 140.577423,52.8997472 140.264128,52.6992386 C139.950833,52.4987301 139.794188,52.2230349 139.794188,51.8721449 L139.794188,42.3605667 C139.794188,42.2352488 139.756594,42.1099328 139.681403,41.984615 L131.899203,27.4728791 C131.798948,27.2473069 131.748822,27.0342697 131.748822,26.8337611 Z M173.542119,51.684169 C173.542119,51.6340419 173.567182,51.5337891 173.61731,51.3834077 L181.286724,26.3826191 C181.512297,25.6557755 182.16394,25.2923591 183.241673,25.2923591 C184.319407,25.2923591 184.97105,25.6557755 185.196622,26.3826191 L192.866037,51.3834077 C192.866037,51.4335348 192.872303,51.4836612 192.884835,51.5337883 C192.897366,51.5839155 192.903632,51.6215103 192.903632,51.6465739 C192.903632,51.9974639 192.696861,52.3107538 192.283312,52.5864531 C191.869763,52.8621524 191.424891,53 190.948683,53 C190.347158,53 189.97121,52.7618996 189.820828,52.2856918 L188.166641,46.6840113 L178.279111,46.6840113 L176.624923,52.2856918 C176.474542,52.7618996 176.086062,53 175.459473,53 C175.008329,53 174.575988,52.874684 174.162439,52.6240483 C173.748891,52.3734126 173.542119,52.0601226 173.542119,51.684169 Z M178.993419,44.0899445 L187.414737,44.0899445 L183.241673,29.9541603 L178.993419,44.0899445 Z M202.878884,45.0298238 L202.878884,33.7136774 C202.878884,30.8814937 203.611982,28.8075142 205.078201,27.4916766 C206.54442,26.1758391 208.480552,25.5179302 210.886655,25.5179302 C213.342885,25.5179302 215.322878,26.1382443 216.826692,27.3788911 C218.330506,28.619538 219.082402,30.2423799 219.082402,32.2474657 C219.082402,32.8239279 218.95082,33.224939 218.687653,33.4505112 C218.424485,33.6760834 218.02974,33.7888677 217.503405,33.7888677 C216.475799,33.7888677 215.949471,33.4254514 215.924408,32.6986078 C215.598581,29.8162969 213.94441,28.3751631 210.961845,28.3751631 C207.678517,28.3751631 206.036878,30.1546501 206.036878,33.7136774 L206.036878,45.0298238 C206.036878,48.5888511 207.678517,50.368338 210.961845,50.368338 C212.54085,50.368338 213.762681,49.9234663 214.627375,49.0337095 C215.492068,48.1439527 215.924408,46.8093374 215.924408,45.0298238 L215.924408,41.1951164 L211.450583,41.1951164 C211.099693,41.1951164 210.830263,41.0635346 210.642286,40.8003671 C210.45431,40.5371996 210.360323,40.2301754 210.360323,39.8792854 C210.360323,39.5283954 210.460575,39.2213712 210.661084,38.9582037 C210.861593,38.6950362 211.124756,38.5634544 211.450583,38.5634544 L217.992142,38.5634544 C218.343032,38.5634544 218.612462,38.6762388 218.800438,38.901811 C218.988415,39.1273831 219.082402,39.4030783 219.082402,39.7289047 L219.082402,45.0298238 C219.082402,47.8620075 218.343038,49.935987 216.864287,51.2518246 C215.385536,52.5676621 213.418075,53.225571 210.961845,53.225571 C208.505615,53.225571 206.54442,52.5676621 205.078201,51.2518246 C203.611982,49.935987 202.878884,47.8620075 202.878884,45.0298238 Z M228.606512,51.684169 C228.606512,51.6340419 228.631575,51.5337891 228.681702,51.3834077 L236.351117,26.3826191 C236.576689,25.6557755 237.228332,25.2923591 238.306066,25.2923591 C239.383799,25.2923591 240.035443,25.6557755 240.261015,26.3826191 L247.930429,51.3834077 C247.930429,51.4335348 247.936695,51.4836612 247.949227,51.5337883 C247.961759,51.5839155 247.968025,51.6215103 247.968025,51.6465739 C247.968025,51.9974639 247.761253,52.3107538 247.347704,52.5864531 C246.934155,52.8621524 246.489284,53 246.013076,53 C245.41155,53 245.035602,52.7618996 244.885221,52.2856918 L243.231033,46.6840113 L233.343503,46.6840113 L231.689316,52.2856918 C231.538934,52.7618996 231.150455,53 230.523865,53 C230.072721,53 229.640381,52.874684 229.226832,52.6240483 C228.813283,52.3734126 228.606512,52.0601226 228.606512,51.684169 Z M234.057811,44.0899445 L242.47913,44.0899445 L238.306066,29.9541603 L234.057811,44.0899445 Z M258.206442,51.8721449 L258.206442,26.6081901 C258.206442,26.2573001 258.363087,25.9878707 258.676382,25.799894 C258.989677,25.6119172 259.359359,25.5179302 259.78544,25.5179302 C260.21152,25.5179302 260.581202,25.6119172 260.894497,25.799894 C261.207792,25.9878707 261.364437,26.2573001 261.364437,26.6081901 L261.364437,51.8721449 C261.364437,52.2230349 261.207792,52.4987301 260.894497,52.6992386 C260.581202,52.8997472 260.21152,53 259.78544,53 C259.359359,53 258.989677,52.8997472 258.676382,52.6992386 C258.363087,52.4987301 258.206442,52.2230349 258.206442,51.8721449 Z M273.595398,51.8721449 L273.595398,26.6081901 C273.595398,25.8813465 274.121726,25.5179302 275.174396,25.5179302 C275.700731,25.5179302 276.145602,25.6745751 276.509024,25.9878698 C276.872446,26.3011645 277.229597,26.8086942 277.580487,27.5104742 L286.941684,45.8193224 L286.941684,26.6081901 C286.941684,26.2573001 287.098329,25.9878707 287.411624,25.799894 C287.724918,25.6119172 288.094601,25.5179302 288.520681,25.5179302 C288.946762,25.5179302 289.316444,25.6119172 289.629739,25.799894 C289.943033,25.9878707 290.099678,26.2573001 290.099678,26.6081901 L290.099678,51.8721449 C290.099678,52.2230349 289.943033,52.4987301 289.629739,52.6992386 C289.316444,52.8997472 288.946762,53 288.520681,53 C287.718647,53 287.054472,52.5237993 286.528137,51.5713835 L276.753393,32.6610126 L276.753393,51.8721449 C276.753393,52.2230349 276.596748,52.4987301 276.283453,52.6992386 C275.970159,52.8997472 275.600476,53 275.174396,53 C274.748315,53 274.378633,52.8997472 274.065338,52.6992386 C273.752043,52.4987301 273.595398,52.2230349 273.595398,51.8721449 Z" id="TRYAGAIN" fill="#111111"></path>
                    </g>
                </g>
            </g>
        </g>
    </g>
</svg>