<?xml version="1.0" encoding="UTF-8"?>
<svg width="61px" height="97px" viewBox="0 0 61 97" version="1.1" xmlns="http://www.w3.org/2000/svg" xmlns:xlink="http://www.w3.org/1999/xlink">
    <!-- Generator: Sketch 53 (72520) - https://sketchapp.com -->
    <title>demo_plant_small</title>
    <desc>Created with Sketch.</desc>
    <g id="demo_plant_small" stroke="none" stroke-width="1" fill="none" fill-rule="evenodd">
        <path d="M0.267253613,65.3926191 C11.8809416,59.5297798 21.265676,62.0708816 28.4214567,73.0159246 C16.8618461,78.6770107 7.47711178,76.1359089 0.267253613,65.3926191 Z M32.1666242,72.8787843 C39.3764824,62.1354946 48.7612168,59.5943928 60.3208273,65.2554789 C53.1650466,76.2005219 43.7803123,78.7416237 32.1666242,72.8787843 Z" id="lower-leaves" fill="#555555" fill-rule="nonzero"></path>
        <path d="M4.57649794,39.0140041 C15.3508674,35.365151 23.1811409,38.7238918 28.0673183,49.0902264 C17.3641193,52.5709182 9.53384583,49.2121775 4.57649794,39.0140041 Z M56.0323063,39.0140041 C51.0749584,49.2121775 43.2446849,52.5709182 32.5414859,49.0902264 C37.4276633,38.7238918 45.2579368,35.365151 56.0323063,39.0140041 Z" id="upper-leaves" fill="#555555" fill-rule="nonzero"></path>
        <rect id="Rectangle" fill="#222222" fill-rule="nonzero" x="27.5132072" y="17.7293344" width="5.58238986" height="78.5731866"></rect>
        <path d="M15.5509432,25.9895925 C16.4096523,20.5333072 19.467071,17.6462601 24.7231992,17.3284513 L24.7231992,17.3243387 C19.467071,17.0065299 16.4096523,14.1194828 15.5509432,8.6631975 C20.6374793,6.6870734 24.6308742,7.94634563 27.5311279,12.4410142 C25.1540358,7.63914635 26.0784605,3.49214163 30.3044021,0 C34.5303437,3.49214163 35.4547684,7.63914635 33.0776763,12.4410142 C35.9779299,7.94634563 39.9713249,6.6870734 45.057861,8.6631975 C44.1991519,14.1194828 41.1417332,17.0065299 35.885605,17.3243387 L35.886792,17.326395 C41.1417332,17.6462601 44.1991519,20.5333072 45.057861,25.9895925 C39.9713249,27.9657166 35.9779299,26.7064444 33.0776763,22.2117758 C35.4547684,27.0136436 34.5303437,31.1606484 30.3044021,34.65279 C26.0784605,31.1606484 25.1540358,27.0136436 27.5311279,22.2117758 C24.6308742,26.7064444 20.6374793,27.9657166 15.5509432,25.9895925 Z" id="petals" fill="#555555" fill-rule="nonzero"></path>
        <polygon id="hex" fill="#222222" fill-rule="nonzero" points="32.6968549 13.2970008 35.0893077 17.5278647 32.6968549 21.7587286 27.9119493 21.7587286 25.5194965 17.5278647 27.9119493 13.2970008"></polygon>
    </g>
</svg>