<?xml version="1.0" encoding="UTF-8"?>
<svg width="56px" height="88px" viewBox="0 0 56 88" version="1.1" xmlns="http://www.w3.org/2000/svg" xmlns:xlink="http://www.w3.org/1999/xlink">
    <!-- Generator: Sketch 53 (72520) - https://sketchapp.com -->
    <title>demo_hand</title>
    <desc>Created with Sketch.</desc>
    <g id="demo_hand" stroke="none" stroke-width="1" fill="none" fill-rule="evenodd">
        <path d="M16.2621642,85.5276477 C17.0822282,70.2557101 9.33299072,63.4086033 8.18375929,57.1538711 C6.95245178,50.4524371 6.95245178,42.120934 2.31208393,36.6898529 C-4.79089894,29.9489953 6.00563502,21.8037923 14.0226744,38.2190732 C14.2450951,38.9368054 14.7321967,38.7623621 14.7861909,38.5631585 L24.2646604,3.59369922 C25.0159922,0.821767882 27.3299263,-0.542350276 30.1339347,0.200386488 C32.9379431,0.943123253 33.4654891,4.35406284 32.7141573,7.12599418 L26.5898228,36.0642535 C26.5070556,36.4553393 26.7404611,36.8440771 27.1273857,36.9595664 C27.49982,37.0707307 27.892897,36.8623833 28.0053476,36.4942095 C28.0062963,36.4911035 28.007223,36.4879909 28.0081277,36.4848721 L32.3328753,23.5244393 C33.1546552,20.6913374 35.6200385,19.5625305 37.8791918,19.8655966 C41.580375,20.3621116 42.4048077,24.5928955 41.580375,26.4663236 L40.9847069,28.519901 C42.0380617,26.6654277 43.6709621,25.6370936 45.873219,26.1397083 C48.5488473,26.7503593 50.2171137,29.389602 49.5993962,32.0346219 L48.7693097,35.5889901 C49.5345081,35.0784649 50.4678206,34.8006332 51.4607431,34.8520748 C53.8895887,34.9779091 56.0163168,37.1636804 55.0086343,42.120934 C51.2866068,56.0698185 52.0472691,58.0359019 50.1587522,65.9002358 C47.7250749,77.5804735 44.0743782,75.8609739 44.1667801,86.7018463 C44.1728397,87.4127812 43.5947561,87.993964 42.8755941,87.9999543 C42.8567849,88.000111 42.8379744,87.9998648 42.819176,87.9992158 L17.5393971,87.0290905 C16.8036127,87.0036902 16.2279708,86.3934517 16.2536649,85.6660844 C16.2541688,85.6518193 16.2549072,85.6375632 16.2558796,85.6233218 C16.259462,85.5708424 16.2615572,85.5389511 16.2621642,85.5276477 Z" id="hand" fill="#7E8182" fill-rule="nonzero"></path>
    </g>
</svg>