<?xml version="1.0" encoding="UTF-8"?>
<svg width="225px" height="171px" viewBox="0 0 225 171" version="1.1" xmlns="http://www.w3.org/2000/svg" xmlns:xlink="http://www.w3.org/1999/xlink">
    <!-- Generator: Sketch 55.1 (78136) - https://sketchapp.com -->
    <title>icon_saved</title>
    <desc>Created with Sketch.</desc>
    <g id="{Screens/Flow}" stroke="none" stroke-width="1" fill="none" fill-rule="evenodd">
        <g id="confirmation:-game-saved" transform="translate(-199.000000, -201.000000)" fill="#87C189" fill-rule="nonzero">
            <g id="modal">
                <g id="content" transform="translate(177.000000, 61.000000)">
                    <g id="icon_saved" transform="translate(22.000000, 140.000000)">
                        <path d="M140.004014,170.958758 L140.004014,171 L85.8089121,171 L85.8089121,170.964099 L66.8632075,170.964099 C29.9457836,170.964099 0,141.202983 0,104.468015 C0,67.7330466 29.9457836,37.971931 66.8632075,37.971931 C67.0934346,37.971931 67.3235331,37.9730906 67.553497,37.9754082 C83.3569451,14.4911306 109.942697,-1.13686838e-13 139.033019,-1.13686838e-13 C186.501166,-1.13686838e-13 225,38.2614219 225,85.4820494 C225,132.38028 187.025069,170.441225 140.004014,170.958758 L140.004014,170.958758 Z M139.033019,158.216379 C179.487562,158.216379 212.264151,125.641915 212.264151,85.4820494 C212.264151,45.3221836 179.487562,12.7477197 139.033019,12.7477197 C113.125705,12.7477197 89.5726637,26.2119204 76.3787096,47.8060207 C75.1431914,49.8281518 72.8886571,50.9970203 70.5257226,50.8405154 C69.3110834,50.7600658 68.0898348,50.7196507 66.8632075,50.7196507 C36.959387,50.7196507 12.735849,74.7938083 12.735849,104.468015 C12.735849,134.142222 36.959387,158.216379 66.8632075,158.216379 L139.033019,158.216379 Z M157.04844,57.565614 C159.696469,54.920051 163.989772,54.920051 166.637801,57.5656135 C169.28583,60.211177 169.28583,64.5004821 166.637801,67.1460456 L104.306956,129.418847 C101.658927,132.06441 97.3656245,132.06441 94.7175956,129.418847 L65.9495133,100.677554 C63.3014848,98.031991 63.3014848,93.7426859 65.9495133,91.0971226 C68.5975424,88.4515599 72.8908454,88.4515599 75.5388743,91.0971229 L99.512276,115.048201 L157.04844,57.565614 Z" id="Shape"></path>
                    </g>
                </g>
            </g>
        </g>
    </g>
</svg>