<?xml version="1.0" encoding="UTF-8"?>
<svg width="327px" height="57px" viewBox="0 0 327 57" version="1.1" xmlns="http://www.w3.org/2000/svg" xmlns:xlink="http://www.w3.org/1999/xlink">
    <!-- Generator: Sketch 53 (72520) - https://sketchapp.com -->
    <title>You're9O%there!You'reSOCLOSEtokissingthesky.Keepitup!</title>
    <desc>Created with Sketch.</desc>
    <g id="[Screens]" stroke="none" stroke-width="1" fill="none" fill-rule="evenodd" opacity="0.8">
        <g id="game-mode" transform="translate(-557.000000, -317.000000)" fill="#000000" fill-rule="nonzero">
            <g id="milestones" transform="translate(431.000000, 303.000000)">
                <g id="milestone_first_red_flower">
                    <path d="M216.691667,16.26 C216.691667,16.0199988 216.838332,15.8133342 217.131667,15.64 C217.425002,15.4666658 217.724999,15.38 218.031667,15.38 C218.325002,15.38 218.558333,15.5399984 218.731667,15.86 L222.031667,22.2 L225.311667,15.86 C225.471668,15.5399984 225.704999,15.38 226.011667,15.38 C226.318335,15.38 226.614999,15.4666658 226.901667,15.64 C227.188335,15.8133342 227.331667,16.0199988 227.331667,16.26 C227.331667,16.3800006 227.311667,16.4799996 227.271667,16.56 L223.131667,24.02 C223.105,24.1000004 223.091667,24.173333 223.091667,24.24 L223.091667,29.3 C223.091667,29.5133344 222.985001,29.6833327 222.771667,29.81 C222.558333,29.9366673 222.311668,30 222.031667,30 C221.738332,30 221.488335,29.9366673 221.281667,29.81 C221.074999,29.6833327 220.971667,29.5133344 220.971667,29.3 L220.971667,24.24 C220.971667,24.2133332 220.951667,24.1400006 220.911667,24.02 L216.771667,16.56 C216.718333,16.4533328 216.691667,16.3533338 216.691667,16.26 Z M226.695,26.18 L226.695,24.34 C226.695,23.2866614 227.101663,22.3666706 227.915,21.58 C228.728338,20.7933294 229.701661,20.4 230.835,20.4 C231.941672,20.4 232.908329,20.7899961 233.735,21.57 C234.561671,22.3500039 234.975,23.273328 234.975,24.34 L234.975,26.18 C234.975,27.2200052 234.558338,28.1433293 233.725,28.95 C232.891663,29.7566707 231.928339,30.16 230.835,30.16 C229.728328,30.16 228.761671,29.760004 227.935,28.96 C227.108329,28.159996 226.695,27.2333386 226.695,26.18 Z M228.795,26.18 C228.795,26.7266694 228.994998,27.2166645 229.395,27.65 C229.795002,28.0833355 230.274997,28.3 230.835,28.3 C231.38167,28.3 231.858332,28.0833355 232.265,27.65 C232.671669,27.2166645 232.875,26.7266694 232.875,26.18 L232.875,24.34 C232.875,23.806664 232.671669,23.3266688 232.265,22.9 C231.858332,22.4733312 231.38167,22.26 230.835,22.26 C230.274997,22.26 229.795002,22.4733312 229.395,22.9 C228.994998,23.3266688 228.795,23.806664 228.795,24.34 L228.795,26.18 Z M237.118334,26.22 L237.118334,21.22 C237.118334,21.0333324 237.224999,20.8700007 237.438334,20.73 C237.651668,20.5899993 237.898332,20.52 238.178334,20.52 C238.458335,20.52 238.701666,20.5899993 238.908334,20.73 C239.115001,20.8700007 239.218334,21.0333324 239.218334,21.22 L239.218334,26.22 C239.218334,26.753336 239.421665,27.2333312 239.828334,27.66 C240.235002,28.0866688 240.711664,28.3 241.258334,28.3 C241.818336,28.3 242.298332,28.0900021 242.698334,27.67 C243.098336,27.2499979 243.298334,26.7666694 243.298334,26.22 L243.298334,21.2 C243.298334,21.0133324 243.401666,20.853334 243.608334,20.72 C243.815001,20.586666 244.064999,20.52 244.358334,20.52 C244.651668,20.52 244.894999,20.586666 245.088334,20.72 C245.281668,20.853334 245.378334,21.0133324 245.378334,21.2 L245.378334,26.22 C245.378334,27.2733386 244.971671,28.1933294 244.158334,28.98 C243.344996,29.7666706 242.378339,30.16 241.258334,30.16 C240.138328,30.16 239.168338,29.7666706 238.348334,28.98 C237.528329,28.1933294 237.118334,27.2733386 237.118334,26.22 Z M247.181667,15.22 C247.181667,15.0599992 247.264999,14.9233339 247.431667,14.81 C247.598334,14.6966661 247.788332,14.64 248.001667,14.64 C248.215001,14.64 248.411666,14.6966661 248.591667,14.81 C248.771668,14.9233339 248.861667,15.0599992 248.861667,15.22 L248.661667,18.04 C248.661667,18.2000008 248.605001,18.3399994 248.491667,18.46 C248.378333,18.5800006 248.215001,18.64 248.001667,18.64 C247.588331,18.64 247.381667,18.440002 247.381667,18.04 L247.181667,15.22 Z M250.745,29.3 L250.745,21.2 C250.745,20.999999 250.841666,20.8366673 251.035,20.71 C251.228334,20.5833327 251.471665,20.52 251.765,20.52 C252.031668,20.52 252.258333,20.5833327 252.445,20.71 C252.631668,20.8366673 252.725,20.999999 252.725,21.2 L252.725,22.08 C252.951668,21.613331 253.294998,21.2166683 253.755,20.89 C254.215002,20.5633317 254.718331,20.4 255.265,20.4 L255.905,20.4 C256.118335,20.4 256.304999,20.4899991 256.465,20.67 C256.625001,20.8500009 256.705,21.0666654 256.705,21.32 C256.705,21.5733346 256.625001,21.7933324 256.465,21.98 C256.304999,22.1666676 256.118335,22.26 255.905,22.26 L255.265,22.26 C254.624997,22.26 254.061669,22.5333306 253.575,23.08 C253.088331,23.6266694 252.845,24.333329 252.845,25.2 L252.845,29.3 C252.845,29.4733342 252.738335,29.6333326 252.525,29.78 C252.311666,29.9266674 252.058335,30 251.765,30 C251.471665,30 251.228334,29.9266674 251.035,29.78 C250.841666,29.6333326 250.745,29.4733342 250.745,29.3 Z M257.728333,26.18 L257.728333,24.28 C257.728333,23.2266614 258.134996,22.3166705 258.948333,21.55 C259.761671,20.7833295 260.741661,20.4 261.888333,20.4 C262.981672,20.4 263.91833,20.7499965 264.698333,21.45 C265.478337,22.1500035 265.868333,23.033328 265.868333,24.1 C265.868333,24.500002 265.821667,24.8233321 265.728333,25.07 C265.635,25.3166679 265.488334,25.4899995 265.288333,25.59 C265.088332,25.6900005 264.901668,25.7533332 264.728333,25.78 C264.554999,25.8066668 264.328335,25.82 264.048333,25.82 L259.828333,25.82 L259.828333,26.28 C259.828333,26.94667 260.068331,27.4766647 260.548333,27.87 C261.028336,28.2633353 261.654996,28.46 262.428333,28.46 C262.975003,28.46 263.491664,28.3333346 263.978333,28.08 C264.465003,27.8266654 264.761666,27.7 264.868333,27.7 C265.095001,27.7 265.288333,27.8066656 265.448333,28.02 C265.608334,28.2333344 265.688333,28.439999 265.688333,28.64 C265.688333,28.973335 265.368337,29.3099983 264.728333,29.65 C264.08833,29.9900017 263.301671,30.16 262.368333,30.16 C261.008327,30.16 259.895004,29.793337 259.028333,29.06 C258.161662,28.326663 257.728333,27.3666726 257.728333,26.18 Z M259.828333,24.52 L263.148333,24.52 C263.441668,24.52 263.638333,24.4800004 263.738333,24.4 C263.838334,24.3199996 263.888333,24.1600012 263.888333,23.92 C263.888333,23.386664 263.695002,22.9333352 263.308333,22.56 C262.921665,22.1866648 262.44167,22 261.868333,22 C261.308331,22 260.828335,22.1766649 260.428333,22.53 C260.028331,22.8833351 259.828333,23.3333306 259.828333,23.88 L259.828333,24.52 Z M271.975,26.56 C271.975,26.226665 272.054999,25.993334 272.215,25.86 C272.375001,25.726666 272.628332,25.66 272.975,25.66 C273.708337,25.66 274.075,25.926664 274.075,26.46 C274.075,26.993336 274.298331,27.4233317 274.745,27.75 C275.191669,28.0766683 275.74833,28.24 276.415,28.24 C278.028341,28.24 278.835,27.3800086 278.835,25.66 L278.835,23.14 C278.234997,23.9000038 277.30834,24.28 276.055,24.28 C273.334986,24.28 271.975,22.9200136 271.975,20.2 L271.975,19.84 C271.975,18.306659 272.381663,17.1800036 273.195,16.46 C274.008337,15.7399964 275.094993,15.38 276.455,15.38 C277.815007,15.38 278.904996,15.7399964 279.725,16.46 C280.545004,17.1800036 280.955,18.306659 280.955,19.84 L280.955,25.66 C280.955,27.193341 280.538338,28.3199964 279.705,29.04 C278.871663,29.7600036 277.755007,30.12 276.355,30.12 C274.968326,30.12 273.891671,29.7633369 273.125,29.05 C272.35833,28.3366631 271.975,27.5066714 271.975,26.56 Z M274.095,20.06 C274.095,21.7400084 274.888325,22.58 276.475,22.58 C278.048341,22.58 278.835,21.8000078 278.835,20.24 L278.835,19.72 C278.835,17.9999914 278.041675,17.14 276.455,17.14 C274.881659,17.14 274.095,17.9999914 274.095,19.72 L274.095,20.06 Z M283.518333,25.66 L283.518333,19.84 C283.518333,18.306659 283.924996,17.1800036 284.738333,16.46 C285.551671,15.7399964 286.638327,15.38 287.998333,15.38 C289.35834,15.38 290.448329,15.7399964 291.268333,16.46 C292.088337,17.1800036 292.498333,18.306659 292.498333,19.84 L292.498333,25.66 C292.498333,27.193341 292.088337,28.3199964 291.268333,29.04 C290.448329,29.7600036 289.35834,30.12 287.998333,30.12 C286.638327,30.12 285.551671,29.7600036 284.738333,29.04 C283.924996,28.3199964 283.518333,27.193341 283.518333,25.66 Z M285.638333,25.66 C285.638333,27.3800086 286.424992,28.24 287.998333,28.24 C288.758337,28.24 289.344998,28.0266688 289.758333,27.6 C290.171669,27.1733312 290.378333,26.526671 290.378333,25.66 L290.378333,19.84 C290.378333,18.973329 290.171669,18.3266688 289.758333,17.9 C289.344998,17.4733312 288.758337,17.26 287.998333,17.26 C286.424992,17.26 285.638333,18.1199914 285.638333,19.84 L285.638333,25.66 Z M294.661667,20.8 L294.661667,17.84 C294.661667,16.1999918 295.561658,15.38 297.361667,15.38 C298.175004,15.38 298.828331,15.5766647 299.321667,15.97 C299.815002,16.3633353 300.061667,16.9866624 300.061667,17.84 L300.061667,20.8 C300.061667,21.6533376 299.815002,22.2766647 299.321667,22.67 C298.828331,23.0633353 298.175004,23.26 297.361667,23.26 C295.561658,23.26 294.661667,22.4400082 294.661667,20.8 Z M296.121667,20.8 C296.121667,21.5866706 296.534996,21.98 297.361667,21.98 C298.201671,21.98 298.621667,21.5866706 298.621667,20.8 L298.621667,17.84 C298.621667,17.0533294 298.201671,16.66 297.361667,16.66 C296.534996,16.66 296.121667,17.0533294 296.121667,17.84 L296.121667,20.8 Z M297.401667,29.96 C297.401667,29.8533328 297.428333,29.7533338 297.481667,29.66 L304.821667,14.96 C304.928334,14.7199988 305.128332,14.6 305.421667,14.6 C305.635001,14.6 305.828332,14.6733326 306.001667,14.82 C306.175001,14.9666674 306.261667,15.1466656 306.261667,15.36 C306.261667,15.4666672 306.241667,15.5733328 306.201667,15.68 L298.861667,30.32 C298.741666,30.5733346 298.515002,30.7 298.181667,30.7 C297.954999,30.7 297.768334,30.6233341 297.621667,30.47 C297.474999,30.3166659 297.401667,30.1466676 297.401667,29.96 Z M303.501667,27.6 L303.501667,24.64 C303.501667,22.9999918 304.401658,22.18 306.201667,22.18 C307.015004,22.18 307.668331,22.3766647 308.161667,22.77 C308.655002,23.1633353 308.901667,23.7866624 308.901667,24.64 L308.901667,27.6 C308.901667,28.4533376 308.655002,29.0766647 308.161667,29.47 C307.668331,29.8633353 307.015004,30.06 306.201667,30.06 C304.401658,30.06 303.501667,29.2400082 303.501667,27.6 Z M304.961667,27.6 C304.961667,28.3866706 305.374996,28.78 306.201667,28.78 C307.041671,28.78 307.461667,28.3866706 307.461667,27.6 L307.461667,24.64 C307.461667,23.8533294 307.041671,23.46 306.201667,23.46 C305.374996,23.46 304.961667,23.8533294 304.961667,24.64 L304.961667,27.6 Z M315.368333,26.88 L315.368333,16.86 C315.368333,16.6733324 315.474999,16.513334 315.688333,16.38 C315.901668,16.246666 316.141665,16.18 316.408333,16.18 C316.675001,16.18 316.918332,16.246666 317.138333,16.38 C317.358334,16.513334 317.468333,16.6733324 317.468333,16.86 L317.468333,20.52 L319.908333,20.52 C320.081667,20.52 320.221666,20.5966659 320.328333,20.75 C320.435,20.9033341 320.488333,21.0866656 320.488333,21.3 C320.488333,21.5133344 320.435,21.6966659 320.328333,21.85 C320.221666,22.0033341 320.081667,22.08 319.908333,22.08 L317.468333,22.08 L317.468333,26.88 C317.468333,27.3600024 317.571666,27.699999 317.778333,27.9 C317.985001,28.100001 318.348331,28.2 318.868333,28.2 L319.568333,28.2 C319.848335,28.2 320.068332,28.2866658 320.228333,28.46 C320.388334,28.6333342 320.468333,28.8466654 320.468333,29.1 C320.468333,29.3533346 320.388334,29.5666658 320.228333,29.74 C320.068332,29.9133342 319.848335,30 319.568333,30 L318.868333,30 C316.534988,30 315.368333,28.9600104 315.368333,26.88 Z M322.371667,29.3 L322.371667,15.56 C322.371667,15.359999 322.468332,15.1966673 322.661667,15.07 C322.855001,14.9433327 323.104998,14.88 323.411667,14.88 C323.705001,14.88 323.954999,14.9433327 324.161667,15.07 C324.368334,15.1966673 324.471667,15.359999 324.471667,15.56 L324.471667,21.92 C324.685001,21.4933312 325.014998,21.1333348 325.461667,20.84 C325.908335,20.5466652 326.431664,20.4 327.031667,20.4 C327.978338,20.4 328.794996,20.7866628 329.481667,21.56 C330.168337,22.3333372 330.511667,23.2599946 330.511667,24.34 L330.511667,29.3 C330.511667,29.5133344 330.405001,29.6833327 330.191667,29.81 C329.978332,29.9366673 329.731668,30 329.451667,30 C329.184999,30 328.945001,29.9366673 328.731667,29.81 C328.518332,29.6833327 328.411667,29.5133344 328.411667,29.3 L328.411667,24.34 C328.411667,23.806664 328.211669,23.3266688 327.811667,22.9 C327.411665,22.4733312 326.938336,22.26 326.391667,22.26 C325.884997,22.26 325.438335,22.4499981 325.051667,22.83 C324.664998,23.2100019 324.471667,23.7133302 324.471667,24.34 L324.471667,29.3 C324.471667,29.4733342 324.365001,29.6333326 324.151667,29.78 C323.938332,29.9266674 323.691668,30 323.411667,30 C323.118332,30 322.871668,29.9266674 322.671667,29.78 C322.471666,29.6333326 322.371667,29.4733342 322.371667,29.3 Z M332.655,26.18 L332.655,24.28 C332.655,23.2266614 333.061662,22.3166705 333.875,21.55 C334.688337,20.7833295 335.668327,20.4 336.815,20.4 C337.908339,20.4 338.844996,20.7499965 339.625,21.45 C340.405004,22.1500035 340.795,23.033328 340.795,24.1 C340.795,24.500002 340.748334,24.8233321 340.655,25.07 C340.561666,25.3166679 340.415001,25.4899995 340.215,25.59 C340.014999,25.6900005 339.828334,25.7533332 339.655,25.78 C339.481666,25.8066668 339.255001,25.82 338.975,25.82 L334.755,25.82 L334.755,26.28 C334.755,26.94667 334.994997,27.4766647 335.475,27.87 C335.955002,28.2633353 336.581663,28.46 337.355,28.46 C337.901669,28.46 338.418331,28.3333346 338.905,28.08 C339.391669,27.8266654 339.688333,27.7 339.795,27.7 C340.021668,27.7 340.214999,27.8066656 340.375,28.02 C340.535001,28.2333344 340.615,28.439999 340.615,28.64 C340.615,28.973335 340.295003,29.3099983 339.655,29.65 C339.014997,29.9900017 338.228338,30.16 337.295,30.16 C335.934993,30.16 334.821671,29.793337 333.955,29.06 C333.088329,28.326663 332.655,27.3666726 332.655,26.18 Z M334.755,24.52 L338.075,24.52 C338.368335,24.52 338.564999,24.4800004 338.665,24.4 C338.765,24.3199996 338.815,24.1600012 338.815,23.92 C338.815,23.386664 338.621668,22.9333352 338.235,22.56 C337.848331,22.1866648 337.368336,22 336.795,22 C336.234997,22 335.755002,22.1766649 335.355,22.53 C334.954998,22.8833351 334.755,23.3333306 334.755,23.88 L334.755,24.52 Z M342.878333,29.3 L342.878333,21.2 C342.878333,20.999999 342.974999,20.8366673 343.168333,20.71 C343.361667,20.5833327 343.604998,20.52 343.898333,20.52 C344.165001,20.52 344.391666,20.5833327 344.578333,20.71 C344.765001,20.8366673 344.858333,20.999999 344.858333,21.2 L344.858333,22.08 C345.085001,21.613331 345.428331,21.2166683 345.888333,20.89 C346.348335,20.5633317 346.851664,20.4 347.398333,20.4 L348.038333,20.4 C348.251668,20.4 348.438332,20.4899991 348.598333,20.67 C348.758334,20.8500009 348.838333,21.0666654 348.838333,21.32 C348.838333,21.5733346 348.758334,21.7933324 348.598333,21.98 C348.438332,22.1666676 348.251668,22.26 348.038333,22.26 L347.398333,22.26 C346.75833,22.26 346.195002,22.5333306 345.708333,23.08 C345.221664,23.6266694 344.978333,24.333329 344.978333,25.2 L344.978333,29.3 C344.978333,29.4733342 344.871668,29.6333326 344.658333,29.78 C344.444999,29.9266674 344.191668,30 343.898333,30 C343.604998,30 343.361667,29.9266674 343.168333,29.78 C342.974999,29.6333326 342.878333,29.4733342 342.878333,29.3 Z M349.861666,26.18 L349.861666,24.28 C349.861666,23.2266614 350.268329,22.3166705 351.081666,21.55 C351.895004,20.7833295 352.874994,20.4 354.021666,20.4 C355.115005,20.4 356.051663,20.7499965 356.831666,21.45 C357.61167,22.1500035 358.001666,23.033328 358.001666,24.1 C358.001666,24.500002 357.955,24.8233321 357.861666,25.07 C357.768333,25.3166679 357.621667,25.4899995 357.421666,25.59 C357.221665,25.6900005 357.035001,25.7533332 356.861666,25.78 C356.688332,25.8066668 356.461668,25.82 356.181666,25.82 L351.961666,25.82 L351.961666,26.28 C351.961666,26.94667 352.201664,27.4766647 352.681666,27.87 C353.161669,28.2633353 353.788329,28.46 354.561666,28.46 C355.108336,28.46 355.624997,28.3333346 356.111666,28.08 C356.598336,27.8266654 356.894999,27.7 357.001666,27.7 C357.228334,27.7 357.421666,27.8066656 357.581666,28.02 C357.741667,28.2333344 357.821666,28.439999 357.821666,28.64 C357.821666,28.973335 357.50167,29.3099983 356.861666,29.65 C356.221663,29.9900017 355.435004,30.16 354.501666,30.16 C353.14166,30.16 352.028337,29.793337 351.161666,29.06 C350.294995,28.326663 349.861666,27.3666726 349.861666,26.18 Z M351.961666,24.52 L355.281666,24.52 C355.575001,24.52 355.771666,24.4800004 355.871666,24.4 C355.971667,24.3199996 356.021666,24.1600012 356.021666,23.92 C356.021666,23.386664 355.828335,22.9333352 355.441666,22.56 C355.054998,22.1866648 354.575003,22 354.001666,22 C353.441664,22 352.961668,22.1766649 352.561666,22.53 C352.161664,22.8833351 351.961666,23.3333306 351.961666,23.88 L351.961666,24.52 Z M359.905,28.92 C359.905,28.586665 360.021665,28.3033345 360.255,28.07 C360.488334,27.8366655 360.771665,27.72 361.105,27.72 C361.425001,27.72 361.701665,27.8366655 361.935,28.07 C362.168334,28.3033345 362.285,28.586665 362.285,28.92 C362.285,29.2400016 362.168334,29.5199988 361.935,29.76 C361.701665,30.0000012 361.425001,30.12 361.105,30.12 C360.771665,30.12 360.488334,30.0000012 360.255,29.76 C360.021665,29.5199988 359.905,29.2400016 359.905,28.92 Z M360.025,16.2 C360.025,15.8933318 360.124999,15.6566675 360.325,15.49 C360.525001,15.3233325 360.778332,15.24 361.085,15.24 C361.391668,15.24 361.644999,15.3266658 361.845,15.5 C362.045001,15.6733342 362.145,15.9066652 362.145,16.2 C362.145,17.1600048 362.101667,18.7266558 362.015,20.9 C361.928333,23.0733442 361.885,24.6399952 361.885,25.6 C361.885,25.800001 361.798334,25.9566661 361.625,26.07 C361.451666,26.1833339 361.271667,26.24 361.085,26.24 C360.53833,26.24 360.265,26.0266688 360.265,25.6 C360.265,24.6399952 360.225,23.0733442 360.145,20.9 C360.064999,18.7266558 360.025,17.1600048 360.025,16.2 Z M126.452667,53.846 C126.452667,53.7019993 126.521667,53.5820005 126.659667,53.486 C126.797668,53.3899995 126.944667,53.342 127.100667,53.342 C127.292668,53.342 127.448667,53.4619988 127.568667,53.702 L130.880667,60.272 L134.210667,53.702 C134.330668,53.4619988 134.486666,53.342 134.678667,53.342 C134.834668,53.342 134.981667,53.3899995 135.119667,53.486 C135.257668,53.5820005 135.326667,53.7019993 135.326667,53.846 C135.326667,53.9540005 135.302668,54.0619995 135.254667,54.17 L131.510667,61.316 C131.486667,61.3880004 131.474667,61.4359999 131.474667,61.46 L131.474667,66.032 C131.474667,66.1760007 131.417668,66.2899996 131.303667,66.374 C131.189667,66.4580004 131.048668,66.5 130.880667,66.5 C130.724667,66.5 130.586668,66.4580004 130.466667,66.374 C130.346667,66.2899996 130.286667,66.1760007 130.286667,66.032 L130.286667,61.46 C130.286667,61.3999997 130.280668,61.3520002 130.268667,61.316 L126.542667,54.17 C126.482667,54.0619995 126.452667,53.9540005 126.452667,53.846 Z M135.080001,63.206 L135.080001,61.244 C135.080001,60.3319954 135.415997,59.5430033 136.088001,58.877 C136.760004,58.2109967 137.557996,57.878 138.482001,57.878 C139.406005,57.878 140.209997,58.2079967 140.894001,58.868 C141.578004,59.5280033 141.920001,60.3199954 141.920001,61.244 L141.920001,63.206 C141.920001,64.1060045 141.575004,64.9009966 140.885001,65.591 C140.194997,66.2810035 139.394005,66.626 138.482001,66.626 C137.581996,66.626 136.790004,66.2810035 136.106001,65.591 C135.421997,64.9009966 135.080001,64.1060045 135.080001,63.206 Z M136.250001,63.206 C136.250001,63.8180031 136.468999,64.3609976 136.907001,64.835 C137.345003,65.3090024 137.869998,65.546 138.482001,65.546 C139.106004,65.546 139.639999,65.3090024 140.084001,64.835 C140.528003,64.3609976 140.750001,63.8180031 140.750001,63.206 L140.750001,61.244 C140.750001,60.6559971 140.525003,60.1280023 140.075001,59.66 C139.624998,59.1919977 139.094004,58.958 138.482001,58.958 C137.869998,58.958 137.345003,59.1919977 136.907001,59.66 C136.468999,60.1280023 136.250001,60.6559971 136.250001,61.244 L136.250001,63.206 Z M144.139334,63.242 L144.139334,58.436 C144.139334,58.3279995 144.196333,58.2260005 144.310334,58.13 C144.424335,58.0339995 144.565333,57.986 144.733334,57.986 C144.877335,57.986 145.009333,58.0339995 145.129334,58.13 C145.249335,58.2260005 145.309334,58.3279995 145.309334,58.436 L145.309334,63.242 C145.309334,63.842003 145.531332,64.3759977 145.975334,64.844 C146.419336,65.3120023 146.947331,65.546 147.559334,65.546 C148.171337,65.546 148.699332,65.3120023 149.143334,64.844 C149.587336,64.3759977 149.809334,63.842003 149.809334,63.242 L149.809334,58.418 C149.809334,58.2979994 149.869333,58.1960004 149.989334,58.112 C150.109335,58.0279996 150.247333,57.986 150.403334,57.986 C150.559335,57.986 150.694333,58.0279996 150.808334,58.112 C150.922335,58.1960004 150.979334,58.2979994 150.979334,58.418 L150.979334,63.242 C150.979334,64.1420045 150.640337,64.9309966 149.962334,65.609 C149.284331,66.2870034 148.483339,66.626 147.559334,66.626 C146.623329,66.626 145.819337,66.2870034 145.147334,65.609 C144.475331,64.9309966 144.139334,64.1420045 144.139334,63.242 Z M152.874667,53.072 C152.874667,52.9639995 152.934667,52.8710004 153.054667,52.793 C153.174668,52.7149996 153.300667,52.676 153.432667,52.676 C153.576668,52.676 153.711667,52.7149996 153.837667,52.793 C153.963668,52.8710004 154.026667,52.9639995 154.026667,53.072 L153.846667,55.718 C153.846667,55.9940014 153.708669,56.132 153.432667,56.132 C153.180666,56.132 153.054667,55.9940014 153.054667,55.718 L152.874667,53.072 Z M156.012001,66.032 L156.012001,58.418 C156.012001,58.2979994 156.066,58.1960004 156.174001,58.112 C156.282001,58.0279996 156.42,57.986 156.588001,57.986 C156.744001,57.986 156.876,58.0279996 156.984001,58.112 C157.092001,58.1960004 157.146001,58.2979994 157.146001,58.418 L157.146001,59.3 C157.362002,58.903998 157.679999,58.5680014 158.100001,58.292 C158.520003,58.0159986 159.005998,57.878 159.558001,57.878 L160.188001,57.878 C160.308001,57.878 160.416,57.9319995 160.512001,58.04 C160.608001,58.1480005 160.656001,58.2739993 160.656001,58.418 C160.656001,58.5620007 160.608001,58.6879995 160.512001,58.796 C160.416,58.9040005 160.308001,58.958 160.188001,58.958 L159.558001,58.958 C158.933998,58.958 158.382003,59.2009976 157.902001,59.687 C157.421998,60.1730024 157.182001,60.8059961 157.182001,61.586 L157.182001,66.032 C157.182001,66.1520006 157.125001,66.2599995 157.011001,66.356 C156.897,66.4520005 156.756001,66.5 156.588001,66.5 C156.432,66.5 156.297001,66.4520005 156.183001,66.356 C156.069,66.2599995 156.012001,66.1520006 156.012001,66.032 Z M161.705334,63.206 L161.705334,61.19 C161.705334,60.2899955 162.041331,59.5130033 162.713334,58.859 C163.385337,58.2049967 164.195329,57.878 165.143334,57.878 C166.055339,57.878 166.844331,58.1899969 167.510334,58.814 C168.176337,59.4380031 168.509334,60.2179953 168.509334,61.154 C168.509334,61.4900017 168.470334,61.759999 168.392334,61.964 C168.314334,62.168001 168.188335,62.3119996 168.014334,62.396 C167.840333,62.4800004 167.681335,62.5339999 167.537334,62.558 C167.393333,62.5820001 167.195335,62.594 166.943334,62.594 L162.875334,62.594 L162.875334,63.26 C162.875334,63.9680035 163.130331,64.5349979 163.640334,64.961 C164.150336,65.3870021 164.80733,65.6 165.611334,65.6 C166.019336,65.6 166.376332,65.5400006 166.682334,65.42 C166.988335,65.2999994 167.222333,65.1800006 167.384334,65.06 C167.546335,64.9399994 167.675333,64.88 167.771334,64.88 C167.903335,64.88 168.020333,64.9429994 168.122334,65.069 C168.224334,65.1950006 168.275334,65.3179994 168.275334,65.438 C168.275334,65.6900013 168.017337,65.9509987 167.501334,66.221 C166.985331,66.4910014 166.343338,66.626 165.575334,66.626 C164.435328,66.626 163.505338,66.3110032 162.785334,65.681 C162.06533,65.0509968 161.705334,64.2260051 161.705334,63.206 Z M162.875334,61.73 L166.475334,61.73 C166.835336,61.73 167.075333,61.6910004 167.195334,61.613 C167.315335,61.5349996 167.375334,61.3700013 167.375334,61.118 C167.375334,60.517997 167.162336,59.9900023 166.736334,59.534 C166.310332,59.0779977 165.773337,58.85 165.125334,58.85 C164.501331,58.85 163.970336,59.0659978 163.532334,59.498 C163.094332,59.9300022 162.875334,60.445997 162.875334,61.046 L162.875334,61.73 Z M174.154001,64.682 C174.154001,64.5379993 174.211,64.3910008 174.325001,64.241 C174.439001,64.0909992 174.562,64.016 174.694001,64.016 C174.790001,64.016 174.91,64.0939992 175.054001,64.25 L175.558001,64.772 C175.738001,64.964001 176.022999,65.1349992 176.413001,65.285 C176.803002,65.4350008 177.255998,65.51 177.772001,65.51 C178.624005,65.51 179.283998,65.2970021 179.752001,64.871 C180.220003,64.4449979 180.454001,63.830004 180.454001,63.026 C180.454001,62.4859973 180.343002,62.0270019 180.121001,61.649 C179.898999,61.2709981 179.614002,60.980001 179.266001,60.776 C178.929999,60.5599989 178.546003,60.3680008 178.114001,60.2 L176.818001,59.696 C176.385998,59.5279992 175.999002,59.3270012 175.657001,59.093 C175.314999,58.8589988 175.033002,58.5290021 174.811001,58.103 C174.588999,57.6769979 174.478001,57.1700029 174.478001,56.582 C174.478001,55.9579969 174.594999,55.4210023 174.829001,54.971 C175.063002,54.5209977 175.377999,54.1820011 175.774001,53.954 C176.170003,53.7259989 176.574998,53.5610005 176.989001,53.459 C177.403003,53.3569995 177.837998,53.306 178.294001,53.306 C179.026004,53.306 179.712997,53.4109989 180.355001,53.621 C180.997004,53.831001 181.318001,54.0919984 181.318001,54.404 C181.318001,54.5480007 181.267001,54.6949992 181.165001,54.845 C181.063,54.9950007 180.940001,55.07 180.796001,55.07 C180.724,55.07 180.586002,55.0130006 180.382001,54.899 C180.178,54.7849994 179.893002,54.6710006 179.527001,54.557 C179.160999,54.4429994 178.744003,54.386 178.276001,54.386 C177.519997,54.386 176.896003,54.5479984 176.404001,54.872 C175.911998,55.1960016 175.666001,55.7299963 175.666001,56.474 C175.666001,56.9900026 175.812999,57.4219983 176.107001,57.77 C176.401002,58.1180017 176.769998,58.3699992 177.214001,58.526 C177.658003,58.6820008 178.137998,58.8679989 178.654001,59.084 C179.170003,59.3000011 179.649998,59.5309988 180.094001,59.777 C180.538003,60.0230012 180.906999,60.4129973 181.201001,60.947 C181.495002,61.4810027 181.642001,62.1379961 181.642001,62.918 C181.642001,64.1540062 181.300004,65.0809969 180.616001,65.699 C179.931997,66.3170031 179.008006,66.626 177.844001,66.626 C176.799995,66.626 175.924004,66.4010023 175.216001,65.951 C174.507997,65.5009977 174.154001,65.078002 174.154001,64.682 Z M184.005334,62.756 L184.005334,57.176 C184.005334,55.8559934 184.34433,54.8870031 185.022334,54.269 C185.700337,53.6509969 186.609328,53.342 187.749334,53.342 C188.88934,53.342 189.79833,53.6509969 190.476334,54.269 C191.154337,54.8870031 191.493334,55.8559934 191.493334,57.176 L191.493334,62.756 C191.493334,64.0880067 191.154337,65.0629969 190.476334,65.681 C189.79833,66.2990031 188.88934,66.608 187.749334,66.608 C186.609328,66.608 185.700337,66.2990031 185.022334,65.681 C184.34433,65.0629969 184.005334,64.0880067 184.005334,62.756 Z M185.193334,62.756 C185.193334,64.5920092 186.045325,65.51 187.749334,65.51 C189.453342,65.51 190.305334,64.5920092 190.305334,62.756 L190.305334,57.176 C190.305334,55.3519909 189.453342,54.44 187.749334,54.44 C186.045325,54.44 185.193334,55.3519909 185.193334,57.176 L185.193334,62.756 Z M198.308,62.756 L198.308,57.176 C198.308,55.8679935 198.658997,54.9020031 199.361,54.278 C200.063004,53.6539969 200.971995,53.342 202.088,53.342 C203.228006,53.342 204.130997,53.6329971 204.797,54.215 C205.463004,54.7970029 205.796,55.5079958 205.796,56.348 C205.796,56.6360014 205.751001,56.8279995 205.661,56.924 C205.571,57.0200005 205.418002,57.068 205.202,57.068 C204.829999,57.068 204.632001,56.9180015 204.608,56.618 C204.596,56.4379991 204.572001,56.2640008 204.536,56.096 C204.5,55.9279992 204.428001,55.739001 204.32,55.529 C204.212,55.3189989 204.071001,55.1360008 203.897,54.98 C203.723,54.8239992 203.480002,54.6950005 203.168,54.593 C202.855999,54.4909995 202.496002,54.44 202.088,54.44 C200.359992,54.44 199.496,55.3519909 199.496,57.176 L199.496,62.756 C199.496,64.5920092 200.383992,65.51 202.16,65.51 C202.664003,65.51 203.083999,65.4410007 203.42,65.303 C203.756002,65.1649993 204.002,64.9640013 204.158,64.7 C204.314001,64.4359987 204.419,64.2110009 204.473,64.025 C204.527001,63.8389991 204.572,63.5960015 204.608,63.296 C204.644001,62.9839984 204.841999,62.828 205.202,62.828 C205.418002,62.828 205.571,62.8789995 205.661,62.981 C205.751001,63.0830005 205.796,63.2779986 205.796,63.566 C205.796,64.4180043 205.457004,65.1379971 204.779,65.726 C204.100997,66.3140029 203.186006,66.608 202.034,66.608 C200.929995,66.608 200.033004,66.2960031 199.343,65.672 C198.652997,65.0479969 198.308,64.0760066 198.308,62.756 Z M208.249334,66.032 L208.249334,53.774 C208.249334,53.4859986 208.447332,53.342 208.843334,53.342 C209.239336,53.342 209.437334,53.4859986 209.437334,53.774 L209.437334,65.402 L214.567334,65.402 C214.831335,65.402 214.963334,65.5819982 214.963334,65.942 C214.963334,66.3140019 214.831335,66.5 214.567334,66.5 L208.789334,66.5 C208.645333,66.5 208.519334,66.4580004 208.411334,66.374 C208.303333,66.2899996 208.249334,66.1760007 208.249334,66.032 Z M216.534667,62.756 L216.534667,57.176 C216.534667,55.8559934 216.873664,54.8870031 217.551667,54.269 C218.22967,53.6509969 219.138661,53.342 220.278667,53.342 C221.418673,53.342 222.327664,53.6509969 223.005667,54.269 C223.68367,54.8870031 224.022667,55.8559934 224.022667,57.176 L224.022667,62.756 C224.022667,64.0880067 223.68367,65.0629969 223.005667,65.681 C222.327664,66.2990031 221.418673,66.608 220.278667,66.608 C219.138661,66.608 218.22967,66.2990031 217.551667,65.681 C216.873664,65.0629969 216.534667,64.0880067 216.534667,62.756 Z M217.722667,62.756 C217.722667,64.5920092 218.574659,65.51 220.278667,65.51 C221.982676,65.51 222.834667,64.5920092 222.834667,62.756 L222.834667,57.176 C222.834667,55.3519909 221.982676,54.44 220.278667,54.44 C218.574659,54.44 217.722667,55.3519909 217.722667,57.176 L217.722667,62.756 Z M226.278,64.682 C226.278,64.5379993 226.335,64.3910008 226.449,64.241 C226.563001,64.0909992 226.686,64.016 226.818,64.016 C226.914001,64.016 227.034,64.0939992 227.178,64.25 L227.682,64.772 C227.862001,64.964001 228.146998,65.1349992 228.537,65.285 C228.927002,65.4350008 229.379998,65.51 229.896,65.51 C230.748005,65.51 231.407998,65.2970021 231.876,64.871 C232.344003,64.4449979 232.578,63.830004 232.578,63.026 C232.578,62.4859973 232.467001,62.0270019 232.245,61.649 C232.022999,61.2709981 231.738002,60.980001 231.39,60.776 C231.053999,60.5599989 230.670003,60.3680008 230.238,60.2 L228.942,59.696 C228.509998,59.5279992 228.123002,59.3270012 227.781,59.093 C227.438999,58.8589988 227.157001,58.5290021 226.935,58.103 C226.712999,57.6769979 226.602,57.1700029 226.602,56.582 C226.602,55.9579969 226.718999,55.4210023 226.953,54.971 C227.187002,54.5209977 227.501998,54.1820011 227.898,53.954 C228.294002,53.7259989 228.698998,53.5610005 229.113,53.459 C229.527002,53.3569995 229.961998,53.306 230.418,53.306 C231.150004,53.306 231.836997,53.4109989 232.479,53.621 C233.121004,53.831001 233.442,54.0919984 233.442,54.404 C233.442,54.5480007 233.391001,54.6949992 233.289,54.845 C233.187,54.9950007 233.064001,55.07 232.92,55.07 C232.848,55.07 232.710001,55.0130006 232.506,54.899 C232.301999,54.7849994 232.017002,54.6710006 231.651,54.557 C231.284999,54.4429994 230.868003,54.386 230.4,54.386 C229.643997,54.386 229.020003,54.5479984 228.528,54.872 C228.035998,55.1960016 227.79,55.7299963 227.79,56.474 C227.79,56.9900026 227.936999,57.4219983 228.231,57.77 C228.525002,58.1180017 228.893998,58.3699992 229.338,58.526 C229.782003,58.6820008 230.261998,58.8679989 230.778,59.084 C231.294003,59.3000011 231.773998,59.5309988 232.218,59.777 C232.662003,60.0230012 233.030999,60.4129973 233.325,60.947 C233.619002,61.4810027 233.766,62.1379961 233.766,62.918 C233.766,64.1540062 233.424004,65.0809969 232.74,65.699 C232.055997,66.3170031 231.132006,66.626 229.968,66.626 C228.923995,66.626 228.048004,66.4010023 227.34,65.951 C226.631997,65.5009977 226.278,65.078002 226.278,64.682 Z M236.273334,66.032 L236.273334,53.792 C236.273334,53.6479993 236.327333,53.5370004 236.435334,53.459 C236.543334,53.3809996 236.669333,53.342 236.813334,53.342 L243.221334,53.342 C243.521335,53.342 243.671334,53.5159983 243.671334,53.864 C243.671334,54.0200008 243.632334,54.1549994 243.554334,54.269 C243.476333,54.3830006 243.365334,54.44 243.221334,54.44 L237.461334,54.44 L237.461334,59.39 L240.287334,59.39 C240.431334,59.39 240.542333,59.4409995 240.620334,59.543 C240.698334,59.6450005 240.737334,59.7739992 240.737334,59.93 C240.737334,60.2540016 240.587335,60.416 240.287334,60.416 L237.461334,60.416 L237.461334,65.402 L243.221334,65.402 C243.353334,65.402 243.461333,65.4559995 243.545334,65.564 C243.629334,65.6720005 243.671334,65.8039992 243.671334,65.96 C243.671334,66.3200018 243.521335,66.5 243.221334,66.5 L236.813334,66.5 C236.669333,66.5 236.543334,66.4580004 236.435334,66.374 C236.327333,66.2899996 236.273334,66.1760007 236.273334,66.032 Z M249.514,63.854 L249.514,54.368 C249.514,54.2479994 249.574,54.1460004 249.694,54.062 C249.814001,53.9779996 249.946,53.936 250.09,53.936 C250.246001,53.936 250.384,53.9779996 250.504,54.062 C250.624001,54.1460004 250.684,54.2479994 250.684,54.368 L250.684,57.986 L253.006,57.986 C253.126001,57.986 253.225,58.0339995 253.303,58.13 C253.381001,58.2260005 253.42,58.3399993 253.42,58.472 C253.42,58.6040007 253.381001,58.7179995 253.303,58.814 C253.225,58.9100005 253.126001,58.958 253.006,58.958 L250.684,58.958 L250.684,63.854 C250.684,64.4420029 250.806999,64.8529988 251.053,65.087 C251.299001,65.3210012 251.733997,65.438 252.358,65.438 L252.862,65.438 C253.018001,65.438 253.147,65.4889995 253.249,65.591 C253.351001,65.6930005 253.402,65.8159993 253.402,65.96 C253.402,66.1040007 253.351001,66.2299995 253.249,66.338 C253.147,66.4460005 253.018001,66.5 252.862,66.5 L252.358,66.5 C250.461991,66.5 249.514,65.6180088 249.514,63.854 Z M254.775334,63.206 L254.775334,61.244 C254.775334,60.3319954 255.11133,59.5430033 255.783334,58.877 C256.455337,58.2109967 257.253329,57.878 258.177334,57.878 C259.101338,57.878 259.90533,58.2079967 260.589334,58.868 C261.273337,59.5280033 261.615334,60.3199954 261.615334,61.244 L261.615334,63.206 C261.615334,64.1060045 261.270337,64.9009966 260.580334,65.591 C259.89033,66.2810035 259.089338,66.626 258.177334,66.626 C257.277329,66.626 256.485337,66.2810035 255.801334,65.591 C255.11733,64.9009966 254.775334,64.1060045 254.775334,63.206 Z M255.945334,63.206 C255.945334,63.8180031 256.164331,64.3609976 256.602334,64.835 C257.040336,65.3090024 257.56533,65.546 258.177334,65.546 C258.801337,65.546 259.335331,65.3090024 259.779334,64.835 C260.223336,64.3609976 260.445334,63.8180031 260.445334,63.206 L260.445334,61.244 C260.445334,60.6559971 260.220336,60.1280023 259.770334,59.66 C259.320331,59.1919977 258.789337,58.958 258.177334,58.958 C257.56533,58.958 257.040336,59.1919977 256.602334,59.66 C256.164331,60.1280023 255.945334,60.6559971 255.945334,61.244 L255.945334,63.206 Z M267.908,66.032 L267.908,53.198 C267.908,53.0779994 267.962,52.9760004 268.07,52.892 C268.178001,52.8079996 268.315999,52.766 268.484,52.766 C268.652001,52.766 268.793,52.8079996 268.907,52.892 C269.021001,52.9760004 269.078,53.0779994 269.078,53.198 L269.078,61.964 L273.47,58.058 C273.590001,57.9859996 273.68,57.95 273.74,57.95 C273.884001,57.95 274.019,58.0069994 274.145,58.121 C274.271001,58.2350006 274.334,58.3639993 274.334,58.508 C274.334,58.6520007 274.292001,58.7599996 274.208,58.832 L271.562,61.154 L274.676,65.708 C274.724,65.8040005 274.748,65.8879996 274.748,65.96 C274.748,66.0920007 274.682001,66.2239993 274.55,66.356 C274.417999,66.4880007 274.274001,66.554 274.118,66.554 C273.973999,66.554 273.854001,66.4820007 273.758,66.338 L270.734,61.892 L269.078,63.35 L269.078,66.032 C269.078,66.1520006 269.021001,66.2599995 268.907,66.356 C268.793,66.4520005 268.652001,66.5 268.484,66.5 C268.327999,66.5 268.193001,66.4520005 268.079,66.356 C267.965,66.2599995 267.908,66.1520006 267.908,66.032 Z M276.499333,55.25 C276.343333,55.0939992 276.265333,54.914001 276.265333,54.71 C276.265333,54.505999 276.343333,54.3320007 276.499333,54.188 C276.655334,54.0439993 276.847332,53.972 277.075333,53.972 C277.291335,53.972 277.474333,54.0439993 277.624333,54.188 C277.774334,54.3320007 277.849333,54.505999 277.849333,54.71 C277.849333,54.914001 277.774334,55.0909992 277.624333,55.241 C277.474333,55.3910008 277.291335,55.466 277.075333,55.466 C276.847332,55.466 276.655334,55.3940007 276.499333,55.25 Z M276.499333,66.032 L276.499333,58.418 C276.499333,58.2979994 276.553333,58.1960004 276.661333,58.112 C276.769334,58.0279996 276.907333,57.986 277.075333,57.986 C277.243334,57.986 277.384333,58.0279996 277.498333,58.112 C277.612334,58.1960004 277.669333,58.2979994 277.669333,58.418 L277.669333,66.032 C277.669333,66.1520006 277.609334,66.2599995 277.489333,66.356 C277.369333,66.4520005 277.231334,66.5 277.075333,66.5 C276.919333,66.5 276.784334,66.4520005 276.670333,66.356 C276.556333,66.2599995 276.499333,66.1520006 276.499333,66.032 Z M279.780667,65.33 C279.780667,65.2099994 279.822666,65.0900006 279.906667,64.97 C279.990667,64.8499994 280.086666,64.79 280.194667,64.79 C280.278667,64.79 280.410666,64.8589993 280.590667,64.997 C280.770668,65.1350007 281.028665,65.2759993 281.364667,65.42 C281.700668,65.5640007 282.102664,65.636 282.570667,65.636 C283.20667,65.636 283.674665,65.5160012 283.974667,65.276 C284.274668,65.0359988 284.424667,64.7300019 284.424667,64.358 C284.424667,63.9259978 284.271668,63.5810013 283.965667,63.323 C283.659665,63.0649987 283.290669,62.8760006 282.858667,62.756 C282.426665,62.6359994 281.991669,62.5040007 281.553667,62.36 C281.115665,62.2159993 280.743668,61.9790017 280.437667,61.649 C280.131665,61.3189984 279.978667,60.8780028 279.978667,60.326 C279.978667,59.6659967 280.215664,59.0930024 280.689667,58.607 C281.163669,58.1209976 281.874662,57.878 282.822667,57.878 C283.41067,57.878 283.959664,57.9709991 284.469667,58.157 C284.979669,58.3430009 285.234667,58.5439989 285.234667,58.76 C285.234667,58.8800006 285.186667,59.0119993 285.090667,59.156 C284.994666,59.3000007 284.880667,59.372 284.748667,59.372 C284.712667,59.372 284.490669,59.2880008 284.082667,59.12 C283.674665,58.9519992 283.260669,58.868 282.840667,58.868 C282.240664,58.868 281.790668,59.0119986 281.490667,59.3 C281.190665,59.5880014 281.040667,59.9119982 281.040667,60.272 C281.040667,60.6440019 281.193665,60.9379989 281.499667,61.154 C281.805668,61.3700011 282.177665,61.5349994 282.615667,61.649 C283.053669,61.7630006 283.491665,61.8949992 283.929667,62.045 C284.367669,62.1950007 284.739665,62.4589981 285.045667,62.837 C285.351668,63.2150019 285.504667,63.703997 285.504667,64.304 C285.504667,65.0240036 285.249669,65.5909979 284.739667,66.005 C284.229664,66.4190021 283.518671,66.626 282.606667,66.626 C281.814663,66.626 281.145669,66.4850014 280.599667,66.203 C280.053664,65.9209986 279.780667,65.6300015 279.780667,65.33 Z M287.094,65.33 C287.094,65.2099994 287.136,65.0900006 287.22,64.97 C287.304,64.8499994 287.4,64.79 287.508,64.79 C287.592,64.79 287.723999,64.8589993 287.904,64.997 C288.084001,65.1350007 288.341998,65.2759993 288.678,65.42 C289.014002,65.5640007 289.415998,65.636 289.884,65.636 C290.520003,65.636 290.987999,65.5160012 291.288,65.276 C291.588002,65.0359988 291.738,64.7300019 291.738,64.358 C291.738,63.9259978 291.585002,63.5810013 291.279,63.323 C290.972999,63.0649987 290.604002,62.8760006 290.172,62.756 C289.739998,62.6359994 289.305002,62.5040007 288.867,62.36 C288.428998,62.2159993 288.057002,61.9790017 287.751,61.649 C287.444999,61.3189984 287.292,60.8780028 287.292,60.326 C287.292,59.6659967 287.528998,59.0930024 288.003,58.607 C288.477002,58.1209976 289.187995,57.878 290.136,57.878 C290.724003,57.878 291.272997,57.9709991 291.783,58.157 C292.293003,58.3430009 292.548,58.5439989 292.548,58.76 C292.548,58.8800006 292.500001,59.0119993 292.404,59.156 C292.308,59.3000007 292.194001,59.372 292.062,59.372 C292.026,59.372 291.804002,59.2880008 291.396,59.12 C290.987998,58.9519992 290.574002,58.868 290.154,58.868 C289.553997,58.868 289.104002,59.0119986 288.804,59.3 C288.503999,59.5880014 288.354,59.9119982 288.354,60.272 C288.354,60.6440019 288.506999,60.9379989 288.813,61.154 C289.119002,61.3700011 289.490998,61.5349994 289.929,61.649 C290.367002,61.7630006 290.804998,61.8949992 291.243,62.045 C291.681002,62.1950007 292.052999,62.4589981 292.359,62.837 C292.665002,63.2150019 292.818,63.703997 292.818,64.304 C292.818,65.0240036 292.563003,65.5909979 292.053,66.005 C291.542997,66.4190021 290.832005,66.626 289.92,66.626 C289.127996,66.626 288.459003,66.4850014 287.913,66.203 C287.366997,65.9209986 287.094,65.6300015 287.094,65.33 Z M294.947333,55.25 C294.791333,55.0939992 294.713333,54.914001 294.713333,54.71 C294.713333,54.505999 294.791333,54.3320007 294.947333,54.188 C295.103334,54.0439993 295.295332,53.972 295.523333,53.972 C295.739334,53.972 295.922333,54.0439993 296.072333,54.188 C296.222334,54.3320007 296.297333,54.505999 296.297333,54.71 C296.297333,54.914001 296.222334,55.0909992 296.072333,55.241 C295.922333,55.3910008 295.739334,55.466 295.523333,55.466 C295.295332,55.466 295.103334,55.3940007 294.947333,55.25 Z M294.947333,66.032 L294.947333,58.418 C294.947333,58.2979994 295.001333,58.1960004 295.109333,58.112 C295.217334,58.0279996 295.355333,57.986 295.523333,57.986 C295.691334,57.986 295.832333,58.0279996 295.946333,58.112 C296.060334,58.1960004 296.117333,58.2979994 296.117333,58.418 L296.117333,66.032 C296.117333,66.1520006 296.057334,66.2599995 295.937333,66.356 C295.817333,66.4520005 295.679334,66.5 295.523333,66.5 C295.367333,66.5 295.232334,66.4520005 295.118333,66.356 C295.004333,66.2599995 294.947333,66.1520006 294.947333,66.032 Z M298.768667,66.032 L298.768667,58.418 C298.768667,58.2859993 298.822666,58.1810004 298.930667,58.103 C299.038667,58.0249996 299.176666,57.986 299.344667,57.986 C299.488667,57.986 299.614666,58.0279996 299.722667,58.112 C299.830667,58.1960004 299.884667,58.2979994 299.884667,58.418 L299.884667,59.246 C300.088668,58.8619981 300.400665,58.5380013 300.820667,58.274 C301.240669,58.0099987 301.732664,57.878 302.296667,57.878 C303.160671,57.878 303.910663,58.2079967 304.546667,58.868 C305.18267,59.5280033 305.500667,60.3199954 305.500667,61.244 L305.500667,66.032 C305.500667,66.1760007 305.440667,66.2899996 305.320667,66.374 C305.200666,66.4580004 305.062667,66.5 304.906667,66.5 C304.762666,66.5 304.630667,66.4580004 304.510667,66.374 C304.390666,66.2899996 304.330667,66.1760007 304.330667,66.032 L304.330667,61.244 C304.330667,60.6559971 304.108669,60.1280023 303.664667,59.66 C303.220664,59.1919977 302.69267,58.958 302.080667,58.958 C301.516664,58.958 301.018669,59.1679979 300.586667,59.588 C300.154664,60.0080021 299.938667,60.5599966 299.938667,61.244 L299.938667,66.032 C299.938667,66.1520006 299.878667,66.2599995 299.758667,66.356 C299.638666,66.4520005 299.500667,66.5 299.344667,66.5 C299.176666,66.5 299.038667,66.4520005 298.930667,66.356 C298.822666,66.2599995 298.768667,66.1520006 298.768667,66.032 Z M307.396,68.282 C307.396,67.3819955 307.905995,66.728002 308.926,66.32 C308.265997,66.0919989 307.936,65.678003 307.936,65.078 C307.936,64.5379973 308.235997,64.1060016 308.836,63.782 C308.175997,63.2299972 307.846,62.4740048 307.846,61.514 L307.846,60.83 C307.846,59.9539956 308.130997,59.2430027 308.701,58.697 C309.271003,58.1509973 310.017995,57.878 310.942,57.878 C311.782004,57.878 312.483997,58.1299975 313.048,58.634 C313.228001,58.2859983 313.431999,58.010001 313.66,57.806 C313.888001,57.601999 314.109999,57.5 314.326,57.5 C314.494001,57.5 314.625999,57.5479995 314.722,57.644 C314.818,57.7400005 314.866,57.8479994 314.866,57.968 C314.866,58.1840011 314.764001,58.3159998 314.56,58.364 C314.139998,58.4480004 313.804001,58.7059978 313.552,59.138 C313.888002,59.5820022 314.056,60.1459966 314.056,60.83 L314.056,61.514 C314.056,62.3780043 313.762003,63.0919972 313.174,63.656 C312.585997,64.2200028 311.836005,64.502 310.924,64.502 C310.431997,64.502 309.970002,64.400001 309.538,64.196 C309.165998,64.400001 308.98,64.6339987 308.98,64.898 C308.98,65.1500013 309.117999,65.3419993 309.394,65.474 C309.670001,65.6060007 310.014998,65.6899998 310.429,65.726 C310.843002,65.7620002 311.292998,65.8189996 311.779,65.897 C312.265002,65.9750004 312.714998,66.0739994 313.129,66.194 C313.543002,66.3140006 313.887999,66.5359984 314.164,66.86 C314.440001,67.1840016 314.578,67.6039974 314.578,68.12 C314.578,68.9360041 314.254003,69.5659978 313.606,70.01 C312.957997,70.4540022 312.106005,70.676 311.05,70.676 C309.969995,70.676 309.091003,70.4600022 308.413,70.028 C307.734997,69.5959978 307.396,69.0140037 307.396,68.282 Z M308.53,68.174 C308.53,68.6660025 308.754998,69.0619985 309.205,69.362 C309.655002,69.6620015 310.263996,69.812 311.032,69.812 C311.788004,69.812 312.378998,69.6620015 312.805,69.362 C313.231002,69.0619985 313.444,68.6600025 313.444,68.156 C313.444,67.9159988 313.384001,67.7060009 313.264,67.526 C313.143999,67.3459991 313.003001,67.2080005 312.841,67.112 C312.678999,67.0159995 312.466001,66.9320004 312.202,66.86 C311.937999,66.7879996 311.707001,66.7400001 311.509,66.716 C311.310999,66.6919999 311.062001,66.6680001 310.762,66.644 L310.132,66.572 C309.063995,66.9080017 308.53,67.4419963 308.53,68.174 Z M308.98,61.496 C308.98,62.1200031 309.156998,62.629998 309.511,63.026 C309.865002,63.422002 310.347997,63.62 310.96,63.62 C311.548003,63.62 312.018998,63.422002 312.373,63.026 C312.727002,62.629998 312.904,62.1260031 312.904,61.514 L312.904,60.83 C312.904,60.229997 312.727002,59.7350019 312.373,59.345 C312.018998,58.9549981 311.542003,58.76 310.942,58.76 C310.341997,58.76 309.865002,58.9549981 309.511,59.345 C309.156998,59.7350019 308.98,60.229997 308.98,60.83 L308.98,61.496 Z M320.546667,63.854 L320.546667,54.368 C320.546667,54.2479994 320.606666,54.1460004 320.726667,54.062 C320.846667,53.9779996 320.978666,53.936 321.122667,53.936 C321.278667,53.936 321.416666,53.9779996 321.536667,54.062 C321.656667,54.1460004 321.716667,54.2479994 321.716667,54.368 L321.716667,57.986 L324.038667,57.986 C324.158667,57.986 324.257666,58.0339995 324.335667,58.13 C324.413667,58.2260005 324.452667,58.3399993 324.452667,58.472 C324.452667,58.6040007 324.413667,58.7179995 324.335667,58.814 C324.257666,58.9100005 324.158667,58.958 324.038667,58.958 L321.716667,58.958 L321.716667,63.854 C321.716667,64.4420029 321.839665,64.8529988 322.085667,65.087 C322.331668,65.3210012 322.766663,65.438 323.390667,65.438 L323.894667,65.438 C324.050667,65.438 324.179666,65.4889995 324.281667,65.591 C324.383667,65.6930005 324.434667,65.8159993 324.434667,65.96 C324.434667,66.1040007 324.383667,66.2299995 324.281667,66.338 C324.179666,66.4460005 324.050667,66.5 323.894667,66.5 L323.390667,66.5 C321.494657,66.5 320.546667,65.6180088 320.546667,63.854 Z M326.312,66.032 L326.312,53.198 C326.312,53.0779994 326.365999,52.9760004 326.474,52.892 C326.582,52.8079996 326.719999,52.766 326.888,52.766 C327.056001,52.766 327.196999,52.8079996 327.311,52.892 C327.425,52.9760004 327.482,53.0779994 327.482,53.198 L327.482,59.246 C327.686001,58.8619981 327.994998,58.5380013 328.409,58.274 C328.823002,58.0099987 329.305997,57.878 329.858,57.878 C330.722004,57.878 331.468997,58.2079967 332.099,58.868 C332.729003,59.5280033 333.044,60.3199954 333.044,61.244 L333.044,66.032 C333.044,66.1760007 332.987,66.2899996 332.873,66.374 C332.758999,66.4580004 332.618001,66.5 332.45,66.5 C332.305999,66.5 332.174,66.4580004 332.054,66.374 C331.933999,66.2899996 331.874,66.1760007 331.874,66.032 L331.874,61.244 C331.874,60.6559971 331.652002,60.1280023 331.208,59.66 C330.763998,59.1919977 330.242003,58.958 329.642,58.958 C329.077997,58.958 328.577002,59.1679979 328.139,59.588 C327.700998,60.0080021 327.482,60.5599966 327.482,61.244 L327.482,66.032 C327.482,66.1520006 327.422,66.2599995 327.302,66.356 C327.181999,66.4520005 327.044001,66.5 326.888,66.5 C326.731999,66.5 326.597,66.4520005 326.483,66.356 C326.368999,66.2599995 326.312,66.1520006 326.312,66.032 Z M335.299333,63.206 L335.299333,61.19 C335.299333,60.2899955 335.63533,59.5130033 336.307333,58.859 C336.979337,58.2049967 337.789328,57.878 338.737333,57.878 C339.649338,57.878 340.43833,58.1899969 341.104333,58.814 C341.770336,59.4380031 342.103333,60.2179953 342.103333,61.154 C342.103333,61.4900017 342.064334,61.759999 341.986333,61.964 C341.908333,62.168001 341.782334,62.3119996 341.608333,62.396 C341.434332,62.4800004 341.275334,62.5339999 341.131333,62.558 C340.987332,62.5820001 340.789334,62.594 340.537333,62.594 L336.469333,62.594 L336.469333,63.26 C336.469333,63.9680035 336.724331,64.5349979 337.234333,64.961 C337.744336,65.3870021 338.401329,65.6 339.205333,65.6 C339.613335,65.6 339.970332,65.5400006 340.276333,65.42 C340.582335,65.2999994 340.816332,65.1800006 340.978333,65.06 C341.140334,64.9399994 341.269333,64.88 341.365333,64.88 C341.497334,64.88 341.614333,64.9429994 341.716333,65.069 C341.818334,65.1950006 341.869333,65.3179994 341.869333,65.438 C341.869333,65.6900013 341.611336,65.9509987 341.095333,66.221 C340.579331,66.4910014 339.937337,66.626 339.169333,66.626 C338.029327,66.626 337.099337,66.3110032 336.379333,65.681 C335.65933,65.0509968 335.299333,64.2260051 335.299333,63.206 Z M336.469333,61.73 L340.069333,61.73 C340.429335,61.73 340.669333,61.6910004 340.789333,61.613 C340.909334,61.5349996 340.969333,61.3700013 340.969333,61.118 C340.969333,60.517997 340.756335,59.9900023 340.330333,59.534 C339.904331,59.0779977 339.367336,58.85 338.719333,58.85 C338.09533,58.85 337.564335,59.0659978 337.126333,59.498 C336.688331,59.9300022 336.469333,60.445997 336.469333,61.046 L336.469333,61.73 Z M347.694,65.33 C347.694,65.2099994 347.735999,65.0900006 347.82,64.97 C347.904,64.8499994 347.999999,64.79 348.108,64.79 C348.192,64.79 348.323999,64.8589993 348.504,64.997 C348.684001,65.1350007 348.941998,65.2759993 349.278,65.42 C349.614001,65.5640007 350.015997,65.636 350.484,65.636 C351.120003,65.636 351.587998,65.5160012 351.888,65.276 C352.188001,65.0359988 352.338,64.7300019 352.338,64.358 C352.338,63.9259978 352.185001,63.5810013 351.879,63.323 C351.572998,63.0649987 351.204002,62.8760006 350.772,62.756 C350.339998,62.6359994 349.905002,62.5040007 349.467,62.36 C349.028998,62.2159993 348.657001,61.9790017 348.351,61.649 C348.044998,61.3189984 347.892,60.8780028 347.892,60.326 C347.892,59.6659967 348.128997,59.0930024 348.603,58.607 C349.077002,58.1209976 349.787995,57.878 350.736,57.878 C351.324003,57.878 351.872997,57.9709991 352.383,58.157 C352.893002,58.3430009 353.148,58.5439989 353.148,58.76 C353.148,58.8800006 353.1,59.0119993 353.004,59.156 C352.907999,59.3000007 352.794,59.372 352.662,59.372 C352.626,59.372 352.404002,59.2880008 351.996,59.12 C351.587998,58.9519992 351.174002,58.868 350.754,58.868 C350.153997,58.868 349.704001,59.0119986 349.404,59.3 C349.103998,59.5880014 348.954,59.9119982 348.954,60.272 C348.954,60.6440019 349.106998,60.9379989 349.413,61.154 C349.719001,61.3700011 350.090998,61.5349994 350.529,61.649 C350.967002,61.7630006 351.404998,61.8949992 351.843,62.045 C352.281002,62.1950007 352.652998,62.4589981 352.959,62.837 C353.265001,63.2150019 353.418,63.703997 353.418,64.304 C353.418,65.0240036 353.163002,65.5909979 352.653,66.005 C352.142997,66.4190021 351.432004,66.626 350.52,66.626 C349.727996,66.626 349.059002,66.4850014 348.513,66.203 C347.966997,65.9209986 347.694,65.6300015 347.694,65.33 Z M355.547333,66.032 L355.547333,53.198 C355.547333,53.0779994 355.601333,52.9760004 355.709333,52.892 C355.817334,52.8079996 355.955332,52.766 356.123333,52.766 C356.291334,52.766 356.432332,52.8079996 356.546333,52.892 C356.660334,52.9760004 356.717333,53.0779994 356.717333,53.198 L356.717333,61.964 L361.109333,58.058 C361.229334,57.9859996 361.319333,57.95 361.379333,57.95 C361.523334,57.95 361.658332,58.0069994 361.784333,58.121 C361.910334,58.2350006 361.973333,58.3639993 361.973333,58.508 C361.973333,58.6520007 361.931333,58.7599996 361.847333,58.832 L359.201333,61.154 L362.315333,65.708 C362.363333,65.8040005 362.387333,65.8879996 362.387333,65.96 C362.387333,66.0920007 362.321334,66.2239993 362.189333,66.356 C362.057332,66.4880007 361.913334,66.554 361.757333,66.554 C361.613332,66.554 361.493334,66.4820007 361.397333,66.338 L358.373333,61.892 L356.717333,63.35 L356.717333,66.032 C356.717333,66.1520006 356.660334,66.2599995 356.546333,66.356 C356.432332,66.4520005 356.291334,66.5 356.123333,66.5 C355.967332,66.5 355.832334,66.4520005 355.718333,66.356 C355.604332,66.2599995 355.547333,66.1520006 355.547333,66.032 Z M363.256666,58.436 C363.256666,58.2919993 363.334666,58.1630006 363.490666,58.049 C363.646667,57.9349994 363.808666,57.878 363.976666,57.878 C364.204667,57.878 364.342666,57.9619992 364.390666,58.13 L366.856666,64.754 L369.178666,58.13 C369.250667,57.9619992 369.382665,57.878 369.574666,57.878 C369.730667,57.878 369.889666,57.9349994 370.051666,58.049 C370.213667,58.1630006 370.294666,58.2979992 370.294666,58.454 C370.294666,58.5260004 370.282666,58.5739999 370.258666,58.598 L367.468666,66.158 L367.144666,67.04 C367.084666,67.1960008 366.967667,67.477998 366.793666,67.886 C366.619665,68.294002 366.472667,68.5879991 366.352666,68.768 L365.884666,69.488 C365.680665,69.7880015 365.485667,70.0039993 365.299666,70.136 C365.113665,70.2680007 364.888668,70.3909994 364.624666,70.505 C364.360665,70.6190006 364.090668,70.676 363.814666,70.676 C363.454665,70.676 363.274666,70.5020017 363.274666,70.154 C363.274666,69.7939982 363.394665,69.614 363.634666,69.614 C364.186669,69.614 364.699664,69.2810033 365.173666,68.615 C365.647669,67.9489967 366.004665,67.1240049 366.244666,66.14 L363.310666,58.598 C363.274666,58.5379997 363.256666,58.4840002 363.256666,58.436 Z M371.182,65.78 C371.182,65.5399988 371.259999,65.3390008 371.416,65.177 C371.572,65.0149992 371.769998,64.934 372.01,64.934 C372.226001,64.934 372.414999,65.0179992 372.577,65.186 C372.739,65.3540008 372.82,65.5519989 372.82,65.78 C372.82,65.9960011 372.739,66.1879992 372.577,66.356 C372.414999,66.5240008 372.226001,66.608 372.01,66.608 C371.769998,66.608 371.572,66.5270008 371.416,66.365 C371.259999,66.2029992 371.182,66.0080011 371.182,65.78 Z M379.274666,66.032 L379.274666,53.774 C379.274666,53.4859986 379.472664,53.342 379.868666,53.342 C380.264668,53.342 380.462666,53.4859986 380.462666,53.774 L380.462666,60.146 L385.664666,53.522 C385.748667,53.4019994 385.874665,53.342 386.042666,53.342 C386.186667,53.342 386.330666,53.4079993 386.474666,53.54 C386.618667,53.6720007 386.690666,53.8099993 386.690666,53.954 C386.690666,54.0620005 386.660667,54.1519996 386.600666,54.224 L382.730666,59.03 L387.158666,65.69 C387.206666,65.7860005 387.230666,65.8639997 387.230666,65.924 C387.230666,66.0800008 387.158667,66.2209994 387.014666,66.347 C386.870666,66.4730006 386.714667,66.536 386.546666,66.536 C386.378665,66.536 386.228667,66.4460009 386.096666,66.266 L381.938666,60.02 L380.462666,61.892 L380.462666,66.032 C380.462666,66.1760007 380.402667,66.2899996 380.282666,66.374 C380.162666,66.4580004 380.024667,66.5 379.868666,66.5 C379.700665,66.5 379.559667,66.4580004 379.445666,66.374 C379.331666,66.2899996 379.274666,66.1760007 379.274666,66.032 Z M388.352,63.206 L388.352,61.19 C388.352,60.2899955 388.687996,59.5130033 389.36,58.859 C390.032003,58.2049967 390.841995,57.878 391.79,57.878 C392.702004,57.878 393.490996,58.1899969 394.157,58.814 C394.823003,59.4380031 395.156,60.2179953 395.156,61.154 C395.156,61.4900017 395.117,61.759999 395.039,61.964 C394.960999,62.168001 394.835,62.3119996 394.661,62.396 C394.486999,62.4800004 394.328,62.5339999 394.184,62.558 C394.039999,62.5820001 393.842001,62.594 393.59,62.594 L389.522,62.594 L389.522,63.26 C389.522,63.9680035 389.776997,64.5349979 390.287,64.961 C390.797002,65.3870021 391.453996,65.6 392.258,65.6 C392.666002,65.6 393.022998,65.5400006 393.329,65.42 C393.635001,65.2999994 393.868999,65.1800006 394.031,65.06 C394.193,64.9399994 394.321999,64.88 394.418,64.88 C394.55,64.88 394.666999,64.9429994 394.769,65.069 C394.871,65.1950006 394.922,65.3179994 394.922,65.438 C394.922,65.6900013 394.664002,65.9509987 394.148,66.221 C393.631997,66.4910014 392.990003,66.626 392.222,66.626 C391.081994,66.626 390.152003,66.3110032 389.432,65.681 C388.711996,65.0509968 388.352,64.2260051 388.352,63.206 Z M389.522,61.73 L393.122,61.73 C393.482001,61.73 393.721999,61.6910004 393.842,61.613 C393.962,61.5349996 394.022,61.3700013 394.022,61.118 C394.022,60.517997 393.809002,59.9900023 393.383,59.534 C392.956997,59.0779977 392.420003,58.85 391.772,58.85 C391.147996,58.85 390.617002,59.0659978 390.179,59.498 C389.740997,59.9300022 389.522,60.445997 389.522,61.046 L389.522,61.73 Z M396.979333,63.206 L396.979333,61.19 C396.979333,60.2899955 397.315329,59.5130033 397.987333,58.859 C398.659336,58.2049967 399.469328,57.878 400.417333,57.878 C401.329337,57.878 402.11833,58.1899969 402.784333,58.814 C403.450336,59.4380031 403.783333,60.2179953 403.783333,61.154 C403.783333,61.4900017 403.744333,61.759999 403.666333,61.964 C403.588332,62.168001 403.462334,62.3119996 403.288333,62.396 C403.114332,62.4800004 402.955334,62.5339999 402.811333,62.558 C402.667332,62.5820001 402.469334,62.594 402.217333,62.594 L398.149333,62.594 L398.149333,63.26 C398.149333,63.9680035 398.40433,64.5349979 398.914333,64.961 C399.424335,65.3870021 400.081329,65.6 400.885333,65.6 C401.293335,65.6 401.650331,65.5400006 401.956333,65.42 C402.262334,65.2999994 402.496332,65.1800006 402.658333,65.06 C402.820334,64.9399994 402.949332,64.88 403.045333,64.88 C403.177334,64.88 403.294332,64.9429994 403.396333,65.069 C403.498333,65.1950006 403.549333,65.3179994 403.549333,65.438 C403.549333,65.6900013 403.291335,65.9509987 402.775333,66.221 C402.25933,66.4910014 401.617337,66.626 400.849333,66.626 C399.709327,66.626 398.779336,66.3110032 398.059333,65.681 C397.339329,65.0509968 396.979333,64.2260051 396.979333,63.206 Z M398.149333,61.73 L401.749333,61.73 C402.109335,61.73 402.349332,61.6910004 402.469333,61.613 C402.589333,61.5349996 402.649333,61.3700013 402.649333,61.118 C402.649333,60.517997 402.436335,59.9900023 402.010333,59.534 C401.584331,59.0779977 401.047336,58.85 400.399333,58.85 C399.77533,58.85 399.244335,59.0659978 398.806333,59.498 C398.368331,59.9300022 398.149333,60.445997 398.149333,61.046 L398.149333,61.73 Z M405.930666,70.226 L405.930666,58.418 C405.930666,58.2979994 405.984666,58.1960004 406.092666,58.112 C406.200667,58.0279996 406.338665,57.986 406.506666,57.986 C406.662667,57.986 406.794666,58.0279996 406.902666,58.112 C407.010667,58.1960004 407.064666,58.2979994 407.064666,58.418 L407.064666,59.246 C407.280667,58.8619981 407.598664,58.5380013 408.018666,58.274 C408.438668,58.0099987 408.924663,57.878 409.476666,57.878 C410.364671,57.878 411.126663,58.2079967 411.762666,58.868 C412.398669,59.5280033 412.716666,60.3199954 412.716666,61.244 L412.716666,63.206 C412.716666,64.1060045 412.395669,64.9009966 411.753666,65.591 C411.111663,66.2810035 410.37067,66.626 409.530666,66.626 C409.002664,66.626 408.516668,66.4910014 408.072666,66.221 C407.628664,65.9509987 407.304667,65.6240019 407.100666,65.24 L407.100666,70.226 C407.100666,70.3340005 407.043667,70.4359995 406.929666,70.532 C406.815666,70.6280005 406.674667,70.676 406.506666,70.676 C406.350665,70.676 406.215667,70.6280005 406.101666,70.532 C405.987666,70.4359995 405.930666,70.3340005 405.930666,70.226 Z M407.100666,63.764 C407.100666,64.0880016 407.325664,64.4659978 407.775666,64.898 C408.225668,65.3300022 408.738663,65.546 409.314666,65.546 C409.902669,65.546 410.421664,65.3060024 410.871666,64.826 C411.321668,64.3459976 411.546666,63.806003 411.546666,63.206 L411.546666,61.244 C411.546666,60.6559971 411.321668,60.1280023 410.871666,59.66 C410.421664,59.1919977 409.890669,58.958 409.278666,58.958 C408.702663,58.958 408.195668,59.1679979 407.757666,59.588 C407.319664,60.0080021 407.100666,60.5599966 407.100666,61.244 L407.100666,63.764 Z M419.009333,55.25 C418.853332,55.0939992 418.775333,54.914001 418.775333,54.71 C418.775333,54.505999 418.853332,54.3320007 419.009333,54.188 C419.165334,54.0439993 419.357332,53.972 419.585333,53.972 C419.801334,53.972 419.984332,54.0439993 420.134333,54.188 C420.284333,54.3320007 420.359333,54.505999 420.359333,54.71 C420.359333,54.914001 420.284333,55.0909992 420.134333,55.241 C419.984332,55.3910008 419.801334,55.466 419.585333,55.466 C419.357332,55.466 419.165334,55.3940007 419.009333,55.25 Z M419.009333,66.032 L419.009333,58.418 C419.009333,58.2979994 419.063332,58.1960004 419.171333,58.112 C419.279333,58.0279996 419.417332,57.986 419.585333,57.986 C419.753334,57.986 419.894332,58.0279996 420.008333,58.112 C420.122333,58.1960004 420.179333,58.2979994 420.179333,58.418 L420.179333,66.032 C420.179333,66.1520006 420.119333,66.2599995 419.999333,66.356 C419.879332,66.4520005 419.741334,66.5 419.585333,66.5 C419.429332,66.5 419.294333,66.4520005 419.180333,66.356 C419.066332,66.2599995 419.009333,66.1520006 419.009333,66.032 Z M422.794666,63.854 L422.794666,54.368 C422.794666,54.2479994 422.854665,54.1460004 422.974666,54.062 C423.094667,53.9779996 423.226665,53.936 423.370666,53.936 C423.526667,53.936 423.664665,53.9779996 423.784666,54.062 C423.904667,54.1460004 423.964666,54.2479994 423.964666,54.368 L423.964666,57.986 L426.286666,57.986 C426.406667,57.986 426.505666,58.0339995 426.583666,58.13 C426.661666,58.2260005 426.700666,58.3399993 426.700666,58.472 C426.700666,58.6040007 426.661666,58.7179995 426.583666,58.814 C426.505666,58.9100005 426.406667,58.958 426.286666,58.958 L423.964666,58.958 L423.964666,63.854 C423.964666,64.4420029 424.087665,64.8529988 424.333666,65.087 C424.579667,65.3210012 425.014663,65.438 425.638666,65.438 L426.142666,65.438 C426.298667,65.438 426.427666,65.4889995 426.529666,65.591 C426.631667,65.6930005 426.682666,65.8159993 426.682666,65.96 C426.682666,66.1040007 426.631667,66.2299995 426.529666,66.338 C426.427666,66.4460005 426.298667,66.5 426.142666,66.5 L425.638666,66.5 C423.742657,66.5 422.794666,65.6180088 422.794666,63.854 Z M432.453333,63.242 L432.453333,58.436 C432.453333,58.3279995 432.510332,58.2260005 432.624333,58.13 C432.738333,58.0339995 432.879332,57.986 433.047333,57.986 C433.191333,57.986 433.323332,58.0339995 433.443333,58.13 C433.563333,58.2260005 433.623333,58.3279995 433.623333,58.436 L433.623333,63.242 C433.623333,63.842003 433.84533,64.3759977 434.289333,64.844 C434.733335,65.3120023 435.26133,65.546 435.873333,65.546 C436.485336,65.546 437.01333,65.3120023 437.457333,64.844 C437.901335,64.3759977 438.123333,63.842003 438.123333,63.242 L438.123333,58.418 C438.123333,58.2979994 438.183332,58.1960004 438.303333,58.112 C438.423333,58.0279996 438.561332,57.986 438.717333,57.986 C438.873333,57.986 439.008332,58.0279996 439.122333,58.112 C439.236333,58.1960004 439.293333,58.2979994 439.293333,58.418 L439.293333,63.242 C439.293333,64.1420045 438.954336,64.9309966 438.276333,65.609 C437.598329,66.2870034 436.797337,66.626 435.873333,66.626 C434.937328,66.626 434.133336,66.2870034 433.461333,65.609 C432.789329,64.9309966 432.453333,64.1420045 432.453333,63.242 Z M441.854666,70.226 L441.854666,58.418 C441.854666,58.2979994 441.908665,58.1960004 442.016666,58.112 C442.124666,58.0279996 442.262665,57.986 442.430666,57.986 C442.586667,57.986 442.718665,58.0279996 442.826666,58.112 C442.934666,58.1960004 442.988666,58.2979994 442.988666,58.418 L442.988666,59.246 C443.204667,58.8619981 443.522664,58.5380013 443.942666,58.274 C444.362668,58.0099987 444.848663,57.878 445.400666,57.878 C446.28867,57.878 447.050663,58.2079967 447.686666,58.868 C448.322669,59.5280033 448.640666,60.3199954 448.640666,61.244 L448.640666,63.206 C448.640666,64.1060045 448.319669,64.9009966 447.677666,65.591 C447.035663,66.2810035 446.29467,66.626 445.454666,66.626 C444.926663,66.626 444.440668,66.4910014 443.996666,66.221 C443.552664,65.9509987 443.228667,65.6240019 443.024666,65.24 L443.024666,70.226 C443.024666,70.3340005 442.967667,70.4359995 442.853666,70.532 C442.739665,70.6280005 442.598667,70.676 442.430666,70.676 C442.274665,70.676 442.139667,70.6280005 442.025666,70.532 C441.911665,70.4359995 441.854666,70.3340005 441.854666,70.226 Z M443.024666,63.764 C443.024666,64.0880016 443.249664,64.4659978 443.699666,64.898 C444.149668,65.3300022 444.662663,65.546 445.238666,65.546 C445.826669,65.546 446.345664,65.3060024 446.795666,64.826 C447.245668,64.3459976 447.470666,63.806003 447.470666,63.206 L447.470666,61.244 C447.470666,60.6559971 447.245668,60.1280023 446.795666,59.66 C446.345664,59.1919977 445.814669,58.958 445.202666,58.958 C444.626663,58.958 444.119668,59.1679979 443.681666,59.588 C443.243664,60.0080021 443.024666,60.5599966 443.024666,61.244 L443.024666,63.764 Z M450.841999,65.78 C450.841999,65.5399988 450.919998,65.3390008 451.075999,65.177 C451.232,65.0149992 451.429998,64.934 451.669999,64.934 C451.898,64.934 452.089998,65.0149992 452.245999,65.177 C452.402,65.3390008 452.479999,65.5399988 452.479999,65.78 C452.479999,65.9960011 452.399,66.1879992 452.236999,66.356 C452.074998,66.5240008 451.886,66.608 451.669999,66.608 C451.429998,66.608 451.232,66.5270008 451.075999,66.365 C450.919998,66.2029992 450.841999,66.0080011 450.841999,65.78 Z M450.967999,53.81 C450.967999,53.5939989 451.033999,53.4230006 451.165999,53.297 C451.298,53.1709994 451.459998,53.108 451.651999,53.108 C451.844,53.108 452.005999,53.1709994 452.137999,53.297 C452.27,53.4230006 452.335999,53.5939989 452.335999,53.81 C452.335999,54.7940049 452.303,56.3449894 452.236999,58.463 C452.170999,60.5810106 452.137999,62.1319951 452.137999,63.116 C452.137999,63.2480007 452.087,63.3499996 451.984999,63.422 C451.882999,63.4940004 451.772,63.53 451.651999,63.53 C451.339998,63.53 451.183999,63.3920014 451.183999,63.116 C451.183999,62.1319951 451.148,60.5810106 451.075999,58.463 C451.003999,56.3449894 450.967999,54.7940049 450.967999,53.81 Z" id="You're9O%there!You'reSOCLOSEtokissingthesky.Keepitup!"></path>
                </g>
            </g>
        </g>
    </g>
</svg>