<?xml version="1.0" encoding="UTF-8"?>
<svg width="368px" height="97px" viewBox="0 0 368 97" version="1.1" xmlns="http://www.w3.org/2000/svg" xmlns:xlink="http://www.w3.org/1999/xlink">
    <!-- Generator: Sketch 54.1 (76490) - https://sketchapp.com -->
    <title>option_third</title>
    <desc>Created with Sketch.</desc>
    <defs>
        <rect id="path-1" x="0" y="0" width="352" height="81" rx="2"></rect>
        <filter x="-3.4%" y="-14.8%" width="106.8%" height="129.6%" filterUnits="objectBoundingBox" id="filter-2">
            <feOffset dx="0" dy="0" in="SourceAlpha" result="shadowOffsetOuter1"></feOffset>
            <feGaussianBlur stdDeviation="4" in="shadowOffsetOuter1" result="shadowBlurOuter1"></feGaussianBlur>
            <feColorMatrix values="0 0 0 0 0   0 0 0 0 0   0 0 0 0 0  0 0 0 0.302065122 0" type="matrix" in="shadowBlurOuter1"></feColorMatrix>
        </filter>
    </defs>
    <g id="{Screens/Flow}" stroke="none" stroke-width="1" fill="none" fill-rule="evenodd">
        <g id="ambient-mode-settings-(+info-modal)" transform="translate(-544.000000, -597.000000)" fill-rule="nonzero">
            <g id="selection-options" transform="translate(552.000000, 404.000000)">
                <g id="option_third" transform="translate(0.000000, 201.000000)">
                    <g id="Rectangle">
                        <use fill="black" fill-opacity="1" filter="url(#filter-2)" xlink:href="#path-1"></use>
                        <use fill="#FFFFFF" xlink:href="#path-1"></use>
                    </g>
                    <g id="content" transform="translate(51.000000, 15.000000)">
                        <g id="text" transform="translate(67.500000, 0.000000)" fill="#111111">
                            <path d="M1.606,42.706 L1.606,33.074 C1.606,32.8686656 1.71799888,32.766 1.942,32.766 L4.126,32.766 C5.04067124,32.766 5.74766417,32.931665 6.247,33.263 C6.74633583,33.594335 6.996,34.2126621 6.996,35.118 C6.996,35.7060029 6.88866774,36.202998 6.674,36.609 C6.45933226,37.015002 6.17000182,37.2973325 5.806,37.456 C6.272669,37.652001 6.62966543,37.9366648 6.877,38.31 C7.12433457,38.6833352 7.248,39.2106633 7.248,39.892 L7.248,40.144 C7.248,41.1426717 6.99833583,41.8683311 6.499,42.321 C5.99966417,42.7736689 5.3300042,43 4.49,43 L1.942,43 C1.83933282,43 1.75766697,42.9720003 1.697,42.916 C1.63633303,42.8599997 1.606,42.7900004 1.606,42.706 Z M2.306,42.328 L4.434,42.328 C5.84334038,42.328 6.548,41.590674 6.548,40.116 L6.548,39.878 C6.548,39.140663 6.36833513,38.606335 6.009,38.275 C5.64966487,37.943665 5.12467012,37.778 4.434,37.778 L2.306,37.778 L2.306,42.328 Z M2.306,37.134 L4.196,37.134 C4.93333702,37.134 5.46766501,36.9870015 5.799,36.693 C6.13033499,36.3989985 6.296,35.8926703 6.296,35.174 C6.296,34.5019966 6.11400182,34.0446679 5.75,33.802 C5.38599818,33.5593321 4.84933688,33.438 4.14,33.438 L2.306,33.438 L2.306,37.134 Z M8.62,40.494 L8.62,38.828 C8.62,38.1373299 8.87199748,37.5446691 9.376,37.05 C9.88000252,36.5553309 10.4866631,36.308 11.196,36.308 C11.8866701,36.308 12.4839975,36.5506642 12.988,37.036 C13.4920025,37.5213358 13.744,38.1233297 13.744,38.842 C13.744,39.0940013 13.713667,39.2969992 13.653,39.451 C13.592333,39.6050008 13.4966673,39.7146663 13.366,39.78 C13.2353327,39.8453337 13.1163339,39.8849999 13.009,39.899 C12.9016661,39.9130001 12.750001,39.92 12.554,39.92 L9.306,39.92 L9.306,40.508 C9.306,41.0960029 9.5159979,41.5673316 9.936,41.922 C10.3560021,42.2766684 10.89733,42.454 11.56,42.454 C11.8960017,42.454 12.1806655,42.4073338 12.414,42.314 C12.6473345,42.2206662 12.8246661,42.1273338 12.946,42.034 C13.0673339,41.9406662 13.1606663,41.894 13.226,41.894 C13.3100004,41.894 13.3846663,41.931333 13.45,42.006 C13.5153337,42.080667 13.548,42.155333 13.548,42.23 C13.548,42.4073342 13.3543353,42.593999 12.967,42.79 C12.5796647,42.986001 12.1013362,43.084 11.532,43.084 C10.673329,43.084 9.97333604,42.8460024 9.432,42.37 C8.89066396,41.8939976 8.62,41.2686705 8.62,40.494 Z M9.306,39.346 L12.288,39.346 C12.6053349,39.346 12.8153328,39.3133337 12.918,39.248 C13.0206672,39.1826663 13.072,39.0473344 13.072,38.842 C13.072,38.3473309 12.8946684,37.904002 12.54,37.512 C12.1853316,37.119998 11.737336,36.924 11.196,36.924 C10.6733307,36.924 10.2276685,37.1059982 9.859,37.47 C9.49033149,37.8340018 9.306,38.2679975 9.306,38.772 L9.306,39.346 Z M14.654,44.456 C14.654,43.7279964 15.0646626,43.2146682 15.886,42.916 C15.344664,42.7386658 15.074,42.4120024 15.074,41.936 C15.074,41.5066645 15.3026644,41.1753345 15.76,40.942 C15.2653309,40.5033311 15.018,39.915337 15.018,39.178 L15.018,38.604 C15.018,37.9319966 15.2326645,37.3813355 15.662,36.952 C16.0913355,36.5226645 16.6513299,36.308 17.342,36.308 C18.0233367,36.308 18.5739979,36.5179979 18.994,36.938 C19.1246673,36.6766654 19.2856657,36.4666675 19.477,36.308 C19.6683343,36.1493325 19.8479992,36.07 20.016,36.07 C20.1373339,36.07 20.228333,36.1026663 20.289,36.168 C20.349667,36.2333337 20.38,36.3079996 20.38,36.392 C20.38,36.5600008 20.2960008,36.6533332 20.128,36.672 C19.8013317,36.6906668 19.5306677,36.9006647 19.316,37.302 C19.5586679,37.6286683 19.68,38.062664 19.68,38.604 L19.68,39.178 C19.68,39.8500034 19.4606689,40.4053311 19.022,40.844 C18.5833311,41.2826689 18.0186701,41.502 17.328,41.502 C16.9079979,41.502 16.5393349,41.4133342 16.222,41.236 C15.8859983,41.4040008 15.718,41.6093321 15.718,41.852 C15.718,42.0946679 15.8696652,42.2696661 16.173,42.377 C16.4763349,42.4843339 16.8426645,42.5543332 17.272,42.587 C17.7013355,42.6196668 18.1306645,42.673333 18.56,42.748 C18.9893355,42.822667 19.3556652,42.9906654 19.659,43.252 C19.9623349,43.5133346 20.114,43.877331 20.114,44.344 C20.114,44.9600031 19.8713358,45.4383316 19.386,45.779 C18.9006642,46.1196684 18.2473374,46.29 17.426,46.29 C16.6046626,46.29 15.9373359,46.1220017 15.424,45.786 C14.9106641,45.4499983 14.654,45.0066694 14.654,44.456 Z M15.326,44.386 C15.326,44.7873353 15.5126648,45.1116654 15.886,45.359 C16.2593352,45.6063346 16.7726634,45.73 17.426,45.73 C18.0606698,45.73 18.5529983,45.6086679 18.903,45.366 C19.2530018,45.1233321 19.428,44.7920021 19.428,44.372 C19.428,44.1666656 19.3790005,43.9916674 19.281,43.847 C19.1829995,43.7023326 19.0640007,43.5880004 18.924,43.504 C18.7839993,43.4199996 18.6043344,43.3500003 18.385,43.294 C18.1656656,43.2379997 17.9743342,43.2030001 17.811,43.189 C17.6476659,43.1749999 17.4446679,43.1586668 17.202,43.14 L16.698,43.084 C15.7833288,43.354668 15.326,43.7886637 15.326,44.386 Z M15.69,39.164 C15.69,39.6773359 15.8393318,40.099665 16.138,40.431 C16.4366682,40.762335 16.8426641,40.928 17.356,40.928 C17.8600025,40.928 18.2613318,40.7646683 18.56,40.438 C18.8586682,40.1113317 19.008,39.6913359 19.008,39.178 L19.008,38.604 C19.008,38.0999975 18.8586682,37.6870016 18.56,37.365 C18.2613318,37.0429984 17.8553359,36.882 17.342,36.882 C16.8286641,36.882 16.4250015,37.0429984 16.131,37.365 C15.8369985,37.6870016 15.69,38.0999975 15.69,38.604 L15.69,39.164 Z M21.262,33.788 C21.262,33.6573327 21.3133328,33.5430005 21.416,33.445 C21.5186672,33.3469995 21.6446659,33.298 21.794,33.298 C21.9340007,33.298 22.0553328,33.3469995 22.158,33.445 C22.2606672,33.5430005 22.312,33.6573327 22.312,33.788 C22.312,33.9280007 22.2606672,34.0493328 22.158,34.152 C22.0553328,34.2546672 21.9340007,34.306 21.794,34.306 C21.6446659,34.306 21.5186672,34.2546672 21.416,34.152 C21.3133328,34.0493328 21.262,33.9280007 21.262,33.788 Z M21.458,42.692 L21.458,36.672 C21.458,36.4853324 21.5699989,36.392 21.794,36.392 C22.0273345,36.392 22.144,36.4853324 22.144,36.672 L22.144,42.692 C22.144,42.766667 22.1090003,42.8366663 22.039,42.902 C21.9689996,42.9673337 21.8873338,43 21.794,43 C21.7006662,43 21.6213337,42.969667 21.556,42.909 C21.4906663,42.848333 21.458,42.7760004 21.458,42.692 Z M23.992,42.692 L23.992,36.672 C23.992,36.4853324 24.1039989,36.392 24.328,36.392 C24.4213338,36.392 24.5006663,36.4176664 24.566,36.469 C24.6313337,36.5203336 24.664,36.5879996 24.664,36.672 L24.664,37.372 C24.8226675,37.0733318 25.0653317,36.8213344 25.392,36.616 C25.7186683,36.4106656 26.1013311,36.308 26.54,36.308 C27.2213367,36.308 27.8093309,36.5599975 28.304,37.064 C28.7986691,37.5680025 29.046,38.1699965 29.046,38.87 L29.046,42.692 C29.046,42.8973344 28.9293345,43 28.696,43 C28.4719989,43 28.36,42.8973344 28.36,42.692 L28.36,38.87 C28.36,38.3753309 28.1733352,37.932002 27.8,37.54 C27.4266648,37.147998 26.9880025,36.952 26.484,36.952 C26.0079976,36.952 25.5880018,37.1269982 25.224,37.477 C24.8599982,37.8270018 24.678,38.2913304 24.678,38.87 L24.678,42.692 C24.678,42.766667 24.6430004,42.8366663 24.573,42.902 C24.5029996,42.9673337 24.4213338,43 24.328,43 C24.2346662,43 24.1553337,42.969667 24.09,42.909 C24.0246663,42.848333 23.992,42.7760004 23.992,42.692 Z M32.952,36.7 C32.952,36.6066662 32.9916663,36.529667 33.071,36.469 C33.1503337,36.408333 33.2413328,36.378 33.344,36.378 C33.4746673,36.378 33.5679997,36.4339994 33.624,36.546 L35.514,41.796 L37.04,36.98 C37.0773335,36.8399993 37.1799992,36.77 37.348,36.77 C37.5066675,36.77 37.6046665,36.8399993 37.642,36.98 L39.126,41.866 L41.058,36.546 C41.0860001,36.4339994 41.1746659,36.378 41.324,36.378 C41.4266672,36.378 41.515333,36.4059997 41.59,36.462 C41.664667,36.5180003 41.702,36.5926662 41.702,36.686 C41.702,36.7700004 41.6833335,36.8399997 41.646,36.896 L39.462,42.902 C39.4059997,43.0326673 39.3126673,43.098 39.182,43.098 C39.0513327,43.098 38.9580003,43.0373339 38.902,42.916 L37.348,37.988 L35.808,42.846 C35.7519997,43.0140008 35.6493341,43.098 35.5,43.098 C35.3506659,43.098 35.2480003,43.0140008 35.192,42.846 L33.008,36.896 C32.9706665,36.7839994 32.952,36.7186668 32.952,36.7 Z M42.682,33.788 C42.682,33.6573327 42.7333328,33.5430005 42.836,33.445 C42.9386672,33.3469995 43.0646659,33.298 43.214,33.298 C43.3540007,33.298 43.4753328,33.3469995 43.578,33.445 C43.6806672,33.5430005 43.732,33.6573327 43.732,33.788 C43.732,33.9280007 43.6806672,34.0493328 43.578,34.152 C43.4753328,34.2546672 43.3540007,34.306 43.214,34.306 C43.0646659,34.306 42.9386672,34.2546672 42.836,34.152 C42.7333328,34.0493328 42.682,33.9280007 42.682,33.788 Z M42.878,42.692 L42.878,36.672 C42.878,36.4853324 42.9899989,36.392 43.214,36.392 C43.4473345,36.392 43.564,36.4853324 43.564,36.672 L43.564,42.692 C43.564,42.766667 43.5290003,42.8366663 43.459,42.902 C43.3889996,42.9673337 43.3073338,43 43.214,43 C43.1206662,43 43.0413337,42.969667 42.976,42.909 C42.9106663,42.848333 42.878,42.7760004 42.878,42.692 Z M45.384,40.998 L45.384,33.48 C45.384,33.3959996 45.4189996,33.3260003 45.489,33.27 C45.5590003,33.2139997 45.6359996,33.186 45.72,33.186 C45.8133338,33.186 45.8949996,33.2139997 45.965,33.27 C46.0350003,33.3260003 46.07,33.3959996 46.07,33.48 L46.07,36.392 L47.932,36.392 C48.006667,36.392 48.0696664,36.422333 48.121,36.483 C48.1723336,36.543667 48.198,36.6159996 48.198,36.7 C48.198,36.774667 48.1700003,36.842333 48.114,36.903 C48.0579997,36.963667 47.9973337,36.994 47.932,36.994 L46.07,36.994 L46.07,40.998 C46.07,41.4926691 46.1773323,41.8426656 46.392,42.048 C46.6066677,42.2533344 46.9799973,42.356 47.512,42.356 L47.862,42.356 C47.9553338,42.356 48.032333,42.386333 48.093,42.447 C48.153667,42.507667 48.184,42.5846662 48.184,42.678 C48.184,42.7620004 48.153667,42.8366663 48.093,42.902 C48.032333,42.9673337 47.9553338,43 47.862,43 L47.512,43 C46.0933262,43 45.384,42.3326733 45.384,40.998 Z M49.388,42.692 L49.388,32.57 C49.388,32.4859996 49.4206663,32.4160003 49.486,32.36 C49.5513337,32.3039997 49.6306662,32.276 49.724,32.276 C49.8266672,32.276 49.9106663,32.3039997 49.976,32.36 C50.0413337,32.4160003 50.074,32.4859996 50.074,32.57 L50.074,37.372 C50.2326675,37.0733318 50.4729984,36.8213344 50.795,36.616 C51.1170016,36.4106656 51.4973311,36.308 51.936,36.308 C52.6173367,36.308 53.2053309,36.5599975 53.7,37.064 C54.1946691,37.5680025 54.442,38.1699965 54.442,38.87 L54.442,42.692 C54.442,42.8973344 54.3253345,43 54.092,43 C53.8679989,43 53.756,42.8973344 53.756,42.692 L53.756,38.87 C53.756,38.3753309 53.5693352,37.932002 53.196,37.54 C52.8226648,37.147998 52.3840025,36.952 51.88,36.952 C51.4039976,36.952 50.9840018,37.1269982 50.62,37.477 C50.2559982,37.8270018 50.074,38.2913304 50.074,38.87 L50.074,42.692 C50.074,42.766667 50.0390003,42.8366663 49.969,42.902 C49.8989996,42.9673337 49.8173338,43 49.724,43 C49.6306662,43 49.5513337,42.969667 49.486,42.909 C49.4206663,42.848333 49.388,42.776 49.388,42.692 Z M58.558,41.236 C58.558,40.5359965 58.8356639,40.0483347 59.391,39.773 C59.9463361,39.4976653 60.7559947,39.36 61.82,39.36 L62.576,39.36 L62.576,38.996 C62.576,38.4359972 62.4290015,37.953002 62.135,37.547 C61.8409985,37.140998 61.4000029,36.938 60.812,36.938 C60.4573316,36.938 60.1260015,37.0033327 59.818,37.134 C59.5099985,37.2646673 59.3513334,37.33 59.342,37.33 C59.2486662,37.33 59.1740003,37.2880004 59.118,37.204 C59.0619997,37.1199996 59.034,37.0360004 59.034,36.952 C59.034,36.7933325 59.2276647,36.646334 59.615,36.511 C60.0023353,36.375666 60.4106645,36.308 60.84,36.308 C61.6706708,36.308 62.281998,36.5623308 62.674,37.071 C63.066002,37.5796692 63.262,38.2213295 63.262,38.996 L63.262,42.692 C63.262,42.7760004 63.2293337,42.848333 63.164,42.909 C63.0986663,42.969667 63.0193338,43 62.926,43 C62.8326662,43 62.7533337,42.969667 62.688,42.909 C62.6226663,42.848333 62.59,42.7760004 62.59,42.692 L62.59,42.02 C61.9739969,42.7293369 61.2740039,43.084 60.49,43.084 C59.9206638,43.084 59.4563351,42.9276682 59.097,42.615 C58.7376649,42.3023318 58.558,41.8426697 58.558,41.236 Z M59.244,41.208 C59.244,41.6280021 59.3676654,41.942999 59.615,42.153 C59.8623346,42.3630011 60.1866647,42.468 60.588,42.468 C61.0640024,42.468 61.5143312,42.2976684 61.939,41.957 C62.3636688,41.6163316 62.576,41.2826683 62.576,40.956 L62.576,39.92 L61.89,39.92 C61.4886647,39.92 61.152668,39.9339999 60.882,39.962 C60.611332,39.9900001 60.340668,40.0436663 60.07,40.123 C59.799332,40.2023337 59.5940007,40.3329991 59.454,40.515 C59.3139993,40.6970009 59.244,40.9279986 59.244,41.208 Z M67.434,42.132 C67.434,42.057333 67.4596664,41.9850003 67.511,41.915 C67.5623336,41.8449996 67.6206663,41.81 67.686,41.81 C67.7420003,41.8006666 67.8166662,41.833333 67.91,41.908 L68.232,42.132 C68.3440006,42.206667 68.5166655,42.281333 68.75,42.356 C68.9833345,42.430667 69.2446652,42.468 69.534,42.468 C70.0566693,42.468 70.4439987,42.3676677 70.696,42.167 C70.9480013,41.9663323 71.074,41.7073349 71.074,41.39 C71.074,41.0166648 70.9550012,40.7226677 70.717,40.508 C70.4789988,40.2933323 70.1896684,40.1370005 69.849,40.039 C69.5083316,39.9409995 69.1653351,39.8360006 68.82,39.724 C68.4746649,39.6119994 68.1830012,39.4300013 67.945,39.178 C67.7069988,38.9259987 67.588,38.5853355 67.588,38.156 C67.588,37.6706642 67.7676649,37.2413352 68.127,36.868 C68.4863351,36.4946648 69.0159965,36.308 69.716,36.308 C70.1546689,36.308 70.5629981,36.375666 70.941,36.511 C71.3190019,36.646334 71.508,36.7886659 71.508,36.938 C71.508,37.012667 71.4753337,37.0919996 71.41,37.176 C71.3446663,37.2600004 71.274667,37.302 71.2,37.302 C71.1906666,37.302 71.0273349,37.2390006 70.71,37.113 C70.3926651,36.9869994 70.0660017,36.924 69.73,36.924 C69.2259975,36.924 68.8503346,37.0499987 68.603,37.302 C68.3556654,37.5540013 68.232,37.8339985 68.232,38.142 C68.232,38.4593349 68.3509988,38.7066658 68.589,38.884 C68.8270012,39.0613342 69.1186649,39.1966662 69.464,39.29 C69.8093351,39.3833338 70.1546649,39.4883327 70.5,39.605 C70.8453351,39.7216672 71.1369988,39.9223319 71.375,40.207 C71.6130012,40.4916681 71.732,40.8719976 71.732,41.348 C71.732,41.889336 71.5406686,42.3139985 71.158,42.622 C70.7753314,42.9300015 70.2386701,43.084 69.548,43.084 C68.9506637,43.084 68.449002,42.9790011 68.043,42.769 C67.636998,42.558999 67.434,42.3466677 67.434,42.132 Z M72.964,33.788 C72.964,33.6573327 73.0153328,33.5430005 73.118,33.445 C73.2206672,33.3469995 73.3466659,33.298 73.496,33.298 C73.6360007,33.298 73.7573328,33.3469995 73.86,33.445 C73.9626672,33.5430005 74.014,33.6573327 74.014,33.788 C74.014,33.9280007 73.9626672,34.0493328 73.86,34.152 C73.7573328,34.2546672 73.6360007,34.306 73.496,34.306 C73.3466659,34.306 73.2206672,34.2546672 73.118,34.152 C73.0153328,34.0493328 72.964,33.9280007 72.964,33.788 Z M73.16,42.692 L73.16,36.672 C73.16,36.4853324 73.2719989,36.392 73.496,36.392 C73.7293345,36.392 73.846,36.4853324 73.846,36.672 L73.846,42.692 C73.846,42.766667 73.8110003,42.8366663 73.741,42.902 C73.6709996,42.9673337 73.5893338,43 73.496,43 C73.4026662,43 73.3233337,42.969667 73.258,42.909 C73.1926663,42.848333 73.16,42.7760004 73.16,42.692 Z M75.694,42.692 L75.694,36.672 C75.694,36.4853324 75.8059989,36.392 76.03,36.392 C76.1233338,36.392 76.2026663,36.4176664 76.268,36.469 C76.3333337,36.5203336 76.366,36.5879996 76.366,36.672 L76.366,37.372 C76.5246675,37.0733318 76.7673317,36.8213344 77.094,36.616 C77.4206683,36.4106656 77.8033311,36.308 78.242,36.308 C78.9233367,36.308 79.5113309,36.5599975 80.006,37.064 C80.5006691,37.5680025 80.748,38.1699965 80.748,38.87 L80.748,42.692 C80.748,42.8973344 80.6313345,43 80.398,43 C80.1739989,43 80.062,42.8973344 80.062,42.692 L80.062,38.87 C80.062,38.3753309 79.8753352,37.932002 79.502,37.54 C79.1286648,37.147998 78.6900025,36.952 78.186,36.952 C77.7099976,36.952 77.2900018,37.1269982 76.926,37.477 C76.5619982,37.8270018 76.38,38.2913304 76.38,38.87 L76.38,42.692 C76.38,42.766667 76.3450004,42.8366663 76.275,42.902 C76.2049997,42.9673337 76.1233338,43 76.03,43 C75.9366662,43 75.8573337,42.969667 75.792,42.909 C75.7266663,42.848333 75.694,42.7760004 75.694,42.692 Z M81.994,44.456 C81.994,43.7279964 82.4046626,43.2146682 83.226,42.916 C82.684664,42.7386658 82.414,42.4120024 82.414,41.936 C82.414,41.5066645 82.6426644,41.1753345 83.1,40.942 C82.6053309,40.5033311 82.358,39.915337 82.358,39.178 L82.358,38.604 C82.358,37.9319966 82.5726645,37.3813355 83.002,36.952 C83.4313355,36.5226645 83.9913299,36.308 84.682,36.308 C85.3633367,36.308 85.9139979,36.5179979 86.334,36.938 C86.4646673,36.6766654 86.6256657,36.4666675 86.817,36.308 C87.0083343,36.1493325 87.1879992,36.07 87.356,36.07 C87.4773339,36.07 87.568333,36.1026663 87.629,36.168 C87.689667,36.2333337 87.72,36.3079996 87.72,36.392 C87.72,36.5600008 87.6360008,36.6533332 87.468,36.672 C87.1413317,36.6906668 86.8706677,36.9006647 86.656,37.302 C86.8986679,37.6286683 87.02,38.062664 87.02,38.604 L87.02,39.178 C87.02,39.8500034 86.8006689,40.4053311 86.362,40.844 C85.9233311,41.2826689 85.3586701,41.502 84.668,41.502 C84.2479979,41.502 83.8793349,41.4133342 83.562,41.236 C83.2259983,41.4040008 83.058,41.6093321 83.058,41.852 C83.058,42.0946679 83.2096651,42.2696661 83.513,42.377 C83.8163348,42.4843339 84.1826645,42.5543332 84.612,42.587 C85.0413355,42.6196668 85.4706645,42.673333 85.9,42.748 C86.3293355,42.822667 86.6956651,42.9906654 86.999,43.252 C87.3023348,43.5133346 87.454,43.877331 87.454,44.344 C87.454,44.9600031 87.2113358,45.4383316 86.726,45.779 C86.2406642,46.1196684 85.5873374,46.29 84.766,46.29 C83.9446626,46.29 83.2773359,46.1220017 82.764,45.786 C82.2506641,45.4499983 81.994,45.0066694 81.994,44.456 Z M82.666,44.386 C82.666,44.7873353 82.8526648,45.1116654 83.226,45.359 C83.5993352,45.6063346 84.1126634,45.73 84.766,45.73 C85.4006698,45.73 85.8929982,45.6086679 86.243,45.366 C86.5930017,45.1233321 86.768,44.7920021 86.768,44.372 C86.768,44.1666656 86.7190005,43.9916674 86.621,43.847 C86.5229995,43.7023326 86.4040007,43.5880004 86.264,43.504 C86.1239993,43.4199996 85.9443344,43.3500003 85.725,43.294 C85.5056656,43.2379997 85.3143341,43.2030001 85.151,43.189 C84.9876658,43.1749999 84.7846679,43.1586668 84.542,43.14 L84.038,43.084 C83.1233288,43.354668 82.666,43.7886637 82.666,44.386 Z M83.03,39.164 C83.03,39.6773359 83.1793318,40.099665 83.478,40.431 C83.7766682,40.762335 84.1826641,40.928 84.696,40.928 C85.2000025,40.928 85.6013318,40.7646683 85.9,40.438 C86.1986682,40.1113317 86.348,39.6913359 86.348,39.178 L86.348,38.604 C86.348,38.0999975 86.1986682,37.6870016 85.9,37.365 C85.6013318,37.0429984 85.1953359,36.882 84.682,36.882 C84.1686641,36.882 83.7650015,37.0429984 83.471,37.365 C83.1769985,37.6870016 83.03,38.0999975 83.03,38.604 L83.03,39.164 Z M88.91,42.692 L88.91,32.57 C88.91,32.4859996 88.9426663,32.4160003 89.008,32.36 C89.0733337,32.3039997 89.1526662,32.276 89.246,32.276 C89.3486672,32.276 89.4326663,32.3039997 89.498,32.36 C89.5633337,32.4160003 89.596,32.4859996 89.596,32.57 L89.596,42.692 C89.596,42.766667 89.5610004,42.8366663 89.491,42.902 C89.4209996,42.9673337 89.3393338,43 89.246,43 C89.1526662,43 89.0733337,42.969667 89.008,42.909 C88.9426663,42.848333 88.91,42.7760004 88.91,42.692 Z M91.304,40.494 L91.304,38.828 C91.304,38.1373299 91.5559975,37.5446691 92.06,37.05 C92.5640025,36.5553309 93.1706631,36.308 93.88,36.308 C94.5706701,36.308 95.1679975,36.5506642 95.672,37.036 C96.1760025,37.5213358 96.428,38.1233297 96.428,38.842 C96.428,39.0940013 96.397667,39.2969992 96.337,39.451 C96.276333,39.6050008 96.1806673,39.7146663 96.05,39.78 C95.9193327,39.8453337 95.8003339,39.8849999 95.693,39.899 C95.5856661,39.9130001 95.434001,39.92 95.238,39.92 L91.99,39.92 L91.99,40.508 C91.99,41.0960029 92.1999979,41.5673316 92.62,41.922 C93.0400021,42.2766684 93.58133,42.454 94.244,42.454 C94.5800017,42.454 94.8646655,42.4073338 95.098,42.314 C95.3313345,42.2206662 95.5086661,42.1273338 95.63,42.034 C95.7513339,41.9406662 95.8446663,41.894 95.91,41.894 C95.9940004,41.894 96.0686663,41.931333 96.134,42.006 C96.1993337,42.080667 96.232,42.155333 96.232,42.23 C96.232,42.4073342 96.0383353,42.593999 95.651,42.79 C95.2636647,42.986001 94.7853362,43.084 94.216,43.084 C93.357329,43.084 92.657336,42.8460024 92.116,42.37 C91.574664,41.8939976 91.304,41.2686705 91.304,40.494 Z M91.99,39.346 L94.972,39.346 C95.2893349,39.346 95.4993328,39.3133337 95.602,39.248 C95.7046672,39.1826663 95.756,39.0473344 95.756,38.842 C95.756,38.3473309 95.5786684,37.904002 95.224,37.512 C94.8693316,37.119998 94.421336,36.924 93.88,36.924 C93.3573307,36.924 92.9116685,37.1059982 92.543,37.47 C92.1743315,37.8340018 91.99,38.2679975 91.99,38.772 L91.99,39.346 Z M100.642,40.998 L100.642,33.48 C100.642,33.3959996 100.677,33.3260003 100.747,33.27 C100.817,33.2139997 100.894,33.186 100.978,33.186 C101.071334,33.186 101.153,33.2139997 101.223,33.27 C101.293,33.3260003 101.328,33.3959996 101.328,33.48 L101.328,36.392 L103.19,36.392 C103.264667,36.392 103.327666,36.422333 103.379,36.483 C103.430334,36.543667 103.456,36.6159996 103.456,36.7 C103.456,36.774667 103.428,36.842333 103.372,36.903 C103.316,36.963667 103.255334,36.994 103.19,36.994 L101.328,36.994 L101.328,40.998 C101.328,41.4926691 101.435332,41.8426656 101.65,42.048 C101.864668,42.2533344 102.237997,42.356 102.77,42.356 L103.12,42.356 C103.213334,42.356 103.290333,42.386333 103.351,42.447 C103.411667,42.507667 103.442,42.5846662 103.442,42.678 C103.442,42.7620004 103.411667,42.8366663 103.351,42.902 C103.290333,42.9673337 103.213334,43 103.12,43 L102.77,43 C101.351326,43 100.642,42.3326733 100.642,40.998 Z M104.45,33.788 C104.45,33.6573327 104.501333,33.5430005 104.604,33.445 C104.706667,33.3469995 104.832666,33.298 104.982,33.298 C105.122001,33.298 105.243333,33.3469995 105.346,33.445 C105.448667,33.5430005 105.5,33.6573327 105.5,33.788 C105.5,33.9280007 105.448667,34.0493328 105.346,34.152 C105.243333,34.2546672 105.122001,34.306 104.982,34.306 C104.832666,34.306 104.706667,34.2546672 104.604,34.152 C104.501333,34.0493328 104.45,33.9280007 104.45,33.788 Z M104.646,42.692 L104.646,36.672 C104.646,36.4853324 104.757999,36.392 104.982,36.392 C105.215334,36.392 105.332,36.4853324 105.332,36.672 L105.332,42.692 C105.332,42.766667 105.297,42.8366663 105.227,42.902 C105.157,42.9673337 105.075334,43 104.982,43 C104.888666,43 104.809334,42.969667 104.744,42.909 C104.678666,42.848333 104.646,42.7760004 104.646,42.692 Z M107.18,42.692 L107.18,36.672 C107.18,36.4853324 107.291999,36.392 107.516,36.392 C107.609334,36.392 107.688666,36.4176664 107.754,36.469 C107.819334,36.5203336 107.852,36.5879996 107.852,36.672 L107.852,37.372 C108.010667,37.0733318 108.253332,36.8213344 108.58,36.616 C108.906668,36.4106656 109.289331,36.308 109.728,36.308 C110.409337,36.308 110.997331,36.5599975 111.492,37.064 C111.986669,37.5680025 112.234,38.1699965 112.234,38.87 L112.234,42.692 C112.234,42.8973344 112.117334,43 111.884,43 C111.659999,43 111.548,42.8973344 111.548,42.692 L111.548,38.87 C111.548,38.3753309 111.361335,37.932002 110.988,37.54 C110.614665,37.147998 110.176003,36.952 109.672,36.952 C109.195998,36.952 108.776002,37.1269982 108.412,37.477 C108.047998,37.8270018 107.866,38.2913304 107.866,38.87 L107.866,42.692 C107.866,42.766667 107.831,42.8366663 107.761,42.902 C107.691,42.9673337 107.609334,43 107.516,43 C107.422666,43 107.343334,42.969667 107.278,42.909 C107.212666,42.848333 107.18,42.7760004 107.18,42.692 Z M113.326,36.63 C113.326,36.5366662 113.368,36.4573337 113.452,36.392 C113.536,36.3266663 113.629333,36.294 113.732,36.294 C113.881334,36.294 113.97,36.3546661 113.998,36.476 L115.972,41.866 L117.89,36.476 C117.955334,36.3546661 118.043999,36.294 118.156,36.294 C118.249334,36.294 118.338,36.3266663 118.422,36.392 C118.506,36.4573337 118.548,36.5366662 118.548,36.63 C118.548,36.6766669 118.543333,36.7139999 118.534,36.742 L116.322,42.776 L116.028,43.56 C115.972,43.7093341 115.869334,43.9589983 115.72,44.309 C115.570666,44.6590018 115.435334,44.9203325 115.314,45.093 C115.192666,45.2656675 115.043334,45.4616656 114.866,45.681 C114.688666,45.9003344 114.499668,46.0566662 114.299,46.15 C114.098332,46.2433338 113.886001,46.29 113.662,46.29 C113.447332,46.29 113.34,46.1826677 113.34,45.968 C113.34,45.7533323 113.423999,45.646 113.592,45.646 C114.366671,45.646 115.04333,44.6893429 115.622,42.776 L113.354,36.742 C113.335333,36.6859997 113.326,36.6486668 113.326,36.63 Z M121.852,36.7 C121.852,36.6066662 121.891666,36.529667 121.971,36.469 C122.050334,36.408333 122.141333,36.378 122.244,36.378 C122.374667,36.378 122.468,36.4339994 122.524,36.546 L124.414,41.796 L125.94,36.98 C125.977334,36.8399993 126.079999,36.77 126.248,36.77 C126.406667,36.77 126.504666,36.8399993 126.542,36.98 L128.026,41.866 L129.958,36.546 C129.986,36.4339994 130.074666,36.378 130.224,36.378 C130.326667,36.378 130.415333,36.4059997 130.49,36.462 C130.564667,36.5180003 130.602,36.5926662 130.602,36.686 C130.602,36.7700004 130.583334,36.8399997 130.546,36.896 L128.362,42.902 C128.306,43.0326673 128.212667,43.098 128.082,43.098 C127.951333,43.098 127.858,43.0373339 127.802,42.916 L126.248,37.988 L124.708,42.846 C124.652,43.0140008 124.549334,43.098 124.4,43.098 C124.250666,43.098 124.148,43.0140008 124.092,42.846 L121.908,36.896 C121.870666,36.7839994 121.852,36.7186668 121.852,36.7 Z M131.778,42.692 L131.778,32.57 C131.778,32.4859996 131.810666,32.4160003 131.876,32.36 C131.941334,32.3039997 132.020666,32.276 132.114,32.276 C132.216667,32.276 132.300666,32.3039997 132.366,32.36 C132.431334,32.4160003 132.464,32.4859996 132.464,32.57 L132.464,37.372 C132.622667,37.0733318 132.862998,36.8213344 133.185,36.616 C133.507002,36.4106656 133.887331,36.308 134.326,36.308 C135.007337,36.308 135.595331,36.5599975 136.09,37.064 C136.584669,37.5680025 136.832,38.1699965 136.832,38.87 L136.832,42.692 C136.832,42.8973344 136.715335,43 136.482,43 C136.257999,43 136.146,42.8973344 136.146,42.692 L136.146,38.87 C136.146,38.3753309 135.959335,37.932002 135.586,37.54 C135.212665,37.147998 134.774003,36.952 134.27,36.952 C133.793998,36.952 133.374002,37.1269982 133.01,37.477 C132.645998,37.8270018 132.464,38.2913304 132.464,38.87 L132.464,42.692 C132.464,42.766667 132.429,42.8366663 132.359,42.902 C132.289,42.9673337 132.207334,43 132.114,43 C132.020666,43 131.941334,42.969667 131.876,42.909 C131.810666,42.848333 131.778,42.776 131.778,42.692 Z M138.414,33.788 C138.414,33.6573327 138.465333,33.5430005 138.568,33.445 C138.670667,33.3469995 138.796666,33.298 138.946,33.298 C139.086001,33.298 139.207333,33.3469995 139.31,33.445 C139.412667,33.5430005 139.464,33.6573327 139.464,33.788 C139.464,33.9280007 139.412667,34.0493328 139.31,34.152 C139.207333,34.2546672 139.086001,34.306 138.946,34.306 C138.796666,34.306 138.670667,34.2546672 138.568,34.152 C138.465333,34.0493328 138.414,33.9280007 138.414,33.788 Z M138.61,42.692 L138.61,36.672 C138.61,36.4853324 138.721999,36.392 138.946,36.392 C139.179334,36.392 139.296,36.4853324 139.296,36.672 L139.296,42.692 C139.296,42.766667 139.261,42.8366663 139.191,42.902 C139.121,42.9673337 139.039334,43 138.946,43 C138.852666,43 138.773334,42.969667 138.708,42.909 C138.642666,42.848333 138.61,42.7760004 138.61,42.692 Z M141.116,40.998 L141.116,33.48 C141.116,33.3959996 141.151,33.3260003 141.221,33.27 C141.291,33.2139997 141.368,33.186 141.452,33.186 C141.545334,33.186 141.627,33.2139997 141.697,33.27 C141.767,33.3260003 141.802,33.3959996 141.802,33.48 L141.802,36.392 L143.664,36.392 C143.738667,36.392 143.801666,36.422333 143.853,36.483 C143.904334,36.543667 143.93,36.6159996 143.93,36.7 C143.93,36.774667 143.902,36.842333 143.846,36.903 C143.79,36.963667 143.729334,36.994 143.664,36.994 L141.802,36.994 L141.802,40.998 C141.802,41.4926691 141.909332,41.8426656 142.124,42.048 C142.338668,42.2533344 142.711997,42.356 143.244,42.356 L143.594,42.356 C143.687334,42.356 143.764333,42.386333 143.825,42.447 C143.885667,42.507667 143.916,42.5846662 143.916,42.678 C143.916,42.7620004 143.885667,42.8366663 143.825,42.902 C143.764333,42.9673337 143.687334,43 143.594,43 L143.244,43 C141.825326,43 141.116,42.3326733 141.116,40.998 Z M144.868,40.494 L144.868,38.828 C144.868,38.1373299 145.119997,37.5446691 145.624,37.05 C146.128003,36.5553309 146.734663,36.308 147.444,36.308 C148.13467,36.308 148.731997,36.5506642 149.236,37.036 C149.740003,37.5213358 149.992,38.1233297 149.992,38.842 C149.992,39.0940013 149.961667,39.2969992 149.901,39.451 C149.840333,39.6050008 149.744667,39.7146663 149.614,39.78 C149.483333,39.8453337 149.364334,39.8849999 149.257,39.899 C149.149666,39.9130001 148.998001,39.92 148.802,39.92 L145.554,39.92 L145.554,40.508 C145.554,41.0960029 145.763998,41.5673316 146.184,41.922 C146.604002,42.2766684 147.14533,42.454 147.808,42.454 C148.144002,42.454 148.428665,42.4073338 148.662,42.314 C148.895334,42.2206662 149.072666,42.1273338 149.194,42.034 C149.315334,41.9406662 149.408666,41.894 149.474,41.894 C149.558,41.894 149.632666,41.931333 149.698,42.006 C149.763334,42.080667 149.796,42.155333 149.796,42.23 C149.796,42.4073342 149.602335,42.593999 149.215,42.79 C148.827665,42.986001 148.349336,43.084 147.78,43.084 C146.921329,43.084 146.221336,42.8460024 145.68,42.37 C145.138664,41.8939976 144.868,41.2686705 144.868,40.494 Z M145.554,39.346 L148.536,39.346 C148.853335,39.346 149.063333,39.3133337 149.166,39.248 C149.268667,39.1826663 149.32,39.0473344 149.32,38.842 C149.32,38.3473309 149.142668,37.904002 148.788,37.512 C148.433332,37.119998 147.985336,36.924 147.444,36.924 C146.921331,36.924 146.475669,37.1059982 146.107,37.47 C145.738331,37.8340018 145.554,38.2679975 145.554,38.772 L145.554,39.346 Z M154.234,42.706 L154.234,34.866 C154.234,34.0913295 154.518664,33.4660024 155.088,32.99 C155.657336,32.5139976 156.324663,32.276 157.09,32.276 C158.014005,32.276 158.741997,32.5979968 159.274,33.242 L159.274,42.692 C159.274,42.766667 159.239,42.8366663 159.169,42.902 C159.099,42.9673337 159.017334,43 158.924,43 C158.830666,43 158.751334,42.9673337 158.686,42.902 C158.620666,42.8366663 158.588,42.766667 158.588,42.692 L158.588,33.438 C158.186665,33.0366647 157.68267,32.836 157.076,32.836 C156.49733,32.836 155.993335,33.0226648 155.564,33.396 C155.134665,33.7693352 154.92,34.2546637 154.92,34.852 L154.92,36.392 L156.796,36.392 C156.870667,36.392 156.936,36.422333 156.992,36.483 C157.048,36.543667 157.076,36.611333 157.076,36.686 C157.076,36.7700004 157.048,36.842333 156.992,36.903 C156.936,36.963667 156.870667,36.994 156.796,36.994 L154.92,36.994 L154.92,42.706 C154.92,42.7900004 154.885,42.8599997 154.815,42.916 C154.745,42.9720003 154.658667,43 154.556,43 C154.341332,43 154.234,42.902001 154.234,42.706 Z M160.968,40.494 L160.968,38.87 C160.968,38.1793299 161.219997,37.5796692 161.724,37.071 C162.228003,36.5623308 162.829996,36.308 163.53,36.308 C164.22067,36.308 164.822664,36.5599975 165.336,37.064 C165.849336,37.5680025 166.106,38.1699965 166.106,38.87 L166.106,40.494 C166.106,41.1753367 165.847003,41.7773307 165.329,42.3 C164.810997,42.8226693 164.211337,43.084 163.53,43.084 C162.848663,43.084 162.251336,42.8250026 161.738,42.307 C161.224664,41.7889974 160.968,41.1846701 160.968,40.494 Z M161.654,40.494 C161.654,40.9980025 161.838331,41.4483314 162.207,41.845 C162.575669,42.2416687 163.016664,42.44 163.53,42.44 C164.043336,42.44 164.486665,42.2416687 164.86,41.845 C165.233335,41.4483314 165.42,40.9980025 165.42,40.494 L165.42,38.87 C165.42,38.3753309 165.233335,37.932002 164.86,37.54 C164.486665,37.147998 164.043336,36.952 163.53,36.952 C163.016664,36.952 162.575669,37.147998 162.207,37.54 C161.838331,37.932002 161.654,38.3753309 161.654,38.87 L161.654,40.494 Z M167.016,36.7 C167.016,36.6066662 167.055666,36.529667 167.135,36.469 C167.214334,36.408333 167.305333,36.378 167.408,36.378 C167.538667,36.378 167.632,36.4339994 167.688,36.546 L169.578,41.796 L171.104,36.98 C171.141334,36.8399993 171.243999,36.77 171.412,36.77 C171.570667,36.77 171.668666,36.8399993 171.706,36.98 L173.19,41.866 L175.122,36.546 C175.15,36.4339994 175.238666,36.378 175.388,36.378 C175.490667,36.378 175.579333,36.4059997 175.654,36.462 C175.728667,36.5180003 175.766,36.5926662 175.766,36.686 C175.766,36.7700004 175.747334,36.8399997 175.71,36.896 L173.526,42.902 C173.47,43.0326673 173.376667,43.098 173.246,43.098 C173.115333,43.098 173.022,43.0373339 172.966,42.916 L171.412,37.988 L169.872,42.846 C169.816,43.0140008 169.713334,43.098 169.564,43.098 C169.414666,43.098 169.312,43.0140008 169.256,42.846 L167.072,36.896 C167.034666,36.7839994 167.016,36.7186668 167.016,36.7 Z M176.69,40.494 L176.69,38.828 C176.69,38.1373299 176.941997,37.5446691 177.446,37.05 C177.950003,36.5553309 178.556663,36.308 179.266,36.308 C179.95667,36.308 180.553997,36.5506642 181.058,37.036 C181.562003,37.5213358 181.814,38.1233297 181.814,38.842 C181.814,39.0940013 181.783667,39.2969992 181.723,39.451 C181.662333,39.6050008 181.566667,39.7146663 181.436,39.78 C181.305333,39.8453337 181.186334,39.8849999 181.079,39.899 C180.971666,39.9130001 180.820001,39.92 180.624,39.92 L177.376,39.92 L177.376,40.508 C177.376,41.0960029 177.585998,41.5673316 178.006,41.922 C178.426002,42.2766684 178.96733,42.454 179.63,42.454 C179.966002,42.454 180.250665,42.4073338 180.484,42.314 C180.717334,42.2206662 180.894666,42.1273338 181.016,42.034 C181.137334,41.9406662 181.230666,41.894 181.296,41.894 C181.38,41.894 181.454666,41.931333 181.52,42.006 C181.585334,42.080667 181.618,42.155333 181.618,42.23 C181.618,42.4073342 181.424335,42.593999 181.037,42.79 C180.649665,42.986001 180.171336,43.084 179.602,43.084 C178.743329,43.084 178.043336,42.8460024 177.502,42.37 C176.960664,41.8939976 176.69,41.2686705 176.69,40.494 Z M177.376,39.346 L180.358,39.346 C180.675335,39.346 180.885333,39.3133337 180.988,39.248 C181.090667,39.1826663 181.142,39.0473344 181.142,38.842 C181.142,38.3473309 180.964668,37.904002 180.61,37.512 C180.255332,37.119998 179.807336,36.924 179.266,36.924 C178.743331,36.924 178.297669,37.1059982 177.929,37.47 C177.560331,37.8340018 177.376,38.2679975 177.376,38.772 L177.376,39.346 Z M183.256,42.692 L183.256,36.672 C183.256,36.4853324 183.367999,36.392 183.592,36.392 C183.685334,36.392 183.764666,36.4176664 183.83,36.469 C183.895334,36.5203336 183.928,36.5879996 183.928,36.672 L183.928,37.386 C184.096001,37.0779985 184.345665,36.8213344 184.677,36.616 C185.008335,36.4106656 185.393331,36.308 185.832,36.308 L186.336,36.308 C186.42,36.308 186.492333,36.338333 186.553,36.399 C186.613667,36.459667 186.644,36.5366662 186.644,36.63 C186.644,36.7233338 186.613667,36.800333 186.553,36.861 C186.492333,36.921667 186.42,36.952 186.336,36.952 L185.832,36.952 C185.327997,36.952 184.887002,37.1409981 184.509,37.519 C184.130998,37.8970019 183.942,38.3893303 183.942,38.996 L183.942,42.692 C183.942,42.766667 183.907,42.8366663 183.837,42.902 C183.767,42.9673337 183.685334,43 183.592,43 C183.498666,43 183.419334,42.969667 183.354,42.909 C183.288666,42.848333 183.256,42.7760004 183.256,42.692 Z M187.54,42.916 C187.437333,42.8039994 187.386,42.6686675 187.386,42.51 C187.386,42.3513325 187.439666,42.2160006 187.547,42.104 C187.654334,41.9919994 187.791999,41.936 187.96,41.936 C188.109334,41.936 188.239999,41.9943327 188.352,42.111 C188.464001,42.2276672 188.52,42.3606659 188.52,42.51 C188.52,42.6593341 188.464001,42.7923327 188.352,42.909 C188.239999,43.0256672 188.109334,43.084 187.96,43.084 C187.791999,43.084 187.652001,43.0280006 187.54,42.916 Z" id="Beginwithasingletinywhitefower."></path>
                            <path d="M0.308,7.974 C0.308,7.69533194 0.37399934,7.44966773 0.506,7.237 C0.63800066,7.02433227 0.82866542,6.918 1.078,6.918 L10.208,6.918 C10.4573346,6.918 10.6479993,7.02066564 10.78,7.226 C10.9120007,7.43133436 10.978,7.67333194 10.978,7.952 C10.978,8.26000154 10.908334,8.52033227 10.769,8.733 C10.629666,8.94566773 10.4426678,9.052 10.208,9.052 L6.82,9.052 L6.82,22.23 C6.82,22.4646678 6.70266784,22.651666 6.468,22.791 C6.23333216,22.930334 5.96200154,23 5.654,23 C5.33133172,23 5.05633447,22.930334 4.829,22.791 C4.60166553,22.651666 4.488,22.4646678 4.488,22.23 L4.488,9.052 L1.078,9.052 C0.84333216,9.052 0.65633403,8.94566773 0.517,8.733 C0.37766597,8.52033227 0.308,8.2673348 0.308,7.974 Z M12.298,8.744 C12.298,8.40666498 12.4299987,8.12066784 12.694,7.886 C12.9580013,7.65133216 13.2733315,7.534 13.64,7.534 C14.0066685,7.534 14.3219987,7.65133216 14.586,7.886 C14.8500013,8.12066784 14.982,8.40666498 14.982,8.744 C14.982,9.06666828 14.8500013,9.34899879 14.586,9.591 C14.3219987,9.83300121 14.0066685,9.954 13.64,9.954 C13.2733315,9.954 12.9580013,9.83300121 12.694,9.591 C12.4299987,9.34899879 12.298,9.06666828 12.298,8.744 Z M12.496,22.23 L12.496,13.32 C12.496,13.0999989 12.6023323,12.920334 12.815,12.781 C13.0276677,12.641666 13.302665,12.572 13.64,12.572 C13.977335,12.572 14.2559989,12.641666 14.476,12.781 C14.6960011,12.920334 14.806,13.0999989 14.806,13.32 L14.806,22.23 C14.806,22.4206676 14.6923345,22.5966659 14.465,22.758 C14.2376655,22.9193341 13.9626683,23 13.64,23 C13.3173317,23 13.0460011,22.9193341 12.826,22.758 C12.6059989,22.5966659 12.496,22.4206676 12.496,22.23 Z M17.226,22.23 L17.226,13.32 C17.226,13.0999989 17.3323323,12.920334 17.545,12.781 C17.7576677,12.641666 18.032665,12.572 18.37,12.572 C18.6633348,12.572 18.908999,12.641666 19.107,12.781 C19.305001,12.920334 19.404,13.0999989 19.404,13.32 L19.404,14.112 C19.6386678,13.6426643 20.0163307,13.2466683 20.537,12.924 C21.0576693,12.6013317 21.6626632,12.44 22.352,12.44 C23.3933385,12.44 24.2916629,12.8653291 25.047,13.716 C25.8023371,14.5666709 26.18,15.5859941 26.18,16.774 L26.18,22.23 C26.18,22.4646678 26.0663345,22.651666 25.839,22.791 C25.6116655,22.930334 25.3366683,23 25.014,23 C24.7206652,23 24.4566678,22.930334 24.222,22.791 C23.9873322,22.651666 23.87,22.4646678 23.87,22.23 L23.87,16.774 C23.87,16.1873304 23.6500022,15.6593357 23.21,15.19 C22.7699978,14.7206643 22.2493363,14.486 21.648,14.486 C21.0906639,14.486 20.5993355,14.6949979 20.174,15.113 C19.7486645,15.5310021 19.536,16.0846632 19.536,16.774 L19.536,22.23 C19.536,22.4206676 19.4186678,22.5966659 19.184,22.758 C18.9493322,22.9193341 18.6780015,23 18.37,23 C18.0473317,23 17.7760011,22.9193341 17.556,22.758 C17.3359989,22.5966659 17.226,22.4206676 17.226,22.23 Z M28.6,27.95 C27.8813297,27.95 27.522,27.6200033 27.522,26.96 C27.522,26.2999967 27.7346645,25.97 28.16,25.97 C28.8200033,25.97 29.4726634,25.6546698 30.118,25.024 C30.7633366,24.3933302 31.1593326,23.5060057 31.306,22.362 L27.61,13.826 C27.551333,13.7526663 27.522,13.6500007 27.522,13.518 C27.522,13.2393319 27.690665,12.9863345 28.028,12.759 C28.365335,12.5316655 28.702665,12.418 29.04,12.418 C29.4066685,12.418 29.6413328,12.5573319 29.744,12.836 L32.516,19.986 L34.892,12.836 C35.0240007,12.5573319 35.2439985,12.418 35.552,12.418 C35.8600015,12.418 36.1936649,12.5316655 36.553,12.759 C36.9123351,12.9863345 37.092,13.2539985 37.092,13.562 C37.092,13.6940007 37.0773335,13.7819998 37.048,13.826 L33.792,22.428 L33.418,23.418 C33.3299996,23.6233344 33.1943342,23.9386645 33.011,24.364 C32.8276657,24.7893355 32.6700007,25.1119989 32.538,25.332 L32.01,26.146 C31.7899989,26.483335 31.5700011,26.7363325 31.35,26.905 C31.1299989,27.0736675 30.8806681,27.2496657 30.602,27.433 C30.3233319,27.6163342 30.015335,27.7483329 29.678,27.829 C29.340665,27.9096671 28.9813352,27.95 28.6,27.95 Z M42.064,7.864 C42.064,7.59999868 42.2179985,7.37633425 42.526,7.193 C42.8340015,7.00966575 43.1639982,6.918 43.516,6.918 C43.9706689,6.918 44.2419996,7.07933172 44.33,7.402 L47.938,19.942 L49.918,12.066 C50.0206672,11.6113311 50.40933,11.384 51.084,11.384 C51.7293366,11.384 52.1106661,11.6113311 52.228,12.066 L54.23,19.942 L57.816,7.402 C57.9040004,7.07933172 58.1753311,6.918 58.63,6.918 C58.9820018,6.918 59.3119985,7.00966575 59.62,7.193 C59.9280015,7.37633425 60.082,7.59999868 60.082,7.864 C60.082,7.96666718 60.0746667,8.03999978 60.06,8.084 L55.704,22.34 C55.6159996,22.5893346 55.4290014,22.783666 55.143,22.923 C54.8569986,23.062334 54.545335,23.132 54.208,23.132 C53.870665,23.132 53.5590014,23.062334 53.273,22.923 C52.9869986,22.783666 52.814667,22.5893346 52.756,22.34 L51.084,15.696 L49.412,22.34 C49.353333,22.5893346 49.1810014,22.783666 48.895,22.923 C48.6089986,23.062334 48.2900018,23.132 47.938,23.132 C47.5859982,23.132 47.2706681,23.062334 46.992,22.923 C46.7133319,22.783666 46.5373337,22.5893346 46.464,22.34 L42.086,8.084 C42.0713333,8.03999978 42.064,7.96666718 42.064,7.864 Z M61.622,22.23 L61.622,7.116 C61.622,6.8959989 61.7283323,6.71633403 61.941,6.577 C62.1536677,6.43766597 62.428665,6.368 62.766,6.368 C63.0886683,6.368 63.3636655,6.43766597 63.591,6.577 C63.8183345,6.71633403 63.932,6.8959989 63.932,7.116 L63.932,14.112 C64.1666678,13.6426643 64.5296642,13.2466683 65.021,12.924 C65.5123358,12.6013317 66.0879967,12.44 66.748,12.44 C67.7893385,12.44 68.6876629,12.8653291 69.443,13.716 C70.1983371,14.5666709 70.576,15.5859941 70.576,16.774 L70.576,22.23 C70.576,22.4646678 70.4586678,22.651666 70.224,22.791 C69.9893322,22.930334 69.7180015,23 69.41,23 C69.1166652,23 68.8526678,22.930334 68.618,22.791 C68.3833322,22.651666 68.266,22.4646678 68.266,22.23 L68.266,16.774 C68.266,16.1873304 68.0460022,15.6593357 67.606,15.19 C67.1659978,14.7206643 66.6453363,14.486 66.044,14.486 C65.4866639,14.486 64.9953355,14.6949979 64.57,15.113 C64.1446645,15.5310021 63.932,16.0846632 63.932,16.774 L63.932,22.23 C63.932,22.4206676 63.8146678,22.5966659 63.58,22.758 C63.3453322,22.9193341 63.0740015,23 62.766,23 C62.4433317,23 62.1720011,22.9193341 61.952,22.758 C61.7319989,22.5966659 61.622,22.4206676 61.622,22.23 Z M72.71,8.744 C72.71,8.40666498 72.8419987,8.12066784 73.106,7.886 C73.3700013,7.65133216 73.6853315,7.534 74.052,7.534 C74.4186685,7.534 74.7339987,7.65133216 74.998,7.886 C75.2620013,8.12066784 75.394,8.40666498 75.394,8.744 C75.394,9.06666828 75.2620013,9.34899879 74.998,9.591 C74.7339987,9.83300121 74.4186685,9.954 74.052,9.954 C73.6853315,9.954 73.3700013,9.83300121 73.106,9.591 C72.8419987,9.34899879 72.71,9.06666828 72.71,8.744 Z M72.908,22.23 L72.908,13.32 C72.908,13.0999989 73.0143323,12.920334 73.227,12.781 C73.4396677,12.641666 73.714665,12.572 74.052,12.572 C74.389335,12.572 74.6679989,12.641666 74.888,12.781 C75.1080011,12.920334 75.218,13.0999989 75.218,13.32 L75.218,22.23 C75.218,22.4206676 75.1043345,22.5966659 74.877,22.758 C74.6496655,22.9193341 74.3746683,23 74.052,23 C73.7293317,23 73.4580011,22.9193341 73.238,22.758 C73.0179989,22.5966659 72.908,22.4206676 72.908,22.23 Z M77.616,19.568 L77.616,8.546 C77.616,8.34066564 77.7333322,8.1646674 77.968,8.018 C78.2026678,7.8713326 78.4666652,7.798 78.76,7.798 C79.0533348,7.798 79.3209988,7.8713326 79.563,8.018 C79.8050012,8.1646674 79.926,8.34066564 79.926,8.546 L79.926,12.572 L82.61,12.572 C82.8006676,12.572 82.9546661,12.6563325 83.072,12.825 C83.1893339,12.9936675 83.248,13.1953322 83.248,13.43 C83.248,13.6646678 83.1893339,13.8663325 83.072,14.035 C82.9546661,14.2036675 82.8006676,14.288 82.61,14.288 L79.926,14.288 L79.926,19.568 C79.926,20.0960026 80.0396655,20.4699989 80.267,20.69 C80.4943345,20.9100011 80.8939971,21.02 81.466,21.02 L82.236,21.02 C82.5440015,21.02 82.7859991,21.1153324 82.962,21.306 C83.1380009,21.4966676 83.226,21.7313319 83.226,22.01 C83.226,22.2886681 83.1380009,22.5233324 82.962,22.714 C82.7859991,22.9046676 82.5440015,23 82.236,23 L81.466,23 C78.8993205,23 77.616,21.8560114 77.616,19.568 Z M84.48,18.798 L84.48,16.708 C84.48,15.5493275 84.9273289,14.5483375 85.822,13.705 C86.7166711,12.8616625 87.7946604,12.44 89.056,12.44 C90.2586727,12.44 91.2889957,12.8249962 92.147,13.595 C93.0050043,14.3650039 93.434,15.3366608 93.434,16.51 C93.434,16.9500022 93.3826672,17.3056653 93.28,17.577 C93.1773328,17.8483347 93.0160011,18.0389994 92.796,18.149 C92.5759989,18.2590005 92.3706676,18.3286665 92.18,18.358 C91.9893324,18.3873335 91.7400015,18.402 91.432,18.402 L86.79,18.402 L86.79,18.908 C86.79,19.641337 87.0539974,20.2243312 87.582,20.657 C88.1100026,21.0896688 88.7993291,21.306 89.65,21.306 C90.2513363,21.306 90.819664,21.1666681 91.355,20.888 C91.890336,20.6093319 92.2166661,20.47 92.334,20.47 C92.5833346,20.47 92.7959991,20.5873322 92.972,20.822 C93.1480009,21.0566678 93.236,21.2839989 93.236,21.504 C93.236,21.8706685 92.8840035,22.2409981 92.18,22.615 C91.4759965,22.9890019 90.6106718,23.176 89.584,23.176 C88.0879925,23.176 86.8633381,22.7726707 85.91,21.966 C84.9566619,21.1593293 84.48,20.1033399 84.48,18.798 Z M86.79,16.972 L90.442,16.972 C90.7646683,16.972 90.9809995,16.9280004 91.091,16.84 C91.2010006,16.7519996 91.256,16.5760013 91.256,16.312 C91.256,15.7253304 91.0433355,15.2266687 90.618,14.816 C90.1926645,14.4053313 89.6646698,14.2 89.034,14.2 C88.4179969,14.2 87.8900022,14.3943314 87.45,14.783 C87.0099978,15.1716686 86.79,15.6666637 86.79,16.268 L86.79,16.972 Z M99.946,22.23 L99.946,7.688 C99.946,7.45333216 100.048666,7.26633403 100.254,7.127 C100.459334,6.98766597 100.701332,6.918 100.98,6.918 L108.702,6.918 C108.951335,6.918 109.138333,7.01699901 109.263,7.215 C109.387667,7.41300099 109.45,7.65133194 109.45,7.93 C109.45,8.2233348 109.384001,8.47266564 109.252,8.678 C109.119999,8.88333436 108.936668,8.986 108.702,8.986 L102.278,8.986 L102.278,14.024 L105.688,14.024 C105.922668,14.024 106.105999,14.1156658 106.238,14.299 C106.370001,14.4823343 106.436,14.7059987 106.436,14.97 C106.436,15.2046678 106.373667,15.4136657 106.249,15.597 C106.124333,15.7803343 105.937335,15.872 105.688,15.872 L102.278,15.872 L102.278,22.23 C102.278,22.4793346 102.164334,22.6699993 101.937,22.802 C101.709666,22.9340007 101.434668,23 101.112,23 C100.803998,23 100.532668,22.9340007 100.298,22.802 C100.063332,22.6699993 99.946,22.4793346 99.946,22.23 Z M110.946,22.23 L110.946,7.116 C110.946,6.8959989 111.052332,6.71633403 111.265,6.577 C111.477668,6.43766597 111.752665,6.368 112.09,6.368 C112.412668,6.368 112.687666,6.43766597 112.915,6.577 C113.142334,6.71633403 113.256,6.8959989 113.256,7.116 L113.256,22.23 C113.256,22.4206676 113.138668,22.5966659 112.904,22.758 C112.669332,22.9193341 112.398002,23 112.09,23 C111.767332,23 111.496001,22.9193341 111.276,22.758 C111.055999,22.5966659 110.946,22.4206676 110.946,22.23 Z M115.456,18.798 L115.456,16.774 C115.456,15.6153275 115.903329,14.6033377 116.798,13.738 C117.692671,12.8726623 118.763327,12.44 120.01,12.44 C121.227339,12.44 122.290662,12.8689957 123.2,13.727 C124.109338,14.5850043 124.564,15.6006608 124.564,16.774 L124.564,18.798 C124.564,19.9420057 124.105671,20.9576622 123.189,21.845 C122.272329,22.7323378 121.212673,23.176 120.01,23.176 C118.792661,23.176 117.729338,22.7360044 116.82,21.856 C115.910662,20.9759956 115.456,19.9566725 115.456,18.798 Z M117.766,18.798 C117.766,19.3993363 117.985998,19.938331 118.426,20.415 C118.866002,20.891669 119.393997,21.13 120.01,21.13 C120.611336,21.13 121.135664,20.891669 121.583,20.415 C122.030336,19.938331 122.254,19.3993363 122.254,18.798 L122.254,16.774 C122.254,16.1873304 122.030336,15.6593357 121.583,15.19 C121.135664,14.7206643 120.611336,14.486 120.01,14.486 C119.393997,14.486 118.866002,14.7206643 118.426,15.19 C117.985998,15.6593357 117.766,16.1873304 117.766,16.774 L117.766,18.798 Z M125.598,13.452 C125.598,13.1879987 125.759332,12.9606676 126.082,12.77 C126.404668,12.5793324 126.734665,12.484 127.072,12.484 C127.438669,12.484 127.673333,12.6233319 127.776,12.902 L130.218,19.744 L132.088,13.672 C132.190667,13.334665 132.461998,13.166 132.902,13.166 C133.342002,13.166 133.613333,13.334665 133.716,13.672 L135.564,19.788 L138.028,12.902 C138.116,12.6233319 138.343332,12.484 138.71,12.484 C139.032668,12.484 139.358998,12.5793324 139.689,12.77 C140.019002,12.9606676 140.184,13.1953319 140.184,13.474 C140.184,13.5913339 140.154667,13.7086661 140.096,13.826 L136.686,22.758 C136.568666,23.0660015 136.260669,23.22 135.762,23.22 C135.263331,23.22 134.948001,23.0733348 134.816,22.78 L132.902,17.104 L131.01,22.714 C130.877999,23.051335 130.548003,23.22 130.02,23.22 C129.535998,23.22 129.228001,23.051335 129.096,22.714 L125.686,13.826 C125.627333,13.6499991 125.598,13.5253337 125.598,13.452 Z M141.24,18.798 L141.24,16.708 C141.24,15.5493275 141.687329,14.5483375 142.582,13.705 C143.476671,12.8616625 144.55466,12.44 145.816,12.44 C147.018673,12.44 148.048996,12.8249962 148.907,13.595 C149.765004,14.3650039 150.194,15.3366608 150.194,16.51 C150.194,16.9500022 150.142667,17.3056653 150.04,17.577 C149.937333,17.8483347 149.776001,18.0389994 149.556,18.149 C149.335999,18.2590005 149.130668,18.3286665 148.94,18.358 C148.749332,18.3873335 148.500002,18.402 148.192,18.402 L143.55,18.402 L143.55,18.908 C143.55,19.641337 143.813997,20.2243312 144.342,20.657 C144.870003,21.0896688 145.559329,21.306 146.41,21.306 C147.011336,21.306 147.579664,21.1666681 148.115,20.888 C148.650336,20.6093319 148.976666,20.47 149.094,20.47 C149.343335,20.47 149.555999,20.5873322 149.732,20.822 C149.908001,21.0566678 149.996,21.2839989 149.996,21.504 C149.996,21.8706685 149.644004,22.2409981 148.94,22.615 C148.235996,22.9890019 147.370672,23.176 146.344,23.176 C144.847993,23.176 143.623338,22.7726707 142.67,21.966 C141.716662,21.1593293 141.24,20.1033399 141.24,18.798 Z M143.55,16.972 L147.202,16.972 C147.524668,16.972 147.740999,16.9280004 147.851,16.84 C147.961001,16.7519996 148.016,16.5760013 148.016,16.312 C148.016,15.7253304 147.803335,15.2266687 147.378,14.816 C146.952665,14.4053313 146.42467,14.2 145.794,14.2 C145.177997,14.2 144.650002,14.3943314 144.21,14.783 C143.769998,15.1716686 143.55,15.6666637 143.55,16.268 L143.55,16.972 Z M152.064,22.23 L152.064,13.32 C152.064,13.0999989 152.170332,12.920334 152.383,12.781 C152.595668,12.641666 152.863332,12.572 153.186,12.572 C153.479335,12.572 153.728666,12.641666 153.934,12.781 C154.139334,12.920334 154.242,13.0999989 154.242,13.32 L154.242,14.288 C154.491335,13.7746641 154.868997,13.3383351 155.375,12.979 C155.881003,12.6196649 156.434664,12.44 157.036,12.44 L157.74,12.44 C157.974668,12.44 158.179999,12.538999 158.356,12.737 C158.532001,12.935001 158.62,13.1733319 158.62,13.452 C158.62,13.7306681 158.532001,13.9726656 158.356,14.178 C158.179999,14.3833344 157.974668,14.486 157.74,14.486 L157.036,14.486 C156.331996,14.486 155.712336,14.7866637 155.177,15.388 C154.641664,15.9893363 154.374,16.7666619 154.374,17.72 L154.374,22.23 C154.374,22.4206676 154.256668,22.5966659 154.022,22.758 C153.787332,22.9193341 153.508668,23 153.186,23 C152.863332,23 152.595668,22.9193341 152.383,22.758 C152.170332,22.5966659 152.064,22.4206676 152.064,22.23 Z" id="TinyWhiteFlower"></path>
                        </g>
                        <g id="check" transform="translate(0.000000, 1.000000)">
                            <circle id="Oval" fill="#FFBE8D" cx="25" cy="25" r="25"></circle>
                            <g transform="translate(12.000000, 17.000000)" fill="#111111" id="Path">
                                <path d="M25.090379,0.946058091 L25.090379,0.946058091 C25.5984236,1.4744537 25.5984236,2.30977867 25.090379,2.83817427 L10.2718726,18.2502723 C9.88909022,18.648388 9.25604726,18.6608181 8.85793159,18.2780357 C8.84849632,18.2689638 8.83924008,18.2597076 8.83016821,18.2502723 L0.9138322,10.016828 C0.403435511,9.48598615 0.403435511,8.64679393 0.9138322,8.11595205 L0.9138322,8.11595205 C1.39908961,7.61125646 2.20160508,7.59549871 2.70630067,8.08075612 C2.71826185,8.09225663 2.72999609,8.10399086 2.7414966,8.11595205 L9.55944282,15.2070078 L23.271137,0.946058091 C23.7541582,0.44368829 24.5529755,0.428003151 25.0553453,0.911024354 C25.0672513,0.922471862 25.0789315,0.934152025 25.090379,0.946058091 Z"></path>
                            </g>
                        </g>
                    </g>
                </g>
            </g>
        </g>
    </g>
</svg>