<?xml version="1.0" encoding="UTF-8"?>
<svg width="303px" height="145px" viewBox="0 0 303 145" version="1.1" xmlns="http://www.w3.org/2000/svg" xmlns:xlink="http://www.w3.org/1999/xlink">
    <!-- Generator: Sketch 53 (72520) - https://sketchapp.com -->
    <title>SKY</title>
    <desc>Created with Sketch.</desc>
    <defs>
        <path d="M365.136,423.53 C365.136,421.287989 365.961992,419.046011 367.614,416.804 C369.266008,414.561989 371.153989,413.441 373.278,413.441 C374.576007,413.441 376.139491,414.178493 377.9685,415.6535 C379.797509,417.128507 381.596991,418.721491 383.367,420.4325 C385.137009,422.143509 387.821482,423.736493 391.4205,425.2115 C395.019518,426.686507 399.060978,427.424 403.545,427.424 C410.271034,427.424 415.66948,425.831016 419.7405,422.645 C423.81152,419.458984 425.847,414.798031 425.847,408.662 C425.847,402.997972 423.87052,398.278019 419.9175,394.502 C415.96448,390.725981 411.185528,387.717011 405.5805,385.475 C399.975472,383.232989 394.341028,380.814013 388.677,378.218 C383.012972,375.621987 378.20452,371.728026 374.2515,366.536 C370.29848,361.343974 368.322,354.854039 368.322,347.066 C368.322,340.811969 369.531488,335.384023 371.9505,330.782 C374.369512,326.179977 377.643979,322.640012 381.774,320.162 C385.904021,317.683988 390.240477,315.884506 394.7835,314.7635 C399.326523,313.642494 404.134975,313.082 409.209,313.082 C412.395016,313.082 415.728483,313.288498 419.2095,313.7015 C422.690517,314.114502 426.141983,314.792995 429.564,315.737 C432.986017,316.681005 435.817989,318.037991 438.06,319.808 C440.302011,321.578009 441.423,323.583989 441.423,325.826 C441.423,328.068011 440.715007,330.309989 439.299,332.552 C437.882993,334.794011 435.995012,335.915 433.635,335.915 C432.454994,335.915 430.86201,335.354506 428.856,334.2335 C426.84999,333.112494 424.165517,331.991506 420.8025,330.8705 C417.439483,329.749494 413.575022,329.189 409.209,329.189 C402.482966,329.189 397.11402,330.516487 393.102,333.1715 C389.08998,335.826513 387.084,339.867973 387.084,345.296 C387.084,348.836018 388.145989,351.874487 390.27,354.4115 C392.394011,356.948513 395.137483,359.042992 398.5005,360.695 C401.863517,362.347008 405.609979,363.969492 409.74,365.5625 C413.870021,367.155508 417.97048,369.013989 422.0415,371.138 C426.11252,373.262011 429.829483,375.710486 433.1925,378.4835 C436.555517,381.256514 439.298989,385.061976 441.423,389.9 C443.547011,394.738024 444.609,400.342968 444.609,406.715 C444.609,418.987061 440.921537,428.338468 433.5465,434.7695 C426.171463,441.200532 416.407061,444.416 404.253,444.416 C393.396946,444.416 384.163538,442.144523 376.5525,437.6015 C368.941462,433.058477 365.136,428.368024 365.136,423.53 Z M468.519,436.805 L468.519,319.631 C468.519,317.62499 469.433491,316.120505 471.2625,315.1175 C473.091509,314.114495 475.303987,313.613 477.9,313.613 C480.496013,313.613 482.708491,314.114495 484.5375,315.1175 C486.366509,316.120505 487.281,317.62499 487.281,319.631 L487.281,373.439 L530.469,316.268 C531.649006,314.497991 533.418988,313.613 535.779,313.613 C538.257012,313.613 540.675988,314.64549 543.036,316.7105 C545.396012,318.77551 546.576,320.987988 546.576,323.348 C546.576,324.764007 546.104005,326.002995 545.16,327.065 L511.176,369.545 L551.532,430.964 C552.240004,432.026005 552.594,433.146994 552.594,434.327 C552.594,436.569011 551.443512,438.66349 549.1425,440.6105 C546.841489,442.55751 544.334014,443.531 541.62,443.531 C538.669985,443.531 536.428008,442.351012 534.894,439.991 L498.786,385.298 L487.281,399.812 L487.281,436.805 C487.281,438.693009 486.366509,440.197494 484.5375,441.3185 C482.708491,442.439506 480.496013,443 477.9,443 C475.421988,443 473.23901,442.439506 471.351,441.3185 C469.462991,440.197494 468.519,438.693009 468.519,436.805 Z M561.105,321.401 C561.105,319.276989 562.402987,317.448008 564.999,315.914 C567.595013,314.379992 570.249987,313.613 572.964,313.613 C575.560013,313.613 577.624992,315.028986 579.159,317.861 L608.364,373.97 L637.392,317.861 C638.808007,315.028986 640.872987,313.613 643.587,313.613 C646.301014,313.613 648.926487,314.379992 651.4635,315.914 C654.000513,317.448008 655.269,319.276989 655.269,321.401 C655.269,322.463005 655.092002,323.347996 654.738,324.056 L618.099,390.077 C617.862999,390.785004 617.745,391.433997 617.745,392.024 L617.745,436.805 C617.745,438.693009 616.80101,440.197494 614.913,441.3185 C613.024991,442.439506 610.842013,443 608.364,443 C605.767987,443 603.555509,442.439506 601.7265,441.3185 C599.897491,440.197494 598.983,438.693009 598.983,436.805 L598.983,392.024 C598.983,391.787999 598.806002,391.139005 598.452,390.077 L561.813,324.056 C561.340998,323.111995 561.105,322.227004 561.105,321.401 Z" id="path-1"></path>
        <filter x="-3.6%" y="-8.0%" width="107.2%" height="116.0%" filterUnits="objectBoundingBox" id="filter-2">
            <feMorphology radius="0.5" operator="dilate" in="SourceAlpha" result="shadowSpreadOuter1"></feMorphology>
            <feOffset dx="0" dy="0" in="shadowSpreadOuter1" result="shadowOffsetOuter1"></feOffset>
            <feGaussianBlur stdDeviation="3" in="shadowOffsetOuter1" result="shadowBlurOuter1"></feGaussianBlur>
            <feColorMatrix values="0 0 0 0 0   0 0 0 0 0   0 0 0 0 0  0 0 0 1 0" type="matrix" in="shadowBlurOuter1"></feColorMatrix>
        </filter>
    </defs>
    <g id="[Screens]" stroke="none" stroke-width="1" fill="none" fill-rule="evenodd">
        <g id="game-win" transform="translate(-750.000000, -466.000000)" fill-rule="nonzero">
            <g id="overlay_game_win" transform="translate(266.000000, 67.000000)">
                <g id="text" transform="translate(125.500000, 93.000000)">
                    <g id="SKY">
                        <use fill="black" fill-opacity="1" filter="url(#filter-2)" xlink:href="#path-1"></use>
                        <use fill="#FFFFFF" xlink:href="#path-1"></use>
                    </g>
                </g>
            </g>
        </g>
    </g>
</svg>