<?xml version="1.0" encoding="UTF-8"?>
<svg width="230px" height="60px" viewBox="0 0 230 60" version="1.1" xmlns="http://www.w3.org/2000/svg" xmlns:xlink="http://www.w3.org/1999/xlink">
    <!-- Generator: Sketch 53 (72520) - https://sketchapp.com -->
    <title>button_restart_cancel_hover</title>
    <desc>Created with Sketch.</desc>
    <g id="[Screens]" stroke="none" stroke-width="1" fill="none" fill-rule="evenodd">
        <g id="ambient-mode" transform="translate(-809.000000, -354.000000)" fill-rule="nonzero">
            <g id="modal_restart" transform="translate(771.000000, 174.000000)">
                <g id="button_restart_cancel_hover" transform="translate(38.000000, 180.000000)">
                    <rect id="Rectangle" fill="#096E06" x="0" y="0" width="230" height="60" rx="2"></rect>
                    <path d="M24.7375638,24.304 C24.7375638,24.099999 24.8565626,23.9271674 25.0945638,23.7855 C25.3325649,23.6438326 25.5875624,23.573 25.8595638,23.573 C26.2108988,23.573 26.4205634,23.6976654 26.4885638,23.947 L29.2765638,33.637 L30.8065638,27.551 C30.8858975,27.1996649 31.1862278,27.024 31.7075638,27.024 C32.2062329,27.024 32.5008966,27.1996649 32.5915638,27.551 L34.1385638,33.637 L36.9095638,23.947 C36.9775641,23.6976654 37.1872287,23.573 37.5385638,23.573 C37.8105651,23.573 38.0655626,23.6438326 38.3035638,23.7855 C38.5415649,23.9271674 38.6605638,24.099999 38.6605638,24.304 C38.6605638,24.3833337 38.6548971,24.4399998 38.6435638,24.474 L35.2775638,35.49 C35.2095634,35.6826676 35.0650649,35.8328328 34.8440638,35.9405 C34.6230626,36.0481672 34.3822317,36.102 34.1215638,36.102 C33.8608958,36.102 33.6200649,36.0481672 33.3990638,35.9405 C33.1780626,35.8328328 33.0448973,35.6826676 32.9995638,35.49 L31.7075638,30.356 L30.4155638,35.49 C30.3702302,35.6826676 30.2370649,35.8328328 30.0160638,35.9405 C29.7950626,36.0481672 29.5485651,36.102 29.2765638,36.102 C29.0045624,36.102 28.7608982,36.0481672 28.5455638,35.9405 C28.3302293,35.8328328 28.1942307,35.6826676 28.1375638,35.49 L24.7545638,24.474 C24.7432304,24.4399998 24.7375638,24.3833337 24.7375638,24.304 Z M39.4199587,33.892 C39.4199587,32.9853288 39.7599553,32.3535018 40.4399587,31.9965 C41.1199621,31.6394982 42.1059522,31.461 43.3979587,31.461 L44.1459587,31.461 L44.1459587,31.155 C44.1459587,30.6563308 44.0071267,30.2256685 43.7294587,29.863 C43.4517906,29.5003315 43.0296282,29.319 42.4629587,29.319 C41.9756229,29.319 41.5477938,29.4039991 41.1794587,29.574 C40.8111235,29.7440008 40.6099588,29.829 40.5759587,29.829 C40.383291,29.829 40.2274592,29.7355009 40.1084587,29.5485 C39.9894581,29.3614991 39.9299587,29.1546678 39.9299587,28.928 C39.9299587,28.6333319 40.2047892,28.3783344 40.7544587,28.163 C41.3041281,27.9476656 41.8849556,27.84 42.4969587,27.84 C43.6642978,27.84 44.5284558,28.1544969 45.0894587,28.7835 C45.6504615,29.4125031 45.9309587,30.1973286 45.9309587,31.138 L45.9309587,35.405 C45.9309587,35.5636675 45.8487928,35.7024994 45.6844587,35.8215 C45.5201245,35.9405006 45.3132932,36 45.0639587,36 C44.8372909,36 44.6446261,35.9405006 44.4859587,35.8215 C44.3272912,35.7024994 44.2479587,35.5636675 44.2479587,35.405 L44.2479587,34.81 C43.4886215,35.6940044 42.6329634,36.136 41.6809587,36.136 C41.023622,36.136 40.4824608,35.9433353 40.0574587,35.558 C39.6324565,35.1726647 39.4199587,34.617337 39.4199587,33.892 Z M41.2219587,33.671 C41.2219587,34.0336685 41.3239576,34.3084991 41.5279587,34.4955 C41.7319597,34.6825009 41.9982903,34.776 42.3269587,34.776 C42.7576275,34.776 43.1684567,34.5946685 43.5594587,34.232 C43.9504606,33.8693315 44.1459587,33.484002 44.1459587,33.076 L44.1459587,32.447 L43.7209587,32.447 C43.2109561,32.447 42.7944603,32.4696664 42.4714587,32.515 C42.148457,32.5603336 41.8594599,32.6793324 41.6044587,32.872 C41.3494574,33.0646676 41.2219587,33.3309983 41.2219587,33.671 Z M48.4753536,24.984 C48.4753536,24.723332 48.5773525,24.5023342 48.7813536,24.321 C48.9853546,24.1396658 49.2290188,24.049 49.5123536,24.049 C49.7956883,24.049 50.0393525,24.1396658 50.2433536,24.321 C50.4473546,24.5023342 50.5493536,24.723332 50.5493536,24.984 C50.5493536,25.2333346 50.4473546,25.4514991 50.2433536,25.6385 C50.0393525,25.8255009 49.7956883,25.919 49.5123536,25.919 C49.2290188,25.919 48.9853546,25.8255009 48.7813536,25.6385 C48.5773525,25.4514991 48.4753536,25.2333346 48.4753536,24.984 Z M48.6283536,35.405 L48.6283536,28.52 C48.6283536,28.3499992 48.7105194,28.2111672 48.8748536,28.1035 C49.0391877,27.9958328 49.2516856,27.942 49.5123536,27.942 C49.7730215,27.942 49.9883527,27.9958328 50.1583536,28.1035 C50.3283544,28.2111672 50.4133536,28.3499992 50.4133536,28.52 L50.4133536,35.405 C50.4133536,35.5523341 50.3255211,35.6883327 50.1498536,35.813 C49.974186,35.9376673 49.7616881,36 49.5123536,36 C49.263019,36 49.0533544,35.9376673 48.8833536,35.813 C48.7133527,35.6883327 48.6283536,35.5523341 48.6283536,35.405 Z M53.1447485,33.348 L53.1447485,24.831 C53.1447485,24.6723325 53.2354142,24.5363339 53.4167485,24.423 C53.5980827,24.3096661 53.8020807,24.253 54.0287485,24.253 C54.2554163,24.253 54.4622475,24.3096661 54.6492485,24.423 C54.8362494,24.5363339 54.9297485,24.6723325 54.9297485,24.831 L54.9297485,27.942 L57.0037485,27.942 C57.1510825,27.942 57.2700813,28.007166 57.3607485,28.1375 C57.4514156,28.267834 57.4967485,28.4236658 57.4967485,28.605 C57.4967485,28.7863342 57.4514156,28.942166 57.3607485,29.0725 C57.2700813,29.202834 57.1510825,29.268 57.0037485,29.268 L54.9297485,29.268 L54.9297485,33.348 C54.9297485,33.756002 55.0175809,34.0449991 55.1932485,34.215 C55.368916,34.3850008 55.6777462,34.47 56.1197485,34.47 L56.7147485,34.47 C56.9527496,34.47 57.1397478,34.5436659 57.2757485,34.691 C57.4117491,34.8383341 57.4797485,35.0196656 57.4797485,35.235 C57.4797485,35.4503344 57.4117491,35.6316659 57.2757485,35.779 C57.1397478,35.9263341 56.9527496,36 56.7147485,36 L56.1197485,36 C54.1364052,36 53.1447485,35.1160088 53.1447485,33.348 Z M59.5481434,35.813 C59.3554757,35.608999 59.2591434,35.3653348 59.2591434,35.082 C59.2591434,34.7986652 59.3554757,34.5578343 59.5481434,34.3595 C59.740811,34.1611657 59.9844752,34.062 60.2791434,34.062 C60.5511447,34.062 60.786309,34.1611657 60.9846434,34.3595 C61.1829777,34.5578343 61.2821434,34.7986652 61.2821434,35.082 C61.2821434,35.3540014 61.1829777,35.591999 60.9846434,35.796 C60.786309,36.000001 60.5511447,36.102 60.2791434,36.102 C59.9844752,36.102 59.740811,36.0056676 59.5481434,35.813 Z M68.1049332,35.405 L68.1049332,24.151 C68.1049332,23.9583324 68.1927656,23.8138338 68.3684332,23.7175 C68.5441007,23.6211662 68.7565986,23.573 69.0059332,23.573 C69.2552677,23.573 69.4677656,23.6211662 69.6434332,23.7175 C69.8191007,23.8138338 69.9069332,23.9583324 69.9069332,24.151 L69.9069332,35.405 C69.9069332,35.5863342 69.8191007,35.7308328 69.6434332,35.8385 C69.4677656,35.9461672 69.2552677,36 69.0059332,36 C68.767932,36 68.5582674,35.9461672 68.3769332,35.8385 C68.1955989,35.7308328 68.1049332,35.5863342 68.1049332,35.405 Z M76.355723,28.622 C76.355723,28.417999 76.4803884,28.2423341 76.729723,28.095 C76.9790575,27.9476659 77.234055,27.874 77.494723,27.874 C77.7780577,27.874 77.9593892,27.9816656 78.038723,28.197 L79.925723,33.484 L81.370723,28.792 C81.4500567,28.531332 81.6597213,28.401 81.999723,28.401 C82.3397247,28.401 82.5493892,28.531332 82.628723,28.792 L84.056723,33.518 L85.960723,28.197 C86.0287233,27.9816656 86.2043882,27.874 86.487723,27.874 C86.7370575,27.874 86.9892217,27.9476659 87.244223,28.095 C87.4992242,28.2423341 87.626723,28.4236656 87.626723,28.639 C87.626723,28.7296671 87.6040565,28.8203329 87.558723,28.911 L84.923723,35.813 C84.8330558,36.0510012 84.5950582,36.17 84.209723,36.17 C83.8243877,36.17 83.5807235,36.0566678 83.478723,35.83 L81.999723,31.444 L80.537723,35.779 C80.4357224,36.039668 80.180725,36.17 79.772723,36.17 C79.3987211,36.17 79.1607235,36.039668 79.058723,35.779 L76.423723,28.911 C76.3783894,28.7749993 76.355723,28.678667 76.355723,28.622 Z M89.1171179,33.892 C89.1171179,32.9853288 89.4571145,32.3535018 90.1371179,31.9965 C90.8171213,31.6394982 91.8031114,31.461 93.0951179,31.461 L93.8431179,31.461 L93.8431179,31.155 C93.8431179,30.6563308 93.7042859,30.2256685 93.4266179,29.863 C93.1489498,29.5003315 92.7267874,29.319 92.1601179,29.319 C91.6727821,29.319 91.244953,29.4039991 90.8766179,29.574 C90.5082827,29.7440008 90.307118,29.829 90.2731179,29.829 C90.0804502,29.829 89.9246184,29.7355009 89.8056179,29.5485 C89.6866173,29.3614991 89.6271179,29.1546678 89.6271179,28.928 C89.6271179,28.6333319 89.9019484,28.3783344 90.4516179,28.163 C91.0012873,27.9476656 91.5821148,27.84 92.1941179,27.84 C93.361457,27.84 94.225615,28.1544969 94.7866179,28.7835 C95.3476207,29.4125031 95.6281179,30.1973286 95.6281179,31.138 L95.6281179,35.405 C95.6281179,35.5636675 95.545952,35.7024994 95.3816179,35.8215 C95.2172837,35.9405006 95.0104524,36 94.7611179,36 C94.5344501,36 94.3417853,35.9405006 94.1831179,35.8215 C94.0244504,35.7024994 93.9451179,35.5636675 93.9451179,35.405 L93.9451179,34.81 C93.1857807,35.6940044 92.3301226,36.136 91.3781179,36.136 C90.7207812,36.136 90.17962,35.9433353 89.7546179,35.558 C89.3296157,35.1726647 89.1171179,34.617337 89.1171179,33.892 Z M90.9191179,33.671 C90.9191179,34.0336685 91.0211168,34.3084991 91.2251179,34.4955 C91.4291189,34.6825009 91.6954495,34.776 92.0241179,34.776 C92.4547867,34.776 92.8656159,34.5946685 93.2566179,34.232 C93.6476198,33.8693315 93.8431179,33.484002 93.8431179,33.076 L93.8431179,32.447 L93.4181179,32.447 C92.9081153,32.447 92.4916195,32.4696664 92.1686179,32.515 C91.8456162,32.5603336 91.5566191,32.6793324 91.3016179,32.872 C91.0466166,33.0646676 90.9191179,33.3309983 90.9191179,33.671 Z M98.3255128,35.405 L98.3255128,28.52 C98.3255128,28.3499992 98.4076786,28.2111672 98.5720128,28.1035 C98.7363469,27.9958328 98.9488448,27.942 99.2095128,27.942 C99.4361806,27.942 99.626012,27.9958328 99.7790128,28.1035 C99.9320135,28.2111672 100.008513,28.3499992 100.008513,28.52 L100.008513,29.132 C100.189847,28.7693315 100.481677,28.4633346 100.884013,28.214 C101.286348,27.9646654 101.753843,27.84 102.286513,27.84 C103.091183,27.84 103.785343,28.1686634 104.369013,28.826 C104.952682,29.4833366 105.244513,30.2709954 105.244513,31.189 L105.244513,35.405 C105.244513,35.5863342 105.15668,35.7308328 104.981013,35.8385 C104.805345,35.9461672 104.592847,36 104.343513,36 C104.116845,36 103.912847,35.9461672 103.731513,35.8385 C103.550179,35.7308328 103.459513,35.5863342 103.459513,35.405 L103.459513,31.189 C103.459513,30.7356644 103.289514,30.3276685 102.949513,29.965 C102.609511,29.6023315 102.207182,29.421 101.742513,29.421 C101.311844,29.421 100.932181,29.5824984 100.603513,29.9055 C100.274844,30.2285016 100.110513,30.6563307 100.110513,31.189 L100.110513,35.405 C100.110513,35.5523341 100.019847,35.6883327 99.8385128,35.813 C99.6571785,35.9376673 99.4475139,36 99.2095128,36 C98.9601782,36 98.7505136,35.9376673 98.5805128,35.813 C98.4105119,35.6883327 98.3255128,35.5523341 98.3255128,35.405 Z M107.907908,33.348 L107.907908,24.831 C107.907908,24.6723325 107.998573,24.5363339 108.179908,24.423 C108.361242,24.3096661 108.56524,24.253 108.791908,24.253 C109.018575,24.253 109.225407,24.3096661 109.412408,24.423 C109.599409,24.5363339 109.692908,24.6723325 109.692908,24.831 L109.692908,27.942 L111.766908,27.942 C111.914242,27.942 112.033241,28.007166 112.123908,28.1375 C112.214575,28.267834 112.259908,28.4236658 112.259908,28.605 C112.259908,28.7863342 112.214575,28.942166 112.123908,29.0725 C112.033241,29.202834 111.914242,29.268 111.766908,29.268 L109.692908,29.268 L109.692908,33.348 C109.692908,33.756002 109.78074,34.0449991 109.956408,34.215 C110.132075,34.3850008 110.440905,34.47 110.882908,34.47 L111.477908,34.47 C111.715909,34.47 111.902907,34.5436659 112.038908,34.691 C112.174908,34.8383341 112.242908,35.0196656 112.242908,35.235 C112.242908,35.4503344 112.174908,35.6316659 112.038908,35.779 C111.902907,35.9263341 111.715909,36 111.477908,36 L110.882908,36 C108.899564,36 107.907908,35.1160088 107.907908,33.348 Z M118.657697,33.348 L118.657697,24.831 C118.657697,24.6723325 118.748363,24.5363339 118.929697,24.423 C119.111032,24.3096661 119.31503,24.253 119.541697,24.253 C119.768365,24.253 119.975197,24.3096661 120.162197,24.423 C120.349198,24.5363339 120.442697,24.6723325 120.442697,24.831 L120.442697,27.942 L122.516697,27.942 C122.664032,27.942 122.78303,28.007166 122.873697,28.1375 C122.964365,28.267834 123.009697,28.4236658 123.009697,28.605 C123.009697,28.7863342 122.964365,28.942166 122.873697,29.0725 C122.78303,29.202834 122.664032,29.268 122.516697,29.268 L120.442697,29.268 L120.442697,33.348 C120.442697,33.756002 120.53053,34.0449991 120.706197,34.215 C120.881865,34.3850008 121.190695,34.47 121.632697,34.47 L122.227697,34.47 C122.465699,34.47 122.652697,34.5436659 122.788697,34.691 C122.924698,34.8383341 122.992697,35.0196656 122.992697,35.235 C122.992697,35.4503344 122.924698,35.6316659 122.788697,35.779 C122.652697,35.9263341 122.465699,36 122.227697,36 L121.632697,36 C119.649354,36 118.657697,35.1160088 118.657697,33.348 Z M124.704092,32.753 L124.704092,31.189 C124.704092,30.2936622 125.049756,29.51167 125.741092,28.843 C126.432429,28.17433 127.259754,27.84 128.223092,27.84 C129.163764,27.84 129.985422,28.1714967 130.688092,28.8345 C131.390763,29.4975033 131.742092,30.2823288 131.742092,31.189 L131.742092,32.753 C131.742092,33.6370044 131.387929,34.4218299 130.679592,35.1075 C129.971255,35.7931701 129.15243,36.136 128.223092,36.136 C127.282421,36.136 126.460763,35.7960034 125.758092,35.116 C125.055422,34.4359966 124.704092,33.6483378 124.704092,32.753 Z M126.489092,32.753 C126.489092,33.217669 126.659091,33.6341648 126.999092,34.0025 C127.339094,34.3708352 127.74709,34.555 128.223092,34.555 C128.687761,34.555 129.092924,34.3708352 129.438592,34.0025 C129.784261,33.6341648 129.957092,33.217669 129.957092,32.753 L129.957092,31.189 C129.957092,30.7356644 129.784261,30.3276685 129.438592,29.965 C129.092924,29.6023315 128.687761,29.421 128.223092,29.421 C127.74709,29.421 127.339094,29.6023315 126.999092,29.965 C126.659091,30.3276685 126.489092,30.7356644 126.489092,31.189 L126.489092,32.753 Z M138.190882,32.753 L138.190882,31.223 C138.190882,30.2143283 138.485546,29.3983364 139.074882,28.775 C139.664218,28.1516635 140.542543,27.84 141.709882,27.84 C142.446553,27.84 143.064213,27.9674987 143.562882,28.2225 C144.061551,28.4775013 144.310882,28.7636651 144.310882,29.081 C144.310882,29.2736676 144.24005,29.4663324 144.098382,29.659 C143.956715,29.8516676 143.78955,29.948 143.596882,29.948 C143.540215,29.948 143.339051,29.8601675 142.993382,29.6845 C142.647714,29.5088325 142.265218,29.421 141.845882,29.421 C140.599209,29.421 139.975882,30.0216607 139.975882,31.223 L139.975882,32.753 C139.975882,33.9543393 140.604876,34.555 141.862882,34.555 C142.293551,34.555 142.681714,34.4615009 143.027382,34.2745 C143.373051,34.0874991 143.579882,33.994 143.647882,33.994 C143.87455,33.994 144.058715,34.0846658 144.200382,34.266 C144.34205,34.4473342 144.412882,34.639999 144.412882,34.844 C144.412882,35.1613349 144.152218,35.4559986 143.630882,35.728 C143.109546,36.0000014 142.474886,36.136 141.726882,36.136 C140.54821,36.136 139.664218,35.8271698 139.074882,35.2095 C138.485546,34.5918302 138.190882,33.7730051 138.190882,32.753 Z M146.175277,32.753 L146.175277,31.189 C146.175277,30.2936622 146.52094,29.51167 147.212277,28.843 C147.903614,28.17433 148.730939,27.84 149.694277,27.84 C150.634948,27.84 151.456607,28.1714967 152.159277,28.8345 C152.861947,29.4975033 153.213277,30.2823288 153.213277,31.189 L153.213277,32.753 C153.213277,33.6370044 152.859114,34.4218299 152.150777,35.1075 C151.44244,35.7931701 150.623615,36.136 149.694277,36.136 C148.753606,36.136 147.931947,35.7960034 147.229277,35.116 C146.526607,34.4359966 146.175277,33.6483378 146.175277,32.753 Z M147.960277,32.753 C147.960277,33.217669 148.130275,33.6341648 148.470277,34.0025 C148.810279,34.3708352 149.218275,34.555 149.694277,34.555 C150.158946,34.555 150.564109,34.3708352 150.909777,34.0025 C151.255445,33.6341648 151.428277,33.217669 151.428277,32.753 L151.428277,31.189 C151.428277,30.7356644 151.255445,30.3276685 150.909777,29.965 C150.564109,29.6023315 150.158946,29.421 149.694277,29.421 C149.218275,29.421 148.810279,29.6023315 148.470277,29.965 C148.130275,30.3276685 147.960277,30.7356644 147.960277,31.189 L147.960277,32.753 Z M155.655672,35.405 L155.655672,28.52 C155.655672,28.3499992 155.737838,28.2111672 155.902172,28.1035 C156.066506,27.9958328 156.279004,27.942 156.539672,27.942 C156.76634,27.942 156.956171,27.9958328 157.109172,28.1035 C157.262173,28.2111672 157.338672,28.3499992 157.338672,28.52 L157.338672,29.132 C157.520006,28.7693315 157.811837,28.4633346 158.214172,28.214 C158.616507,27.9646654 159.084003,27.84 159.616672,27.84 C160.421343,27.84 161.115502,28.1686634 161.699172,28.826 C162.282842,29.4833366 162.574672,30.2709954 162.574672,31.189 L162.574672,35.405 C162.574672,35.5863342 162.486839,35.7308328 162.311172,35.8385 C162.135504,35.9461672 161.923007,36 161.673672,36 C161.447004,36 161.243006,35.9461672 161.061672,35.8385 C160.880338,35.7308328 160.789672,35.5863342 160.789672,35.405 L160.789672,31.189 C160.789672,30.7356644 160.619674,30.3276685 160.279672,29.965 C159.93967,29.6023315 159.537341,29.421 159.072672,29.421 C158.642003,29.421 158.26234,29.5824984 157.933672,29.9055 C157.605004,30.2285016 157.440672,30.6563307 157.440672,31.189 L157.440672,35.405 C157.440672,35.5523341 157.350006,35.6883327 157.168672,35.813 C156.987338,35.9376673 156.777673,36 156.539672,36 C156.290337,36 156.080673,35.9376673 155.910672,35.813 C155.740671,35.6883327 155.655672,35.5523341 155.655672,35.405 Z M165.238067,33.348 L165.238067,24.831 C165.238067,24.6723325 165.328733,24.5363339 165.510067,24.423 C165.691401,24.3096661 165.895399,24.253 166.122067,24.253 C166.348735,24.253 166.555566,24.3096661 166.742567,24.423 C166.929568,24.5363339 167.023067,24.6723325 167.023067,24.831 L167.023067,27.942 L169.097067,27.942 C169.244401,27.942 169.3634,28.007166 169.454067,28.1375 C169.544734,28.267834 169.590067,28.4236658 169.590067,28.605 C169.590067,28.7863342 169.544734,28.942166 169.454067,29.0725 C169.3634,29.202834 169.244401,29.268 169.097067,29.268 L167.023067,29.268 L167.023067,33.348 C167.023067,33.756002 167.110899,34.0449991 167.286567,34.215 C167.462234,34.3850008 167.771065,34.47 168.213067,34.47 L168.808067,34.47 C169.046068,34.47 169.233066,34.5436659 169.369067,34.691 C169.505068,34.8383341 169.573067,35.0196656 169.573067,35.235 C169.573067,35.4503344 169.505068,35.6316659 169.369067,35.779 C169.233066,35.9263341 169.046068,36 168.808067,36 L168.213067,36 C166.229724,36 165.238067,35.1160088 165.238067,33.348 Z M171.573462,24.984 C171.573462,24.723332 171.675461,24.5023342 171.879462,24.321 C172.083463,24.1396658 172.327127,24.049 172.610462,24.049 C172.893797,24.049 173.137461,24.1396658 173.341462,24.321 C173.545463,24.5023342 173.647462,24.723332 173.647462,24.984 C173.647462,25.2333346 173.545463,25.4514991 173.341462,25.6385 C173.137461,25.8255009 172.893797,25.919 172.610462,25.919 C172.327127,25.919 172.083463,25.8255009 171.879462,25.6385 C171.675461,25.4514991 171.573462,25.2333346 171.573462,24.984 Z M171.726462,35.405 L171.726462,28.52 C171.726462,28.3499992 171.808628,28.2111672 171.972962,28.1035 C172.137296,27.9958328 172.349794,27.942 172.610462,27.942 C172.87113,27.942 173.086461,27.9958328 173.256462,28.1035 C173.426463,28.2111672 173.511462,28.3499992 173.511462,28.52 L173.511462,35.405 C173.511462,35.5523341 173.423629,35.6883327 173.247962,35.813 C173.072294,35.9376673 172.859796,36 172.610462,36 C172.361127,36 172.151463,35.9376673 171.981462,35.813 C171.811461,35.6883327 171.726462,35.5523341 171.726462,35.405 Z M176.259857,35.405 L176.259857,28.52 C176.259857,28.3499992 176.342022,28.2111672 176.506357,28.1035 C176.670691,27.9958328 176.883189,27.942 177.143857,27.942 C177.370524,27.942 177.560356,27.9958328 177.713357,28.1035 C177.866357,28.2111672 177.942857,28.3499992 177.942857,28.52 L177.942857,29.132 C178.124191,28.7693315 178.416021,28.4633346 178.818357,28.214 C179.220692,27.9646654 179.688187,27.84 180.220857,27.84 C181.025527,27.84 181.719687,28.1686634 182.303357,28.826 C182.887026,29.4833366 183.178857,30.2709954 183.178857,31.189 L183.178857,35.405 C183.178857,35.5863342 183.091024,35.7308328 182.915357,35.8385 C182.739689,35.9461672 182.527191,36 182.277857,36 C182.051189,36 181.847191,35.9461672 181.665857,35.8385 C181.484522,35.7308328 181.393857,35.5863342 181.393857,35.405 L181.393857,31.189 C181.393857,30.7356644 181.223858,30.3276685 180.883857,29.965 C180.543855,29.6023315 180.141526,29.421 179.676857,29.421 C179.246188,29.421 178.866525,29.5824984 178.537857,29.9055 C178.209188,30.2285016 178.044857,30.6563307 178.044857,31.189 L178.044857,35.405 C178.044857,35.5523341 177.954191,35.6883327 177.772857,35.813 C177.591522,35.9376673 177.381858,36 177.143857,36 C176.894522,36 176.684858,35.9376673 176.514857,35.813 C176.344856,35.6883327 176.259857,35.5523341 176.259857,35.405 Z M185.791252,32.787 L185.791252,28.537 C185.791252,28.3783325 185.881917,28.2395006 186.063252,28.1205 C186.244586,28.0014994 186.45425,27.942 186.692252,27.942 C186.930253,27.942 187.137084,28.0014994 187.312752,28.1205 C187.488419,28.2395006 187.576252,28.3783325 187.576252,28.537 L187.576252,32.787 C187.576252,33.2403356 187.749083,33.6483315 188.094752,34.011 C188.44042,34.3736685 188.845583,34.555 189.310252,34.555 C189.786254,34.555 190.19425,34.3765018 190.534252,34.0195 C190.874253,33.6624982 191.044252,33.251669 191.044252,32.787 L191.044252,28.52 C191.044252,28.3613325 191.132084,28.2253339 191.307752,28.112 C191.483419,27.9986661 191.695917,27.942 191.945252,27.942 C192.194586,27.942 192.401417,27.9986661 192.565752,28.112 C192.730086,28.2253339 192.812252,28.3613325 192.812252,28.52 L192.812252,32.787 C192.812252,33.6823378 192.466588,34.46433 191.775252,35.133 C191.083915,35.80167 190.262256,36.136 189.310252,36.136 C188.358247,36.136 187.533755,35.80167 186.836752,35.133 C186.139748,34.46433 185.791252,33.6823378 185.791252,32.787 Z M195.186646,32.753 L195.186646,31.138 C195.186646,30.2426622 195.53231,29.4691699 196.223646,28.8175 C196.914983,28.1658301 197.747975,27.84 198.722646,27.84 C199.651984,27.84 200.448143,28.137497 201.111146,28.7325 C201.77415,29.327503 202.105646,30.0783288 202.105646,30.985 C202.105646,31.3250017 202.06598,31.5998323 201.986646,31.8095 C201.907313,32.0191677 201.782647,32.1664996 201.612646,32.2515 C201.442646,32.3365004 201.283981,32.3903332 201.136646,32.413 C200.989312,32.4356668 200.796648,32.447 200.558646,32.447 L196.971646,32.447 L196.971646,32.838 C196.971646,33.4046695 197.175644,33.855165 197.583646,34.1895 C197.991648,34.523835 198.52431,34.691 199.181646,34.691 C199.646315,34.691 200.085478,34.5833344 200.499146,34.368 C200.912815,34.1526656 201.164979,34.045 201.255646,34.045 C201.448314,34.045 201.612646,34.1356658 201.748646,34.317 C201.884647,34.4983342 201.952646,34.6739992 201.952646,34.844 C201.952646,35.1273348 201.680649,35.4134986 201.136646,35.7025 C200.592644,35.9915014 199.923984,36.136 199.130646,36.136 C197.974641,36.136 197.028317,35.8243365 196.291646,35.201 C195.554976,34.5776635 195.186646,33.7616717 195.186646,32.753 Z M196.971646,31.342 L199.793646,31.342 C200.042981,31.342 200.210146,31.3080003 200.295146,31.24 C200.380147,31.1719997 200.422646,31.036001 200.422646,30.832 C200.422646,30.3786644 200.258315,29.9933349 199.929646,29.676 C199.600978,29.3586651 199.192982,29.2 198.705646,29.2 C198.229644,29.2 197.821648,29.3501652 197.481646,29.6505 C197.141645,29.9508348 196.971646,30.333331 196.971646,30.798 L196.971646,31.342 Z M204.344041,35.813 C204.151374,35.608999 204.055041,35.3653348 204.055041,35.082 C204.055041,34.7986652 204.151374,34.5578343 204.344041,34.3595 C204.536709,34.1611657 204.780373,34.062 205.075041,34.062 C205.347043,34.062 205.582207,34.1611657 205.780541,34.3595 C205.978876,34.5578343 206.078041,34.7986652 206.078041,35.082 C206.078041,35.3540014 205.978876,35.591999 205.780541,35.796 C205.582207,36.000001 205.347043,36.102 205.075041,36.102 C204.780373,36.102 204.536709,36.0056676 204.344041,35.813 Z" id="Wait.Iwanttocontinue." fill="#FFFFFF"></path>
                </g>
            </g>
        </g>
    </g>
</svg>