<?xml version="1.0" encoding="UTF-8"?>
<svg width="302px" height="62px" viewBox="0 0 302 62" version="1.1" xmlns="http://www.w3.org/2000/svg" xmlns:xlink="http://www.w3.org/1999/xlink">
    <!-- Generator: Sketch 53.2 (72643) - https://sketchapp.com -->
    <title>button_game_mode</title>
    <desc>Created with Sketch.</desc>
    <g id="[Screens]" stroke="none" stroke-width="1" fill="none" fill-rule="evenodd">
        <g id="landing-(dark)" transform="translate(-329.000000, -715.000000)" fill-rule="nonzero">
            <g id="title_landing" transform="translate(216.000000, 12.000000)">
                <g id="buttons" transform="translate(96.000000, 704.000000)">
                    <g id="button_game_mode" transform="translate(18.000000, 0.000000)">
                        <rect id="button" stroke="#E3E5D8" stroke-width="1.5640689" stroke-linecap="round" stroke-linejoin="round" x="0" y="0" width="300" height="60" rx="1.5640689"></rect>
                        <path d="M85.801,34.424 L85.801,27.604 C85.801,25.9906586 86.2153292,24.8063371 87.044,24.051 C87.8726708,23.2956629 88.9763264,22.918 90.355,22.918 C91.7483403,22.918 92.8629958,23.2736631 93.699,23.985 C94.5350042,24.6963369 94.953,25.6093278 94.953,26.724 C94.953,27.2226692 94.7110024,27.472 94.227,27.472 C93.7576643,27.472 93.5156667,27.2886685 93.501,26.922 C93.2956656,25.1473245 92.2543427,24.26 90.377,24.26 C88.2943229,24.26 87.253,25.3746555 87.253,27.604 L87.253,34.424 C87.253,35.553339 87.5243306,36.3966639 88.067,36.954 C88.6096694,37.5113361 89.3796617,37.79 90.377,37.79 C91.3743383,37.79 92.1443306,37.5113361 92.687,36.954 C93.2296694,36.3966639 93.501,35.553339 93.501,34.424 L93.501,31.806 L90.553,31.806 C90.3916659,31.806 90.2633338,31.7436673 90.168,31.619 C90.0726662,31.4943327 90.025,31.3440009 90.025,31.168 C90.025,31.0066659 90.0726662,30.8636673 90.168,30.739 C90.2633338,30.6143327 90.3916659,30.552 90.553,30.552 L94.425,30.552 C94.7770018,30.552 94.953,30.7426648 94.953,31.124 L94.953,34.424 C94.953,36.0520081 94.5386708,37.2436629 93.71,37.999 C92.8813292,38.7543371 91.7703403,39.132 90.377,39.132 C88.9836597,39.132 87.8726708,38.7543371 87.044,37.999 C86.2153292,37.2436629 85.801,36.0520081 85.801,34.424 Z M99.669,38.384 C99.669,38.3106663 99.6763333,38.2593335 99.691,38.23 L104.289,23.292 C104.391667,22.954665 104.677664,22.786 105.147,22.786 C105.616336,22.786 105.909666,22.954665 106.027,23.292 L110.603,38.23 C110.603,38.2446667 110.606667,38.2666665 110.614,38.296 C110.621333,38.3253335 110.625,38.3473333 110.625,38.362 C110.625,38.5380009 110.529668,38.6883327 110.339,38.813 C110.148332,38.9376673 109.950334,39 109.745,39 C109.466332,39 109.283,38.8753346 109.195,38.626 L108.183,35.238 L102.089,35.238 L101.077,38.626 C101.018333,38.8753346 100.827668,39 100.505,39 C100.299666,39 100.109001,38.9413339 99.933,38.824 C99.7569991,38.7066661 99.669,38.5600009 99.669,38.384 Z M102.463,33.984 L107.809,33.984 L105.147,25.118 L102.463,33.984 Z M115.759,38.428 L115.759,23.622 C115.759,23.1526643 116.000998,22.918 116.485,22.918 C116.910335,22.918 117.298998,23.25533 117.651,23.93 L121.435,31.234 L125.219,23.93 C125.571002,23.25533 125.959665,22.918 126.385,22.918 C126.869002,22.918 127.111,23.1526643 127.111,23.622 L127.111,38.428 C127.111,38.6040009 127.041334,38.7433328 126.902,38.846 C126.762666,38.9486672 126.590334,39 126.385,39 C126.194332,39 126.025667,38.9486672 125.879,38.846 C125.732333,38.7433328 125.659,38.6040009 125.659,38.428 L125.659,26.064 L122.007,32.972 C121.845666,33.2800015 121.647668,33.434 121.413,33.434 C121.192999,33.434 121.002334,33.2800015 120.841,32.972 L117.211,25.998 L117.211,38.428 C117.211,38.6040009 117.137667,38.7433328 116.991,38.846 C116.844333,38.9486672 116.675668,39 116.485,39 C116.279666,39 116.107334,38.9486672 115.968,38.846 C115.828666,38.7433328 115.759,38.6040009 115.759,38.428 Z M133.455,38.428 L133.455,23.468 C133.455,23.2919991 133.520999,23.1563338 133.653,23.061 C133.785001,22.9656662 133.938999,22.918 134.115,22.918 L141.947,22.918 C142.313669,22.918 142.497,23.1306645 142.497,23.556 C142.497,23.7466676 142.449334,23.911666 142.354,24.051 C142.258666,24.190334 142.123001,24.26 141.947,24.26 L134.907,24.26 L134.907,30.31 L138.361,30.31 C138.537001,30.31 138.672666,30.3723327 138.768,30.497 C138.863334,30.6216673 138.911,30.7793324 138.911,30.97 C138.911,31.366002 138.727669,31.564 138.361,31.564 L134.907,31.564 L134.907,37.658 L141.947,37.658 C142.108334,37.658 142.240333,37.7239993 142.343,37.856 C142.445667,37.9880007 142.497,38.1493324 142.497,38.34 C142.497,38.7800022 142.313669,39 141.947,39 L134.115,39 C133.938999,39 133.785001,38.9486672 133.653,38.846 C133.520999,38.7433328 133.455,38.6040009 133.455,38.428 Z M155.031,38.428 L155.031,23.622 C155.031,23.1526643 155.272998,22.918 155.757,22.918 C156.182335,22.918 156.570998,23.25533 156.923,23.93 L160.707,31.234 L164.491,23.93 C164.843002,23.25533 165.231665,22.918 165.657,22.918 C166.141002,22.918 166.383,23.1526643 166.383,23.622 L166.383,38.428 C166.383,38.6040009 166.313334,38.7433328 166.174,38.846 C166.034666,38.9486672 165.862334,39 165.657,39 C165.466332,39 165.297667,38.9486672 165.151,38.846 C165.004333,38.7433328 164.931,38.6040009 164.931,38.428 L164.931,26.064 L161.279,32.972 C161.117666,33.2800015 160.919668,33.434 160.685,33.434 C160.464999,33.434 160.274334,33.2800015 160.113,32.972 L156.483,25.998 L156.483,38.428 C156.483,38.6040009 156.409667,38.7433328 156.263,38.846 C156.116333,38.9486672 155.947668,39 155.757,39 C155.551666,39 155.379334,38.9486672 155.24,38.846 C155.100666,38.7433328 155.031,38.6040009 155.031,38.428 Z M172.551,34.424 L172.551,27.604 C172.551,25.9906586 172.965329,24.8063371 173.794,24.051 C174.622671,23.2956629 175.73366,22.918 177.127,22.918 C178.52034,22.918 179.631329,23.2956629 180.46,24.051 C181.288671,24.8063371 181.703,25.9906586 181.703,27.604 L181.703,34.424 C181.703,36.0520081 181.288671,37.2436629 180.46,37.999 C179.631329,38.7543371 178.52034,39.132 177.127,39.132 C175.73366,39.132 174.622671,38.7543371 173.794,37.999 C172.965329,37.2436629 172.551,36.0520081 172.551,34.424 Z M174.003,34.424 C174.003,36.6680112 175.044323,37.79 177.127,37.79 C179.209677,37.79 180.251,36.6680112 180.251,34.424 L180.251,27.604 C180.251,25.3746555 179.209677,24.26 177.127,24.26 C175.044323,24.26 174.003,25.3746555 174.003,27.604 L174.003,34.424 Z M187.871,38.45 L187.871,23.446 C187.871,23.2993326 187.933333,23.1746672 188.058,23.072 C188.182667,22.9693328 188.340332,22.918 188.531,22.918 L192.425,22.918 C193.81834,22.918 194.932996,23.2956629 195.769,24.051 C196.605004,24.8063371 197.023,25.9906586 197.023,27.604 L197.023,34.292 C197.023,35.9200081 196.605004,37.1116629 195.769,37.867 C194.932996,38.6223371 193.81834,39 192.425,39 L188.531,39 C188.340332,39 188.182667,38.9450006 188.058,38.835 C187.933333,38.7249995 187.871,38.5966674 187.871,38.45 Z M189.323,37.658 L192.425,37.658 C193.422338,37.658 194.195997,37.3756695 194.746,36.811 C195.296003,36.2463305 195.571,35.4066722 195.571,34.292 L195.571,27.604 C195.571,26.4893278 195.296003,25.6533361 194.746,25.096 C194.195997,24.5386639 193.422338,24.26 192.425,24.26 L189.323,24.26 L189.323,37.658 Z M203.191,38.428 L203.191,23.468 C203.191,23.2919991 203.256999,23.1563338 203.389,23.061 C203.521001,22.9656662 203.674999,22.918 203.851,22.918 L211.683,22.918 C212.049669,22.918 212.233,23.1306645 212.233,23.556 C212.233,23.7466676 212.185334,23.911666 212.09,24.051 C211.994666,24.190334 211.859001,24.26 211.683,24.26 L204.643,24.26 L204.643,30.31 L208.097,30.31 C208.273001,30.31 208.408666,30.3723327 208.504,30.497 C208.599334,30.6216673 208.647,30.7793324 208.647,30.97 C208.647,31.366002 208.463669,31.564 208.097,31.564 L204.643,31.564 L204.643,37.658 L211.683,37.658 C211.844334,37.658 211.976333,37.7239993 212.079,37.856 C212.181667,37.9880007 212.233,38.1493324 212.233,38.34 C212.233,38.7800022 212.049669,39 211.683,39 L203.851,39 C203.674999,39 203.521001,38.9486672 203.389,38.846 C203.256999,38.7433328 203.191,38.6040009 203.191,38.428 Z" id="GAMEMODE" fill="#E3E5D8"></path>
                        <rect id="hover_button" fill-opacity="0.15" fill="#FFFFFF" x="0" y="0" width="300" height="60" rx="1.5640689"></rect>
                    </g>
                </g>
            </g>
        </g>
    </g>
</svg>