<?xml version="1.0" encoding="UTF-8"?>
<svg width="166px" height="128px" viewBox="0 0 166 128" version="1.1" xmlns="http://www.w3.org/2000/svg" xmlns:xlink="http://www.w3.org/1999/xlink">
    <!-- Generator: Sketch 58 (84663) - https://sketch.com -->
    <title>ambient mode</title>
    <desc>Created with Sketch.</desc>
    <g id="Redesign" stroke="none" stroke-width="1" fill="none" fill-rule="evenodd">
        <g id="landing-(dark)" transform="translate(-790.000000, -754.000000)" fill-rule="nonzero">
            <g id="title_landing" transform="translate(221.500000, 12.000000)">
                <g id="buttons" transform="translate(245.500000, 740.799999)">
                    <g id="ambient-mode" transform="translate(322.700008, 0.541395)">
                        <rect id="button-bg" fill="#202020" x="0.299991727" y="0.658606319" width="166" height="128"></rect>
                        <path d="M6.87400136,123.156606 L6.87400136,113.622606 C6.87400136,113.398605 7.02799982,113.286606 7.33600136,113.286606 C7.6440029,113.286606 7.79800136,113.398605 7.79800136,113.622606 L7.79800136,122.666606 L11.7880014,122.666606 C11.9933357,122.666606 12.0960014,122.806605 12.0960014,123.086606 C12.0960014,123.375941 11.9933357,123.520606 11.7880014,123.520606 L7.29400136,123.520606 C7.1820008,123.520606 7.08400178,123.48794 7.00000136,123.422606 C6.91600094,123.357273 6.87400136,123.268607 6.87400136,123.156606 Z M13.4120014,120.958606 L13.4120014,119.390606 C13.4120014,118.690603 13.6733321,118.086276 14.1960014,117.577606 C14.7186707,117.068937 15.3486644,116.814606 16.0860014,116.814606 C16.7953383,116.814606 17.4089988,117.057271 17.9270014,117.542606 C18.445004,118.027942 18.7040014,118.634603 18.7040014,119.362606 C18.7040014,119.623941 18.6736684,119.833939 18.6130014,119.992606 C18.5523344,120.151274 18.4543354,120.263273 18.3190014,120.328606 C18.1836674,120.39394 18.060002,120.43594 17.9480014,120.454606 C17.8360008,120.473273 17.6820024,120.482606 17.4860014,120.482606 L14.3220014,120.482606 L14.3220014,121.000606 C14.3220014,121.551276 14.5203327,121.992271 14.9170014,122.323606 C15.31367,122.654941 15.8246649,122.820606 16.4500014,122.820606 C16.7673363,122.820606 17.0450002,122.77394 17.2830014,122.680606 C17.4734023,122.605939 17.6279614,122.531273 17.7466813,122.456606 L17.8290014,122.400606 C17.955002,122.307273 18.0553344,122.260606 18.1300014,122.260606 C18.2326686,122.260606 18.3236677,122.309606 18.4030014,122.407606 C18.4823351,122.505607 18.5220014,122.601273 18.5220014,122.694606 C18.5220014,122.890607 18.3213367,123.093605 17.9200014,123.303606 C17.5186661,123.513607 17.0193377,123.618606 16.4220014,123.618606 C15.5353303,123.618606 14.8120042,123.373609 14.2520014,122.883606 C13.6919986,122.393604 13.4120014,121.751944 13.4120014,120.958606 Z M14.3220014,119.810606 L17.1220014,119.810606 C17.4020028,119.810606 17.5886676,119.780273 17.6820014,119.719606 C17.7753352,119.658939 17.8220014,119.530607 17.8220014,119.334606 C17.8220014,118.867937 17.6563364,118.457275 17.3250014,118.102606 C16.9936664,117.747938 16.5760039,117.570606 16.0720014,117.570606 C15.5866656,117.570606 15.1736698,117.738605 14.8330014,118.074606 C14.492333,118.410608 14.3220014,118.811937 14.3220014,119.278606 L14.3220014,119.810606 Z M20.7480014,121.462606 L20.7480014,114.084606 C20.7480014,113.991273 20.7946676,113.91194 20.8880014,113.846606 C20.9813352,113.781273 21.0840009,113.748606 21.1960014,113.748606 C21.3173354,113.748606 21.4246676,113.781273 21.5180014,113.846606 C21.6113352,113.91194 21.6580014,113.991273 21.6580014,114.084606 L21.6580014,116.898606 L23.4640014,116.898606 C23.5573352,116.898606 23.6343345,116.935939 23.6950014,117.010606 C23.7556684,117.085273 23.7860014,117.173939 23.7860014,117.276606 C23.7860014,117.379273 23.7556684,117.467939 23.6950014,117.542606 C23.6343345,117.617273 23.5573352,117.654606 23.4640014,117.654606 L21.6580014,117.654606 L21.6580014,121.462606 C21.6580014,121.919942 21.7536671,122.239605 21.9450014,122.421606 C22.1363357,122.603607 22.4746657,122.694606 22.9600014,122.694606 L23.3520014,122.694606 C23.4733354,122.694606 23.5736677,122.734273 23.6530014,122.813606 C23.7323352,122.89294 23.7720014,122.988606 23.7720014,123.100606 C23.7720014,123.212607 23.7323352,123.310606 23.6530014,123.394606 C23.5736677,123.478607 23.4733354,123.520606 23.3520014,123.520606 L22.9600014,123.520606 C21.4853274,123.520606 20.7480014,122.834613 20.7480014,121.462606 Z M29.1340015,123.156606 L29.1340015,117.234606 C29.1340015,117.131939 29.1760011,117.050273 29.2600015,116.989606 C29.3440019,116.928939 29.4513342,116.898606 29.5820015,116.898606 C29.694002,116.898606 29.7920011,116.931273 29.8760015,116.996606 C29.9600019,117.06194 30.0020015,117.141273 30.0020015,117.234606 L30.0020015,117.878606 C30.1606689,117.579938 30.4033332,117.327941 30.7300015,117.122606 C31.0566698,116.917272 31.4393326,116.814606 31.8780015,116.814606 C32.5500048,116.814606 33.1333323,117.07127 33.6280015,117.584606 C34.1226706,118.097942 34.3700015,118.713936 34.3700015,119.432606 L34.3700015,123.156606 C34.3700015,123.268607 34.3233353,123.357273 34.2300015,123.422606 C34.1366677,123.48794 34.0293354,123.520606 33.9080015,123.520606 C33.7960009,123.520606 33.6933353,123.48794 33.6000015,123.422606 C33.5066677,123.357273 33.4600015,123.268607 33.4600015,123.156606 L33.4600015,119.432606 C33.4600015,118.975271 33.2873365,118.564608 32.9420015,118.200606 C32.5966664,117.836604 32.1860039,117.654606 31.7100015,117.654606 C31.2713326,117.654606 30.8840032,117.817938 30.5480015,118.144606 C30.2119998,118.471275 30.0440015,118.900604 30.0440015,119.432606 L30.0440015,123.156606 C30.0440015,123.24994 29.9973353,123.333939 29.9040015,123.408606 C29.8106677,123.483273 29.7033354,123.520606 29.5820015,123.520606 C29.4513342,123.520606 29.3440019,123.483273 29.2600015,123.408606 C29.1760011,123.333939 29.1340015,123.24994 29.1340015,123.156606 Z M36.3160015,121.770606 C36.3160015,121.051936 36.5936654,120.552608 37.1490015,120.272606 C37.7043376,119.992605 38.5139962,119.852606 39.5780015,119.852606 L40.2920015,119.852606 L40.2920015,119.516606 C40.2920015,119.00327 40.1566695,118.557608 39.8860015,118.179606 C39.6153335,117.801604 39.2000043,117.612606 38.6400015,117.612606 C38.2666663,117.612606 37.9283364,117.680272 37.6250015,117.815606 L37.223048,117.99006 C37.176017,118.009091 37.1490015,118.018606 37.1420015,118.018606 C37.0300009,118.018606 36.9413352,117.967273 36.8760015,117.864606 C36.8106678,117.761939 36.7780015,117.64994 36.7780015,117.528606 C36.7780015,117.351272 36.9786662,117.18794 37.3800015,117.038606 C37.7813368,116.889272 38.2106659,116.814606 38.6680015,116.814606 C39.5453392,116.814606 40.1869995,117.068937 40.5930015,117.577606 C40.9990035,118.086276 41.2020015,118.732602 41.2020015,119.516606 L41.2020015,123.156606 C41.2020015,123.259273 41.1600019,123.345606 41.0760015,123.415606 C40.9920011,123.485607 40.8846688,123.520606 40.7540015,123.520606 C40.6326676,123.520606 40.5323352,123.485607 40.4530015,123.415606 C40.3736678,123.345606 40.3340015,123.259273 40.3340015,123.156606 L40.3340015,122.540606 C39.708665,123.259277 39.0040054,123.618606 38.2200015,123.618606 C37.6599987,123.618606 37.2026699,123.462275 36.8480015,123.149606 C36.4933331,122.836938 36.3160015,122.377276 36.3160015,121.770606 Z M37.2260015,121.686606 C37.2260015,122.078608 37.3380004,122.370272 37.5620015,122.561606 C37.7860026,122.752941 38.0799997,122.848606 38.4440015,122.848606 C38.8826704,122.848606 39.3003329,122.685275 39.6970015,122.358606 C40.0936702,122.031938 40.2920015,121.705275 40.2920015,121.378606 L40.2920015,120.482606 L39.7040015,120.482606 C39.3306663,120.482606 39.0156695,120.496606 38.7590015,120.524606 C38.5023336,120.552606 38.2480028,120.603939 37.9960015,120.678606 C37.7440002,120.753273 37.5526688,120.874605 37.4220015,121.042606 C37.2913342,121.210607 37.2260015,121.425272 37.2260015,121.686606 Z M43.5820015,121.462606 L43.5820015,114.084606 C43.5820015,113.991273 43.6286677,113.91194 43.7220015,113.846606 C43.8153353,113.781273 43.918001,113.748606 44.0300015,113.748606 C44.1513355,113.748606 44.2586677,113.781273 44.3520015,113.846606 C44.4453353,113.91194 44.4920015,113.991273 44.4920015,114.084606 L44.4920015,116.898606 L46.2980015,116.898606 C46.3913353,116.898606 46.4683346,116.935939 46.5290015,117.010606 C46.5896685,117.085273 46.6200015,117.173939 46.6200015,117.276606 C46.6200015,117.379273 46.5896685,117.467939 46.5290015,117.542606 C46.4683346,117.617273 46.3913353,117.654606 46.2980015,117.654606 L44.4920015,117.654606 L44.4920015,121.462606 C44.4920015,121.919942 44.5876672,122.239605 44.7790015,122.421606 C44.9703358,122.603607 45.3086658,122.694606 45.7940015,122.694606 L46.1860015,122.694606 C46.3073355,122.694606 46.4076678,122.734273 46.4870015,122.813606 C46.5663353,122.89294 46.6060015,122.988606 46.6060015,123.100606 C46.6060015,123.212607 46.5663353,123.310606 46.4870015,123.394606 C46.4076678,123.478607 46.3073355,123.520606 46.1860015,123.520606 L45.7940015,123.520606 C44.3193275,123.520606 43.5820015,122.834613 43.5820015,121.462606 Z M48.3980016,120.986606 L48.3980016,117.248606 C48.3980016,117.164606 48.4423344,117.085273 48.5310016,117.010606 C48.6196687,116.935939 48.7293342,116.898606 48.8600016,116.898606 C48.9720021,116.898606 49.0746678,116.935939 49.1680016,117.010606 C49.2613354,117.085273 49.3080016,117.164606 49.3080016,117.248606 L49.3080016,120.986606 C49.3080016,121.453275 49.4806665,121.868604 49.8260016,122.232606 C50.1713366,122.596608 50.5819992,122.778606 51.0580016,122.778606 C51.5340039,122.778606 51.9446665,122.596608 52.2900016,122.232606 C52.6353366,121.868604 52.8080016,121.453275 52.8080016,120.986606 L52.8080016,117.234606 C52.8080016,117.141273 52.8546678,117.06194 52.9480016,116.996606 C53.0413354,116.931273 53.1486676,116.898606 53.2700016,116.898606 C53.3913355,116.898606 53.4963344,116.931273 53.5850016,116.996606 C53.6736687,117.06194 53.7180016,117.141273 53.7180016,117.234606 L53.7180016,120.986606 C53.7180016,121.68661 53.4543375,122.30027 52.9270016,122.827606 C52.3996656,123.354942 51.7766718,123.618606 51.0580016,123.618606 C50.3299979,123.618606 49.7046708,123.354942 49.1820016,122.827606 C48.6593323,122.30027 48.3980016,121.68661 48.3980016,120.986606 Z M56.1120016,123.156606 L56.1120016,117.234606 C56.1120016,117.141273 56.1540012,117.06194 56.2380016,116.996606 C56.322002,116.931273 56.4293343,116.898606 56.5600016,116.898606 C56.6813355,116.898606 56.7840012,116.931273 56.8680016,116.996606 C56.952002,117.06194 56.9940016,117.141273 56.9940016,117.234606 L56.9940016,117.920606 C57.1620024,117.612605 57.4093333,117.351274 57.7360016,117.136606 C58.0626699,116.921939 58.4406661,116.814606 58.8700016,116.814606 L59.3600016,116.814606 C59.4533354,116.814606 59.5373345,116.856606 59.6120016,116.940606 C59.6866686,117.024607 59.7240016,117.122606 59.7240016,117.234606 C59.7240016,117.346607 59.6866686,117.444606 59.6120016,117.528606 C59.5373345,117.612607 59.4533354,117.654606 59.3600016,117.654606 L58.8700016,117.654606 C58.3846658,117.654606 57.9553368,117.843604 57.5820016,118.221606 C57.2086664,118.599608 57.0220016,119.091937 57.0220016,119.698606 L57.0220016,123.156606 C57.0220016,123.24994 56.9776687,123.333939 56.8890016,123.408606 C56.8003345,123.483273 56.6906689,123.520606 56.5600016,123.520606 C56.4386676,123.520606 56.3336687,123.483273 56.2450016,123.408606 C56.1563345,123.333939 56.1120016,123.24994 56.1120016,123.156606 Z M60.9420016,120.958606 L60.9420016,119.390606 C60.9420016,118.690603 61.2033323,118.086276 61.7260016,117.577606 C62.2486709,117.068937 62.8786646,116.814606 63.6160016,116.814606 C64.3253385,116.814606 64.938999,117.057271 65.4570016,117.542606 C65.9750042,118.027942 66.2340016,118.634603 66.2340016,119.362606 C66.2340016,119.623941 66.2036686,119.833939 66.1430016,119.992606 C66.0823346,120.151274 65.9843356,120.263273 65.8490016,120.328606 C65.7136676,120.39394 65.5900022,120.43594 65.4780016,120.454606 C65.3660011,120.473273 65.2120026,120.482606 65.0160016,120.482606 L61.8520016,120.482606 L61.8520016,121.000606 C61.8520016,121.551276 62.050333,121.992271 62.4470016,122.323606 C62.8436703,122.654941 63.3546652,122.820606 63.9800016,122.820606 C64.2973365,122.820606 64.5750004,122.77394 64.8130016,122.680606 C65.0034026,122.605939 65.1579616,122.531273 65.2766815,122.456606 L65.3590016,122.400606 C65.4850022,122.307273 65.5853346,122.260606 65.6600016,122.260606 C65.7626688,122.260606 65.8536679,122.309606 65.9330016,122.407606 C66.0123353,122.505607 66.0520016,122.601273 66.0520016,122.694606 C66.0520016,122.890607 65.851337,123.093605 65.4500016,123.303606 C65.0486663,123.513607 64.5493379,123.618606 63.9520016,123.618606 C63.0653305,123.618606 62.3420044,123.373609 61.7820016,122.883606 C61.2219988,122.393604 60.9420016,121.751944 60.9420016,120.958606 Z M61.8520016,119.810606 L64.6520016,119.810606 C64.932003,119.810606 65.1186678,119.780273 65.2120016,119.719606 C65.3053354,119.658939 65.3520016,119.530607 65.3520016,119.334606 C65.3520016,118.867937 65.1863366,118.457275 64.8550016,118.102606 C64.5236666,117.747938 64.1060041,117.570606 63.6020016,117.570606 C63.1166659,117.570606 62.70367,117.738605 62.3630016,118.074606 C62.0223332,118.410608 61.8520016,118.811937 61.8520016,119.278606 L61.8520016,119.810606 Z M71.7780017,121.462606 L71.7780017,114.084606 C71.7780017,113.991273 71.8246679,113.91194 71.9180017,113.846606 C72.0113355,113.781273 72.1140011,113.748606 72.2260017,113.748606 C72.3473356,113.748606 72.4546679,113.781273 72.5480017,113.846606 C72.6413355,113.91194 72.6880017,113.991273 72.6880017,114.084606 L72.6880017,116.898606 L74.4940017,116.898606 C74.5873355,116.898606 74.6643347,116.935939 74.7250017,117.010606 C74.7856686,117.085273 74.8160017,117.173939 74.8160017,117.276606 C74.8160017,117.379273 74.7856686,117.467939 74.7250017,117.542606 C74.6643347,117.617273 74.5873355,117.654606 74.4940017,117.654606 L72.6880017,117.654606 L72.6880017,121.462606 C72.6880017,121.919942 72.7836674,122.239605 72.9750017,122.421606 C73.166336,122.603607 73.5046659,122.694606 73.9900017,122.694606 L74.3820017,122.694606 C74.5033356,122.694606 74.6036679,122.734273 74.6830017,122.813606 C74.7623354,122.89294 74.8020017,122.988606 74.8020017,123.100606 C74.8020017,123.212607 74.7623354,123.310606 74.6830017,123.394606 C74.6036679,123.478607 74.5033356,123.520606 74.3820017,123.520606 L73.9900017,123.520606 C72.5153276,123.520606 71.7780017,122.834613 71.7780017,121.462606 Z M76.2020017,121.770606 C76.2020017,121.051936 76.4796656,120.552608 77.0350017,120.272606 C77.5903378,119.992605 78.3999964,119.852606 79.4640017,119.852606 L80.1780017,119.852606 L80.1780017,119.516606 C80.1780017,119.00327 80.0426697,118.557608 79.7720017,118.179606 C79.5013337,117.801604 79.0860045,117.612606 78.5260017,117.612606 C78.1526665,117.612606 77.8143365,117.680272 77.5110017,117.815606 L77.1090482,117.99006 C77.0620172,118.009091 77.0350017,118.018606 77.0280017,118.018606 C76.9160011,118.018606 76.8273354,117.967273 76.7620017,117.864606 C76.696668,117.761939 76.6640017,117.64994 76.6640017,117.528606 C76.6640017,117.351272 76.8646664,117.18794 77.2660017,117.038606 C77.667337,116.889272 78.0966661,116.814606 78.5540017,116.814606 C79.4313394,116.814606 80.0729997,117.068937 80.4790017,117.577606 C80.8850037,118.086276 81.0880017,118.732602 81.0880017,119.516606 L81.0880017,123.156606 C81.0880017,123.259273 81.0460021,123.345606 80.9620017,123.415606 C80.8780013,123.485607 80.770669,123.520606 80.6400017,123.520606 C80.5186678,123.520606 80.4183354,123.485607 80.3390017,123.415606 C80.259668,123.345606 80.2200017,123.259273 80.2200017,123.156606 L80.2200017,122.540606 C79.5946652,123.259277 78.8900056,123.618606 78.1060017,123.618606 C77.5459989,123.618606 77.0886701,123.462275 76.7340017,123.149606 C76.3793333,122.836938 76.2020017,122.377276 76.2020017,121.770606 Z M77.1120017,121.686606 C77.1120017,122.078608 77.2240006,122.370272 77.4480017,122.561606 C77.6720028,122.752941 77.9659999,122.848606 78.3300017,122.848606 C78.7686706,122.848606 79.186333,122.685275 79.5830017,122.358606 C79.9796703,122.031938 80.1780017,121.705275 80.1780017,121.378606 L80.1780017,120.482606 L79.5900017,120.482606 C79.2166665,120.482606 78.9016696,120.496606 78.6450017,120.524606 C78.3883337,120.552606 78.134003,120.603939 77.8820017,120.678606 C77.6300004,120.753273 77.438669,120.874605 77.3080017,121.042606 C77.1773344,121.210607 77.1120017,121.425272 77.1120017,121.686606 Z M83.4960017,123.156606 L83.4960017,113.174606 C83.4960017,113.081273 83.5380013,113.00194 83.6220017,112.936606 C83.7060021,112.871273 83.8133344,112.838606 83.9440017,112.838606 C84.074669,112.838606 84.1843346,112.871273 84.2730017,112.936606 C84.3616688,113.00194 84.4060017,113.081273 84.4060017,113.174606 L84.4060017,119.992606 L87.8220017,116.954606 C87.9153355,116.898606 87.9853348,116.870606 88.0320017,116.870606 C88.1440023,116.870606 88.2490012,116.914939 88.3470017,117.003606 C88.4450022,117.092273 88.4940017,117.192606 88.4940017,117.304606 C88.4940017,117.416607 88.4613354,117.500606 88.3960017,117.556606 L86.3380017,119.362606 L88.7600017,122.904606 C88.7973352,122.979273 88.8160017,123.044606 88.8160017,123.100606 C88.8160017,123.203273 88.7646689,123.305939 88.6620017,123.408606 C88.5593345,123.511273 88.4473357,123.562606 88.3260017,123.562606 C88.2140012,123.562606 88.1206688,123.506607 88.0460017,123.394606 L85.6940017,119.936606 L84.4060017,121.070606 L84.4060017,123.156606 C84.4060017,123.24994 84.3616688,123.333939 84.2730017,123.408606 C84.1843346,123.483273 84.074669,123.520606 83.9440017,123.520606 C83.8226678,123.520606 83.7176688,123.483273 83.6290017,123.408606 C83.5403346,123.333939 83.4960017,123.24994 83.4960017,123.156606 Z M90.1320018,120.958606 L90.1320018,119.390606 C90.1320018,118.690603 90.3933325,118.086276 90.9160018,117.577606 C91.438671,117.068937 92.0686647,116.814606 92.8060018,116.814606 C93.5153386,116.814606 94.1289992,117.057271 94.6470018,117.542606 C95.1650043,118.027942 95.4240018,118.634603 95.4240018,119.362606 C95.4240018,119.623941 95.3936687,119.833939 95.3330018,119.992606 C95.2723348,120.151274 95.1743358,120.263273 95.0390018,120.328606 C94.9036677,120.39394 94.7800023,120.43594 94.6680018,120.454606 C94.5560012,120.473273 94.4020027,120.482606 94.2060018,120.482606 L91.0420018,120.482606 L91.0420018,121.000606 C91.0420018,121.551276 91.2403331,121.992271 91.6370018,122.323606 C92.0336704,122.654941 92.5446653,122.820606 93.1700018,122.820606 C93.4873367,122.820606 93.7650006,122.77394 94.0030018,122.680606 C94.1934027,122.605939 94.3479617,122.531273 94.4666816,122.456606 L94.5490018,122.400606 C94.6750024,122.307273 94.7753347,122.260606 94.8500018,122.260606 C94.9526689,122.260606 95.043668,122.309606 95.1230018,122.407606 C95.2023355,122.505607 95.2420018,122.601273 95.2420018,122.694606 C95.2420018,122.890607 95.0413371,123.093605 94.6400018,123.303606 C94.2386664,123.513607 93.7393381,123.618606 93.1420018,123.618606 C92.2553307,123.618606 91.5320046,123.373609 90.9720018,122.883606 C90.411999,122.393604 90.1320018,121.751944 90.1320018,120.958606 Z M91.0420018,119.810606 L93.8420018,119.810606 C94.1220032,119.810606 94.308668,119.780273 94.4020018,119.719606 C94.4953356,119.658939 94.5420018,119.530607 94.5420018,119.334606 C94.5420018,118.867937 94.3763367,118.457275 94.0450018,118.102606 C93.7136668,117.747938 93.2960043,117.570606 92.7920018,117.570606 C92.306666,117.570606 91.8936701,117.738605 91.5530018,118.074606 C91.2123334,118.410608 91.0420018,118.811937 91.0420018,119.278606 L91.0420018,119.810606 Z M100.996002,114.770606 C100.874668,114.649272 100.814002,114.509274 100.814002,114.350606 C100.814002,114.191939 100.874668,114.056607 100.996002,113.944606 C101.117336,113.832606 101.266668,113.776606 101.444002,113.776606 C101.612003,113.776606 101.754335,113.832606 101.871002,113.944606 C101.987669,114.056607 102.046002,114.191939 102.046002,114.350606 C102.046002,114.509274 101.987669,114.646939 101.871002,114.763606 C101.754335,114.880274 101.612003,114.938606 101.444002,114.938606 C101.266668,114.938606 101.117336,114.882607 100.996002,114.770606 Z M100.996002,123.156606 L100.996002,117.234606 C100.996002,117.141273 101.038001,117.06194 101.122002,116.996606 C101.206002,116.931273 101.313334,116.898606 101.444002,116.898606 C101.574669,116.898606 101.684335,116.931273 101.773002,116.996606 C101.861669,117.06194 101.906002,117.141273 101.906002,117.234606 L101.906002,123.156606 C101.906002,123.24994 101.859336,123.333939 101.766002,123.408606 C101.672668,123.483273 101.565336,123.520606 101.444002,123.520606 C101.322668,123.520606 101.217669,123.483273 101.129002,123.408606 C101.040335,123.333939 100.996002,123.24994 100.996002,123.156606 Z M104.342002,121.462606 L104.342002,114.084606 C104.342002,113.991273 104.388668,113.91194 104.482002,113.846606 C104.575336,113.781273 104.678001,113.748606 104.790002,113.748606 C104.911336,113.748606 105.018668,113.781273 105.112002,113.846606 C105.205336,113.91194 105.252002,113.991273 105.252002,114.084606 L105.252002,116.898606 L107.058002,116.898606 C107.151336,116.898606 107.228335,116.935939 107.289002,117.010606 C107.349669,117.085273 107.380002,117.173939 107.380002,117.276606 C107.380002,117.379273 107.349669,117.467939 107.289002,117.542606 C107.228335,117.617273 107.151336,117.654606 107.058002,117.654606 L105.252002,117.654606 L105.252002,121.462606 C105.252002,121.919942 105.347668,122.239605 105.539002,122.421606 C105.730336,122.603607 106.068666,122.694606 106.554002,122.694606 L106.946002,122.694606 C107.067336,122.694606 107.167668,122.734273 107.247002,122.813606 C107.326336,122.89294 107.366002,122.988606 107.366002,123.100606 C107.366002,123.212607 107.326336,123.310606 107.247002,123.394606 C107.167668,123.478607 107.067336,123.520606 106.946002,123.520606 L106.554002,123.520606 C105.079328,123.520606 104.342002,122.834613 104.342002,121.462606 Z M108.808002,122.610606 C108.808002,122.517273 108.840668,122.42394 108.906002,122.330606 C108.971336,122.237273 109.046001,122.190606 109.130002,122.190606 C109.182269,122.190606 109.258428,122.224953 109.358482,122.293646 L109.438002,122.351606 C109.578003,122.45894 109.778667,122.568606 110.040002,122.680606 C110.301337,122.792607 110.614,122.848606 110.978002,122.848606 C111.472671,122.848606 111.836667,122.755274 112.070002,122.568606 C112.303336,122.381939 112.420002,122.143941 112.420002,121.854606 C112.420002,121.518605 112.301003,121.250274 112.063002,121.049606 C111.825001,120.848939 111.538004,120.70194 111.202002,120.608606 C110.866,120.515273 110.52767,120.412607 110.187002,120.300606 C109.846333,120.188606 109.557003,120.004274 109.319002,119.747606 C109.081001,119.490938 108.962002,119.147942 108.962002,118.718606 C108.962002,118.20527 109.146333,117.759608 109.515002,117.381606 C109.88367,117.003604 110.436665,116.814606 111.174002,116.814606 C111.631337,116.814606 112.058333,116.886939 112.455002,117.031606 C112.851671,117.176274 113.050002,117.332605 113.050002,117.500606 C113.050002,117.59394 113.012669,117.696606 112.938002,117.808606 C112.863335,117.920607 112.774669,117.976606 112.672002,117.976606 L112.623877,117.964356 C112.548627,117.939857 112.392003,117.878607 112.154002,117.780606 C111.836667,117.649939 111.51467,117.584606 111.188002,117.584606 C110.721333,117.584606 110.371336,117.696605 110.138002,117.920606 C109.904667,118.144607 109.788002,118.396605 109.788002,118.676606 C109.788002,118.965941 109.907001,119.194605 110.145002,119.362606 C110.383003,119.530607 110.672333,119.658939 111.013002,119.747606 C111.35367,119.836273 111.694333,119.938939 112.035002,120.055606 C112.37567,120.172274 112.665001,120.377605 112.903002,120.671606 C113.141003,120.965608 113.260002,121.345937 113.260002,121.812606 C113.260002,122.372609 113.061671,122.813605 112.665002,123.135606 C112.268333,123.457608 111.715339,123.618606 111.006002,123.618606 C110.389999,123.618606 109.869671,123.508941 109.445002,123.289606 C109.020333,123.070272 108.808002,122.843941 108.808002,122.610606 Z M118.580002,120.958606 L118.580002,119.460606 C118.580002,118.676602 118.808666,118.039609 119.266002,117.549606 C119.723338,117.059604 120.395331,116.814606 121.282002,116.814606 C121.842005,116.814606 122.311,116.914939 122.689002,117.115606 C123.067004,117.316274 123.256002,117.519272 123.256002,117.724606 C123.256002,117.827273 123.214002,117.927606 123.130002,118.025606 C123.046002,118.123607 122.952669,118.172606 122.850002,118.172606 C122.808002,118.172606 122.74894,118.148982 122.672815,118.101731 L122.591002,118.046606 C122.474335,117.962606 122.30867,117.876273 122.094002,117.787606 C121.879334,117.698939 121.62267,117.654606 121.324002,117.654606 C120.726666,117.654606 120.27167,117.813271 119.959002,118.130606 C119.646334,118.447941 119.490002,118.89127 119.490002,119.460606 L119.490002,120.958606 C119.490002,121.537276 119.646334,121.985271 119.959002,122.302606 C120.27167,122.619941 120.731332,122.778606 121.338002,122.778606 C121.655337,122.778606 121.923667,122.734273 122.143002,122.645606 C122.362336,122.556939 122.530335,122.468273 122.647002,122.379606 C122.763669,122.290939 122.854668,122.246606 122.920002,122.246606 C123.041336,122.246606 123.141668,122.293273 123.221002,122.386606 C123.300336,122.47994 123.340002,122.582606 123.340002,122.694606 C123.340002,122.909274 123.144004,123.116939 122.752002,123.317606 C122.36,123.518274 121.874671,123.618606 121.296002,123.618606 C120.399997,123.618606 119.723338,123.375942 119.266002,122.890606 C118.808666,122.405271 118.580002,121.761277 118.580002,120.958606 Z M124.936002,120.958606 L124.936002,119.432606 C124.936002,118.723269 125.197333,118.109609 125.720002,117.591606 C126.242671,117.073604 126.863332,116.814606 127.582002,116.814606 C128.300672,116.814606 128.925999,117.07127 129.458002,117.584606 C129.990005,118.097942 130.256002,118.713936 130.256002,119.432606 L130.256002,120.958606 C130.256002,121.65861 129.987671,122.276937 129.451002,122.813606 C128.914333,123.350276 128.291339,123.618606 127.582002,123.618606 C126.881998,123.618606 126.266005,123.350276 125.734002,122.813606 C125.201999,122.276937 124.936002,121.65861 124.936002,120.958606 Z M125.846002,120.958606 C125.846002,121.434609 126.016334,121.856938 126.357002,122.225606 C126.69767,122.594275 127.106,122.778606 127.582002,122.778606 C128.067338,122.778606 128.482667,122.594275 128.828002,122.225606 C129.173337,121.856938 129.346002,121.434609 129.346002,120.958606 L129.346002,119.432606 C129.346002,118.975271 129.171004,118.564608 128.821002,118.200606 C128.471,117.836604 128.058004,117.654606 127.582002,117.654606 C127.106,117.654606 126.69767,117.836604 126.357002,118.200606 C126.016334,118.564608 125.846002,118.975271 125.846002,119.432606 L125.846002,120.958606 Z M132.384002,120.986606 L132.384002,117.248606 C132.384002,117.164606 132.428335,117.085273 132.517002,117.010606 C132.605669,116.935939 132.715335,116.898606 132.846002,116.898606 C132.958003,116.898606 133.060668,116.935939 133.154002,117.010606 C133.247336,117.085273 133.294002,117.164606 133.294002,117.248606 L133.294002,120.986606 C133.294002,121.453275 133.466667,121.868604 133.812002,122.232606 C134.157337,122.596608 134.568,122.778606 135.044002,122.778606 C135.520004,122.778606 135.930667,122.596608 136.276002,122.232606 C136.621337,121.868604 136.794002,121.453275 136.794002,120.986606 L136.794002,117.234606 C136.794002,117.141273 136.840668,117.06194 136.934002,116.996606 C137.027336,116.931273 137.134668,116.898606 137.256002,116.898606 C137.377336,116.898606 137.482335,116.931273 137.571002,116.996606 C137.659669,117.06194 137.704002,117.141273 137.704002,117.234606 L137.704002,120.986606 C137.704002,121.68661 137.440338,122.30027 136.913002,122.827606 C136.385666,123.354942 135.762672,123.618606 135.044002,123.618606 C134.315998,123.618606 133.690671,123.354942 133.168002,122.827606 C132.645333,122.30027 132.384002,121.68661 132.384002,120.986606 Z M140.098002,123.156606 L140.098002,117.234606 C140.098002,117.141273 140.140002,117.06194 140.224002,116.996606 C140.308002,116.931273 140.415335,116.898606 140.546002,116.898606 C140.667336,116.898606 140.770002,116.931273 140.854002,116.996606 C140.938002,117.06194 140.980002,117.141273 140.980002,117.234606 L140.980002,117.920606 C141.148003,117.612605 141.395334,117.351274 141.722002,117.136606 C142.04867,116.921939 142.426667,116.814606 142.856002,116.814606 L143.346002,116.814606 C143.439336,116.814606 143.523335,116.856606 143.598002,116.940606 C143.672669,117.024607 143.710002,117.122606 143.710002,117.234606 C143.710002,117.346607 143.672669,117.444606 143.598002,117.528606 C143.523335,117.612607 143.439336,117.654606 143.346002,117.654606 L142.856002,117.654606 C142.370666,117.654606 141.941337,117.843604 141.568002,118.221606 C141.194667,118.599608 141.008002,119.091937 141.008002,119.698606 L141.008002,123.156606 C141.008002,123.24994 140.963669,123.333939 140.875002,123.408606 C140.786335,123.483273 140.676669,123.520606 140.546002,123.520606 C140.424668,123.520606 140.319669,123.483273 140.231002,123.408606 C140.142335,123.333939 140.098002,123.24994 140.098002,123.156606 Z M144.956002,122.610606 C144.956002,122.517273 144.988668,122.42394 145.054002,122.330606 C145.119336,122.237273 145.194002,122.190606 145.278002,122.190606 C145.330269,122.190606 145.406428,122.224953 145.506482,122.293646 L145.586002,122.351606 C145.726003,122.45894 145.926667,122.568606 146.188002,122.680606 C146.449337,122.792607 146.762,122.848606 147.126002,122.848606 C147.620671,122.848606 147.984668,122.755274 148.218002,122.568606 C148.451337,122.381939 148.568002,122.143941 148.568002,121.854606 C148.568002,121.518605 148.449003,121.250274 148.211002,121.049606 C147.973001,120.848939 147.686004,120.70194 147.350002,120.608606 C147.014,120.515273 146.67567,120.412607 146.335002,120.300606 C145.994334,120.188606 145.705003,120.004274 145.467002,119.747606 C145.229001,119.490938 145.110002,119.147942 145.110002,118.718606 C145.110002,118.20527 145.294334,117.759608 145.663002,117.381606 C146.031671,117.003604 146.584665,116.814606 147.322002,116.814606 C147.779338,116.814606 148.206333,116.886939 148.603002,117.031606 C148.999671,117.176274 149.198002,117.332605 149.198002,117.500606 C149.198002,117.59394 149.160669,117.696606 149.086002,117.808606 C149.011335,117.920607 148.922669,117.976606 148.820002,117.976606 L148.771877,117.964356 C148.696628,117.939857 148.540003,117.878607 148.302002,117.780606 C147.984667,117.649939 147.66267,117.584606 147.336002,117.584606 C146.869333,117.584606 146.519337,117.696605 146.286002,117.920606 C146.052668,118.144607 145.936002,118.396605 145.936002,118.676606 C145.936002,118.965941 146.055001,119.194605 146.293002,119.362606 C146.531003,119.530607 146.820334,119.658939 147.161002,119.747606 C147.50167,119.836273 147.842334,119.938939 148.183002,120.055606 C148.52367,120.172274 148.813001,120.377605 149.051002,120.671606 C149.289003,120.965608 149.408002,121.345937 149.408002,121.812606 C149.408002,122.372609 149.209671,122.813605 148.813002,123.135606 C148.416333,123.457608 147.863339,123.618606 147.154002,123.618606 C146.537999,123.618606 146.017671,123.508941 145.593002,123.289606 C145.168333,123.070272 144.956002,122.843941 144.956002,122.610606 Z M151.214002,120.958606 L151.214002,119.390606 C151.214002,118.690603 151.475333,118.086276 151.998002,117.577606 C152.520671,117.068937 153.150665,116.814606 153.888002,116.814606 C154.597339,116.814606 155.210999,117.057271 155.729002,117.542606 C156.247005,118.027942 156.506002,118.634603 156.506002,119.362606 C156.506002,119.623941 156.475669,119.833939 156.415002,119.992606 C156.354335,120.151274 156.256336,120.263273 156.121002,120.328606 C155.985668,120.39394 155.862003,120.43594 155.750002,120.454606 C155.638002,120.473273 155.484003,120.482606 155.288002,120.482606 L152.124002,120.482606 L152.124002,121.000606 C152.124002,121.551276 152.322333,121.992271 152.719002,122.323606 C153.115671,122.654941 153.626666,122.820606 154.252002,122.820606 C154.569337,122.820606 154.847001,122.77394 155.085002,122.680606 C155.275403,122.605939 155.429962,122.531273 155.548682,122.456606 L155.631002,122.400606 C155.757003,122.307273 155.857335,122.260606 155.932002,122.260606 C156.034669,122.260606 156.125668,122.309606 156.205002,122.407606 C156.284336,122.505607 156.324002,122.601273 156.324002,122.694606 C156.324002,122.890607 156.123337,123.093605 155.722002,123.303606 C155.320667,123.513607 154.821338,123.618606 154.224002,123.618606 C153.337331,123.618606 152.614005,123.373609 152.054002,122.883606 C151.493999,122.393604 151.214002,121.751944 151.214002,120.958606 Z M152.124002,119.810606 L154.924002,119.810606 C155.204003,119.810606 155.390668,119.780273 155.484002,119.719606 C155.577336,119.658939 155.624002,119.530607 155.624002,119.334606 C155.624002,118.867937 155.458337,118.457275 155.127002,118.102606 C154.795667,117.747938 154.378005,117.570606 153.874002,117.570606 C153.388666,117.570606 152.97567,117.738605 152.635002,118.074606 C152.294334,118.410608 152.124002,118.811937 152.124002,119.278606 L152.124002,119.810606 Z M158.256002,122.960606 C158.256002,122.773939 158.316668,122.617607 158.438002,122.491606 C158.559336,122.365606 158.713334,122.302606 158.900002,122.302606 C159.068003,122.302606 159.215001,122.367939 159.341002,122.498606 C159.467003,122.629274 159.530002,122.783272 159.530002,122.960606 C159.530002,123.128607 159.467003,123.277939 159.341002,123.408606 C159.215001,123.539274 159.068003,123.604606 158.900002,123.604606 C158.713334,123.604606 158.559336,123.541607 158.438002,123.415606 C158.316668,123.289606 158.256002,123.137941 158.256002,122.960606 Z" id="Letnaturetakeitscourse." fill="#DADADA"></path>
                        <path d="M1.1409998,99.5852013 C1.1409998,99.4884008 1.14906639,99.4158016 1.1651998,99.3674013 L5.98099991,83.685801 C6.17460088,83.1049981 6.71506215,82.814601 7.60239994,82.814601 C8.50587115,82.814601 9.05439901,83.1049981 9.24799998,83.685801 L14.0396001,99.3674013 C14.0718669,99.4642018 14.0880001,99.5368011 14.0880001,99.5852013 C14.0880001,99.8756028 13.9145685,100.125667 13.5677001,100.335401 C13.2208317,100.545136 12.853802,100.650001 12.4666,100.650001 C11.998731,100.650001 11.7083339,100.472536 11.5954,100.117601 L10.6032,96.6812013 L4.62579988,96.6812013 L3.63359986,100.117601 C3.52066596,100.472536 3.22220227,100.650001 2.73819984,100.650001 C2.35099789,100.650001 1.98800151,100.545136 1.64919981,100.335401 C1.31039811,100.125667 1.1409998,99.8756028 1.1409998,99.5852013 Z M5.18239989,94.6242012 L10.0224,94.6242012 L7.60239994,86.323601 L5.18239989,94.6242012 Z M17.2098002,99.8030013 L17.2098002,84.242401 C17.2098002,83.8067988 17.330799,83.4841354 17.5728002,83.274401 C17.8148014,83.0646666 18.1213317,82.959801 18.4924002,82.959801 C18.9602692,82.959801 19.3434321,83.0606333 19.6419002,83.262301 C19.9403684,83.4639686 20.2347988,83.8471315 20.5252002,84.411801 L23.9132003,90.8248011 L27.3496004,84.411801 C27.6400019,83.8471315 27.930399,83.4639686 28.2208004,83.262301 C28.5112019,83.0606333 28.8903314,82.959801 29.3582004,82.959801 C29.729269,82.959801 30.0357992,83.0646666 30.2778005,83.274401 C30.5198017,83.4841354 30.6408005,83.8067988 30.6408005,84.242401 L30.6408005,99.8030013 C30.6408005,100.061136 30.5157684,100.266834 30.2657005,100.420101 C30.0156325,100.573369 29.7131356,100.650001 29.3582004,100.650001 C29.0193987,100.650001 28.7209351,100.573369 28.4628004,100.420101 C28.2046658,100.266834 28.0756004,100.061136 28.0756004,99.8030013 L28.0756004,88.1870011 L24.8328003,94.1886012 C24.5907991,94.5758032 24.2762023,94.7694012 23.8890003,94.7694012 C23.5017984,94.7694012 23.2114013,94.5758032 23.0178003,94.1886012 L19.7750002,88.0418011 L19.7750002,99.8030013 C19.7750002,100.061136 19.6499681,100.266834 19.3999002,100.420101 C19.1498323,100.573369 18.8473353,100.650001 18.4924002,100.650001 C18.1535985,100.650001 17.8551348,100.573369 17.5970002,100.420101 C17.3388656,100.266834 17.2098002,100.061136 17.2098002,99.8030013 Z M35.0452006,99.8272013 L35.0452006,83.806801 C35.0452006,83.5486664 35.1581328,83.3429684 35.3840006,83.189701 C35.6098684,83.0364335 35.8760657,82.959801 36.1826006,82.959801 L40.5870007,82.959801 C42.0712748,82.959801 43.257063,83.2663312 44.1444008,83.879401 C45.0317386,84.4924707 45.4754008,85.5814599 45.4754008,87.1464011 C45.4754008,89.1469444 44.789741,90.4537314 43.4184008,91.0668011 C44.2412049,91.3894694 44.862332,91.8532981 45.2818008,92.4583012 C45.7012696,93.0633042 45.9110008,93.9465954 45.9110008,95.1082012 L45.9110008,95.5680012 C45.9110008,97.3426768 45.4754052,98.6333306 44.6042008,99.4400013 C43.7329964,100.246672 42.5633414,100.650001 41.0952007,100.650001 L36.1826006,100.650001 C35.8437989,100.650001 35.569535,100.569335 35.3598006,100.408001 C35.1500662,100.246667 35.0452006,100.053069 35.0452006,99.8272013 Z M37.5862006,98.3752013 L40.6112007,98.3752013 C42.4342765,98.3752013 43.3458008,97.3749446 43.3458008,95.3744012 L43.3458008,94.9872012 C43.3458008,93.9546627 43.1159031,93.2125368 42.6561008,92.7608012 C42.1962984,92.3090656 41.5146719,92.0832012 40.6112007,92.0832012 L37.5862006,92.0832012 L37.5862006,98.3752013 Z M37.5862006,90.0504011 L40.4660007,90.0504011 C42.0954756,90.0504011 42.9102008,89.2195427 42.9102008,87.5578011 C42.9102008,86.0089933 42.0793424,85.234601 40.4176007,85.234601 L37.5862006,85.234601 L37.5862006,90.0504011 Z M49.6378009,99.8030013 L49.6378009,83.782601 C49.6378009,83.5083329 49.762833,83.302635 50.0129009,83.165501 C50.2629689,83.0283669 50.5654658,82.959801 50.920401,82.959801 C51.2753361,82.959801 51.5778331,83.0283669 51.827901,83.165501 C52.0779689,83.302635 52.203001,83.5083329 52.203001,83.782601 L52.203001,99.8030013 C52.203001,100.061136 52.0779689,100.266834 51.827901,100.420101 C51.5778331,100.573369 51.2753361,100.650001 50.920401,100.650001 C50.5815993,100.650001 50.2831356,100.573369 50.0250009,100.420101 C49.7668663,100.266834 49.6378009,100.061136 49.6378009,99.8030013 Z M56.6074011,99.8030013 L56.6074011,83.806801 C56.6074011,83.5486664 56.7203333,83.3429684 56.9462011,83.189701 C57.1720689,83.0364335 57.4382663,82.959801 57.7448011,82.959801 L66.3600013,82.959801 C66.6342694,82.959801 66.8440006,83.0727332 66.9892013,83.298601 C67.1344021,83.5244688 67.2070013,83.7825995 67.2070013,84.073001 C67.2070013,84.3956693 67.1303688,84.6699332 66.9771013,84.895801 C66.8238339,85.1216688 66.618136,85.234601 66.3600013,85.234601 L59.1726012,85.234601 L59.1726012,90.7764011 L62.8994012,90.7764011 C63.1575359,90.7764011 63.3632338,90.8772335 63.5165013,91.0789011 C63.6697687,91.2805688 63.7464013,91.5265997 63.7464013,91.8170012 C63.7464013,92.0751358 63.673802,92.3050335 63.5286013,92.5067012 C63.3834005,92.7083688 63.1736693,92.8092012 62.8994012,92.8092012 L59.1726012,92.8092012 L59.1726012,98.3752013 L66.3600013,98.3752013 C66.618136,98.3752013 66.8238339,98.4881335 66.9771013,98.7140013 C67.1303688,98.9398691 67.2070013,99.214133 67.2070013,99.5368013 C67.2070013,99.8272028 67.1344021,100.085334 66.9892013,100.311201 C66.8440006,100.537069 66.6342694,100.650001 66.3600013,100.650001 L57.7448011,100.650001 C57.4382663,100.650001 57.1720689,100.573369 56.9462011,100.420101 C56.7203333,100.266834 56.6074011,100.061136 56.6074011,99.8030013 Z M70.4740014,99.8030013 L70.4740014,83.806801 C70.4740014,83.2421315 70.9015305,82.959801 71.7566015,82.959801 C72.2083371,82.959801 72.5713334,83.0606333 72.8456015,83.262301 C73.1198695,83.4639686 73.4022,83.8471315 73.6926015,84.411801 L79.0650016,94.8904012 L79.0650016,83.782601 C79.0650016,83.5083329 79.1900337,83.302635 79.4401016,83.165501 C79.6901696,83.0283669 79.9926665,82.959801 80.3476017,82.959801 C80.7025368,82.959801 81.0050337,83.0283669 81.2551017,83.165501 C81.5051696,83.302635 81.6302017,83.5083329 81.6302017,83.782601 L81.6302017,99.8030013 C81.6302017,100.061136 81.5051696,100.266834 81.2551017,100.420101 C81.0050337,100.573369 80.7025368,100.650001 80.3476017,100.650001 C79.6699982,100.650001 79.1618033,100.335404 78.8230016,99.7062013 L73.0392015,88.6952011 L73.0392015,99.8030013 C73.0392015,100.061136 72.9141694,100.266834 72.6641015,100.420101 C72.4140336,100.573369 72.1115366,100.650001 71.7566015,100.650001 C71.4177998,100.650001 71.1193361,100.573369 70.8612014,100.420101 C70.6030668,100.266834 70.4740014,100.061136 70.4740014,99.8030013 Z M84.7762018,84.121401 C84.7762018,83.8148661 84.848801,83.5446355 84.9940018,83.310701 C85.1392025,83.0767665 85.3489337,82.959801 85.6232018,82.959801 L95.666202,82.959801 C95.9404701,82.959801 96.1502013,83.0727332 96.295402,83.298601 C96.4406028,83.5244688 96.513202,83.7906661 96.513202,84.097201 C96.513202,84.4360027 96.4365695,84.7223665 96.283302,84.956301 C96.1300346,85.1902355 95.9243366,85.307201 95.666202,85.307201 L91.9394019,85.307201 L91.9394019,99.8030013 C91.9394019,100.061136 91.8103365,100.266834 91.5522019,100.420101 C91.2940673,100.573369 90.9956036,100.650001 90.6568019,100.650001 C90.3018668,100.650001 89.9993698,100.573369 89.7493019,100.420101 C89.499234,100.266834 89.3742019,100.061136 89.3742019,99.8030013 L89.3742019,85.307201 L85.6232018,85.307201 C85.3650672,85.307201 85.1593692,85.1902355 85.0061018,84.956301 C84.8528343,84.7223665 84.7762018,84.4440693 84.7762018,84.121401 Z M105.709202,99.8030013 L105.709202,84.242401 C105.709202,83.8067988 105.830201,83.4841354 106.072202,83.274401 C106.314204,83.0646666 106.620734,82.959801 106.991802,82.959801 C107.459671,82.959801 107.842834,83.0606333 108.141302,83.262301 C108.43977,83.4639686 108.734201,83.8471315 109.024602,84.411801 L112.412602,90.8248011 L115.849002,84.411801 C116.139404,83.8471315 116.429801,83.4639686 116.720203,83.262301 C117.010604,83.0606333 117.389734,82.959801 117.857603,82.959801 C118.228671,82.959801 118.535201,83.0646666 118.777203,83.274401 C119.019204,83.4841354 119.140203,83.8067988 119.140203,84.242401 L119.140203,99.8030013 C119.140203,100.061136 119.01517,100.266834 118.765103,100.420101 C118.515035,100.573369 118.212538,100.650001 117.857603,100.650001 C117.518801,100.650001 117.220337,100.573369 116.962203,100.420101 C116.704068,100.266834 116.575003,100.061136 116.575003,99.8030013 L116.575003,88.1870011 L113.332202,94.1886012 C113.090201,94.5758032 112.775604,94.7694012 112.388402,94.7694012 C112.0012,94.7694012 111.710803,94.5758032 111.517202,94.1886012 L108.274402,88.0418011 L108.274402,99.8030013 C108.274402,100.061136 108.14937,100.266834 107.899302,100.420101 C107.649234,100.573369 107.346737,100.650001 106.991802,100.650001 C106.653001,100.650001 106.354537,100.573369 106.096402,100.420101 C105.838268,100.266834 105.709202,100.061136 105.709202,99.8030013 Z M123.375203,95.3986012 L123.375203,88.3564011 C123.375203,86.5010584 123.867264,85.1378054 124.851403,84.266601 C125.835541,83.3953966 127.150395,82.959801 128.796003,82.959801 C130.441611,82.959801 131.760498,83.3953966 132.752703,84.266601 C133.744908,85.1378054 134.241003,86.5010584 134.241003,88.3564011 L134.241003,95.3986012 C134.241003,97.2539439 133.744908,98.6171969 132.752703,99.4884013 C131.760498,100.359606 130.441611,100.795201 128.796003,100.795201 C127.150395,100.795201 125.835541,100.359606 124.851403,99.4884013 C123.867264,98.6171969 123.375203,97.2539439 123.375203,95.3986012 Z M125.940403,95.3986012 C125.940403,97.4798117 126.89226,98.5204013 128.796003,98.5204013 C129.715607,98.5204013 130.425467,98.2622705 130.925603,97.7460013 C131.425739,97.229732 131.675803,96.4472732 131.675803,95.3986012 L131.675803,88.3564011 C131.675803,87.3077291 131.425739,86.5252703 130.925603,86.009001 C130.425467,85.4927318 129.715607,85.234601 128.796003,85.234601 C126.89226,85.234601 125.940403,86.2751906 125.940403,88.3564011 L125.940403,95.3986012 Z M138.451803,99.8272013 L138.451803,83.782601 C138.451803,83.5567332 138.560702,83.3631351 138.778503,83.201801 C138.996304,83.0404668 139.266535,82.959801 139.589203,82.959801 L143.872603,82.959801 C145.518211,82.959801 146.837098,83.3953966 147.829303,84.266601 C148.821508,85.1378054 149.317603,86.5010584 149.317603,88.3564011 L149.317603,95.2534012 C149.317603,97.1087439 148.821508,98.4719969 147.829303,99.3432013 C146.837098,100.214406 145.518211,100.650001 143.872603,100.650001 L139.589203,100.650001 C139.266535,100.650001 138.996304,100.569335 138.778503,100.408001 C138.560702,100.246667 138.451803,100.053069 138.451803,99.8272013 Z M141.017003,98.3752013 L143.872603,98.3752013 C145.792479,98.3752013 146.752403,97.3346117 146.752403,95.2534012 L146.752403,88.3564011 C146.752403,86.2751906 145.792479,85.234601 143.872603,85.234601 L141.017003,85.234601 L141.017003,98.3752013 Z M153.528403,99.8030013 L153.528403,83.806801 C153.528403,83.5486664 153.641336,83.3429684 153.867203,83.189701 C154.093071,83.0364335 154.359269,82.959801 154.665803,82.959801 L163.281004,82.959801 C163.555272,82.959801 163.765003,83.0727332 163.910204,83.298601 C164.055404,83.5244688 164.128004,83.7825995 164.128004,84.073001 C164.128004,84.3956693 164.051371,84.6699332 163.898104,84.895801 C163.744836,85.1216688 163.539138,85.234601 163.281004,85.234601 L156.093603,85.234601 L156.093603,90.7764011 L159.820404,90.7764011 C160.078538,90.7764011 160.284236,90.8772335 160.437504,91.0789011 C160.590771,91.2805688 160.667404,91.5265997 160.667404,91.8170012 C160.667404,92.0751358 160.594804,92.3050335 160.449604,92.5067012 C160.304403,92.7083688 160.094672,92.8092012 159.820404,92.8092012 L156.093603,92.8092012 L156.093603,98.3752013 L163.281004,98.3752013 C163.539138,98.3752013 163.744836,98.4881335 163.898104,98.7140013 C164.051371,98.9398691 164.128004,99.214133 164.128004,99.5368013 C164.128004,99.8272028 164.055404,100.085334 163.910204,100.311201 C163.765003,100.537069 163.555272,100.650001 163.281004,100.650001 L154.665803,100.650001 C154.359269,100.650001 154.093071,100.573369 153.867203,100.420101 C153.641336,100.266834 153.528403,100.061136 153.528403,99.8030013 Z" id="AMBIENTMODE" fill="#DADADA"></path>
                        <path d="M83.3000017,1.90000105 C99.8685442,1.90000105 113.300002,15.3314586 113.300002,31.900001 C113.300002,48.4685435 99.8685442,61.900001 83.3000017,61.900001 C66.7314592,61.900001 53.3000017,48.4685435 53.3000017,31.900001 C53.3000017,15.3314586 66.7314592,1.90000105 83.3000017,1.90000105 Z M83.3000017,4.69069872 C68.272719,4.69069872 56.0906994,16.8727183 56.0906994,31.900001 C56.0906994,46.9272838 68.272719,59.1093034 83.3000017,59.1093034 C98.3272845,59.1093034 110.509304,46.9272838 110.509304,31.900001 C110.509304,16.8727183 98.3272845,4.69069872 83.3000017,4.69069872 Z M95.1587042,16.2319801 C101.656695,30.620498 88.5227883,49.3776611 72.6327932,48.402315 L95.1587042,16.2319801 Z M93.9672103,15.3976871 L71.4412993,47.568022 C65.0900753,32.9698988 78.2239823,14.2127357 93.9672103,15.3976871 Z" id="icon" fill="#DADADA"></path>
                    </g>
                </g>
            </g>
        </g>
    </g>
</svg>