<?xml version="1.0" encoding="UTF-8"?>
<svg width="95px" height="28px" viewBox="0 0 95 28" version="1.1" xmlns="http://www.w3.org/2000/svg" xmlns:xlink="http://www.w3.org/1999/xlink">
    <!-- Generator: Sketch 55.2 (78181) - https://sketchapp.com -->
    <title>standard</title>
    <desc>Created with Sketch.</desc>
    <g id="Symbols" stroke="none" stroke-width="1" fill="none" fill-rule="evenodd">
        <g id="game-header" transform="translate(0.000000, -62.000000)" fill="#74756F" fill-rule="nonzero">
            <g id="header-with-icons-only" transform="translate(0.000000, 62.000000)">
                <g id="save-button" transform="translate(0.168871, 0.430000)">
                    <path d="M13,0 L81,0 C88.1797017,-1.31888981e-15 94,5.82029825 94,13 L94,14 C94,21.1797017 88.1797017,27 81,27 L13,27 C5.82029825,27 8.79259876e-16,21.1797017 0,14 L0,13 C-8.79259876e-16,5.82029825 5.82029825,1.31888981e-15 13,0 Z M42.3311291,17.602 C42.3311291,18.0393355 42.6751257,18.4633313 43.3631291,18.874 C44.0511326,19.2846687 44.8857909,19.49 45.8671291,19.49 C46.9658013,19.49 47.8484591,19.1993362 48.5151291,18.618 C49.1817991,18.0366638 49.5151291,17.1913389 49.5151291,16.082 C49.5151291,15.5059971 49.4191301,14.9993355 49.2271291,14.562 C49.0351282,14.1246645 48.7871307,13.7806679 48.4831291,13.53 C48.1791276,13.2793321 47.843131,13.058001 47.4751291,12.866 C47.1071273,12.673999 46.7364643,12.5060007 46.3631291,12.362 C45.9897939,12.2179993 45.6511307,12.0713341 45.3471291,11.922 C45.0431276,11.7726659 44.7951301,11.5833345 44.6031291,11.354 C44.4111282,11.1246655 44.3151291,10.8500016 44.3151291,10.53 C44.3151291,10.0393309 44.4964607,9.6740012 44.8591291,9.434 C45.2217976,9.1939988 45.7071261,9.074 46.3151291,9.074 C46.7097978,9.074 47.0591276,9.12466616 47.3631291,9.226 C47.6671307,9.32733384 47.9097949,9.42866616 48.0911291,9.53 C48.2724634,9.63133384 48.4164619,9.682 48.5231291,9.682 C48.7364635,9.682 48.9071285,9.58066768 49.0351291,9.378 C49.1631298,9.17533232 49.2271291,8.97266768 49.2271291,8.77 C49.2271291,8.56733232 49.1257968,8.3860008 48.9231291,8.226 C48.7204615,8.0659992 48.464464,7.94333376 48.1551291,7.858 C47.8457943,7.77266624 47.5337974,7.71133352 47.2191291,7.674 C46.9044609,7.63666648 46.6031306,7.618 46.3151291,7.618 C45.8564602,7.618 45.4217979,7.66866616 45.0111291,7.77 C44.6004604,7.87133384 44.2084643,8.03399888 43.8351291,8.258 C43.4617939,8.48200112 43.1657969,8.80199792 42.9471291,9.218 C42.7284614,9.63400208 42.6191291,10.1246638 42.6191291,10.69 C42.6191291,11.3940035 42.797794,11.9806643 43.1551291,12.45 C43.5124643,12.9193357 43.9471266,13.2713322 44.4591291,13.506 C44.9711317,13.7406678 45.4804599,13.9593323 45.9871291,14.162 C46.4937983,14.3646677 46.925794,14.636665 47.2831291,14.978 C47.6404643,15.319335 47.8191291,15.7459974 47.8191291,16.258 C47.8191291,16.8126694 47.635131,17.2339986 47.2671291,17.522 C46.8991273,17.8100014 46.4111322,17.954 45.8031291,17.954 C45.3977938,17.954 45.0324641,17.887334 44.7071291,17.754 C44.3817942,17.620666 44.1391299,17.4766674 43.9791291,17.322 C43.8191283,17.1673326 43.6564633,17.023334 43.4911291,16.89 C43.325795,16.756666 43.1844631,16.69 43.0671291,16.69 C42.8751282,16.69 42.7044632,16.7913323 42.5551291,16.994 C42.4057951,17.1966677 42.3311291,17.3993323 42.3311291,17.602 Z M51.4259863,18.658 C51.4259863,18.850001 51.5379852,19.0153326 51.7619863,19.154 C51.9859874,19.2926674 52.225985,19.362 52.4819863,19.362 C52.8019879,19.362 52.9993192,19.2446678 53.0739863,19.01 L53.7299863,16.738 L57.6819863,16.738 L58.3379863,19.01 C58.4126533,19.2446678 58.6046514,19.362 58.9139863,19.362 C59.1699876,19.362 59.4126518,19.2926674 59.6419863,19.154 C59.8713208,19.0153326 59.9859863,18.850001 59.9859863,18.658 C59.9859863,18.6259998 59.9753197,18.5780003 59.9539863,18.514 L56.7859863,8.146 C56.6579856,7.76199808 56.2953226,7.57 55.6979863,7.57 C55.1113167,7.57 54.7539869,7.76199808 54.6259863,8.146 L51.4419863,18.514 C51.4313196,18.5460002 51.4259863,18.5939997 51.4259863,18.658 Z M54.0979863,15.378 L55.6979863,9.89 L57.2979863,15.378 L54.0979863,15.378 Z M60.9368434,8.37 C60.9368434,8.43400032 60.9421767,8.48199984 60.9528434,8.514 L64.1528434,18.882 C64.2808441,19.2660019 64.6381738,19.458 65.2248434,19.458 C65.4808447,19.458 65.7101757,19.4073338 65.9128434,19.306 C66.1155111,19.2046662 66.2435098,19.0633342 66.2968434,18.882 L69.4648434,8.514 C69.4861769,8.44999968 69.4968434,8.40200016 69.4968434,8.37 C69.4968434,8.17799904 69.3821779,8.01266736 69.1528434,7.874 C68.9235089,7.73533264 68.6808447,7.666 68.4248434,7.666 C68.1155085,7.666 67.9235105,7.78333216 67.8488434,8.018 L65.2248434,17.138 L62.5848434,8.018 C62.5101764,7.78333216 62.312845,7.666 61.9928434,7.666 C61.7368421,7.666 61.4968445,7.73533264 61.2728434,7.874 C61.0488423,8.01266736 60.9368434,8.17799904 60.9368434,8.37 Z M71.9037006,18.802 C71.9037006,18.9726675 71.9783665,19.1086662 72.1277006,19.21 C72.2770346,19.3113338 72.4530329,19.362 72.6557006,19.362 L78.3517006,19.362 C78.5330348,19.362 78.6717001,19.2873341 78.7677006,19.138 C78.863701,18.9886659 78.9117006,18.818001 78.9117006,18.626 C78.9117006,18.4126656 78.8610344,18.2313341 78.7597006,18.082 C78.6583667,17.9326659 78.5223681,17.858 78.3517006,17.858 L73.5997006,17.858 L73.5997006,14.178 L76.0637006,14.178 C76.2450348,14.178 76.3837001,14.111334 76.4797006,13.978 C76.575701,13.844666 76.6237006,13.6926675 76.6237006,13.522 C76.6237006,13.329999 76.5730344,13.167334 76.4717006,13.034 C76.3703667,12.900666 76.2343681,12.834 76.0637006,12.834 L73.5997006,12.834 L73.5997006,9.17 L78.3517006,9.17 C78.5223681,9.17 78.6583667,9.09533408 78.7597006,8.946 C78.8610344,8.79666592 78.9117006,8.6153344 78.9117006,8.402 C78.9117006,8.20999904 78.863701,8.03933408 78.7677006,7.89 C78.6717001,7.74066592 78.5330348,7.666 78.3517006,7.666 L72.6557006,7.666 C72.4530329,7.666 72.2770346,7.71666616 72.1277006,7.818 C71.9783665,7.91933384 71.9037006,8.05533248 71.9037006,8.226 L71.9037006,18.802 Z M17.922,20.928 L24.314,20.928 C28.518201,20.928 31.928,17.542384 31.928,13.364 C31.928,9.18561601 28.518201,5.8 24.314,5.8 C21.7375026,5.8 19.382832,7.08226818 17.9831382,9.16030768 C17.9627705,9.1601026 17.942391,9.16 17.922,9.16 C14.6522648,9.16 12,11.7934544 12,15.044 C12,18.2945456 14.6522648,20.928 17.922,20.928 Z M24.314,19.8 L17.922,19.8 C15.2734518,19.8 13.128,17.6697641 13.128,15.044 C13.128,12.4182359 15.2734518,10.288 17.922,10.288 C18.030641,10.288 18.1388056,10.2915762 18.2463849,10.2986949 C18.4556674,10.3125434 18.655349,10.2091145 18.7647774,10.0301833 C19.9333513,8.11939883 22.019418,6.928 24.314,6.928 C27.897014,6.928 30.8,9.81039749 30.8,13.364 C30.8,16.9176025 27.897014,19.8 24.314,19.8 Z M21.364,12.2209242 L21.364,17.764 C21.364,18.0953708 21.6326291,18.364 21.964,18.364 C22.2953708,18.364 22.564,18.0953708 22.564,17.764 L22.564,12.2092273 L23.8260038,13.4712311 C24.031029,13.6762563 24.3634406,13.6762563 24.5684659,13.4712311 C24.7734912,13.2662058 24.7734912,12.9337942 24.5684659,12.7287689 L22.3410795,10.5013826 C22.1360543,10.2963573 21.8036427,10.2963573 21.5986174,10.5013826 L19.3712311,12.7287689 C19.1662058,12.9337942 19.1662058,13.2662058 19.3712311,13.4712311 C19.5762563,13.6762563 19.9086679,13.6762563 20.1136932,13.4712311 L21.364,12.2209242 Z" id="standard"></path>
                </g>
            </g>
        </g>
    </g>
</svg>