<?xml version="1.0" encoding="UTF-8"?>
<svg width="19px" height="12px" viewBox="0 0 19 12" version="1.1" xmlns="http://www.w3.org/2000/svg" xmlns:xlink="http://www.w3.org/1999/xlink">
    <!-- Generator: Sketch 53 (72520) - https://sketchapp.com -->
    <title>demo_arrow</title>
    <desc>Created with Sketch.</desc>
    <g id="demo_arrow" stroke="none" stroke-width="1" fill="none" fill-rule="evenodd">
        <path d="M9.04761905,1.18181818 L9.04761905,0.818181818 C9.04761905,0.562966384 9.25451204,0.356073397 9.50972747,0.356073397 C9.59381259,0.356073397 9.67630412,0.379015882 9.74831515,0.422429231 L18.3542968,5.61072439 C18.5692878,5.74033618 18.6385013,6.01969192 18.5088895,6.23468291 C18.4707033,6.29802359 18.4176375,6.35108936 18.3542968,6.38927561 L9.74831515,11.5775708 C9.52974703,11.7093391 9.24574322,11.638974 9.11397488,11.4204059 C9.07056153,11.3483948 9.04761905,11.2659033 9.04761905,11.1818182 L9.04761905,10.8181818 C9.04761905,10.5671433 8.84411212,10.3636364 8.59307359,10.3636364 L0.909090909,10.3636364 C0.407013864,10.3636364 1.1753993e-15,9.9566225 2.22044605e-16,9.45454545 L2.22044605e-16,2.54545455 C1.605579e-16,2.0433775 0.407013864,1.63636364 0.909090909,1.63636364 L8.59307359,1.63636364 C8.84411212,1.63636364 9.04761905,1.4328567 9.04761905,1.18181818 Z" id="arrow" fill="#555555" fill-rule="nonzero"></path>
    </g>
</svg>