<?xml version="1.0" encoding="UTF-8"?>
<svg width="19px" height="19px" viewBox="0 0 19 19" version="1.1" xmlns="http://www.w3.org/2000/svg" xmlns:xlink="http://www.w3.org/1999/xlink">
    <!-- Generator: Sketch 55.1 (78136) - https://sketchapp.com -->
    <title>icon_edit</title>
    <desc>Created with Sketch.</desc>
    <g id="icon_edit" stroke="none" stroke-width="1" fill="none" fill-rule="evenodd">
        <path d="M10.1279822,21.5945972 L7.37798216,16.7724707 C7.35646541,16.734741 7.34514958,16.6920566 7.34514958,16.6486227 L7.34514958,3.76611201 C7.34514958,3.62804082 7.4570784,3.51611201 7.59514958,3.51611201 L13.0951496,3.51611201 C13.2332208,3.51611201 13.3451496,3.62804082 13.3451496,3.76611201 L13.3451496,16.6486227 C13.3451496,16.6920566 13.3338338,16.734741 13.312317,16.7724707 L10.562317,21.5945972 C10.4939177,21.7145355 10.3412399,21.756316 10.2213016,21.6879167 C10.182398,21.6657304 10.1501684,21.6335009 10.1279822,21.5945972 Z M8.84514958,-1.28510126 L11.8451496,-1.28510126 C12.6735767,-1.28510126 13.3451496,-0.613528387 13.3451496,0.214898738 L13.3451496,2.46489874 C13.3451496,2.60296993 13.2332208,2.71489874 13.0951496,2.71489874 L7.59514958,2.71489874 C7.4570784,2.71489874 7.34514958,2.60296993 7.34514958,2.46489874 L7.34514958,0.214898738 C7.34514958,-0.613528387 8.01672246,-1.28510126 8.84514958,-1.28510126 Z" fill="#202020" fill-rule="nonzero" transform="translate(10.345150, 10.345150) rotate(-45.000000) translate(-10.345150, -10.345150) "></path>
    </g>
</svg>