<?xml version="1.0" encoding="UTF-8"?>
<svg width="19px" height="19px" viewBox="0 0 19 19" version="1.1" xmlns="http://www.w3.org/2000/svg" xmlns:xlink="http://www.w3.org/1999/xlink">
    <!-- Generator: Sketch 55.1 (78136) - https://sketchapp.com -->
    <title>icon_edit</title>
    <desc>Created with Sketch.</desc>
    <g id="icon_edit" stroke="none" stroke-width="1" fill="none" fill-rule="evenodd">
        <path d="M7.43036834,17 L12.5696317,17 C12.7077028,17 12.8196317,17.1119288 12.8196317,17.25 C12.8196317,17.2934338 12.8083158,17.3361183 12.7867991,17.3738479 L10.2171674,21.8796985 C10.1487681,21.9996367 9.99609032,22.0414173 9.87615207,21.973018 C9.8372484,21.9508317 9.80501886,21.9186022 9.78283258,21.8796985 L7.21320092,17.3738479 C7.1448016,17.2539097 7.18658215,17.1012319 7.30652041,17.0328326 C7.34425005,17.0113158 7.38693453,17 7.43036834,17 Z M7.25,3.80121327 L12.75,3.80121327 C12.8880712,3.80121327 13,3.91314208 13,4.05121327 L13,15.9512133 C13,16.0892845 12.8880712,16.2012133 12.75,16.2012133 L7.25,16.2012133 C7.11192881,16.2012133 7,16.0892845 7,15.9512133 L7,4.05121327 C7,3.91314208 7.11192881,3.80121327 7.25,3.80121327 Z M8.5,-1 L11.5,-1 C12.3284271,-1 13,-0.328427125 13,0.5 L13,2.75 C13,2.88807119 12.8880712,3 12.75,3 L7.25,3 C7.11192881,3 7,2.88807119 7,2.75 L7,0.5 C7,-0.328427125 7.67157288,-1 8.5,-1 Z" fill="#202020" fill-rule="nonzero" transform="translate(10.000000, 10.502947) rotate(-45.000000) translate(-10.000000, -10.502947) "></path>
    </g>
</svg>