<?xml version="1.0" encoding="UTF-8"?>
<svg width="22px" height="22px" viewBox="0 0 22 22" version="1.1" xmlns="http://www.w3.org/2000/svg" xmlns:xlink="http://www.w3.org/1999/xlink">
    <!-- Generator: Sketch 54.1 (76490) - https://sketchapp.com -->
    <title>icon_save</title>
    <desc>Created with Sketch.</desc>
    <g id="Symbols" stroke="none" stroke-width="1" fill="none" fill-rule="evenodd">
        <g id="header" transform="translate(-636.000000, -61.000000)" fill="#74756F" fill-rule="nonzero">
            <g id="icons">
                <g transform="translate(459.303003, 60.849361)">
                    <g id="icon_save" transform="translate(176.696997, 0.150639)">
                        <path d="M10.3004,9.36378095 L8.62694762,11.0372333 C8.36920159,11.2949794 7.9513127,11.2949794 7.69356667,11.0372333 C7.43582064,10.7794873 7.43582064,10.3615984 7.69356667,10.1038524 L10.4937095,7.30370952 C10.7514556,7.04596349 11.1693444,7.04596349 11.4270905,7.30370952 L14.2272333,10.1038524 C14.4849794,10.3615984 14.4849794,10.7794873 14.2272333,11.0372333 C13.9694873,11.2949794 13.5515984,11.2949794 13.2938524,11.0372333 L11.6204,9.36378095 L11.6204,21.3004 C11.6204,21.6649079 11.3249079,21.9604 10.9604,21.9604 C10.5958921,21.9604 10.3004,21.6649079 10.3004,21.3004 L10.3004,9.36378095 Z M6.58145199,3.69633845 C8.12111521,1.41049499 10.7112528,0 13.5454,0 C18.1700211,0 21.9208,3.72417761 21.9208,8.3204 C21.9208,12.9166224 18.1700211,16.6408 13.5454,16.6408 L13.442,16.6408 C13.0993625,16.6408 12.8216,16.3630375 12.8216,16.0204 C12.8216,15.6777625 13.0993625,15.4 13.442,15.4 L13.5454,15.4 C17.4867154,15.4 20.68,12.2293628 20.68,8.3204 C20.68,4.41143724 17.4867154,1.2408 13.5454,1.2408 C11.0213598,1.2408 8.72668643,2.55133872 7.44125519,4.65320166 C7.32088386,4.85002591 7.10123411,4.96379779 6.87102338,4.94856437 C6.75268621,4.94073381 6.63370512,4.9368 6.5142,4.9368 C3.60079702,4.9368 1.2408,7.28005946 1.2408,10.1684 C1.2408,13.0567405 3.60079702,15.4 6.5142,15.4 L8.4788,15.4 C8.82143746,15.4 9.0992,15.6777625 9.0992,16.0204 C9.0992,16.3630375 8.82143746,16.6408 8.4788,16.6408 L6.5142,16.6408 C2.91749126,16.6408 0,13.7440002 0,10.1684 C0,6.59279983 2.91749126,3.696 6.5142,3.696 C6.53663005,3.696 6.55904757,3.69611286 6.58145199,3.69633845 Z" id="save"></path>
                    </g>
                </g>
            </g>
        </g>
    </g>
</svg>