<?xml version="1.0" encoding="UTF-8"?>
<svg width="8px" height="12px" viewBox="0 0 8 12" version="1.1" xmlns="http://www.w3.org/2000/svg" xmlns:xlink="http://www.w3.org/1999/xlink">
    <!-- Generator: Sketch 55.1 (78136) - https://sketchapp.com -->
    <title>icon_resume</title>
    <desc>Created with Sketch.</desc>
    <g id="{Screens/Flow}" stroke="none" stroke-width="1" fill="none" fill-rule="evenodd">
        <g id="leaderboard" transform="translate(-141.000000, -133.000000)" fill="#202020" fill-rule="nonzero">
            <g id="resume-button" transform="translate(28.000000, 115.000000)">
                <g id="icon_resume" transform="translate(113.437693, 18.276070)">
                    <path d="M6.53116153,6.19276043 L1.35280105,11.3711209 C1.21811337,11.5058086 1.05186076,11.5542112 0.854038232,11.5163303 C0.656215703,11.4784494 0.473127385,11.3753307 0.304767786,11.2069711 C0.153244146,11.0554475 0.0564388289,10.8828815 0.0143489291,10.6892679 C-0.0277409707,10.4956544 0.0227661514,10.3272973 0.165871811,10.1841917 L4.58156712,5.76849636 L0.165871811,1.35280105 C0.0311841314,1.21811337 -0.0172185273,1.05186076 0.0206623825,0.854038232 C0.0585432923,0.656215703 0.161662,0.473127385 0.330021599,0.304767786 C0.481545239,0.153244146 0.654111239,0.0564388289 0.847724778,0.0143489291 C1.04133832,-0.0277409707 1.20969539,0.0227661514 1.35280105,0.165871811 L6.53116153,5.34423229 C6.76547611,5.57854687 6.76547611,5.95844585 6.53116153,6.19276043 Z" id="Path"></path>
                </g>
            </g>
        </g>
    </g>
</svg>