<?xml version="1.0" encoding="UTF-8"?>
<svg width="372px" height="58px" viewBox="0 0 372 58" version="1.1" xmlns="http://www.w3.org/2000/svg" xmlns:xlink="http://www.w3.org/1999/xlink">
    <!-- Generator: Sketch 53 (72520) - https://sketchapp.com -->
    <title>Yougrewyourfrstredfower!Nice.Makesuretokeepitsoitcanpassonitsgenes.</title>
    <desc>Created with Sketch.</desc>
    <g id="[Screens]" stroke="none" stroke-width="1" fill="none" fill-rule="evenodd" opacity="0.8">
        <g id="game-mode" transform="translate(-535.000000, -316.000000)" fill="#000000" fill-rule="nonzero">
            <g id="milestones" transform="translate(431.000000, 303.000000)">
                <g id="milestone_first_red_flower">
                    <path d="M152.903667,14.886 C152.903667,14.6219987 153.064999,14.3946676 153.387667,14.204 C153.710335,14.0133324 154.040332,13.918 154.377667,13.918 C154.700335,13.918 154.957,14.0939982 155.147667,14.446 L158.777667,21.42 L162.385667,14.446 C162.561668,14.0939982 162.818332,13.918 163.155667,13.918 C163.493002,13.918 163.819332,14.0133324 164.134667,14.204 C164.450002,14.3946676 164.607667,14.6219987 164.607667,14.886 C164.607667,15.0180007 164.585667,15.1279996 164.541667,15.216 L159.987667,23.422 C159.958334,23.5100004 159.943667,23.5906663 159.943667,23.664 L159.943667,29.23 C159.943667,29.4646678 159.826335,29.651666 159.591667,29.791 C159.356999,29.930334 159.085669,30 158.777667,30 C158.454999,30 158.180002,29.930334 157.952667,29.791 C157.725333,29.651666 157.611667,29.4646678 157.611667,29.23 L157.611667,23.664 C157.611667,23.6346665 157.589667,23.5540007 157.545667,23.422 L152.991667,15.216 C152.933,15.0986661 152.903667,14.9886672 152.903667,14.886 Z M163.869,25.798 L163.869,23.774 C163.869,22.6153275 164.316329,21.6033377 165.211,20.738 C166.105672,19.8726623 167.176328,19.44 168.423,19.44 C169.64034,19.44 170.703663,19.8689957 171.613,20.727 C172.522338,21.5850043 172.977,22.6006608 172.977,23.774 L172.977,25.798 C172.977,26.9420057 172.518672,27.9576622 171.602,28.845 C170.685329,29.7323378 169.625673,30.176 168.423,30.176 C167.205661,30.176 166.142338,29.7360044 165.233,28.856 C164.323663,27.9759956 163.869,26.9566725 163.869,25.798 Z M166.179,25.798 C166.179,26.3993363 166.398998,26.938331 166.839,27.415 C167.279003,27.8916691 167.806997,28.13 168.423,28.13 C169.024337,28.13 169.548665,27.8916691 169.996,27.415 C170.443336,26.938331 170.667,26.3993363 170.667,25.798 L170.667,23.774 C170.667,23.1873304 170.443336,22.6593357 169.996,22.19 C169.548665,21.7206643 169.024337,21.486 168.423,21.486 C167.806997,21.486 167.279003,21.7206643 166.839,22.19 C166.398998,22.6593357 166.179,23.1873304 166.179,23.774 L166.179,25.798 Z M175.296334,25.842 L175.296334,20.342 C175.296334,20.1366656 175.413666,19.9570008 175.648334,19.803 C175.883002,19.6489992 176.154332,19.572 176.462334,19.572 C176.770335,19.572 177.037999,19.6489992 177.265334,19.803 C177.492668,19.9570008 177.606334,20.1366656 177.606334,20.342 L177.606334,25.842 C177.606334,26.4286696 177.829998,26.9566643 178.277334,27.426 C178.724669,27.8953357 179.248997,28.13 179.850334,28.13 C180.466337,28.13 180.994332,27.8990023 181.434334,27.437 C181.874336,26.9749977 182.094334,26.4433363 182.094334,25.842 L182.094334,20.32 C182.094334,20.1146656 182.207999,19.9386674 182.435334,19.792 C182.662668,19.6453326 182.937665,19.572 183.260334,19.572 C183.583002,19.572 183.850666,19.6453326 184.063334,19.792 C184.276001,19.9386674 184.382334,20.1146656 184.382334,20.32 L184.382334,25.842 C184.382334,27.0006725 183.935005,28.0126623 183.040334,28.878 C182.145663,29.7433377 181.08234,30.176 179.850334,30.176 C178.618328,30.176 177.551338,29.7433377 176.649334,28.878 C175.747329,28.0126623 175.296334,27.0006725 175.296334,25.842 Z M191.089,31.914 C191.089,30.8873282 191.653661,30.1026694 192.783,29.56 C192.093664,29.2666652 191.749,28.78267 191.749,28.108 C191.749,27.4626634 192.115663,26.9053357 192.849,26.436 C191.983663,25.76133 191.551,24.8373392 191.551,23.664 L191.551,23.048 C191.551,21.9919947 191.928663,21.12667 192.684,20.452 C193.439337,19.77733 194.425661,19.44 195.643,19.44 C196.669672,19.44 197.52033,19.6893308 198.195,20.188 C198.620336,19.2053284 199.096998,18.714 199.625,18.714 C199.903668,18.714 200.130999,18.7983325 200.307,18.967 C200.483001,19.1356675 200.571,19.3153324 200.571,19.506 C200.571,19.7406678 200.446335,19.9239993 200.197,20.056 C199.727665,20.2613344 199.361002,20.5546648 199.097,20.936 C199.566336,21.5226696 199.801,22.2266626 199.801,23.048 L199.801,23.664 C199.801,24.7200053 199.412338,25.5926632 198.635,26.282 C197.857663,26.9713368 196.86034,27.316 195.643,27.316 C195.070997,27.316 194.565003,27.2280009 194.125,27.052 C193.846332,27.2426676 193.707,27.4479989 193.707,27.668 C193.707,27.9613348 193.937998,28.1739993 194.4,28.306 C194.862003,28.4380007 195.41933,28.5406663 196.072,28.614 C196.72467,28.6873337 197.37733,28.793666 198.03,28.933 C198.68267,29.072334 199.239998,29.3693311 199.702,29.824 C200.164003,30.2786689 200.395,30.8799963 200.395,31.628 C200.395,32.7280055 199.958671,33.5566639 199.086,34.114 C198.213329,34.6713361 197.109674,34.95 195.775,34.95 C194.440327,34.95 193.325671,34.6750028 192.431,34.125 C191.536329,33.5749972 191.089,32.8380046 191.089,31.914 Z M193.267,31.672 C193.267,32.2000026 193.497998,32.6216651 193.96,32.937 C194.422003,33.2523349 195.019663,33.41 195.753,33.41 C196.471671,33.41 197.050998,33.2560015 197.491,32.948 C197.931003,32.6399985 198.151,32.2220026 198.151,31.694 C198.151,31.356665 198.048335,31.0743345 197.843,30.847 C197.637666,30.6196655 197.333336,30.4510006 196.93,30.341 C196.526665,30.2309994 196.182002,30.1576668 195.896,30.121 C195.609999,30.0843332 195.225003,30.0513335 194.741,30.022 C193.758329,30.3886685 193.267,30.938663 193.267,31.672 Z M193.795,23.642 C193.795,24.2873366 193.963665,24.8153313 194.301,25.226 C194.638335,25.6366687 195.100331,25.842 195.687,25.842 C196.259003,25.842 196.713665,25.6403354 197.051,25.237 C197.388335,24.8336647 197.557,24.3093366 197.557,23.664 L197.557,23.048 C197.557,22.4319969 197.388335,21.9223353 197.051,21.519 C196.713665,21.1156646 196.25167,20.914 195.665,20.914 C195.092997,20.914 194.638335,21.1156646 194.301,21.519 C193.963665,21.9223353 193.795,22.4319969 193.795,23.048 L193.795,23.642 Z M202.450334,29.23 L202.450334,20.32 C202.450334,20.0999989 202.556666,19.920334 202.769334,19.781 C202.982001,19.641666 203.249665,19.572 203.572334,19.572 C203.865668,19.572 204.114999,19.641666 204.320334,19.781 C204.525668,19.920334 204.628334,20.0999989 204.628334,20.32 L204.628334,21.288 C204.877668,20.7746641 205.255331,20.3383351 205.761334,19.979 C206.267336,19.6196649 206.820997,19.44 207.422334,19.44 L208.126334,19.44 C208.361001,19.44 208.566333,19.538999 208.742334,19.737 C208.918335,19.935001 209.006334,20.1733319 209.006334,20.452 C209.006334,20.7306681 208.918335,20.9726656 208.742334,21.178 C208.566333,21.3833344 208.361001,21.486 208.126334,21.486 L207.422334,21.486 C206.71833,21.486 206.09867,21.7866637 205.563334,22.388 C205.027998,22.9893363 204.760334,23.7666619 204.760334,24.72 L204.760334,29.23 C204.760334,29.4206676 204.643001,29.5966659 204.408334,29.758 C204.173666,29.9193341 203.895002,30 203.572334,30 C203.249665,30 202.982001,29.9193341 202.769334,29.758 C202.556666,29.5966659 202.450334,29.4206676 202.450334,29.23 Z M210.093667,25.798 L210.093667,23.708 C210.093667,22.5493275 210.540996,21.5483375 211.435667,20.705 C212.330338,19.8616624 213.408327,19.44 214.669667,19.44 C215.87234,19.44 216.902663,19.8249962 217.760667,20.595 C218.618671,21.3650039 219.047667,22.3366608 219.047667,23.51 C219.047667,23.9500022 218.996334,24.3056653 218.893667,24.577 C218.791,24.8483347 218.629668,25.0389994 218.409667,25.149 C218.189666,25.2590006 217.984335,25.3286665 217.793667,25.358 C217.602999,25.3873335 217.353668,25.402 217.045667,25.402 L212.403667,25.402 L212.403667,25.908 C212.403667,26.641337 212.667664,27.2243312 213.195667,27.657 C213.72367,28.0896688 214.412996,28.306 215.263667,28.306 C215.865003,28.306 216.433331,28.1666681 216.968667,27.888 C217.504003,27.6093319 217.830333,27.47 217.947667,27.47 C218.197002,27.47 218.409666,27.5873322 218.585667,27.822 C218.761668,28.0566678 218.849667,28.2839989 218.849667,28.504 C218.849667,28.8706685 218.49767,29.2409981 217.793667,29.615 C217.089663,29.9890019 216.224339,30.176 215.197667,30.176 C213.701659,30.176 212.477005,29.7726707 211.523667,28.966 C210.570329,28.1593293 210.093667,27.1033399 210.093667,25.798 Z M212.403667,23.972 L216.055667,23.972 C216.378335,23.972 216.594666,23.9280004 216.704667,23.84 C216.814667,23.7519996 216.869667,23.5760013 216.869667,23.312 C216.869667,22.7253304 216.657002,22.2266687 216.231667,21.816 C215.806331,21.4053313 215.278337,21.2 214.647667,21.2 C214.031664,21.2 213.503669,21.3943314 213.063667,21.783 C212.623665,22.1716686 212.403667,22.6666637 212.403667,23.268 L212.403667,23.972 Z M220.311,20.452 C220.311,20.1879987 220.472332,19.9606676 220.795,19.77 C221.117669,19.5793324 221.447665,19.484 221.785,19.484 C222.151669,19.484 222.386333,19.6233319 222.489,19.902 L224.931,26.744 L226.801,20.672 C226.903667,20.334665 227.174998,20.166 227.615,20.166 C228.055002,20.166 228.326333,20.334665 228.429,20.672 L230.277,26.788 L232.741,19.902 C232.829001,19.6233319 233.056332,19.484 233.423,19.484 C233.745669,19.484 234.071999,19.5793324 234.402,19.77 C234.732002,19.9606676 234.897,20.1953319 234.897,20.474 C234.897,20.5913339 234.867667,20.7086661 234.809,20.826 L231.399,29.758 C231.281666,30.0660015 230.973669,30.22 230.475,30.22 C229.976331,30.22 229.661001,30.0733348 229.529,29.78 L227.615,24.104 L225.723,29.714 C225.591,30.051335 225.261003,30.22 224.733,30.22 C224.248998,30.22 223.941001,30.051335 223.809,29.714 L220.399,20.826 C220.340333,20.6499991 220.311,20.5253337 220.311,20.452 Z M241.603667,34.95 C240.884997,34.95 240.525667,34.6200033 240.525667,33.96 C240.525667,33.2999967 240.738331,32.97 241.163667,32.97 C241.82367,32.97 242.47633,32.6546698 243.121667,32.024 C243.767003,31.3933302 244.162999,30.5060057 244.309667,29.362 L240.613667,20.826 C240.555,20.7526663 240.525667,20.6500007 240.525667,20.518 C240.525667,20.2393319 240.694332,19.9863345 241.031667,19.759 C241.369002,19.5316655 241.706332,19.418 242.043667,19.418 C242.410335,19.418 242.645,19.5573319 242.747667,19.836 L245.519667,26.986 L247.895667,19.836 C248.027668,19.5573319 248.247665,19.418 248.555667,19.418 C248.863668,19.418 249.197332,19.5316655 249.556667,19.759 C249.916002,19.9863345 250.095667,20.2539985 250.095667,20.562 C250.095667,20.6940007 250.081,20.7819998 250.051667,20.826 L246.795667,29.428 L246.421667,30.418 C246.333666,30.6233344 246.198001,30.9386645 246.014667,31.364 C245.831333,31.7893355 245.673668,32.1119989 245.541667,32.332 L245.013667,33.146 C244.793666,33.483335 244.573668,33.7363325 244.353667,33.905 C244.133666,34.0736675 243.884335,34.2496657 243.605667,34.433 C243.326999,34.6163343 243.019002,34.7483329 242.681667,34.829 C242.344332,34.9096671 241.985002,34.95 241.603667,34.95 Z M251.535,25.798 L251.535,23.774 C251.535,22.6153275 251.982329,21.6033377 252.877,20.738 C253.771671,19.8726623 254.842327,19.44 256.089,19.44 C257.30634,19.44 258.369662,19.8689957 259.279,20.727 C260.188338,21.5850043 260.643,22.6006608 260.643,23.774 L260.643,25.798 C260.643,26.9420057 260.184671,27.9576622 259.268,28.845 C258.351329,29.7323378 257.291673,30.176 256.089,30.176 C254.871661,30.176 253.808338,29.7360044 252.899,28.856 C251.989662,27.9759956 251.535,26.9566725 251.535,25.798 Z M253.845,25.798 C253.845,26.3993363 254.064998,26.938331 254.505,27.415 C254.945002,27.8916691 255.472997,28.13 256.089,28.13 C256.690336,28.13 257.214665,27.8916691 257.662,27.415 C258.109336,26.938331 258.333,26.3993363 258.333,25.798 L258.333,23.774 C258.333,23.1873304 258.109336,22.6593357 257.662,22.19 C257.214665,21.7206643 256.690336,21.486 256.089,21.486 C255.472997,21.486 254.945002,21.7206643 254.505,22.19 C254.064998,22.6593357 253.845,23.1873304 253.845,23.774 L253.845,25.798 Z M262.962333,25.842 L262.962333,20.342 C262.962333,20.1366656 263.079666,19.9570008 263.314333,19.803 C263.549001,19.6489992 263.820332,19.572 264.128333,19.572 C264.436335,19.572 264.703999,19.6489992 264.931333,19.803 C265.158668,19.9570008 265.272333,20.1366656 265.272333,20.342 L265.272333,25.842 C265.272333,26.4286696 265.495998,26.9566643 265.943333,27.426 C266.390669,27.8953357 266.914997,28.13 267.516333,28.13 C268.132337,28.13 268.660331,27.8990023 269.100333,27.437 C269.540336,26.9749977 269.760333,26.4433363 269.760333,25.842 L269.760333,20.32 C269.760333,20.1146656 269.873999,19.9386674 270.101333,19.792 C270.328668,19.6453326 270.603665,19.572 270.926333,19.572 C271.249002,19.572 271.516666,19.6453326 271.729333,19.792 C271.942001,19.9386674 272.048333,20.1146656 272.048333,20.32 L272.048333,25.842 C272.048333,27.0006725 271.601005,28.0126623 270.706333,28.878 C269.811662,29.7433377 268.74834,30.176 267.516333,30.176 C266.284327,30.176 265.217338,29.7433377 264.315333,28.878 C263.413329,28.0126623 262.962333,27.0006725 262.962333,25.842 Z M274.763667,29.23 L274.763667,20.32 C274.763667,20.0999989 274.869999,19.920334 275.082667,19.781 C275.295334,19.641666 275.562998,19.572 275.885667,19.572 C276.179002,19.572 276.428332,19.641666 276.633667,19.781 C276.839001,19.920334 276.941667,20.0999989 276.941667,20.32 L276.941667,21.288 C277.191001,20.7746641 277.568664,20.3383351 278.074667,19.979 C278.580669,19.6196649 279.13433,19.44 279.735667,19.44 L280.439667,19.44 C280.674335,19.44 280.879666,19.538999 281.055667,19.737 C281.231668,19.935001 281.319667,20.1733319 281.319667,20.452 C281.319667,20.7306681 281.231668,20.9726656 281.055667,21.178 C280.879666,21.3833344 280.674335,21.486 280.439667,21.486 L279.735667,21.486 C279.031663,21.486 278.412003,21.7866637 277.876667,22.388 C277.341331,22.9893363 277.073667,23.7666619 277.073667,24.72 L277.073667,29.23 C277.073667,29.4206676 276.956335,29.5966659 276.721667,29.758 C276.486999,29.9193341 276.208335,30 275.885667,30 C275.562998,30 275.295334,29.9193341 275.082667,29.758 C274.869999,29.5966659 274.763667,29.4206676 274.763667,29.23 Z M287.872333,29.252 L287.872333,17.966 C287.872333,16.7046604 288.337995,15.6230045 289.269333,14.721 C290.200671,13.8189955 291.443659,13.368 292.998333,13.368 C293.907671,13.368 294.73633,13.5146652 295.484333,13.808 C296.232337,14.1013348 296.606333,14.4533313 296.606333,14.864 C296.606333,15.0840011 296.525667,15.3589984 296.364333,15.689 C296.202999,16.0190016 296.005001,16.184 295.770333,16.184 C295.652999,16.184 295.484334,16.114334 295.264333,15.975 C295.044332,15.835666 294.743669,15.696334 294.362333,15.557 C293.980998,15.417666 293.533669,15.348 293.020333,15.348 C292.096329,15.348 291.392336,15.5826643 290.908333,16.052 C290.424331,16.5213357 290.182333,17.122663 290.182333,17.856 L290.182333,19.572 L292.646333,19.572 C292.837001,19.572 292.990999,19.6563325 293.108333,19.825 C293.225667,19.9936675 293.284333,20.1953322 293.284333,20.43 C293.284333,20.6646678 293.225667,20.8663325 293.108333,21.035 C292.990999,21.2036675 292.837001,21.288 292.646333,21.288 L290.182333,21.288 L290.182333,29.252 C290.182333,29.4720011 290.065001,29.651666 289.830333,29.791 C289.595666,29.930334 289.317002,30 288.994333,30 C288.671665,30 288.404001,29.930334 288.191333,29.791 C287.978666,29.651666 287.872333,29.4720011 287.872333,29.252 Z M295.110333,29.23 L295.110333,20.32 C295.110333,20.0999989 295.216666,19.920334 295.429333,19.781 C295.642001,19.641666 295.909665,19.572 296.232333,19.572 C296.569668,19.572 296.851999,19.641666 297.079333,19.781 C297.306668,19.920334 297.420333,20.0999989 297.420333,20.32 L297.420333,29.23 C297.420333,29.4206676 297.303001,29.5966659 297.068333,29.758 C296.833666,29.9193341 296.555002,30 296.232333,30 C295.924332,30 295.660334,29.9193341 295.440333,29.758 C295.220332,29.5966659 295.110333,29.4206676 295.110333,29.23 Z M300.201667,29.23 L300.201667,20.32 C300.201667,20.0999989 300.307999,19.920334 300.520667,19.781 C300.733334,19.641666 301.000998,19.572 301.323667,19.572 C301.617001,19.572 301.866332,19.641666 302.071667,19.781 C302.277001,19.920334 302.379667,20.0999989 302.379667,20.32 L302.379667,21.288 C302.629001,20.7746641 303.006664,20.3383351 303.512667,19.979 C304.018669,19.6196649 304.57233,19.44 305.173667,19.44 L305.877667,19.44 C306.112334,19.44 306.317666,19.538999 306.493667,19.737 C306.669668,19.935001 306.757667,20.1733319 306.757667,20.452 C306.757667,20.7306681 306.669668,20.9726656 306.493667,21.178 C306.317666,21.3833344 306.112334,21.486 305.877667,21.486 L305.173667,21.486 C304.469663,21.486 303.850003,21.7866637 303.314667,22.388 C302.779331,22.9893363 302.511667,23.7666619 302.511667,24.72 L302.511667,29.23 C302.511667,29.4206676 302.394334,29.5966659 302.159667,29.758 C301.924999,29.9193341 301.646335,30 301.323667,30 C301.000998,30 300.733334,29.9193341 300.520667,29.758 C300.307999,29.5966659 300.201667,29.4206676 300.201667,29.23 Z M307.889,28.416 C307.889,28.1959989 307.965999,27.9686678 308.12,27.734 C308.274001,27.4993322 308.460999,27.382 308.681,27.382 C308.813001,27.382 308.996332,27.4663325 309.231,27.635 C309.465668,27.8036675 309.780998,27.9723325 310.177,28.141 C310.573002,28.3096675 311.049664,28.394 311.607,28.394 C312.853673,28.394 313.477,27.998004 313.477,27.206 C313.477,26.7806645 313.293668,26.4470012 312.927,26.205 C312.560331,25.9629988 312.116669,25.772334 311.596,25.633 C311.075331,25.493666 310.558336,25.3360009 310.045,25.16 C309.531664,24.9839991 309.091668,24.6833355 308.725,24.258 C308.358331,23.8326645 308.175,23.28267 308.175,22.608 C308.175,21.7426623 308.482997,20.9983364 309.099,20.375 C309.715003,19.7516636 310.660994,19.44 311.937,19.44 C312.773004,19.44 313.531997,19.568332 314.214,19.825 C314.896003,20.0816679 315.237,20.3859982 315.237,20.738 C315.237,20.9433344 315.152667,21.1816653 314.984,21.453 C314.815332,21.7243347 314.606335,21.86 314.357,21.86 C314.269,21.86 313.968336,21.7536677 313.455,21.541 C312.941664,21.3283323 312.450336,21.222 311.981,21.222 C311.39433,21.222 310.950668,21.3539987 310.65,21.618 C310.349332,21.8820013 310.199,22.1753317 310.199,22.498 C310.199,22.8500018 310.382331,23.1286656 310.749,23.334 C311.115668,23.5393344 311.562997,23.7079993 312.091,23.84 C312.619003,23.9720007 313.143331,24.1333324 313.664,24.324 C314.184669,24.5146676 314.628331,24.8446643 314.995,25.314 C315.361668,25.7833357 315.545,26.384663 315.545,27.118 C315.545,28.0713381 315.20767,28.8193306 314.533,29.362 C313.85833,29.9046694 312.905006,30.176 311.673,30.176 C310.631661,30.176 309.74067,29.9926685 309,29.626 C308.25933,29.2593315 307.889,28.8560022 307.889,28.416 Z M317.754333,26.568 L317.754333,15.546 C317.754333,15.3406656 317.871665,15.1646674 318.106333,15.018 C318.341001,14.8713326 318.604998,14.798 318.898333,14.798 C319.191668,14.798 319.459332,14.8713326 319.701333,15.018 C319.943334,15.1646674 320.064333,15.3406656 320.064333,15.546 L320.064333,19.572 L322.748333,19.572 C322.939001,19.572 323.092999,19.6563325 323.210333,19.825 C323.327667,19.9936675 323.386333,20.1953322 323.386333,20.43 C323.386333,20.6646678 323.327667,20.8663325 323.210333,21.035 C323.092999,21.2036675 322.939001,21.288 322.748333,21.288 L320.064333,21.288 L320.064333,26.568 C320.064333,27.0960026 320.177999,27.4699989 320.405333,27.69 C320.632668,27.9100011 321.03233,28.02 321.604333,28.02 L322.374333,28.02 C322.682335,28.02 322.924332,28.1153324 323.100333,28.306 C323.276334,28.4966676 323.364333,28.7313319 323.364333,29.01 C323.364333,29.2886681 323.276334,29.5233324 323.100333,29.714 C322.924332,29.9046676 322.682335,30 322.374333,30 L321.604333,30 C319.037654,30 317.754333,28.8560114 317.754333,26.568 Z M330.181,29.23 L330.181,20.32 C330.181,20.0999989 330.287332,19.920334 330.5,19.781 C330.712668,19.641666 330.980332,19.572 331.303,19.572 C331.596335,19.572 331.845665,19.641666 332.051,19.781 C332.256334,19.920334 332.359,20.0999989 332.359,20.32 L332.359,21.288 C332.608334,20.7746641 332.985997,20.3383351 333.492,19.979 C333.998002,19.6196649 334.551664,19.44 335.153,19.44 L335.857,19.44 C336.091668,19.44 336.296999,19.538999 336.473,19.737 C336.649001,19.935001 336.737,20.1733319 336.737,20.452 C336.737,20.7306681 336.649001,20.9726656 336.473,21.178 C336.296999,21.3833344 336.091668,21.486 335.857,21.486 L335.153,21.486 C334.448996,21.486 333.829336,21.7866637 333.294,22.388 C332.758664,22.9893363 332.491,23.7666619 332.491,24.72 L332.491,29.23 C332.491,29.4206676 332.373668,29.5966659 332.139,29.758 C331.904332,29.9193341 331.625668,30 331.303,30 C330.980332,30 330.712668,29.9193341 330.5,29.758 C330.287332,29.5966659 330.181,29.4206676 330.181,29.23 Z M337.824333,25.798 L337.824333,23.708 C337.824333,22.5493275 338.271662,21.5483375 339.166333,20.705 C340.061004,19.8616624 341.138994,19.44 342.400333,19.44 C343.603006,19.44 344.633329,19.8249962 345.491333,20.595 C346.349337,21.3650039 346.778333,22.3366608 346.778333,23.51 C346.778333,23.9500022 346.727,24.3056653 346.624333,24.577 C346.521666,24.8483347 346.360334,25.0389994 346.140333,25.149 C345.920332,25.2590006 345.715001,25.3286665 345.524333,25.358 C345.333666,25.3873335 345.084335,25.402 344.776333,25.402 L340.134333,25.402 L340.134333,25.908 C340.134333,26.641337 340.398331,27.2243312 340.926333,27.657 C341.454336,28.0896688 342.143662,28.306 342.994333,28.306 C343.595669,28.306 344.163997,28.1666681 344.699333,27.888 C345.234669,27.6093319 345.560999,27.47 345.678333,27.47 C345.927668,27.47 346.140332,27.5873322 346.316333,27.822 C346.492334,28.0566678 346.580333,28.2839989 346.580333,28.504 C346.580333,28.8706685 346.228337,29.2409981 345.524333,29.615 C344.82033,29.9890019 343.955005,30.176 342.928333,30.176 C341.432326,30.176 340.207671,29.7726707 339.254333,28.966 C338.300995,28.1593293 337.824333,27.1033399 337.824333,25.798 Z M340.134333,23.972 L343.786333,23.972 C344.109001,23.972 344.325333,23.9280004 344.435333,23.84 C344.545334,23.7519996 344.600333,23.5760013 344.600333,23.312 C344.600333,22.7253304 344.387669,22.2266687 343.962333,21.816 C343.536998,21.4053313 343.009003,21.2 342.378333,21.2 C341.76233,21.2 341.234335,21.3943314 340.794333,21.783 C340.354331,22.1716686 340.134333,22.6666637 340.134333,23.268 L340.134333,23.972 Z M348.635666,25.798 L348.635666,23.774 C348.635666,22.5859941 349.020663,21.5666709 349.790666,20.716 C350.56067,19.8653291 351.488328,19.44 352.573666,19.44 C353.219003,19.44 353.790997,19.6013317 354.289666,19.924 C354.788336,20.2466683 355.169665,20.6426643 355.433666,21.112 L355.433666,14.116 C355.433666,13.8959989 355.543665,13.716334 355.763666,13.577 C355.983668,13.437666 356.262331,13.368 356.599666,13.368 C356.937001,13.368 357.211999,13.437666 357.424666,13.577 C357.637334,13.716334 357.743666,13.8959989 357.743666,14.116 L357.743666,29.23 C357.743666,29.4206676 357.633668,29.5966659 357.413666,29.758 C357.193665,29.9193341 356.922335,30 356.599666,30 C356.320998,30 356.075334,29.9193341 355.862666,29.758 C355.649999,29.5966659 355.543666,29.4206676 355.543666,29.23 L355.543666,28.46 C355.308999,28.9293357 354.909336,29.332665 354.344666,29.67 C353.779997,30.007335 353.16767,30.176 352.507666,30.176 C351.480995,30.176 350.579004,29.7323378 349.801666,28.845 C349.024329,27.9576622 348.635666,26.9420057 348.635666,25.798 Z M350.945666,25.798 C350.945666,26.3993363 351.165664,26.938331 351.605666,27.415 C352.045669,27.8916691 352.56633,28.13 353.167666,28.13 C353.739669,28.13 354.260331,27.9063356 354.729666,27.459 C355.199002,27.0116644 355.433666,26.6266683 355.433666,26.304 L355.433666,23.774 C355.433666,23.09933 355.206335,22.5493355 354.751666,22.124 C354.296998,21.6986645 353.776336,21.486 353.189666,21.486 C352.58833,21.486 352.064002,21.7206643 351.616666,22.19 C351.169331,22.6593357 350.945666,23.1873304 350.945666,23.774 L350.945666,25.798 Z M365.374333,29.252 L365.374333,17.966 C365.374333,16.557993 365.902328,15.4396708 366.958333,14.611 C368.014338,13.7823292 369.282992,13.368 370.764333,13.368 C371.571004,13.368 372.362996,13.4889988 373.140333,13.731 C373.91767,13.9730012 374.518998,14.3213311 374.944333,14.776 L374.944333,29.23 C374.944333,29.4206676 374.827001,29.5966659 374.592333,29.758 C374.357665,29.9193341 374.079001,30 373.756333,30 C373.448332,30 373.184334,29.9193341 372.964333,29.758 C372.744332,29.5966659 372.634333,29.4206676 372.634333,29.23 L372.634333,15.876 C372.164997,15.479998 371.512337,15.282 370.676333,15.282 C369.869662,15.282 369.169336,15.5129977 368.575333,15.975 C367.98133,16.4370023 367.684333,17.063996 367.684333,17.856 L367.684333,19.572 L370.148333,19.572 C370.339001,19.572 370.492999,19.6563325 370.610333,19.825 C370.727667,19.9936675 370.786333,20.1953322 370.786333,20.43 C370.786333,20.6646678 370.727667,20.8663325 370.610333,21.035 C370.492999,21.2036675 370.339001,21.288 370.148333,21.288 L367.684333,21.288 L367.684333,29.252 C367.684333,29.4720011 367.567001,29.651666 367.332333,29.791 C367.097665,29.930334 366.819001,30 366.496333,30 C366.173665,30 365.906001,29.930334 365.693333,29.791 C365.480665,29.651666 365.374333,29.4720011 365.374333,29.252 Z M377.527666,25.798 L377.527666,23.774 C377.527666,22.6153275 377.974995,21.6033377 378.869666,20.738 C379.764337,19.8726623 380.834993,19.44 382.081666,19.44 C383.299006,19.44 384.362328,19.8689957 385.271666,20.727 C386.181004,21.5850043 386.635666,22.6006608 386.635666,23.774 L386.635666,25.798 C386.635666,26.9420057 386.177338,27.9576622 385.260666,28.845 C384.343995,29.7323378 383.284339,30.176 382.081666,30.176 C380.864327,30.176 379.801004,29.7360044 378.891666,28.856 C377.982328,27.9759956 377.527666,26.9566725 377.527666,25.798 Z M379.837666,25.798 C379.837666,26.3993363 380.057664,26.938331 380.497666,27.415 C380.937669,27.8916691 381.465663,28.13 382.081666,28.13 C382.683003,28.13 383.207331,27.8916691 383.654666,27.415 C384.102002,26.938331 384.325666,26.3993363 384.325666,25.798 L384.325666,23.774 C384.325666,23.1873304 384.102002,22.6593357 383.654666,22.19 C383.207331,21.7206643 382.683003,21.486 382.081666,21.486 C381.465663,21.486 380.937669,21.7206643 380.497666,22.19 C380.057664,22.6593357 379.837666,23.1873304 379.837666,23.774 L379.837666,25.798 Z M388.053,20.452 C388.053,20.1879987 388.214331,19.9606676 388.537,19.77 C388.859668,19.5793324 389.189665,19.484 389.527,19.484 C389.893668,19.484 390.128332,19.6233319 390.231,19.902 L392.673,26.744 L394.543,20.672 C394.645667,20.334665 394.916997,20.166 395.357,20.166 C395.797002,20.166 396.068332,20.334665 396.171,20.672 L398.019,26.788 L400.483,19.902 C400.571,19.6233319 400.798331,19.484 401.165,19.484 C401.487668,19.484 401.813998,19.5793324 402.144,19.77 C402.474001,19.9606676 402.639,20.1953319 402.639,20.474 C402.639,20.5913339 402.609667,20.7086661 402.551,20.826 L399.141,29.758 C399.023666,30.0660015 398.715669,30.22 398.217,30.22 C397.71833,30.22 397.403,30.0733348 397.271,29.78 L395.357,24.104 L393.465,29.714 C393.332999,30.051335 393.003002,30.22 392.475,30.22 C391.990997,30.22 391.683,30.051335 391.551,29.714 L388.141,20.826 C388.082333,20.6499991 388.053,20.5253337 388.053,20.452 Z M404.078333,25.798 L404.078333,23.708 C404.078333,22.5493275 404.525662,21.5483375 405.420333,20.705 C406.315004,19.8616624 407.392993,19.44 408.654333,19.44 C409.857006,19.44 410.887329,19.8249962 411.745333,20.595 C412.603337,21.3650039 413.032333,22.3366608 413.032333,23.51 C413.032333,23.9500022 412.981,24.3056653 412.878333,24.577 C412.775666,24.8483347 412.614334,25.0389994 412.394333,25.149 C412.174332,25.2590006 411.969001,25.3286665 411.778333,25.358 C411.587665,25.3873335 411.338334,25.402 411.030333,25.402 L406.388333,25.402 L406.388333,25.908 C406.388333,26.641337 406.65233,27.2243312 407.180333,27.657 C407.708336,28.0896688 408.397662,28.306 409.248333,28.306 C409.849669,28.306 410.417997,28.1666681 410.953333,27.888 C411.488669,27.6093319 411.814999,27.47 411.932333,27.47 C412.181668,27.47 412.394332,27.5873322 412.570333,27.822 C412.746334,28.0566678 412.834333,28.2839989 412.834333,28.504 C412.834333,28.8706685 412.482336,29.2409981 411.778333,29.615 C411.074329,29.9890019 410.209005,30.176 409.182333,30.176 C407.686325,30.176 406.461671,29.7726707 405.508333,28.966 C404.554995,28.1593293 404.078333,27.1033399 404.078333,25.798 Z M406.388333,23.972 L410.040333,23.972 C410.363001,23.972 410.579332,23.9280004 410.689333,23.84 C410.799333,23.7519996 410.854333,23.5760013 410.854333,23.312 C410.854333,22.7253304 410.641668,22.2266687 410.216333,21.816 C409.790997,21.4053313 409.263003,21.2 408.632333,21.2 C408.01633,21.2 407.488335,21.3943314 407.048333,21.783 C406.608331,22.1716686 406.388333,22.6666637 406.388333,23.268 L406.388333,23.972 Z M415.285666,29.23 L415.285666,20.32 C415.285666,20.0999989 415.391999,19.920334 415.604666,19.781 C415.817334,19.641666 416.084998,19.572 416.407666,19.572 C416.701001,19.572 416.950332,19.641666 417.155666,19.781 C417.361001,19.920334 417.463666,20.0999989 417.463666,20.32 L417.463666,21.288 C417.713001,20.7746641 418.090664,20.3383351 418.596666,19.979 C419.102669,19.6196649 419.65633,19.44 420.257666,19.44 L420.961666,19.44 C421.196334,19.44 421.401665,19.538999 421.577666,19.737 C421.753667,19.935001 421.841666,20.1733319 421.841666,20.452 C421.841666,20.7306681 421.753667,20.9726656 421.577666,21.178 C421.401665,21.3833344 421.196334,21.486 420.961666,21.486 L420.257666,21.486 C419.553663,21.486 418.934002,21.7866637 418.398666,22.388 C417.86333,22.9893363 417.595666,23.7666619 417.595666,24.72 L417.595666,29.23 C417.595666,29.4206676 417.478334,29.5966659 417.243666,29.758 C417.008998,29.9193341 416.730335,30 416.407666,30 C416.084998,30 415.817334,29.9193341 415.604666,29.758 C415.391999,29.5966659 415.285666,29.4206676 415.285666,29.23 Z M423.391,28.812 C423.391,28.4453315 423.519332,28.133668 423.776,27.877 C424.032667,27.6203321 424.344331,27.492 424.711,27.492 C425.063001,27.492 425.367332,27.6203321 425.624,27.877 C425.880667,28.133668 426.009,28.4453315 426.009,28.812 C426.009,29.1640018 425.880667,29.4719987 425.624,29.736 C425.367332,30.0000013 425.063001,30.132 424.711,30.132 C424.344331,30.132 424.032667,30.0000013 423.776,29.736 C423.519332,29.4719987 423.391,29.1640018 423.391,28.812 Z M423.523,14.82 C423.523,14.482665 423.632998,14.2223343 423.853,14.039 C424.073001,13.8556658 424.351665,13.764 424.689,13.764 C425.026335,13.764 425.304998,13.8593324 425.525,14.05 C425.745001,14.2406676 425.855,14.4973317 425.855,14.82 C425.855,15.8760053 425.807333,17.5993214 425.712,19.99 C425.616666,22.3806786 425.569,24.1039947 425.569,25.16 C425.569,25.3800011 425.473667,25.5523327 425.283,25.677 C425.092332,25.8016673 424.894334,25.864 424.689,25.864 C424.087663,25.864 423.787,25.6293357 423.787,25.16 C423.787,24.1039947 423.743,22.3806786 423.655,19.99 C423.566999,17.5993214 423.523,15.8760053 423.523,14.82 Z M104.624334,66.032 L104.624334,53.792 C104.624334,53.4919985 104.822332,53.342 105.218334,53.342 C105.554336,53.342 105.866333,53.6179972 106.154334,54.17 L111.014334,63.746 L111.014334,53.774 C111.014334,53.4859986 111.212332,53.342 111.608334,53.342 C112.004336,53.342 112.202334,53.4859986 112.202334,53.774 L112.202334,66.032 C112.202334,66.1760007 112.142335,66.2899996 112.022334,66.374 C111.902334,66.4580004 111.764335,66.5 111.608334,66.5 C111.308333,66.5 111.044335,66.2720023 110.816334,65.816 L105.812334,56.078 L105.812334,66.032 C105.812334,66.1760007 105.752335,66.2899996 105.632334,66.374 C105.512334,66.4580004 105.374335,66.5 105.218334,66.5 C105.050333,66.5 104.909335,66.4580004 104.795334,66.374 C104.681334,66.2899996 104.624334,66.1760007 104.624334,66.032 Z M115.087668,55.25 C114.931667,55.0939992 114.853668,54.914001 114.853668,54.71 C114.853668,54.505999 114.931667,54.3320007 115.087668,54.188 C115.243668,54.0439993 115.435666,53.972 115.663668,53.972 C115.879669,53.972 116.062667,54.0439993 116.212668,54.188 C116.362668,54.3320007 116.437668,54.505999 116.437668,54.71 C116.437668,54.914001 116.362668,55.0909993 116.212668,55.241 C116.062667,55.3910008 115.879669,55.466 115.663668,55.466 C115.435666,55.466 115.243668,55.3940007 115.087668,55.25 Z M115.087668,66.032 L115.087668,58.418 C115.087668,58.2979994 115.141667,58.1960004 115.249668,58.112 C115.357668,58.0279996 115.495667,57.986 115.663668,57.986 C115.831668,57.986 115.972667,58.0279996 116.086668,58.112 C116.200668,58.1960004 116.257668,58.2979994 116.257668,58.418 L116.257668,66.032 C116.257668,66.1520006 116.197668,66.2599995 116.077668,66.356 C115.957667,66.4520005 115.819668,66.5 115.663668,66.5 C115.507667,66.5 115.372668,66.4520005 115.258668,66.356 C115.144667,66.2599995 115.087668,66.1520006 115.087668,66.032 Z M118.603001,63.206 L118.603001,61.28 C118.603001,60.271995 118.896998,59.4530032 119.485001,58.823 C120.073004,58.1929969 120.936995,57.878 122.077001,57.878 C122.797004,57.878 123.399998,58.0069987 123.886001,58.265 C124.372003,58.5230013 124.615001,58.7839987 124.615001,59.048 C124.615001,59.1800007 124.561001,59.3089994 124.453001,59.435 C124.345,59.5610006 124.225002,59.624 124.093001,59.624 C124.021,59.624 123.910002,59.5700005 123.760001,59.462 C123.61,59.3539995 123.397002,59.2430006 123.121001,59.129 C122.844999,59.0149994 122.515003,58.958 122.131001,58.958 C121.362997,58.958 120.778003,59.161998 120.376001,59.57 C119.973999,59.978002 119.773001,60.5479963 119.773001,61.28 L119.773001,63.206 C119.773001,63.9500037 119.973999,64.525998 120.376001,64.934 C120.778003,65.342002 121.368997,65.546 122.149001,65.546 C122.557003,65.546 122.901999,65.4890006 123.184001,65.375 C123.466002,65.2609994 123.682,65.1470006 123.832001,65.033 C123.982002,64.9189994 124.099,64.862 124.183001,64.862 C124.339002,64.862 124.468,64.9219994 124.570001,65.042 C124.672001,65.1620006 124.723001,65.2939993 124.723001,65.438 C124.723001,65.7140014 124.471003,65.9809987 123.967001,66.239 C123.462998,66.4970013 122.839005,66.626 122.095001,66.626 C120.942995,66.626 120.073004,66.3140031 119.485001,65.69 C118.896998,65.0659969 118.603001,64.2380052 118.603001,63.206 Z M126.276334,63.206 L126.276334,61.19 C126.276334,60.2899955 126.612331,59.5130033 127.284334,58.859 C127.956338,58.2049967 128.766329,57.878 129.714334,57.878 C130.626339,57.878 131.415331,58.1899969 132.081334,58.814 C132.747337,59.4380031 133.080334,60.2179953 133.080334,61.154 C133.080334,61.4900017 133.041335,61.759999 132.963334,61.964 C132.885334,62.168001 132.759335,62.3119996 132.585334,62.396 C132.411333,62.4800004 132.252335,62.5339999 132.108334,62.558 C131.964333,62.5820001 131.766335,62.594 131.514334,62.594 L127.446334,62.594 L127.446334,63.26 C127.446334,63.9680035 127.701332,64.5349979 128.211334,64.961 C128.721337,65.3870021 129.37833,65.6 130.182334,65.6 C130.590336,65.6 130.947333,65.5400006 131.253334,65.42 C131.559336,65.2999994 131.793333,65.1800006 131.955334,65.06 C132.117335,64.9399994 132.246334,64.88 132.342334,64.88 C132.474335,64.88 132.591334,64.9429994 132.693334,65.069 C132.795335,65.1950006 132.846334,65.3179994 132.846334,65.438 C132.846334,65.6900013 132.588337,65.9509987 132.072334,66.221 C131.556332,66.4910014 130.914338,66.626 130.146334,66.626 C129.006328,66.626 128.076338,66.3110032 127.356334,65.681 C126.636331,65.0509969 126.276334,64.2260051 126.276334,63.206 Z M127.446334,61.73 L131.046334,61.73 C131.406336,61.73 131.646334,61.6910004 131.766334,61.613 C131.886335,61.5349996 131.946334,61.3700013 131.946334,61.118 C131.946334,60.517997 131.733336,59.9900023 131.307334,59.534 C130.881332,59.0779977 130.344337,58.85 129.696334,58.85 C129.072331,58.85 128.541336,59.0659978 128.103334,59.498 C127.665332,59.9300022 127.446334,60.445997 127.446334,61.046 L127.446334,61.73 Z M134.813667,65.78 C134.813667,65.5399988 134.891667,65.3390008 135.047667,65.177 C135.203668,65.0149992 135.401666,64.934 135.641667,64.934 C135.857669,64.934 136.046667,65.0179992 136.208667,65.186 C136.370668,65.3540008 136.451667,65.5519989 136.451667,65.78 C136.451667,65.9960011 136.370668,66.1879992 136.208667,66.356 C136.046667,66.5240008 135.857669,66.608 135.641667,66.608 C135.401666,66.608 135.203668,66.5270008 135.047667,66.365 C134.891667,66.2029992 134.813667,66.0080011 134.813667,65.78 Z M142.906334,66.032 L142.906334,53.918 C142.906334,53.5339981 143.104332,53.342 143.500334,53.342 C143.848336,53.342 144.166333,53.6179972 144.454334,54.17 L147.550334,60.146 L150.646334,54.17 C150.934335,53.6179972 151.252332,53.342 151.600334,53.342 C151.996336,53.342 152.194334,53.5339981 152.194334,53.918 L152.194334,66.032 C152.194334,66.1760007 152.137335,66.2899996 152.023334,66.374 C151.909333,66.4580004 151.768335,66.5 151.600334,66.5 C151.444333,66.5 151.306335,66.4580004 151.186334,66.374 C151.066333,66.2899996 151.006334,66.1760007 151.006334,66.032 L151.006334,55.916 L148.018334,61.568 C147.886333,61.8200013 147.724335,61.946 147.532334,61.946 C147.352333,61.946 147.196335,61.8200013 147.064334,61.568 L144.094334,55.862 L144.094334,66.032 C144.094334,66.1760007 144.034335,66.2899996 143.914334,66.374 C143.794333,66.4580004 143.656335,66.5 143.500334,66.5 C143.332333,66.5 143.191335,66.4580004 143.077334,66.374 C142.963333,66.2899996 142.906334,66.1760007 142.906334,66.032 Z M154.485667,64.25 C154.485667,63.3259954 154.842664,62.6840018 155.556667,62.324 C156.270671,61.9639982 157.311661,61.784 158.679667,61.784 L159.597667,61.784 L159.597667,61.352 C159.597667,60.6919967 159.423669,60.1190024 159.075667,59.633 C158.727666,59.1469976 158.193671,58.904 157.473667,58.904 C156.993665,58.904 156.558669,58.9909991 156.168667,59.165 C155.778665,59.3390009 155.571667,59.426 155.547667,59.426 C155.403667,59.426 155.289668,59.3600007 155.205667,59.228 C155.121667,59.0959993 155.079667,58.9520008 155.079667,58.796 C155.079667,58.5679989 155.337665,58.358001 155.853667,58.166 C156.36967,57.973999 156.921664,57.878 157.509667,57.878 C158.637673,57.878 159.462665,58.2049967 159.984667,58.859 C160.50667,59.5130033 160.767667,60.343995 160.767667,61.352 L160.767667,66.032 C160.767667,66.1640007 160.713668,66.2749996 160.605667,66.365 C160.497667,66.4550005 160.359668,66.5 160.191667,66.5 C160.035667,66.5 159.906668,66.4550005 159.804667,66.365 C159.702667,66.2749996 159.651667,66.1640007 159.651667,66.032 L159.651667,65.24 C158.847663,66.1640046 157.941672,66.626 156.933667,66.626 C156.213664,66.626 155.62567,66.425002 155.169667,66.023 C154.713665,65.620998 154.485667,65.0300039 154.485667,64.25 Z M155.655667,64.142 C155.655667,64.6460025 155.799666,65.0209988 156.087667,65.267 C156.375669,65.5130012 156.753665,65.636 157.221667,65.636 C157.78567,65.636 158.322665,65.4260021 158.832667,65.006 C159.34267,64.5859979 159.597667,64.1660021 159.597667,63.746 L159.597667,62.594 L158.841667,62.594 C158.361665,62.594 157.956669,62.6119998 157.626667,62.648 C157.296666,62.6840002 156.969669,62.7499995 156.645667,62.846 C156.321666,62.9420005 156.075668,63.0979989 155.907667,63.314 C155.739667,63.5300011 155.655667,63.8059983 155.655667,64.142 Z M163.347001,66.032 L163.347001,53.198 C163.347001,53.0779994 163.401,52.9760004 163.509001,52.892 C163.617001,52.8079996 163.755,52.766 163.923001,52.766 C164.091001,52.766 164.232,52.8079996 164.346001,52.892 C164.460001,52.9760004 164.517001,53.0779994 164.517001,53.198 L164.517001,61.964 L168.909001,58.058 C169.029001,57.9859996 169.119,57.95 169.179001,57.95 C169.323001,57.95 169.458,58.0069994 169.584001,58.121 C169.710001,58.2350006 169.773001,58.3639993 169.773001,58.508 C169.773001,58.6520007 169.731001,58.7599996 169.647001,58.832 L167.001001,61.154 L170.115001,65.708 C170.163001,65.8040005 170.187001,65.8879996 170.187001,65.96 C170.187001,66.0920007 170.121001,66.2239993 169.989001,66.356 C169.857,66.4880007 169.713001,66.554 169.557001,66.554 C169.413,66.554 169.293001,66.4820007 169.197001,66.338 L166.173001,61.892 L164.517001,63.35 L164.517001,66.032 C164.517001,66.1520006 164.460001,66.2599995 164.346001,66.356 C164.232,66.4520005 164.091001,66.5 163.923001,66.5 C163.767,66.5 163.632001,66.4520005 163.518001,66.356 C163.404,66.2599995 163.347001,66.1520006 163.347001,66.032 Z M171.362334,63.206 L171.362334,61.19 C171.362334,60.2899955 171.698331,59.5130033 172.370334,58.859 C173.042337,58.2049967 173.852329,57.878 174.800334,57.878 C175.712339,57.878 176.501331,58.1899969 177.167334,58.814 C177.833337,59.4380031 178.166334,60.2179953 178.166334,61.154 C178.166334,61.4900017 178.127334,61.759999 178.049334,61.964 C177.971334,62.168001 177.845335,62.3119996 177.671334,62.396 C177.497333,62.4800004 177.338335,62.5339999 177.194334,62.558 C177.050333,62.5820001 176.852335,62.594 176.600334,62.594 L172.532334,62.594 L172.532334,63.26 C172.532334,63.9680035 172.787331,64.5349979 173.297334,64.961 C173.807336,65.3870021 174.46433,65.6 175.268334,65.6 C175.676336,65.6 176.033332,65.5400006 176.339334,65.42 C176.645335,65.2999994 176.879333,65.1800006 177.041334,65.06 C177.203335,64.9399994 177.332333,64.88 177.428334,64.88 C177.560335,64.88 177.677333,64.9429994 177.779334,65.069 C177.881334,65.1950006 177.932334,65.3179994 177.932334,65.438 C177.932334,65.6900013 177.674337,65.9509987 177.158334,66.221 C176.642331,66.4910014 176.000338,66.626 175.232334,66.626 C174.092328,66.626 173.162338,66.3110032 172.442334,65.681 C171.72233,65.0509969 171.362334,64.2260051 171.362334,63.206 Z M172.532334,61.73 L176.132334,61.73 C176.492336,61.73 176.732333,61.6910004 176.852334,61.613 C176.972335,61.5349996 177.032334,61.3700013 177.032334,61.118 C177.032334,60.517997 176.819336,59.9900023 176.393334,59.534 C175.967332,59.0779977 175.430337,58.85 174.782334,58.85 C174.158331,58.85 173.627336,59.0659978 173.189334,59.498 C172.751332,59.9300022 172.532334,60.445997 172.532334,61.046 L172.532334,61.73 Z M183.757001,65.33 C183.757001,65.2099994 183.799,65.0900006 183.883001,64.97 C183.967001,64.8499994 184.063,64.79 184.171001,64.79 C184.255001,64.79 184.387,64.8589993 184.567001,64.997 C184.747001,65.1350007 185.004999,65.2759993 185.341001,65.42 C185.677002,65.5640007 186.078998,65.636 186.547001,65.636 C187.183004,65.636 187.650999,65.5160012 187.951001,65.276 C188.251002,65.0359988 188.401001,64.7300019 188.401001,64.358 C188.401001,63.9259978 188.248002,63.5810013 187.942001,63.323 C187.635999,63.0649987 187.267003,62.8760006 186.835001,62.756 C186.402998,62.6359994 185.968003,62.5040007 185.530001,62.36 C185.091998,62.2159993 184.720002,61.9790017 184.414001,61.649 C184.107999,61.3189984 183.955001,60.8780028 183.955001,60.326 C183.955001,59.6659967 184.191998,59.0930024 184.666001,58.607 C185.140003,58.1209976 185.850996,57.878 186.799001,57.878 C187.387003,57.878 187.935998,57.9709991 188.446001,58.157 C188.956003,58.3430009 189.211001,58.5439989 189.211001,58.76 C189.211001,58.8800006 189.163001,59.0119993 189.067001,59.156 C188.971,59.3000007 188.857001,59.372 188.725001,59.372 C188.689,59.372 188.467003,59.2880008 188.059001,59.12 C187.650999,58.9519992 187.237003,58.868 186.817001,58.868 C186.216998,58.868 185.767002,59.0119986 185.467001,59.3 C185.166999,59.5880014 185.017001,59.9119982 185.017001,60.272 C185.017001,60.6440019 185.169999,60.9379989 185.476001,61.154 C185.782002,61.3700011 186.153998,61.5349994 186.592001,61.649 C187.030003,61.7630006 187.467998,61.8949992 187.906001,62.045 C188.344003,62.1950007 188.715999,62.4589981 189.022001,62.837 C189.328002,63.2150019 189.481001,63.703997 189.481001,64.304 C189.481001,65.0240036 189.226003,65.5909979 188.716001,66.005 C188.205998,66.4190021 187.495005,66.626 186.583001,66.626 C185.790997,66.626 185.122003,66.4850014 184.576001,66.203 C184.029998,65.9209986 183.757001,65.6300015 183.757001,65.33 Z M191.520334,63.242 L191.520334,58.436 C191.520334,58.3279995 191.577333,58.2260005 191.691334,58.13 C191.805334,58.0339995 191.946333,57.986 192.114334,57.986 C192.258335,57.986 192.390333,58.0339995 192.510334,58.13 C192.630334,58.2260005 192.690334,58.3279995 192.690334,58.436 L192.690334,63.242 C192.690334,63.842003 192.912332,64.3759977 193.356334,64.844 C193.800336,65.3120023 194.328331,65.546 194.940334,65.546 C195.552337,65.546 196.080332,65.3120023 196.524334,64.844 C196.968336,64.3759977 197.190334,63.842003 197.190334,63.242 L197.190334,58.418 C197.190334,58.2979994 197.250333,58.1960004 197.370334,58.112 C197.490334,58.0279996 197.628333,57.986 197.784334,57.986 C197.940335,57.986 198.075333,58.0279996 198.189334,58.112 C198.303334,58.1960004 198.360334,58.2979994 198.360334,58.418 L198.360334,63.242 C198.360334,64.1420045 198.021337,64.9309966 197.343334,65.609 C196.66533,66.2870034 195.864338,66.626 194.940334,66.626 C194.004329,66.626 193.200337,66.2870034 192.528334,65.609 C191.85633,64.9309966 191.520334,64.1420045 191.520334,63.242 Z M200.921667,66.032 L200.921667,58.418 C200.921667,58.2979994 200.975667,58.1960004 201.083667,58.112 C201.191668,58.0279996 201.329666,57.986 201.497667,57.986 C201.653668,57.986 201.785667,58.0279996 201.893667,58.112 C202.001668,58.1960004 202.055667,58.2979994 202.055667,58.418 L202.055667,59.3 C202.271668,58.903998 202.589665,58.5680014 203.009667,58.292 C203.429669,58.0159986 203.915664,57.878 204.467667,57.878 L205.097667,57.878 C205.217668,57.878 205.325667,57.9319995 205.421667,58.04 C205.517668,58.1480005 205.565667,58.2739993 205.565667,58.418 C205.565667,58.5620007 205.517668,58.6879995 205.421667,58.796 C205.325667,58.9040005 205.217668,58.958 205.097667,58.958 L204.467667,58.958 C203.843664,58.958 203.29167,59.2009976 202.811667,59.687 C202.331665,60.1730024 202.091667,60.8059961 202.091667,61.586 L202.091667,66.032 C202.091667,66.1520006 202.034668,66.2599995 201.920667,66.356 C201.806667,66.4520005 201.665668,66.5 201.497667,66.5 C201.341666,66.5 201.206668,66.4520005 201.092667,66.356 C200.978667,66.2599995 200.921667,66.1520006 200.921667,66.032 Z M206.615,63.206 L206.615,61.19 C206.615,60.2899955 206.950997,59.5130033 207.623,58.859 C208.295004,58.2049967 209.104996,57.878 210.053,57.878 C210.965005,57.878 211.753997,58.1899969 212.42,58.814 C213.086004,59.4380031 213.419,60.2179953 213.419,61.154 C213.419,61.4900017 213.380001,61.759999 213.302,61.964 C213.224,62.168001 213.098001,62.3119996 212.924,62.396 C212.75,62.4800004 212.591001,62.5339999 212.447,62.558 C212.303,62.5820001 212.105002,62.594 211.853,62.594 L207.785,62.594 L207.785,63.26 C207.785,63.9680035 208.039998,64.5349979 208.55,64.961 C209.060003,65.3870021 209.716996,65.6 210.521,65.6 C210.929002,65.6 211.285999,65.5400006 211.592,65.42 C211.898002,65.2999994 212.132,65.1800006 212.294,65.06 C212.456001,64.9399994 212.585,64.88 212.681,64.88 C212.813001,64.88 212.93,64.9429994 213.032,65.069 C213.134001,65.1950006 213.185,65.3179994 213.185,65.438 C213.185,65.6900013 212.927003,65.9509987 212.411,66.221 C211.894998,66.4910014 211.253004,66.626 210.485,66.626 C209.344995,66.626 208.415004,66.3110032 207.695,65.681 C206.974997,65.0509969 206.615,64.2260051 206.615,63.206 Z M207.785,61.73 L211.385,61.73 C211.745002,61.73 211.985,61.6910004 212.105,61.613 C212.225001,61.5349996 212.285,61.3700013 212.285,61.118 C212.285,60.517997 212.072003,59.9900023 211.646,59.534 C211.219998,59.0779977 210.683004,58.85 210.035,58.85 C209.410997,58.85 208.880003,59.0659978 208.442,59.498 C208.003998,59.9300022 207.785,60.445997 207.785,61.046 L207.785,61.73 Z M219.513667,63.854 L219.513667,54.368 C219.513667,54.2479994 219.573666,54.1460004 219.693667,54.062 C219.813668,53.9779996 219.945666,53.936 220.089667,53.936 C220.245668,53.936 220.383666,53.9779996 220.503667,54.062 C220.623668,54.1460004 220.683667,54.2479994 220.683667,54.368 L220.683667,57.986 L223.005667,57.986 C223.125668,57.986 223.224667,58.0339995 223.302667,58.13 C223.380667,58.2260005 223.419667,58.3399993 223.419667,58.472 C223.419667,58.6040007 223.380667,58.7179995 223.302667,58.814 C223.224667,58.9100005 223.125668,58.958 223.005667,58.958 L220.683667,58.958 L220.683667,63.854 C220.683667,64.4420029 220.806666,64.8529988 221.052667,65.087 C221.298668,65.3210012 221.733664,65.438 222.357667,65.438 L222.861667,65.438 C223.017668,65.438 223.146667,65.4889995 223.248667,65.591 C223.350668,65.6930005 223.401667,65.8159993 223.401667,65.96 C223.401667,66.1040007 223.350668,66.2299995 223.248667,66.338 C223.146667,66.4460005 223.017668,66.5 222.861667,66.5 L222.357667,66.5 C220.461658,66.5 219.513667,65.6180088 219.513667,63.854 Z M224.775,63.206 L224.775,61.244 C224.775,60.3319954 225.110997,59.5430033 225.783,58.877 C226.455004,58.2109967 227.252996,57.878 228.177,57.878 C229.101005,57.878 229.904997,58.2079967 230.589,58.868 C231.273004,59.5280033 231.615,60.3199954 231.615,61.244 L231.615,63.206 C231.615,64.1060045 231.270004,64.9009966 230.58,65.591 C229.889997,66.2810035 229.089005,66.626 228.177,66.626 C227.276996,66.626 226.485004,66.2810035 225.801,65.591 C225.116997,64.9009966 224.775,64.1060045 224.775,63.206 Z M225.945,63.206 C225.945,63.8180031 226.163998,64.3609976 226.602,64.835 C227.040003,65.3090024 227.564997,65.546 228.177,65.546 C228.801003,65.546 229.334998,65.3090024 229.779,64.835 C230.223003,64.3609976 230.445,63.8180031 230.445,63.206 L230.445,61.244 C230.445,60.6559971 230.220003,60.1280023 229.77,59.66 C229.319998,59.1919977 228.789003,58.958 228.177,58.958 C227.564997,58.958 227.040003,59.1919977 226.602,59.66 C226.163998,60.1280023 225.945,60.6559971 225.945,61.244 L225.945,63.206 Z M237.907667,66.032 L237.907667,53.198 C237.907667,53.0779994 237.961666,52.9760004 238.069667,52.892 C238.177667,52.8079996 238.315666,52.766 238.483667,52.766 C238.651668,52.766 238.792666,52.8079996 238.906667,52.892 C239.020668,52.9760004 239.077667,53.0779994 239.077667,53.198 L239.077667,61.964 L243.469667,58.058 C243.589668,57.9859996 243.679667,57.95 243.739667,57.95 C243.883668,57.95 244.018666,58.0069994 244.144667,58.121 C244.270668,58.2350006 244.333667,58.3639993 244.333667,58.508 C244.333667,58.6520007 244.291667,58.7599996 244.207667,58.832 L241.561667,61.154 L244.675667,65.708 C244.723667,65.8040005 244.747667,65.8879996 244.747667,65.96 C244.747667,66.0920007 244.681668,66.2239993 244.549667,66.356 C244.417666,66.4880007 244.273668,66.554 244.117667,66.554 C243.973666,66.554 243.853667,66.4820007 243.757667,66.338 L240.733667,61.892 L239.077667,63.35 L239.077667,66.032 C239.077667,66.1520006 239.020668,66.2599995 238.906667,66.356 C238.792666,66.4520005 238.651668,66.5 238.483667,66.5 C238.327666,66.5 238.192668,66.4520005 238.078667,66.356 C237.964666,66.2599995 237.907667,66.1520006 237.907667,66.032 Z M245.923,63.206 L245.923,61.19 C245.923,60.2899955 246.258997,59.5130033 246.931,58.859 C247.603004,58.2049967 248.412996,57.878 249.361,57.878 C250.273005,57.878 251.061997,58.1899969 251.728,58.814 C252.394004,59.4380031 252.727,60.2179953 252.727,61.154 C252.727,61.4900017 252.688001,61.759999 252.61,61.964 C252.532,62.168001 252.406001,62.3119996 252.232,62.396 C252.057999,62.4800004 251.899001,62.5339999 251.755,62.558 C251.611,62.5820001 251.413002,62.594 251.161,62.594 L247.093,62.594 L247.093,63.26 C247.093,63.9680035 247.347998,64.5349979 247.858,64.961 C248.368003,65.3870021 249.024996,65.6 249.829,65.6 C250.237002,65.6 250.593999,65.5400006 250.9,65.42 C251.206002,65.2999994 251.439999,65.1800006 251.602,65.06 C251.764001,64.9399994 251.893,64.88 251.989,64.88 C252.121001,64.88 252.238,64.9429994 252.34,65.069 C252.442001,65.1950006 252.493,65.3179994 252.493,65.438 C252.493,65.6900013 252.235003,65.9509987 251.719,66.221 C251.202998,66.4910014 250.561004,66.626 249.793,66.626 C248.652995,66.626 247.723004,66.3110032 247.003,65.681 C246.282997,65.0509969 245.923,64.2260051 245.923,63.206 Z M247.093,61.73 L250.693,61.73 C251.053002,61.73 251.293,61.6910004 251.413,61.613 C251.533001,61.5349996 251.593,61.3700013 251.593,61.118 C251.593,60.517997 251.380002,59.9900023 250.954,59.534 C250.527998,59.0779977 249.991003,58.85 249.343,58.85 C248.718997,58.85 248.188002,59.0659978 247.75,59.498 C247.311998,59.9300022 247.093,60.445997 247.093,61.046 L247.093,61.73 Z M254.550334,63.206 L254.550334,61.19 C254.550334,60.2899955 254.88633,59.5130033 255.558334,58.859 C256.230337,58.2049967 257.040329,57.878 257.988334,57.878 C258.900338,57.878 259.68933,58.1899969 260.355334,58.814 C261.021337,59.4380031 261.354334,60.2179953 261.354334,61.154 C261.354334,61.4900017 261.315334,61.759999 261.237334,61.964 C261.159333,62.168001 261.033334,62.3119996 260.859334,62.396 C260.685333,62.4800004 260.526334,62.5339999 260.382334,62.558 C260.238333,62.5820001 260.040335,62.594 259.788334,62.594 L255.720334,62.594 L255.720334,63.26 C255.720334,63.9680035 255.975331,64.5349979 256.485334,64.961 C256.995336,65.3870021 257.65233,65.6 258.456334,65.6 C258.864336,65.6 259.221332,65.5400006 259.527334,65.42 C259.833335,65.2999994 260.067333,65.1800006 260.229334,65.06 C260.391334,64.9399994 260.520333,64.88 260.616334,64.88 C260.748334,64.88 260.865333,64.9429994 260.967334,65.069 C261.069334,65.1950006 261.120334,65.3179994 261.120334,65.438 C261.120334,65.6900013 260.862336,65.9509987 260.346334,66.221 C259.830331,66.4910014 259.188337,66.626 258.420334,66.626 C257.280328,66.626 256.350337,66.3110032 255.630334,65.681 C254.91033,65.0509969 254.550334,64.2260051 254.550334,63.206 Z M255.720334,61.73 L259.320334,61.73 C259.680335,61.73 259.920333,61.6910004 260.040334,61.613 C260.160334,61.5349996 260.220334,61.3700013 260.220334,61.118 C260.220334,60.517997 260.007336,59.9900023 259.581334,59.534 C259.155331,59.0779977 258.618337,58.85 257.970334,58.85 C257.34633,58.85 256.815336,59.0659978 256.377334,59.498 C255.939331,59.9300022 255.720334,60.445997 255.720334,61.046 L255.720334,61.73 Z M263.501667,70.226 L263.501667,58.418 C263.501667,58.2979994 263.555666,58.1960004 263.663667,58.112 C263.771667,58.0279996 263.909666,57.986 264.077667,57.986 C264.233668,57.986 264.365666,58.0279996 264.473667,58.112 C264.581667,58.1960004 264.635667,58.2979994 264.635667,58.418 L264.635667,59.246 C264.851668,58.8619981 265.169665,58.5380013 265.589667,58.274 C266.009669,58.0099987 266.495664,57.878 267.047667,57.878 C267.935671,57.878 268.697664,58.2079967 269.333667,58.868 C269.96967,59.5280033 270.287667,60.3199954 270.287667,61.244 L270.287667,63.206 C270.287667,64.1060045 269.96667,64.9009966 269.324667,65.591 C268.682664,66.2810035 267.941671,66.626 267.101667,66.626 C266.573664,66.626 266.087669,66.4910014 265.643667,66.221 C265.199665,65.9509987 264.875668,65.6240019 264.671667,65.24 L264.671667,70.226 C264.671667,70.3340005 264.614667,70.4359995 264.500667,70.532 C264.386666,70.6280005 264.245668,70.676 264.077667,70.676 C263.921666,70.676 263.786667,70.6280005 263.672667,70.532 C263.558666,70.4359995 263.501667,70.3340005 263.501667,70.226 Z M264.671667,63.764 C264.671667,64.0880016 264.896665,64.4659978 265.346667,64.898 C265.796669,65.3300022 266.309664,65.546 266.885667,65.546 C267.47367,65.546 267.992665,65.3060024 268.442667,64.826 C268.892669,64.3459976 269.117667,63.806003 269.117667,63.206 L269.117667,61.244 C269.117667,60.6559971 268.892669,60.1280023 268.442667,59.66 C267.992665,59.1919977 267.46167,58.958 266.849667,58.958 C266.273664,58.958 265.766669,59.1679979 265.328667,59.588 C264.890665,60.0080021 264.671667,60.5599966 264.671667,61.244 L264.671667,63.764 Z M276.580333,55.25 C276.424333,55.0939992 276.346333,54.914001 276.346333,54.71 C276.346333,54.505999 276.424333,54.3320007 276.580333,54.188 C276.736334,54.0439993 276.928332,53.972 277.156333,53.972 C277.372335,53.972 277.555333,54.0439993 277.705333,54.188 C277.855334,54.3320007 277.930333,54.505999 277.930333,54.71 C277.930333,54.914001 277.855334,55.0909993 277.705333,55.241 C277.555333,55.3910008 277.372335,55.466 277.156333,55.466 C276.928332,55.466 276.736334,55.3940007 276.580333,55.25 Z M276.580333,66.032 L276.580333,58.418 C276.580333,58.2979994 276.634333,58.1960004 276.742333,58.112 C276.850334,58.0279996 276.988333,57.986 277.156333,57.986 C277.324334,57.986 277.465333,58.0279996 277.579333,58.112 C277.693334,58.1960004 277.750333,58.2979994 277.750333,58.418 L277.750333,66.032 C277.750333,66.1520006 277.690334,66.2599995 277.570333,66.356 C277.450333,66.4520005 277.312334,66.5 277.156333,66.5 C277.000333,66.5 276.865334,66.4520005 276.751333,66.356 C276.637333,66.2599995 276.580333,66.1520006 276.580333,66.032 Z M280.365667,63.854 L280.365667,54.368 C280.365667,54.2479994 280.425666,54.1460004 280.545667,54.062 C280.665667,53.9779996 280.797666,53.936 280.941667,53.936 C281.097668,53.936 281.235666,53.9779996 281.355667,54.062 C281.475667,54.1460004 281.535667,54.2479994 281.535667,54.368 L281.535667,57.986 L283.857667,57.986 C283.977667,57.986 284.076666,58.0339995 284.154667,58.13 C284.232667,58.2260005 284.271667,58.3399993 284.271667,58.472 C284.271667,58.6040007 284.232667,58.7179995 284.154667,58.814 C284.076666,58.9100005 283.977667,58.958 283.857667,58.958 L281.535667,58.958 L281.535667,63.854 C281.535667,64.4420029 281.658666,64.8529988 281.904667,65.087 C282.150668,65.3210012 282.585664,65.438 283.209667,65.438 L283.713667,65.438 C283.869668,65.438 283.998666,65.4889995 284.100667,65.591 C284.202667,65.6930005 284.253667,65.8159993 284.253667,65.96 C284.253667,66.1040007 284.202667,66.2299995 284.100667,66.338 C283.998666,66.4460005 283.869668,66.5 283.713667,66.5 L283.209667,66.5 C281.313657,66.5 280.365667,65.6180088 280.365667,63.854 Z M289.574333,65.33 C289.574333,65.2099994 289.616333,65.0900006 289.700333,64.97 C289.784334,64.8499994 289.880333,64.79 289.988333,64.79 C290.072334,64.79 290.204332,64.8589993 290.384333,64.997 C290.564334,65.1350007 290.822332,65.2759993 291.158333,65.42 C291.494335,65.5640007 291.896331,65.636 292.364333,65.636 C293.000337,65.636 293.468332,65.5160012 293.768333,65.276 C294.068335,65.0359988 294.218333,64.7300019 294.218333,64.358 C294.218333,63.9259978 294.065335,63.5810013 293.759333,63.323 C293.453332,63.0649987 293.084336,62.8760006 292.652333,62.756 C292.220331,62.6359994 291.785336,62.5040007 291.347333,62.36 C290.909331,62.2159993 290.537335,61.9790017 290.231333,61.649 C289.925332,61.3189984 289.772333,60.8780028 289.772333,60.326 C289.772333,59.6659967 290.009331,59.0930024 290.483333,58.607 C290.957336,58.1209976 291.668329,57.878 292.616333,57.878 C293.204336,57.878 293.753331,57.9709991 294.263333,58.157 C294.773336,58.3430009 295.028333,58.5439989 295.028333,58.76 C295.028333,58.8800006 294.980334,59.0119993 294.884333,59.156 C294.788333,59.3000007 294.674334,59.372 294.542333,59.372 C294.506333,59.372 294.284335,59.2880008 293.876333,59.12 C293.468331,58.9519992 293.054335,58.868 292.634333,58.868 C292.03433,58.868 291.584335,59.0119986 291.284333,59.3 C290.984332,59.5880014 290.834333,59.9119982 290.834333,60.272 C290.834333,60.6440019 290.987332,60.9379989 291.293333,61.154 C291.599335,61.3700011 291.971331,61.5349994 292.409333,61.649 C292.847336,61.7630006 293.285331,61.8949992 293.723333,62.045 C294.161336,62.1950007 294.533332,62.4589981 294.839333,62.837 C295.145335,63.2150019 295.298333,63.703997 295.298333,64.304 C295.298333,65.0240036 295.043336,65.5909979 294.533333,66.005 C294.023331,66.4190021 293.312338,66.626 292.400333,66.626 C291.608329,66.626 290.939336,66.4850014 290.393333,66.203 C289.847331,65.9209986 289.574333,65.6300015 289.574333,65.33 Z M297.085667,63.206 L297.085667,61.244 C297.085667,60.3319954 297.421663,59.5430033 298.093667,58.877 C298.76567,58.2109967 299.563662,57.878 300.487667,57.878 C301.411671,57.878 302.215663,58.2079967 302.899667,58.868 C303.58367,59.5280033 303.925667,60.3199954 303.925667,61.244 L303.925667,63.206 C303.925667,64.1060045 303.58067,64.9009966 302.890667,65.591 C302.200663,66.2810035 301.399671,66.626 300.487667,66.626 C299.587662,66.626 298.79567,66.2810035 298.111667,65.591 C297.427663,64.9009966 297.085667,64.1060045 297.085667,63.206 Z M298.255667,63.206 C298.255667,63.8180031 298.474664,64.3609976 298.912667,64.835 C299.350669,65.3090024 299.875664,65.546 300.487667,65.546 C301.11167,65.546 301.645664,65.3090024 302.089667,64.835 C302.533669,64.3609976 302.755667,63.8180031 302.755667,63.206 L302.755667,61.244 C302.755667,60.6559971 302.530669,60.1280023 302.080667,59.66 C301.630664,59.1919977 301.09967,58.958 300.487667,58.958 C299.875664,58.958 299.350669,59.1919977 298.912667,59.66 C298.474664,60.1280023 298.255667,60.6559971 298.255667,61.244 L298.255667,63.206 Z M310.218333,55.25 C310.062332,55.0939992 309.984333,54.914001 309.984333,54.71 C309.984333,54.505999 310.062332,54.3320007 310.218333,54.188 C310.374334,54.0439993 310.566332,53.972 310.794333,53.972 C311.010334,53.972 311.193332,54.0439993 311.343333,54.188 C311.493334,54.3320007 311.568333,54.505999 311.568333,54.71 C311.568333,54.914001 311.493334,55.0909993 311.343333,55.241 C311.193332,55.3910008 311.010334,55.466 310.794333,55.466 C310.566332,55.466 310.374334,55.3940007 310.218333,55.25 Z M310.218333,66.032 L310.218333,58.418 C310.218333,58.2979994 310.272333,58.1960004 310.380333,58.112 C310.488334,58.0279996 310.626332,57.986 310.794333,57.986 C310.962334,57.986 311.103333,58.0279996 311.217333,58.112 C311.331334,58.1960004 311.388333,58.2979994 311.388333,58.418 L311.388333,66.032 C311.388333,66.1520006 311.328334,66.2599995 311.208333,66.356 C311.088333,66.4520005 310.950334,66.5 310.794333,66.5 C310.638332,66.5 310.503334,66.4520005 310.389333,66.356 C310.275333,66.2599995 310.218333,66.1520006 310.218333,66.032 Z M314.003667,63.854 L314.003667,54.368 C314.003667,54.2479994 314.063666,54.1460004 314.183667,54.062 C314.303667,53.9779996 314.435666,53.936 314.579667,53.936 C314.735667,53.936 314.873666,53.9779996 314.993667,54.062 C315.113667,54.1460004 315.173667,54.2479994 315.173667,54.368 L315.173667,57.986 L317.495667,57.986 C317.615667,57.986 317.714666,58.0339995 317.792667,58.13 C317.870667,58.2260005 317.909667,58.3399993 317.909667,58.472 C317.909667,58.6040007 317.870667,58.7179995 317.792667,58.814 C317.714666,58.9100005 317.615667,58.958 317.495667,58.958 L315.173667,58.958 L315.173667,63.854 C315.173667,64.4420029 315.296665,64.8529988 315.542667,65.087 C315.788668,65.3210012 316.223663,65.438 316.847667,65.438 L317.351667,65.438 C317.507667,65.438 317.636666,65.4889995 317.738667,65.591 C317.840667,65.6930005 317.891667,65.8159993 317.891667,65.96 C317.891667,66.1040007 317.840667,66.2299995 317.738667,66.338 C317.636666,66.4460005 317.507667,66.5 317.351667,66.5 L316.847667,66.5 C314.951657,66.5 314.003667,65.6180088 314.003667,63.854 Z M323.446333,63.206 L323.446333,61.28 C323.446333,60.271995 323.74033,59.4530032 324.328333,58.823 C324.916336,58.1929969 325.780327,57.878 326.920333,57.878 C327.640337,57.878 328.243331,58.0069987 328.729333,58.265 C329.215336,58.5230013 329.458333,58.7839987 329.458333,59.048 C329.458333,59.1800007 329.404334,59.3089994 329.296333,59.435 C329.188333,59.5610006 329.068334,59.624 328.936333,59.624 C328.864333,59.624 328.753334,59.5700005 328.603333,59.462 C328.453332,59.3539995 328.240335,59.2430006 327.964333,59.129 C327.688332,59.0149994 327.358335,58.958 326.974333,58.958 C326.206329,58.958 325.621335,59.161998 325.219333,59.57 C324.817331,59.978002 324.616333,60.5479963 324.616333,61.28 L324.616333,63.206 C324.616333,63.9500037 324.817331,64.525998 325.219333,64.934 C325.621335,65.342002 326.212329,65.546 326.992333,65.546 C327.400335,65.546 327.745332,65.4890006 328.027333,65.375 C328.309335,65.2609994 328.525332,65.1470006 328.675333,65.033 C328.825334,64.9189994 328.942333,64.862 329.026333,64.862 C329.182334,64.862 329.311333,64.9219994 329.413333,65.042 C329.515334,65.1620006 329.566333,65.2939993 329.566333,65.438 C329.566333,65.7140014 329.314336,65.9809987 328.810333,66.239 C328.306331,66.4970013 327.682337,66.626 326.938333,66.626 C325.786327,66.626 324.916336,66.3140031 324.328333,65.69 C323.74033,65.0659969 323.446333,64.2380052 323.446333,63.206 Z M330.939666,64.25 C330.939666,63.3259954 331.296663,62.6840018 332.010666,62.324 C332.72467,61.9639982 333.76566,61.784 335.133666,61.784 L336.051666,61.784 L336.051666,61.352 C336.051666,60.6919967 335.877668,60.1190024 335.529666,59.633 C335.181665,59.1469976 334.64767,58.904 333.927666,58.904 C333.447664,58.904 333.012668,58.9909991 332.622666,59.165 C332.232664,59.3390009 332.025667,59.426 332.001666,59.426 C331.857666,59.426 331.743667,59.3600007 331.659666,59.228 C331.575666,59.0959993 331.533666,58.9520008 331.533666,58.796 C331.533666,58.5679989 331.791664,58.358001 332.307666,58.166 C332.823669,57.973999 333.375664,57.878 333.963666,57.878 C335.091672,57.878 335.916664,58.2049967 336.438666,58.859 C336.960669,59.5130033 337.221666,60.343995 337.221666,61.352 L337.221666,66.032 C337.221666,66.1640007 337.167667,66.2749996 337.059666,66.365 C336.951666,66.4550005 336.813667,66.5 336.645666,66.5 C336.489666,66.5 336.360667,66.4550005 336.258666,66.365 C336.156666,66.2749996 336.105666,66.1640007 336.105666,66.032 L336.105666,65.24 C335.301662,66.1640046 334.395671,66.626 333.387666,66.626 C332.667663,66.626 332.079669,66.425002 331.623666,66.023 C331.167664,65.620998 330.939666,65.0300039 330.939666,64.25 Z M332.109666,64.142 C332.109666,64.6460025 332.253665,65.0209988 332.541666,65.267 C332.829668,65.5130012 333.207664,65.636 333.675666,65.636 C334.239669,65.636 334.776664,65.4260021 335.286666,65.006 C335.796669,64.5859979 336.051666,64.1660021 336.051666,63.746 L336.051666,62.594 L335.295666,62.594 C334.815664,62.594 334.410668,62.6119998 334.080666,62.648 C333.750665,62.6840002 333.423668,62.7499995 333.099666,62.846 C332.775665,62.9420005 332.529667,63.0979989 332.361666,63.314 C332.193666,63.5300011 332.109666,63.8059983 332.109666,64.142 Z M339.801,66.032 L339.801,58.418 C339.801,58.2859993 339.854999,58.1810004 339.963,58.103 C340.071,58.0249996 340.208999,57.986 340.377,57.986 C340.521,57.986 340.646999,58.0279996 340.755,58.112 C340.863,58.1960004 340.917,58.2979994 340.917,58.418 L340.917,59.246 C341.121001,58.8619981 341.432998,58.5380013 341.853,58.274 C342.273002,58.0099987 342.764997,57.878 343.329,57.878 C344.193004,57.878 344.942997,58.2079967 345.579,58.868 C346.215003,59.5280033 346.533,60.3199954 346.533,61.244 L346.533,66.032 C346.533,66.1760007 346.473,66.2899996 346.353,66.374 C346.232999,66.4580004 346.095001,66.5 345.939,66.5 C345.794999,66.5 345.663,66.4580004 345.543,66.374 C345.422999,66.2899996 345.363,66.1760007 345.363,66.032 L345.363,61.244 C345.363,60.6559971 345.141002,60.1280023 344.697,59.66 C344.252998,59.1919977 343.725003,58.958 343.113,58.958 C342.548997,58.958 342.051002,59.1679979 341.619,59.588 C341.186998,60.0080021 340.971,60.5599966 340.971,61.244 L340.971,66.032 C340.971,66.1520006 340.911,66.2599995 340.791,66.356 C340.670999,66.4520005 340.533001,66.5 340.377,66.5 C340.208999,66.5 340.071,66.4520005 339.963,66.356 C339.854999,66.2599995 339.801,66.1520006 339.801,66.032 Z M353.095666,70.226 L353.095666,58.418 C353.095666,58.2979994 353.149666,58.1960004 353.257666,58.112 C353.365667,58.0279996 353.503666,57.986 353.671666,57.986 C353.827667,57.986 353.959666,58.0279996 354.067666,58.112 C354.175667,58.1960004 354.229666,58.2979994 354.229666,58.418 L354.229666,59.246 C354.445667,58.8619981 354.763664,58.5380013 355.183666,58.274 C355.603668,58.0099987 356.089664,57.878 356.641666,57.878 C357.529671,57.878 358.291663,58.2079967 358.927666,58.868 C359.56367,59.5280033 359.881666,60.3199954 359.881666,61.244 L359.881666,63.206 C359.881666,64.1060045 359.56067,64.9009966 358.918666,65.591 C358.276663,66.2810035 357.535671,66.626 356.695666,66.626 C356.167664,66.626 355.681669,66.4910014 355.237666,66.221 C354.793664,65.9509987 354.469667,65.6240019 354.265666,65.24 L354.265666,70.226 C354.265666,70.3340005 354.208667,70.4359995 354.094666,70.532 C353.980666,70.6280005 353.839667,70.676 353.671666,70.676 C353.515666,70.676 353.380667,70.6280005 353.266666,70.532 C353.152666,70.4359995 353.095666,70.3340005 353.095666,70.226 Z M354.265666,63.764 C354.265666,64.0880016 354.490664,64.4659978 354.940666,64.898 C355.390669,65.3300022 355.903663,65.546 356.479666,65.546 C357.067669,65.546 357.586664,65.3060024 358.036666,64.826 C358.486669,64.3459976 358.711666,63.806003 358.711666,63.206 L358.711666,61.244 C358.711666,60.6559971 358.486669,60.1280023 358.036666,59.66 C357.586664,59.1919977 357.055669,58.958 356.443666,58.958 C355.867663,58.958 355.360669,59.1679979 354.922666,59.588 C354.484664,60.0080021 354.265666,60.5599966 354.265666,61.244 L354.265666,63.764 Z M361.597,64.25 C361.597,63.3259954 361.953996,62.6840018 362.668,62.324 C363.382003,61.9639982 364.422993,61.784 365.791,61.784 L366.709,61.784 L366.709,61.352 C366.709,60.6919967 366.535001,60.1190024 366.187,59.633 C365.838998,59.1469976 365.305003,58.904 364.585,58.904 C364.104997,58.904 363.670002,58.9909991 363.28,59.165 C362.889998,59.3390009 362.683,59.426 362.659,59.426 C362.514999,59.426 362.401,59.3600007 362.317,59.228 C362.232999,59.0959993 362.191,58.9520008 362.191,58.796 C362.191,58.5679989 362.448997,58.358001 362.965,58.166 C363.481002,57.973999 364.032997,57.878 364.621,57.878 C365.749005,57.878 366.573997,58.2049967 367.096,58.859 C367.618002,59.5130033 367.879,60.343995 367.879,61.352 L367.879,66.032 C367.879,66.1640007 367.825,66.2749996 367.717,66.365 C367.608999,66.4550005 367.471,66.5 367.303,66.5 C367.146999,66.5 367.018,66.4550005 366.916,66.365 C366.813999,66.2749996 366.763,66.1640007 366.763,66.032 L366.763,65.24 C365.958996,66.1640046 365.053005,66.626 364.045,66.626 C363.324996,66.626 362.737002,66.425002 362.281,66.023 C361.824997,65.620998 361.597,65.0300039 361.597,64.25 Z M362.767,64.142 C362.767,64.6460025 362.910998,65.0209988 363.199,65.267 C363.487001,65.5130012 363.864997,65.636 364.333,65.636 C364.897002,65.636 365.433997,65.4260021 365.944,65.006 C366.454002,64.5859979 366.709,64.1660021 366.709,63.746 L366.709,62.594 L365.953,62.594 C365.472997,62.594 365.068001,62.6119998 364.738,62.648 C364.407998,62.6840002 364.081001,62.7499995 363.757,62.846 C363.432998,62.9420005 363.187,63.0979989 363.019,63.314 C362.850999,63.5300011 362.767,63.8059983 362.767,64.142 Z M369.918333,65.33 C369.918333,65.2099994 369.960333,65.0900006 370.044333,64.97 C370.128333,64.8499994 370.224332,64.79 370.332333,64.79 C370.416333,64.79 370.548332,64.8589993 370.728333,64.997 C370.908334,65.1350007 371.166331,65.2759993 371.502333,65.42 C371.838335,65.5640007 372.240331,65.636 372.708333,65.636 C373.344336,65.636 373.812331,65.5160012 374.112333,65.276 C374.412334,65.0359988 374.562333,64.7300019 374.562333,64.358 C374.562333,63.9259978 374.409334,63.5810013 374.103333,63.323 C373.797331,63.0649987 373.428335,62.8760006 372.996333,62.756 C372.564331,62.6359994 372.129335,62.5040007 371.691333,62.36 C371.253331,62.2159993 370.881334,61.9790017 370.575333,61.649 C370.269331,61.3189984 370.116333,60.8780028 370.116333,60.326 C370.116333,59.6659967 370.353331,59.0930024 370.827333,58.607 C371.301335,58.1209976 372.012328,57.878 372.960333,57.878 C373.548336,57.878 374.09733,57.9709991 374.607333,58.157 C375.117335,58.3430009 375.372333,58.5439989 375.372333,58.76 C375.372333,58.8800006 375.324333,59.0119993 375.228333,59.156 C375.132332,59.3000007 375.018334,59.372 374.886333,59.372 C374.850333,59.372 374.628335,59.2880008 374.220333,59.12 C373.812331,58.9519992 373.398335,58.868 372.978333,58.868 C372.37833,58.868 371.928334,59.0119986 371.628333,59.3 C371.328331,59.5880014 371.178333,59.9119982 371.178333,60.272 C371.178333,60.6440019 371.331331,60.9379989 371.637333,61.154 C371.943334,61.3700011 372.315331,61.5349994 372.753333,61.649 C373.191335,61.7630006 373.629331,61.8949992 374.067333,62.045 C374.505335,62.1950007 374.877331,62.4589981 375.183333,62.837 C375.489334,63.2150019 375.642333,63.703997 375.642333,64.304 C375.642333,65.0240036 375.387335,65.5909979 374.877333,66.005 C374.36733,66.4190021 373.656338,66.626 372.744333,66.626 C371.952329,66.626 371.283336,66.4850014 370.737333,66.203 C370.19133,65.9209986 369.918333,65.6300015 369.918333,65.33 Z M377.231666,65.33 C377.231666,65.2099994 377.273666,65.0900006 377.357666,64.97 C377.441667,64.8499994 377.537666,64.79 377.645666,64.79 C377.729667,64.79 377.861665,64.8589993 378.041666,64.997 C378.221667,65.1350007 378.479665,65.2759993 378.815666,65.42 C379.151668,65.5640007 379.553664,65.636 380.021666,65.636 C380.657669,65.636 381.125665,65.5160012 381.425666,65.276 C381.725668,65.0359988 381.875666,64.7300019 381.875666,64.358 C381.875666,63.9259978 381.722668,63.5810013 381.416666,63.323 C381.110665,63.0649987 380.741668,62.8760006 380.309666,62.756 C379.877664,62.6359994 379.442668,62.5040007 379.004666,62.36 C378.566664,62.2159993 378.194668,61.9790017 377.888666,61.649 C377.582665,61.3189984 377.429666,60.8780028 377.429666,60.326 C377.429666,59.6659967 377.666664,59.0930024 378.140666,58.607 C378.614669,58.1209976 379.325662,57.878 380.273666,57.878 C380.861669,57.878 381.410664,57.9709991 381.920666,58.157 C382.430669,58.3430009 382.685666,58.5439989 382.685666,58.76 C382.685666,58.8800006 382.637667,59.0119993 382.541666,59.156 C382.445666,59.3000007 382.331667,59.372 382.199666,59.372 C382.163666,59.372 381.941668,59.2880008 381.533666,59.12 C381.125664,58.9519992 380.711668,58.868 380.291666,58.868 C379.691663,58.868 379.241668,59.0119986 378.941666,59.3 C378.641665,59.5880014 378.491666,59.9119982 378.491666,60.272 C378.491666,60.6440019 378.644665,60.9379989 378.950666,61.154 C379.256668,61.3700011 379.628664,61.5349994 380.066666,61.649 C380.504668,61.7630006 380.942664,61.8949992 381.380666,62.045 C381.818668,62.1950007 382.190665,62.4589981 382.496666,62.837 C382.802668,63.2150019 382.955666,63.703997 382.955666,64.304 C382.955666,65.0240036 382.700669,65.5909979 382.190666,66.005 C381.680664,66.4190021 380.969671,66.626 380.057666,66.626 C379.265662,66.626 378.596669,66.4850014 378.050666,66.203 C377.504664,65.9209986 377.231666,65.6300015 377.231666,65.33 Z M388.726333,63.206 L388.726333,61.244 C388.726333,60.3319954 389.062329,59.5430033 389.734333,58.877 C390.406336,58.2109967 391.204328,57.878 392.128333,57.878 C393.052337,57.878 393.856329,58.2079967 394.540333,58.868 C395.224336,59.5280033 395.566333,60.3199954 395.566333,61.244 L395.566333,63.206 C395.566333,64.1060045 395.221336,64.9009966 394.531333,65.591 C393.841329,66.2810035 393.040337,66.626 392.128333,66.626 C391.228328,66.626 390.436336,66.2810035 389.752333,65.591 C389.068329,64.9009966 388.726333,64.1060045 388.726333,63.206 Z M389.896333,63.206 C389.896333,63.8180031 390.115331,64.3609976 390.553333,64.835 C390.991335,65.3090024 391.51633,65.546 392.128333,65.546 C392.752336,65.546 393.286331,65.3090024 393.730333,64.835 C394.174335,64.3609976 394.396333,63.8180031 394.396333,63.206 L394.396333,61.244 C394.396333,60.6559971 394.171335,60.1280023 393.721333,59.66 C393.271331,59.1919977 392.740336,58.958 392.128333,58.958 C391.51633,58.958 390.991335,59.1919977 390.553333,59.66 C390.115331,60.1280023 389.896333,60.6559971 389.896333,61.244 L389.896333,63.206 Z M397.875666,66.032 L397.875666,58.418 C397.875666,58.2859993 397.929666,58.1810004 398.037666,58.103 C398.145667,58.0249996 398.283665,57.986 398.451666,57.986 C398.595667,57.986 398.721666,58.0279996 398.829666,58.112 C398.937667,58.1960004 398.991666,58.2979994 398.991666,58.418 L398.991666,59.246 C399.195667,58.8619981 399.507664,58.5380013 399.927666,58.274 C400.347668,58.0099987 400.839663,57.878 401.403666,57.878 C402.26767,57.878 403.017663,58.2079967 403.653666,58.868 C404.289669,59.5280033 404.607666,60.3199954 404.607666,61.244 L404.607666,66.032 C404.607666,66.1760007 404.547667,66.2899996 404.427666,66.374 C404.307666,66.4580004 404.169667,66.5 404.013666,66.5 C403.869665,66.5 403.737667,66.4580004 403.617666,66.374 C403.497666,66.2899996 403.437666,66.1760007 403.437666,66.032 L403.437666,61.244 C403.437666,60.6559971 403.215668,60.1280023 402.771666,59.66 C402.327664,59.1919977 401.799669,58.958 401.187666,58.958 C400.623663,58.958 400.125668,59.1679979 399.693666,59.588 C399.261664,60.0080021 399.045666,60.5599966 399.045666,61.244 L399.045666,66.032 C399.045666,66.1520006 398.985667,66.2599995 398.865666,66.356 C398.745666,66.4520005 398.607667,66.5 398.451666,66.5 C398.283665,66.5 398.145667,66.4520005 398.037666,66.356 C397.929666,66.2599995 397.875666,66.1520006 397.875666,66.032 Z M411.170333,55.25 C411.014332,55.0939992 410.936333,54.914001 410.936333,54.71 C410.936333,54.505999 411.014332,54.3320007 411.170333,54.188 C411.326334,54.0439993 411.518332,53.972 411.746333,53.972 C411.962334,53.972 412.145332,54.0439993 412.295333,54.188 C412.445333,54.3320007 412.520333,54.505999 412.520333,54.71 C412.520333,54.914001 412.445333,55.0909993 412.295333,55.241 C412.145332,55.3910008 411.962334,55.466 411.746333,55.466 C411.518332,55.466 411.326334,55.3940007 411.170333,55.25 Z M411.170333,66.032 L411.170333,58.418 C411.170333,58.2979994 411.224332,58.1960004 411.332333,58.112 C411.440333,58.0279996 411.578332,57.986 411.746333,57.986 C411.914334,57.986 412.055332,58.0279996 412.169333,58.112 C412.283333,58.1960004 412.340333,58.2979994 412.340333,58.418 L412.340333,66.032 C412.340333,66.1520006 412.280333,66.2599995 412.160333,66.356 C412.040332,66.4520005 411.902334,66.5 411.746333,66.5 C411.590332,66.5 411.455333,66.4520005 411.341333,66.356 C411.227332,66.2599995 411.170333,66.1520006 411.170333,66.032 Z M414.955666,63.854 L414.955666,54.368 C414.955666,54.2479994 415.015665,54.1460004 415.135666,54.062 C415.255667,53.9779996 415.387665,53.936 415.531666,53.936 C415.687667,53.936 415.825665,53.9779996 415.945666,54.062 C416.065667,54.1460004 416.125666,54.2479994 416.125666,54.368 L416.125666,57.986 L418.447666,57.986 C418.567667,57.986 418.666666,58.0339995 418.744666,58.13 C418.822666,58.2260005 418.861666,58.3399993 418.861666,58.472 C418.861666,58.6040007 418.822666,58.7179995 418.744666,58.814 C418.666666,58.9100005 418.567667,58.958 418.447666,58.958 L416.125666,58.958 L416.125666,63.854 C416.125666,64.4420029 416.248665,64.8529988 416.494666,65.087 C416.740667,65.3210012 417.175663,65.438 417.799666,65.438 L418.303666,65.438 C418.459667,65.438 418.588666,65.4889995 418.690666,65.591 C418.792667,65.6930005 418.843666,65.8159993 418.843666,65.96 C418.843666,66.1040007 418.792667,66.2299995 418.690666,66.338 C418.588666,66.4460005 418.459667,66.5 418.303666,66.5 L417.799666,66.5 C415.903657,66.5 414.955666,65.6180088 414.955666,63.854 Z M420.180999,65.33 C420.180999,65.2099994 420.222999,65.0900006 420.306999,64.97 C420.391,64.8499994 420.486999,64.79 420.594999,64.79 C420.679,64.79 420.810998,64.8589993 420.990999,64.997 C421.171,65.1350007 421.428998,65.2759993 421.764999,65.42 C422.101001,65.5640007 422.502997,65.636 422.970999,65.636 C423.607003,65.636 424.074998,65.5160012 424.374999,65.276 C424.675001,65.0359988 424.824999,64.7300019 424.824999,64.358 C424.824999,63.9259978 424.672001,63.5810013 424.365999,63.323 C424.059998,63.0649987 423.691002,62.8760006 423.258999,62.756 C422.826997,62.6359994 422.392002,62.5040007 421.953999,62.36 C421.515997,62.2159993 421.144001,61.9790017 420.837999,61.649 C420.531998,61.3189984 420.378999,60.8780028 420.378999,60.326 C420.378999,59.6659967 420.615997,59.0930024 421.089999,58.607 C421.564002,58.1209976 422.274995,57.878 423.222999,57.878 C423.811002,57.878 424.359997,57.9709991 424.869999,58.157 C425.380002,58.3430009 425.634999,58.5439989 425.634999,58.76 C425.634999,58.8800006 425.587,59.0119993 425.490999,59.156 C425.394999,59.3000007 425.281,59.372 425.148999,59.372 C425.112999,59.372 424.891001,59.2880008 424.482999,59.12 C424.074997,58.9519992 423.661001,58.868 423.240999,58.868 C422.640996,58.868 422.191001,59.0119986 421.890999,59.3 C421.590998,59.5880014 421.440999,59.9119982 421.440999,60.272 C421.440999,60.6440019 421.593998,60.9379989 421.899999,61.154 C422.206001,61.3700011 422.577997,61.5349994 423.015999,61.649 C423.454002,61.7630006 423.891997,61.8949992 424.329999,62.045 C424.768002,62.1950007 425.139998,62.4589981 425.445999,62.837 C425.752001,63.2150019 425.904999,63.703997 425.904999,64.304 C425.904999,65.0240036 425.650002,65.5909979 425.139999,66.005 C424.629997,66.4190021 423.919004,66.626 423.006999,66.626 C422.214995,66.626 421.546002,66.4850014 420.999999,66.203 C420.453997,65.9209986 420.180999,65.6300015 420.180999,65.33 Z M431.333666,68.282 C431.333666,67.3819955 431.843661,66.728002 432.863666,66.32 C432.203663,66.0919989 431.873666,65.678003 431.873666,65.078 C431.873666,64.5379973 432.173663,64.1060016 432.773666,63.782 C432.113663,63.2299972 431.783666,62.4740048 431.783666,61.514 L431.783666,60.83 C431.783666,59.9539956 432.068663,59.2430027 432.638666,58.697 C433.208669,58.1509973 433.955661,57.878 434.879666,57.878 C435.71967,57.878 436.421663,58.1299975 436.985666,58.634 C437.165667,58.2859983 437.369665,58.010001 437.597666,57.806 C437.825667,57.601999 438.047665,57.5 438.263666,57.5 C438.431667,57.5 438.563665,57.5479995 438.659666,57.644 C438.755666,57.7400005 438.803666,57.8479994 438.803666,57.968 C438.803666,58.1840011 438.701667,58.3159998 438.497666,58.364 C438.077664,58.4480004 437.741667,58.7059978 437.489666,59.138 C437.825668,59.5820022 437.993666,60.1459966 437.993666,60.83 L437.993666,61.514 C437.993666,62.3780043 437.699669,63.0919972 437.111666,63.656 C436.523663,64.2200028 435.773671,64.502 434.861666,64.502 C434.369663,64.502 433.907668,64.400001 433.475666,64.196 C433.103664,64.400001 432.917666,64.6339987 432.917666,64.898 C432.917666,65.1500013 433.055665,65.3419993 433.331666,65.474 C433.607667,65.6060007 433.952664,65.6899998 434.366666,65.726 C434.780668,65.7620002 435.230664,65.8189996 435.716666,65.897 C436.202668,65.9750004 436.652664,66.0739994 437.066666,66.194 C437.480668,66.3140006 437.825665,66.5359984 438.101666,66.86 C438.377667,67.1840016 438.515666,67.6039974 438.515666,68.12 C438.515666,68.9360041 438.191669,69.5659978 437.543666,70.01 C436.895663,70.4540022 436.043671,70.676 434.987666,70.676 C433.907661,70.676 433.028669,70.4600022 432.350666,70.028 C431.672663,69.5959978 431.333666,69.0140037 431.333666,68.282 Z M432.467666,68.174 C432.467666,68.6660025 432.692664,69.0619985 433.142666,69.362 C433.592668,69.6620015 434.201662,69.812 434.969666,69.812 C435.72567,69.812 436.316664,69.6620015 436.742666,69.362 C437.168668,69.0619985 437.381666,68.6600025 437.381666,68.156 C437.381666,67.9159988 437.321667,67.7060009 437.201666,67.526 C437.081665,67.3459991 436.940667,67.2080005 436.778666,67.112 C436.616665,67.0159995 436.403667,66.9320004 436.139666,66.86 C435.875665,66.7879996 435.644667,66.7400001 435.446666,66.716 C435.248665,66.6919999 434.999667,66.6680001 434.699666,66.644 L434.069666,66.572 C433.001661,66.9080017 432.467666,67.4419963 432.467666,68.174 Z M432.917666,61.496 C432.917666,62.1200031 433.094664,62.629998 433.448666,63.026 C433.802668,63.422002 434.285663,63.62 434.897666,63.62 C435.485669,63.62 435.956664,63.422002 436.310666,63.026 C436.664668,62.629998 436.841666,62.1260031 436.841666,61.514 L436.841666,60.83 C436.841666,60.229997 436.664668,59.7350019 436.310666,59.345 C435.956664,58.9549981 435.479669,58.76 434.879666,58.76 C434.279663,58.76 433.802668,58.9549981 433.448666,59.345 C433.094664,59.7350019 432.917666,60.229997 432.917666,60.83 L432.917666,61.496 Z M440.212999,63.206 L440.212999,61.19 C440.212999,60.2899955 440.548996,59.5130033 441.220999,58.859 C441.893003,58.2049967 442.702995,57.878 443.650999,57.878 C444.563004,57.878 445.351996,58.1899969 446.017999,58.814 C446.684003,59.4380031 447.016999,60.2179953 447.016999,61.154 C447.016999,61.4900017 446.978,61.759999 446.899999,61.964 C446.821999,62.168001 446.696,62.3119996 446.521999,62.396 C446.347998,62.4800004 446.189,62.5339999 446.044999,62.558 C445.900999,62.5820001 445.703001,62.594 445.450999,62.594 L441.382999,62.594 L441.382999,63.26 C441.382999,63.9680035 441.637997,64.5349979 442.147999,64.961 C442.658002,65.3870021 443.314995,65.6 444.118999,65.6 C444.527001,65.6 444.883998,65.5400006 445.189999,65.42 C445.496001,65.2999994 445.729998,65.1800006 445.891999,65.06 C446.054,64.9399994 446.182999,64.88 446.278999,64.88 C446.411,64.88 446.527999,64.9429994 446.629999,65.069 C446.732,65.1950006 446.782999,65.3179994 446.782999,65.438 C446.782999,65.6900013 446.525002,65.9509987 446.008999,66.221 C445.492997,66.4910014 444.851003,66.626 444.082999,66.626 C442.942994,66.626 442.013003,66.3110032 441.292999,65.681 C440.572996,65.0509969 440.212999,64.2260051 440.212999,63.206 Z M441.382999,61.73 L444.982999,61.73 C445.343001,61.73 445.582999,61.6910004 445.702999,61.613 C445.823,61.5349996 445.882999,61.3700013 445.882999,61.118 C445.882999,60.517997 445.670001,59.9900023 445.243999,59.534 C444.817997,59.0779977 444.281002,58.85 443.632999,58.85 C443.008996,58.85 442.478001,59.0659978 442.039999,59.498 C441.601997,59.9300022 441.382999,60.445997 441.382999,61.046 L441.382999,61.73 Z M449.164333,66.032 L449.164333,58.418 C449.164333,58.2859993 449.218332,58.1810004 449.326333,58.103 C449.434333,58.0249996 449.572332,57.986 449.740333,57.986 C449.884333,57.986 450.010332,58.0279996 450.118333,58.112 C450.226333,58.1960004 450.280333,58.2979994 450.280333,58.418 L450.280333,59.246 C450.484334,58.8619981 450.79633,58.5380013 451.216333,58.274 C451.636335,58.0099987 452.12833,57.878 452.692333,57.878 C453.556337,57.878 454.306329,58.2079967 454.942333,58.868 C455.578336,59.5280033 455.896333,60.3199954 455.896333,61.244 L455.896333,66.032 C455.896333,66.1760007 455.836333,66.2899996 455.716333,66.374 C455.596332,66.4580004 455.458333,66.5 455.302333,66.5 C455.158332,66.5 455.026333,66.4580004 454.906333,66.374 C454.786332,66.2899996 454.726333,66.1760007 454.726333,66.032 L454.726333,61.244 C454.726333,60.6559971 454.504335,60.1280023 454.060333,59.66 C453.61633,59.1919977 453.088336,58.958 452.476333,58.958 C451.91233,58.958 451.414335,59.1679979 450.982333,59.588 C450.55033,60.0080021 450.334333,60.5599966 450.334333,61.244 L450.334333,66.032 C450.334333,66.1520006 450.274333,66.2599995 450.154333,66.356 C450.034332,66.4520005 449.896333,66.5 449.740333,66.5 C449.572332,66.5 449.434333,66.4520005 449.326333,66.356 C449.218332,66.2599995 449.164333,66.1520006 449.164333,66.032 Z M458.151666,63.206 L458.151666,61.19 C458.151666,60.2899955 458.487662,59.5130033 459.159666,58.859 C459.831669,58.2049967 460.641661,57.878 461.589666,57.878 C462.50167,57.878 463.290663,58.1899969 463.956666,58.814 C464.622669,59.4380031 464.955666,60.2179953 464.955666,61.154 C464.955666,61.4900017 464.916666,61.759999 464.838666,61.964 C464.760665,62.168001 464.634667,62.3119996 464.460666,62.396 C464.286665,62.4800004 464.127667,62.5339999 463.983666,62.558 C463.839665,62.5820001 463.641667,62.594 463.389666,62.594 L459.321666,62.594 L459.321666,63.26 C459.321666,63.9680035 459.576663,64.5349979 460.086666,64.961 C460.596668,65.3870021 461.253662,65.6 462.057666,65.6 C462.465668,65.6 462.822664,65.5400006 463.128666,65.42 C463.434667,65.2999994 463.668665,65.1800006 463.830666,65.06 C463.992667,64.9399994 464.121665,64.88 464.217666,64.88 C464.349667,64.88 464.466665,64.9429994 464.568666,65.069 C464.670666,65.1950006 464.721666,65.3179994 464.721666,65.438 C464.721666,65.6900013 464.463668,65.9509987 463.947666,66.221 C463.431663,66.4910014 462.78967,66.626 462.021666,66.626 C460.88166,66.626 459.951669,66.3110032 459.231666,65.681 C458.511662,65.0509969 458.151666,64.2260051 458.151666,63.206 Z M459.321666,61.73 L462.921666,61.73 C463.281668,61.73 463.521665,61.6910004 463.641666,61.613 C463.761666,61.5349996 463.821666,61.3700013 463.821666,61.118 C463.821666,60.517997 463.608668,59.9900023 463.182666,59.534 C462.756664,59.0779977 462.219669,58.85 461.571666,58.85 C460.947663,58.85 460.416668,59.0659978 459.978666,59.498 C459.540664,59.9300022 459.321666,60.445997 459.321666,61.046 L459.321666,61.73 Z M466.562999,65.33 C466.562999,65.2099994 466.604999,65.0900006 466.688999,64.97 C466.773,64.8499994 466.868999,64.79 466.976999,64.79 C467.061,64.79 467.192998,64.8589993 467.372999,64.997 C467.553,65.1350007 467.810997,65.2759993 468.146999,65.42 C468.483001,65.5640007 468.884997,65.636 469.352999,65.636 C469.989002,65.636 470.456998,65.5160012 470.756999,65.276 C471.057001,65.0359988 471.206999,64.7300019 471.206999,64.358 C471.206999,63.9259978 471.054001,63.5810013 470.747999,63.323 C470.441998,63.0649987 470.073001,62.8760006 469.640999,62.756 C469.208997,62.6359994 468.774001,62.5040007 468.335999,62.36 C467.897997,62.2159993 467.526001,61.9790017 467.219999,61.649 C466.913998,61.3189984 466.760999,60.8780028 466.760999,60.326 C466.760999,59.6659967 466.997997,59.0930024 467.471999,58.607 C467.946002,58.1209976 468.656994,57.878 469.604999,57.878 C470.193002,57.878 470.741997,57.9709991 471.251999,58.157 C471.762002,58.3430009 472.016999,58.5439989 472.016999,58.76 C472.016999,58.8800006 471.969,59.0119993 471.872999,59.156 C471.776999,59.3000007 471.663,59.372 471.530999,59.372 C471.494999,59.372 471.273001,59.2880008 470.864999,59.12 C470.456997,58.9519992 470.043001,58.868 469.622999,58.868 C469.022996,58.868 468.573001,59.0119986 468.272999,59.3 C467.972998,59.5880014 467.822999,59.9119982 467.822999,60.272 C467.822999,60.6440019 467.975998,60.9379989 468.281999,61.154 C468.588001,61.3700011 468.959997,61.5349994 469.397999,61.649 C469.836001,61.7630006 470.273997,61.8949992 470.711999,62.045 C471.150001,62.1950007 471.521998,62.4589981 471.827999,62.837 C472.134001,63.2150019 472.286999,63.703997 472.286999,64.304 C472.286999,65.0240036 472.032002,65.5909979 471.521999,66.005 C471.011997,66.4190021 470.301004,66.626 469.388999,66.626 C468.596995,66.626 467.928002,66.4850014 467.381999,66.203 C466.835996,65.9209986 466.562999,65.6300015 466.562999,65.33 Z M474.002332,65.78 C474.002332,65.5399988 474.080332,65.3390008 474.236332,65.177 C474.392333,65.0149992 474.590331,64.934 474.830332,64.934 C475.046334,64.934 475.235332,65.0179992 475.397332,65.186 C475.559333,65.3540008 475.640332,65.5519989 475.640332,65.78 C475.640332,65.9960011 475.559333,66.1879992 475.397332,66.356 C475.235332,66.5240008 475.046334,66.608 474.830332,66.608 C474.590331,66.608 474.392333,66.5270008 474.236332,66.365 C474.080332,66.2029992 474.002332,66.0080011 474.002332,65.78 Z" id="Yougrewyourfrstredfower!Nice.Makesuretokeepitsoitcanpassonitsgenes."></path>
                </g>
            </g>
        </g>
    </g>
</svg>