<?xml version="1.0" encoding="UTF-8"?>
<svg width="368px" height="96px" viewBox="0 0 368 96" version="1.1" xmlns="http://www.w3.org/2000/svg" xmlns:xlink="http://www.w3.org/1999/xlink">
    <!-- Generator: Sketch 54.1 (76490) - https://sketchapp.com -->
    <title>option_intermediate</title>
    <desc>Created with Sketch.</desc>
    <defs>
        <rect id="path-1" x="0" y="0" width="352" height="81" rx="2"></rect>
        <filter x="-3.4%" y="-14.8%" width="106.8%" height="129.6%" filterUnits="objectBoundingBox" id="filter-2">
            <feOffset dx="0" dy="0" in="SourceAlpha" result="shadowOffsetOuter1"></feOffset>
            <feGaussianBlur stdDeviation="4" in="shadowOffsetOuter1" result="shadowBlurOuter1"></feGaussianBlur>
            <feColorMatrix values="0 0 0 0 0   0 0 0 0 0   0 0 0 0 0  0 0 0 0.302065122 0" type="matrix" in="shadowBlurOuter1"></feColorMatrix>
        </filter>
    </defs>
    <g id="{Screens/Flow}" stroke="none" stroke-width="1" fill="none" fill-rule="evenodd">
        <g id="game-mode-settings" transform="translate(-541.000000, -497.000000)" fill-rule="nonzero">
            <g id="selection-options" transform="translate(549.000000, 404.000000)">
                <g id="option_intermediate" transform="translate(0.000000, 100.500000)">
                    <g id="Rectangle">
                        <use fill="black" fill-opacity="1" filter="url(#filter-2)" xlink:href="#path-1"></use>
                        <use fill="#FFFFFF" xlink:href="#path-1"></use>
                    </g>
                    <g id="content" transform="translate(54.000000, 15.000000)">
                        <g id="text" transform="translate(67.500000, 0.000000)" fill="#111111">
                            <path d="M1.606,42.692 L1.606,33.06 C1.606,32.863999 1.7226655,32.766 1.956,32.766 C2.1893345,32.766 2.306,32.863999 2.306,33.06 L2.306,42.692 C2.306,42.8973344 2.1893345,43 1.956,43 C1.7226655,43 1.606,42.8973344 1.606,42.692 Z M4.336,42.692 L4.336,36.672 C4.336,36.4853324 4.44799888,36.392 4.672,36.392 C4.7653338,36.392 4.84466634,36.4176664 4.91,36.469 C4.97533366,36.5203336 5.008,36.5879996 5.008,36.672 L5.008,37.372 C5.16666746,37.0733318 5.4093317,36.8213344 5.736,36.616 C6.0626683,36.4106656 6.44533114,36.308 6.884,36.308 C7.56533674,36.308 8.15333086,36.5599975 8.648,37.064 C9.14266914,37.5680025 9.39,38.1699965 9.39,38.87 L9.39,42.692 C9.39,42.8973344 9.2733345,43 9.04,43 C8.81599888,43 8.704,42.8973344 8.704,42.692 L8.704,38.87 C8.704,38.3753309 8.5173352,37.932002 8.144,37.54 C7.7706648,37.147998 7.33200252,36.952 6.828,36.952 C6.35199762,36.952 5.93200182,37.1269982 5.568,37.477 C5.20399818,37.8270018 5.022,38.2913304 5.022,38.87 L5.022,42.692 C5.022,42.766667 4.98700035,42.8366663 4.917,42.902 C4.84699965,42.9673337 4.7653338,43 4.672,43 C4.5786662,43 4.49933366,42.969667 4.434,42.909 C4.36866634,42.848333 4.336,42.7760004 4.336,42.692 Z M11.14,40.998 L11.14,33.48 C11.14,33.3959996 11.1749997,33.3260003 11.245,33.27 C11.3150003,33.2139997 11.3919996,33.186 11.476,33.186 C11.5693338,33.186 11.6509996,33.2139997 11.721,33.27 C11.7910004,33.3260003 11.826,33.3959996 11.826,33.48 L11.826,36.392 L13.688,36.392 C13.762667,36.392 13.8256664,36.422333 13.877,36.483 C13.9283336,36.543667 13.954,36.6159996 13.954,36.7 C13.954,36.774667 13.9260003,36.842333 13.87,36.903 C13.8139997,36.963667 13.7533337,36.994 13.688,36.994 L11.826,36.994 L11.826,40.998 C11.826,41.4926691 11.9333323,41.8426656 12.148,42.048 C12.3626677,42.2533344 12.7359973,42.356 13.268,42.356 L13.618,42.356 C13.7113338,42.356 13.788333,42.386333 13.849,42.447 C13.909667,42.507667 13.94,42.5846662 13.94,42.678 C13.94,42.7620004 13.909667,42.8366663 13.849,42.902 C13.788333,42.9673337 13.7113338,43 13.618,43 L13.268,43 C11.8493262,43 11.14,42.3326733 11.14,40.998 Z M14.892,40.494 L14.892,38.828 C14.892,38.1373299 15.1439975,37.5446691 15.648,37.05 C16.1520025,36.5553309 16.7586631,36.308 17.468,36.308 C18.1586701,36.308 18.7559975,36.5506642 19.26,37.036 C19.7640025,37.5213358 20.016,38.1233297 20.016,38.842 C20.016,39.0940013 19.985667,39.2969992 19.925,39.451 C19.864333,39.6050008 19.7686673,39.7146663 19.638,39.78 C19.5073327,39.8453337 19.3883339,39.8849999 19.281,39.899 C19.1736661,39.9130001 19.022001,39.92 18.826,39.92 L15.578,39.92 L15.578,40.508 C15.578,41.0960029 15.7879979,41.5673316 16.208,41.922 C16.6280021,42.2766684 17.16933,42.454 17.832,42.454 C18.1680017,42.454 18.4526655,42.4073338 18.686,42.314 C18.9193345,42.2206662 19.0966661,42.1273338 19.218,42.034 C19.3393339,41.9406662 19.4326663,41.894 19.498,41.894 C19.5820004,41.894 19.6566663,41.931333 19.722,42.006 C19.7873337,42.080667 19.82,42.155333 19.82,42.23 C19.82,42.4073342 19.6263353,42.593999 19.239,42.79 C18.8516647,42.986001 18.3733362,43.084 17.804,43.084 C16.945329,43.084 16.245336,42.8460024 15.704,42.37 C15.162664,41.8939976 14.892,41.2686705 14.892,40.494 Z M15.578,39.346 L18.56,39.346 C18.8773349,39.346 19.0873328,39.3133337 19.19,39.248 C19.2926672,39.1826663 19.344,39.0473344 19.344,38.842 C19.344,38.3473309 19.1666684,37.904002 18.812,37.512 C18.4573316,37.119998 18.009336,36.924 17.468,36.924 C16.9453307,36.924 16.4996685,37.1059982 16.131,37.47 C15.7623315,37.8340018 15.578,38.2679975 15.578,38.772 L15.578,39.346 Z M21.458,42.692 L21.458,36.672 C21.458,36.4853324 21.5699989,36.392 21.794,36.392 C21.8873338,36.392 21.9666663,36.4176664 22.032,36.469 C22.0973337,36.5203336 22.13,36.5879996 22.13,36.672 L22.13,37.386 C22.2980008,37.0779985 22.547665,36.8213344 22.879,36.616 C23.210335,36.4106656 23.5953311,36.308 24.034,36.308 L24.538,36.308 C24.6220004,36.308 24.694333,36.338333 24.755,36.399 C24.815667,36.459667 24.846,36.5366662 24.846,36.63 C24.846,36.7233338 24.815667,36.800333 24.755,36.861 C24.694333,36.921667 24.6220004,36.952 24.538,36.952 L24.034,36.952 C23.5299975,36.952 23.0890019,37.1409981 22.711,37.519 C22.3329981,37.8970019 22.144,38.3893303 22.144,38.996 L22.144,42.692 C22.144,42.766667 22.1090003,42.8366663 22.039,42.902 C21.9689996,42.9673337 21.8873338,43 21.794,43 C21.7006662,43 21.6213337,42.969667 21.556,42.909 C21.4906663,42.848333 21.458,42.7760004 21.458,42.692 Z M25.924,42.692 L25.924,36.672 C25.924,36.4853324 26.0359989,36.392 26.26,36.392 C26.3533338,36.392 26.4326663,36.4176664 26.498,36.469 C26.5633337,36.5203336 26.596,36.5879996 26.596,36.672 L26.596,37.372 C26.9973353,36.6626631 27.6226624,36.308 28.472,36.308 C28.9293356,36.308 29.3376649,36.4339987 29.697,36.686 C30.0563351,36.9380013 30.3293324,37.2786645 30.516,37.708 C30.7493345,37.2506644 31.0573314,36.9030012 31.44,36.665 C31.8226686,36.4269988 32.2239979,36.308 32.644,36.308 C33.2786698,36.308 33.8246644,36.5389977 34.282,37.001 C34.7393356,37.4630023 34.968,38.0859961 34.968,38.87 L34.968,42.692 C34.968,42.766667 34.9330004,42.8366663 34.863,42.902 C34.7929996,42.9673337 34.7113338,43 34.618,43 C34.5246662,43 34.4453337,42.9673337 34.38,42.902 C34.3146663,42.8366663 34.282,42.766667 34.282,42.692 L34.282,38.87 C34.282,38.2726637 34.1070017,37.8036684 33.757,37.463 C33.4069983,37.1223316 33.0080022,36.952 32.56,36.952 C32.093331,36.952 31.6803351,37.1246649 31.321,37.47 C30.9616649,37.8153351 30.782,38.258664 30.782,38.8 L30.782,42.706 C30.782,42.902001 30.6653345,43 30.432,43 C30.2079989,43 30.096,42.902001 30.096,42.706 L30.096,38.814 C30.096,38.2913307 29.930335,37.8503351 29.599,37.491 C29.267665,37.1316649 28.8640024,36.952 28.388,36.952 C27.921331,36.952 27.5083351,37.1269982 27.149,37.477 C26.7896649,37.8270018 26.61,38.2913304 26.61,38.87 L26.61,42.692 C26.61,42.766667 26.5750003,42.8366663 26.505,42.902 C26.4349996,42.9673337 26.3533338,43 26.26,43 C26.1666662,43 26.0873337,42.969667 26.022,42.909 C25.9566663,42.848333 25.924,42.7760004 25.924,42.692 Z M36.508,40.494 L36.508,38.828 C36.508,38.1373299 36.7599975,37.5446691 37.264,37.05 C37.7680025,36.5553309 38.3746631,36.308 39.084,36.308 C39.7746701,36.308 40.3719975,36.5506642 40.876,37.036 C41.3800025,37.5213358 41.632,38.1233297 41.632,38.842 C41.632,39.0940013 41.601667,39.2969992 41.541,39.451 C41.480333,39.6050008 41.3846673,39.7146663 41.254,39.78 C41.1233327,39.8453337 41.0043339,39.8849999 40.897,39.899 C40.7896661,39.9130001 40.638001,39.92 40.442,39.92 L37.194,39.92 L37.194,40.508 C37.194,41.0960029 37.4039979,41.5673316 37.824,41.922 C38.2440021,42.2766684 38.78533,42.454 39.448,42.454 C39.7840017,42.454 40.0686655,42.4073338 40.302,42.314 C40.5353345,42.2206662 40.7126661,42.1273338 40.834,42.034 C40.9553339,41.9406662 41.0486663,41.894 41.114,41.894 C41.1980004,41.894 41.2726663,41.931333 41.338,42.006 C41.4033337,42.080667 41.436,42.155333 41.436,42.23 C41.436,42.4073342 41.2423353,42.593999 40.855,42.79 C40.4676647,42.986001 39.9893362,43.084 39.42,43.084 C38.561329,43.084 37.861336,42.8460024 37.32,42.37 C36.778664,41.8939976 36.508,41.2686705 36.508,40.494 Z M37.194,39.346 L40.176,39.346 C40.4933349,39.346 40.7033328,39.3133337 40.806,39.248 C40.9086672,39.1826663 40.96,39.0473344 40.96,38.842 C40.96,38.3473309 40.7826684,37.904002 40.428,37.512 C40.0733316,37.119998 39.625336,36.924 39.084,36.924 C38.5613307,36.924 38.1156685,37.1059982 37.747,37.47 C37.3783315,37.8340018 37.194,38.2679975 37.194,38.772 L37.194,39.346 Z M42.822,40.494 L42.822,38.87 C42.822,38.1606631 43.0693309,37.5563358 43.564,37.057 C44.0586691,36.5576642 44.6513299,36.308 45.342,36.308 C45.7713355,36.308 46.1469984,36.4083323 46.469,36.609 C46.7910016,36.8096677 47.0359992,37.0639985 47.204,37.372 L47.204,32.57 C47.204,32.4859996 47.2366663,32.4160003 47.302,32.36 C47.3673337,32.3039997 47.4513328,32.276 47.554,32.276 C47.6473338,32.276 47.7266663,32.3039997 47.792,32.36 C47.8573337,32.4160003 47.89,32.4859996 47.89,32.57 L47.89,42.692 C47.89,42.7760004 47.8573337,42.848333 47.792,42.909 C47.7266663,42.969667 47.6473338,43 47.554,43 C47.4606662,43 47.3813337,42.9673337 47.316,42.902 C47.2506663,42.8366663 47.218,42.766667 47.218,42.692 L47.218,42.02 C47.0593325,42.3186682 46.8050018,42.5706656 46.455,42.776 C46.1049982,42.9813344 45.7246687,43.084 45.314,43.084 C44.65133,43.084 44.0703358,42.8226693 43.571,42.3 C43.0716642,41.7773307 42.822,41.1753367 42.822,40.494 Z M43.508,40.494 C43.508,40.9980025 43.6946648,41.4483314 44.068,41.845 C44.4413352,42.2416687 44.8753309,42.44 45.37,42.44 C45.8460024,42.44 46.2706648,42.2626684 46.644,41.908 C47.0173352,41.5533316 47.204,41.240668 47.204,40.97 L47.204,38.87 C47.204,38.3006638 47.0196685,37.8386684 46.651,37.484 C46.2823315,37.1293316 45.8600024,36.952 45.384,36.952 C44.8799975,36.952 44.4413352,37.147998 44.068,37.54 C43.6946648,37.932002 43.508,38.3753309 43.508,38.87 L43.508,40.494 Z M49.542,33.788 C49.542,33.6573327 49.5933328,33.5430005 49.696,33.445 C49.7986672,33.3469995 49.9246659,33.298 50.074,33.298 C50.2140007,33.298 50.3353328,33.3469995 50.438,33.445 C50.5406672,33.5430005 50.592,33.6573327 50.592,33.788 C50.592,33.9280007 50.5406672,34.0493328 50.438,34.152 C50.3353328,34.2546672 50.2140007,34.306 50.074,34.306 C49.9246659,34.306 49.7986672,34.2546672 49.696,34.152 C49.5933328,34.0493328 49.542,33.9280007 49.542,33.788 Z M49.738,42.692 L49.738,36.672 C49.738,36.4853324 49.8499989,36.392 50.074,36.392 C50.3073345,36.392 50.424,36.4853324 50.424,36.672 L50.424,42.692 C50.424,42.766667 50.3890003,42.8366663 50.319,42.902 C50.2489997,42.9673337 50.1673338,43 50.074,43 C49.9806662,43 49.9013337,42.969667 49.836,42.909 C49.7706663,42.848333 49.738,42.7760004 49.738,42.692 Z M51.81,41.236 C51.81,40.5359965 52.0876639,40.0483347 52.643,39.773 C53.1983361,39.4976653 54.0079947,39.36 55.072,39.36 L55.828,39.36 L55.828,38.996 C55.828,38.4359972 55.6810015,37.953002 55.387,37.547 C55.0929985,37.140998 54.6520029,36.938 54.064,36.938 C53.7093316,36.938 53.3780015,37.0033327 53.07,37.134 C52.7619985,37.2646673 52.6033334,37.33 52.594,37.33 C52.5006662,37.33 52.4260003,37.2880004 52.37,37.204 C52.3139997,37.1199996 52.286,37.0360004 52.286,36.952 C52.286,36.7933325 52.4796647,36.646334 52.867,36.511 C53.2543353,36.375666 53.6626645,36.308 54.092,36.308 C54.9226708,36.308 55.533998,36.5623308 55.926,37.071 C56.318002,37.5796692 56.514,38.2213295 56.514,38.996 L56.514,42.692 C56.514,42.7760004 56.4813337,42.848333 56.416,42.909 C56.3506663,42.969667 56.2713338,43 56.178,43 C56.0846662,43 56.0053337,42.969667 55.94,42.909 C55.8746663,42.848333 55.842,42.7760004 55.842,42.692 L55.842,42.02 C55.2259969,42.7293369 54.5260039,43.084 53.742,43.084 C53.1726638,43.084 52.7083351,42.9276682 52.349,42.615 C51.9896649,42.3023318 51.81,41.8426697 51.81,41.236 Z M52.496,41.208 C52.496,41.6280021 52.6196654,41.942999 52.867,42.153 C53.1143346,42.3630011 53.4386647,42.468 53.84,42.468 C54.3160024,42.468 54.7663312,42.2976684 55.191,41.957 C55.6156688,41.6163316 55.828,41.2826683 55.828,40.956 L55.828,39.92 L55.142,39.92 C54.7406647,39.92 54.404668,39.9339999 54.134,39.962 C53.863332,39.9900001 53.592668,40.0436663 53.322,40.123 C53.051332,40.2023337 52.8460007,40.3329991 52.706,40.515 C52.5659993,40.6970009 52.496,40.9279986 52.496,41.208 Z M58.278,40.998 L58.278,33.48 C58.278,33.3959996 58.3129996,33.3260003 58.383,33.27 C58.4530003,33.2139997 58.5299996,33.186 58.614,33.186 C58.7073338,33.186 58.7889996,33.2139997 58.859,33.27 C58.9290003,33.3260003 58.964,33.3959996 58.964,33.48 L58.964,36.392 L60.826,36.392 C60.900667,36.392 60.9636664,36.422333 61.015,36.483 C61.0663336,36.543667 61.092,36.6159996 61.092,36.7 C61.092,36.774667 61.0640003,36.842333 61.008,36.903 C60.9519997,36.963667 60.8913337,36.994 60.826,36.994 L58.964,36.994 L58.964,40.998 C58.964,41.4926691 59.0713323,41.8426656 59.286,42.048 C59.5006677,42.2533344 59.8739973,42.356 60.406,42.356 L60.756,42.356 C60.8493338,42.356 60.926333,42.386333 60.987,42.447 C61.047667,42.507667 61.078,42.5846662 61.078,42.678 C61.078,42.7620004 61.047667,42.8366663 60.987,42.902 C60.926333,42.9673337 60.8493338,43 60.756,43 L60.406,43 C58.9873262,43 58.278,42.3326733 58.278,40.998 Z M62.03,40.494 L62.03,38.828 C62.03,38.1373299 62.2819975,37.5446691 62.786,37.05 C63.2900025,36.5553309 63.8966631,36.308 64.606,36.308 C65.2966701,36.308 65.8939975,36.5506642 66.398,37.036 C66.9020025,37.5213358 67.154,38.1233297 67.154,38.842 C67.154,39.0940013 67.123667,39.2969992 67.063,39.451 C67.002333,39.6050008 66.9066673,39.7146663 66.776,39.78 C66.6453327,39.8453337 66.5263339,39.8849999 66.419,39.899 C66.3116661,39.9130001 66.160001,39.92 65.964,39.92 L62.716,39.92 L62.716,40.508 C62.716,41.0960029 62.9259979,41.5673316 63.346,41.922 C63.7660021,42.2766684 64.30733,42.454 64.97,42.454 C65.3060017,42.454 65.5906655,42.4073338 65.824,42.314 C66.0573345,42.2206662 66.2346661,42.1273338 66.356,42.034 C66.4773339,41.9406662 66.5706663,41.894 66.636,41.894 C66.7200004,41.894 66.7946663,41.931333 66.86,42.006 C66.9253337,42.080667 66.958,42.155333 66.958,42.23 C66.958,42.4073342 66.7643353,42.593999 66.377,42.79 C65.9896647,42.986001 65.5113362,43.084 64.942,43.084 C64.083329,43.084 63.383336,42.8460024 62.842,42.37 C62.300664,41.8939976 62.03,41.2686705 62.03,40.494 Z M62.716,39.346 L65.698,39.346 C66.0153349,39.346 66.2253328,39.3133337 66.328,39.248 C66.4306672,39.1826663 66.482,39.0473344 66.482,38.842 C66.482,38.3473309 66.3046684,37.904002 65.95,37.512 C65.5953316,37.119998 65.147336,36.924 64.606,36.924 C64.0833307,36.924 63.6376685,37.1059982 63.269,37.47 C62.9003315,37.8340018 62.716,38.2679975 62.716,38.772 L62.716,39.346 Z" id="Intermediate"></path>
                            <path d="M1.298,18.226 L1.298,11.824 C1.298,10.1373249 1.74899549,8.89800396 2.651,8.106 C3.55300451,7.31399604 4.72999274,6.918 6.182,6.918 C7.67800748,6.918 8.88432875,7.28832963 9.801,8.029 C10.7176713,8.76967037 11.176,9.7266608 11.176,10.9 C11.176,11.3693357 11.0880009,11.6883325 10.912,11.857 C10.7359991,12.0256675 10.4353355,12.11 10.01,12.11 C9.24732952,12.11 8.85866674,11.8533359 8.844,11.34 C8.75599956,9.77065882 7.89800814,8.986 6.27,8.986 C4.5099912,8.986 3.63,9.93199054 3.63,11.824 L3.63,18.226 C3.63,20.1180095 4.52465772,21.064 6.314,21.064 C6.84200264,21.064 7.28199824,20.9870008 7.634,20.833 C7.98600176,20.6789992 8.23899923,20.4553348 8.393,20.162 C8.54700077,19.8686652 8.65333304,19.6120011 8.712,19.392 C8.77066696,19.1719989 8.81466652,18.9006683 8.844,18.578 C8.88800022,18.0646641 9.26932974,17.808 9.988,17.808 C10.4133355,17.808 10.7176657,17.8923325 10.901,18.061 C11.0843342,18.2296675 11.176,18.5486643 11.176,19.018 C11.176,20.2353394 10.7140046,21.2253295 9.79,21.988 C8.86599538,22.7506705 7.65600748,23.132 6.16,23.132 C4.70799274,23.132 3.53467114,22.736004 2.64,21.944 C1.74532886,21.151996 1.298,19.9126751 1.298,18.226 Z M12.694,18.798 L12.694,16.774 C12.694,15.6153275 13.1413289,14.6033377 14.036,13.738 C14.9306711,12.8726623 16.0013271,12.44 17.248,12.44 C18.4653394,12.44 19.5286621,12.8689957 20.438,13.727 C21.3473379,14.5850043 21.802,15.6006608 21.802,16.774 L21.802,18.798 C21.802,19.9420057 21.3436712,20.9576622 20.427,21.845 C19.5103287,22.7323378 18.4506727,23.176 17.248,23.176 C16.0306606,23.176 14.9673379,22.7360044 14.058,21.856 C13.1486621,20.9759956 12.694,19.9566725 12.694,18.798 Z M15.004,18.798 C15.004,19.3993363 15.2239978,19.938331 15.664,20.415 C16.1040022,20.891669 16.6319969,21.13 17.248,21.13 C17.8493363,21.13 18.3736644,20.891669 18.821,20.415 C19.2683356,19.938331 19.492,19.3993363 19.492,18.798 L19.492,16.774 C19.492,16.1873304 19.2683356,15.6593357 18.821,15.19 C18.3736644,14.7206643 17.8493363,14.486 17.248,14.486 C16.6319969,14.486 16.1040022,14.7206643 15.664,15.19 C15.2239978,15.6593357 15.004,16.1873304 15.004,16.774 L15.004,18.798 Z M24.024,22.23 L24.024,7.116 C24.024,6.8959989 24.1303323,6.71633403 24.343,6.577 C24.5556677,6.43766597 24.830665,6.368 25.168,6.368 C25.4906683,6.368 25.7656655,6.43766597 25.993,6.577 C26.2203345,6.71633403 26.334,6.8959989 26.334,7.116 L26.334,22.23 C26.334,22.4206676 26.2166678,22.5966659 25.982,22.758 C25.7473322,22.9193341 25.4760015,23 25.168,23 C24.8453317,23 24.5740011,22.9193341 24.354,22.758 C24.1339989,22.5966659 24.024,22.4206676 24.024,22.23 Z M28.534,18.798 L28.534,16.774 C28.534,15.6153275 28.9813289,14.6033377 29.876,13.738 C30.7706711,12.8726623 31.8413271,12.44 33.088,12.44 C34.3053394,12.44 35.3686621,12.8689957 36.278,13.727 C37.1873379,14.5850043 37.642,15.6006608 37.642,16.774 L37.642,18.798 C37.642,19.9420057 37.1836713,20.9576622 36.267,21.845 C35.3503288,22.7323378 34.2906727,23.176 33.088,23.176 C31.8706606,23.176 30.8073379,22.7360044 29.898,21.856 C28.9886621,20.9759956 28.534,19.9566725 28.534,18.798 Z M30.844,18.798 C30.844,19.3993363 31.0639978,19.938331 31.504,20.415 C31.9440022,20.891669 32.4719969,21.13 33.088,21.13 C33.6893363,21.13 34.2136644,20.891669 34.661,20.415 C35.1083356,19.938331 35.332,19.3993363 35.332,18.798 L35.332,16.774 C35.332,16.1873304 35.1083356,15.6593357 34.661,15.19 C34.2136644,14.7206643 33.6893363,14.486 33.088,14.486 C32.4719969,14.486 31.9440022,14.7206643 31.504,15.19 C31.0639978,15.6593357 30.844,16.1873304 30.844,16.774 L30.844,18.798 Z M39.666,22.23 L39.666,13.32 C39.666,13.0999989 39.7723323,12.920334 39.985,12.781 C40.1976677,12.641666 40.4653317,12.572 40.788,12.572 C41.0813348,12.572 41.3306656,12.641666 41.536,12.781 C41.7413344,12.920334 41.844,13.0999989 41.844,13.32 L41.844,14.288 C42.0933346,13.7746641 42.4709975,13.3383351 42.977,12.979 C43.4830025,12.6196649 44.0366637,12.44 44.638,12.44 L45.342,12.44 C45.5766678,12.44 45.7819991,12.538999 45.958,12.737 C46.1340009,12.935001 46.222,13.1733319 46.222,13.452 C46.222,13.7306681 46.1340009,13.9726656 45.958,14.178 C45.7819991,14.3833344 45.5766678,14.486 45.342,14.486 L44.638,14.486 C43.9339965,14.486 43.314336,14.7866637 42.779,15.388 C42.243664,15.9893363 41.976,16.7666619 41.976,17.72 L41.976,22.23 C41.976,22.4206676 41.8586678,22.5966659 41.624,22.758 C41.3893322,22.9193341 41.1106683,23 40.788,23 C40.4653317,23 40.1976677,22.9193341 39.985,22.758 C39.7723323,22.5966659 39.666,22.4206676 39.666,22.23 Z M47.608,22.252 L47.608,10.57 C47.608,9.3966608 47.9893295,8.40300407 48.752,7.589 C49.5146705,6.77499593 50.431328,6.368 51.502,6.368 L52.514,6.368 C52.7926681,6.368 53.0126659,6.46699901 53.174,6.665 C53.3353341,6.86300099 53.416,7.09399868 53.416,7.358 C53.416,7.62200132 53.3353341,7.85299901 53.174,8.051 C53.0126659,8.24900099 52.7926681,8.348 52.514,8.348 L51.942,8.348 C51.3553304,8.348 50.8713352,8.53866476 50.49,8.92 C50.1086648,9.30133524 49.918,9.77799714 49.918,10.35 L49.918,12.572 L52.778,12.572 C52.9686676,12.572 53.1226661,12.6563325 53.24,12.825 C53.3573339,12.9936675 53.416,13.1953322 53.416,13.43 C53.416,13.6646678 53.3573339,13.8663325 53.24,14.035 C53.1226661,14.2036675 52.9686676,14.288 52.778,14.288 L49.918,14.288 L49.918,22.252 C49.918,22.4720011 49.8006678,22.651666 49.566,22.791 C49.3313322,22.930334 49.0526683,23 48.73,23 C48.4073317,23 48.1396677,22.930334 47.927,22.791 C47.7143323,22.651666 47.608,22.4720011 47.608,22.252 Z M54.714,18.842 L54.714,13.342 C54.714,13.1366656 54.8313322,12.9570008 55.066,12.803 C55.3006678,12.6489992 55.5719985,12.572 55.88,12.572 C56.1880015,12.572 56.4556655,12.6489992 56.683,12.803 C56.9103345,12.9570008 57.024,13.1366656 57.024,13.342 L57.024,18.842 C57.024,19.4286696 57.2476644,19.9566643 57.695,20.426 C58.1423356,20.8953357 58.6666637,21.13 59.268,21.13 C59.8840031,21.13 60.4119978,20.8990023 60.852,20.437 C61.2920022,19.9749977 61.512,19.4433363 61.512,18.842 L61.512,13.32 C61.512,13.1146656 61.6256655,12.9386674 61.853,12.792 C62.0803345,12.6453326 62.3553317,12.572 62.678,12.572 C63.0006683,12.572 63.2683323,12.6453326 63.481,12.792 C63.6936677,12.9386674 63.8,13.1146656 63.8,13.32 L63.8,18.842 C63.8,20.0006725 63.3526711,21.0126623 62.458,21.878 C61.5633289,22.7433377 60.5000062,23.176 59.268,23.176 C58.0359938,23.176 56.9690045,22.7433377 56.067,21.878 C55.1649955,21.0126623 54.714,20.0006725 54.714,18.842 Z M66.33,22.23 L66.33,7.116 C66.33,6.8959989 66.4363323,6.71633403 66.649,6.577 C66.8616677,6.43766597 67.136665,6.368 67.474,6.368 C67.7966683,6.368 68.0716655,6.43766597 68.299,6.577 C68.5263345,6.71633403 68.64,6.8959989 68.64,7.116 L68.64,22.23 C68.64,22.4206676 68.5226678,22.5966659 68.288,22.758 C68.0533322,22.9193341 67.7820015,23 67.474,23 C67.1513317,23 66.8800011,22.9193341 66.66,22.758 C66.4399989,22.5966659 66.33,22.4206676 66.33,22.23 Z M75.746,18.226 L75.746,11.824 C75.746,10.1373249 76.1933289,8.89800396 77.088,8.106 C77.9826711,7.31399604 79.1559927,6.918 80.608,6.918 C82.0893407,6.918 83.295662,7.28832963 84.227,8.029 C85.158338,8.76967037 85.624,9.75599384 85.624,10.988 C85.624,11.4133355 85.5323343,11.7066659 85.349,11.868 C85.1656658,12.0293341 84.8686687,12.11 84.458,12.11 C83.6953295,12.11 83.3066667,11.8533359 83.292,11.34 C83.1306659,9.77065882 82.2580079,8.986 80.674,8.986 C78.9433247,8.986 78.078,9.93199054 78.078,11.824 L78.078,18.226 C78.078,20.1180095 78.9433247,21.064 80.674,21.064 C81.5100042,21.064 82.1553311,20.8293357 82.61,20.36 C83.0646689,19.8906643 83.292,19.1793381 83.292,18.226 L83.292,16.422 L81.07,16.422 C80.8353322,16.422 80.6520007,16.3303342 80.52,16.147 C80.3879993,15.9636658 80.322,15.7400013 80.322,15.476 C80.322,15.2413322 80.3879993,15.0286676 80.52,14.838 C80.6520007,14.6473324 80.8353322,14.552 81.07,14.552 L84.854,14.552 C85.0886678,14.552 85.275666,14.6289992 85.415,14.783 C85.554334,14.9370008 85.624,15.1239989 85.624,15.344 L85.624,18.226 C85.624,19.9126751 85.1730045,21.151996 84.271,21.944 C83.3689955,22.736004 82.1700075,23.132 80.674,23.132 C79.1779925,23.132 77.9826711,22.736004 77.088,21.944 C76.1933289,21.151996 75.746,19.9126751 75.746,18.226 Z M87.23,20.272 C87.23,19.0986608 87.6699956,18.2810023 88.55,17.819 C89.4300044,17.3569977 90.7059916,17.126 92.378,17.126 L93.346,17.126 L93.346,16.73 C93.346,16.0846634 93.1663351,15.5273357 92.807,15.058 C92.4476649,14.5886643 91.901337,14.354 91.168,14.354 C90.5373302,14.354 89.9836691,14.4639989 89.507,14.684 C89.030331,14.9040011 88.7700002,15.014 88.726,15.014 C88.4766654,15.014 88.2750008,14.8930012 88.121,14.651 C87.9669992,14.4089988 87.89,14.1413348 87.89,13.848 C87.89,13.4666648 88.2456631,13.1366681 88.957,12.858 C89.6683369,12.5793319 90.419996,12.44 91.212,12.44 C92.7226742,12.44 93.8409964,12.8469959 94.567,13.661 C95.2930036,14.4750041 95.656,15.4906606 95.656,16.708 L95.656,22.23 C95.656,22.4353344 95.5496677,22.6149992 95.337,22.769 C95.1243323,22.9230008 94.8566683,23 94.534,23 C94.2406652,23 93.9913344,22.9230008 93.786,22.769 C93.5806656,22.6149992 93.478,22.4353344 93.478,22.23 L93.478,21.46 C92.4953284,22.6040057 91.3880062,23.176 90.156,23.176 C89.3053291,23.176 88.6050028,22.9266692 88.055,22.428 C87.5049973,21.9293308 87.23,21.2106714 87.23,20.272 Z M89.562,19.986 C89.562,20.4553357 89.6939987,20.8109988 89.958,21.053 C90.2220013,21.2950012 90.5666645,21.416 90.992,21.416 C91.5493361,21.416 92.0809975,21.1813357 92.587,20.712 C93.0930025,20.2426643 93.346,19.7440026 93.346,19.216 L93.346,18.402 L92.796,18.402 C92.1359967,18.402 91.5970021,18.431333 91.179,18.49 C90.7609979,18.548667 90.3870017,18.7026654 90.057,18.952 C89.7269984,19.2013346 89.562,19.5459978 89.562,19.986 Z M98.01,22.23 L98.01,13.32 C98.01,13.0999989 98.1163323,12.920334 98.329,12.781 C98.5416677,12.641666 98.8093317,12.572 99.132,12.572 C99.4253348,12.572 99.6746656,12.641666 99.88,12.781 C100.085334,12.920334 100.188,13.0999989 100.188,13.32 L100.188,14.288 C100.437335,13.7746641 100.814997,13.3383351 101.321,12.979 C101.827003,12.6196649 102.380664,12.44 102.982,12.44 L103.686,12.44 C103.920668,12.44 104.125999,12.538999 104.302,12.737 C104.478001,12.935001 104.566,13.1733319 104.566,13.452 C104.566,13.7306681 104.478001,13.9726656 104.302,14.178 C104.125999,14.3833344 103.920668,14.486 103.686,14.486 L102.982,14.486 C102.277996,14.486 101.658336,14.7866637 101.123,15.388 C100.587664,15.9893363 100.32,16.7666619 100.32,17.72 L100.32,22.23 C100.32,22.4206676 100.202668,22.5966659 99.968,22.758 C99.7333322,22.9193341 99.4546683,23 99.132,23 C98.8093317,23 98.5416677,22.9193341 98.329,22.758 C98.1163323,22.5966659 98.01,22.4206676 98.01,22.23 Z M105.534,18.798 L105.534,16.774 C105.534,15.5859941 105.918996,14.5666709 106.689,13.716 C107.459004,12.8653291 108.386661,12.44 109.472,12.44 C110.117337,12.44 110.689331,12.6013317 111.188,12.924 C111.686669,13.2466683 112.067999,13.6426643 112.332,14.112 L112.332,7.116 C112.332,6.8959989 112.441999,6.71633403 112.662,6.577 C112.882001,6.43766597 113.160665,6.368 113.498,6.368 C113.835335,6.368 114.110332,6.43766597 114.323,6.577 C114.535668,6.71633403 114.642,6.8959989 114.642,7.116 L114.642,22.23 C114.642,22.4206676 114.532001,22.5966659 114.312,22.758 C114.091999,22.9193341 113.820668,23 113.498,23 C113.219332,23 112.973668,22.9193341 112.761,22.758 C112.548332,22.5966659 112.442,22.4206676 112.442,22.23 L112.442,21.46 C112.207332,21.9293357 111.807669,22.332665 111.243,22.67 C110.678331,23.007335 110.066003,23.176 109.406,23.176 C108.379328,23.176 107.477337,22.7323378 106.7,21.845 C105.922663,20.9576622 105.534,19.9420057 105.534,18.798 Z M107.844,18.798 C107.844,19.3993363 108.063998,19.938331 108.504,20.415 C108.944002,20.891669 109.464664,21.13 110.066,21.13 C110.638003,21.13 111.158664,20.9063356 111.628,20.459 C112.097336,20.0116644 112.332,19.6266683 112.332,19.304 L112.332,16.774 C112.332,16.09933 112.104669,15.5493355 111.65,15.124 C111.195331,14.6986645 110.67467,14.486 110.088,14.486 C109.486664,14.486 108.962336,14.7206643 108.515,15.19 C108.067664,15.6593357 107.844,16.1873304 107.844,16.774 L107.844,18.798 Z M116.688,18.798 L116.688,16.708 C116.688,15.5493275 117.135329,14.5483375 118.03,13.705 C118.924671,12.8616625 120.00266,12.44 121.264,12.44 C122.466673,12.44 123.496996,12.8249962 124.355,13.595 C125.213004,14.3650039 125.642,15.3366608 125.642,16.51 C125.642,16.9500022 125.590667,17.3056653 125.488,17.577 C125.385333,17.8483347 125.224001,18.0389994 125.004,18.149 C124.783999,18.2590005 124.578668,18.3286665 124.388,18.358 C124.197332,18.3873335 123.948002,18.402 123.64,18.402 L118.998,18.402 L118.998,18.908 C118.998,19.641337 119.261997,20.2243312 119.79,20.657 C120.318003,21.0896688 121.007329,21.306 121.858,21.306 C122.459336,21.306 123.027664,21.1666681 123.563,20.888 C124.098336,20.6093319 124.424666,20.47 124.542,20.47 C124.791335,20.47 125.003999,20.5873322 125.18,20.822 C125.356001,21.0566678 125.444,21.2839989 125.444,21.504 C125.444,21.8706685 125.092004,22.2409981 124.388,22.615 C123.683996,22.9890019 122.818672,23.176 121.792,23.176 C120.295993,23.176 119.071338,22.7726707 118.118,21.966 C117.164662,21.1593293 116.688,20.1033399 116.688,18.798 Z M118.998,16.972 L122.65,16.972 C122.972668,16.972 123.188999,16.9280004 123.299,16.84 C123.409001,16.7519996 123.464,16.5760013 123.464,16.312 C123.464,15.7253304 123.251335,15.2266687 122.826,14.816 C122.400665,14.4053313 121.87267,14.2 121.242,14.2 C120.625997,14.2 120.098002,14.3943314 119.658,14.783 C119.217998,15.1716686 118.998,15.6666637 118.998,16.268 L118.998,16.972 Z M127.512,22.23 L127.512,13.32 C127.512,13.0999989 127.618332,12.920334 127.831,12.781 C128.043668,12.641666 128.318665,12.572 128.656,12.572 C128.949335,12.572 129.194999,12.641666 129.393,12.781 C129.591001,12.920334 129.69,13.0999989 129.69,13.32 L129.69,14.112 C129.924668,13.6426643 130.302331,13.2466683 130.823,12.924 C131.343669,12.6013317 131.948663,12.44 132.638,12.44 C133.679339,12.44 134.577663,12.8653291 135.333,13.716 C136.088337,14.5666709 136.466,15.5859941 136.466,16.774 L136.466,22.23 C136.466,22.4646678 136.352334,22.651666 136.125,22.791 C135.897666,22.930334 135.622668,23 135.3,23 C135.006665,23 134.742668,22.930334 134.508,22.791 C134.273332,22.651666 134.156,22.4646678 134.156,22.23 L134.156,16.774 C134.156,16.1873304 133.936002,15.6593357 133.496,15.19 C133.055998,14.7206643 132.535336,14.486 131.934,14.486 C131.376664,14.486 130.885335,14.6949979 130.46,15.113 C130.034665,15.5310021 129.822,16.0846632 129.822,16.774 L129.822,22.23 C129.822,22.4206676 129.704668,22.5966659 129.47,22.758 C129.235332,22.9193341 128.964002,23 128.656,23 C128.333332,23 128.062001,22.9193341 127.842,22.758 C127.621999,22.5966659 127.512,22.4206676 127.512,22.23 Z" id="ColorfulGarden"></path>
                        </g>
                        <g id="check" transform="translate(0.000000, 1.000000)">
                            <circle id="Oval" fill="#FAE264" cx="25" cy="25" r="25"></circle>
                            <g transform="translate(12.000000, 17.000000)" fill="#111111" id="Path">
                                <path d="M25.090379,0.946058091 L25.090379,0.946058091 C25.5984236,1.4744537 25.5984236,2.30977867 25.090379,2.83817427 L10.2718726,18.2502723 C9.88909022,18.648388 9.25604726,18.6608181 8.85793159,18.2780357 C8.84849632,18.2689638 8.83924008,18.2597076 8.83016821,18.2502723 L0.9138322,10.016828 C0.403435511,9.48598615 0.403435511,8.64679393 0.9138322,8.11595205 L0.9138322,8.11595205 C1.39908961,7.61125646 2.20160508,7.59549871 2.70630067,8.08075612 C2.71826185,8.09225663 2.72999609,8.10399086 2.7414966,8.11595205 L9.55944282,15.2070078 L23.271137,0.946058091 C23.7541582,0.44368829 24.5529755,0.428003151 25.0553453,0.911024354 C25.0672513,0.922471862 25.0789315,0.934152025 25.090379,0.946058091 Z"></path>
                            </g>
                        </g>
                    </g>
                </g>
            </g>
        </g>
    </g>
</svg>