<?xml version="1.0" encoding="UTF-8"?>
<svg width="368px" height="97px" viewBox="0 0 368 97" version="1.1" xmlns="http://www.w3.org/2000/svg" xmlns:xlink="http://www.w3.org/1999/xlink">
    <!-- Generator: Sketch 54.1 (76490) - https://sketchapp.com -->
    <title>option_expert</title>
    <desc>Created with Sketch.</desc>
    <defs>
        <rect id="path-1" x="0" y="0" width="352" height="81" rx="2"></rect>
        <filter x="-3.4%" y="-14.8%" width="106.8%" height="129.6%" filterUnits="objectBoundingBox" id="filter-2">
            <feOffset dx="0" dy="0" in="SourceAlpha" result="shadowOffsetOuter1"></feOffset>
            <feGaussianBlur stdDeviation="4" in="shadowOffsetOuter1" result="shadowBlurOuter1"></feGaussianBlur>
            <feColorMatrix values="0 0 0 0 0   0 0 0 0 0   0 0 0 0 0  0 0 0 0.302065122 0" type="matrix" in="shadowBlurOuter1"></feColorMatrix>
        </filter>
    </defs>
    <g id="{Screens/Flow}" stroke="none" stroke-width="1" fill="none" fill-rule="evenodd">
        <g id="game-mode-settings" transform="translate(-540.000000, -597.000000)" fill-rule="nonzero">
            <g id="selection-options" transform="translate(549.000000, 404.000000)">
                <g id="option_expert" transform="translate(-1.000000, 201.000000)">
                    <g id="Rectangle">
                        <use fill="black" fill-opacity="1" filter="url(#filter-2)" xlink:href="#path-1"></use>
                        <use fill="#FFFFFF" xlink:href="#path-1"></use>
                    </g>
                    <g id="content" transform="translate(54.000000, 15.000000)">
                        <g id="text" transform="translate(67.500000, 0.000000)" fill="#111111">
                            <path d="M1.606,42.692 L1.606,33.074 C1.606,32.8686656 1.71799888,32.766 1.942,32.766 L6.926,32.766 C7.12200098,32.766 7.22,32.8733323 7.22,33.088 C7.22,33.1813338 7.19200028,33.2629996 7.136,33.333 C7.07999972,33.4030003 7.01000042,33.438 6.926,33.438 L2.306,33.438 L2.306,37.554 L4.532,37.554 C4.61600042,37.554 4.68599972,37.5866663 4.742,37.652 C4.79800028,37.7173337 4.826,37.7966662 4.826,37.89 C4.826,38.0953344 4.72800098,38.198 4.532,38.198 L2.306,38.198 L2.306,42.328 L6.926,42.328 C7.01000042,42.328 7.07999972,42.3629996 7.136,42.433 C7.19200028,42.5030004 7.22,42.5846662 7.22,42.678 C7.22,42.8926677 7.12200098,43 6.926,43 L1.942,43 C1.71799888,43 1.606,42.8973344 1.606,42.692 Z M7.892,42.748 C7.892,42.7013331 7.91066648,42.6500003 7.948,42.594 L9.852,39.654 L7.962,36.798 C7.93399986,36.7513331 7.92,36.7046669 7.92,36.658 C7.92,36.5646662 7.95966627,36.4830003 8.039,36.413 C8.11833373,36.3429996 8.20933282,36.308 8.312,36.308 C8.42400056,36.308 8.5033331,36.345333 8.55,36.42 L10.3,39.108 L12.064,36.434 C12.1200003,36.3499996 12.1946662,36.308 12.288,36.308 C12.3813338,36.308 12.4699996,36.3429996 12.554,36.413 C12.6380004,36.4830003 12.68,36.5646662 12.68,36.658 C12.68,36.7046669 12.6660001,36.7513331 12.638,36.798 L10.734,39.668 L12.652,42.594 C12.6893335,42.6500003 12.708,42.7013331 12.708,42.748 C12.708,42.8320004 12.6660004,42.9089996 12.582,42.979 C12.4979996,43.0490004 12.4093338,43.084 12.316,43.084 C12.2133328,43.084 12.1340003,43.046667 12.078,42.972 L10.3,40.228 L8.536,42.972 C8.46133296,43.046667 8.3773338,43.084 8.284,43.084 C8.1906662,43.084 8.10200042,43.0490004 8.018,42.979 C7.93399958,42.9089996 7.892,42.8320004 7.892,42.748 Z M13.982,45.982 L13.982,36.672 C13.982,36.4853324 14.0939989,36.392 14.318,36.392 C14.4113338,36.392 14.4906663,36.4176664 14.556,36.469 C14.6213337,36.5203336 14.654,36.5879996 14.654,36.672 L14.654,37.372 C15.0553353,36.6626631 15.6806624,36.308 16.53,36.308 C17.2206701,36.308 17.8133309,36.5576642 18.308,37.057 C18.8026691,37.5563358 19.05,38.1606631 19.05,38.87 L19.05,40.494 C19.05,41.1753367 18.8003358,41.7773307 18.301,42.3 C17.8016642,42.8226693 17.22067,43.084 16.558,43.084 C16.1473313,43.084 15.7693351,42.9813344 15.424,42.776 C15.0786649,42.5706656 14.8266675,42.3186682 14.668,42.02 L14.668,45.982 C14.668,46.056667 14.6330004,46.1266663 14.563,46.192 C14.4929997,46.2573337 14.4113338,46.29 14.318,46.29 C14.2246662,46.29 14.1453337,46.259667 14.08,46.199 C14.0146663,46.138333 13.982,46.0660004 13.982,45.982 Z M14.668,40.97 C14.668,41.240668 14.8546648,41.5533316 15.228,41.908 C15.6013352,42.2626684 16.0259976,42.44 16.502,42.44 C16.9966691,42.44 17.4306648,42.2416687 17.804,41.845 C18.1773352,41.4483314 18.364,40.9980025 18.364,40.494 L18.364,38.87 C18.364,38.3753309 18.1750019,37.932002 17.797,37.54 C17.4189981,37.147998 16.9780025,36.952 16.474,36.952 C15.9979976,36.952 15.5780018,37.1269982 15.214,37.477 C14.8499982,37.8270018 14.668,38.2913304 14.668,38.87 L14.668,40.97 Z M20.38,40.494 L20.38,38.828 C20.38,38.1373299 20.6319975,37.5446691 21.136,37.05 C21.6400025,36.5553309 22.2466631,36.308 22.956,36.308 C23.6466701,36.308 24.2439975,36.5506642 24.748,37.036 C25.2520025,37.5213358 25.504,38.1233297 25.504,38.842 C25.504,39.0940013 25.473667,39.2969992 25.413,39.451 C25.352333,39.6050008 25.2566673,39.7146663 25.126,39.78 C24.9953327,39.8453337 24.8763339,39.8849999 24.769,39.899 C24.6616661,39.9130001 24.510001,39.92 24.314,39.92 L21.066,39.92 L21.066,40.508 C21.066,41.0960029 21.2759979,41.5673316 21.696,41.922 C22.1160021,42.2766684 22.65733,42.454 23.32,42.454 C23.6560017,42.454 23.9406655,42.4073338 24.174,42.314 C24.4073345,42.2206662 24.5846661,42.1273338 24.706,42.034 C24.8273339,41.9406662 24.9206663,41.894 24.986,41.894 C25.0700004,41.894 25.1446663,41.931333 25.21,42.006 C25.2753337,42.080667 25.308,42.155333 25.308,42.23 C25.308,42.4073342 25.1143353,42.593999 24.727,42.79 C24.3396647,42.986001 23.8613362,43.084 23.292,43.084 C22.433329,43.084 21.733336,42.8460024 21.192,42.37 C20.650664,41.8939976 20.38,41.2686705 20.38,40.494 Z M21.066,39.346 L24.048,39.346 C24.3653349,39.346 24.5753328,39.3133337 24.678,39.248 C24.7806672,39.1826663 24.832,39.0473344 24.832,38.842 C24.832,38.3473309 24.6546684,37.904002 24.3,37.512 C23.9453316,37.119998 23.497336,36.924 22.956,36.924 C22.4333307,36.924 21.9876685,37.1059982 21.619,37.47 C21.2503315,37.8340018 21.066,38.2679975 21.066,38.772 L21.066,39.346 Z M26.946,42.692 L26.946,36.672 C26.946,36.4853324 27.0579989,36.392 27.282,36.392 C27.3753338,36.392 27.4546663,36.4176664 27.52,36.469 C27.5853337,36.5203336 27.618,36.5879996 27.618,36.672 L27.618,37.386 C27.7860008,37.0779985 28.035665,36.8213344 28.367,36.616 C28.698335,36.4106656 29.0833311,36.308 29.522,36.308 L30.026,36.308 C30.1100004,36.308 30.182333,36.338333 30.243,36.399 C30.303667,36.459667 30.334,36.5366662 30.334,36.63 C30.334,36.7233338 30.303667,36.800333 30.243,36.861 C30.182333,36.921667 30.1100004,36.952 30.026,36.952 L29.522,36.952 C29.0179975,36.952 28.5770019,37.1409981 28.199,37.519 C27.8209981,37.8970019 27.632,38.3893303 27.632,38.996 L27.632,42.692 C27.632,42.766667 27.5970003,42.8366663 27.527,42.902 C27.4569996,42.9673337 27.3753338,43 27.282,43 C27.1886662,43 27.1093337,42.969667 27.044,42.909 C26.9786663,42.848333 26.946,42.7760004 26.946,42.692 Z M31.384,40.998 L31.384,33.48 C31.384,33.3959996 31.4189997,33.3260003 31.489,33.27 C31.5590003,33.2139997 31.6359996,33.186 31.72,33.186 C31.8133338,33.186 31.8949996,33.2139997 31.965,33.27 C32.0350004,33.3260003 32.07,33.3959996 32.07,33.48 L32.07,36.392 L33.932,36.392 C34.006667,36.392 34.0696664,36.422333 34.121,36.483 C34.1723336,36.543667 34.198,36.6159996 34.198,36.7 C34.198,36.774667 34.1700003,36.842333 34.114,36.903 C34.0579997,36.963667 33.9973337,36.994 33.932,36.994 L32.07,36.994 L32.07,40.998 C32.07,41.4926691 32.1773323,41.8426656 32.392,42.048 C32.6066677,42.2533344 32.9799973,42.356 33.512,42.356 L33.862,42.356 C33.9553338,42.356 34.032333,42.386333 34.093,42.447 C34.153667,42.507667 34.184,42.5846662 34.184,42.678 C34.184,42.7620004 34.153667,42.8366663 34.093,42.902 C34.032333,42.9673337 33.9553338,43 33.862,43 L33.512,43 C32.0933262,43 31.384,42.3326733 31.384,40.998 Z" id="Expert"></path>
                            <path d="M0.308,7.974 C0.308,7.69533194 0.37399934,7.44966773 0.506,7.237 C0.63800066,7.02433227 0.82866542,6.918 1.078,6.918 L10.208,6.918 C10.4573346,6.918 10.6479993,7.02066564 10.78,7.226 C10.9120007,7.43133436 10.978,7.67333194 10.978,7.952 C10.978,8.26000154 10.908334,8.52033227 10.769,8.733 C10.629666,8.94566773 10.4426678,9.052 10.208,9.052 L6.82,9.052 L6.82,22.23 C6.82,22.4646678 6.70266784,22.651666 6.468,22.791 C6.23333216,22.930334 5.96200154,23 5.654,23 C5.33133172,23 5.05633447,22.930334 4.829,22.791 C4.60166553,22.651666 4.488,22.4646678 4.488,22.23 L4.488,9.052 L1.078,9.052 C0.84333216,9.052 0.65633403,8.94566773 0.517,8.733 C0.37766597,8.52033227 0.308,8.2673348 0.308,7.974 Z M12.298,8.744 C12.298,8.40666498 12.4299987,8.12066784 12.694,7.886 C12.9580013,7.65133216 13.2733315,7.534 13.64,7.534 C14.0066685,7.534 14.3219987,7.65133216 14.586,7.886 C14.8500013,8.12066784 14.982,8.40666498 14.982,8.744 C14.982,9.06666828 14.8500013,9.34899879 14.586,9.591 C14.3219987,9.83300121 14.0066685,9.954 13.64,9.954 C13.2733315,9.954 12.9580013,9.83300121 12.694,9.591 C12.4299987,9.34899879 12.298,9.06666828 12.298,8.744 Z M12.496,22.23 L12.496,13.32 C12.496,13.0999989 12.6023323,12.920334 12.815,12.781 C13.0276677,12.641666 13.302665,12.572 13.64,12.572 C13.977335,12.572 14.2559989,12.641666 14.476,12.781 C14.6960011,12.920334 14.806,13.0999989 14.806,13.32 L14.806,22.23 C14.806,22.4206676 14.6923345,22.5966659 14.465,22.758 C14.2376655,22.9193341 13.9626683,23 13.64,23 C13.3173317,23 13.0460011,22.9193341 12.826,22.758 C12.6059989,22.5966659 12.496,22.4206676 12.496,22.23 Z M17.226,22.23 L17.226,13.32 C17.226,13.0999989 17.3323323,12.920334 17.545,12.781 C17.7576677,12.641666 18.032665,12.572 18.37,12.572 C18.6633348,12.572 18.908999,12.641666 19.107,12.781 C19.305001,12.920334 19.404,13.0999989 19.404,13.32 L19.404,14.112 C19.6386678,13.6426643 20.0163307,13.2466683 20.537,12.924 C21.0576693,12.6013317 21.6626632,12.44 22.352,12.44 C23.3933385,12.44 24.2916629,12.8653291 25.047,13.716 C25.8023371,14.5666709 26.18,15.5859941 26.18,16.774 L26.18,22.23 C26.18,22.4646678 26.0663345,22.651666 25.839,22.791 C25.6116655,22.930334 25.3366683,23 25.014,23 C24.7206652,23 24.4566678,22.930334 24.222,22.791 C23.9873322,22.651666 23.87,22.4646678 23.87,22.23 L23.87,16.774 C23.87,16.1873304 23.6500022,15.6593357 23.21,15.19 C22.7699978,14.7206643 22.2493363,14.486 21.648,14.486 C21.0906639,14.486 20.5993355,14.6949979 20.174,15.113 C19.7486645,15.5310021 19.536,16.0846632 19.536,16.774 L19.536,22.23 C19.536,22.4206676 19.4186678,22.5966659 19.184,22.758 C18.9493322,22.9193341 18.6780015,23 18.37,23 C18.0473317,23 17.7760011,22.9193341 17.556,22.758 C17.3359989,22.5966659 17.226,22.4206676 17.226,22.23 Z M28.6,27.95 C27.8813297,27.95 27.522,27.6200033 27.522,26.96 C27.522,26.2999967 27.7346645,25.97 28.16,25.97 C28.8200033,25.97 29.4726634,25.6546698 30.118,25.024 C30.7633366,24.3933302 31.1593326,23.5060057 31.306,22.362 L27.61,13.826 C27.551333,13.7526663 27.522,13.6500007 27.522,13.518 C27.522,13.2393319 27.690665,12.9863345 28.028,12.759 C28.365335,12.5316655 28.702665,12.418 29.04,12.418 C29.4066685,12.418 29.6413328,12.5573319 29.744,12.836 L32.516,19.986 L34.892,12.836 C35.0240007,12.5573319 35.2439985,12.418 35.552,12.418 C35.8600015,12.418 36.1936649,12.5316655 36.553,12.759 C36.9123351,12.9863345 37.092,13.2539985 37.092,13.562 C37.092,13.6940007 37.0773335,13.7819998 37.048,13.826 L33.792,22.428 L33.418,23.418 C33.3299996,23.6233344 33.1943342,23.9386645 33.011,24.364 C32.8276657,24.7893355 32.6700007,25.1119989 32.538,25.332 L32.01,26.146 C31.7899989,26.483335 31.5700011,26.7363325 31.35,26.905 C31.1299989,27.0736675 30.8806681,27.2496657 30.602,27.433 C30.3233319,27.6163342 30.015335,27.7483329 29.678,27.829 C29.340665,27.9096671 28.9813352,27.95 28.6,27.95 Z M42.064,7.864 C42.064,7.59999868 42.2179985,7.37633425 42.526,7.193 C42.8340015,7.00966575 43.1639982,6.918 43.516,6.918 C43.9706689,6.918 44.2419996,7.07933172 44.33,7.402 L47.938,19.942 L49.918,12.066 C50.0206672,11.6113311 50.40933,11.384 51.084,11.384 C51.7293366,11.384 52.1106661,11.6113311 52.228,12.066 L54.23,19.942 L57.816,7.402 C57.9040004,7.07933172 58.1753311,6.918 58.63,6.918 C58.9820018,6.918 59.3119985,7.00966575 59.62,7.193 C59.9280015,7.37633425 60.082,7.59999868 60.082,7.864 C60.082,7.96666718 60.0746667,8.03999978 60.06,8.084 L55.704,22.34 C55.6159996,22.5893346 55.4290014,22.783666 55.143,22.923 C54.8569986,23.062334 54.545335,23.132 54.208,23.132 C53.870665,23.132 53.5590014,23.062334 53.273,22.923 C52.9869986,22.783666 52.814667,22.5893346 52.756,22.34 L51.084,15.696 L49.412,22.34 C49.353333,22.5893346 49.1810014,22.783666 48.895,22.923 C48.6089986,23.062334 48.2900018,23.132 47.938,23.132 C47.5859982,23.132 47.2706681,23.062334 46.992,22.923 C46.7133319,22.783666 46.5373337,22.5893346 46.464,22.34 L42.086,8.084 C42.0713333,8.03999978 42.064,7.96666718 42.064,7.864 Z M61.622,22.23 L61.622,7.116 C61.622,6.8959989 61.7283323,6.71633403 61.941,6.577 C62.1536677,6.43766597 62.428665,6.368 62.766,6.368 C63.0886683,6.368 63.3636655,6.43766597 63.591,6.577 C63.8183345,6.71633403 63.932,6.8959989 63.932,7.116 L63.932,14.112 C64.1666678,13.6426643 64.5296642,13.2466683 65.021,12.924 C65.5123358,12.6013317 66.0879967,12.44 66.748,12.44 C67.7893385,12.44 68.6876629,12.8653291 69.443,13.716 C70.1983371,14.5666709 70.576,15.5859941 70.576,16.774 L70.576,22.23 C70.576,22.4646678 70.4586678,22.651666 70.224,22.791 C69.9893322,22.930334 69.7180015,23 69.41,23 C69.1166652,23 68.8526678,22.930334 68.618,22.791 C68.3833322,22.651666 68.266,22.4646678 68.266,22.23 L68.266,16.774 C68.266,16.1873304 68.0460022,15.6593357 67.606,15.19 C67.1659978,14.7206643 66.6453363,14.486 66.044,14.486 C65.4866639,14.486 64.9953355,14.6949979 64.57,15.113 C64.1446645,15.5310021 63.932,16.0846632 63.932,16.774 L63.932,22.23 C63.932,22.4206676 63.8146678,22.5966659 63.58,22.758 C63.3453322,22.9193341 63.0740015,23 62.766,23 C62.4433317,23 62.1720011,22.9193341 61.952,22.758 C61.7319989,22.5966659 61.622,22.4206676 61.622,22.23 Z M72.71,8.744 C72.71,8.40666498 72.8419987,8.12066784 73.106,7.886 C73.3700013,7.65133216 73.6853315,7.534 74.052,7.534 C74.4186685,7.534 74.7339987,7.65133216 74.998,7.886 C75.2620013,8.12066784 75.394,8.40666498 75.394,8.744 C75.394,9.06666828 75.2620013,9.34899879 74.998,9.591 C74.7339987,9.83300121 74.4186685,9.954 74.052,9.954 C73.6853315,9.954 73.3700013,9.83300121 73.106,9.591 C72.8419987,9.34899879 72.71,9.06666828 72.71,8.744 Z M72.908,22.23 L72.908,13.32 C72.908,13.0999989 73.0143323,12.920334 73.227,12.781 C73.4396677,12.641666 73.714665,12.572 74.052,12.572 C74.389335,12.572 74.6679989,12.641666 74.888,12.781 C75.1080011,12.920334 75.218,13.0999989 75.218,13.32 L75.218,22.23 C75.218,22.4206676 75.1043345,22.5966659 74.877,22.758 C74.6496655,22.9193341 74.3746683,23 74.052,23 C73.7293317,23 73.4580011,22.9193341 73.238,22.758 C73.0179989,22.5966659 72.908,22.4206676 72.908,22.23 Z M77.616,19.568 L77.616,8.546 C77.616,8.34066564 77.7333322,8.1646674 77.968,8.018 C78.2026678,7.8713326 78.4666652,7.798 78.76,7.798 C79.0533348,7.798 79.3209988,7.8713326 79.563,8.018 C79.8050012,8.1646674 79.926,8.34066564 79.926,8.546 L79.926,12.572 L82.61,12.572 C82.8006676,12.572 82.9546661,12.6563325 83.072,12.825 C83.1893339,12.9936675 83.248,13.1953322 83.248,13.43 C83.248,13.6646678 83.1893339,13.8663325 83.072,14.035 C82.9546661,14.2036675 82.8006676,14.288 82.61,14.288 L79.926,14.288 L79.926,19.568 C79.926,20.0960026 80.0396655,20.4699989 80.267,20.69 C80.4943345,20.9100011 80.8939971,21.02 81.466,21.02 L82.236,21.02 C82.5440015,21.02 82.7859991,21.1153324 82.962,21.306 C83.1380009,21.4966676 83.226,21.7313319 83.226,22.01 C83.226,22.2886681 83.1380009,22.5233324 82.962,22.714 C82.7859991,22.9046676 82.5440015,23 82.236,23 L81.466,23 C78.8993205,23 77.616,21.8560114 77.616,19.568 Z M84.48,18.798 L84.48,16.708 C84.48,15.5493275 84.9273289,14.5483375 85.822,13.705 C86.7166711,12.8616625 87.7946604,12.44 89.056,12.44 C90.2586727,12.44 91.2889957,12.8249962 92.147,13.595 C93.0050043,14.3650039 93.434,15.3366608 93.434,16.51 C93.434,16.9500022 93.3826672,17.3056653 93.28,17.577 C93.1773328,17.8483347 93.0160011,18.0389994 92.796,18.149 C92.5759989,18.2590005 92.3706676,18.3286665 92.18,18.358 C91.9893324,18.3873335 91.7400015,18.402 91.432,18.402 L86.79,18.402 L86.79,18.908 C86.79,19.641337 87.0539974,20.2243312 87.582,20.657 C88.1100026,21.0896688 88.7993291,21.306 89.65,21.306 C90.2513363,21.306 90.819664,21.1666681 91.355,20.888 C91.890336,20.6093319 92.2166661,20.47 92.334,20.47 C92.5833346,20.47 92.7959991,20.5873322 92.972,20.822 C93.1480009,21.0566678 93.236,21.2839989 93.236,21.504 C93.236,21.8706685 92.8840035,22.2409981 92.18,22.615 C91.4759965,22.9890019 90.6106718,23.176 89.584,23.176 C88.0879925,23.176 86.8633381,22.7726707 85.91,21.966 C84.9566619,21.1593293 84.48,20.1033399 84.48,18.798 Z M86.79,16.972 L90.442,16.972 C90.7646683,16.972 90.9809995,16.9280004 91.091,16.84 C91.2010006,16.7519996 91.256,16.5760013 91.256,16.312 C91.256,15.7253304 91.0433355,15.2266687 90.618,14.816 C90.1926645,14.4053313 89.6646698,14.2 89.034,14.2 C88.4179969,14.2 87.8900022,14.3943314 87.45,14.783 C87.0099978,15.1716686 86.79,15.6666637 86.79,16.268 L86.79,16.972 Z M99.946,22.23 L99.946,7.688 C99.946,7.45333216 100.048666,7.26633403 100.254,7.127 C100.459334,6.98766597 100.701332,6.918 100.98,6.918 L108.702,6.918 C108.951335,6.918 109.138333,7.01699901 109.263,7.215 C109.387667,7.41300099 109.45,7.65133194 109.45,7.93 C109.45,8.2233348 109.384001,8.47266564 109.252,8.678 C109.119999,8.88333436 108.936668,8.986 108.702,8.986 L102.278,8.986 L102.278,14.024 L105.688,14.024 C105.922668,14.024 106.105999,14.1156658 106.238,14.299 C106.370001,14.4823343 106.436,14.7059987 106.436,14.97 C106.436,15.2046678 106.373667,15.4136657 106.249,15.597 C106.124333,15.7803343 105.937335,15.872 105.688,15.872 L102.278,15.872 L102.278,22.23 C102.278,22.4793346 102.164334,22.6699993 101.937,22.802 C101.709666,22.9340007 101.434668,23 101.112,23 C100.803998,23 100.532668,22.9340007 100.298,22.802 C100.063332,22.6699993 99.946,22.4793346 99.946,22.23 Z M110.946,22.23 L110.946,7.116 C110.946,6.8959989 111.052332,6.71633403 111.265,6.577 C111.477668,6.43766597 111.752665,6.368 112.09,6.368 C112.412668,6.368 112.687666,6.43766597 112.915,6.577 C113.142334,6.71633403 113.256,6.8959989 113.256,7.116 L113.256,22.23 C113.256,22.4206676 113.138668,22.5966659 112.904,22.758 C112.669332,22.9193341 112.398002,23 112.09,23 C111.767332,23 111.496001,22.9193341 111.276,22.758 C111.055999,22.5966659 110.946,22.4206676 110.946,22.23 Z M115.456,18.798 L115.456,16.774 C115.456,15.6153275 115.903329,14.6033377 116.798,13.738 C117.692671,12.8726623 118.763327,12.44 120.01,12.44 C121.227339,12.44 122.290662,12.8689957 123.2,13.727 C124.109338,14.5850043 124.564,15.6006608 124.564,16.774 L124.564,18.798 C124.564,19.9420057 124.105671,20.9576622 123.189,21.845 C122.272329,22.7323378 121.212673,23.176 120.01,23.176 C118.792661,23.176 117.729338,22.7360044 116.82,21.856 C115.910662,20.9759956 115.456,19.9566725 115.456,18.798 Z M117.766,18.798 C117.766,19.3993363 117.985998,19.938331 118.426,20.415 C118.866002,20.891669 119.393997,21.13 120.01,21.13 C120.611336,21.13 121.135664,20.891669 121.583,20.415 C122.030336,19.938331 122.254,19.3993363 122.254,18.798 L122.254,16.774 C122.254,16.1873304 122.030336,15.6593357 121.583,15.19 C121.135664,14.7206643 120.611336,14.486 120.01,14.486 C119.393997,14.486 118.866002,14.7206643 118.426,15.19 C117.985998,15.6593357 117.766,16.1873304 117.766,16.774 L117.766,18.798 Z M125.598,13.452 C125.598,13.1879987 125.759332,12.9606676 126.082,12.77 C126.404668,12.5793324 126.734665,12.484 127.072,12.484 C127.438669,12.484 127.673333,12.6233319 127.776,12.902 L130.218,19.744 L132.088,13.672 C132.190667,13.334665 132.461998,13.166 132.902,13.166 C133.342002,13.166 133.613333,13.334665 133.716,13.672 L135.564,19.788 L138.028,12.902 C138.116,12.6233319 138.343332,12.484 138.71,12.484 C139.032668,12.484 139.358998,12.5793324 139.689,12.77 C140.019002,12.9606676 140.184,13.1953319 140.184,13.474 C140.184,13.5913339 140.154667,13.7086661 140.096,13.826 L136.686,22.758 C136.568666,23.0660015 136.260669,23.22 135.762,23.22 C135.263331,23.22 134.948001,23.0733348 134.816,22.78 L132.902,17.104 L131.01,22.714 C130.877999,23.051335 130.548003,23.22 130.02,23.22 C129.535998,23.22 129.228001,23.051335 129.096,22.714 L125.686,13.826 C125.627333,13.6499991 125.598,13.5253337 125.598,13.452 Z M141.24,18.798 L141.24,16.708 C141.24,15.5493275 141.687329,14.5483375 142.582,13.705 C143.476671,12.8616625 144.55466,12.44 145.816,12.44 C147.018673,12.44 148.048996,12.8249962 148.907,13.595 C149.765004,14.3650039 150.194,15.3366608 150.194,16.51 C150.194,16.9500022 150.142667,17.3056653 150.04,17.577 C149.937333,17.8483347 149.776001,18.0389994 149.556,18.149 C149.335999,18.2590005 149.130668,18.3286665 148.94,18.358 C148.749332,18.3873335 148.500002,18.402 148.192,18.402 L143.55,18.402 L143.55,18.908 C143.55,19.641337 143.813997,20.2243312 144.342,20.657 C144.870003,21.0896688 145.559329,21.306 146.41,21.306 C147.011336,21.306 147.579664,21.1666681 148.115,20.888 C148.650336,20.6093319 148.976666,20.47 149.094,20.47 C149.343335,20.47 149.555999,20.5873322 149.732,20.822 C149.908001,21.0566678 149.996,21.2839989 149.996,21.504 C149.996,21.8706685 149.644004,22.2409981 148.94,22.615 C148.235996,22.9890019 147.370672,23.176 146.344,23.176 C144.847993,23.176 143.623338,22.7726707 142.67,21.966 C141.716662,21.1593293 141.24,20.1033399 141.24,18.798 Z M143.55,16.972 L147.202,16.972 C147.524668,16.972 147.740999,16.9280004 147.851,16.84 C147.961001,16.7519996 148.016,16.5760013 148.016,16.312 C148.016,15.7253304 147.803335,15.2266687 147.378,14.816 C146.952665,14.4053313 146.42467,14.2 145.794,14.2 C145.177997,14.2 144.650002,14.3943314 144.21,14.783 C143.769998,15.1716686 143.55,15.6666637 143.55,16.268 L143.55,16.972 Z M152.064,22.23 L152.064,13.32 C152.064,13.0999989 152.170332,12.920334 152.383,12.781 C152.595668,12.641666 152.863332,12.572 153.186,12.572 C153.479335,12.572 153.728666,12.641666 153.934,12.781 C154.139334,12.920334 154.242,13.0999989 154.242,13.32 L154.242,14.288 C154.491335,13.7746641 154.868997,13.3383351 155.375,12.979 C155.881003,12.6196649 156.434664,12.44 157.036,12.44 L157.74,12.44 C157.974668,12.44 158.179999,12.538999 158.356,12.737 C158.532001,12.935001 158.62,13.1733319 158.62,13.452 C158.62,13.7306681 158.532001,13.9726656 158.356,14.178 C158.179999,14.3833344 157.974668,14.486 157.74,14.486 L157.036,14.486 C156.331996,14.486 155.712336,14.7866637 155.177,15.388 C154.641664,15.9893363 154.374,16.7666619 154.374,17.72 L154.374,22.23 C154.374,22.4206676 154.256668,22.5966659 154.022,22.758 C153.787332,22.9193341 153.508668,23 153.186,23 C152.863332,23 152.595668,22.9193341 152.383,22.758 C152.170332,22.5966659 152.064,22.4206676 152.064,22.23 Z" id="TinyWhiteFlower"></path>
                        </g>
                        <g id="check" transform="translate(0.000000, 1.000000)">
                            <circle id="Oval" fill="#FF7D7D" cx="25" cy="25" r="25"></circle>
                            <g transform="translate(12.000000, 17.000000)" fill="#111111" id="Path">
                                <path d="M25.090379,0.946058091 L25.090379,0.946058091 C25.5984236,1.4744537 25.5984236,2.30977867 25.090379,2.83817427 L10.2718726,18.2502723 C9.88909022,18.648388 9.25604726,18.6608181 8.85793159,18.2780357 C8.84849632,18.2689638 8.83924008,18.2597076 8.83016821,18.2502723 L0.9138322,10.016828 C0.403435511,9.48598615 0.403435511,8.64679393 0.9138322,8.11595205 L0.9138322,8.11595205 C1.39908961,7.61125646 2.20160508,7.59549871 2.70630067,8.08075612 C2.71826185,8.09225663 2.72999609,8.10399086 2.7414966,8.11595205 L9.55944282,15.2070078 L23.271137,0.946058091 C23.7541582,0.44368829 24.5529755,0.428003151 25.0553453,0.911024354 C25.0672513,0.922471862 25.0789315,0.934152025 25.090379,0.946058091 Z"></path>
                            </g>
                        </g>
                    </g>
                </g>
            </g>
        </g>
    </g>
</svg>