<?xml version="1.0" encoding="UTF-8"?>
<svg width="368px" height="97px" viewBox="0 0 368 97" version="1.1" xmlns="http://www.w3.org/2000/svg" xmlns:xlink="http://www.w3.org/1999/xlink">
    <!-- Generator: Sketch 54.1 (76490) - https://sketchapp.com -->
    <title>option_beginner</title>
    <desc>Created with Sketch.</desc>
    <defs>
        <rect id="path-1" x="0" y="0" width="352" height="81" rx="2"></rect>
        <filter x="-3.4%" y="-14.8%" width="106.8%" height="129.6%" filterUnits="objectBoundingBox" id="filter-2">
            <feOffset dx="0" dy="0" in="SourceAlpha" result="shadowOffsetOuter1"></feOffset>
            <feGaussianBlur stdDeviation="4" in="shadowOffsetOuter1" result="shadowBlurOuter1"></feGaussianBlur>
            <feColorMatrix values="0 0 0 0 0   0 0 0 0 0   0 0 0 0 0  0 0 0 0.302065122 0" type="matrix" in="shadowBlurOuter1"></feColorMatrix>
        </filter>
    </defs>
    <g id="{Screens/Flow}" stroke="none" stroke-width="1" fill="none" fill-rule="evenodd">
        <g id="game-mode-settings" transform="translate(-541.000000, -396.000000)" fill-rule="nonzero">
            <g id="selection-options" transform="translate(549.000000, 404.000000)">
                <g id="option_beginner">
                    <g id="Rectangle">
                        <use fill="black" fill-opacity="1" filter="url(#filter-2)" xlink:href="#path-1"></use>
                        <use fill="#FFFFFF" xlink:href="#path-1"></use>
                    </g>
                    <g id="content" transform="translate(54.000000, 15.000000)">
                        <g id="text" transform="translate(67.500000, 0.000000)" fill="#111111">
                            <path d="M1.606,42.706 L1.606,33.074 C1.606,32.8686656 1.71799888,32.766 1.942,32.766 L4.126,32.766 C5.04067124,32.766 5.74766417,32.931665 6.247,33.263 C6.74633583,33.594335 6.996,34.2126621 6.996,35.118 C6.996,35.7060029 6.88866774,36.202998 6.674,36.609 C6.45933226,37.015002 6.17000182,37.2973325 5.806,37.456 C6.272669,37.652001 6.62966543,37.9366648 6.877,38.31 C7.12433457,38.6833352 7.248,39.2106633 7.248,39.892 L7.248,40.144 C7.248,41.1426717 6.99833583,41.8683311 6.499,42.321 C5.99966417,42.7736689 5.3300042,43 4.49,43 L1.942,43 C1.83933282,43 1.75766697,42.9720003 1.697,42.916 C1.63633303,42.8599997 1.606,42.7900004 1.606,42.706 Z M2.306,42.328 L4.434,42.328 C5.84334038,42.328 6.548,41.590674 6.548,40.116 L6.548,39.878 C6.548,39.140663 6.36833513,38.606335 6.009,38.275 C5.64966487,37.943665 5.12467012,37.778 4.434,37.778 L2.306,37.778 L2.306,42.328 Z M2.306,37.134 L4.196,37.134 C4.93333702,37.134 5.46766501,36.9870015 5.799,36.693 C6.13033499,36.3989985 6.296,35.8926703 6.296,35.174 C6.296,34.5019966 6.11400182,34.0446679 5.75,33.802 C5.38599818,33.5593321 4.84933688,33.438 4.14,33.438 L2.306,33.438 L2.306,37.134 Z M8.62,40.494 L8.62,38.828 C8.62,38.1373299 8.87199748,37.5446691 9.376,37.05 C9.88000252,36.5553309 10.4866631,36.308 11.196,36.308 C11.8866701,36.308 12.4839975,36.5506642 12.988,37.036 C13.4920025,37.5213358 13.744,38.1233297 13.744,38.842 C13.744,39.0940013 13.713667,39.2969992 13.653,39.451 C13.592333,39.6050008 13.4966673,39.7146663 13.366,39.78 C13.2353327,39.8453337 13.1163339,39.8849999 13.009,39.899 C12.9016661,39.9130001 12.750001,39.92 12.554,39.92 L9.306,39.92 L9.306,40.508 C9.306,41.0960029 9.5159979,41.5673316 9.936,41.922 C10.3560021,42.2766684 10.89733,42.454 11.56,42.454 C11.8960017,42.454 12.1806655,42.4073338 12.414,42.314 C12.6473345,42.2206662 12.8246661,42.1273338 12.946,42.034 C13.0673339,41.9406662 13.1606663,41.894 13.226,41.894 C13.3100004,41.894 13.3846663,41.931333 13.45,42.006 C13.5153337,42.080667 13.548,42.155333 13.548,42.23 C13.548,42.4073342 13.3543353,42.593999 12.967,42.79 C12.5796647,42.986001 12.1013362,43.084 11.532,43.084 C10.673329,43.084 9.97333604,42.8460024 9.432,42.37 C8.89066396,41.8939976 8.62,41.2686705 8.62,40.494 Z M9.306,39.346 L12.288,39.346 C12.6053349,39.346 12.8153328,39.3133337 12.918,39.248 C13.0206672,39.1826663 13.072,39.0473344 13.072,38.842 C13.072,38.3473309 12.8946684,37.904002 12.54,37.512 C12.1853316,37.119998 11.737336,36.924 11.196,36.924 C10.6733307,36.924 10.2276685,37.1059982 9.859,37.47 C9.49033149,37.8340018 9.306,38.2679975 9.306,38.772 L9.306,39.346 Z M14.654,44.456 C14.654,43.7279964 15.0646626,43.2146682 15.886,42.916 C15.344664,42.7386658 15.074,42.4120024 15.074,41.936 C15.074,41.5066645 15.3026644,41.1753345 15.76,40.942 C15.2653309,40.5033311 15.018,39.915337 15.018,39.178 L15.018,38.604 C15.018,37.9319966 15.2326645,37.3813355 15.662,36.952 C16.0913355,36.5226645 16.6513299,36.308 17.342,36.308 C18.0233367,36.308 18.5739979,36.5179979 18.994,36.938 C19.1246673,36.6766654 19.2856657,36.4666675 19.477,36.308 C19.6683343,36.1493325 19.8479992,36.07 20.016,36.07 C20.1373339,36.07 20.228333,36.1026663 20.289,36.168 C20.349667,36.2333337 20.38,36.3079996 20.38,36.392 C20.38,36.5600008 20.2960008,36.6533332 20.128,36.672 C19.8013317,36.6906668 19.5306677,36.9006647 19.316,37.302 C19.5586679,37.6286683 19.68,38.062664 19.68,38.604 L19.68,39.178 C19.68,39.8500034 19.4606689,40.4053311 19.022,40.844 C18.5833311,41.2826689 18.0186701,41.502 17.328,41.502 C16.9079979,41.502 16.5393349,41.4133342 16.222,41.236 C15.8859983,41.4040008 15.718,41.6093321 15.718,41.852 C15.718,42.0946679 15.8696652,42.2696661 16.173,42.377 C16.4763349,42.4843339 16.8426645,42.5543332 17.272,42.587 C17.7013355,42.6196668 18.1306645,42.673333 18.56,42.748 C18.9893355,42.822667 19.3556652,42.9906654 19.659,43.252 C19.9623349,43.5133346 20.114,43.877331 20.114,44.344 C20.114,44.9600031 19.8713358,45.4383316 19.386,45.779 C18.9006642,46.1196684 18.2473374,46.29 17.426,46.29 C16.6046626,46.29 15.9373359,46.1220017 15.424,45.786 C14.9106641,45.4499983 14.654,45.0066694 14.654,44.456 Z M15.326,44.386 C15.326,44.7873353 15.5126648,45.1116654 15.886,45.359 C16.2593352,45.6063346 16.7726634,45.73 17.426,45.73 C18.0606698,45.73 18.5529983,45.6086679 18.903,45.366 C19.2530018,45.1233321 19.428,44.7920021 19.428,44.372 C19.428,44.1666656 19.3790005,43.9916674 19.281,43.847 C19.1829995,43.7023326 19.0640007,43.5880004 18.924,43.504 C18.7839993,43.4199996 18.6043344,43.3500003 18.385,43.294 C18.1656656,43.2379997 17.9743342,43.2030001 17.811,43.189 C17.6476659,43.1749999 17.4446679,43.1586668 17.202,43.14 L16.698,43.084 C15.7833288,43.354668 15.326,43.7886637 15.326,44.386 Z M15.69,39.164 C15.69,39.6773359 15.8393318,40.099665 16.138,40.431 C16.4366682,40.762335 16.8426641,40.928 17.356,40.928 C17.8600025,40.928 18.2613318,40.7646683 18.56,40.438 C18.8586682,40.1113317 19.008,39.6913359 19.008,39.178 L19.008,38.604 C19.008,38.0999975 18.8586682,37.6870016 18.56,37.365 C18.2613318,37.0429984 17.8553359,36.882 17.342,36.882 C16.8286641,36.882 16.4250015,37.0429984 16.131,37.365 C15.8369985,37.6870016 15.69,38.0999975 15.69,38.604 L15.69,39.164 Z M21.262,33.788 C21.262,33.6573327 21.3133328,33.5430005 21.416,33.445 C21.5186672,33.3469995 21.6446659,33.298 21.794,33.298 C21.9340007,33.298 22.0553328,33.3469995 22.158,33.445 C22.2606672,33.5430005 22.312,33.6573327 22.312,33.788 C22.312,33.9280007 22.2606672,34.0493328 22.158,34.152 C22.0553328,34.2546672 21.9340007,34.306 21.794,34.306 C21.6446659,34.306 21.5186672,34.2546672 21.416,34.152 C21.3133328,34.0493328 21.262,33.9280007 21.262,33.788 Z M21.458,42.692 L21.458,36.672 C21.458,36.4853324 21.5699989,36.392 21.794,36.392 C22.0273345,36.392 22.144,36.4853324 22.144,36.672 L22.144,42.692 C22.144,42.766667 22.1090003,42.8366663 22.039,42.902 C21.9689996,42.9673337 21.8873338,43 21.794,43 C21.7006662,43 21.6213337,42.969667 21.556,42.909 C21.4906663,42.848333 21.458,42.7760004 21.458,42.692 Z M23.992,42.692 L23.992,36.672 C23.992,36.4853324 24.1039989,36.392 24.328,36.392 C24.4213338,36.392 24.5006663,36.4176664 24.566,36.469 C24.6313337,36.5203336 24.664,36.5879996 24.664,36.672 L24.664,37.372 C24.8226675,37.0733318 25.0653317,36.8213344 25.392,36.616 C25.7186683,36.4106656 26.1013311,36.308 26.54,36.308 C27.2213367,36.308 27.8093309,36.5599975 28.304,37.064 C28.7986691,37.5680025 29.046,38.1699965 29.046,38.87 L29.046,42.692 C29.046,42.8973344 28.9293345,43 28.696,43 C28.4719989,43 28.36,42.8973344 28.36,42.692 L28.36,38.87 C28.36,38.3753309 28.1733352,37.932002 27.8,37.54 C27.4266648,37.147998 26.9880025,36.952 26.484,36.952 C26.0079976,36.952 25.5880018,37.1269982 25.224,37.477 C24.8599982,37.8270018 24.678,38.2913304 24.678,38.87 L24.678,42.692 C24.678,42.766667 24.6430004,42.8366663 24.573,42.902 C24.5029996,42.9673337 24.4213338,43 24.328,43 C24.2346662,43 24.1553337,42.969667 24.09,42.909 C24.0246663,42.848333 23.992,42.7760004 23.992,42.692 Z M30.824,42.692 L30.824,36.672 C30.824,36.4853324 30.9359989,36.392 31.16,36.392 C31.2533338,36.392 31.3326663,36.4176664 31.398,36.469 C31.4633337,36.5203336 31.496,36.5879996 31.496,36.672 L31.496,37.372 C31.6546675,37.0733318 31.8973317,36.8213344 32.224,36.616 C32.5506683,36.4106656 32.9333311,36.308 33.372,36.308 C34.0533367,36.308 34.6413309,36.5599975 35.136,37.064 C35.6306691,37.5680025 35.878,38.1699965 35.878,38.87 L35.878,42.692 C35.878,42.8973344 35.7613345,43 35.528,43 C35.3039989,43 35.192,42.8973344 35.192,42.692 L35.192,38.87 C35.192,38.3753309 35.0053352,37.932002 34.632,37.54 C34.2586648,37.147998 33.8200025,36.952 33.316,36.952 C32.8399976,36.952 32.4200018,37.1269982 32.056,37.477 C31.6919982,37.8270018 31.51,38.2913304 31.51,38.87 L31.51,42.692 C31.51,42.766667 31.4750004,42.8366663 31.405,42.902 C31.3349997,42.9673337 31.2533338,43 31.16,43 C31.0666662,43 30.9873337,42.969667 30.922,42.909 C30.8566663,42.848333 30.824,42.7760004 30.824,42.692 Z M37.404,40.494 L37.404,38.828 C37.404,38.1373299 37.6559975,37.5446691 38.16,37.05 C38.6640025,36.5553309 39.2706631,36.308 39.98,36.308 C40.6706701,36.308 41.2679975,36.5506642 41.772,37.036 C42.2760025,37.5213358 42.528,38.1233297 42.528,38.842 C42.528,39.0940013 42.497667,39.2969992 42.437,39.451 C42.376333,39.6050008 42.2806673,39.7146663 42.15,39.78 C42.0193327,39.8453337 41.9003339,39.8849999 41.793,39.899 C41.6856661,39.9130001 41.534001,39.92 41.338,39.92 L38.09,39.92 L38.09,40.508 C38.09,41.0960029 38.2999979,41.5673316 38.72,41.922 C39.1400021,42.2766684 39.68133,42.454 40.344,42.454 C40.6800017,42.454 40.9646655,42.4073338 41.198,42.314 C41.4313345,42.2206662 41.6086661,42.1273338 41.73,42.034 C41.8513339,41.9406662 41.9446663,41.894 42.01,41.894 C42.0940004,41.894 42.1686663,41.931333 42.234,42.006 C42.2993337,42.080667 42.332,42.155333 42.332,42.23 C42.332,42.4073342 42.1383353,42.593999 41.751,42.79 C41.3636647,42.986001 40.8853362,43.084 40.316,43.084 C39.457329,43.084 38.757336,42.8460024 38.216,42.37 C37.674664,41.8939976 37.404,41.2686705 37.404,40.494 Z M38.09,39.346 L41.072,39.346 C41.3893349,39.346 41.5993328,39.3133337 41.702,39.248 C41.8046672,39.1826663 41.856,39.0473344 41.856,38.842 C41.856,38.3473309 41.6786684,37.904002 41.324,37.512 C40.9693316,37.119998 40.521336,36.924 39.98,36.924 C39.4573307,36.924 39.0116685,37.1059982 38.643,37.47 C38.2743315,37.8340018 38.09,38.2679975 38.09,38.772 L38.09,39.346 Z M43.97,42.692 L43.97,36.672 C43.97,36.4853324 44.0819989,36.392 44.306,36.392 C44.3993338,36.392 44.4786663,36.4176664 44.544,36.469 C44.6093337,36.5203336 44.642,36.5879996 44.642,36.672 L44.642,37.386 C44.8100008,37.0779985 45.059665,36.8213344 45.391,36.616 C45.722335,36.4106656 46.1073311,36.308 46.546,36.308 L47.05,36.308 C47.1340004,36.308 47.206333,36.338333 47.267,36.399 C47.327667,36.459667 47.358,36.5366662 47.358,36.63 C47.358,36.7233338 47.327667,36.800333 47.267,36.861 C47.206333,36.921667 47.1340004,36.952 47.05,36.952 L46.546,36.952 C46.0419975,36.952 45.6010019,37.1409981 45.223,37.519 C44.8449981,37.8970019 44.656,38.3893303 44.656,38.996 L44.656,42.692 C44.656,42.766667 44.6210003,42.8366663 44.551,42.902 C44.4809996,42.9673337 44.3993338,43 44.306,43 C44.2126662,43 44.1333337,42.969667 44.068,42.909 C44.0026663,42.848333 43.97,42.7760004 43.97,42.692 Z" id="Beginner"></path>
                            <path d="M1.452,22.23 L1.452,7.666 C1.452,7.46066564 1.5253326,7.2846674 1.672,7.138 C1.8186674,6.9913326 2.0019989,6.918 2.222,6.918 L6.402,6.918 C9.7753502,6.918 11.462,8.41398504 11.462,11.406 C11.462,12.6526729 11.1833361,13.6316631 10.626,14.343 C10.0686639,15.0543369 9.3133381,15.5273322 8.36,15.762 L11.44,21.548 C11.498667,21.6506672 11.528,21.7606661 11.528,21.878 C11.528,22.1713348 11.3776682,22.4426654 11.077,22.692 C10.7763318,22.9413346 10.457335,23.066 10.12,23.066 C9.73866476,23.066 9.43066784,22.8386689 9.196,22.384 L5.984,16.092 L3.762,16.092 L3.762,22.23 C3.762,22.4646678 3.64833447,22.651666 3.421,22.791 C3.19366553,22.930334 2.91866828,23 2.596,23 C2.28799846,23 2.02033447,22.930334 1.793,22.791 C1.56566553,22.651666 1.452,22.4646678 1.452,22.23 Z M3.762,14.222 L6.402,14.222 C8.22067576,14.222 9.13,13.3493421 9.13,11.604 C9.13,9.85865794 8.22067576,8.986 6.402,8.986 L3.762,8.986 L3.762,14.222 Z M13.112,18.798 L13.112,16.708 C13.112,15.5493275 13.5593289,14.5483375 14.454,13.705 C15.3486711,12.8616625 16.4266604,12.44 17.688,12.44 C18.8906727,12.44 19.9209957,12.8249962 20.779,13.595 C21.6370043,14.3650039 22.066,15.3366608 22.066,16.51 C22.066,16.9500022 22.0146672,17.3056653 21.912,17.577 C21.8093328,17.8483347 21.6480011,18.0389994 21.428,18.149 C21.2079989,18.2590005 21.0026676,18.3286665 20.812,18.358 C20.6213324,18.3873335 20.3720015,18.402 20.064,18.402 L15.422,18.402 L15.422,18.908 C15.422,19.641337 15.6859974,20.2243312 16.214,20.657 C16.7420026,21.0896688 17.4313291,21.306 18.282,21.306 C18.8833363,21.306 19.451664,21.1666681 19.987,20.888 C20.522336,20.6093319 20.8486661,20.47 20.966,20.47 C21.2153346,20.47 21.4279991,20.5873322 21.604,20.822 C21.7800009,21.0566678 21.868,21.2839989 21.868,21.504 C21.868,21.8706685 21.5160035,22.2409981 20.812,22.615 C20.1079965,22.9890019 19.2426718,23.176 18.216,23.176 C16.7199925,23.176 15.4953381,22.7726707 14.542,21.966 C13.5886619,21.1593293 13.112,20.1033399 13.112,18.798 Z M15.422,16.972 L19.074,16.972 C19.3966683,16.972 19.6129994,16.9280004 19.723,16.84 C19.8330005,16.7519996 19.888,16.5760013 19.888,16.312 C19.888,15.7253304 19.6753355,15.2266687 19.25,14.816 C18.8246645,14.4053313 18.2966698,14.2 17.666,14.2 C17.0499969,14.2 16.5220022,14.3943314 16.082,14.783 C15.6419978,15.1716686 15.422,15.6666637 15.422,16.268 L15.422,16.972 Z M23.54,18.798 L23.54,16.774 C23.54,15.5859941 23.9249961,14.5666709 24.695,13.716 C25.4650038,12.8653291 26.3926612,12.44 27.478,12.44 C28.1233366,12.44 28.6953308,12.6013317 29.194,12.924 C29.6926692,13.2466683 30.0739987,13.6426643 30.338,14.112 L30.338,7.116 C30.338,6.8959989 30.4479989,6.71633403 30.668,6.577 C30.8880011,6.43766597 31.166665,6.368 31.504,6.368 C31.841335,6.368 32.1163323,6.43766597 32.329,6.577 C32.5416677,6.71633403 32.648,6.8959989 32.648,7.116 L32.648,22.23 C32.648,22.4206676 32.5380011,22.5966659 32.318,22.758 C32.0979989,22.9193341 31.8266683,23 31.504,23 C31.2253319,23 30.9796677,22.9193341 30.767,22.758 C30.5543323,22.5966659 30.448,22.4206676 30.448,22.23 L30.448,21.46 C30.2133322,21.9293357 29.8136695,22.332665 29.249,22.67 C28.6843305,23.007335 28.0720033,23.176 27.412,23.176 C26.3853282,23.176 25.4833372,22.7323378 24.706,21.845 C23.9286628,20.9576622 23.54,19.9420057 23.54,18.798 Z M25.85,18.798 C25.85,19.3993363 26.0699978,19.938331 26.51,20.415 C26.9500022,20.891669 27.4706637,21.13 28.072,21.13 C28.6440029,21.13 29.1646643,20.9063356 29.634,20.459 C30.1033357,20.0116644 30.338,19.6266683 30.338,19.304 L30.338,16.774 C30.338,16.09933 30.1106689,15.5493355 29.656,15.124 C29.2013311,14.6986645 28.6806696,14.486 28.094,14.486 C27.4926637,14.486 26.9683356,14.7206643 26.521,15.19 C26.0736644,15.6593357 25.85,16.1873304 25.85,16.774 L25.85,18.798 Z M39.732,22.23 L39.732,7.688 C39.732,7.45333216 39.8346656,7.26633403 40.04,7.127 C40.2453344,6.98766597 40.4873319,6.918 40.766,6.918 L48.488,6.918 C48.7373346,6.918 48.9243327,7.01699901 49.049,7.215 C49.1736673,7.41300099 49.236,7.65133194 49.236,7.93 C49.236,8.2233348 49.1700007,8.47266564 49.038,8.678 C48.9059993,8.88333436 48.7226678,8.986 48.488,8.986 L42.064,8.986 L42.064,14.024 L45.474,14.024 C45.7086678,14.024 45.8919993,14.1156658 46.024,14.299 C46.1560007,14.4823343 46.222,14.7059987 46.222,14.97 C46.222,15.2046678 46.1596673,15.4136657 46.035,15.597 C45.9103327,15.7803343 45.7233346,15.872 45.474,15.872 L42.064,15.872 L42.064,22.23 C42.064,22.4793346 41.9503345,22.6699993 41.723,22.802 C41.4956655,22.9340007 41.2206683,23 40.898,23 C40.5899985,23 40.3186678,22.9340007 40.084,22.802 C39.8493322,22.6699993 39.732,22.4793346 39.732,22.23 Z M50.732,22.23 L50.732,7.116 C50.732,6.8959989 50.8383323,6.71633403 51.051,6.577 C51.2636677,6.43766597 51.538665,6.368 51.876,6.368 C52.1986683,6.368 52.4736655,6.43766597 52.701,6.577 C52.9283345,6.71633403 53.042,6.8959989 53.042,7.116 L53.042,22.23 C53.042,22.4206676 52.9246678,22.5966659 52.69,22.758 C52.4553322,22.9193341 52.1840015,23 51.876,23 C51.5533317,23 51.2820011,22.9193341 51.062,22.758 C50.8419989,22.5966659 50.732,22.4206676 50.732,22.23 Z M55.242,18.798 L55.242,16.774 C55.242,15.6153275 55.6893289,14.6033377 56.584,13.738 C57.4786711,12.8726623 58.5493271,12.44 59.796,12.44 C61.0133394,12.44 62.0766621,12.8689957 62.986,13.727 C63.8953379,14.5850043 64.35,15.6006608 64.35,16.774 L64.35,18.798 C64.35,19.9420057 63.8916712,20.9576622 62.975,21.845 C62.0583287,22.7323378 60.9986727,23.176 59.796,23.176 C58.5786606,23.176 57.5153379,22.7360044 56.606,21.856 C55.6966621,20.9759956 55.242,19.9566725 55.242,18.798 Z M57.552,18.798 C57.552,19.3993363 57.7719978,19.938331 58.212,20.415 C58.6520022,20.891669 59.1799969,21.13 59.796,21.13 C60.3973363,21.13 60.9216644,20.891669 61.369,20.415 C61.8163356,19.938331 62.04,19.3993363 62.04,18.798 L62.04,16.774 C62.04,16.1873304 61.8163356,15.6593357 61.369,15.19 C60.9216644,14.7206643 60.3973363,14.486 59.796,14.486 C59.1799969,14.486 58.6520022,14.7206643 58.212,15.19 C57.7719978,15.6593357 57.552,16.1873304 57.552,16.774 L57.552,18.798 Z M65.384,13.452 C65.384,13.1879987 65.5453317,12.9606676 65.868,12.77 C66.1906683,12.5793324 66.520665,12.484 66.858,12.484 C67.2246685,12.484 67.4593328,12.6233319 67.562,12.902 L70.004,19.744 L71.874,13.672 C71.9766672,13.334665 72.2479978,13.166 72.688,13.166 C73.1280022,13.166 73.3993328,13.334665 73.502,13.672 L75.35,19.788 L77.814,12.902 C77.9020004,12.6233319 78.1293315,12.484 78.496,12.484 C78.8186683,12.484 79.1449984,12.5793324 79.475,12.77 C79.8050016,12.9606676 79.97,13.1953319 79.97,13.474 C79.97,13.5913339 79.940667,13.7086661 79.882,13.826 L76.472,22.758 C76.3546661,23.0660015 76.0466692,23.22 75.548,23.22 C75.0493308,23.22 74.7340007,23.0733348 74.602,22.78 L72.688,17.104 L70.796,22.714 C70.6639993,23.051335 70.3340026,23.22 69.806,23.22 C69.3219976,23.22 69.0140007,23.051335 68.882,22.714 L65.472,13.826 C65.413333,13.6499991 65.384,13.5253337 65.384,13.452 Z M81.026,18.798 L81.026,16.708 C81.026,15.5493275 81.4733289,14.5483375 82.368,13.705 C83.2626711,12.8616625 84.3406604,12.44 85.602,12.44 C86.8046727,12.44 87.8349957,12.8249962 88.693,13.595 C89.5510043,14.3650039 89.98,15.3366608 89.98,16.51 C89.98,16.9500022 89.9286672,17.3056653 89.826,17.577 C89.7233328,17.8483347 89.5620011,18.0389994 89.342,18.149 C89.1219989,18.2590005 88.9166676,18.3286665 88.726,18.358 C88.5353324,18.3873335 88.2860015,18.402 87.978,18.402 L83.336,18.402 L83.336,18.908 C83.336,19.641337 83.5999974,20.2243312 84.128,20.657 C84.6560026,21.0896688 85.3453291,21.306 86.196,21.306 C86.7973363,21.306 87.365664,21.1666681 87.901,20.888 C88.436336,20.6093319 88.7626661,20.47 88.88,20.47 C89.1293346,20.47 89.3419991,20.5873322 89.518,20.822 C89.6940009,21.0566678 89.782,21.2839989 89.782,21.504 C89.782,21.8706685 89.4300035,22.2409981 88.726,22.615 C88.0219965,22.9890019 87.1566718,23.176 86.13,23.176 C84.6339925,23.176 83.4093381,22.7726707 82.456,21.966 C81.5026619,21.1593293 81.026,20.1033399 81.026,18.798 Z M83.336,16.972 L86.988,16.972 C87.3106683,16.972 87.5269994,16.9280004 87.637,16.84 C87.7470005,16.7519996 87.802,16.5760013 87.802,16.312 C87.802,15.7253304 87.5893355,15.2266687 87.164,14.816 C86.7386645,14.4053313 86.2106698,14.2 85.58,14.2 C84.9639969,14.2 84.4360022,14.3943314 83.996,14.783 C83.5559978,15.1716686 83.336,15.6666637 83.336,16.268 L83.336,16.972 Z M91.85,22.23 L91.85,13.32 C91.85,13.0999989 91.9563323,12.920334 92.169,12.781 C92.3816677,12.641666 92.6493317,12.572 92.972,12.572 C93.2653348,12.572 93.5146656,12.641666 93.72,12.781 C93.9253344,12.920334 94.028,13.0999989 94.028,13.32 L94.028,14.288 C94.2773346,13.7746641 94.6549975,13.3383351 95.161,12.979 C95.6670025,12.6196649 96.2206637,12.44 96.822,12.44 L97.526,12.44 C97.7606678,12.44 97.9659991,12.538999 98.142,12.737 C98.3180009,12.935001 98.406,13.1733319 98.406,13.452 C98.406,13.7306681 98.3180009,13.9726656 98.142,14.178 C97.9659991,14.3833344 97.7606678,14.486 97.526,14.486 L96.822,14.486 C96.1179965,14.486 95.498336,14.7866637 94.963,15.388 C94.427664,15.9893363 94.16,16.7666619 94.16,17.72 L94.16,22.23 C94.16,22.4206676 94.0426678,22.5966659 93.808,22.758 C93.5733322,22.9193341 93.2946683,23 92.972,23 C92.6493317,23 92.3816677,22.9193341 92.169,22.758 C91.9563323,22.5966659 91.85,22.4206676 91.85,22.23 Z M104.258,18.226 L104.258,11.824 C104.258,10.1373249 104.705329,8.89800396 105.6,8.106 C106.494671,7.31399604 107.667993,6.918 109.12,6.918 C110.601341,6.918 111.807662,7.28832963 112.739,8.029 C113.670338,8.76967037 114.136,9.75599384 114.136,10.988 C114.136,11.4133355 114.044334,11.7066659 113.861,11.868 C113.677666,12.0293341 113.380669,12.11 112.97,12.11 C112.20733,12.11 111.818667,11.8533359 111.804,11.34 C111.642666,9.77065882 110.770008,8.986 109.186,8.986 C107.455325,8.986 106.59,9.93199054 106.59,11.824 L106.59,18.226 C106.59,20.1180095 107.455325,21.064 109.186,21.064 C110.022004,21.064 110.667331,20.8293357 111.122,20.36 C111.576669,19.8906643 111.804,19.1793381 111.804,18.226 L111.804,16.422 L109.582,16.422 C109.347332,16.422 109.164001,16.3303342 109.032,16.147 C108.899999,15.9636658 108.834,15.7400013 108.834,15.476 C108.834,15.2413322 108.899999,15.0286676 109.032,14.838 C109.164001,14.6473324 109.347332,14.552 109.582,14.552 L113.366,14.552 C113.600668,14.552 113.787666,14.6289992 113.927,14.783 C114.066334,14.9370008 114.136,15.1239989 114.136,15.344 L114.136,18.226 C114.136,19.9126751 113.685005,21.151996 112.783,21.944 C111.880995,22.736004 110.682007,23.132 109.186,23.132 C107.689993,23.132 106.494671,22.736004 105.6,21.944 C104.705329,21.151996 104.258,19.9126751 104.258,18.226 Z M115.742,20.272 C115.742,19.0986608 116.181996,18.2810023 117.062,17.819 C117.942004,17.3569977 119.217992,17.126 120.89,17.126 L121.858,17.126 L121.858,16.73 C121.858,16.0846634 121.678335,15.5273357 121.319,15.058 C120.959665,14.5886643 120.413337,14.354 119.68,14.354 C119.04933,14.354 118.495669,14.4639989 118.019,14.684 C117.542331,14.9040011 117.282,15.014 117.238,15.014 C116.988665,15.014 116.787001,14.8930012 116.633,14.651 C116.478999,14.4089988 116.402,14.1413348 116.402,13.848 C116.402,13.4666648 116.757663,13.1366681 117.469,12.858 C118.180337,12.5793319 118.931996,12.44 119.724,12.44 C121.234674,12.44 122.352996,12.8469959 123.079,13.661 C123.805004,14.4750041 124.168,15.4906606 124.168,16.708 L124.168,22.23 C124.168,22.4353344 124.061668,22.6149992 123.849,22.769 C123.636332,22.9230008 123.368668,23 123.046,23 C122.752665,23 122.503334,22.9230008 122.298,22.769 C122.092666,22.6149992 121.99,22.4353344 121.99,22.23 L121.99,21.46 C121.007328,22.6040057 119.900006,23.176 118.668,23.176 C117.817329,23.176 117.117003,22.9266692 116.567,22.428 C116.016997,21.9293308 115.742,21.2106714 115.742,20.272 Z M118.074,19.986 C118.074,20.4553357 118.205999,20.8109988 118.47,21.053 C118.734001,21.2950012 119.078665,21.416 119.504,21.416 C120.061336,21.416 120.592997,21.1813357 121.099,20.712 C121.605003,20.2426643 121.858,19.7440026 121.858,19.216 L121.858,18.402 L121.308,18.402 C120.647997,18.402 120.109002,18.431333 119.691,18.49 C119.272998,18.548667 118.899002,18.7026654 118.569,18.952 C118.238998,19.2013346 118.074,19.5459978 118.074,19.986 Z M126.522,22.23 L126.522,13.32 C126.522,13.0999989 126.628332,12.920334 126.841,12.781 C127.053668,12.641666 127.321332,12.572 127.644,12.572 C127.937335,12.572 128.186666,12.641666 128.392,12.781 C128.597334,12.920334 128.7,13.0999989 128.7,13.32 L128.7,14.288 C128.949335,13.7746641 129.326997,13.3383351 129.833,12.979 C130.339003,12.6196649 130.892664,12.44 131.494,12.44 L132.198,12.44 C132.432668,12.44 132.637999,12.538999 132.814,12.737 C132.990001,12.935001 133.078,13.1733319 133.078,13.452 C133.078,13.7306681 132.990001,13.9726656 132.814,14.178 C132.637999,14.3833344 132.432668,14.486 132.198,14.486 L131.494,14.486 C130.789996,14.486 130.170336,14.7866637 129.635,15.388 C129.099664,15.9893363 128.832,16.7666619 128.832,17.72 L128.832,22.23 C128.832,22.4206676 128.714668,22.5966659 128.48,22.758 C128.245332,22.9193341 127.966668,23 127.644,23 C127.321332,23 127.053668,22.9193341 126.841,22.758 C126.628332,22.5966659 126.522,22.4206676 126.522,22.23 Z M134.046,18.798 L134.046,16.774 C134.046,15.5859941 134.430996,14.5666709 135.201,13.716 C135.971004,12.8653291 136.898661,12.44 137.984,12.44 C138.629337,12.44 139.201331,12.6013317 139.7,12.924 C140.198669,13.2466683 140.579999,13.6426643 140.844,14.112 L140.844,7.116 C140.844,6.8959989 140.953999,6.71633403 141.174,6.577 C141.394001,6.43766597 141.672665,6.368 142.01,6.368 C142.347335,6.368 142.622332,6.43766597 142.835,6.577 C143.047668,6.71633403 143.154,6.8959989 143.154,7.116 L143.154,22.23 C143.154,22.4206676 143.044001,22.5966659 142.824,22.758 C142.603999,22.9193341 142.332668,23 142.01,23 C141.731332,23 141.485668,22.9193341 141.273,22.758 C141.060332,22.5966659 140.954,22.4206676 140.954,22.23 L140.954,21.46 C140.719332,21.9293357 140.319669,22.332665 139.755,22.67 C139.190331,23.007335 138.578003,23.176 137.918,23.176 C136.891328,23.176 135.989337,22.7323378 135.212,21.845 C134.434663,20.9576622 134.046,19.9420057 134.046,18.798 Z M136.356,18.798 C136.356,19.3993363 136.575998,19.938331 137.016,20.415 C137.456002,20.891669 137.976664,21.13 138.578,21.13 C139.150003,21.13 139.670664,20.9063356 140.14,20.459 C140.609336,20.0116644 140.844,19.6266683 140.844,19.304 L140.844,16.774 C140.844,16.09933 140.616669,15.5493355 140.162,15.124 C139.707331,14.6986645 139.18667,14.486 138.6,14.486 C137.998664,14.486 137.474336,14.7206643 137.027,15.19 C136.579664,15.6593357 136.356,16.1873304 136.356,16.774 L136.356,18.798 Z M145.2,18.798 L145.2,16.708 C145.2,15.5493275 145.647329,14.5483375 146.542,13.705 C147.436671,12.8616625 148.51466,12.44 149.776,12.44 C150.978673,12.44 152.008996,12.8249962 152.867,13.595 C153.725004,14.3650039 154.154,15.3366608 154.154,16.51 C154.154,16.9500022 154.102667,17.3056653 154,17.577 C153.897333,17.8483347 153.736001,18.0389994 153.516,18.149 C153.295999,18.2590005 153.090668,18.3286665 152.9,18.358 C152.709332,18.3873335 152.460002,18.402 152.152,18.402 L147.51,18.402 L147.51,18.908 C147.51,19.641337 147.773997,20.2243312 148.302,20.657 C148.830003,21.0896688 149.519329,21.306 150.37,21.306 C150.971336,21.306 151.539664,21.1666681 152.075,20.888 C152.610336,20.6093319 152.936666,20.47 153.054,20.47 C153.303335,20.47 153.515999,20.5873322 153.692,20.822 C153.868001,21.0566678 153.956,21.2839989 153.956,21.504 C153.956,21.8706685 153.604004,22.2409981 152.9,22.615 C152.195996,22.9890019 151.330672,23.176 150.304,23.176 C148.807993,23.176 147.583338,22.7726707 146.63,21.966 C145.676662,21.1593293 145.2,20.1033399 145.2,18.798 Z M147.51,16.972 L151.162,16.972 C151.484668,16.972 151.700999,16.9280004 151.811,16.84 C151.921001,16.7519996 151.976,16.5760013 151.976,16.312 C151.976,15.7253304 151.763335,15.2266687 151.338,14.816 C150.912665,14.4053313 150.38467,14.2 149.754,14.2 C149.137997,14.2 148.610002,14.3943314 148.17,14.783 C147.729998,15.1716686 147.51,15.6666637 147.51,16.268 L147.51,16.972 Z M156.024,22.23 L156.024,13.32 C156.024,13.0999989 156.130332,12.920334 156.343,12.781 C156.555668,12.641666 156.830665,12.572 157.168,12.572 C157.461335,12.572 157.706999,12.641666 157.905,12.781 C158.103001,12.920334 158.202,13.0999989 158.202,13.32 L158.202,14.112 C158.436668,13.6426643 158.814331,13.2466683 159.335,12.924 C159.855669,12.6013317 160.460663,12.44 161.15,12.44 C162.191339,12.44 163.089663,12.8653291 163.845,13.716 C164.600337,14.5666709 164.978,15.5859941 164.978,16.774 L164.978,22.23 C164.978,22.4646678 164.864334,22.651666 164.637,22.791 C164.409666,22.930334 164.134668,23 163.812,23 C163.518665,23 163.254668,22.930334 163.02,22.791 C162.785332,22.651666 162.668,22.4646678 162.668,22.23 L162.668,16.774 C162.668,16.1873304 162.448002,15.6593357 162.008,15.19 C161.567998,14.7206643 161.047336,14.486 160.446,14.486 C159.888664,14.486 159.397335,14.6949979 158.972,15.113 C158.546665,15.5310021 158.334,16.0846632 158.334,16.774 L158.334,22.23 C158.334,22.4206676 158.216668,22.5966659 157.982,22.758 C157.747332,22.9193341 157.476002,23 157.168,23 C156.845332,23 156.574001,22.9193341 156.354,22.758 C156.133999,22.5966659 156.024,22.4206676 156.024,22.23 Z" id="RedFlowerGarden"></path>
                        </g>
                        <g id="check" transform="translate(0.000000, 1.000000)">
                            <g id="check-circle" fill="#65C96A">
                                <circle id="Oval" cx="25" cy="25" r="25"></circle>
                            </g>
                            <g transform="translate(12.000000, 17.000000)" fill="#111111" id="Path">
                                <path d="M25.090379,0.946058091 L25.090379,0.946058091 C25.5984236,1.4744537 25.5984236,2.30977867 25.090379,2.83817427 L10.2718726,18.2502723 C9.88909022,18.648388 9.25604726,18.6608181 8.85793159,18.2780357 C8.84849632,18.2689638 8.83924008,18.2597076 8.83016821,18.2502723 L0.9138322,10.016828 C0.403435511,9.48598615 0.403435511,8.64679393 0.9138322,8.11595205 L0.9138322,8.11595205 C1.39908961,7.61125646 2.20160508,7.59549871 2.70630067,8.08075612 C2.71826185,8.09225663 2.72999609,8.10399086 2.7414966,8.11595205 L9.55944282,15.2070078 L23.271137,0.946058091 C23.7541582,0.44368829 24.5529755,0.428003151 25.0553453,0.911024354 C25.0672513,0.922471862 25.0789315,0.934152025 25.090379,0.946058091 Z"></path>
                            </g>
                        </g>
                    </g>
                </g>
            </g>
        </g>
    </g>
</svg>