<?xml version="1.0" encoding="UTF-8"?>
<svg width="368px" height="97px" viewBox="0 0 368 97" version="1.1" xmlns="http://www.w3.org/2000/svg" xmlns:xlink="http://www.w3.org/1999/xlink">
    <!-- Generator: Sketch 54.1 (76490) - https://sketchapp.com -->
    <title>option_first</title>
    <desc>Created with Sketch.</desc>
    <defs>
        <rect id="path-1" x="0" y="0" width="352" height="81" rx="2"></rect>
        <filter x="-3.4%" y="-14.8%" width="106.8%" height="129.6%" filterUnits="objectBoundingBox" id="filter-2">
            <feOffset dx="0" dy="0" in="SourceAlpha" result="shadowOffsetOuter1"></feOffset>
            <feGaussianBlur stdDeviation="4" in="shadowOffsetOuter1" result="shadowBlurOuter1"></feGaussianBlur>
            <feColorMatrix values="0 0 0 0 0   0 0 0 0 0   0 0 0 0 0  0 0 0 0.302065122 0" type="matrix" in="shadowBlurOuter1"></feColorMatrix>
        </filter>
    </defs>
    <g id="{Screens/Flow}" stroke="none" stroke-width="1" fill="none" fill-rule="evenodd">
        <g id="ambient-mode-settings-(+info-modal)" transform="translate(-544.000000, -396.000000)" fill-rule="nonzero">
            <g id="selection-options" transform="translate(552.000000, 404.000000)">
                <g id="option_first">
                    <g id="Rectangle">
                        <use fill="black" fill-opacity="1" filter="url(#filter-2)" xlink:href="#path-1"></use>
                        <use fill="#FFFFFF" xlink:href="#path-1"></use>
                    </g>
                    <g id="content" transform="translate(51.000000, 15.000000)">
                        <g id="text" transform="translate(67.500000, 0.000000)" fill="#111111">
                            <path d="M1.606,42.706 L1.606,33.074 C1.606,32.8686656 1.71799888,32.766 1.942,32.766 L4.126,32.766 C5.04067124,32.766 5.74766417,32.931665 6.247,33.263 C6.74633583,33.594335 6.996,34.2126621 6.996,35.118 C6.996,35.7060029 6.88866774,36.202998 6.674,36.609 C6.45933226,37.015002 6.17000182,37.2973325 5.806,37.456 C6.272669,37.652001 6.62966543,37.9366648 6.877,38.31 C7.12433457,38.6833352 7.248,39.2106633 7.248,39.892 L7.248,40.144 C7.248,41.1426717 6.99833583,41.8683311 6.499,42.321 C5.99966417,42.7736689 5.3300042,43 4.49,43 L1.942,43 C1.83933282,43 1.75766697,42.9720003 1.697,42.916 C1.63633303,42.8599997 1.606,42.7900004 1.606,42.706 Z M2.306,42.328 L4.434,42.328 C5.84334038,42.328 6.548,41.590674 6.548,40.116 L6.548,39.878 C6.548,39.140663 6.36833513,38.606335 6.009,38.275 C5.64966487,37.943665 5.12467012,37.778 4.434,37.778 L2.306,37.778 L2.306,42.328 Z M2.306,37.134 L4.196,37.134 C4.93333702,37.134 5.46766501,36.9870015 5.799,36.693 C6.13033499,36.3989985 6.296,35.8926703 6.296,35.174 C6.296,34.5019966 6.11400182,34.0446679 5.75,33.802 C5.38599818,33.5593321 4.84933688,33.438 4.14,33.438 L2.306,33.438 L2.306,37.134 Z M8.62,40.494 L8.62,38.828 C8.62,38.1373299 8.87199748,37.5446691 9.376,37.05 C9.88000252,36.5553309 10.4866631,36.308 11.196,36.308 C11.8866701,36.308 12.4839975,36.5506642 12.988,37.036 C13.4920025,37.5213358 13.744,38.1233297 13.744,38.842 C13.744,39.0940013 13.713667,39.2969992 13.653,39.451 C13.592333,39.6050008 13.4966673,39.7146663 13.366,39.78 C13.2353327,39.8453337 13.1163339,39.8849999 13.009,39.899 C12.9016661,39.9130001 12.750001,39.92 12.554,39.92 L9.306,39.92 L9.306,40.508 C9.306,41.0960029 9.5159979,41.5673316 9.936,41.922 C10.3560021,42.2766684 10.89733,42.454 11.56,42.454 C11.8960017,42.454 12.1806655,42.4073338 12.414,42.314 C12.6473345,42.2206662 12.8246661,42.1273338 12.946,42.034 C13.0673339,41.9406662 13.1606663,41.894 13.226,41.894 C13.3100004,41.894 13.3846663,41.931333 13.45,42.006 C13.5153337,42.080667 13.548,42.155333 13.548,42.23 C13.548,42.4073342 13.3543353,42.593999 12.967,42.79 C12.5796647,42.986001 12.1013362,43.084 11.532,43.084 C10.673329,43.084 9.97333604,42.8460024 9.432,42.37 C8.89066396,41.8939976 8.62,41.2686705 8.62,40.494 Z M9.306,39.346 L12.288,39.346 C12.6053349,39.346 12.8153328,39.3133337 12.918,39.248 C13.0206672,39.1826663 13.072,39.0473344 13.072,38.842 C13.072,38.3473309 12.8946684,37.904002 12.54,37.512 C12.1853316,37.119998 11.737336,36.924 11.196,36.924 C10.6733307,36.924 10.2276685,37.1059982 9.859,37.47 C9.49033149,37.8340018 9.306,38.2679975 9.306,38.772 L9.306,39.346 Z M14.654,44.456 C14.654,43.7279964 15.0646626,43.2146682 15.886,42.916 C15.344664,42.7386658 15.074,42.4120024 15.074,41.936 C15.074,41.5066645 15.3026644,41.1753345 15.76,40.942 C15.2653309,40.5033311 15.018,39.915337 15.018,39.178 L15.018,38.604 C15.018,37.9319966 15.2326645,37.3813355 15.662,36.952 C16.0913355,36.5226645 16.6513299,36.308 17.342,36.308 C18.0233367,36.308 18.5739979,36.5179979 18.994,36.938 C19.1246673,36.6766654 19.2856657,36.4666675 19.477,36.308 C19.6683343,36.1493325 19.8479992,36.07 20.016,36.07 C20.1373339,36.07 20.228333,36.1026663 20.289,36.168 C20.349667,36.2333337 20.38,36.3079996 20.38,36.392 C20.38,36.5600008 20.2960008,36.6533332 20.128,36.672 C19.8013317,36.6906668 19.5306677,36.9006647 19.316,37.302 C19.5586679,37.6286683 19.68,38.062664 19.68,38.604 L19.68,39.178 C19.68,39.8500034 19.4606689,40.4053311 19.022,40.844 C18.5833311,41.2826689 18.0186701,41.502 17.328,41.502 C16.9079979,41.502 16.5393349,41.4133342 16.222,41.236 C15.8859983,41.4040008 15.718,41.6093321 15.718,41.852 C15.718,42.0946679 15.8696652,42.2696661 16.173,42.377 C16.4763349,42.4843339 16.8426645,42.5543332 17.272,42.587 C17.7013355,42.6196668 18.1306645,42.673333 18.56,42.748 C18.9893355,42.822667 19.3556652,42.9906654 19.659,43.252 C19.9623349,43.5133346 20.114,43.877331 20.114,44.344 C20.114,44.9600031 19.8713358,45.4383316 19.386,45.779 C18.9006642,46.1196684 18.2473374,46.29 17.426,46.29 C16.6046626,46.29 15.9373359,46.1220017 15.424,45.786 C14.9106641,45.4499983 14.654,45.0066694 14.654,44.456 Z M15.326,44.386 C15.326,44.7873353 15.5126648,45.1116654 15.886,45.359 C16.2593352,45.6063346 16.7726634,45.73 17.426,45.73 C18.0606698,45.73 18.5529983,45.6086679 18.903,45.366 C19.2530018,45.1233321 19.428,44.7920021 19.428,44.372 C19.428,44.1666656 19.3790005,43.9916674 19.281,43.847 C19.1829995,43.7023326 19.0640007,43.5880004 18.924,43.504 C18.7839993,43.4199996 18.6043344,43.3500003 18.385,43.294 C18.1656656,43.2379997 17.9743342,43.2030001 17.811,43.189 C17.6476659,43.1749999 17.4446679,43.1586668 17.202,43.14 L16.698,43.084 C15.7833288,43.354668 15.326,43.7886637 15.326,44.386 Z M15.69,39.164 C15.69,39.6773359 15.8393318,40.099665 16.138,40.431 C16.4366682,40.762335 16.8426641,40.928 17.356,40.928 C17.8600025,40.928 18.2613318,40.7646683 18.56,40.438 C18.8586682,40.1113317 19.008,39.6913359 19.008,39.178 L19.008,38.604 C19.008,38.0999975 18.8586682,37.6870016 18.56,37.365 C18.2613318,37.0429984 17.8553359,36.882 17.342,36.882 C16.8286641,36.882 16.4250015,37.0429984 16.131,37.365 C15.8369985,37.6870016 15.69,38.0999975 15.69,38.604 L15.69,39.164 Z M21.262,33.788 C21.262,33.6573327 21.3133328,33.5430005 21.416,33.445 C21.5186672,33.3469995 21.6446659,33.298 21.794,33.298 C21.9340007,33.298 22.0553328,33.3469995 22.158,33.445 C22.2606672,33.5430005 22.312,33.6573327 22.312,33.788 C22.312,33.9280007 22.2606672,34.0493328 22.158,34.152 C22.0553328,34.2546672 21.9340007,34.306 21.794,34.306 C21.6446659,34.306 21.5186672,34.2546672 21.416,34.152 C21.3133328,34.0493328 21.262,33.9280007 21.262,33.788 Z M21.458,42.692 L21.458,36.672 C21.458,36.4853324 21.5699989,36.392 21.794,36.392 C22.0273345,36.392 22.144,36.4853324 22.144,36.672 L22.144,42.692 C22.144,42.766667 22.1090003,42.8366663 22.039,42.902 C21.9689996,42.9673337 21.8873338,43 21.794,43 C21.7006662,43 21.6213337,42.969667 21.556,42.909 C21.4906663,42.848333 21.458,42.7760004 21.458,42.692 Z M23.992,42.692 L23.992,36.672 C23.992,36.4853324 24.1039989,36.392 24.328,36.392 C24.4213338,36.392 24.5006663,36.4176664 24.566,36.469 C24.6313337,36.5203336 24.664,36.5879996 24.664,36.672 L24.664,37.372 C24.8226675,37.0733318 25.0653317,36.8213344 25.392,36.616 C25.7186683,36.4106656 26.1013311,36.308 26.54,36.308 C27.2213367,36.308 27.8093309,36.5599975 28.304,37.064 C28.7986691,37.5680025 29.046,38.1699965 29.046,38.87 L29.046,42.692 C29.046,42.8973344 28.9293345,43 28.696,43 C28.4719989,43 28.36,42.8973344 28.36,42.692 L28.36,38.87 C28.36,38.3753309 28.1733352,37.932002 27.8,37.54 C27.4266648,37.147998 26.9880025,36.952 26.484,36.952 C26.0079976,36.952 25.5880018,37.1269982 25.224,37.477 C24.8599982,37.8270018 24.678,38.2913304 24.678,38.87 L24.678,42.692 C24.678,42.766667 24.6430004,42.8366663 24.573,42.902 C24.5029996,42.9673337 24.4213338,43 24.328,43 C24.2346662,43 24.1553337,42.969667 24.09,42.909 C24.0246663,42.848333 23.992,42.7760004 23.992,42.692 Z M32.952,36.7 C32.952,36.6066662 32.9916663,36.529667 33.071,36.469 C33.1503337,36.408333 33.2413328,36.378 33.344,36.378 C33.4746673,36.378 33.5679997,36.4339994 33.624,36.546 L35.514,41.796 L37.04,36.98 C37.0773335,36.8399993 37.1799992,36.77 37.348,36.77 C37.5066675,36.77 37.6046665,36.8399993 37.642,36.98 L39.126,41.866 L41.058,36.546 C41.0860001,36.4339994 41.1746659,36.378 41.324,36.378 C41.4266672,36.378 41.515333,36.4059997 41.59,36.462 C41.664667,36.5180003 41.702,36.5926662 41.702,36.686 C41.702,36.7700004 41.6833335,36.8399997 41.646,36.896 L39.462,42.902 C39.4059997,43.0326673 39.3126673,43.098 39.182,43.098 C39.0513327,43.098 38.9580003,43.0373339 38.902,42.916 L37.348,37.988 L35.808,42.846 C35.7519997,43.0140008 35.6493341,43.098 35.5,43.098 C35.3506659,43.098 35.2480003,43.0140008 35.192,42.846 L33.008,36.896 C32.9706665,36.7839994 32.952,36.7186668 32.952,36.7 Z M42.682,33.788 C42.682,33.6573327 42.7333328,33.5430005 42.836,33.445 C42.9386672,33.3469995 43.0646659,33.298 43.214,33.298 C43.3540007,33.298 43.4753328,33.3469995 43.578,33.445 C43.6806672,33.5430005 43.732,33.6573327 43.732,33.788 C43.732,33.9280007 43.6806672,34.0493328 43.578,34.152 C43.4753328,34.2546672 43.3540007,34.306 43.214,34.306 C43.0646659,34.306 42.9386672,34.2546672 42.836,34.152 C42.7333328,34.0493328 42.682,33.9280007 42.682,33.788 Z M42.878,42.692 L42.878,36.672 C42.878,36.4853324 42.9899989,36.392 43.214,36.392 C43.4473345,36.392 43.564,36.4853324 43.564,36.672 L43.564,42.692 C43.564,42.766667 43.5290003,42.8366663 43.459,42.902 C43.3889996,42.9673337 43.3073338,43 43.214,43 C43.1206662,43 43.0413337,42.969667 42.976,42.909 C42.9106663,42.848333 42.878,42.7760004 42.878,42.692 Z M45.384,40.998 L45.384,33.48 C45.384,33.3959996 45.4189996,33.3260003 45.489,33.27 C45.5590003,33.2139997 45.6359996,33.186 45.72,33.186 C45.8133338,33.186 45.8949996,33.2139997 45.965,33.27 C46.0350003,33.3260003 46.07,33.3959996 46.07,33.48 L46.07,36.392 L47.932,36.392 C48.006667,36.392 48.0696664,36.422333 48.121,36.483 C48.1723336,36.543667 48.198,36.6159996 48.198,36.7 C48.198,36.774667 48.1700003,36.842333 48.114,36.903 C48.0579997,36.963667 47.9973337,36.994 47.932,36.994 L46.07,36.994 L46.07,40.998 C46.07,41.4926691 46.1773323,41.8426656 46.392,42.048 C46.6066677,42.2533344 46.9799973,42.356 47.512,42.356 L47.862,42.356 C47.9553338,42.356 48.032333,42.386333 48.093,42.447 C48.153667,42.507667 48.184,42.5846662 48.184,42.678 C48.184,42.7620004 48.153667,42.8366663 48.093,42.902 C48.032333,42.9673337 47.9553338,43 47.862,43 L47.512,43 C46.0933262,43 45.384,42.3326733 45.384,40.998 Z M49.388,42.692 L49.388,32.57 C49.388,32.4859996 49.4206663,32.4160003 49.486,32.36 C49.5513337,32.3039997 49.6306662,32.276 49.724,32.276 C49.8266672,32.276 49.9106663,32.3039997 49.976,32.36 C50.0413337,32.4160003 50.074,32.4859996 50.074,32.57 L50.074,37.372 C50.2326675,37.0733318 50.4729984,36.8213344 50.795,36.616 C51.1170016,36.4106656 51.4973311,36.308 51.936,36.308 C52.6173367,36.308 53.2053309,36.5599975 53.7,37.064 C54.1946691,37.5680025 54.442,38.1699965 54.442,38.87 L54.442,42.692 C54.442,42.8973344 54.3253345,43 54.092,43 C53.8679989,43 53.756,42.8973344 53.756,42.692 L53.756,38.87 C53.756,38.3753309 53.5693352,37.932002 53.196,37.54 C52.8226648,37.147998 52.3840025,36.952 51.88,36.952 C51.4039976,36.952 50.9840018,37.1269982 50.62,37.477 C50.2559982,37.8270018 50.074,38.2913304 50.074,38.87 L50.074,42.692 C50.074,42.766667 50.0390003,42.8366663 49.969,42.902 C49.8989996,42.9673337 49.8173338,43 49.724,43 C49.6306662,43 49.5513337,42.969667 49.486,42.909 C49.4206663,42.848333 49.388,42.776 49.388,42.692 Z M58.558,41.236 C58.558,40.5359965 58.8356639,40.0483347 59.391,39.773 C59.9463361,39.4976653 60.7559947,39.36 61.82,39.36 L62.576,39.36 L62.576,38.996 C62.576,38.4359972 62.4290015,37.953002 62.135,37.547 C61.8409985,37.140998 61.4000029,36.938 60.812,36.938 C60.4573316,36.938 60.1260015,37.0033327 59.818,37.134 C59.5099985,37.2646673 59.3513334,37.33 59.342,37.33 C59.2486662,37.33 59.1740003,37.2880004 59.118,37.204 C59.0619997,37.1199996 59.034,37.0360004 59.034,36.952 C59.034,36.7933325 59.2276647,36.646334 59.615,36.511 C60.0023353,36.375666 60.4106645,36.308 60.84,36.308 C61.6706708,36.308 62.281998,36.5623308 62.674,37.071 C63.066002,37.5796692 63.262,38.2213295 63.262,38.996 L63.262,42.692 C63.262,42.7760004 63.2293337,42.848333 63.164,42.909 C63.0986663,42.969667 63.0193338,43 62.926,43 C62.8326662,43 62.7533337,42.969667 62.688,42.909 C62.6226663,42.848333 62.59,42.7760004 62.59,42.692 L62.59,42.02 C61.9739969,42.7293369 61.2740039,43.084 60.49,43.084 C59.9206638,43.084 59.4563351,42.9276682 59.097,42.615 C58.7376649,42.3023318 58.558,41.8426697 58.558,41.236 Z M59.244,41.208 C59.244,41.6280021 59.3676654,41.942999 59.615,42.153 C59.8623346,42.3630011 60.1866647,42.468 60.588,42.468 C61.0640024,42.468 61.5143312,42.2976684 61.939,41.957 C62.3636688,41.6163316 62.576,41.2826683 62.576,40.956 L62.576,39.92 L61.89,39.92 C61.4886647,39.92 61.152668,39.9339999 60.882,39.962 C60.611332,39.9900001 60.340668,40.0436663 60.07,40.123 C59.799332,40.2023337 59.5940007,40.3329991 59.454,40.515 C59.3139993,40.6970009 59.244,40.9279986 59.244,41.208 Z M67.182,36.7 C67.182,36.6066662 67.2216663,36.529667 67.301,36.469 C67.3803337,36.408333 67.4713328,36.378 67.574,36.378 C67.7233341,36.378 67.8166665,36.4339994 67.854,36.546 L69.772,41.838 L71.69,36.63 C71.7553337,36.4619992 71.8486661,36.378 71.97,36.378 C72.0633338,36.378 72.1543329,36.408333 72.243,36.469 C72.3316671,36.529667 72.376,36.6019996 72.376,36.686 L72.32,36.91 L70.108,42.902 C70.0426663,43.0326673 69.9306675,43.098 69.772,43.098 C69.6133325,43.098 69.5060003,43.0326673 69.45,42.902 L67.238,36.91 C67.2006665,36.7979994 67.182,36.7280001 67.182,36.7 Z M73.09,41.236 C73.09,40.5359965 73.3676639,40.0483347 73.923,39.773 C74.4783361,39.4976653 75.2879947,39.36 76.352,39.36 L77.108,39.36 L77.108,38.996 C77.108,38.4359972 76.9610015,37.953002 76.667,37.547 C76.3729985,37.140998 75.9320029,36.938 75.344,36.938 C74.9893316,36.938 74.6580015,37.0033327 74.35,37.134 C74.0419985,37.2646673 73.8833334,37.33 73.874,37.33 C73.7806662,37.33 73.7060003,37.2880004 73.65,37.204 C73.5939997,37.1199996 73.566,37.0360004 73.566,36.952 C73.566,36.7933325 73.7596647,36.646334 74.147,36.511 C74.5343353,36.375666 74.9426645,36.308 75.372,36.308 C76.2026708,36.308 76.813998,36.5623308 77.206,37.071 C77.598002,37.5796692 77.794,38.2213295 77.794,38.996 L77.794,42.692 C77.794,42.7760004 77.7613337,42.848333 77.696,42.909 C77.6306663,42.969667 77.5513338,43 77.458,43 C77.3646662,43 77.2853337,42.969667 77.22,42.909 C77.1546663,42.848333 77.122,42.7760004 77.122,42.692 L77.122,42.02 C76.5059969,42.7293369 75.8060039,43.084 75.022,43.084 C74.4526638,43.084 73.9883351,42.9276682 73.629,42.615 C73.2696649,42.3023318 73.09,41.8426697 73.09,41.236 Z M73.776,41.208 C73.776,41.6280021 73.8996654,41.942999 74.147,42.153 C74.3943346,42.3630011 74.7186647,42.468 75.12,42.468 C75.5960024,42.468 76.0463312,42.2976684 76.471,41.957 C76.8956688,41.6163316 77.108,41.2826683 77.108,40.956 L77.108,39.92 L76.422,39.92 C76.0206647,39.92 75.684668,39.9339999 75.414,39.962 C75.143332,39.9900001 74.872668,40.0436663 74.602,40.123 C74.331332,40.2023337 74.1260007,40.3329991 73.986,40.515 C73.8459993,40.6970009 73.776,40.9279986 73.776,41.208 Z M79.586,42.692 L79.586,36.672 C79.586,36.4853324 79.6979989,36.392 79.922,36.392 C80.0153338,36.392 80.0946663,36.4176664 80.16,36.469 C80.2253337,36.5203336 80.258,36.5879996 80.258,36.672 L80.258,37.386 C80.4260008,37.0779985 80.675665,36.8213344 81.007,36.616 C81.338335,36.4106656 81.7233311,36.308 82.162,36.308 L82.666,36.308 C82.7500004,36.308 82.822333,36.338333 82.883,36.399 C82.943667,36.459667 82.974,36.5366662 82.974,36.63 C82.974,36.7233338 82.943667,36.800333 82.883,36.861 C82.822333,36.921667 82.7500004,36.952 82.666,36.952 L82.162,36.952 C81.6579975,36.952 81.2170019,37.1409981 80.839,37.519 C80.4609981,37.8970019 80.272,38.3893303 80.272,38.996 L80.272,42.692 C80.272,42.766667 80.2370004,42.8366663 80.167,42.902 C80.0969997,42.9673337 80.0153338,43 79.922,43 C79.8286662,43 79.7493337,42.969667 79.684,42.909 C79.6186663,42.848333 79.586,42.7760004 79.586,42.692 Z M83.856,33.788 C83.856,33.6573327 83.9073328,33.5430005 84.01,33.445 C84.1126672,33.3469995 84.2386659,33.298 84.388,33.298 C84.5280007,33.298 84.6493328,33.3469995 84.752,33.445 C84.8546672,33.5430005 84.906,33.6573327 84.906,33.788 C84.906,33.9280007 84.8546672,34.0493328 84.752,34.152 C84.6493328,34.2546672 84.5280007,34.306 84.388,34.306 C84.2386659,34.306 84.1126672,34.2546672 84.01,34.152 C83.9073328,34.0493328 83.856,33.9280007 83.856,33.788 Z M84.052,42.692 L84.052,36.672 C84.052,36.4853324 84.1639989,36.392 84.388,36.392 C84.6213345,36.392 84.738,36.4853324 84.738,36.672 L84.738,42.692 C84.738,42.766667 84.7030003,42.8366663 84.633,42.902 C84.5629996,42.9673337 84.4813338,43 84.388,43 C84.2946662,43 84.2153337,42.969667 84.15,42.909 C84.0846663,42.848333 84.052,42.7760004 84.052,42.692 Z M86.334,40.494 L86.334,38.828 C86.334,38.1373299 86.5859975,37.5446691 87.09,37.05 C87.5940025,36.5553309 88.2006631,36.308 88.91,36.308 C89.6006701,36.308 90.1979975,36.5506642 90.702,37.036 C91.2060025,37.5213358 91.458,38.1233297 91.458,38.842 C91.458,39.0940013 91.427667,39.2969992 91.367,39.451 C91.306333,39.6050008 91.2106673,39.7146663 91.08,39.78 C90.9493327,39.8453337 90.8303339,39.8849999 90.723,39.899 C90.6156661,39.9130001 90.464001,39.92 90.268,39.92 L87.02,39.92 L87.02,40.508 C87.02,41.0960029 87.2299979,41.5673316 87.65,41.922 C88.0700021,42.2766684 88.61133,42.454 89.274,42.454 C89.6100017,42.454 89.8946655,42.4073338 90.128,42.314 C90.3613345,42.2206662 90.5386661,42.1273338 90.66,42.034 C90.7813339,41.9406662 90.8746663,41.894 90.94,41.894 C91.0240004,41.894 91.0986663,41.931333 91.164,42.006 C91.2293337,42.080667 91.262,42.155333 91.262,42.23 C91.262,42.4073342 91.0683353,42.593999 90.681,42.79 C90.2936647,42.986001 89.8153362,43.084 89.246,43.084 C88.387329,43.084 87.687336,42.8460024 87.146,42.37 C86.604664,41.8939976 86.334,41.2686705 86.334,40.494 Z M87.02,39.346 L90.002,39.346 C90.3193349,39.346 90.5293328,39.3133337 90.632,39.248 C90.7346672,39.1826663 90.786,39.0473344 90.786,38.842 C90.786,38.3473309 90.6086684,37.904002 90.254,37.512 C89.8993316,37.119998 89.451336,36.924 88.91,36.924 C88.3873307,36.924 87.9416685,37.1059982 87.573,37.47 C87.2043315,37.8340018 87.02,38.2679975 87.02,38.772 L87.02,39.346 Z M92.872,40.998 L92.872,33.48 C92.872,33.3959996 92.9069997,33.3260003 92.977,33.27 C93.0470004,33.2139997 93.1239996,33.186 93.208,33.186 C93.3013338,33.186 93.3829997,33.2139997 93.453,33.27 C93.5230003,33.3260003 93.558,33.3959996 93.558,33.48 L93.558,36.392 L95.42,36.392 C95.494667,36.392 95.5576664,36.422333 95.609,36.483 C95.6603336,36.543667 95.686,36.6159996 95.686,36.7 C95.686,36.774667 95.6580003,36.842333 95.602,36.903 C95.5459997,36.963667 95.4853337,36.994 95.42,36.994 L93.558,36.994 L93.558,40.998 C93.558,41.4926691 93.6653323,41.8426656 93.88,42.048 C94.0946677,42.2533344 94.4679973,42.356 95,42.356 L95.35,42.356 C95.4433338,42.356 95.520333,42.386333 95.581,42.447 C95.641667,42.507667 95.672,42.5846662 95.672,42.678 C95.672,42.7620004 95.641667,42.8366663 95.581,42.902 C95.520333,42.9673337 95.4433338,43 95.35,43 L95,43 C93.5813262,43 92.872,42.3326733 92.872,40.998 Z M96.19,36.63 C96.19,36.5366662 96.2319996,36.4573337 96.316,36.392 C96.4000004,36.3266663 96.4933328,36.294 96.596,36.294 C96.7453341,36.294 96.8339999,36.3546661 96.862,36.476 L98.836,41.866 L100.754,36.476 C100.819334,36.3546661 100.907999,36.294 101.02,36.294 C101.113334,36.294 101.202,36.3266663 101.286,36.392 C101.37,36.4573337 101.412,36.5366662 101.412,36.63 C101.412,36.6766669 101.407333,36.7139999 101.398,36.742 L99.186,42.776 L98.892,43.56 C98.8359997,43.7093341 98.7333341,43.9589983 98.584,44.309 C98.4346659,44.6590018 98.2993339,44.9203325 98.178,45.093 C98.0566661,45.2656675 97.9073342,45.4616656 97.73,45.681 C97.5526658,45.9003344 97.3636677,46.0566662 97.163,46.15 C96.9623323,46.2433338 96.7500011,46.29 96.526,46.29 C96.3113323,46.29 96.204,46.1826677 96.204,45.968 C96.204,45.7533323 96.2879992,45.646 96.456,45.646 C97.2306705,45.646 97.9073304,44.6893429 98.486,42.776 L96.218,36.742 C96.1993332,36.6859997 96.19,36.6486668 96.19,36.63 Z M105.122,40.494 L105.122,38.87 C105.122,38.1793299 105.373997,37.5796692 105.878,37.071 C106.382003,36.5623308 106.983996,36.308 107.684,36.308 C108.37467,36.308 108.976664,36.5599975 109.49,37.064 C110.003336,37.5680025 110.26,38.1699965 110.26,38.87 L110.26,40.494 C110.26,41.1753367 110.001003,41.7773307 109.483,42.3 C108.964997,42.8226693 108.365337,43.084 107.684,43.084 C107.002663,43.084 106.405336,42.8250026 105.892,42.307 C105.378664,41.7889974 105.122,41.1846701 105.122,40.494 Z M105.808,40.494 C105.808,40.9980025 105.992331,41.4483314 106.361,41.845 C106.729669,42.2416687 107.170664,42.44 107.684,42.44 C108.197336,42.44 108.640665,42.2416687 109.014,41.845 C109.387335,41.4483314 109.574,40.9980025 109.574,40.494 L109.574,38.87 C109.574,38.3753309 109.387335,37.932002 109.014,37.54 C108.640665,37.147998 108.197336,36.952 107.684,36.952 C107.170664,36.952 106.729669,37.147998 106.361,37.54 C105.992331,37.932002 105.808,38.3753309 105.808,38.87 L105.808,40.494 Z M111.842,42.706 L111.842,34.81 C111.842,34.1286633 112.089331,33.5360025 112.584,33.032 C113.078669,32.5279975 113.661997,32.276 114.334,32.276 L114.572,32.276 C114.665334,32.276 114.742333,32.3086663 114.803,32.374 C114.863667,32.4393337 114.894,32.5186662 114.894,32.612 C114.894,32.7053338 114.863667,32.7799997 114.803,32.836 C114.742333,32.8920003 114.665334,32.92 114.572,32.92 L114.39,32.92 C113.867331,32.92 113.428668,33.1043315 113.074,33.473 C112.719332,33.8416685 112.537333,34.2779975 112.528,34.782 L112.528,36.392 L114.6,36.392 C114.684,36.392 114.754,36.422333 114.81,36.483 C114.866,36.543667 114.894,36.611333 114.894,36.686 C114.894,36.7700004 114.866,36.842333 114.81,36.903 C114.754,36.963667 114.684,36.994 114.6,36.994 L112.528,36.994 L112.528,42.706 C112.528,42.7900004 112.493,42.8599997 112.423,42.916 C112.353,42.9720003 112.266667,43 112.164,43 C111.949332,43 111.842,42.902001 111.842,42.706 Z M118.786,42.692 L118.786,36.672 C118.786,36.4853324 118.897999,36.392 119.122,36.392 C119.215334,36.392 119.294666,36.4176664 119.36,36.469 C119.425334,36.5203336 119.458,36.5879996 119.458,36.672 L119.458,37.386 C119.626001,37.0779985 119.875665,36.8213344 120.207,36.616 C120.538335,36.4106656 120.923331,36.308 121.362,36.308 L121.866,36.308 C121.95,36.308 122.022333,36.338333 122.083,36.399 C122.143667,36.459667 122.174,36.5366662 122.174,36.63 C122.174,36.7233338 122.143667,36.800333 122.083,36.861 C122.022333,36.921667 121.95,36.952 121.866,36.952 L121.362,36.952 C120.857997,36.952 120.417002,37.1409981 120.039,37.519 C119.660998,37.8970019 119.472,38.3893303 119.472,38.996 L119.472,42.692 C119.472,42.766667 119.437,42.8366663 119.367,42.902 C119.297,42.9673337 119.215334,43 119.122,43 C119.028666,43 118.949334,42.969667 118.884,42.909 C118.818666,42.848333 118.786,42.7760004 118.786,42.692 Z M123,40.494 L123,38.828 C123,38.1373299 123.251997,37.5446691 123.756,37.05 C124.260003,36.5553309 124.866663,36.308 125.576,36.308 C126.26667,36.308 126.863997,36.5506642 127.368,37.036 C127.872003,37.5213358 128.124,38.1233297 128.124,38.842 C128.124,39.0940013 128.093667,39.2969992 128.033,39.451 C127.972333,39.6050008 127.876667,39.7146663 127.746,39.78 C127.615333,39.8453337 127.496334,39.8849999 127.389,39.899 C127.281666,39.9130001 127.130001,39.92 126.934,39.92 L123.686,39.92 L123.686,40.508 C123.686,41.0960029 123.895998,41.5673316 124.316,41.922 C124.736002,42.2766684 125.27733,42.454 125.94,42.454 C126.276002,42.454 126.560665,42.4073338 126.794,42.314 C127.027334,42.2206662 127.204666,42.1273338 127.326,42.034 C127.447334,41.9406662 127.540666,41.894 127.606,41.894 C127.69,41.894 127.764666,41.931333 127.83,42.006 C127.895334,42.080667 127.928,42.155333 127.928,42.23 C127.928,42.4073342 127.734335,42.593999 127.347,42.79 C126.959665,42.986001 126.481336,43.084 125.912,43.084 C125.053329,43.084 124.353336,42.8460024 123.812,42.37 C123.270664,41.8939976 123,41.2686705 123,40.494 Z M123.686,39.346 L126.668,39.346 C126.985335,39.346 127.195333,39.3133337 127.298,39.248 C127.400667,39.1826663 127.452,39.0473344 127.452,38.842 C127.452,38.3473309 127.274668,37.904002 126.92,37.512 C126.565332,37.119998 126.117336,36.924 125.576,36.924 C125.053331,36.924 124.607669,37.1059982 124.239,37.47 C123.870331,37.8340018 123.686,38.2679975 123.686,38.772 L123.686,39.346 Z M129.314,40.494 L129.314,38.87 C129.314,38.1606631 129.561331,37.5563358 130.056,37.057 C130.550669,36.5576642 131.14333,36.308 131.834,36.308 C132.263335,36.308 132.638998,36.4083323 132.961,36.609 C133.283002,36.8096677 133.527999,37.0639985 133.696,37.372 L133.696,32.57 C133.696,32.4859996 133.728666,32.4160003 133.794,32.36 C133.859334,32.3039997 133.943333,32.276 134.046,32.276 C134.139334,32.276 134.218666,32.3039997 134.284,32.36 C134.349334,32.4160003 134.382,32.4859996 134.382,32.57 L134.382,42.692 C134.382,42.7760004 134.349334,42.848333 134.284,42.909 C134.218666,42.969667 134.139334,43 134.046,43 C133.952666,43 133.873334,42.9673337 133.808,42.902 C133.742666,42.8366663 133.71,42.766667 133.71,42.692 L133.71,42.02 C133.551333,42.3186682 133.297002,42.5706656 132.947,42.776 C132.596998,42.9813344 132.216669,43.084 131.806,43.084 C131.14333,43.084 130.562336,42.8226693 130.063,42.3 C129.563664,41.7773307 129.314,41.1753367 129.314,40.494 Z M130,40.494 C130,40.9980025 130.186665,41.4483314 130.56,41.845 C130.933335,42.2416687 131.367331,42.44 131.862,42.44 C132.338002,42.44 132.762665,42.2626684 133.136,41.908 C133.509335,41.5533316 133.696,41.240668 133.696,40.97 L133.696,38.87 C133.696,38.3006638 133.511669,37.8386684 133.143,37.484 C132.774331,37.1293316 132.352002,36.952 131.876,36.952 C131.371997,36.952 130.933335,37.147998 130.56,37.54 C130.186665,37.932002 130,38.3753309 130,38.87 L130,40.494 Z M139.03,42.706 L139.03,34.866 C139.03,34.0913295 139.314664,33.4660024 139.884,32.99 C140.453336,32.5139976 141.120663,32.276 141.886,32.276 C142.810005,32.276 143.537997,32.5979968 144.07,33.242 L144.07,42.692 C144.07,42.766667 144.035,42.8366663 143.965,42.902 C143.895,42.9673337 143.813334,43 143.72,43 C143.626666,43 143.547334,42.9673337 143.482,42.902 C143.416666,42.8366663 143.384,42.766667 143.384,42.692 L143.384,33.438 C142.982665,33.0366647 142.47867,32.836 141.872,32.836 C141.29333,32.836 140.789335,33.0226648 140.36,33.396 C139.930665,33.7693352 139.716,34.2546637 139.716,34.852 L139.716,36.392 L141.592,36.392 C141.666667,36.392 141.732,36.422333 141.788,36.483 C141.844,36.543667 141.872,36.611333 141.872,36.686 C141.872,36.7700004 141.844,36.842333 141.788,36.903 C141.732,36.963667 141.666667,36.994 141.592,36.994 L139.716,36.994 L139.716,42.706 C139.716,42.7900004 139.681,42.8599997 139.611,42.916 C139.541,42.9720003 139.454667,43 139.352,43 C139.137332,43 139.03,42.902001 139.03,42.706 Z M145.764,40.494 L145.764,38.87 C145.764,38.1793299 146.015997,37.5796692 146.52,37.071 C147.024003,36.5623308 147.625996,36.308 148.326,36.308 C149.01667,36.308 149.618664,36.5599975 150.132,37.064 C150.645336,37.5680025 150.902,38.1699965 150.902,38.87 L150.902,40.494 C150.902,41.1753367 150.643003,41.7773307 150.125,42.3 C149.606997,42.8226693 149.007337,43.084 148.326,43.084 C147.644663,43.084 147.047336,42.8250026 146.534,42.307 C146.020664,41.7889974 145.764,41.1846701 145.764,40.494 Z M146.45,40.494 C146.45,40.9980025 146.634331,41.4483314 147.003,41.845 C147.371669,42.2416687 147.812664,42.44 148.326,42.44 C148.839336,42.44 149.282665,42.2416687 149.656,41.845 C150.029335,41.4483314 150.216,40.9980025 150.216,40.494 L150.216,38.87 C150.216,38.3753309 150.029335,37.932002 149.656,37.54 C149.282665,37.147998 148.839336,36.952 148.326,36.952 C147.812664,36.952 147.371669,37.147998 147.003,37.54 C146.634331,37.932002 146.45,38.3753309 146.45,38.87 L146.45,40.494 Z M151.812,36.7 C151.812,36.6066662 151.851666,36.529667 151.931,36.469 C152.010334,36.408333 152.101333,36.378 152.204,36.378 C152.334667,36.378 152.428,36.4339994 152.484,36.546 L154.374,41.796 L155.9,36.98 C155.937334,36.8399993 156.039999,36.77 156.208,36.77 C156.366667,36.77 156.464666,36.8399993 156.502,36.98 L157.986,41.866 L159.918,36.546 C159.946,36.4339994 160.034666,36.378 160.184,36.378 C160.286667,36.378 160.375333,36.4059997 160.45,36.462 C160.524667,36.5180003 160.562,36.5926662 160.562,36.686 C160.562,36.7700004 160.543334,36.8399997 160.506,36.896 L158.322,42.902 C158.266,43.0326673 158.172667,43.098 158.042,43.098 C157.911333,43.098 157.818,43.0373339 157.762,42.916 L156.208,37.988 L154.668,42.846 C154.612,43.0140008 154.509334,43.098 154.36,43.098 C154.210666,43.098 154.108,43.0140008 154.052,42.846 L151.868,36.896 C151.830666,36.7839994 151.812,36.7186668 151.812,36.7 Z M161.486,40.494 L161.486,38.828 C161.486,38.1373299 161.737997,37.5446691 162.242,37.05 C162.746003,36.5553309 163.352663,36.308 164.062,36.308 C164.75267,36.308 165.349997,36.5506642 165.854,37.036 C166.358003,37.5213358 166.61,38.1233297 166.61,38.842 C166.61,39.0940013 166.579667,39.2969992 166.519,39.451 C166.458333,39.6050008 166.362667,39.7146663 166.232,39.78 C166.101333,39.8453337 165.982334,39.8849999 165.875,39.899 C165.767666,39.9130001 165.616001,39.92 165.42,39.92 L162.172,39.92 L162.172,40.508 C162.172,41.0960029 162.381998,41.5673316 162.802,41.922 C163.222002,42.2766684 163.76333,42.454 164.426,42.454 C164.762002,42.454 165.046666,42.4073338 165.28,42.314 C165.513334,42.2206662 165.690666,42.1273338 165.812,42.034 C165.933334,41.9406662 166.026666,41.894 166.092,41.894 C166.176,41.894 166.250666,41.931333 166.316,42.006 C166.381334,42.080667 166.414,42.155333 166.414,42.23 C166.414,42.4073342 166.220335,42.593999 165.833,42.79 C165.445665,42.986001 164.967336,43.084 164.398,43.084 C163.539329,43.084 162.839336,42.8460024 162.298,42.37 C161.756664,41.8939976 161.486,41.2686705 161.486,40.494 Z M162.172,39.346 L165.154,39.346 C165.471335,39.346 165.681333,39.3133337 165.784,39.248 C165.886667,39.1826663 165.938,39.0473344 165.938,38.842 C165.938,38.3473309 165.760668,37.904002 165.406,37.512 C165.051332,37.119998 164.603336,36.924 164.062,36.924 C163.539331,36.924 163.093669,37.1059982 162.725,37.47 C162.356331,37.8340018 162.172,38.2679975 162.172,38.772 L162.172,39.346 Z M168.052,42.692 L168.052,36.672 C168.052,36.4853324 168.163999,36.392 168.388,36.392 C168.481334,36.392 168.560666,36.4176664 168.626,36.469 C168.691334,36.5203336 168.724,36.5879996 168.724,36.672 L168.724,37.386 C168.892001,37.0779985 169.141665,36.8213344 169.473,36.616 C169.804335,36.4106656 170.189331,36.308 170.628,36.308 L171.132,36.308 C171.216,36.308 171.288333,36.338333 171.349,36.399 C171.409667,36.459667 171.44,36.5366662 171.44,36.63 C171.44,36.7233338 171.409667,36.800333 171.349,36.861 C171.288333,36.921667 171.216,36.952 171.132,36.952 L170.628,36.952 C170.123997,36.952 169.683002,37.1409981 169.305,37.519 C168.926998,37.8970019 168.738,38.3893303 168.738,38.996 L168.738,42.692 C168.738,42.766667 168.703,42.8366663 168.633,42.902 C168.563,42.9673337 168.481334,43 168.388,43 C168.294666,43 168.215334,42.969667 168.15,42.909 C168.084666,42.848333 168.052,42.7760004 168.052,42.692 Z M172.098,42.132 C172.098,42.057333 172.123666,41.9850003 172.175,41.915 C172.226334,41.8449996 172.284666,41.81 172.35,41.81 C172.406,41.8006666 172.480666,41.833333 172.574,41.908 L172.896,42.132 C173.008001,42.206667 173.180666,42.281333 173.414,42.356 C173.647334,42.430667 173.908665,42.468 174.198,42.468 C174.720669,42.468 175.107999,42.3676677 175.36,42.167 C175.612001,41.9663323 175.738,41.7073349 175.738,41.39 C175.738,41.0166648 175.619001,40.7226677 175.381,40.508 C175.142999,40.2933323 174.853668,40.1370005 174.513,40.039 C174.172332,39.9409995 173.829335,39.8360006 173.484,39.724 C173.138665,39.6119994 172.847001,39.4300013 172.609,39.178 C172.370999,38.9259987 172.252,38.5853355 172.252,38.156 C172.252,37.6706642 172.431665,37.2413352 172.791,36.868 C173.150335,36.4946648 173.679996,36.308 174.38,36.308 C174.818669,36.308 175.226998,36.375666 175.605,36.511 C175.983002,36.646334 176.172,36.7886659 176.172,36.938 C176.172,37.012667 176.139334,37.0919996 176.074,37.176 C176.008666,37.2600004 175.938667,37.302 175.864,37.302 C175.854667,37.302 175.691335,37.2390006 175.374,37.113 C175.056665,36.9869994 174.730002,36.924 174.394,36.924 C173.889997,36.924 173.514335,37.0499987 173.267,37.302 C173.019665,37.5540013 172.896,37.8339985 172.896,38.142 C172.896,38.4593349 173.014999,38.7066658 173.253,38.884 C173.491001,39.0613342 173.782665,39.1966662 174.128,39.29 C174.473335,39.3833338 174.818665,39.4883327 175.164,39.605 C175.509335,39.7216672 175.800999,39.9223319 176.039,40.207 C176.277001,40.4916681 176.396,40.8719976 176.396,41.348 C176.396,41.889336 176.204669,42.3139985 175.822,42.622 C175.439331,42.9300015 174.90267,43.084 174.212,43.084 C173.614664,43.084 173.113002,42.9790011 172.707,42.769 C172.300998,42.558999 172.098,42.3466677 172.098,42.132 Z M177.642,42.916 C177.539333,42.8039994 177.488,42.6686675 177.488,42.51 C177.488,42.3513325 177.541666,42.2160006 177.649,42.104 C177.756334,41.9919994 177.893999,41.936 178.062,41.936 C178.211334,41.936 178.341999,41.9943327 178.454,42.111 C178.566001,42.2276672 178.622,42.3606659 178.622,42.51 C178.622,42.6593341 178.566001,42.7923327 178.454,42.909 C178.341999,43.0256672 178.211334,43.084 178.062,43.084 C177.893999,43.084 177.754001,43.0280006 177.642,42.916 Z" id="Beginwithavarietyofredfowers."></path>
                            <path d="M1.452,22.23 L1.452,7.666 C1.452,7.46066564 1.5253326,7.2846674 1.672,7.138 C1.8186674,6.9913326 2.0019989,6.918 2.222,6.918 L6.402,6.918 C9.7753502,6.918 11.462,8.41398504 11.462,11.406 C11.462,12.6526729 11.1833361,13.6316631 10.626,14.343 C10.0686639,15.0543369 9.3133381,15.5273322 8.36,15.762 L11.44,21.548 C11.498667,21.6506672 11.528,21.7606661 11.528,21.878 C11.528,22.1713348 11.3776682,22.4426654 11.077,22.692 C10.7763318,22.9413346 10.457335,23.066 10.12,23.066 C9.73866476,23.066 9.43066784,22.8386689 9.196,22.384 L5.984,16.092 L3.762,16.092 L3.762,22.23 C3.762,22.4646678 3.64833447,22.651666 3.421,22.791 C3.19366553,22.930334 2.91866828,23 2.596,23 C2.28799846,23 2.02033447,22.930334 1.793,22.791 C1.56566553,22.651666 1.452,22.4646678 1.452,22.23 Z M3.762,14.222 L6.402,14.222 C8.22067576,14.222 9.13,13.3493421 9.13,11.604 C9.13,9.85865794 8.22067576,8.986 6.402,8.986 L3.762,8.986 L3.762,14.222 Z M13.112,18.798 L13.112,16.708 C13.112,15.5493275 13.5593289,14.5483375 14.454,13.705 C15.3486711,12.8616625 16.4266604,12.44 17.688,12.44 C18.8906727,12.44 19.9209957,12.8249962 20.779,13.595 C21.6370043,14.3650039 22.066,15.3366608 22.066,16.51 C22.066,16.9500022 22.0146672,17.3056653 21.912,17.577 C21.8093328,17.8483347 21.6480011,18.0389994 21.428,18.149 C21.2079989,18.2590005 21.0026676,18.3286665 20.812,18.358 C20.6213324,18.3873335 20.3720015,18.402 20.064,18.402 L15.422,18.402 L15.422,18.908 C15.422,19.641337 15.6859974,20.2243312 16.214,20.657 C16.7420026,21.0896688 17.4313291,21.306 18.282,21.306 C18.8833363,21.306 19.451664,21.1666681 19.987,20.888 C20.522336,20.6093319 20.8486661,20.47 20.966,20.47 C21.2153346,20.47 21.4279991,20.5873322 21.604,20.822 C21.7800009,21.0566678 21.868,21.2839989 21.868,21.504 C21.868,21.8706685 21.5160035,22.2409981 20.812,22.615 C20.1079965,22.9890019 19.2426718,23.176 18.216,23.176 C16.7199925,23.176 15.4953381,22.7726707 14.542,21.966 C13.5886619,21.1593293 13.112,20.1033399 13.112,18.798 Z M15.422,16.972 L19.074,16.972 C19.3966683,16.972 19.6129994,16.9280004 19.723,16.84 C19.8330005,16.7519996 19.888,16.5760013 19.888,16.312 C19.888,15.7253304 19.6753355,15.2266687 19.25,14.816 C18.8246645,14.4053313 18.2966698,14.2 17.666,14.2 C17.0499969,14.2 16.5220022,14.3943314 16.082,14.783 C15.6419978,15.1716686 15.422,15.6666637 15.422,16.268 L15.422,16.972 Z M23.54,18.798 L23.54,16.774 C23.54,15.5859941 23.9249961,14.5666709 24.695,13.716 C25.4650038,12.8653291 26.3926612,12.44 27.478,12.44 C28.1233366,12.44 28.6953308,12.6013317 29.194,12.924 C29.6926692,13.2466683 30.0739987,13.6426643 30.338,14.112 L30.338,7.116 C30.338,6.8959989 30.4479989,6.71633403 30.668,6.577 C30.8880011,6.43766597 31.166665,6.368 31.504,6.368 C31.841335,6.368 32.1163323,6.43766597 32.329,6.577 C32.5416677,6.71633403 32.648,6.8959989 32.648,7.116 L32.648,22.23 C32.648,22.4206676 32.5380011,22.5966659 32.318,22.758 C32.0979989,22.9193341 31.8266683,23 31.504,23 C31.2253319,23 30.9796677,22.9193341 30.767,22.758 C30.5543323,22.5966659 30.448,22.4206676 30.448,22.23 L30.448,21.46 C30.2133322,21.9293357 29.8136695,22.332665 29.249,22.67 C28.6843305,23.007335 28.0720033,23.176 27.412,23.176 C26.3853282,23.176 25.4833372,22.7323378 24.706,21.845 C23.9286628,20.9576622 23.54,19.9420057 23.54,18.798 Z M25.85,18.798 C25.85,19.3993363 26.0699978,19.938331 26.51,20.415 C26.9500022,20.891669 27.4706637,21.13 28.072,21.13 C28.6440029,21.13 29.1646643,20.9063356 29.634,20.459 C30.1033357,20.0116644 30.338,19.6266683 30.338,19.304 L30.338,16.774 C30.338,16.09933 30.1106689,15.5493355 29.656,15.124 C29.2013311,14.6986645 28.6806696,14.486 28.094,14.486 C27.4926637,14.486 26.9683356,14.7206643 26.521,15.19 C26.0736644,15.6593357 25.85,16.1873304 25.85,16.774 L25.85,18.798 Z M39.732,22.23 L39.732,7.688 C39.732,7.45333216 39.8346656,7.26633403 40.04,7.127 C40.2453344,6.98766597 40.4873319,6.918 40.766,6.918 L48.488,6.918 C48.7373346,6.918 48.9243327,7.01699901 49.049,7.215 C49.1736673,7.41300099 49.236,7.65133194 49.236,7.93 C49.236,8.2233348 49.1700007,8.47266564 49.038,8.678 C48.9059993,8.88333436 48.7226678,8.986 48.488,8.986 L42.064,8.986 L42.064,14.024 L45.474,14.024 C45.7086678,14.024 45.8919993,14.1156658 46.024,14.299 C46.1560007,14.4823343 46.222,14.7059987 46.222,14.97 C46.222,15.2046678 46.1596673,15.4136657 46.035,15.597 C45.9103327,15.7803343 45.7233346,15.872 45.474,15.872 L42.064,15.872 L42.064,22.23 C42.064,22.4793346 41.9503345,22.6699993 41.723,22.802 C41.4956655,22.9340007 41.2206683,23 40.898,23 C40.5899985,23 40.3186678,22.9340007 40.084,22.802 C39.8493322,22.6699993 39.732,22.4793346 39.732,22.23 Z M50.732,22.23 L50.732,7.116 C50.732,6.8959989 50.8383323,6.71633403 51.051,6.577 C51.2636677,6.43766597 51.538665,6.368 51.876,6.368 C52.1986683,6.368 52.4736655,6.43766597 52.701,6.577 C52.9283345,6.71633403 53.042,6.8959989 53.042,7.116 L53.042,22.23 C53.042,22.4206676 52.9246678,22.5966659 52.69,22.758 C52.4553322,22.9193341 52.1840015,23 51.876,23 C51.5533317,23 51.2820011,22.9193341 51.062,22.758 C50.8419989,22.5966659 50.732,22.4206676 50.732,22.23 Z M55.242,18.798 L55.242,16.774 C55.242,15.6153275 55.6893289,14.6033377 56.584,13.738 C57.4786711,12.8726623 58.5493271,12.44 59.796,12.44 C61.0133394,12.44 62.0766621,12.8689957 62.986,13.727 C63.8953379,14.5850043 64.35,15.6006608 64.35,16.774 L64.35,18.798 C64.35,19.9420057 63.8916712,20.9576622 62.975,21.845 C62.0583287,22.7323378 60.9986727,23.176 59.796,23.176 C58.5786606,23.176 57.5153379,22.7360044 56.606,21.856 C55.6966621,20.9759956 55.242,19.9566725 55.242,18.798 Z M57.552,18.798 C57.552,19.3993363 57.7719978,19.938331 58.212,20.415 C58.6520022,20.891669 59.1799969,21.13 59.796,21.13 C60.3973363,21.13 60.9216644,20.891669 61.369,20.415 C61.8163356,19.938331 62.04,19.3993363 62.04,18.798 L62.04,16.774 C62.04,16.1873304 61.8163356,15.6593357 61.369,15.19 C60.9216644,14.7206643 60.3973363,14.486 59.796,14.486 C59.1799969,14.486 58.6520022,14.7206643 58.212,15.19 C57.7719978,15.6593357 57.552,16.1873304 57.552,16.774 L57.552,18.798 Z M65.384,13.452 C65.384,13.1879987 65.5453317,12.9606676 65.868,12.77 C66.1906683,12.5793324 66.520665,12.484 66.858,12.484 C67.2246685,12.484 67.4593328,12.6233319 67.562,12.902 L70.004,19.744 L71.874,13.672 C71.9766672,13.334665 72.2479978,13.166 72.688,13.166 C73.1280022,13.166 73.3993328,13.334665 73.502,13.672 L75.35,19.788 L77.814,12.902 C77.9020004,12.6233319 78.1293315,12.484 78.496,12.484 C78.8186683,12.484 79.1449984,12.5793324 79.475,12.77 C79.8050016,12.9606676 79.97,13.1953319 79.97,13.474 C79.97,13.5913339 79.940667,13.7086661 79.882,13.826 L76.472,22.758 C76.3546661,23.0660015 76.0466692,23.22 75.548,23.22 C75.0493308,23.22 74.7340007,23.0733348 74.602,22.78 L72.688,17.104 L70.796,22.714 C70.6639993,23.051335 70.3340026,23.22 69.806,23.22 C69.3219976,23.22 69.0140007,23.051335 68.882,22.714 L65.472,13.826 C65.413333,13.6499991 65.384,13.5253337 65.384,13.452 Z M81.026,18.798 L81.026,16.708 C81.026,15.5493275 81.4733289,14.5483375 82.368,13.705 C83.2626711,12.8616625 84.3406604,12.44 85.602,12.44 C86.8046727,12.44 87.8349957,12.8249962 88.693,13.595 C89.5510043,14.3650039 89.98,15.3366608 89.98,16.51 C89.98,16.9500022 89.9286672,17.3056653 89.826,17.577 C89.7233328,17.8483347 89.5620011,18.0389994 89.342,18.149 C89.1219989,18.2590005 88.9166676,18.3286665 88.726,18.358 C88.5353324,18.3873335 88.2860015,18.402 87.978,18.402 L83.336,18.402 L83.336,18.908 C83.336,19.641337 83.5999974,20.2243312 84.128,20.657 C84.6560026,21.0896688 85.3453291,21.306 86.196,21.306 C86.7973363,21.306 87.365664,21.1666681 87.901,20.888 C88.436336,20.6093319 88.7626661,20.47 88.88,20.47 C89.1293346,20.47 89.3419991,20.5873322 89.518,20.822 C89.6940009,21.0566678 89.782,21.2839989 89.782,21.504 C89.782,21.8706685 89.4300035,22.2409981 88.726,22.615 C88.0219965,22.9890019 87.1566718,23.176 86.13,23.176 C84.6339925,23.176 83.4093381,22.7726707 82.456,21.966 C81.5026619,21.1593293 81.026,20.1033399 81.026,18.798 Z M83.336,16.972 L86.988,16.972 C87.3106683,16.972 87.5269994,16.9280004 87.637,16.84 C87.7470005,16.7519996 87.802,16.5760013 87.802,16.312 C87.802,15.7253304 87.5893355,15.2266687 87.164,14.816 C86.7386645,14.4053313 86.2106698,14.2 85.58,14.2 C84.9639969,14.2 84.4360022,14.3943314 83.996,14.783 C83.5559978,15.1716686 83.336,15.6666637 83.336,16.268 L83.336,16.972 Z M91.85,22.23 L91.85,13.32 C91.85,13.0999989 91.9563323,12.920334 92.169,12.781 C92.3816677,12.641666 92.6493317,12.572 92.972,12.572 C93.2653348,12.572 93.5146656,12.641666 93.72,12.781 C93.9253344,12.920334 94.028,13.0999989 94.028,13.32 L94.028,14.288 C94.2773346,13.7746641 94.6549975,13.3383351 95.161,12.979 C95.6670025,12.6196649 96.2206637,12.44 96.822,12.44 L97.526,12.44 C97.7606678,12.44 97.9659991,12.538999 98.142,12.737 C98.3180009,12.935001 98.406,13.1733319 98.406,13.452 C98.406,13.7306681 98.3180009,13.9726656 98.142,14.178 C97.9659991,14.3833344 97.7606678,14.486 97.526,14.486 L96.822,14.486 C96.1179965,14.486 95.498336,14.7866637 94.963,15.388 C94.427664,15.9893363 94.16,16.7666619 94.16,17.72 L94.16,22.23 C94.16,22.4206676 94.0426678,22.5966659 93.808,22.758 C93.5733322,22.9193341 93.2946683,23 92.972,23 C92.6493317,23 92.3816677,22.9193341 92.169,22.758 C91.9563323,22.5966659 91.85,22.4206676 91.85,22.23 Z M104.258,18.226 L104.258,11.824 C104.258,10.1373249 104.705329,8.89800396 105.6,8.106 C106.494671,7.31399604 107.667993,6.918 109.12,6.918 C110.601341,6.918 111.807662,7.28832963 112.739,8.029 C113.670338,8.76967037 114.136,9.75599384 114.136,10.988 C114.136,11.4133355 114.044334,11.7066659 113.861,11.868 C113.677666,12.0293341 113.380669,12.11 112.97,12.11 C112.20733,12.11 111.818667,11.8533359 111.804,11.34 C111.642666,9.77065882 110.770008,8.986 109.186,8.986 C107.455325,8.986 106.59,9.93199054 106.59,11.824 L106.59,18.226 C106.59,20.1180095 107.455325,21.064 109.186,21.064 C110.022004,21.064 110.667331,20.8293357 111.122,20.36 C111.576669,19.8906643 111.804,19.1793381 111.804,18.226 L111.804,16.422 L109.582,16.422 C109.347332,16.422 109.164001,16.3303342 109.032,16.147 C108.899999,15.9636658 108.834,15.7400013 108.834,15.476 C108.834,15.2413322 108.899999,15.0286676 109.032,14.838 C109.164001,14.6473324 109.347332,14.552 109.582,14.552 L113.366,14.552 C113.600668,14.552 113.787666,14.6289992 113.927,14.783 C114.066334,14.9370008 114.136,15.1239989 114.136,15.344 L114.136,18.226 C114.136,19.9126751 113.685005,21.151996 112.783,21.944 C111.880995,22.736004 110.682007,23.132 109.186,23.132 C107.689993,23.132 106.494671,22.736004 105.6,21.944 C104.705329,21.151996 104.258,19.9126751 104.258,18.226 Z M115.742,20.272 C115.742,19.0986608 116.181996,18.2810023 117.062,17.819 C117.942004,17.3569977 119.217992,17.126 120.89,17.126 L121.858,17.126 L121.858,16.73 C121.858,16.0846634 121.678335,15.5273357 121.319,15.058 C120.959665,14.5886643 120.413337,14.354 119.68,14.354 C119.04933,14.354 118.495669,14.4639989 118.019,14.684 C117.542331,14.9040011 117.282,15.014 117.238,15.014 C116.988665,15.014 116.787001,14.8930012 116.633,14.651 C116.478999,14.4089988 116.402,14.1413348 116.402,13.848 C116.402,13.4666648 116.757663,13.1366681 117.469,12.858 C118.180337,12.5793319 118.931996,12.44 119.724,12.44 C121.234674,12.44 122.352996,12.8469959 123.079,13.661 C123.805004,14.4750041 124.168,15.4906606 124.168,16.708 L124.168,22.23 C124.168,22.4353344 124.061668,22.6149992 123.849,22.769 C123.636332,22.9230008 123.368668,23 123.046,23 C122.752665,23 122.503334,22.9230008 122.298,22.769 C122.092666,22.6149992 121.99,22.4353344 121.99,22.23 L121.99,21.46 C121.007328,22.6040057 119.900006,23.176 118.668,23.176 C117.817329,23.176 117.117003,22.9266692 116.567,22.428 C116.016997,21.9293308 115.742,21.2106714 115.742,20.272 Z M118.074,19.986 C118.074,20.4553357 118.205999,20.8109988 118.47,21.053 C118.734001,21.2950012 119.078665,21.416 119.504,21.416 C120.061336,21.416 120.592997,21.1813357 121.099,20.712 C121.605003,20.2426643 121.858,19.7440026 121.858,19.216 L121.858,18.402 L121.308,18.402 C120.647997,18.402 120.109002,18.431333 119.691,18.49 C119.272998,18.548667 118.899002,18.7026654 118.569,18.952 C118.238998,19.2013346 118.074,19.5459978 118.074,19.986 Z M126.522,22.23 L126.522,13.32 C126.522,13.0999989 126.628332,12.920334 126.841,12.781 C127.053668,12.641666 127.321332,12.572 127.644,12.572 C127.937335,12.572 128.186666,12.641666 128.392,12.781 C128.597334,12.920334 128.7,13.0999989 128.7,13.32 L128.7,14.288 C128.949335,13.7746641 129.326997,13.3383351 129.833,12.979 C130.339003,12.6196649 130.892664,12.44 131.494,12.44 L132.198,12.44 C132.432668,12.44 132.637999,12.538999 132.814,12.737 C132.990001,12.935001 133.078,13.1733319 133.078,13.452 C133.078,13.7306681 132.990001,13.9726656 132.814,14.178 C132.637999,14.3833344 132.432668,14.486 132.198,14.486 L131.494,14.486 C130.789996,14.486 130.170336,14.7866637 129.635,15.388 C129.099664,15.9893363 128.832,16.7666619 128.832,17.72 L128.832,22.23 C128.832,22.4206676 128.714668,22.5966659 128.48,22.758 C128.245332,22.9193341 127.966668,23 127.644,23 C127.321332,23 127.053668,22.9193341 126.841,22.758 C126.628332,22.5966659 126.522,22.4206676 126.522,22.23 Z M134.046,18.798 L134.046,16.774 C134.046,15.5859941 134.430996,14.5666709 135.201,13.716 C135.971004,12.8653291 136.898661,12.44 137.984,12.44 C138.629337,12.44 139.201331,12.6013317 139.7,12.924 C140.198669,13.2466683 140.579999,13.6426643 140.844,14.112 L140.844,7.116 C140.844,6.8959989 140.953999,6.71633403 141.174,6.577 C141.394001,6.43766597 141.672665,6.368 142.01,6.368 C142.347335,6.368 142.622332,6.43766597 142.835,6.577 C143.047668,6.71633403 143.154,6.8959989 143.154,7.116 L143.154,22.23 C143.154,22.4206676 143.044001,22.5966659 142.824,22.758 C142.603999,22.9193341 142.332668,23 142.01,23 C141.731332,23 141.485668,22.9193341 141.273,22.758 C141.060332,22.5966659 140.954,22.4206676 140.954,22.23 L140.954,21.46 C140.719332,21.9293357 140.319669,22.332665 139.755,22.67 C139.190331,23.007335 138.578003,23.176 137.918,23.176 C136.891328,23.176 135.989337,22.7323378 135.212,21.845 C134.434663,20.9576622 134.046,19.9420057 134.046,18.798 Z M136.356,18.798 C136.356,19.3993363 136.575998,19.938331 137.016,20.415 C137.456002,20.891669 137.976664,21.13 138.578,21.13 C139.150003,21.13 139.670664,20.9063356 140.14,20.459 C140.609336,20.0116644 140.844,19.6266683 140.844,19.304 L140.844,16.774 C140.844,16.09933 140.616669,15.5493355 140.162,15.124 C139.707331,14.6986645 139.18667,14.486 138.6,14.486 C137.998664,14.486 137.474336,14.7206643 137.027,15.19 C136.579664,15.6593357 136.356,16.1873304 136.356,16.774 L136.356,18.798 Z M145.2,18.798 L145.2,16.708 C145.2,15.5493275 145.647329,14.5483375 146.542,13.705 C147.436671,12.8616625 148.51466,12.44 149.776,12.44 C150.978673,12.44 152.008996,12.8249962 152.867,13.595 C153.725004,14.3650039 154.154,15.3366608 154.154,16.51 C154.154,16.9500022 154.102667,17.3056653 154,17.577 C153.897333,17.8483347 153.736001,18.0389994 153.516,18.149 C153.295999,18.2590005 153.090668,18.3286665 152.9,18.358 C152.709332,18.3873335 152.460002,18.402 152.152,18.402 L147.51,18.402 L147.51,18.908 C147.51,19.641337 147.773997,20.2243312 148.302,20.657 C148.830003,21.0896688 149.519329,21.306 150.37,21.306 C150.971336,21.306 151.539664,21.1666681 152.075,20.888 C152.610336,20.6093319 152.936666,20.47 153.054,20.47 C153.303335,20.47 153.515999,20.5873322 153.692,20.822 C153.868001,21.0566678 153.956,21.2839989 153.956,21.504 C153.956,21.8706685 153.604004,22.2409981 152.9,22.615 C152.195996,22.9890019 151.330672,23.176 150.304,23.176 C148.807993,23.176 147.583338,22.7726707 146.63,21.966 C145.676662,21.1593293 145.2,20.1033399 145.2,18.798 Z M147.51,16.972 L151.162,16.972 C151.484668,16.972 151.700999,16.9280004 151.811,16.84 C151.921001,16.7519996 151.976,16.5760013 151.976,16.312 C151.976,15.7253304 151.763335,15.2266687 151.338,14.816 C150.912665,14.4053313 150.38467,14.2 149.754,14.2 C149.137997,14.2 148.610002,14.3943314 148.17,14.783 C147.729998,15.1716686 147.51,15.6666637 147.51,16.268 L147.51,16.972 Z M156.024,22.23 L156.024,13.32 C156.024,13.0999989 156.130332,12.920334 156.343,12.781 C156.555668,12.641666 156.830665,12.572 157.168,12.572 C157.461335,12.572 157.706999,12.641666 157.905,12.781 C158.103001,12.920334 158.202,13.0999989 158.202,13.32 L158.202,14.112 C158.436668,13.6426643 158.814331,13.2466683 159.335,12.924 C159.855669,12.6013317 160.460663,12.44 161.15,12.44 C162.191339,12.44 163.089663,12.8653291 163.845,13.716 C164.600337,14.5666709 164.978,15.5859941 164.978,16.774 L164.978,22.23 C164.978,22.4646678 164.864334,22.651666 164.637,22.791 C164.409666,22.930334 164.134668,23 163.812,23 C163.518665,23 163.254668,22.930334 163.02,22.791 C162.785332,22.651666 162.668,22.4646678 162.668,22.23 L162.668,16.774 C162.668,16.1873304 162.448002,15.6593357 162.008,15.19 C161.567998,14.7206643 161.047336,14.486 160.446,14.486 C159.888664,14.486 159.397335,14.6949979 158.972,15.113 C158.546665,15.5310021 158.334,16.0846632 158.334,16.774 L158.334,22.23 C158.334,22.4206676 158.216668,22.5966659 157.982,22.758 C157.747332,22.9193341 157.476002,23 157.168,23 C156.845332,23 156.574001,22.9193341 156.354,22.758 C156.133999,22.5966659 156.024,22.4206676 156.024,22.23 Z" id="RedFlowerGarden"></path>
                        </g>
                        <g id="check" transform="translate(0.000000, 1.000000)">
                            <circle id="Oval" fill="#FFBE8D" cx="25" cy="25" r="25"></circle>
                            <g transform="translate(12.000000, 17.000000)" fill="#111111" id="Path">
                                <path d="M25.090379,0.946058091 L25.090379,0.946058091 C25.5984236,1.4744537 25.5984236,2.30977867 25.090379,2.83817427 L10.2718726,18.2502723 C9.88909022,18.648388 9.25604726,18.6608181 8.85793159,18.2780357 C8.84849632,18.2689638 8.83924008,18.2597076 8.83016821,18.2502723 L0.9138322,10.016828 C0.403435511,9.48598615 0.403435511,8.64679393 0.9138322,8.11595205 L0.9138322,8.11595205 C1.39908961,7.61125646 2.20160508,7.59549871 2.70630067,8.08075612 C2.71826185,8.09225663 2.72999609,8.10399086 2.7414966,8.11595205 L9.55944282,15.2070078 L23.271137,0.946058091 C23.7541582,0.44368829 24.5529755,0.428003151 25.0553453,0.911024354 C25.0672513,0.922471862 25.0789315,0.934152025 25.090379,0.946058091 Z"></path>
                            </g>
                        </g>
                    </g>
                </g>
            </g>
        </g>
    </g>
</svg>