<?xml version="1.0" encoding="UTF-8"?>
<svg width="368px" height="96px" viewBox="0 0 368 96" version="1.1" xmlns="http://www.w3.org/2000/svg" xmlns:xlink="http://www.w3.org/1999/xlink">
    <!-- Generator: Sketch 54.1 (76490) - https://sketchapp.com -->
    <title>option_second</title>
    <desc>Created with Sketch.</desc>
    <defs>
        <rect id="path-1" x="0" y="0" width="352" height="81" rx="2"></rect>
        <filter x="-3.4%" y="-14.8%" width="106.8%" height="129.6%" filterUnits="objectBoundingBox" id="filter-2">
            <feOffset dx="0" dy="0" in="SourceAlpha" result="shadowOffsetOuter1"></feOffset>
            <feGaussianBlur stdDeviation="4" in="shadowOffsetOuter1" result="shadowBlurOuter1"></feGaussianBlur>
            <feColorMatrix values="0 0 0 0 0   0 0 0 0 0   0 0 0 0 0  0 0 0 0.302065122 0" type="matrix" in="shadowBlurOuter1"></feColorMatrix>
        </filter>
    </defs>
    <g id="{Screens/Flow}" stroke="none" stroke-width="1" fill="none" fill-rule="evenodd">
        <g id="ambient-mode-settings-(+info-modal)" transform="translate(-544.000000, -497.000000)" fill-rule="nonzero">
            <g id="selection-options" transform="translate(552.000000, 404.000000)">
                <g id="option_second" transform="translate(0.000000, 100.500000)">
                    <g id="Rectangle">
                        <use fill="black" fill-opacity="1" filter="url(#filter-2)" xlink:href="#path-1"></use>
                        <use fill="#FFFFFF" xlink:href="#path-1"></use>
                    </g>
                    <g id="content" transform="translate(51.000000, 15.000000)">
                        <g id="text" transform="translate(67.500000, 0.000000)" fill="#111111">
                            <path d="M1.606,42.706 L1.606,33.074 C1.606,32.8686656 1.71799888,32.766 1.942,32.766 L4.126,32.766 C5.04067124,32.766 5.74766417,32.931665 6.247,33.263 C6.74633583,33.594335 6.996,34.2126621 6.996,35.118 C6.996,35.7060029 6.88866774,36.202998 6.674,36.609 C6.45933226,37.015002 6.17000182,37.2973325 5.806,37.456 C6.272669,37.652001 6.62966543,37.9366648 6.877,38.31 C7.12433457,38.6833352 7.248,39.2106633 7.248,39.892 L7.248,40.144 C7.248,41.1426717 6.99833583,41.8683311 6.499,42.321 C5.99966417,42.7736689 5.3300042,43 4.49,43 L1.942,43 C1.83933282,43 1.75766697,42.9720003 1.697,42.916 C1.63633303,42.8599997 1.606,42.7900004 1.606,42.706 Z M2.306,42.328 L4.434,42.328 C5.84334038,42.328 6.548,41.590674 6.548,40.116 L6.548,39.878 C6.548,39.140663 6.36833513,38.606335 6.009,38.275 C5.64966487,37.943665 5.12467012,37.778 4.434,37.778 L2.306,37.778 L2.306,42.328 Z M2.306,37.134 L4.196,37.134 C4.93333702,37.134 5.46766501,36.9870015 5.799,36.693 C6.13033499,36.3989985 6.296,35.8926703 6.296,35.174 C6.296,34.5019966 6.11400182,34.0446679 5.75,33.802 C5.38599818,33.5593321 4.84933688,33.438 4.14,33.438 L2.306,33.438 L2.306,37.134 Z M8.62,40.494 L8.62,38.828 C8.62,38.1373299 8.87199748,37.5446691 9.376,37.05 C9.88000252,36.5553309 10.4866631,36.308 11.196,36.308 C11.8866701,36.308 12.4839975,36.5506642 12.988,37.036 C13.4920025,37.5213358 13.744,38.1233297 13.744,38.842 C13.744,39.0940013 13.713667,39.2969992 13.653,39.451 C13.592333,39.6050008 13.4966673,39.7146663 13.366,39.78 C13.2353327,39.8453337 13.1163339,39.8849999 13.009,39.899 C12.9016661,39.9130001 12.750001,39.92 12.554,39.92 L9.306,39.92 L9.306,40.508 C9.306,41.0960029 9.5159979,41.5673316 9.936,41.922 C10.3560021,42.2766684 10.89733,42.454 11.56,42.454 C11.8960017,42.454 12.1806655,42.4073338 12.414,42.314 C12.6473345,42.2206662 12.8246661,42.1273338 12.946,42.034 C13.0673339,41.9406662 13.1606663,41.894 13.226,41.894 C13.3100004,41.894 13.3846663,41.931333 13.45,42.006 C13.5153337,42.080667 13.548,42.155333 13.548,42.23 C13.548,42.4073342 13.3543353,42.593999 12.967,42.79 C12.5796647,42.986001 12.1013362,43.084 11.532,43.084 C10.673329,43.084 9.97333604,42.8460024 9.432,42.37 C8.89066396,41.8939976 8.62,41.2686705 8.62,40.494 Z M9.306,39.346 L12.288,39.346 C12.6053349,39.346 12.8153328,39.3133337 12.918,39.248 C13.0206672,39.1826663 13.072,39.0473344 13.072,38.842 C13.072,38.3473309 12.8946684,37.904002 12.54,37.512 C12.1853316,37.119998 11.737336,36.924 11.196,36.924 C10.6733307,36.924 10.2276685,37.1059982 9.859,37.47 C9.49033149,37.8340018 9.306,38.2679975 9.306,38.772 L9.306,39.346 Z M14.654,44.456 C14.654,43.7279964 15.0646626,43.2146682 15.886,42.916 C15.344664,42.7386658 15.074,42.4120024 15.074,41.936 C15.074,41.5066645 15.3026644,41.1753345 15.76,40.942 C15.2653309,40.5033311 15.018,39.915337 15.018,39.178 L15.018,38.604 C15.018,37.9319966 15.2326645,37.3813355 15.662,36.952 C16.0913355,36.5226645 16.6513299,36.308 17.342,36.308 C18.0233367,36.308 18.5739979,36.5179979 18.994,36.938 C19.1246673,36.6766654 19.2856657,36.4666675 19.477,36.308 C19.6683343,36.1493325 19.8479992,36.07 20.016,36.07 C20.1373339,36.07 20.228333,36.1026663 20.289,36.168 C20.349667,36.2333337 20.38,36.3079996 20.38,36.392 C20.38,36.5600008 20.2960008,36.6533332 20.128,36.672 C19.8013317,36.6906668 19.5306677,36.9006647 19.316,37.302 C19.5586679,37.6286683 19.68,38.062664 19.68,38.604 L19.68,39.178 C19.68,39.8500034 19.4606689,40.4053311 19.022,40.844 C18.5833311,41.2826689 18.0186701,41.502 17.328,41.502 C16.9079979,41.502 16.5393349,41.4133342 16.222,41.236 C15.8859983,41.4040008 15.718,41.6093321 15.718,41.852 C15.718,42.0946679 15.8696652,42.2696661 16.173,42.377 C16.4763349,42.4843339 16.8426645,42.5543332 17.272,42.587 C17.7013355,42.6196668 18.1306645,42.673333 18.56,42.748 C18.9893355,42.822667 19.3556652,42.9906654 19.659,43.252 C19.9623349,43.5133346 20.114,43.877331 20.114,44.344 C20.114,44.9600031 19.8713358,45.4383316 19.386,45.779 C18.9006642,46.1196684 18.2473374,46.29 17.426,46.29 C16.6046626,46.29 15.9373359,46.1220017 15.424,45.786 C14.9106641,45.4499983 14.654,45.0066694 14.654,44.456 Z M15.326,44.386 C15.326,44.7873353 15.5126648,45.1116654 15.886,45.359 C16.2593352,45.6063346 16.7726634,45.73 17.426,45.73 C18.0606698,45.73 18.5529983,45.6086679 18.903,45.366 C19.2530018,45.1233321 19.428,44.7920021 19.428,44.372 C19.428,44.1666656 19.3790005,43.9916674 19.281,43.847 C19.1829995,43.7023326 19.0640007,43.5880004 18.924,43.504 C18.7839993,43.4199996 18.6043344,43.3500003 18.385,43.294 C18.1656656,43.2379997 17.9743342,43.2030001 17.811,43.189 C17.6476659,43.1749999 17.4446679,43.1586668 17.202,43.14 L16.698,43.084 C15.7833288,43.354668 15.326,43.7886637 15.326,44.386 Z M15.69,39.164 C15.69,39.6773359 15.8393318,40.099665 16.138,40.431 C16.4366682,40.762335 16.8426641,40.928 17.356,40.928 C17.8600025,40.928 18.2613318,40.7646683 18.56,40.438 C18.8586682,40.1113317 19.008,39.6913359 19.008,39.178 L19.008,38.604 C19.008,38.0999975 18.8586682,37.6870016 18.56,37.365 C18.2613318,37.0429984 17.8553359,36.882 17.342,36.882 C16.8286641,36.882 16.4250015,37.0429984 16.131,37.365 C15.8369985,37.6870016 15.69,38.0999975 15.69,38.604 L15.69,39.164 Z M21.262,33.788 C21.262,33.6573327 21.3133328,33.5430005 21.416,33.445 C21.5186672,33.3469995 21.6446659,33.298 21.794,33.298 C21.9340007,33.298 22.0553328,33.3469995 22.158,33.445 C22.2606672,33.5430005 22.312,33.6573327 22.312,33.788 C22.312,33.9280007 22.2606672,34.0493328 22.158,34.152 C22.0553328,34.2546672 21.9340007,34.306 21.794,34.306 C21.6446659,34.306 21.5186672,34.2546672 21.416,34.152 C21.3133328,34.0493328 21.262,33.9280007 21.262,33.788 Z M21.458,42.692 L21.458,36.672 C21.458,36.4853324 21.5699989,36.392 21.794,36.392 C22.0273345,36.392 22.144,36.4853324 22.144,36.672 L22.144,42.692 C22.144,42.766667 22.1090003,42.8366663 22.039,42.902 C21.9689996,42.9673337 21.8873338,43 21.794,43 C21.7006662,43 21.6213337,42.969667 21.556,42.909 C21.4906663,42.848333 21.458,42.7760004 21.458,42.692 Z M23.992,42.692 L23.992,36.672 C23.992,36.4853324 24.1039989,36.392 24.328,36.392 C24.4213338,36.392 24.5006663,36.4176664 24.566,36.469 C24.6313337,36.5203336 24.664,36.5879996 24.664,36.672 L24.664,37.372 C24.8226675,37.0733318 25.0653317,36.8213344 25.392,36.616 C25.7186683,36.4106656 26.1013311,36.308 26.54,36.308 C27.2213367,36.308 27.8093309,36.5599975 28.304,37.064 C28.7986691,37.5680025 29.046,38.1699965 29.046,38.87 L29.046,42.692 C29.046,42.8973344 28.9293345,43 28.696,43 C28.4719989,43 28.36,42.8973344 28.36,42.692 L28.36,38.87 C28.36,38.3753309 28.1733352,37.932002 27.8,37.54 C27.4266648,37.147998 26.9880025,36.952 26.484,36.952 C26.0079976,36.952 25.5880018,37.1269982 25.224,37.477 C24.8599982,37.8270018 24.678,38.2913304 24.678,38.87 L24.678,42.692 C24.678,42.766667 24.6430004,42.8366663 24.573,42.902 C24.5029996,42.9673337 24.4213338,43 24.328,43 C24.2346662,43 24.1553337,42.969667 24.09,42.909 C24.0246663,42.848333 23.992,42.7760004 23.992,42.692 Z M32.952,36.7 C32.952,36.6066662 32.9916663,36.529667 33.071,36.469 C33.1503337,36.408333 33.2413328,36.378 33.344,36.378 C33.4746673,36.378 33.5679997,36.4339994 33.624,36.546 L35.514,41.796 L37.04,36.98 C37.0773335,36.8399993 37.1799992,36.77 37.348,36.77 C37.5066675,36.77 37.6046665,36.8399993 37.642,36.98 L39.126,41.866 L41.058,36.546 C41.0860001,36.4339994 41.1746659,36.378 41.324,36.378 C41.4266672,36.378 41.515333,36.4059997 41.59,36.462 C41.664667,36.5180003 41.702,36.5926662 41.702,36.686 C41.702,36.7700004 41.6833335,36.8399997 41.646,36.896 L39.462,42.902 C39.4059997,43.0326673 39.3126673,43.098 39.182,43.098 C39.0513327,43.098 38.9580003,43.0373339 38.902,42.916 L37.348,37.988 L35.808,42.846 C35.7519997,43.0140008 35.6493341,43.098 35.5,43.098 C35.3506659,43.098 35.2480003,43.0140008 35.192,42.846 L33.008,36.896 C32.9706665,36.7839994 32.952,36.7186668 32.952,36.7 Z M42.682,33.788 C42.682,33.6573327 42.7333328,33.5430005 42.836,33.445 C42.9386672,33.3469995 43.0646659,33.298 43.214,33.298 C43.3540007,33.298 43.4753328,33.3469995 43.578,33.445 C43.6806672,33.5430005 43.732,33.6573327 43.732,33.788 C43.732,33.9280007 43.6806672,34.0493328 43.578,34.152 C43.4753328,34.2546672 43.3540007,34.306 43.214,34.306 C43.0646659,34.306 42.9386672,34.2546672 42.836,34.152 C42.7333328,34.0493328 42.682,33.9280007 42.682,33.788 Z M42.878,42.692 L42.878,36.672 C42.878,36.4853324 42.9899989,36.392 43.214,36.392 C43.4473345,36.392 43.564,36.4853324 43.564,36.672 L43.564,42.692 C43.564,42.766667 43.5290003,42.8366663 43.459,42.902 C43.3889996,42.9673337 43.3073338,43 43.214,43 C43.1206662,43 43.0413337,42.969667 42.976,42.909 C42.9106663,42.848333 42.878,42.7760004 42.878,42.692 Z M45.384,40.998 L45.384,33.48 C45.384,33.3959996 45.4189996,33.3260003 45.489,33.27 C45.5590003,33.2139997 45.6359996,33.186 45.72,33.186 C45.8133338,33.186 45.8949996,33.2139997 45.965,33.27 C46.0350003,33.3260003 46.07,33.3959996 46.07,33.48 L46.07,36.392 L47.932,36.392 C48.006667,36.392 48.0696664,36.422333 48.121,36.483 C48.1723336,36.543667 48.198,36.6159996 48.198,36.7 C48.198,36.774667 48.1700003,36.842333 48.114,36.903 C48.0579997,36.963667 47.9973337,36.994 47.932,36.994 L46.07,36.994 L46.07,40.998 C46.07,41.4926691 46.1773323,41.8426656 46.392,42.048 C46.6066677,42.2533344 46.9799973,42.356 47.512,42.356 L47.862,42.356 C47.9553338,42.356 48.032333,42.386333 48.093,42.447 C48.153667,42.507667 48.184,42.5846662 48.184,42.678 C48.184,42.7620004 48.153667,42.8366663 48.093,42.902 C48.032333,42.9673337 47.9553338,43 47.862,43 L47.512,43 C46.0933262,43 45.384,42.3326733 45.384,40.998 Z M49.388,42.692 L49.388,32.57 C49.388,32.4859996 49.4206663,32.4160003 49.486,32.36 C49.5513337,32.3039997 49.6306662,32.276 49.724,32.276 C49.8266672,32.276 49.9106663,32.3039997 49.976,32.36 C50.0413337,32.4160003 50.074,32.4859996 50.074,32.57 L50.074,37.372 C50.2326675,37.0733318 50.4729984,36.8213344 50.795,36.616 C51.1170016,36.4106656 51.4973311,36.308 51.936,36.308 C52.6173367,36.308 53.2053309,36.5599975 53.7,37.064 C54.1946691,37.5680025 54.442,38.1699965 54.442,38.87 L54.442,42.692 C54.442,42.8973344 54.3253345,43 54.092,43 C53.8679989,43 53.756,42.8973344 53.756,42.692 L53.756,38.87 C53.756,38.3753309 53.5693352,37.932002 53.196,37.54 C52.8226648,37.147998 52.3840025,36.952 51.88,36.952 C51.4039976,36.952 50.9840018,37.1269982 50.62,37.477 C50.2559982,37.8270018 50.074,38.2913304 50.074,38.87 L50.074,42.692 C50.074,42.766667 50.0390003,42.8366663 49.969,42.902 C49.8989996,42.9673337 49.8173338,43 49.724,43 C49.6306662,43 49.5513337,42.969667 49.486,42.909 C49.4206663,42.848333 49.388,42.776 49.388,42.692 Z M58.558,41.236 C58.558,40.5359965 58.8356639,40.0483347 59.391,39.773 C59.9463361,39.4976653 60.7559947,39.36 61.82,39.36 L62.576,39.36 L62.576,38.996 C62.576,38.4359972 62.4290015,37.953002 62.135,37.547 C61.8409985,37.140998 61.4000029,36.938 60.812,36.938 C60.4573316,36.938 60.1260015,37.0033327 59.818,37.134 C59.5099985,37.2646673 59.3513334,37.33 59.342,37.33 C59.2486662,37.33 59.1740003,37.2880004 59.118,37.204 C59.0619997,37.1199996 59.034,37.0360004 59.034,36.952 C59.034,36.7933325 59.2276647,36.646334 59.615,36.511 C60.0023353,36.375666 60.4106645,36.308 60.84,36.308 C61.6706708,36.308 62.281998,36.5623308 62.674,37.071 C63.066002,37.5796692 63.262,38.2213295 63.262,38.996 L63.262,42.692 C63.262,42.7760004 63.2293337,42.848333 63.164,42.909 C63.0986663,42.969667 63.0193338,43 62.926,43 C62.8326662,43 62.7533337,42.969667 62.688,42.909 C62.6226663,42.848333 62.59,42.7760004 62.59,42.692 L62.59,42.02 C61.9739969,42.7293369 61.2740039,43.084 60.49,43.084 C59.9206638,43.084 59.4563351,42.9276682 59.097,42.615 C58.7376649,42.3023318 58.558,41.8426697 58.558,41.236 Z M59.244,41.208 C59.244,41.6280021 59.3676654,41.942999 59.615,42.153 C59.8623346,42.3630011 60.1866647,42.468 60.588,42.468 C61.0640024,42.468 61.5143312,42.2976684 61.939,41.957 C62.3636688,41.6163316 62.576,41.2826683 62.576,40.956 L62.576,39.92 L61.89,39.92 C61.4886647,39.92 61.152668,39.9339999 60.882,39.962 C60.611332,39.9900001 60.340668,40.0436663 60.07,40.123 C59.799332,40.2023337 59.5940007,40.3329991 59.454,40.515 C59.3139993,40.6970009 59.244,40.9279986 59.244,41.208 Z M67.182,36.7 C67.182,36.6066662 67.2216663,36.529667 67.301,36.469 C67.3803337,36.408333 67.4713328,36.378 67.574,36.378 C67.7233341,36.378 67.8166665,36.4339994 67.854,36.546 L69.772,41.838 L71.69,36.63 C71.7553337,36.4619992 71.8486661,36.378 71.97,36.378 C72.0633338,36.378 72.1543329,36.408333 72.243,36.469 C72.3316671,36.529667 72.376,36.6019996 72.376,36.686 L72.32,36.91 L70.108,42.902 C70.0426663,43.0326673 69.9306675,43.098 69.772,43.098 C69.6133325,43.098 69.5060003,43.0326673 69.45,42.902 L67.238,36.91 C67.2006665,36.7979994 67.182,36.7280001 67.182,36.7 Z M73.09,41.236 C73.09,40.5359965 73.3676639,40.0483347 73.923,39.773 C74.4783361,39.4976653 75.2879947,39.36 76.352,39.36 L77.108,39.36 L77.108,38.996 C77.108,38.4359972 76.9610015,37.953002 76.667,37.547 C76.3729985,37.140998 75.9320029,36.938 75.344,36.938 C74.9893316,36.938 74.6580015,37.0033327 74.35,37.134 C74.0419985,37.2646673 73.8833334,37.33 73.874,37.33 C73.7806662,37.33 73.7060003,37.2880004 73.65,37.204 C73.5939997,37.1199996 73.566,37.0360004 73.566,36.952 C73.566,36.7933325 73.7596647,36.646334 74.147,36.511 C74.5343353,36.375666 74.9426645,36.308 75.372,36.308 C76.2026708,36.308 76.813998,36.5623308 77.206,37.071 C77.598002,37.5796692 77.794,38.2213295 77.794,38.996 L77.794,42.692 C77.794,42.7760004 77.7613337,42.848333 77.696,42.909 C77.6306663,42.969667 77.5513338,43 77.458,43 C77.3646662,43 77.2853337,42.969667 77.22,42.909 C77.1546663,42.848333 77.122,42.7760004 77.122,42.692 L77.122,42.02 C76.5059969,42.7293369 75.8060039,43.084 75.022,43.084 C74.4526638,43.084 73.9883351,42.9276682 73.629,42.615 C73.2696649,42.3023318 73.09,41.8426697 73.09,41.236 Z M73.776,41.208 C73.776,41.6280021 73.8996654,41.942999 74.147,42.153 C74.3943346,42.3630011 74.7186647,42.468 75.12,42.468 C75.5960024,42.468 76.0463312,42.2976684 76.471,41.957 C76.8956688,41.6163316 77.108,41.2826683 77.108,40.956 L77.108,39.92 L76.422,39.92 C76.0206647,39.92 75.684668,39.9339999 75.414,39.962 C75.143332,39.9900001 74.872668,40.0436663 74.602,40.123 C74.331332,40.2023337 74.1260007,40.3329991 73.986,40.515 C73.8459993,40.6970009 73.776,40.9279986 73.776,41.208 Z M79.586,42.692 L79.586,36.672 C79.586,36.4853324 79.6979989,36.392 79.922,36.392 C80.0153338,36.392 80.0946663,36.4176664 80.16,36.469 C80.2253337,36.5203336 80.258,36.5879996 80.258,36.672 L80.258,37.386 C80.4260008,37.0779985 80.675665,36.8213344 81.007,36.616 C81.338335,36.4106656 81.7233311,36.308 82.162,36.308 L82.666,36.308 C82.7500004,36.308 82.822333,36.338333 82.883,36.399 C82.943667,36.459667 82.974,36.5366662 82.974,36.63 C82.974,36.7233338 82.943667,36.800333 82.883,36.861 C82.822333,36.921667 82.7500004,36.952 82.666,36.952 L82.162,36.952 C81.6579975,36.952 81.2170019,37.1409981 80.839,37.519 C80.4609981,37.8970019 80.272,38.3893303 80.272,38.996 L80.272,42.692 C80.272,42.766667 80.2370004,42.8366663 80.167,42.902 C80.0969997,42.9673337 80.0153338,43 79.922,43 C79.8286662,43 79.7493337,42.969667 79.684,42.909 C79.6186663,42.848333 79.586,42.7760004 79.586,42.692 Z M83.856,33.788 C83.856,33.6573327 83.9073328,33.5430005 84.01,33.445 C84.1126672,33.3469995 84.2386659,33.298 84.388,33.298 C84.5280007,33.298 84.6493328,33.3469995 84.752,33.445 C84.8546672,33.5430005 84.906,33.6573327 84.906,33.788 C84.906,33.9280007 84.8546672,34.0493328 84.752,34.152 C84.6493328,34.2546672 84.5280007,34.306 84.388,34.306 C84.2386659,34.306 84.1126672,34.2546672 84.01,34.152 C83.9073328,34.0493328 83.856,33.9280007 83.856,33.788 Z M84.052,42.692 L84.052,36.672 C84.052,36.4853324 84.1639989,36.392 84.388,36.392 C84.6213345,36.392 84.738,36.4853324 84.738,36.672 L84.738,42.692 C84.738,42.766667 84.7030003,42.8366663 84.633,42.902 C84.5629996,42.9673337 84.4813338,43 84.388,43 C84.2946662,43 84.2153337,42.969667 84.15,42.909 C84.0846663,42.848333 84.052,42.7760004 84.052,42.692 Z M86.334,40.494 L86.334,38.828 C86.334,38.1373299 86.5859975,37.5446691 87.09,37.05 C87.5940025,36.5553309 88.2006631,36.308 88.91,36.308 C89.6006701,36.308 90.1979975,36.5506642 90.702,37.036 C91.2060025,37.5213358 91.458,38.1233297 91.458,38.842 C91.458,39.0940013 91.427667,39.2969992 91.367,39.451 C91.306333,39.6050008 91.2106673,39.7146663 91.08,39.78 C90.9493327,39.8453337 90.8303339,39.8849999 90.723,39.899 C90.6156661,39.9130001 90.464001,39.92 90.268,39.92 L87.02,39.92 L87.02,40.508 C87.02,41.0960029 87.2299979,41.5673316 87.65,41.922 C88.0700021,42.2766684 88.61133,42.454 89.274,42.454 C89.6100017,42.454 89.8946655,42.4073338 90.128,42.314 C90.3613345,42.2206662 90.5386661,42.1273338 90.66,42.034 C90.7813339,41.9406662 90.8746663,41.894 90.94,41.894 C91.0240004,41.894 91.0986663,41.931333 91.164,42.006 C91.2293337,42.080667 91.262,42.155333 91.262,42.23 C91.262,42.4073342 91.0683353,42.593999 90.681,42.79 C90.2936647,42.986001 89.8153362,43.084 89.246,43.084 C88.387329,43.084 87.687336,42.8460024 87.146,42.37 C86.604664,41.8939976 86.334,41.2686705 86.334,40.494 Z M87.02,39.346 L90.002,39.346 C90.3193349,39.346 90.5293328,39.3133337 90.632,39.248 C90.7346672,39.1826663 90.786,39.0473344 90.786,38.842 C90.786,38.3473309 90.6086684,37.904002 90.254,37.512 C89.8993316,37.119998 89.451336,36.924 88.91,36.924 C88.3873307,36.924 87.9416685,37.1059982 87.573,37.47 C87.2043315,37.8340018 87.02,38.2679975 87.02,38.772 L87.02,39.346 Z M92.872,40.998 L92.872,33.48 C92.872,33.3959996 92.9069997,33.3260003 92.977,33.27 C93.0470004,33.2139997 93.1239996,33.186 93.208,33.186 C93.3013338,33.186 93.3829997,33.2139997 93.453,33.27 C93.5230003,33.3260003 93.558,33.3959996 93.558,33.48 L93.558,36.392 L95.42,36.392 C95.494667,36.392 95.5576664,36.422333 95.609,36.483 C95.6603336,36.543667 95.686,36.6159996 95.686,36.7 C95.686,36.774667 95.6580003,36.842333 95.602,36.903 C95.5459997,36.963667 95.4853337,36.994 95.42,36.994 L93.558,36.994 L93.558,40.998 C93.558,41.4926691 93.6653323,41.8426656 93.88,42.048 C94.0946677,42.2533344 94.4679973,42.356 95,42.356 L95.35,42.356 C95.4433338,42.356 95.520333,42.386333 95.581,42.447 C95.641667,42.507667 95.672,42.5846662 95.672,42.678 C95.672,42.7620004 95.641667,42.8366663 95.581,42.902 C95.520333,42.9673337 95.4433338,43 95.35,43 L95,43 C93.5813262,43 92.872,42.3326733 92.872,40.998 Z M96.19,36.63 C96.19,36.5366662 96.2319996,36.4573337 96.316,36.392 C96.4000004,36.3266663 96.4933328,36.294 96.596,36.294 C96.7453341,36.294 96.8339999,36.3546661 96.862,36.476 L98.836,41.866 L100.754,36.476 C100.819334,36.3546661 100.907999,36.294 101.02,36.294 C101.113334,36.294 101.202,36.3266663 101.286,36.392 C101.37,36.4573337 101.412,36.5366662 101.412,36.63 C101.412,36.6766669 101.407333,36.7139999 101.398,36.742 L99.186,42.776 L98.892,43.56 C98.8359997,43.7093341 98.7333341,43.9589983 98.584,44.309 C98.4346659,44.6590018 98.2993339,44.9203325 98.178,45.093 C98.0566661,45.2656675 97.9073342,45.4616656 97.73,45.681 C97.5526658,45.9003344 97.3636677,46.0566662 97.163,46.15 C96.9623323,46.2433338 96.7500011,46.29 96.526,46.29 C96.3113323,46.29 96.204,46.1826677 96.204,45.968 C96.204,45.7533323 96.2879992,45.646 96.456,45.646 C97.2306705,45.646 97.9073304,44.6893429 98.486,42.776 L96.218,36.742 C96.1993332,36.6859997 96.19,36.6486668 96.19,36.63 Z M105.122,40.494 L105.122,38.87 C105.122,38.1793299 105.373997,37.5796692 105.878,37.071 C106.382003,36.5623308 106.983996,36.308 107.684,36.308 C108.37467,36.308 108.976664,36.5599975 109.49,37.064 C110.003336,37.5680025 110.26,38.1699965 110.26,38.87 L110.26,40.494 C110.26,41.1753367 110.001003,41.7773307 109.483,42.3 C108.964997,42.8226693 108.365337,43.084 107.684,43.084 C107.002663,43.084 106.405336,42.8250026 105.892,42.307 C105.378664,41.7889974 105.122,41.1846701 105.122,40.494 Z M105.808,40.494 C105.808,40.9980025 105.992331,41.4483314 106.361,41.845 C106.729669,42.2416687 107.170664,42.44 107.684,42.44 C108.197336,42.44 108.640665,42.2416687 109.014,41.845 C109.387335,41.4483314 109.574,40.9980025 109.574,40.494 L109.574,38.87 C109.574,38.3753309 109.387335,37.932002 109.014,37.54 C108.640665,37.147998 108.197336,36.952 107.684,36.952 C107.170664,36.952 106.729669,37.147998 106.361,37.54 C105.992331,37.932002 105.808,38.3753309 105.808,38.87 L105.808,40.494 Z M111.842,42.706 L111.842,34.81 C111.842,34.1286633 112.089331,33.5360025 112.584,33.032 C113.078669,32.5279975 113.661997,32.276 114.334,32.276 L114.572,32.276 C114.665334,32.276 114.742333,32.3086663 114.803,32.374 C114.863667,32.4393337 114.894,32.5186662 114.894,32.612 C114.894,32.7053338 114.863667,32.7799997 114.803,32.836 C114.742333,32.8920003 114.665334,32.92 114.572,32.92 L114.39,32.92 C113.867331,32.92 113.428668,33.1043315 113.074,33.473 C112.719332,33.8416685 112.537333,34.2779975 112.528,34.782 L112.528,36.392 L114.6,36.392 C114.684,36.392 114.754,36.422333 114.81,36.483 C114.866,36.543667 114.894,36.611333 114.894,36.686 C114.894,36.7700004 114.866,36.842333 114.81,36.903 C114.754,36.963667 114.684,36.994 114.6,36.994 L112.528,36.994 L112.528,42.706 C112.528,42.7900004 112.493,42.8599997 112.423,42.916 C112.353,42.9720003 112.266667,43 112.164,43 C111.949332,43 111.842,42.902001 111.842,42.706 Z M118.786,42.706 L118.786,34.866 C118.786,34.0913295 119.070664,33.4660024 119.64,32.99 C120.209336,32.5139976 120.876663,32.276 121.642,32.276 C122.566005,32.276 123.293997,32.5979968 123.826,33.242 L123.826,42.692 C123.826,42.766667 123.791,42.8366663 123.721,42.902 C123.651,42.9673337 123.569334,43 123.476,43 C123.382666,43 123.303334,42.9673337 123.238,42.902 C123.172666,42.8366663 123.14,42.766667 123.14,42.692 L123.14,33.438 C122.738665,33.0366647 122.23467,32.836 121.628,32.836 C121.04933,32.836 120.545335,33.0226648 120.116,33.396 C119.686665,33.7693352 119.472,34.2546637 119.472,34.852 L119.472,36.392 L121.348,36.392 C121.422667,36.392 121.488,36.422333 121.544,36.483 C121.6,36.543667 121.628,36.611333 121.628,36.686 C121.628,36.7700004 121.6,36.842333 121.544,36.903 C121.488,36.963667 121.422667,36.994 121.348,36.994 L119.472,36.994 L119.472,42.706 C119.472,42.7900004 119.437,42.8599997 119.367,42.916 C119.297,42.9720003 119.210667,43 119.108,43 C118.893332,43 118.786,42.902001 118.786,42.706 Z M125.52,40.494 L125.52,38.87 C125.52,38.1793299 125.771997,37.5796692 126.276,37.071 C126.780003,36.5623308 127.381996,36.308 128.082,36.308 C128.77267,36.308 129.374664,36.5599975 129.888,37.064 C130.401336,37.5680025 130.658,38.1699965 130.658,38.87 L130.658,40.494 C130.658,41.1753367 130.399003,41.7773307 129.881,42.3 C129.362997,42.8226693 128.763337,43.084 128.082,43.084 C127.400663,43.084 126.803336,42.8250026 126.29,42.307 C125.776664,41.7889974 125.52,41.1846701 125.52,40.494 Z M126.206,40.494 C126.206,40.9980025 126.390331,41.4483314 126.759,41.845 C127.127669,42.2416687 127.568664,42.44 128.082,42.44 C128.595336,42.44 129.038665,42.2416687 129.412,41.845 C129.785335,41.4483314 129.972,40.9980025 129.972,40.494 L129.972,38.87 C129.972,38.3753309 129.785335,37.932002 129.412,37.54 C129.038665,37.147998 128.595336,36.952 128.082,36.952 C127.568664,36.952 127.127669,37.147998 126.759,37.54 C126.390331,37.932002 126.206,38.3753309 126.206,38.87 L126.206,40.494 Z M131.568,36.7 C131.568,36.6066662 131.607666,36.529667 131.687,36.469 C131.766334,36.408333 131.857333,36.378 131.96,36.378 C132.090667,36.378 132.184,36.4339994 132.24,36.546 L134.13,41.796 L135.656,36.98 C135.693334,36.8399993 135.795999,36.77 135.964,36.77 C136.122667,36.77 136.220666,36.8399993 136.258,36.98 L137.742,41.866 L139.674,36.546 C139.702,36.4339994 139.790666,36.378 139.94,36.378 C140.042667,36.378 140.131333,36.4059997 140.206,36.462 C140.280667,36.5180003 140.318,36.5926662 140.318,36.686 C140.318,36.7700004 140.299334,36.8399997 140.262,36.896 L138.078,42.902 C138.022,43.0326673 137.928667,43.098 137.798,43.098 C137.667333,43.098 137.574,43.0373339 137.518,42.916 L135.964,37.988 L134.424,42.846 C134.368,43.0140008 134.265334,43.098 134.116,43.098 C133.966666,43.098 133.864,43.0140008 133.808,42.846 L131.624,36.896 C131.586666,36.7839994 131.568,36.7186668 131.568,36.7 Z M141.242,40.494 L141.242,38.828 C141.242,38.1373299 141.493997,37.5446691 141.998,37.05 C142.502003,36.5553309 143.108663,36.308 143.818,36.308 C144.50867,36.308 145.105997,36.5506642 145.61,37.036 C146.114003,37.5213358 146.366,38.1233297 146.366,38.842 C146.366,39.0940013 146.335667,39.2969992 146.275,39.451 C146.214333,39.6050008 146.118667,39.7146663 145.988,39.78 C145.857333,39.8453337 145.738334,39.8849999 145.631,39.899 C145.523666,39.9130001 145.372001,39.92 145.176,39.92 L141.928,39.92 L141.928,40.508 C141.928,41.0960029 142.137998,41.5673316 142.558,41.922 C142.978002,42.2766684 143.51933,42.454 144.182,42.454 C144.518002,42.454 144.802665,42.4073338 145.036,42.314 C145.269334,42.2206662 145.446666,42.1273338 145.568,42.034 C145.689334,41.9406662 145.782666,41.894 145.848,41.894 C145.932,41.894 146.006666,41.931333 146.072,42.006 C146.137334,42.080667 146.17,42.155333 146.17,42.23 C146.17,42.4073342 145.976335,42.593999 145.589,42.79 C145.201665,42.986001 144.723336,43.084 144.154,43.084 C143.295329,43.084 142.595336,42.8460024 142.054,42.37 C141.512664,41.8939976 141.242,41.2686705 141.242,40.494 Z M141.928,39.346 L144.91,39.346 C145.227335,39.346 145.437333,39.3133337 145.54,39.248 C145.642667,39.1826663 145.694,39.0473344 145.694,38.842 C145.694,38.3473309 145.516668,37.904002 145.162,37.512 C144.807332,37.119998 144.359336,36.924 143.818,36.924 C143.295331,36.924 142.849669,37.1059982 142.481,37.47 C142.112331,37.8340018 141.928,38.2679975 141.928,38.772 L141.928,39.346 Z M147.808,42.692 L147.808,36.672 C147.808,36.4853324 147.919999,36.392 148.144,36.392 C148.237334,36.392 148.316666,36.4176664 148.382,36.469 C148.447334,36.5203336 148.48,36.5879996 148.48,36.672 L148.48,37.386 C148.648001,37.0779985 148.897665,36.8213344 149.229,36.616 C149.560335,36.4106656 149.945331,36.308 150.384,36.308 L150.888,36.308 C150.972,36.308 151.044333,36.338333 151.105,36.399 C151.165667,36.459667 151.196,36.5366662 151.196,36.63 C151.196,36.7233338 151.165667,36.800333 151.105,36.861 C151.044333,36.921667 150.972,36.952 150.888,36.952 L150.384,36.952 C149.879997,36.952 149.439002,37.1409981 149.061,37.519 C148.682998,37.8970019 148.494,38.3893303 148.494,38.996 L148.494,42.692 C148.494,42.766667 148.459,42.8366663 148.389,42.902 C148.319,42.9673337 148.237334,43 148.144,43 C148.050666,43 147.971334,42.969667 147.906,42.909 C147.840666,42.848333 147.808,42.7760004 147.808,42.692 Z M154.836,40.494 L154.836,38.898 C154.836,38.1326628 155.057664,37.5096691 155.501,37.029 C155.944336,36.5483309 156.599996,36.308 157.468,36.308 C158.000003,36.308 158.447998,36.4036657 158.812,36.595 C159.176002,36.7863343 159.358,36.9753324 159.358,37.162 C159.358,37.2460004 159.325334,37.3229996 159.26,37.393 C159.194666,37.4630004 159.12,37.498 159.036,37.498 C158.989333,37.498 158.907667,37.4536671 158.791,37.365 C158.674333,37.2763329 158.504001,37.1853338 158.28,37.092 C158.055999,36.9986662 157.790002,36.952 157.482,36.952 C156.856664,36.952 156.373668,37.1246649 156.033,37.47 C155.692332,37.8153351 155.522,38.2913303 155.522,38.898 L155.522,40.494 C155.522,41.1100031 155.689998,41.5883316 156.026,41.929 C156.362002,42.2696684 156.851997,42.44 157.496,42.44 C157.822668,42.44 158.102666,42.3933338 158.336,42.3 C158.569335,42.2066662 158.746666,42.1133338 158.868,42.02 C158.989334,41.9266662 159.078,41.88 159.134,41.88 C159.218,41.88 159.290333,41.9149996 159.351,41.985 C159.411667,42.0550004 159.442,42.1319996 159.442,42.216 C159.442,42.412001 159.253002,42.6056657 158.875,42.797 C158.496998,42.9883343 158.028003,43.084 157.468,43.084 C156.609329,43.084 155.956002,42.8460024 155.508,42.37 C155.059998,41.8939976 154.836,41.2686705 154.836,40.494 Z M160.492,40.494 L160.492,38.87 C160.492,38.1793299 160.743997,37.5796692 161.248,37.071 C161.752003,36.5623308 162.353996,36.308 163.054,36.308 C163.74467,36.308 164.346664,36.5599975 164.86,37.064 C165.373336,37.5680025 165.63,38.1699965 165.63,38.87 L165.63,40.494 C165.63,41.1753367 165.371003,41.7773307 164.853,42.3 C164.334997,42.8226693 163.735337,43.084 163.054,43.084 C162.372663,43.084 161.775336,42.8250026 161.262,42.307 C160.748664,41.7889974 160.492,41.1846701 160.492,40.494 Z M161.178,40.494 C161.178,40.9980025 161.362331,41.4483314 161.731,41.845 C162.099669,42.2416687 162.540664,42.44 163.054,42.44 C163.567336,42.44 164.010665,42.2416687 164.384,41.845 C164.757335,41.4483314 164.944,40.9980025 164.944,40.494 L164.944,38.87 C164.944,38.3753309 164.757335,37.932002 164.384,37.54 C164.010665,37.147998 163.567336,36.952 163.054,36.952 C162.540664,36.952 162.099669,37.147998 161.731,37.54 C161.362331,37.932002 161.178,38.3753309 161.178,38.87 L161.178,40.494 Z M167.324,42.692 L167.324,32.57 C167.324,32.4859996 167.356666,32.4160003 167.422,32.36 C167.487334,32.3039997 167.566666,32.276 167.66,32.276 C167.762667,32.276 167.846666,32.3039997 167.912,32.36 C167.977334,32.4160003 168.01,32.4859996 168.01,32.57 L168.01,42.692 C168.01,42.766667 167.975,42.8366663 167.905,42.902 C167.835,42.9673337 167.753334,43 167.66,43 C167.566666,43 167.487334,42.969667 167.422,42.909 C167.356666,42.848333 167.324,42.7760004 167.324,42.692 Z M169.704,40.494 L169.704,38.87 C169.704,38.1793299 169.955997,37.5796692 170.46,37.071 C170.964003,36.5623308 171.565997,36.308 172.266,36.308 C172.95667,36.308 173.558664,36.5599975 174.072,37.064 C174.585336,37.5680025 174.842,38.1699965 174.842,38.87 L174.842,40.494 C174.842,41.1753367 174.583003,41.7773307 174.065,42.3 C173.546997,42.8226693 172.947337,43.084 172.266,43.084 C171.584663,43.084 170.987336,42.8250026 170.474,42.307 C169.960664,41.7889974 169.704,41.1846701 169.704,40.494 Z M170.39,40.494 C170.39,40.9980025 170.574331,41.4483314 170.943,41.845 C171.311669,42.2416687 171.752664,42.44 172.266,42.44 C172.779336,42.44 173.222665,42.2416687 173.596,41.845 C173.969335,41.4483314 174.156,40.9980025 174.156,40.494 L174.156,38.87 C174.156,38.3753309 173.969335,37.932002 173.596,37.54 C173.222665,37.147998 172.779336,36.952 172.266,36.952 C171.752664,36.952 171.311669,37.147998 170.943,37.54 C170.574331,37.932002 170.39,38.3753309 170.39,38.87 L170.39,40.494 Z M176.424,42.692 L176.424,36.672 C176.424,36.4853324 176.535999,36.392 176.76,36.392 C176.853334,36.392 176.932666,36.4176664 176.998,36.469 C177.063334,36.5203336 177.096,36.5879996 177.096,36.672 L177.096,37.386 C177.264001,37.0779985 177.513665,36.8213344 177.845,36.616 C178.176335,36.4106656 178.561331,36.308 179,36.308 L179.504,36.308 C179.588,36.308 179.660333,36.338333 179.721,36.399 C179.781667,36.459667 179.812,36.5366662 179.812,36.63 C179.812,36.7233338 179.781667,36.800333 179.721,36.861 C179.660333,36.921667 179.588,36.952 179.504,36.952 L179,36.952 C178.495997,36.952 178.055002,37.1409981 177.677,37.519 C177.298998,37.8970019 177.11,38.3893303 177.11,38.996 L177.11,42.692 C177.11,42.766667 177.075,42.8366663 177.005,42.902 C176.935,42.9673337 176.853334,43 176.76,43 C176.666666,43 176.587334,42.969667 176.522,42.909 C176.456666,42.848333 176.424,42.7760004 176.424,42.692 Z M180.47,42.132 C180.47,42.057333 180.495666,41.9850003 180.547,41.915 C180.598334,41.8449996 180.656666,41.81 180.722,41.81 C180.778,41.8006666 180.852666,41.833333 180.946,41.908 L181.268,42.132 C181.380001,42.206667 181.552666,42.281333 181.786,42.356 C182.019335,42.430667 182.280665,42.468 182.57,42.468 C183.092669,42.468 183.479999,42.3676677 183.732,42.167 C183.984001,41.9663323 184.11,41.7073349 184.11,41.39 C184.11,41.0166648 183.991001,40.7226677 183.753,40.508 C183.514999,40.2933323 183.225668,40.1370005 182.885,40.039 C182.544332,39.9409995 182.201335,39.8360006 181.856,39.724 C181.510665,39.6119994 181.219001,39.4300013 180.981,39.178 C180.742999,38.9259987 180.624,38.5853355 180.624,38.156 C180.624,37.6706642 180.803665,37.2413352 181.163,36.868 C181.522335,36.4946648 182.051997,36.308 182.752,36.308 C183.190669,36.308 183.598998,36.375666 183.977,36.511 C184.355002,36.646334 184.544,36.7886659 184.544,36.938 C184.544,37.012667 184.511334,37.0919996 184.446,37.176 C184.380666,37.2600004 184.310667,37.302 184.236,37.302 C184.226667,37.302 184.063335,37.2390006 183.746,37.113 C183.428665,36.9869994 183.102002,36.924 182.766,36.924 C182.261997,36.924 181.886335,37.0499987 181.639,37.302 C181.391665,37.5540013 181.268,37.8339985 181.268,38.142 C181.268,38.4593349 181.386999,38.7066658 181.625,38.884 C181.863001,39.0613342 182.154665,39.1966662 182.5,39.29 C182.845335,39.3833338 183.190665,39.4883327 183.536,39.605 C183.881335,39.7216672 184.172999,39.9223319 184.411,40.207 C184.649001,40.4916681 184.768,40.8719976 184.768,41.348 C184.768,41.889336 184.576669,42.3139985 184.194,42.622 C183.811331,42.9300015 183.27467,43.084 182.584,43.084 C181.986664,43.084 181.485002,42.9790011 181.079,42.769 C180.672998,42.558999 180.47,42.3466677 180.47,42.132 Z M186.014,42.916 C185.911333,42.8039994 185.86,42.6686675 185.86,42.51 C185.86,42.3513325 185.913666,42.2160006 186.021,42.104 C186.128334,41.9919994 186.265999,41.936 186.434,41.936 C186.583334,41.936 186.713999,41.9943327 186.826,42.111 C186.938001,42.2276672 186.994,42.3606659 186.994,42.51 C186.994,42.6593341 186.938001,42.7923327 186.826,42.909 C186.713999,43.0256672 186.583334,43.084 186.434,43.084 C186.265999,43.084 186.126001,43.0280006 186.014,42.916 Z" id="Beginwithavarietyoffowercolors."></path>
                            <path d="M1.298,18.226 L1.298,11.824 C1.298,10.1373249 1.74899549,8.89800396 2.651,8.106 C3.55300451,7.31399604 4.72999274,6.918 6.182,6.918 C7.67800748,6.918 8.88432875,7.28832963 9.801,8.029 C10.7176713,8.76967037 11.176,9.7266608 11.176,10.9 C11.176,11.3693357 11.0880009,11.6883325 10.912,11.857 C10.7359991,12.0256675 10.4353355,12.11 10.01,12.11 C9.24732952,12.11 8.85866674,11.8533359 8.844,11.34 C8.75599956,9.77065882 7.89800814,8.986 6.27,8.986 C4.5099912,8.986 3.63,9.93199054 3.63,11.824 L3.63,18.226 C3.63,20.1180095 4.52465772,21.064 6.314,21.064 C6.84200264,21.064 7.28199824,20.9870008 7.634,20.833 C7.98600176,20.6789992 8.23899923,20.4553348 8.393,20.162 C8.54700077,19.8686652 8.65333304,19.6120011 8.712,19.392 C8.77066696,19.1719989 8.81466652,18.9006683 8.844,18.578 C8.88800022,18.0646641 9.26932974,17.808 9.988,17.808 C10.4133355,17.808 10.7176657,17.8923325 10.901,18.061 C11.0843342,18.2296675 11.176,18.5486643 11.176,19.018 C11.176,20.2353394 10.7140046,21.2253295 9.79,21.988 C8.86599538,22.7506705 7.65600748,23.132 6.16,23.132 C4.70799274,23.132 3.53467114,22.736004 2.64,21.944 C1.74532886,21.151996 1.298,19.9126751 1.298,18.226 Z M12.694,18.798 L12.694,16.774 C12.694,15.6153275 13.1413289,14.6033377 14.036,13.738 C14.9306711,12.8726623 16.0013271,12.44 17.248,12.44 C18.4653394,12.44 19.5286621,12.8689957 20.438,13.727 C21.3473379,14.5850043 21.802,15.6006608 21.802,16.774 L21.802,18.798 C21.802,19.9420057 21.3436712,20.9576622 20.427,21.845 C19.5103287,22.7323378 18.4506727,23.176 17.248,23.176 C16.0306606,23.176 14.9673379,22.7360044 14.058,21.856 C13.1486621,20.9759956 12.694,19.9566725 12.694,18.798 Z M15.004,18.798 C15.004,19.3993363 15.2239978,19.938331 15.664,20.415 C16.1040022,20.891669 16.6319969,21.13 17.248,21.13 C17.8493363,21.13 18.3736644,20.891669 18.821,20.415 C19.2683356,19.938331 19.492,19.3993363 19.492,18.798 L19.492,16.774 C19.492,16.1873304 19.2683356,15.6593357 18.821,15.19 C18.3736644,14.7206643 17.8493363,14.486 17.248,14.486 C16.6319969,14.486 16.1040022,14.7206643 15.664,15.19 C15.2239978,15.6593357 15.004,16.1873304 15.004,16.774 L15.004,18.798 Z M24.024,22.23 L24.024,7.116 C24.024,6.8959989 24.1303323,6.71633403 24.343,6.577 C24.5556677,6.43766597 24.830665,6.368 25.168,6.368 C25.4906683,6.368 25.7656655,6.43766597 25.993,6.577 C26.2203345,6.71633403 26.334,6.8959989 26.334,7.116 L26.334,22.23 C26.334,22.4206676 26.2166678,22.5966659 25.982,22.758 C25.7473322,22.9193341 25.4760015,23 25.168,23 C24.8453317,23 24.5740011,22.9193341 24.354,22.758 C24.1339989,22.5966659 24.024,22.4206676 24.024,22.23 Z M28.534,18.798 L28.534,16.774 C28.534,15.6153275 28.9813289,14.6033377 29.876,13.738 C30.7706711,12.8726623 31.8413271,12.44 33.088,12.44 C34.3053394,12.44 35.3686621,12.8689957 36.278,13.727 C37.1873379,14.5850043 37.642,15.6006608 37.642,16.774 L37.642,18.798 C37.642,19.9420057 37.1836713,20.9576622 36.267,21.845 C35.3503288,22.7323378 34.2906727,23.176 33.088,23.176 C31.8706606,23.176 30.8073379,22.7360044 29.898,21.856 C28.9886621,20.9759956 28.534,19.9566725 28.534,18.798 Z M30.844,18.798 C30.844,19.3993363 31.0639978,19.938331 31.504,20.415 C31.9440022,20.891669 32.4719969,21.13 33.088,21.13 C33.6893363,21.13 34.2136644,20.891669 34.661,20.415 C35.1083356,19.938331 35.332,19.3993363 35.332,18.798 L35.332,16.774 C35.332,16.1873304 35.1083356,15.6593357 34.661,15.19 C34.2136644,14.7206643 33.6893363,14.486 33.088,14.486 C32.4719969,14.486 31.9440022,14.7206643 31.504,15.19 C31.0639978,15.6593357 30.844,16.1873304 30.844,16.774 L30.844,18.798 Z M39.666,22.23 L39.666,13.32 C39.666,13.0999989 39.7723323,12.920334 39.985,12.781 C40.1976677,12.641666 40.4653317,12.572 40.788,12.572 C41.0813348,12.572 41.3306656,12.641666 41.536,12.781 C41.7413344,12.920334 41.844,13.0999989 41.844,13.32 L41.844,14.288 C42.0933346,13.7746641 42.4709975,13.3383351 42.977,12.979 C43.4830025,12.6196649 44.0366637,12.44 44.638,12.44 L45.342,12.44 C45.5766678,12.44 45.7819991,12.538999 45.958,12.737 C46.1340009,12.935001 46.222,13.1733319 46.222,13.452 C46.222,13.7306681 46.1340009,13.9726656 45.958,14.178 C45.7819991,14.3833344 45.5766678,14.486 45.342,14.486 L44.638,14.486 C43.9339965,14.486 43.314336,14.7866637 42.779,15.388 C42.243664,15.9893363 41.976,16.7666619 41.976,17.72 L41.976,22.23 C41.976,22.4206676 41.8586678,22.5966659 41.624,22.758 C41.3893322,22.9193341 41.1106683,23 40.788,23 C40.4653317,23 40.1976677,22.9193341 39.985,22.758 C39.7723323,22.5966659 39.666,22.4206676 39.666,22.23 Z M47.608,22.252 L47.608,10.57 C47.608,9.3966608 47.9893295,8.40300407 48.752,7.589 C49.5146705,6.77499593 50.431328,6.368 51.502,6.368 L52.514,6.368 C52.7926681,6.368 53.0126659,6.46699901 53.174,6.665 C53.3353341,6.86300099 53.416,7.09399868 53.416,7.358 C53.416,7.62200132 53.3353341,7.85299901 53.174,8.051 C53.0126659,8.24900099 52.7926681,8.348 52.514,8.348 L51.942,8.348 C51.3553304,8.348 50.8713352,8.53866476 50.49,8.92 C50.1086648,9.30133524 49.918,9.77799714 49.918,10.35 L49.918,12.572 L52.778,12.572 C52.9686676,12.572 53.1226661,12.6563325 53.24,12.825 C53.3573339,12.9936675 53.416,13.1953322 53.416,13.43 C53.416,13.6646678 53.3573339,13.8663325 53.24,14.035 C53.1226661,14.2036675 52.9686676,14.288 52.778,14.288 L49.918,14.288 L49.918,22.252 C49.918,22.4720011 49.8006678,22.651666 49.566,22.791 C49.3313322,22.930334 49.0526683,23 48.73,23 C48.4073317,23 48.1396677,22.930334 47.927,22.791 C47.7143323,22.651666 47.608,22.4720011 47.608,22.252 Z M54.714,18.842 L54.714,13.342 C54.714,13.1366656 54.8313322,12.9570008 55.066,12.803 C55.3006678,12.6489992 55.5719985,12.572 55.88,12.572 C56.1880015,12.572 56.4556655,12.6489992 56.683,12.803 C56.9103345,12.9570008 57.024,13.1366656 57.024,13.342 L57.024,18.842 C57.024,19.4286696 57.2476644,19.9566643 57.695,20.426 C58.1423356,20.8953357 58.6666637,21.13 59.268,21.13 C59.8840031,21.13 60.4119978,20.8990023 60.852,20.437 C61.2920022,19.9749977 61.512,19.4433363 61.512,18.842 L61.512,13.32 C61.512,13.1146656 61.6256655,12.9386674 61.853,12.792 C62.0803345,12.6453326 62.3553317,12.572 62.678,12.572 C63.0006683,12.572 63.2683323,12.6453326 63.481,12.792 C63.6936677,12.9386674 63.8,13.1146656 63.8,13.32 L63.8,18.842 C63.8,20.0006725 63.3526711,21.0126623 62.458,21.878 C61.5633289,22.7433377 60.5000062,23.176 59.268,23.176 C58.0359938,23.176 56.9690045,22.7433377 56.067,21.878 C55.1649955,21.0126623 54.714,20.0006725 54.714,18.842 Z M66.33,22.23 L66.33,7.116 C66.33,6.8959989 66.4363323,6.71633403 66.649,6.577 C66.8616677,6.43766597 67.136665,6.368 67.474,6.368 C67.7966683,6.368 68.0716655,6.43766597 68.299,6.577 C68.5263345,6.71633403 68.64,6.8959989 68.64,7.116 L68.64,22.23 C68.64,22.4206676 68.5226678,22.5966659 68.288,22.758 C68.0533322,22.9193341 67.7820015,23 67.474,23 C67.1513317,23 66.8800011,22.9193341 66.66,22.758 C66.4399989,22.5966659 66.33,22.4206676 66.33,22.23 Z M75.746,18.226 L75.746,11.824 C75.746,10.1373249 76.1933289,8.89800396 77.088,8.106 C77.9826711,7.31399604 79.1559927,6.918 80.608,6.918 C82.0893407,6.918 83.295662,7.28832963 84.227,8.029 C85.158338,8.76967037 85.624,9.75599384 85.624,10.988 C85.624,11.4133355 85.5323343,11.7066659 85.349,11.868 C85.1656658,12.0293341 84.8686687,12.11 84.458,12.11 C83.6953295,12.11 83.3066667,11.8533359 83.292,11.34 C83.1306659,9.77065882 82.2580079,8.986 80.674,8.986 C78.9433247,8.986 78.078,9.93199054 78.078,11.824 L78.078,18.226 C78.078,20.1180095 78.9433247,21.064 80.674,21.064 C81.5100042,21.064 82.1553311,20.8293357 82.61,20.36 C83.0646689,19.8906643 83.292,19.1793381 83.292,18.226 L83.292,16.422 L81.07,16.422 C80.8353322,16.422 80.6520007,16.3303342 80.52,16.147 C80.3879993,15.9636658 80.322,15.7400013 80.322,15.476 C80.322,15.2413322 80.3879993,15.0286676 80.52,14.838 C80.6520007,14.6473324 80.8353322,14.552 81.07,14.552 L84.854,14.552 C85.0886678,14.552 85.275666,14.6289992 85.415,14.783 C85.554334,14.9370008 85.624,15.1239989 85.624,15.344 L85.624,18.226 C85.624,19.9126751 85.1730045,21.151996 84.271,21.944 C83.3689955,22.736004 82.1700075,23.132 80.674,23.132 C79.1779925,23.132 77.9826711,22.736004 77.088,21.944 C76.1933289,21.151996 75.746,19.9126751 75.746,18.226 Z M87.23,20.272 C87.23,19.0986608 87.6699956,18.2810023 88.55,17.819 C89.4300044,17.3569977 90.7059916,17.126 92.378,17.126 L93.346,17.126 L93.346,16.73 C93.346,16.0846634 93.1663351,15.5273357 92.807,15.058 C92.4476649,14.5886643 91.901337,14.354 91.168,14.354 C90.5373302,14.354 89.9836691,14.4639989 89.507,14.684 C89.030331,14.9040011 88.7700002,15.014 88.726,15.014 C88.4766654,15.014 88.2750008,14.8930012 88.121,14.651 C87.9669992,14.4089988 87.89,14.1413348 87.89,13.848 C87.89,13.4666648 88.2456631,13.1366681 88.957,12.858 C89.6683369,12.5793319 90.419996,12.44 91.212,12.44 C92.7226742,12.44 93.8409964,12.8469959 94.567,13.661 C95.2930036,14.4750041 95.656,15.4906606 95.656,16.708 L95.656,22.23 C95.656,22.4353344 95.5496677,22.6149992 95.337,22.769 C95.1243323,22.9230008 94.8566683,23 94.534,23 C94.2406652,23 93.9913344,22.9230008 93.786,22.769 C93.5806656,22.6149992 93.478,22.4353344 93.478,22.23 L93.478,21.46 C92.4953284,22.6040057 91.3880062,23.176 90.156,23.176 C89.3053291,23.176 88.6050028,22.9266692 88.055,22.428 C87.5049973,21.9293308 87.23,21.2106714 87.23,20.272 Z M89.562,19.986 C89.562,20.4553357 89.6939987,20.8109988 89.958,21.053 C90.2220013,21.2950012 90.5666645,21.416 90.992,21.416 C91.5493361,21.416 92.0809975,21.1813357 92.587,20.712 C93.0930025,20.2426643 93.346,19.7440026 93.346,19.216 L93.346,18.402 L92.796,18.402 C92.1359967,18.402 91.5970021,18.431333 91.179,18.49 C90.7609979,18.548667 90.3870017,18.7026654 90.057,18.952 C89.7269984,19.2013346 89.562,19.5459978 89.562,19.986 Z M98.01,22.23 L98.01,13.32 C98.01,13.0999989 98.1163323,12.920334 98.329,12.781 C98.5416677,12.641666 98.8093317,12.572 99.132,12.572 C99.4253348,12.572 99.6746656,12.641666 99.88,12.781 C100.085334,12.920334 100.188,13.0999989 100.188,13.32 L100.188,14.288 C100.437335,13.7746641 100.814997,13.3383351 101.321,12.979 C101.827003,12.6196649 102.380664,12.44 102.982,12.44 L103.686,12.44 C103.920668,12.44 104.125999,12.538999 104.302,12.737 C104.478001,12.935001 104.566,13.1733319 104.566,13.452 C104.566,13.7306681 104.478001,13.9726656 104.302,14.178 C104.125999,14.3833344 103.920668,14.486 103.686,14.486 L102.982,14.486 C102.277996,14.486 101.658336,14.7866637 101.123,15.388 C100.587664,15.9893363 100.32,16.7666619 100.32,17.72 L100.32,22.23 C100.32,22.4206676 100.202668,22.5966659 99.968,22.758 C99.7333322,22.9193341 99.4546683,23 99.132,23 C98.8093317,23 98.5416677,22.9193341 98.329,22.758 C98.1163323,22.5966659 98.01,22.4206676 98.01,22.23 Z M105.534,18.798 L105.534,16.774 C105.534,15.5859941 105.918996,14.5666709 106.689,13.716 C107.459004,12.8653291 108.386661,12.44 109.472,12.44 C110.117337,12.44 110.689331,12.6013317 111.188,12.924 C111.686669,13.2466683 112.067999,13.6426643 112.332,14.112 L112.332,7.116 C112.332,6.8959989 112.441999,6.71633403 112.662,6.577 C112.882001,6.43766597 113.160665,6.368 113.498,6.368 C113.835335,6.368 114.110332,6.43766597 114.323,6.577 C114.535668,6.71633403 114.642,6.8959989 114.642,7.116 L114.642,22.23 C114.642,22.4206676 114.532001,22.5966659 114.312,22.758 C114.091999,22.9193341 113.820668,23 113.498,23 C113.219332,23 112.973668,22.9193341 112.761,22.758 C112.548332,22.5966659 112.442,22.4206676 112.442,22.23 L112.442,21.46 C112.207332,21.9293357 111.807669,22.332665 111.243,22.67 C110.678331,23.007335 110.066003,23.176 109.406,23.176 C108.379328,23.176 107.477337,22.7323378 106.7,21.845 C105.922663,20.9576622 105.534,19.9420057 105.534,18.798 Z M107.844,18.798 C107.844,19.3993363 108.063998,19.938331 108.504,20.415 C108.944002,20.891669 109.464664,21.13 110.066,21.13 C110.638003,21.13 111.158664,20.9063356 111.628,20.459 C112.097336,20.0116644 112.332,19.6266683 112.332,19.304 L112.332,16.774 C112.332,16.09933 112.104669,15.5493355 111.65,15.124 C111.195331,14.6986645 110.67467,14.486 110.088,14.486 C109.486664,14.486 108.962336,14.7206643 108.515,15.19 C108.067664,15.6593357 107.844,16.1873304 107.844,16.774 L107.844,18.798 Z M116.688,18.798 L116.688,16.708 C116.688,15.5493275 117.135329,14.5483375 118.03,13.705 C118.924671,12.8616625 120.00266,12.44 121.264,12.44 C122.466673,12.44 123.496996,12.8249962 124.355,13.595 C125.213004,14.3650039 125.642,15.3366608 125.642,16.51 C125.642,16.9500022 125.590667,17.3056653 125.488,17.577 C125.385333,17.8483347 125.224001,18.0389994 125.004,18.149 C124.783999,18.2590005 124.578668,18.3286665 124.388,18.358 C124.197332,18.3873335 123.948002,18.402 123.64,18.402 L118.998,18.402 L118.998,18.908 C118.998,19.641337 119.261997,20.2243312 119.79,20.657 C120.318003,21.0896688 121.007329,21.306 121.858,21.306 C122.459336,21.306 123.027664,21.1666681 123.563,20.888 C124.098336,20.6093319 124.424666,20.47 124.542,20.47 C124.791335,20.47 125.003999,20.5873322 125.18,20.822 C125.356001,21.0566678 125.444,21.2839989 125.444,21.504 C125.444,21.8706685 125.092004,22.2409981 124.388,22.615 C123.683996,22.9890019 122.818672,23.176 121.792,23.176 C120.295993,23.176 119.071338,22.7726707 118.118,21.966 C117.164662,21.1593293 116.688,20.1033399 116.688,18.798 Z M118.998,16.972 L122.65,16.972 C122.972668,16.972 123.188999,16.9280004 123.299,16.84 C123.409001,16.7519996 123.464,16.5760013 123.464,16.312 C123.464,15.7253304 123.251335,15.2266687 122.826,14.816 C122.400665,14.4053313 121.87267,14.2 121.242,14.2 C120.625997,14.2 120.098002,14.3943314 119.658,14.783 C119.217998,15.1716686 118.998,15.6666637 118.998,16.268 L118.998,16.972 Z M127.512,22.23 L127.512,13.32 C127.512,13.0999989 127.618332,12.920334 127.831,12.781 C128.043668,12.641666 128.318665,12.572 128.656,12.572 C128.949335,12.572 129.194999,12.641666 129.393,12.781 C129.591001,12.920334 129.69,13.0999989 129.69,13.32 L129.69,14.112 C129.924668,13.6426643 130.302331,13.2466683 130.823,12.924 C131.343669,12.6013317 131.948663,12.44 132.638,12.44 C133.679339,12.44 134.577663,12.8653291 135.333,13.716 C136.088337,14.5666709 136.466,15.5859941 136.466,16.774 L136.466,22.23 C136.466,22.4646678 136.352334,22.651666 136.125,22.791 C135.897666,22.930334 135.622668,23 135.3,23 C135.006665,23 134.742668,22.930334 134.508,22.791 C134.273332,22.651666 134.156,22.4646678 134.156,22.23 L134.156,16.774 C134.156,16.1873304 133.936002,15.6593357 133.496,15.19 C133.055998,14.7206643 132.535336,14.486 131.934,14.486 C131.376664,14.486 130.885335,14.6949979 130.46,15.113 C130.034665,15.5310021 129.822,16.0846632 129.822,16.774 L129.822,22.23 C129.822,22.4206676 129.704668,22.5966659 129.47,22.758 C129.235332,22.9193341 128.964002,23 128.656,23 C128.333332,23 128.062001,22.9193341 127.842,22.758 C127.621999,22.5966659 127.512,22.4206676 127.512,22.23 Z" id="ColorfulGarden"></path>
                        </g>
                        <g id="check" transform="translate(0.000000, 1.000000)">
                            <circle id="Oval" fill="#FFBE8D" cx="25" cy="25" r="25"></circle>
                            <g transform="translate(12.000000, 17.000000)" fill="#111111" id="Path">
                                <path d="M25.090379,0.946058091 L25.090379,0.946058091 C25.5984236,1.4744537 25.5984236,2.30977867 25.090379,2.83817427 L10.2718726,18.2502723 C9.88909022,18.648388 9.25604726,18.6608181 8.85793159,18.2780357 C8.84849632,18.2689638 8.83924008,18.2597076 8.83016821,18.2502723 L0.9138322,10.016828 C0.403435511,9.48598615 0.403435511,8.64679393 0.9138322,8.11595205 L0.9138322,8.11595205 C1.39908961,7.61125646 2.20160508,7.59549871 2.70630067,8.08075612 C2.71826185,8.09225663 2.72999609,8.10399086 2.7414966,8.11595205 L9.55944282,15.2070078 L23.271137,0.946058091 C23.7541582,0.44368829 24.5529755,0.428003151 25.0553453,0.911024354 C25.0672513,0.922471862 25.0789315,0.934152025 25.090379,0.946058091 Z"></path>
                            </g>
                        </g>
                    </g>
                </g>
            </g>
        </g>
    </g>
</svg>