<?xml version="1.0" encoding="UTF-8"?>
<svg width="149px" height="70px" viewBox="0 0 149 70" version="1.1" xmlns="http://www.w3.org/2000/svg" xmlns:xlink="http://www.w3.org/1999/xlink">
    <!-- Generator: Sketch 53 (72520) - https://sketchapp.com -->
    <title>YOU</title>
    <desc>Created with Sketch.</desc>
    <defs>
        <path d="M259.378,16.548 C259.378,15.4333278 260.099993,14.4706707 261.544,13.66 C262.988007,12.8493293 264.444659,12.444 265.914,12.444 C267.282007,12.444 268.29533,13.1026601 268.954,14.42 L280.506,36.384 L292.134,14.42 C292.843337,13.1026601 293.831327,12.444 295.098,12.444 C296.567341,12.444 298.023993,12.8493293 299.468,13.66 C300.912007,14.4706707 301.634,15.4333278 301.634,16.548 C301.634,16.9533354 301.558001,17.2826654 301.406,17.536 L285.75,44.744 C285.547332,45.0480015 285.446,45.3773316 285.446,45.732 L285.446,64.884 C285.446,65.8466715 284.964672,66.6066639 284.002,67.164 C283.039329,67.7213361 281.874007,68 280.506,68 C279.18866,68 278.036005,67.7213361 277.048,67.164 C276.059995,66.6066639 275.566,65.8466715 275.566,64.884 L275.566,45.732 C275.566,45.2759977 275.490001,44.9466677 275.338,44.744 L259.606,17.536 C259.453999,17.1306646 259.378,16.8013346 259.378,16.548 Z M309.962,51.052 L309.962,29.848 C309.962,23.8186365 311.570651,19.4106806 314.788,16.624 C318.005349,13.8373194 322.32464,12.444 327.746,12.444 C333.16736,12.444 337.499317,13.8373194 340.742,16.624 C343.984683,19.4106806 345.606,23.8186365 345.606,29.848 L345.606,51.052 C345.606,57.0813635 343.984683,61.4893194 340.742,64.276 C337.499317,67.0626806 333.16736,68.456 327.746,68.456 C322.32464,68.456 318.005349,67.0626806 314.788,64.276 C311.570651,61.4893194 309.962,57.0813635 309.962,51.052 Z M319.842,51.052 C319.842,56.8786958 322.47664,59.792 327.746,59.792 C333.066027,59.792 335.726,56.8786958 335.726,51.052 L335.726,29.848 C335.726,24.0213042 333.066027,21.108 327.746,21.108 C322.47664,21.108 319.842,24.0213042 319.842,29.848 L319.842,51.052 Z M358.494,51.052 L358.494,15.484 C358.494,14.4706616 358.975328,13.7106692 359.938,13.204 C360.900671,12.6973308 362.065993,12.444 363.434,12.444 C364.802007,12.444 365.967328,12.6973308 366.93,13.204 C367.892671,13.7106692 368.374,14.4706616 368.374,15.484 L368.374,51.052 C368.374,56.8786958 371.160639,59.792 376.734,59.792 C382.307361,59.792 385.094,56.8786958 385.094,51.052 L385.094,15.484 C385.094,14.4706616 385.575328,13.7106692 386.538,13.204 C387.500671,12.6973308 388.665993,12.444 390.034,12.444 C391.402007,12.444 392.567328,12.6973308 393.53,13.204 C394.492671,13.7106692 394.974,14.4706616 394.974,15.484 L394.974,51.052 C394.974,57.0306966 393.314683,61.4259859 389.996,64.238 C386.677317,67.0500141 382.256694,68.456 376.734,68.456 C371.211306,68.456 366.790683,67.0626806 363.472,64.276 C360.153317,61.4893194 358.494,57.0813635 358.494,51.052 Z" id="path-1"></path>
        <filter x="-7.7%" y="-18.7%" width="115.5%" height="137.5%" filterUnits="objectBoundingBox" id="filter-2">
            <feMorphology radius="0.5" operator="dilate" in="SourceAlpha" result="shadowSpreadOuter1"></feMorphology>
            <feOffset dx="0" dy="0" in="shadowSpreadOuter1" result="shadowOffsetOuter1"></feOffset>
            <feGaussianBlur stdDeviation="3" in="shadowOffsetOuter1" result="shadowBlurOuter1"></feGaussianBlur>
            <feColorMatrix values="0 0 0 0 0   0 0 0 0 0   0 0 0 0 0  0 0 0 1 0" type="matrix" in="shadowBlurOuter1"></feColorMatrix>
        </filter>
    </defs>
    <g id="[Screens]" stroke="none" stroke-width="1" fill="none" fill-rule="evenodd">
        <g id="game-win" transform="translate(-644.000000, -165.000000)" fill-rule="nonzero">
            <g id="overlay_game_win" transform="translate(266.000000, 67.000000)">
                <g id="text" transform="translate(125.500000, 93.000000)">
                    <g id="YOU">
                        <use fill="black" fill-opacity="1" filter="url(#filter-2)" xlink:href="#path-1"></use>
                        <use fill="#FFFFFF" xlink:href="#path-1"></use>
                    </g>
                </g>
            </g>
        </g>
    </g>
</svg>