<?xml version="1.0" encoding="UTF-8"?>
<svg width="217px" height="96px" viewBox="0 0 217 96" version="1.1" xmlns="http://www.w3.org/2000/svg" xmlns:xlink="http://www.w3.org/1999/xlink">
    <!-- Generator: Sketch 53.2 (72643) - https://sketchapp.com -->
    <title>title_header_light</title>
    <desc>Created with Sketch.</desc>
    <defs>
        <linearGradient x1="50%" y1="0%" x2="50%" y2="100%" id="linearGradient-1">
            <stop stop-color="#0D720F" offset="0%"></stop>
            <stop stop-color="#08540A" offset="100%"></stop>
        </linearGradient>
        <linearGradient x1="50%" y1="0%" x2="50%" y2="100%" id="linearGradient-2">
            <stop stop-color="#118C16" offset="0%"></stop>
            <stop stop-color="#0C560E" offset="100%"></stop>
        </linearGradient>
        <linearGradient x1="50%" y1="0%" x2="50%" y2="100%" id="linearGradient-3">
            <stop stop-color="#0D720F" offset="0%"></stop>
            <stop stop-color="#08540A" offset="100%"></stop>
        </linearGradient>
        <linearGradient x1="50%" y1="0%" x2="50%" y2="100%" id="linearGradient-4">
            <stop stop-color="#118C16" offset="0%"></stop>
            <stop stop-color="#0C560E" offset="100%"></stop>
        </linearGradient>
        <linearGradient x1="50%" y1="0%" x2="50%" y2="100%" id="linearGradient-5">
            <stop stop-color="#0D720F" offset="0%"></stop>
            <stop stop-color="#08540A" offset="100%"></stop>
        </linearGradient>
        <linearGradient x1="50%" y1="0%" x2="50%" y2="100%" id="linearGradient-6">
            <stop stop-color="#118C16" offset="0%"></stop>
            <stop stop-color="#0C560E" offset="100%"></stop>
        </linearGradient>
        <linearGradient x1="50%" y1="0%" x2="50%" y2="100%" id="linearGradient-7">
            <stop stop-color="#0D720F" offset="0%"></stop>
            <stop stop-color="#08540A" offset="100%"></stop>
        </linearGradient>
        <linearGradient x1="50%" y1="0%" x2="50%" y2="100%" id="linearGradient-8">
            <stop stop-color="#118C16" offset="0%"></stop>
            <stop stop-color="#0C560E" offset="100%"></stop>
        </linearGradient>
        <linearGradient x1="50%" y1="0%" x2="50%" y2="100%" id="linearGradient-9">
            <stop stop-color="#0D720F" offset="0%"></stop>
            <stop stop-color="#08540A" offset="100%"></stop>
        </linearGradient>
        <linearGradient x1="50%" y1="0%" x2="50%" y2="100%" id="linearGradient-10">
            <stop stop-color="#118C16" offset="0%"></stop>
            <stop stop-color="#0C560E" offset="100%"></stop>
        </linearGradient>
        <linearGradient x1="50%" y1="0%" x2="50%" y2="100%" id="linearGradient-11">
            <stop stop-color="#0D720F" offset="0%"></stop>
            <stop stop-color="#08540A" offset="100%"></stop>
        </linearGradient>
        <linearGradient x1="50%" y1="0%" x2="50%" y2="100%" id="linearGradient-12">
            <stop stop-color="#118C16" offset="0%"></stop>
            <stop stop-color="#0C560E" offset="100%"></stop>
        </linearGradient>
        <linearGradient x1="50%" y1="0%" x2="50%" y2="100%" id="linearGradient-13">
            <stop stop-color="#0D720F" offset="0%"></stop>
            <stop stop-color="#064A07" offset="100%"></stop>
        </linearGradient>
        <linearGradient x1="50%" y1="0%" x2="50%" y2="100%" id="linearGradient-14">
            <stop stop-color="#118C16" offset="0%"></stop>
            <stop stop-color="#0C560E" offset="100%"></stop>
        </linearGradient>
        <linearGradient x1="50%" y1="0%" x2="50%" y2="100%" id="linearGradient-15">
            <stop stop-color="#0D720F" offset="0%"></stop>
            <stop stop-color="#08540A" offset="100%"></stop>
        </linearGradient>
        <linearGradient x1="50%" y1="0%" x2="50%" y2="100%" id="linearGradient-16">
            <stop stop-color="#0D720F" offset="0%"></stop>
            <stop stop-color="#08540A" offset="100%"></stop>
        </linearGradient>
        <linearGradient x1="50%" y1="0%" x2="50%" y2="100%" id="linearGradient-17">
            <stop stop-color="#118C16" offset="0%"></stop>
            <stop stop-color="#0C560E" offset="100%"></stop>
        </linearGradient>
        <linearGradient x1="50%" y1="15.2764682%" x2="50%" y2="60.4427083%" id="linearGradient-18">
            <stop stop-color="#FFFFFF" stop-opacity="0" offset="0%"></stop>
            <stop stop-color="#FFFFFF" offset="100%"></stop>
        </linearGradient>
    </defs>
    <g id="Symbols" stroke="none" stroke-width="1" fill="none" fill-rule="evenodd">
        <g id="header" transform="translate(-6.000000, -2.000000)">
            <g id="title_header_light">
                <g>
                    <g id="leaves" transform="translate(0.677632, 0.559211)" fill-rule="nonzero">
                        <g id="bunch-(rear)" opacity="0.878641183" transform="translate(175.776316, 34.578947)">
                            <g id="leaf" transform="translate(21.940659, 28.157772) rotate(-32.000000) translate(-21.940659, -28.157772) translate(12.940659, 1.657772)">
                                <path d="M0.62446834,25.6370629 C0.62446834,15.990472 4.21351689,7.20650492 8.79038156,0.622066539 C7.31384804,26.6103067 13.653898,32.2596067 9.5209881,52.2505607 C4.08730048,45.504218 0.62446834,36.2685094 0.62446834,25.6370629 Z" id="Path" fill="url(#linearGradient-1)"></path>
                                <path d="M17.6675259,27.2355644 C17.6675259,36.8821552 14.3047224,45.6661223 9.5209881,52.2505607 C12.5435836,30.9268765 5.9759721,21.9457507 8.79038156,0.622066539 C14.4696664,7.3684092 17.6675259,16.6041178 17.6675259,27.2355644 Z" id="Path" fill="url(#linearGradient-2)"></path>
                            </g>
                            <g id="leaf" transform="translate(27.814767, 30.696845) rotate(22.000000) translate(-27.814767, -30.696845) translate(18.814767, 4.196845)">
                                <path d="M0.62446834,25.6370629 C0.62446834,15.990472 4.21351689,7.20650492 8.79038156,0.622066539 C7.31384804,26.6103067 13.653898,32.2596067 9.5209881,52.2505607 C4.08730048,45.504218 0.62446834,36.2685094 0.62446834,25.6370629 Z" id="Path" fill="url(#linearGradient-1)"></path>
                                <path d="M17.6675259,27.2355644 C17.6675259,36.8821552 14.3047224,45.6661223 9.5209881,52.2505607 C12.5435836,30.9268765 5.9759721,21.9457507 8.79038156,0.622066539 C14.4696664,7.3684092 17.6675259,16.6041178 17.6675259,27.2355644 Z" id="Path" fill="url(#linearGradient-2)"></path>
                            </g>
                        </g>
                        <g id="bunch-(rear)" opacity="0.631812686" transform="translate(129.671053, 39.901316)">
                            <g id="leaf" transform="translate(17.614832, 28.501978) rotate(-18.000000) translate(-17.614832, -28.501978) translate(8.614832, 2.001978)">
                                <path d="M0.62446834,25.6370629 C0.62446834,15.990472 4.21351689,7.20650492 8.79038156,0.622066539 C7.31384804,26.6103067 13.653898,32.2596067 9.5209881,52.2505607 C4.08730048,45.504218 0.62446834,36.2685094 0.62446834,25.6370629 Z" id="Path" fill="url(#linearGradient-1)"></path>
                                <path d="M17.6675259,27.2355644 C17.6675259,36.8821552 14.3047224,45.6661223 9.5209881,52.2505607 C12.5435836,30.9268765 5.9759721,21.9457507 8.79038156,0.622066539 C14.4696664,7.3684092 17.6675259,16.6041178 17.6675259,27.2355644 Z" id="Path" fill="url(#linearGradient-2)"></path>
                            </g>
                            <g id="leaf" transform="translate(23.492398, 31.137635) rotate(22.000000) translate(-23.492398, -31.137635) translate(14.492398, 4.637635)">
                                <path d="M0.62446834,25.6370629 C0.62446834,15.990472 4.21351689,7.20650492 8.79038156,0.622066539 C7.31384804,26.6103067 13.653898,32.2596067 9.5209881,52.2505607 C4.08730048,45.504218 0.62446834,36.2685094 0.62446834,25.6370629 Z" id="Path" fill="url(#linearGradient-1)"></path>
                                <path d="M17.6675259,27.2355644 C17.6675259,36.8821552 14.3047224,45.6661223 9.5209881,52.2505607 C12.5435836,30.9268765 5.9759721,21.9457507 8.79038156,0.622066539 C14.4696664,7.3684092 17.6675259,16.6041178 17.6675259,27.2355644 Z" id="Path" fill="url(#linearGradient-2)"></path>
                            </g>
                        </g>
                        <g id="bunch-(rear)" opacity="0.631812686" transform="translate(86.447368, 37.019737)">
                            <g id="leaf" transform="translate(16.117730, 28.520275) rotate(-18.000000) translate(-16.117730, -28.520275) translate(8.617730, 2.020275)">
                                <path d="M0.528396288,25.6370629 C0.528396288,15.990472 3.56528353,7.20650492 7.43801517,0.622066539 C6.18864065,26.6103067 11.5532983,32.2596067 8.0562207,52.2505607 C3.45848502,45.504218 0.528396288,36.2685094 0.528396288,25.6370629 Z" id="Path" fill="url(#linearGradient-3)"></path>
                                <path d="M14.949445,27.2355644 C14.949445,36.8821552 12.1039959,45.6661223 8.0562207,52.2505607 C10.6138015,30.9268765 5.05659178,21.9457507 7.43801517,0.622066539 C12.2435639,7.3684092 14.949445,16.6041178 14.949445,27.2355644 Z" id="Path" fill="url(#linearGradient-4)"></path>
                            </g>
                            <g id="leaf" transform="translate(19.133775, 28.297838) rotate(14.000000) translate(-19.133775, -28.297838) translate(10.133775, 1.797838)">
                                <path d="M0.62446834,25.6370629 C0.62446834,15.990472 4.21351689,7.20650492 8.79038156,0.622066539 C7.31384804,26.6103067 13.653898,32.2596067 9.5209881,52.2505607 C4.08730048,45.504218 0.62446834,36.2685094 0.62446834,25.6370629 Z" id="Path" fill="url(#linearGradient-1)"></path>
                                <path d="M17.6675259,27.2355644 C17.6675259,36.8821552 14.3047224,45.6661223 9.5209881,52.2505607 C12.5435836,30.9268765 5.9759721,21.9457507 8.79038156,0.622066539 C14.4696664,7.3684092 17.6675259,16.6041178 17.6675259,27.2355644 Z" id="Path" fill="url(#linearGradient-2)"></path>
                            </g>
                        </g>
                        <g id="bunch-(rear)" opacity="0.469005766" transform="translate(25.934211, 42.782895)">
                            <g id="leaf" transform="translate(17.104045, 28.433872) rotate(-18.000000) translate(-17.104045, -28.433872) translate(8.604045, 1.933872)">
                                <path d="M0.576432314,25.6370629 C0.576432314,15.990472 3.88940021,7.20650492 8.11419836,0.622066539 C6.75124434,26.6103067 12.6035982,32.2596067 8.7886044,52.2505607 C3.77289275,45.504218 0.576432314,36.2685094 0.576432314,25.6370629 Z" id="Path" fill="url(#linearGradient-5)"></path>
                                <path d="M16.3084854,27.2355644 C16.3084854,36.8821552 13.2043592,45.6661223 8.7886044,52.2505607 C11.5786926,30.9268765 5.51628194,21.9457507 8.11419836,0.622066539 C13.3566151,7.3684092 16.3084854,16.6041178 16.3084854,27.2355644 Z" id="Path" fill="url(#linearGradient-6)"></path>
                            </g>
                            <g id="leaf" transform="translate(20.125469, 28.365481) rotate(14.000000) translate(-20.125469, -28.365481) translate(10.125469, 1.865481)">
                                <path d="M0.672504366,25.6370629 C0.672504366,15.990472 4.53763358,7.20650492 9.46656476,0.622066539 C7.87645173,26.6103067 14.7041979,32.2596067 10.2533718,52.2505607 C4.40170821,45.504218 0.672504366,36.2685094 0.672504366,25.6370629 Z" id="Path" fill="url(#linearGradient-7)"></path>
                                <path d="M19.0265663,27.2355644 C19.0265663,36.8821552 15.4050857,45.6661223 10.2533718,52.2505607 C13.5084747,30.9268765 6.43566226,21.9457507 9.46656476,0.622066539 C15.5827176,7.3684092 19.0265663,16.6041178 19.0265663,27.2355644 Z" id="Path" fill="url(#linearGradient-8)"></path>
                            </g>
                        </g>
                        <g id="bunch" transform="translate(140.756579, 12.967105)">
                            <g id="leaf" transform="translate(29.689608, 31.920071) rotate(4.000000) translate(-29.689608, -31.920071) translate(19.189608, 1.420071)">
                                <path d="M0.720540392,29.5812264 C0.720540392,18.4505447 4.86175026,8.31519798 10.142748,0.717769083 C8.43905543,30.7042 15.7544977,37.2226231 10.9857555,60.2891085 C4.71611594,52.5048669 0.720540392,41.84828 0.720540392,29.5812264 Z" id="Path" fill="url(#linearGradient-9)"></path>
                                <path d="M20.3856068,31.4256512 C20.3856068,42.5563329 16.505449,52.6916796 10.9857555,60.2891085 C14.4733657,35.6848575 6.89535242,25.3220201 10.142748,0.717769083 C16.6957689,8.50201062 20.3856068,19.1585975 20.3856068,31.4256512 Z" id="Path" fill="url(#linearGradient-10)"></path>
                            </g>
                            <g id="leaf" transform="translate(41.130036, 39.634437) rotate(22.000000) translate(-41.130036, -39.634437) translate(33.630036, 17.134437)">
                                <path d="M0.528396288,21.6928993 C0.528396288,13.5303994 3.56528353,6.09781186 7.43801517,0.526363994 C6.18864065,22.5164133 11.5532983,27.2965903 8.0562207,44.2120129 C3.45848502,38.5035691 0.528396288,30.6887387 0.528396288,21.6928993 Z" id="Path" fill="url(#linearGradient-11)"></path>
                                <path d="M14.949445,23.0454775 C14.949445,31.2079775 12.1039959,38.640565 8.0562207,44.2120129 C10.6138015,26.1688955 5.05659178,18.5694814 7.43801517,0.526363994 C12.2435639,6.23480779 14.949445,14.0496382 14.949445,23.0454775 Z" id="Path" fill="url(#linearGradient-12)"></path>
                            </g>
                            <g id="leaf" transform="translate(16.615489, 32.376668) rotate(-17.000000) translate(-16.615489, -32.376668) translate(7.615489, 5.876668)">
                                <path d="M0.62446834,25.6370629 C0.62446834,15.990472 4.21351689,7.20650492 8.79038156,0.622066539 C7.31384804,26.6103067 13.653898,32.2596067 9.5209881,52.2505607 C4.08730048,45.504218 0.62446834,36.2685094 0.62446834,25.6370629 Z" id="Path" fill="url(#linearGradient-1)"></path>
                                <path d="M17.6675259,27.2355644 C17.6675259,36.8821552 14.3047224,45.6661223 9.5209881,52.2505607 C12.5435836,30.9268765 5.9759721,21.9457507 8.79038156,0.622066539 C14.4696664,7.3684092 17.6675259,16.6041178 17.6675259,27.2355644 Z" id="Path" fill="url(#linearGradient-2)"></path>
                            </g>
                        </g>
                        <g id="bunch" transform="translate(90.769737, 0.000000)">
                            <g id="leaf" transform="translate(33.535567, 31.962751) rotate(-4.000000) translate(-33.535567, -31.962751) translate(23.035567, 1.462751)">
                                <path d="M0.720540392,29.5812264 C0.720540392,18.4505447 4.86175026,8.31519798 10.142748,0.717769083 C8.43905543,30.7042 15.7544977,37.2226231 10.9857555,60.2891085 C4.71611594,52.5048669 0.720540392,41.84828 0.720540392,29.5812264 Z" id="Path" fill="url(#linearGradient-9)"></path>
                                <path d="M20.3856068,31.4256512 C20.3856068,42.5563329 16.505449,52.6916796 10.9857555,60.2891085 C14.4733657,35.6848575 6.89535242,25.3220201 10.142748,0.717769083 C16.6957689,8.50201062 20.3856068,19.1585975 20.3856068,31.4256512 Z" id="Path" fill="url(#linearGradient-10)"></path>
                            </g>
                            <g id="leaf" transform="translate(44.615838, 35.692210) rotate(10.000000) translate(-44.615838, -35.692210) translate(34.615838, 7.192210)">
                                <path d="M0.672504366,27.6091446 C0.672504366,17.2205083 4.53763358,7.76085145 9.46656476,0.669917811 C7.87645173,28.6572533 14.7041979,34.7411149 10.2533718,56.2698346 C4.40170821,49.0045425 0.672504366,39.0583947 0.672504366,27.6091446 Z" id="Path" fill="url(#linearGradient-13)"></path>
                                <path d="M19.0265663,29.3306078 C19.0265663,39.719244 15.4050857,49.1789009 10.2533718,56.2698346 C13.5084747,33.305867 6.43566226,23.6338854 9.46656476,0.669917811 C15.5827176,7.93520991 19.0265663,17.8813577 19.0265663,29.3306078 Z" id="Path" fill="url(#linearGradient-14)"></path>
                            </g>
                            <g id="leaf" transform="translate(21.940659, 46.888035) rotate(-32.000000) translate(-21.940659, -46.888035) translate(12.940659, 20.388035)">
                                <path d="M0.62446834,25.6370629 C0.62446834,15.990472 4.21351689,7.20650492 8.79038156,0.622066539 C7.31384804,26.6103067 13.653898,32.2596067 9.5209881,52.2505607 C4.08730048,45.504218 0.62446834,36.2685094 0.62446834,25.6370629 Z" id="Path" fill="url(#linearGradient-1)"></path>
                                <path d="M17.6675259,27.2355644 C17.6675259,36.8821552 14.3047224,45.6661223 9.5209881,52.2505607 C12.5435836,30.9268765 5.9759721,21.9457507 8.79038156,0.622066539 C14.4696664,7.3684092 17.6675259,16.6041178 17.6675259,27.2355644 Z" id="Path" fill="url(#linearGradient-2)"></path>
                            </g>
                            <g id="leaf" transform="translate(50.980132, 50.788811) rotate(42.000000) translate(-50.980132, -50.788811) translate(41.980132, 24.288811)">
                                <path d="M0.62446834,25.6370629 C0.62446834,15.990472 4.21351689,7.20650492 8.79038156,0.622066539 C7.31384804,26.6103067 13.653898,32.2596067 9.5209881,52.2505607 C4.08730048,45.504218 0.62446834,36.2685094 0.62446834,25.6370629 Z" id="Path" fill="url(#linearGradient-1)"></path>
                                <path d="M17.6675259,27.2355644 C17.6675259,36.8821552 14.3047224,45.6661223 9.5209881,52.2505607 C12.5435836,30.9268765 5.9759721,21.9457507 8.79038156,0.622066539 C14.4696664,7.3684092 17.6675259,16.6041178 17.6675259,27.2355644 Z" id="Path" fill="url(#linearGradient-2)"></path>
                            </g>
                        </g>
                        <g id="bunch" transform="translate(44.664474, 13.967105)">
                            <g id="leaf" transform="translate(32.065444, 32.450763) rotate(-12.000000) translate(-32.065444, -32.450763) translate(21.565444, 1.950763)">
                                <path d="M0.720540392,29.5812264 C0.720540392,18.4505447 4.86175026,8.31519798 10.142748,0.717769083 C8.43905543,30.7042 15.7544977,37.2226231 10.9857555,60.2891085 C4.71611594,52.5048669 0.720540392,41.84828 0.720540392,29.5812264 Z" id="Path" fill="url(#linearGradient-9)"></path>
                                <path d="M20.3856068,31.4256512 C20.3856068,42.5563329 16.505449,52.6916796 10.9857555,60.2891085 C14.4733657,35.6848575 6.89535242,25.3220201 10.142748,0.717769083 C16.6957689,8.50201062 20.3856068,19.1585975 20.3856068,31.4256512 Z" id="Path" fill="url(#linearGradient-10)"></path>
                            </g>
                            <g id="leaf" transform="translate(41.749493, 30.366976) rotate(14.000000) translate(-41.749493, -30.366976) translate(31.749493, 1.866976)">
                                <path d="M0.672504366,27.6091446 C0.672504366,17.2205083 4.53763358,7.76085145 9.46656476,0.669917811 C7.87645173,28.6572533 14.7041979,34.7411149 10.2533718,56.2698346 C4.40170821,49.0045425 0.672504366,39.0583947 0.672504366,27.6091446 Z" id="Path" fill="url(#linearGradient-15)"></path>
                                <path d="M19.0265663,29.3306078 C19.0265663,39.719244 15.4050857,49.1789009 10.2533718,56.2698346 C13.5084747,33.305867 6.43566226,23.6338854 9.46656476,0.669917811 C15.5827176,7.93520991 19.0265663,17.8813577 19.0265663,29.3306078 Z" id="Path" fill="url(#linearGradient-14)"></path>
                            </g>
                            <g id="leaf" transform="translate(20.495495, 44.405973) rotate(-26.000000) translate(-20.495495, -44.405973) translate(11.495495, 17.905973)">
                                <path d="M0.62446834,25.6370629 C0.62446834,15.990472 4.21351689,7.20650492 8.79038156,0.622066539 C7.31384804,26.6103067 13.653898,32.2596067 9.5209881,52.2505607 C4.08730048,45.504218 0.62446834,36.2685094 0.62446834,25.6370629 Z" id="Path" fill="url(#linearGradient-1)"></path>
                                <path d="M17.6675259,27.2355644 C17.6675259,36.8821552 14.3047224,45.6661223 9.5209881,52.2505607 C12.5435836,30.9268765 5.9759721,21.9457507 8.79038156,0.622066539 C14.4696664,7.3684092 17.6675259,16.6041178 17.6675259,27.2355644 Z" id="Path" fill="url(#linearGradient-2)"></path>
                            </g>
                        </g>
                        <g id="bunch" transform="translate(0.000000, 14.407895)">
                            <g id="leaf" transform="translate(16.283765, 30.901333) rotate(-11.000000) translate(-16.283765, -30.901333) translate(5.783765, 2.401333)">
                                <path d="M0.720540392,27.7157436 C0.720540392,17.2869968 4.86175026,7.79081613 10.142748,0.672504366 C8.43905543,28.7678991 15.7544977,34.8752505 10.9857555,56.4870926 C4.71611594,49.1937492 0.720540392,39.2091993 0.720540392,27.7157436 Z" id="Path" fill="url(#linearGradient-16)"></path>
                                <path d="M20.3856068,29.4438534 C20.3856068,39.8726002 16.505449,49.3687809 10.9857555,56.4870926 C14.4733657,33.434461 6.89535242,23.7251359 10.142748,0.672504366 C16.6957689,7.96584779 20.3856068,17.9503977 20.3856068,29.4438534 Z" id="Path" fill="url(#linearGradient-17)"></path>
                            </g>
                            <g id="leaf" transform="translate(26.359701, 37.915864) rotate(19.000000) translate(-26.359701, -37.915864) translate(17.359701, 11.415864)">
                                <path d="M0.62446834,25.6370629 C0.62446834,15.990472 4.21351689,7.20650492 8.79038156,0.622066539 C7.31384804,26.6103067 13.653898,32.2596067 9.5209881,52.2505607 C4.08730048,45.504218 0.62446834,36.2685094 0.62446834,25.6370629 Z" id="Path" fill="url(#linearGradient-1)"></path>
                                <path d="M17.6675259,27.2355644 C17.6675259,36.8821552 14.3047224,45.6661223 9.5209881,52.2505607 C12.5435836,30.9268765 5.9759721,21.9457507 8.79038156,0.622066539 C14.4696664,7.3684092 17.6675259,16.6041178 17.6675259,27.2355644 Z" id="Path" fill="url(#linearGradient-2)"></path>
                            </g>
                        </g>
                    </g>
                    <rect id="gradient" fill="url(#linearGradient-18)" fill-rule="nonzero" x="6.44078947" y="17.8486842" width="216.118421" height="79.2434211"></rect>
                    <path d="M7.64335159,54.8655234 L7.64335159,81.3704512 C7.64335159,81.7025295 7.37414889,81.9717322 7.04207053,81.9717322 C6.70999217,81.9717322 6.44078947,81.7025295 6.44078947,81.3704512 L6.44078947,54.8655234 C6.44078947,54.533445 6.70999217,54.2642423 7.04207053,54.2642423 C7.37414889,54.2642423 7.64335159,54.533445 7.64335159,54.8655234 Z M23.5034002,54.8679576 L11.0135422,67.1275935 C10.8162812,67.3212184 10.8133335,67.6380942 11.0069585,67.8353552 C11.0091022,67.8375391 11.0112659,67.8397034 11.0134493,67.8418476 L24.7862903,81.3678569 C24.9251608,81.5042386 24.9271783,81.7273746 24.7907966,81.8662451 C24.7245298,81.9337212 24.6339238,81.9717322 24.5393494,81.9717322 C23.9869912,81.9717322 23.4567095,81.7548857 23.0626179,81.3678569 L9.47162307,68.0204348 C9.17580711,67.7299204 9.17150939,67.2546057 9.46202385,66.9587897 C9.46524022,66.9555146 9.46848657,66.9522691 9.47176248,66.9490536 L21.7797279,54.8679576 C22.1739311,54.4810207 22.704243,54.2642423 23.2566164,54.2642423 C23.4511848,54.2642423 23.6089136,54.4219712 23.6089136,54.6165395 C23.6089136,54.7111106 23.5708912,54.8017107 23.5034002,54.8679576 Z M29.5423157,59.0140977 C29.874394,59.0140977 30.1435967,59.2833004 30.1435967,59.6153788 L30.1435967,81.3704512 C30.1435967,81.7025295 29.874394,81.9717322 29.5423157,81.9717322 C29.2102373,81.9717322 28.9410346,81.7025295 28.9410346,81.3704512 L28.9410346,59.6153788 C28.9410346,59.2833004 29.2102373,59.0140977 29.5423157,59.0140977 Z M36.1041923,64.3389829 C36.1041923,62.1859158 36.6567133,60.6321794 37.761772,59.677727 C38.8668308,58.7232746 40.6597052,58.2460556 43.1404493,58.2460556 C44.8769701,58.2460556 46.2751867,58.6899802 47.335141,59.577843 C47.9791855,60.117322 48.673184,61.2898509 49.4171366,63.0954298 L49.4171569,63.0954214 C49.5482049,63.413476 49.4463263,63.7799051 49.1699172,63.984674 L47.1553924,65.4770706 C46.7228965,65.7974714 46.1988937,65.9704225 45.6606471,65.9704225 C45.5100045,65.9704225 45.3878846,65.8483025 45.3878846,65.6976599 C45.3878846,65.6110749 45.428994,65.5296326 45.4986555,65.4782104 L48.4852984,63.273553 C48.0117018,61.786383 47.3295074,60.7431599 46.4386948,60.1438526 C45.5478821,59.5445453 44.448478,59.2448961 43.1404493,59.2448961 C42.2383605,59.2448961 41.4772346,59.3003867 40.8570486,59.4113695 C40.2368626,59.5223524 39.6166858,59.7387657 38.9964998,60.0606159 C38.3763138,60.3824661 37.9083623,60.8985286 37.5926312,61.6088187 C37.2769002,62.3191089 37.119037,63.2291545 37.119037,64.3389829 C37.119037,65.3156319 37.5757126,66.181285 38.4890775,66.9359683 C39.4024423,67.6906516 40.5131224,68.3343424 41.8211511,68.8670601 C43.1291798,69.3997777 44.4428268,69.9435854 45.7621316,70.4984996 C47.0814364,71.0534138 48.1977545,71.7636933 49.1111193,72.6293594 C50.0244842,73.4950256 50.4811598,74.4938561 50.4811598,75.6258811 C50.4811598,77.8455379 49.9230007,79.4991573 48.8066659,80.5867891 C47.6903311,81.674421 45.7790592,82.2182287 43.072793,82.2182287 C40.8626755,82.2182287 39.1261808,81.7798531 37.8632565,80.9030887 C37.0857885,80.3633442 36.285889,79.1627423 35.463558,77.3012829 C35.3496504,77.0434204 35.4663416,76.7420383 35.7242014,76.6281244 C35.7268188,76.626968 35.729446,76.6258338 35.7320825,76.6247216 C35.99121,76.5154183 36.2899123,76.6365283 36.3997498,76.8954298 C37.1440934,78.6498808 37.8518043,79.7416094 38.5229056,80.1706056 C39.6166882,80.8697975 41.1333022,81.2193882 43.072793,81.2193882 C45.237806,81.2193882 46.8446274,80.8087578 47.8933056,79.9874848 C48.9419838,79.1662118 49.466315,77.7123584 49.466315,75.6258811 C49.466315,74.6492321 49.0096394,73.783579 48.0962746,73.0288957 C47.1829097,72.2742124 46.0665916,71.6305216 44.7472868,71.0978039 C43.4279821,70.5650863 42.114335,70.0212786 40.8063063,69.4663644 C39.4982777,68.9114502 38.3875975,68.2011707 37.4742327,67.3355045 C36.5608678,66.4698384 36.1041923,65.4710078 36.1041923,64.3389829 Z M54.8919149,64.3389829 C54.8919149,62.1859158 55.4445189,60.6321794 56.5497435,59.677727 C57.6549681,58.7232746 59.4481117,58.2460556 61.9292282,58.2460556 C63.6660097,58.2460556 65.0644362,58.6899802 66.1245496,59.577843 C66.7686908,60.117322 67.4627935,61.2898509 68.2068577,63.0954298 L68.206822,63.0954445 C68.3378896,63.4134987 68.2360036,63.7799408 67.9595741,63.9846941 L65.9448094,65.4770443 C65.512223,65.7974642 64.988135,65.9704225 64.4498043,65.9704225 C64.2991573,65.9704225 64.1770338,65.8482989 64.1770338,65.6976519 C64.1770338,65.6110574 64.2181509,65.5296071 64.2878237,65.4781843 L67.2748796,63.273553 C66.8012119,61.786383 66.1189151,60.7431599 65.2279688,60.1438526 C64.3370224,59.5445453 63.2374532,59.2448961 61.9292282,59.2448961 C61.027004,59.2448961 60.2657638,59.3003867 59.6454847,59.4113695 C59.0252056,59.5223524 58.4049358,59.7387657 57.7846566,60.0606159 C57.1643775,60.3824661 56.6963558,60.8985286 56.3805773,61.6088187 C56.0647989,62.3191089 55.906912,63.2291545 55.906912,64.3389829 C55.906912,65.3156319 56.3636561,66.181285 57.2771581,66.9359683 C58.1906601,67.6906516 59.3015069,68.3343424 60.6097319,68.8670601 C61.917957,69.3997777 63.2318012,69.9435854 64.551304,70.4984996 C65.8708069,71.0534138 66.9872925,71.7636933 67.9007945,72.6293594 C68.8142965,73.4950256 69.2710406,74.4938561 69.2710406,75.6258811 C69.2710406,77.8455379 68.7127978,79.4991573 67.5962954,80.5867891 C66.479793,81.674421 64.5682342,82.2182287 61.8615617,82.2182287 C59.6511125,82.2182287 57.914357,81.7798531 56.6512432,80.9030887 C55.8736662,80.3633496 55.0736547,79.1627662 54.251209,77.3013384 C54.1372774,77.0434772 54.2539547,76.7420793 54.5118156,76.6281471 C54.5144504,76.6269829 54.5170951,76.625841 54.5197493,76.6247216 C54.778947,76.5154051 55.0777186,76.6365424 55.1875984,76.8955018 C55.9319965,78.6499183 56.6398008,79.7416167 57.3109913,80.1706056 C58.4049381,80.8697975 59.9217798,81.2193882 61.8615617,81.2193882 C64.0268997,81.2193882 65.6339624,80.8087578 66.682798,79.9874848 C67.7316336,79.1662118 68.2560435,77.7123584 68.2560435,75.6258811 C68.2560435,74.6492321 67.7992994,73.783579 66.8857974,73.0288957 C65.9722954,72.2742124 64.8558098,71.6305216 63.5363069,71.0978039 C62.2168041,70.5650863 60.9029599,70.0212786 59.5947348,69.4663644 C58.2865098,68.9114502 57.1756629,68.2011707 56.262161,67.3355045 C55.348659,66.4698384 54.8919149,65.4710078 54.8919149,64.3389829 Z M103.135839,54.8579743 C103.135839,55.1858834 102.870017,55.4517062 102.542107,55.4517062 L94.2162542,55.4517062 C93.9398441,55.4517062 93.7157694,55.6757809 93.7157694,55.952191 L93.7157694,81.3704512 C93.7157694,81.7025295 93.4465667,81.9717322 93.1144884,81.9717322 C92.78241,81.9717322 92.5132073,81.7025295 92.5132073,81.3704512 L92.5132073,55.952191 C92.5132073,55.6757809 92.2891327,55.4517062 92.0127225,55.4517062 L83.6868693,55.4517062 C83.3589602,55.4517062 83.0931374,55.1858834 83.0931374,54.8579743 C83.0931374,54.5300652 83.3589602,54.2642423 83.6868693,54.2642423 L102.542107,54.2642423 C102.870017,54.2642423 103.135839,54.5300652 103.135839,54.8579743 Z M121.066348,81.9717322 C120.73427,81.9717322 120.465067,81.7025295 120.465067,81.3704512 L120.465067,70.9933998 C120.465067,70.7169896 120.240993,70.492915 119.964583,70.492915 L108.939931,70.492915 C108.663521,70.492915 108.439446,70.7169896 108.439446,70.9933998 L108.439446,81.3704512 C108.439446,81.7025295 108.170244,81.9717322 107.838165,81.9717322 C107.506087,81.9717322 107.236884,81.7025295 107.236884,81.3704512 L107.236884,59.6153788 C107.236884,59.2833004 107.506087,59.0140977 107.838165,59.0140977 C108.170244,59.0140977 108.439446,59.2833004 108.439446,59.6153788 L108.439446,68.8049664 C108.439446,69.0813765 108.663521,69.3054511 108.939931,69.3054511 L119.964583,69.3054511 C120.240993,69.3054511 120.465067,69.0813765 120.465067,68.8049664 L120.465067,59.6153788 C120.465067,59.2833004 120.73427,59.0140977 121.066348,59.0140977 C121.398427,59.0140977 121.66763,59.2833004 121.66763,59.6153788 L121.66763,81.3704512 C121.66763,81.7025295 121.398427,81.9717322 121.066348,81.9717322 Z M144.03463,79.9749321 C141.638113,81.570013 139.39766,82.3675535 137.313271,82.3675535 C133.972804,82.3675535 131.581065,81.4307858 130.137983,79.5572224 C128.694902,77.6836589 127.973371,74.6622534 127.973371,70.492915 C127.973371,66.3235766 128.694902,63.302171 130.137983,61.4286076 C131.581065,59.5550441 133.972804,58.6182765 137.313271,58.6182765 C140.651164,58.6182765 143.142172,59.6730651 144.786295,61.7826424 L144.786309,61.7826317 C145.036064,62.1030938 144.98556,62.5640962 144.672346,62.8228831 L136.115372,69.8929067 C135.645958,70.2807503 135.056075,70.492915 134.447164,70.492915 C134.260516,70.492915 134.109207,70.3416065 134.109207,70.1549581 C134.109207,70.0539711 134.154369,69.9582756 134.232324,69.8940778 L143.646764,62.1410859 C142.47092,60.5841811 140.359777,59.8057403 137.313271,59.8057403 C135.977084,59.8057403 134.854704,59.9442764 133.946097,60.2213527 C133.03749,60.4984289 132.202385,61.0129915 131.440759,61.7650557 C130.679132,62.5171199 130.111262,63.6122145 129.737129,65.0503723 C129.362997,66.4885302 129.175934,68.3026929 129.175934,70.492915 C129.175934,72.683137 129.362997,74.4972998 129.737129,75.9354576 C130.111262,77.3736155 130.679132,78.4687101 131.440759,79.2207743 C132.202385,79.9728385 133.03749,80.487401 133.946097,80.7644773 C134.854704,81.0415536 135.977084,81.1800896 137.313271,81.1800896 C139.368988,81.1800896 141.32602,80.5167669 143.184366,79.1901214 L143.184373,79.1901315 C143.460125,78.9932763 143.835579,79.0142382 144.087704,79.2405654 C144.279136,79.41241 144.295016,79.7069045 144.123171,79.8983371 C144.096998,79.9274933 144.067251,79.9532308 144.034635,79.9749397 Z M161.469351,61.1119505 C161.469351,58.5522934 162.124073,56.7051459 163.433536,55.5704526 C164.742999,54.4357592 166.867504,53.8684211 169.807115,53.8684211 C171.864843,53.8684211 173.521689,54.3961775 174.777705,55.4517062 C175.55335,56.1035414 176.390138,57.5327687 177.288072,59.7393882 L177.288032,59.7394044 C177.417052,60.0564649 177.315246,60.420653 177.040511,60.6248459 L174.563795,62.4656361 C174.05196,62.846051 173.4312,63.0514748 172.793477,63.0514748 C172.614502,63.0514748 172.469413,62.9063862 172.469413,62.7274103 C172.469413,62.6247181 172.518086,62.5281033 172.600612,62.4669864 L176.140609,59.8453224 C175.227556,57.8398303 174.419167,56.5995903 173.715442,56.1246024 C172.659854,55.4121205 171.357092,55.0558849 169.807115,55.0558849 C168.738165,55.0558849 167.836253,55.1218545 167.10135,55.2537955 C166.366447,55.3857366 165.631556,55.6430179 164.896653,56.0256471 C164.16175,56.4082762 163.607241,57.0217931 163.233109,57.866216 C162.858976,58.710639 162.671913,59.7925397 162.671913,61.1119505 C162.671913,62.2730321 163.21306,63.3021572 164.295372,64.1993566 C165.377683,65.096556 166.693807,65.8618028 168.243784,66.49512 C169.793761,67.1284372 171.350395,67.7749389 172.913734,68.4346443 C174.477072,69.0943497 175.799877,69.93876 176.882189,70.9679005 C177.9645,71.997041 178.505648,73.184493 178.505648,74.5302921 C178.505648,77.1691138 177.844245,79.1350065 176.52142,80.4280292 C175.198595,81.7210519 172.933792,82.3675535 169.726944,82.3675535 C167.108018,82.3675535 165.050321,81.846394 163.553792,80.8040594 C162.632338,80.1622659 161.684294,78.7345168 160.709659,76.5208122 L160.709648,76.5208171 C160.574654,76.2142041 160.71378,75.8562112 161.020393,75.7212177 C161.023057,75.7200445 161.02573,75.7188906 161.028411,75.7177559 C161.335223,75.5879163 161.689198,75.7313801 161.819038,76.0381913 C161.819063,76.0382511 161.819088,76.0383109 161.819114,76.0383707 C162.701283,78.1248542 163.540069,79.4231462 164.335457,79.9332526 C165.631558,80.7644815 167.428703,81.1800896 169.726944,81.1800896 C172.292423,81.1800896 174.19646,80.6919149 175.439114,79.7155509 C176.681768,78.7391868 177.303085,77.0107845 177.303085,74.5302921 C177.303085,73.3692105 176.761938,72.3400855 175.679627,71.4428861 C174.597315,70.5456867 173.27451,69.7804398 171.711172,69.1471226 C170.147833,68.5138054 168.591199,67.8673038 167.041222,67.2075983 C165.491245,66.5478929 164.175121,65.7034826 163.09281,64.6743421 C162.010498,63.6452016 161.469351,62.4577496 161.469351,61.1119505 Z M184.330365,81.3704512 L184.330365,59.6153788 C184.330365,59.2833004 184.599567,59.0140977 184.931646,59.0140977 C185.263724,59.0140977 185.532927,59.2833004 185.532927,59.6153788 L185.532927,81.3704512 C185.532927,81.7025295 185.263724,81.9717322 184.931646,81.9717322 C184.599567,81.9717322 184.330365,81.7025295 184.330365,81.3704512 Z M198.546747,81.3681844 L187.36213,70.3957063 C187.066159,70.1053494 187.061609,69.630037 187.351965,69.3340664 C187.355388,69.3305782 187.358844,69.3271234 187.362333,69.3237027 L197.263786,59.6174124 C197.658268,59.2307055 198.188656,59.0140977 198.741067,59.0140977 C198.935455,59.0140977 199.093037,59.17168 199.093037,59.3660675 C199.093037,59.4606302 199.054986,59.5512153 198.987458,59.6174124 L188.903781,69.5023354 C188.706394,69.6958319 188.70324,70.0127057 188.896736,70.2100927 C188.899017,70.2124191 188.90132,70.2147231 188.903646,70.2170045 L200.27042,81.3681844 C200.409257,81.5043885 200.411392,81.7273539 200.275188,81.8661914 C200.208962,81.9336979 200.118368,81.9717322 200.0238,81.9717322 C199.471411,81.9717322 198.941067,81.7550252 198.546747,81.3681844 Z M208.022737,59.0140977 L221.803303,59.0140977 C222.217918,59.0140977 222.55403,59.3502097 222.55403,59.7648249 C222.55403,59.8665438 222.533358,59.9672018 222.493271,60.0606882 L213.542239,80.934948 C213.528877,80.9661102 213.521986,80.9996628 213.521986,81.0335691 L213.521986,89.2868768 C213.521986,89.6189552 213.252784,89.8881579 212.920705,89.8881579 C212.588627,89.8881579 212.319424,89.6189552 212.319424,89.2868768 L212.319424,81.0335691 C212.319424,80.9996628 212.312534,80.9661102 212.299171,80.934948 L203.152118,59.6035562 C203.060088,59.388937 203.159466,59.1403485 203.374085,59.0483183 C203.426738,59.0257402 203.483431,59.0140977 203.540721,59.0140977 C203.929916,59.0140977 204.281771,59.2457297 204.435621,59.6032256 L212.690704,78.7852833 C212.745337,78.9122317 212.892537,78.9708551 213.019486,78.9162223 C213.078305,78.8909093 213.125182,78.8440112 213.150469,78.7851811 L220.838141,60.8996847 C220.947293,60.6457393 220.829916,60.3513902 220.57597,60.2422376 C220.513536,60.2154015 220.44629,60.2015616 220.378332,60.2015616 L208.022737,60.2015616 C207.694828,60.2015616 207.429005,59.9357388 207.429005,59.6078297 C207.429005,59.2799206 207.694828,59.0140977 208.022737,59.0140977 Z" id="KISS-THE-SKY" stroke="#222222" stroke-width="0.624342105" fill="#222222"></path>
                </g>
            </g>
        </g>
    </g>
</svg>