<?xml version="1.0" encoding="UTF-8"?>
<svg width="18px" height="13px" viewBox="0 0 18 13" version="1.1" xmlns="http://www.w3.org/2000/svg" xmlns:xlink="http://www.w3.org/1999/xlink">
    <!-- Generator: Sketch 54.1 (76490) - https://sketchapp.com -->
    <title>check</title>
    <desc>Created with Sketch.</desc>
    <g id="{Screens/Flow}" stroke="none" stroke-width="1" fill="none" fill-rule="evenodd">
        <g id="shared-(invitation-signup-modal)" transform="translate(-833.000000, -405.000000)" fill="#51C856" fill-rule="nonzero">
            <g id="modal" transform="translate(407.000000, 214.034926)">
                <g id="content" transform="translate(146.000000, 61.000000)">
                    <g id="form" transform="translate(32.399999, 125.531431)">
                        <path d="M264.870255,5.15496316 L264.870255,5.15496316 C265.221979,5.52077549 265.221979,6.09907738 264.870255,6.46488971 L254.761005,16.9790908 C254.416501,17.3373949 253.846762,17.348582 253.488458,17.0040778 C253.479967,16.9959131 253.471636,16.9875825 253.463471,16.9790908 L248.132646,11.4347268 C247.779295,11.0672209 247.779295,10.4862417 248.132646,10.1187358 L248.132646,10.1187358 C248.468594,9.76933114 249.024182,9.75842192 249.373586,10.0943694 C249.381867,10.1023312 249.389991,10.1104549 249.397953,10.1187358 L254.118069,15.0279281 L263.61078,5.15496316 C263.945179,4.80716869 264.498207,4.79630975 264.846001,5.13070903 C264.854244,5.13863423 264.86233,5.1467205 264.870255,5.15496316 Z" id="check"></path>
                    </g>
                </g>
            </g>
        </g>
    </g>
</svg>
