
<svg width="970px" height="422px" viewBox="0 0 970 422" version="1.1" xmlns="http://www.w3.org/2000/svg" xmlns:xlink="http://www.w3.org/1999/xlink">
    <defs>
        <linearGradient x1="50%" y1="0%" x2="50%" y2="100%" id="linearGradient-1">
            <stop stop-color="#0D720F" offset="0%"></stop>
            <stop stop-color="#08540A" offset="100%"></stop>
        </linearGradient>
        <linearGradient x1="50%" y1="0%" x2="50%" y2="100%" id="linearGradient-2">
            <stop stop-color="#118C16" offset="0%"></stop>
            <stop stop-color="#0C560E" offset="100%"></stop>
        </linearGradient>
        <linearGradient x1="50%" y1="0%" x2="50%" y2="100%" id="linearGradient-3">
            <stop stop-color="#0D720F" offset="0%"></stop>
            <stop stop-color="#08540A" offset="100%"></stop>
        </linearGradient>
        <linearGradient x1="50%" y1="0%" x2="50%" y2="100%" id="linearGradient-4">
            <stop stop-color="#118C16" offset="0%"></stop>
            <stop stop-color="#0C560E" offset="100%"></stop>
        </linearGradient>
        <linearGradient x1="50%" y1="0%" x2="50%" y2="100%" id="linearGradient-5">
            <stop stop-color="#0D720F" offset="0%"></stop>
            <stop stop-color="#08540A" offset="100%"></stop>
        </linearGradient>
        <linearGradient x1="50%" y1="0%" x2="50%" y2="100%" id="linearGradient-6">
            <stop stop-color="#118C16" offset="0%"></stop>
            <stop stop-color="#0C560E" offset="100%"></stop>
        </linearGradient>
        <linearGradient x1="50%" y1="0%" x2="50%" y2="100%" id="linearGradient-7">
            <stop stop-color="#0D720F" offset="0%"></stop>
            <stop stop-color="#08540A" offset="100%"></stop>
        </linearGradient>
        <linearGradient x1="50%" y1="0%" x2="50%" y2="100%" id="linearGradient-8">
            <stop stop-color="#118C16" offset="0%"></stop>
            <stop stop-color="#0C560E" offset="100%"></stop>
        </linearGradient>
        <linearGradient x1="50%" y1="0%" x2="50%" y2="100%" id="linearGradient-9">
            <stop stop-color="#0D720F" offset="0%"></stop>
            <stop stop-color="#08540A" offset="100%"></stop>
        </linearGradient>
        <linearGradient x1="50%" y1="0%" x2="50%" y2="100%" id="linearGradient-10">
            <stop stop-color="#118C16" offset="0%"></stop>
            <stop stop-color="#0C560E" offset="100%"></stop>
        </linearGradient>
        <linearGradient x1="50%" y1="0%" x2="50%" y2="100%" id="linearGradient-11">
            <stop stop-color="#0D720F" offset="0%"></stop>
            <stop stop-color="#08540A" offset="100%"></stop>
        </linearGradient>
        <linearGradient x1="50%" y1="0%" x2="50%" y2="100%" id="linearGradient-12">
            <stop stop-color="#118C16" offset="0%"></stop>
            <stop stop-color="#0C560E" offset="100%"></stop>
        </linearGradient>
        <linearGradient x1="50%" y1="0%" x2="50%" y2="100%" id="linearGradient-13">
            <stop stop-color="#0D720F" offset="0%"></stop>
            <stop stop-color="#08540A" offset="100%"></stop>
        </linearGradient>
        <linearGradient x1="50%" y1="0%" x2="50%" y2="100%" id="linearGradient-14">
            <stop stop-color="#118C16" offset="0%"></stop>
            <stop stop-color="#0C560E" offset="100%"></stop>
        </linearGradient>
        <linearGradient x1="50%" y1="0%" x2="50%" y2="100%" id="linearGradient-15">
            <stop stop-color="#0D720F" offset="0%"></stop>
            <stop stop-color="#08540A" offset="100%"></stop>
        </linearGradient>
        <linearGradient x1="50%" y1="0%" x2="50%" y2="100%" id="linearGradient-16">
            <stop stop-color="#118C16" offset="0%"></stop>
            <stop stop-color="#0C560E" offset="100%"></stop>
        </linearGradient>
        <linearGradient x1="50%" y1="0%" x2="50%" y2="100%" id="linearGradient-17">
            <stop stop-color="#0D720F" offset="0%"></stop>
            <stop stop-color="#064A07" offset="100%"></stop>
        </linearGradient>
        <linearGradient x1="50%" y1="15.2764682%" x2="50%" y2="70.9337958%" id="linearGradient-18">
            <stop stop-color="#202020" stop-opacity="0" offset="0%"></stop>
            <stop stop-color="#202020" offset="100%"></stop>
        </linearGradient>
    </defs>
    <g id="{Screens/Flow}" stroke="none" stroke-width="1" fill="none" fill-rule="evenodd">
        <g id="landing-(dark)" transform="translate(-241.000000, -174.000000)">
            <g id="title_landing" transform="translate(216.000000, 12.000000)">
                <g id="title-(dark-bg)" transform="translate(1.000000, 151.000000)">
                    <g id="title" transform="translate(0.512906, 0.823105)">
                        <g id="leaves" fill-rule="nonzero">
                            <g id="bunch-(rear)" opacity="0.631812686" transform="translate(386.203972, 160.918322)">
                                <g id="leaf" transform="translate(74.022428, 131.953024) rotate(-18.000000) translate(-74.022428, -131.953024) translate(38.620397, 12.873466)">
                                    <path d="M2.36061258,114.533683 C2.36061258,71.4374993 15.9279188,32.1950902 33.2293632,2.77908481 C27.6477774,118.881654 51.6144076,144.119925 35.991199,233.429594 C15.450796,203.29028 2.36061258,162.029714 2.36061258,114.533683 Z" id="Path" fill="url(#linearGradient-1)"></path>
                                    <path d="M66.7867066,121.674995 C66.7867066,164.771179 54.0746513,204.013588 35.991199,233.429594 C47.4172018,138.165947 22.5903445,98.0427313 33.2293632,2.77908481 C54.6981717,32.9183983 66.7867066,74.1789644 66.7867066,121.674995 Z" id="Path" fill="url(#linearGradient-2)"></path>
                                </g>
                                <g id="leaf" transform="translate(86.895894, 131.953024) rotate(14.000000) translate(-86.895894, -131.953024) translate(45.057130, 12.873466)">
                                    <path d="M2.78981487,114.533683 C2.78981487,71.4374993 18.823904,32.1950902 39.2710656,2.77908481 C32.6746461,118.881654 60.9988454,144.119925 42.5350533,233.429594 C18.2600316,203.29028 2.78981487,162.029714 2.78981487,114.533683 Z" id="Path" fill="url(#linearGradient-3)"></path>
                                    <path d="M78.9297441,121.674995 C78.9297441,164.771179 63.9064061,204.013588 42.5350533,233.429594 C56.0385112,138.165947 26.6976798,98.0427313 39.2710656,2.77908481 C64.6432938,32.9183983 78.9297441,74.1789644 78.9297441,121.674995 Z" id="Path" fill="url(#linearGradient-4)"></path>
                                </g>
                            </g>
                            <g id="bunch-(rear)" opacity="0.7" transform="translate(785.281411, 154.481589)">
                                <g id="leaf" transform="translate(99.769360, 125.516291) rotate(-32.000000) translate(-99.769360, -125.516291) translate(57.930596, 6.436733)">
                                    <path d="M2.78981487,114.533683 C2.78981487,71.4374993 18.823904,32.1950902 39.2710656,2.77908481 C32.6746461,118.881654 60.9988454,144.119925 42.5350533,233.429594 C18.2600316,203.29028 2.78981487,162.029714 2.78981487,114.533683 Z" id="Path" fill="url(#linearGradient-3)"></path>
                                    <path d="M78.9297441,121.674995 C78.9297441,164.771179 63.9064061,204.013588 42.5350533,233.429594 C56.0385112,138.165947 26.6976798,98.0427313 39.2710656,2.77908481 C64.6432938,32.9183983 78.9297441,74.1789644 78.9297441,121.674995 Z" id="Path" fill="url(#linearGradient-4)"></path>
                                </g>
                                <g id="leaf" transform="translate(125.516291, 138.389757) rotate(22.000000) translate(-125.516291, -138.389757) translate(83.677527, 19.310199)">
                                    <path d="M2.78981487,114.533683 C2.78981487,71.4374993 18.823904,32.1950902 39.2710656,2.77908481 C32.6746461,118.881654 60.9988454,144.119925 42.5350533,233.429594 C18.2600316,203.29028 2.78981487,162.029714 2.78981487,114.533683 Z" id="Path" fill="url(#linearGradient-3)"></path>
                                    <path d="M78.9297441,121.674995 C78.9297441,164.771179 63.9064061,204.013588 42.5350533,233.429594 C56.0385112,138.165947 26.6976798,98.0427313 39.2710656,2.77908481 C64.6432938,32.9183983 78.9297441,74.1789644 78.9297441,121.674995 Z" id="Path" fill="url(#linearGradient-4)"></path>
                                </g>
                            </g>
                            <g id="bunch-(rear)" opacity="0.631812686" transform="translate(579.305959, 173.791788)">
                                <g id="leaf" transform="translate(80.459161, 131.953024) rotate(-18.000000) translate(-80.459161, -131.953024) translate(38.620397, 12.873466)">
                                    <path d="M2.78981487,114.533683 C2.78981487,71.4374993 18.823904,32.1950902 39.2710656,2.77908481 C32.6746461,118.881654 60.9988454,144.119925 42.5350533,233.429594 C18.2600316,203.29028 2.78981487,162.029714 2.78981487,114.533683 Z" id="Path" fill="url(#linearGradient-3)"></path>
                                    <path d="M78.9297441,121.674995 C78.9297441,164.771179 63.9064061,204.013588 42.5350533,233.429594 C56.0385112,138.165947 26.6976798,98.0427313 39.2710656,2.77908481 C64.6432938,32.9183983 78.9297441,74.1789644 78.9297441,121.674995 Z" id="Path" fill="url(#linearGradient-4)"></path>
                                </g>
                                <g id="leaf" transform="translate(106.206092, 144.826490) rotate(22.000000) translate(-106.206092, -144.826490) translate(64.367329, 25.746931)">
                                    <path d="M2.78981487,114.533683 C2.78981487,71.4374993 18.823904,32.1950902 39.2710656,2.77908481 C32.6746461,118.881654 60.9988454,144.119925 42.5350533,233.429594 C18.2600316,203.29028 2.78981487,162.029714 2.78981487,114.533683 Z" id="Path" fill="url(#linearGradient-3)"></path>
                                    <path d="M78.9297441,121.674995 C78.9297441,164.771179 63.9064061,204.013588 42.5350533,233.429594 C56.0385112,138.165947 26.6976798,98.0427313 39.2710656,2.77908481 C64.6432938,32.9183983 78.9297441,74.1789644 78.9297441,121.674995 Z" id="Path" fill="url(#linearGradient-4)"></path>
                                </g>
                            </g>
                            <g id="bunch-(rear)" opacity="0.469005766" transform="translate(115.861192, 186.665253)">
                                <g id="leaf" transform="translate(77.240794, 131.953024) rotate(-18.000000) translate(-77.240794, -131.953024) translate(38.620397, 12.873466)">
                                    <path d="M2.57521372,114.533683 C2.57521372,71.4374993 17.3759114,32.1950902 36.2502144,2.77908481 C30.1612118,118.881654 56.3066265,144.119925 39.2631262,233.429594 C16.8554138,203.29028 2.57521372,162.029714 2.57521372,114.533683 Z" id="Path" fill="url(#linearGradient-5)"></path>
                                    <path d="M72.8582253,121.674995 C72.8582253,164.771179 58.9905287,204.013588 39.2631262,233.429594 C51.7278565,138.165947 24.6440121,98.0427313 36.2502144,2.77908481 C59.6707327,32.9183983 72.8582253,74.1789644 72.8582253,121.674995 Z" id="Path" fill="url(#linearGradient-6)"></path>
                                </g>
                                <g id="leaf" transform="translate(90.114260, 131.953024) rotate(14.000000) translate(-90.114260, -131.953024) translate(45.057130, 12.873466)">
                                    <path d="M3.00441601,114.533683 C3.00441601,71.4374993 20.2718966,32.1950902 42.2919168,2.77908481 C35.1880804,118.881654 65.6910643,144.119925 45.8069805,233.429594 C19.6646495,203.29028 3.00441601,162.029714 3.00441601,114.533683 Z" id="Path" fill="url(#linearGradient-7)"></path>
                                    <path d="M85.0012629,121.674995 C85.0012629,164.771179 68.8222834,204.013588 45.8069805,233.429594 C60.349166,138.165947 28.7513475,98.0427313 42.2919168,2.77908481 C69.6158549,32.9183983 85.0012629,74.1789644 85.0012629,121.674995 Z" id="Path" fill="url(#linearGradient-8)"></path>
                                </g>
                            </g>
                            <g id="bunch" transform="translate(0.000000, 64.367329)">
                                <g id="leaf" transform="translate(74.358571, 139.175921) rotate(-11.000000) translate(-74.358571, -139.175921) translate(26.083074, 10.441264)">
                                    <path d="M3.21901715,123.820198 C3.21901715,77.2297289 21.7198892,34.805503 45.312768,3.00441601 C37.7015147,128.520707 70.3832831,155.805324 49.0789077,252.356318 C21.0692673,219.773276 3.21901715,175.167259 3.21901715,123.820198 Z" id="Path" fill="url(#linearGradient-9)"></path>
                                    <path d="M91.0727817,131.540535 C91.0727817,178.131005 73.7381608,220.555231 49.0789077,252.356318 C64.6598207,149.368592 30.8050152,105.992142 45.312768,3.00441601 C74.5884159,35.5874576 91.0727817,80.1934751 91.0727817,131.540535 Z" id="Path" fill="url(#linearGradient-10)"></path>
                                </g>
                                <g id="leaf" transform="translate(119.079558, 170.573421) rotate(19.000000) translate(-119.079558, -170.573421) translate(77.240794, 51.493863)">
                                    <path d="M2.78981487,114.533683 C2.78981487,71.4374993 18.823904,32.1950902 39.2710656,2.77908481 C32.6746461,118.881654 60.9988454,144.119925 42.5350533,233.429594 C18.2600316,203.29028 2.78981487,162.029714 2.78981487,114.533683 Z" id="Path" fill="url(#linearGradient-3)"></path>
                                    <path d="M78.9297441,121.674995 C78.9297441,164.771179 63.9064061,204.013588 42.5350533,233.429594 C56.0385112,138.165947 26.6976798,98.0427313 39.2710656,2.77908481 C64.6432938,32.9183983 78.9297441,74.1789644 78.9297441,121.674995 Z" id="Path" fill="url(#linearGradient-4)"></path>
                                </g>
                            </g>
                            <g id="bunch" transform="translate(199.538719, 57.930596)">
                                <g id="leaf" transform="translate(144.826490, 150.272956) rotate(-12.000000) translate(-144.826490, -150.272956) translate(96.550993, 12.873466)">
                                    <path d="M3.21901715,132.15425 C3.21901715,82.4278838 21.7198892,37.148181 45.312768,3.20663632 C37.7015147,137.171139 70.3832831,166.292221 49.0789077,269.341839 C21.0692673,234.565708 3.21901715,186.957362 3.21901715,132.15425 Z" id="Path" fill="url(#linearGradient-11)"></path>
                                    <path d="M91.0727817,140.394225 C91.0727817,190.120592 73.7381608,235.400294 49.0789077,269.341839 C64.6598207,159.422247 30.8050152,113.126228 45.312768,3.20663632 C74.5884159,37.9827673 91.0727817,85.5911128 91.0727817,140.394225 Z" id="Path" fill="url(#linearGradient-12)"></path>
                                </g>
                                <g id="leaf" transform="translate(186.665253, 141.112990) rotate(14.000000) translate(-186.665253, -141.112990) translate(141.608123, 12.873466)">
                                    <path d="M3.00441601,123.343967 C3.00441601,76.9326915 20.2718966,34.6716356 42.2919168,2.99286056 C35.1880804,128.026397 65.6910643,155.206073 45.8069805,251.385716 C19.6646495,218.927994 3.00441601,174.493538 3.00441601,123.343967 Z" id="Path" fill="url(#linearGradient-13)"></path>
                                    <path d="M85.0012629,131.03461 C85.0012629,177.445885 68.8222834,219.706941 45.8069805,251.385716 C60.349166,148.794097 28.7513475,105.58448 42.2919168,2.99286056 C69.6158549,35.4505828 85.0012629,79.8850386 85.0012629,131.03461 Z" id="Path" fill="url(#linearGradient-14)"></path>
                                </g>
                                <g id="leaf" transform="translate(93.332627, 202.757086) rotate(-26.000000) translate(-93.332627, -202.757086) translate(51.493863, 83.677527)">
                                    <path d="M2.78981487,114.533683 C2.78981487,71.4374993 18.823904,32.1950902 39.2710656,2.77908481 C32.6746461,118.881654 60.9988454,144.119925 42.5350533,233.429594 C18.2600316,203.29028 2.78981487,162.029714 2.78981487,114.533683 Z" id="Path" fill="url(#linearGradient-3)"></path>
                                    <path d="M78.9297441,121.674995 C78.9297441,164.771179 63.9064061,204.013588 42.5350533,233.429594 C56.0385112,138.165947 26.6976798,98.0427313 39.2710656,2.77908481 C64.6432938,32.9183983 78.9297441,74.1789644 78.9297441,121.674995 Z" id="Path" fill="url(#linearGradient-4)"></path>
                                </g>
                            </g>
                            <g id="bunch" transform="translate(624.363089, 57.930596)">
                                <g id="leaf" transform="translate(138.545181, 141.613551) rotate(4.000000) translate(-138.545181, -141.613551) translate(90.269685, 6.442160)">
                                    <path d="M3.21901715,132.15425 C3.21901715,82.4278838 21.7198892,37.148181 45.312768,3.20663632 C37.7015147,137.171139 70.3832831,166.292221 49.0789077,269.341839 C21.0692673,234.565708 3.21901715,186.957362 3.21901715,132.15425 Z" id="Path" fill="url(#linearGradient-11)"></path>
                                    <path d="M91.0727817,140.394225 C91.0727817,190.120592 73.7381608,235.400294 49.0789077,269.341839 C64.6598207,159.422247 30.8050152,113.126228 45.312768,3.20663632 C74.5884159,37.9827673 91.0727817,85.5911128 91.0727817,140.394225 Z" id="Path" fill="url(#linearGradient-12)"></path>
                                </g>
                                <g id="leaf" transform="translate(189.883620, 178.000421) rotate(22.000000) translate(-189.883620, -178.000421) translate(154.481589, 77.240794)">
                                    <path d="M2.36061258,96.9131166 C2.36061258,60.4471148 15.9279188,27.2419994 33.2293632,2.3515333 C27.6477774,100.592169 51.6144076,121.947629 35.991199,197.517349 C15.450796,172.014853 2.36061258,137.102066 2.36061258,96.9131166 Z" id="Path" fill="url(#linearGradient-15)"></path>
                                    <path d="M66.7867066,102.955765 C66.7867066,139.421767 54.0746513,172.626882 35.991199,197.517349 C47.4172018,116.909648 22.5903445,82.9592342 33.2293632,2.3515333 C54.6981717,27.8540293 66.7867066,62.7668161 66.7867066,102.955765 Z" id="Path" fill="url(#linearGradient-16)"></path>
                                </g>
                                <g id="leaf" transform="translate(80.459161, 144.826490) rotate(-17.000000) translate(-80.459161, -144.826490) translate(38.620397, 25.746931)">
                                    <path d="M2.78981487,114.533683 C2.78981487,71.4374993 18.823904,32.1950902 39.2710656,2.77908481 C32.6746461,118.881654 60.9988454,144.119925 42.5350533,233.429594 C18.2600316,203.29028 2.78981487,162.029714 2.78981487,114.533683 Z" id="Path" fill="url(#linearGradient-3)"></path>
                                    <path d="M78.9297441,121.674995 C78.9297441,164.771179 63.9064061,204.013588 42.5350533,233.429594 C56.0385112,138.165947 26.6976798,98.0427313 39.2710656,2.77908481 C64.6432938,32.9183983 78.9297441,74.1789644 78.9297441,121.674995 Z" id="Path" fill="url(#linearGradient-4)"></path>
                                </g>
                            </g>
                            <g id="bunch" transform="translate(405.514171, 0.000000)">
                                <g id="leaf" transform="translate(151.263223, 143.836223) rotate(-4.000000) translate(-151.263223, -143.836223) translate(102.987726, 6.436733)">
                                    <path d="M3.21901715,132.15425 C3.21901715,82.4278838 21.7198892,37.148181 45.312768,3.20663632 C37.7015147,137.171139 70.3832831,166.292221 49.0789077,269.341839 C21.0692673,234.565708 3.21901715,186.957362 3.21901715,132.15425 Z" id="Path" fill="url(#linearGradient-11)"></path>
                                    <path d="M91.0727817,140.394225 C91.0727817,190.120592 73.7381608,235.400294 49.0789077,269.341839 C64.6598207,159.422247 30.8050152,113.126228 45.312768,3.20663632 C74.5884159,37.9827673 91.0727817,85.5911128 91.0727817,140.394225 Z" id="Path" fill="url(#linearGradient-12)"></path>
                                </g>
                                <g id="leaf" transform="translate(199.452740, 160.910800) rotate(10.000000) translate(-199.452740, -160.910800) translate(154.395610, 32.176142)">
                                    <path d="M3.00441601,123.343967 C3.00441601,76.9326915 20.2718966,34.6716356 42.2919168,2.99286056 C35.1880804,128.026397 65.6910643,155.206073 45.8069805,251.385716 C19.6646495,218.927994 3.00441601,174.493538 3.00441601,123.343967 Z" id="Path" fill="url(#linearGradient-17)"></path>
                                    <path d="M85.0012629,131.03461 C85.0012629,177.445885 68.8222834,219.706941 45.8069805,251.385716 C60.349166,148.794097 28.7513475,105.58448 42.2919168,2.99286056 C69.6158549,35.4505828 85.0012629,79.8850386 85.0012629,131.03461 Z" id="Path" fill="url(#linearGradient-14)"></path>
                                </g>
                                <g id="leaf" transform="translate(99.769360, 209.193818) rotate(-32.000000) translate(-99.769360, -209.193818) translate(57.930596, 90.114260)">
                                    <path d="M2.78981487,114.533683 C2.78981487,71.4374993 18.823904,32.1950902 39.2710656,2.77908481 C32.6746461,118.881654 60.9988454,144.119925 42.5350533,233.429594 C18.2600316,203.29028 2.78981487,162.029714 2.78981487,114.533683 Z" id="Path" fill="url(#linearGradient-3)"></path>
                                    <path d="M78.9297441,121.674995 C78.9297441,164.771179 63.9064061,204.013588 42.5350533,233.429594 C56.0385112,138.165947 26.6976798,98.0427313 39.2710656,2.77908481 C64.6432938,32.9183983 78.9297441,74.1789644 78.9297441,121.674995 Z" id="Path" fill="url(#linearGradient-4)"></path>
                                </g>
                                <g id="leaf" transform="translate(228.504017, 228.504017) rotate(42.000000) translate(-228.504017, -228.504017) translate(186.665253, 109.424459)">
                                    <path d="M2.78981487,114.533683 C2.78981487,71.4374993 18.823904,32.1950902 39.2710656,2.77908481 C32.6746461,118.881654 60.9988454,144.119925 42.5350533,233.429594 C18.2600316,203.29028 2.78981487,162.029714 2.78981487,114.533683 Z" id="Path" fill="url(#linearGradient-3)"></path>
                                    <path d="M78.9297441,121.674995 C78.9297441,164.771179 63.9064061,204.013588 42.5350533,233.429594 C56.0385112,138.165947 26.6976798,98.0427313 39.2710656,2.77908481 C64.6432938,32.9183983 78.9297441,74.1789644 78.9297441,121.674995 Z" id="Path" fill="url(#linearGradient-4)"></path>
                                </g>
                            </g>
                        </g>
                        <polygon id="gradient" fill="url(#linearGradient-18)" fill-rule="nonzero" points="25.7469315 77.2407945 991.256863 77.2407945 991.256863 431.261103 25.7469315 431.261103 25.7469315 400.825333"></polygon>
                        <path d="M31.1193827,242.613675 L31.1193827,361.024548 C31.1193827,362.50811 29.9167185,363.710774 28.4331571,363.710774 C26.9495957,363.710774 25.7469315,362.50811 25.7469315,361.024548 L25.7469315,242.613675 C25.7469315,241.130114 26.9495957,239.92745 28.4331571,239.92745 C29.9167185,239.92745 31.1193827,241.130114 31.1193827,242.613675 Z M101.974215,242.62455 L46.175723,297.394523 C45.2944585,298.259544 45.2812901,299.675187 46.1463104,300.556452 C46.1558873,300.566209 46.1655535,300.575877 46.1753078,300.585457 L107.705531,361.012958 C108.325936,361.622244 108.334949,362.619105 107.725664,363.23951 C107.429616,363.54096 107.024834,363.710774 106.602322,363.710774 C104.13466,363.710774 101.765624,362.742011 100.005018,361.012958 L39.287193,301.383296 C37.965634,300.085421 37.9464339,297.961951 39.2443084,296.640392 C39.2586776,296.62576 39.2731807,296.611261 39.2878158,296.596896 L94.2737015,242.62455 C96.0348059,240.895908 98.4039769,239.92745 100.871707,239.92745 C101.740942,239.92745 102.445596,240.632104 102.445596,241.501339 C102.445596,241.923835 102.275731,242.328592 101.974215,242.62455 Z M128.953094,261.147448 C130.436656,261.147448 131.63932,262.350112 131.63932,263.833674 L131.63932,361.024548 C131.63932,362.50811 130.436656,363.710774 128.953094,363.710774 C127.469533,363.710774 126.266869,362.50811 126.266869,361.024548 L126.266869,263.833674 C126.266869,262.350112 127.469533,261.147448 128.953094,261.147448 Z M158.268305,284.936394 C158.268305,275.317558 160.736695,268.376235 165.673549,264.112214 C170.610404,259.848194 178.620078,257.716216 189.702812,257.716216 C197.460726,257.716216 203.707264,259.699452 208.442614,263.665982 C211.319898,266.076117 214.420353,271.314429 217.74398,279.380917 C218.329413,280.801785 217.874283,282.438756 216.639464,283.353533 L207.639587,290.020806 C205.70741,291.452198 203.366425,292.224857 200.961806,292.224857 C200.28881,292.224857 199.743238,291.679286 199.743238,291.006289 C199.743238,290.61947 199.926895,290.255627 200.238108,290.025898 L213.580947,280.176582 C211.465153,273.532644 208.417446,268.87204 204.437737,266.194632 C200.458028,263.517225 195.546436,262.178541 189.702812,262.178541 C185.672727,262.178541 182.272394,262.426445 179.50171,262.922261 C176.731026,263.418078 173.960384,264.384905 171.189701,265.822772 C168.419017,267.260639 166.328442,269.56615 164.917912,272.739375 C163.507382,275.912599 162.802128,279.978231 162.802128,284.936394 C162.802128,289.299578 164.842328,293.166887 168.922789,296.538437 C173.003251,299.909988 177.965218,302.785679 183.808842,305.165597 C189.652465,307.545516 195.521189,309.974979 201.415189,312.45406 C207.309188,314.933142 212.296344,318.106318 216.376805,321.973685 C220.457266,325.841052 222.497466,330.303332 222.497466,335.360658 C222.497466,345.276984 220.003888,352.664536 215.016658,357.523535 C210.029428,362.382535 201.490813,364.811998 189.400557,364.811998 C179.526848,364.811998 171.769051,362.853553 166.126932,358.936605 C162.653595,356.525298 159.080047,351.161617 155.406286,342.845561 C154.897355,341.693555 155.418683,340.347105 156.570693,339.838185 C156.582387,339.833019 156.594124,339.827951 156.605903,339.822982 C157.763614,339.334645 159.098134,339.87573 159.58886,341.032431 C162.914096,348.870432 166.075782,353.7477 169.073917,355.664233 C173.960395,358.787876 180.735874,360.349674 189.400557,360.349674 C199.072762,360.349674 206.251243,358.515181 210.936217,354.846141 C215.621191,351.1771 217.963643,344.682004 217.963643,335.360658 C217.963643,330.997475 215.923443,327.130166 211.842982,323.758615 C207.762521,320.387064 202.775365,317.511373 196.881365,315.131455 C190.987366,312.751537 185.118642,310.322073 179.275019,307.842992 C173.431395,305.363911 168.469427,302.190734 164.388966,298.323367 C160.308505,294.456 158.268305,289.99372 158.268305,284.936394 Z M242.202533,284.936394 C242.202533,275.317558 244.671293,268.376235 249.608889,264.112214 C254.546484,259.848194 262.557361,257.716216 273.641759,257.716216 C281.400837,257.716216 287.648313,259.699452 292.384374,263.665982 C295.262058,266.076091 298.362943,271.314315 301.687027,279.380654 C302.272597,280.801636 301.817399,282.4388 300.582387,283.353583 L291.581384,290.020688 C289.648803,291.452165 287.307437,292.224857 284.902443,292.224857 C284.229427,292.224857 283.683839,291.67927 283.683839,291.006254 C283.683839,290.619393 283.86753,290.255513 284.178794,290.025781 L297.523478,280.176582 C295.407366,273.532644 292.359202,268.87204 288.378896,266.194632 C284.398589,263.517225 279.486259,262.178541 273.641759,262.178541 C269.611068,262.178541 266.210225,262.426445 263.439125,262.922261 C260.668026,263.418078 257.896968,264.384905 255.125868,265.822772 C252.354769,267.260639 250.26388,269.56615 248.853138,272.739375 C247.442397,275.912599 246.737036,279.978231 246.737036,284.936394 C246.737036,289.299578 248.777543,293.166887 252.858616,296.538437 C256.93969,299.909988 261.902403,302.785679 267.746904,305.165597 C273.591404,307.545516 279.461009,309.974979 285.355893,312.45406 C291.250778,314.933142 296.238682,318.106318 300.319756,321.973685 C304.400829,325.841052 306.441336,330.303332 306.441336,335.360658 C306.441336,345.276984 303.947384,352.664536 298.959405,357.523535 C293.971425,362.382535 285.431529,364.811998 273.339458,364.811998 C263.464268,364.811998 255.705305,362.853553 250.062339,358.936605 C246.588516,356.525322 243.014467,351.161723 239.340193,342.845808 L239.340158,342.845824 C238.831156,341.693809 239.352421,340.347288 240.504436,339.838286 C240.516208,339.833085 240.528023,339.827984 240.539881,339.822982 C241.69779,339.334635 243.032487,339.87579 243.52335,341.032635 C246.849074,348.870514 250.011207,353.747716 253.009767,355.664233 C257.896978,358.787876 264.673475,360.349674 273.339458,360.349674 C283.013115,360.349674 290.192674,358.515181 294.878351,354.846141 C299.564028,351.1771 301.906832,344.682004 301.906832,335.360658 C301.906832,330.997475 299.866326,327.130166 295.785252,323.758615 C291.704178,320.387064 286.716274,317.511373 280.82139,315.131455 C274.926505,312.751537 269.056901,310.322073 263.2124,307.842992 C257.367899,305.363911 252.405186,302.190734 248.324113,298.323367 C244.243039,294.456 242.202533,289.99372 242.202533,284.936394 Z M457.732463,242.579949 C457.732463,244.044885 456.544898,245.232449 455.079963,245.232449 L417.88418,245.232449 C416.649316,245.232449 415.648262,246.233504 415.648262,247.468367 L415.648262,361.024548 C415.648262,362.50811 414.445598,363.710774 412.962036,363.710774 C411.478475,363.710774 410.275811,362.50811 410.275811,361.024548 L410.275811,247.468367 C410.275811,246.233504 409.274756,245.232449 408.039893,245.232449 L370.84411,245.232449 C369.379174,245.232449 368.19161,244.044885 368.19161,242.579949 C368.19161,241.115014 369.379174,239.92745 370.84411,239.92745 L455.079963,239.92745 C456.544898,239.92745 457.732463,241.115014 457.732463,242.579949 Z M537.837086,363.710774 C536.353524,363.710774 535.15086,362.50811 535.15086,361.024548 L535.15086,314.665029 C535.15086,313.430166 534.149806,312.429111 532.914942,312.429111 L483.662266,312.429111 C482.427403,312.429111 481.426348,313.430166 481.426348,314.665029 L481.426348,361.024548 C481.426348,362.50811 480.223684,363.710774 478.740123,363.710774 C477.256561,363.710774 476.053897,362.50811 476.053897,361.024548 L476.053897,263.833674 C476.053897,262.350112 477.256561,261.147448 478.740123,261.147448 C480.223684,261.147448 481.426348,262.350112 481.426348,263.833674 L481.426348,304.888194 C481.426348,306.123057 482.427403,307.124111 483.662266,307.124111 L532.914942,307.124111 C534.149806,307.124111 535.15086,306.123057 535.15086,304.888194 L535.15086,263.833674 C535.15086,262.350112 536.353524,261.147448 537.837086,261.147448 C539.320647,261.147448 540.523311,262.350112 540.523311,263.833674 L540.523311,361.024548 C540.523311,362.50811 539.320647,363.710774 537.837086,363.710774 Z M640.448002,354.790044 C629.741543,361.916086 619.732301,365.479107 610.420277,365.479107 C595.496727,365.479107 584.811625,361.294094 578.364651,352.923941 C571.917678,344.553789 568.694239,331.055647 568.694239,312.429111 C568.694239,293.802575 571.917678,280.304433 578.364651,271.934281 C584.811625,263.564128 595.496727,259.379115 610.420277,259.379115 C625.332367,259.379115 636.460974,264.091411 643.806099,273.516003 C644.921848,274.947636 644.696223,277.007112 643.296973,278.163214 L605.068659,309.748572 C602.97155,311.481265 600.336245,312.429111 597.615935,312.429111 C596.782082,312.429111 596.106111,311.75314 596.106111,310.919287 C596.106111,310.468127 596.307869,310.040608 596.656134,309.753804 L638.715186,275.11728 C633.462097,268.161802 624.030555,264.684114 610.420277,264.684114 C604.450857,264.684114 599.436619,265.303025 595.377414,266.540864 C591.318208,267.778704 587.587376,270.077514 584.184807,273.437364 C580.782237,276.797214 578.245272,281.689553 576.573834,288.114529 C574.902397,294.539506 574.06669,302.644285 574.06669,312.429111 C574.06669,322.213937 574.902397,330.318717 576.573834,336.743693 C578.245272,343.168669 580.782237,348.061008 584.184807,351.420858 C587.587376,354.780708 591.318208,357.079518 595.377414,358.317358 C599.436619,359.555197 604.450857,360.174108 610.420277,360.174108 C619.604178,360.174108 628.347203,357.210727 636.649353,351.283965 L636.649344,351.283953 C637.881302,350.404479 639.558684,350.49813 640.685085,351.509275 C641.540298,352.27698 641.611237,353.592615 640.843532,354.447828 C640.726607,354.578081 640.593714,354.693062 640.448002,354.790045 Z M718.337664,270.519614 C718.337664,259.084335 721.262636,250.832196 727.112668,245.762949 C732.9627,240.693702 742.453935,238.159116 755.586659,238.159116 C764.779566,238.159116 772.181536,240.51687 777.792791,245.232449 C781.257963,248.144506 784.996295,254.52952 789.007785,264.387491 C789.584229,265.804042 789.129379,267.431153 787.901929,268.343441 L776.837146,276.56721 C774.550523,278.266715 771.777274,279.184447 768.928246,279.184447 C768.128671,279.184447 767.480487,278.536263 767.480487,277.736687 C767.480487,277.277909 767.697936,276.846282 768.066618,276.573242 L783.881569,264.860948 C779.802501,255.901403 776.19102,250.360626 773.047126,248.238616 C768.331284,245.0556 762.511186,243.464116 755.586659,243.464116 C750.811123,243.464116 746.781825,243.758835 743.498644,244.348283 C740.215463,244.93773 736.932331,246.087135 733.64915,247.796532 C730.365969,249.50593 727.888697,252.246819 726.217259,256.019282 C724.545822,259.791745 723.710115,264.625141 723.710115,270.519614 C723.710115,275.706751 726.127694,280.304371 730.962925,284.312613 C735.798155,288.320855 741.677945,291.739598 748.602473,294.568946 C755.527,297.398293 762.48127,300.286542 769.465491,303.233778 C776.449713,306.181015 782.35935,309.953422 787.19458,314.551111 C792.029811,319.1488 794.447389,324.453747 794.447389,330.46611 C794.447389,342.255057 791.492571,351.037691 785.582845,356.814275 C779.673119,362.590859 769.555104,365.479107 755.228496,365.479107 C743.528432,365.479107 734.335663,363.150825 727.649913,358.494191 C723.53331,355.626971 719.297911,349.248481 714.943718,339.358722 C714.340641,337.988953 714.962172,336.389647 716.331943,335.786574 C716.343847,335.781333 716.355788,335.776178 716.367765,335.771109 C717.738423,335.19106 719.319783,335.831974 719.899832,337.202632 C719.899946,337.202899 719.900059,337.203166 719.900172,337.203434 C723.841317,346.524814 727.588602,352.324952 731.142006,354.603858 C736.932344,358.317376 744.961093,360.174108 755.228496,360.174108 C766.689782,360.174108 775.196078,357.993185 780.747639,353.631275 C786.2992,349.269364 789.074938,341.54772 789.074938,330.46611 C789.074938,325.278973 786.657359,320.681353 781.822129,316.673111 C776.986899,312.664869 771.077262,309.246125 764.09304,306.416778 C757.108819,303.587431 750.154549,300.699182 743.230021,297.751945 C736.305494,294.804709 730.425704,291.032302 725.590473,286.434613 C720.755243,281.836924 718.337664,276.531977 718.337664,270.519614 Z M820.469337,361.024548 L820.469337,263.833674 C820.469337,262.350112 821.672001,261.147448 823.155563,261.147448 C824.639124,261.147448 825.841788,262.350112 825.841788,263.833674 L825.841788,361.024548 C825.841788,362.50811 824.639124,363.710774 823.155563,363.710774 C821.672001,363.710774 820.469337,362.50811 820.469337,361.024548 Z M883.981085,361.014422 L834.013761,311.994831 C832.691511,310.69766 832.67118,308.5742 833.968351,307.25195 C833.983639,307.236367 833.999079,307.220933 834.014668,307.20565 L878.249449,263.842759 C880.0118,262.115144 882.381309,261.147448 884.84921,261.147448 C885.717637,261.147448 886.421637,261.851447 886.421637,262.719874 C886.421637,263.142334 886.251644,263.547023 885.949962,263.842759 L840.901093,308.003693 C840.019266,308.868139 840.005175,310.283774 840.869622,311.165602 C840.87981,311.175995 840.890099,311.186288 840.900488,311.19648 L891.681598,361.014422 C892.301856,361.622914 892.311393,362.619013 891.7029,363.23927 C891.407034,363.540856 891.002306,363.710774 890.579825,363.710774 C888.112023,363.710774 885.742711,362.742634 883.981085,361.014422 Z M926.315107,261.147448 L987.879841,261.147448 C989.732136,261.147448 991.233717,262.64903 991.233717,264.501325 C991.233717,264.955754 991.141368,265.405444 990.962277,265.823095 L950.973507,359.078937 C950.913809,359.218154 950.883026,359.36805 950.883026,359.519527 L950.883026,396.391213 C950.883026,397.874774 949.680362,399.077438 948.196801,399.077438 C946.713239,399.077438 945.510575,397.874774 945.510575,396.391213 L945.510575,359.519527 C945.510575,359.36805 945.479792,359.218154 945.420095,359.078937 L904.555599,263.780856 C904.144453,262.822044 904.588425,261.711474 905.547237,261.300328 C905.782465,261.199461 906.035739,261.147448 906.291682,261.147448 C908.030414,261.147448 909.602327,262.182265 910.289652,263.779379 L947.169269,349.475301 C947.413341,350.042443 948.070961,350.304343 948.638103,350.060271 C948.900877,349.947185 949.110301,349.737668 949.22327,349.474844 L983.567977,269.571315 C984.055616,268.436813 983.531231,267.121808 982.396729,266.634168 C982.117802,266.514277 981.817381,266.452448 981.513779,266.452448 L926.315107,266.452448 C924.850172,266.452448 923.662607,265.264883 923.662607,263.799948 C923.662607,262.335013 924.850172,261.147448 926.315107,261.147448 Z" id="KISS-THE-SKY" stroke="#E3E5D8" stroke-width="4.29115525" fill="#E3E5D8"></path>
                    </g>
                    <path d="M25.187049,405.723641 L25.187049,389.651119 C25.187049,389.304964 25.4073261,389.116155 25.847887,389.084686 L30.1905361,389.084686 C31.6695616,389.084686 32.8496175,389.485905 33.7307391,390.288355 C34.6118608,391.090805 35.052415,392.357399 35.052415,394.088173 L35.052415,394.324187 C35.052415,396.054962 34.6079272,397.325488 33.7189385,398.135806 C32.8299497,398.946123 31.6380932,399.351275 30.1433334,399.351275 L26.7447384,399.351275 L26.7447384,405.723641 C26.7447384,405.912453 26.666068,406.061926 26.5087249,406.172067 C26.3513817,406.282207 26.1704398,406.337276 25.9658937,406.337276 C25.7456133,406.337276 25.5607379,406.282207 25.4112619,406.172067 C25.2617859,406.061926 25.187049,405.912453 25.187049,405.723641 Z M26.7447384,398.005998 L30.1433334,398.005998 C31.2132668,398.005998 32.0393059,397.707051 32.6214755,397.109147 C33.2036452,396.511243 33.4947256,395.606533 33.4947256,394.394991 L33.4947256,394.111775 C33.4947256,391.720159 32.377606,390.524369 30.1433334,390.524369 L26.7447384,390.524369 L26.7447384,398.005998 Z M39.5278215,405.723641 L39.5278215,388.895876 C39.5278215,388.738532 39.5986248,388.604793 39.7402337,388.494653 C39.8818425,388.384512 40.0627844,388.329443 40.2830648,388.329443 C40.5033452,388.329443 40.6882206,388.384512 40.8376966,388.494653 C40.9871726,388.604793 41.0619095,388.738532 41.0619095,388.895876 L41.0619095,405.723641 C41.0619095,405.880984 40.9871726,406.022591 40.8376966,406.148465 C40.6882206,406.27434 40.5033452,406.337276 40.2830648,406.337276 C40.0785187,406.337276 39.9015103,406.27434 39.7520343,406.148465 C39.6025584,406.022591 39.5278215,405.880984 39.5278215,405.723641 Z M45.4665119,403.387107 C45.4665119,402.175565 45.9346008,401.333791 46.8707925,400.861762 C47.8069842,400.389732 49.1719155,400.153721 50.9656274,400.153721 L52.1692964,400.153721 L52.1692964,399.587289 C52.1692964,398.721902 51.9411523,397.970599 51.4848572,397.33336 C51.028562,396.69612 50.3283955,396.377505 49.3843367,396.377505 C48.7549641,396.377505 48.1846037,396.491577 47.6732385,396.719724 C47.1618733,396.947872 46.8904604,397.061944 46.8589918,397.061944 C46.67018,397.061944 46.5207063,396.975407 46.4105661,396.802329 C46.3004259,396.629252 46.2453566,396.440443 46.2453566,396.235897 C46.2453566,395.936945 46.5836393,395.661598 47.2602148,395.409849 C47.9367904,395.1581 48.660558,395.032228 49.4315394,395.032228 C50.910565,395.032228 51.9922829,395.460981 52.6767255,396.318501 C53.3611682,397.176021 53.7033844,398.265606 53.7033844,399.587289 L53.7033844,405.723641 C53.7033844,405.896718 53.6325811,406.042259 53.4909722,406.160266 C53.3493634,406.278273 53.1684215,406.337276 52.9481411,406.337276 C52.743595,406.337276 52.5744537,406.278273 52.440712,406.160266 C52.3069703,406.042259 52.2401005,405.896718 52.2401005,405.723641 L52.2401005,404.685181 C51.1859014,405.896723 49.9979785,406.502486 48.6762961,406.502486 C47.7322372,406.502486 46.9612673,406.23894 46.3633634,405.71184 C45.7654594,405.184741 45.4665119,404.409837 45.4665119,403.387107 Z M47.0005999,403.245499 C47.0005999,403.90634 47.1894089,404.39803 47.5670324,404.720583 C47.944656,405.043137 48.4402794,405.204411 49.0539177,405.204411 C49.7934305,405.204411 50.4975305,404.929065 51.1662389,404.378364 C51.8349473,403.827663 52.1692964,403.27697 52.1692964,402.726269 L52.1692964,401.215782 L51.1780396,401.215782 C50.548667,401.215782 50.0176418,401.239383 49.5849482,401.286586 C49.1522545,401.333789 48.7235009,401.420327 48.2986744,401.546201 C47.8738479,401.672076 47.5512993,401.876619 47.3310189,402.159836 C47.1107385,402.443054 47.0005999,402.804938 47.0005999,403.245499 Z M57.2583381,395.76387 C57.2583381,395.575058 57.3606097,395.405916 57.5651557,395.25644 C57.7697018,395.106964 57.9821119,395.032228 58.2023923,395.032228 C58.5013443,395.032228 58.6822862,395.142366 58.7452234,395.362646 L61.9786089,404.047945 L65.0231836,395.362646 C65.1175895,395.142366 65.2906643,395.032228 65.5424134,395.032228 C65.7469594,395.032228 65.955436,395.106964 66.1678492,395.25644 C66.3802625,395.405916 66.4864675,395.582925 66.4864675,395.787471 C66.4864675,395.881877 66.4707334,395.944813 66.4392648,395.976282 L62.7810549,405.88885 L62.3562306,407.045317 C62.277559,407.249863 62.1241517,407.619614 61.8960042,408.15458 C61.6678566,408.689547 61.4751142,409.075032 61.317771,409.311047 L60.7041358,410.255101 C60.4366525,410.648459 60.1809737,410.931672 59.9370918,411.10475 C59.6932099,411.277827 59.398196,411.439101 59.052041,411.588577 C58.7058861,411.738053 58.3518693,411.81279 57.9899801,411.81279 C57.5179507,411.81279 57.2819395,411.584646 57.2819395,411.128351 C57.2819395,410.656321 57.4392803,410.42031 57.7539666,410.42031 C58.477745,410.42031 59.1503769,409.98369 59.7718823,409.110435 C60.3933878,408.237181 60.8614766,407.155463 61.1761629,405.865249 L57.3291422,395.976282 C57.2819393,395.89761 57.2583381,395.826807 57.2583381,395.76387 Z M76.6645509,402.018228 L76.6645509,399.374877 C76.6645509,398.194803 77.1051051,397.176021 77.9862268,396.318501 C78.8673484,395.460981 79.9293987,395.032228 81.1724095,395.032228 C82.3682174,395.032228 83.4027331,395.441314 84.2759876,396.259498 C85.149242,397.077682 85.5858627,398.100397 85.5858627,399.327674 C85.5858627,399.768235 85.5347269,400.122252 85.4324539,400.389735 C85.3301809,400.657218 85.164973,400.846027 84.9368255,400.956167 C84.7086779,401.066308 84.5002014,401.137111 84.3113896,401.16858 C84.1225778,401.200048 83.8629655,401.215782 83.5325449,401.215782 L78.1986389,401.215782 L78.1986389,402.089032 C78.1986389,403.017357 78.5329881,403.760792 79.2016965,404.31936 C79.8704048,404.877928 80.7318456,405.157208 81.7860447,405.157208 C82.3210114,405.157208 82.7891003,405.078538 83.1903253,404.921195 C83.5915503,404.763852 83.8983648,404.606511 84.1107781,404.449168 C84.3231913,404.291825 84.4923327,404.213154 84.6182072,404.213154 C84.7912846,404.213154 84.9446919,404.295758 85.0784336,404.460968 C85.2121753,404.626179 85.2790451,404.787453 85.2790451,404.944796 C85.2790451,405.275217 84.9407624,405.617433 84.2641869,405.971455 C83.5876114,406.325477 82.7458381,406.502486 81.738842,406.502486 C80.2440821,406.502486 79.024691,406.089466 78.0806322,405.263414 C77.1365733,404.437363 76.6645509,403.355645 76.6645509,402.018228 Z M78.1986389,400.082917 L82.9189097,400.082917 C83.3909391,400.082917 83.7056207,400.031782 83.8629639,399.929508 C84.020307,399.827235 84.0989774,399.610892 84.0989774,399.280471 C84.0989774,398.493755 83.8196975,397.801456 83.2611293,397.203552 C82.7025612,396.605648 81.9984612,396.306701 81.1488082,396.306701 C80.3306238,396.306701 79.6343908,396.589914 79.0600884,397.156349 C78.4857859,397.722785 78.1986389,398.39935 78.1986389,399.186066 L78.1986389,400.082917 Z M88.7867961,395.834674 C88.7867961,395.645862 88.8851341,395.480654 89.081813,395.339045 C89.278492,395.197436 89.4869685,395.126633 89.7072489,395.126633 C89.9904666,395.126633 90.1792755,395.244639 90.2736814,395.480653 L93.3890601,403.977141 L96.5044388,395.575059 C96.6303133,395.276107 96.8112552,395.126633 97.04727,395.126633 C97.2360817,395.126633 97.4406248,395.197436 97.6609052,395.339045 C97.8811856,395.480654 97.9913241,395.637995 97.9913241,395.811072 C97.9913241,395.936947 97.959856,396.062819 97.8969187,396.188694 L94.0971007,406.148465 C94.0026948,406.400214 93.7666837,406.526087 93.3890601,406.526087 C93.0114366,406.526087 92.7754254,406.400214 92.6810195,406.148465 L88.8812015,396.188694 C88.8182643,396.094288 88.7867961,395.976282 88.7867961,395.834674 Z M101.40467,402.018228 L101.40467,399.445681 C101.40467,398.249873 101.845224,397.215357 102.726346,396.342103 C103.607467,395.468848 104.653783,395.032228 105.865326,395.032228 C107.076868,395.032228 108.131051,395.464915 109.027907,396.330302 C109.924763,397.195689 110.373184,398.234138 110.373184,399.445681 L110.373184,402.018228 C110.373184,403.198302 109.920829,404.240685 109.016106,405.145408 C108.111383,406.050131 107.061133,406.502486 105.865326,406.502486 C104.685252,406.502486 103.646803,406.050131 102.749947,405.145408 C101.853091,404.240685 101.40467,403.198302 101.40467,402.018228 Z M102.938758,402.018228 C102.938758,402.820678 103.225905,403.532645 103.800207,404.154151 C104.37451,404.775656 105.062876,405.086404 105.865326,405.086404 C106.68351,405.086404 107.383676,404.775656 107.965846,404.154151 C108.548016,403.532645 108.839096,402.820678 108.839096,402.018228 L108.839096,399.445681 C108.839096,398.674699 108.544082,397.9824 107.954045,397.368762 C107.364009,396.755123 106.667776,396.448309 105.865326,396.448309 C105.062876,396.448309 104.37451,396.755123 103.800207,397.368762 C103.225905,397.9824 102.938758,398.674699 102.938758,399.445681 L102.938758,402.018228 Z M115.108206,405.723641 L115.108206,388.895876 C115.108206,388.738532 115.179009,388.604793 115.320618,388.494653 C115.462227,388.384512 115.643168,388.329443 115.863449,388.329443 C116.083729,388.329443 116.268605,388.384512 116.418081,388.494653 C116.567557,388.604793 116.642294,388.738532 116.642294,388.895876 L116.642294,405.723641 C116.642294,405.880984 116.567557,406.022591 116.418081,406.148465 C116.268605,406.27434 116.083729,406.337276 115.863449,406.337276 C115.658903,406.337276 115.481894,406.27434 115.332418,406.148465 C115.182942,406.022591 115.108206,405.880984 115.108206,405.723641 Z M121.707734,402.065431 L121.707734,395.76387 C121.707734,395.622261 121.782471,395.488521 121.931947,395.362646 C122.081423,395.236772 122.266298,395.173836 122.486579,395.173836 C122.67539,395.173836 122.848465,395.236772 123.005808,395.362646 C123.163152,395.488521 123.241822,395.622261 123.241822,395.76387 L123.241822,402.065431 C123.241822,402.852147 123.532902,403.552313 124.115072,404.165951 C124.697242,404.77959 125.389541,405.086404 126.191991,405.086404 C126.994441,405.086404 127.686741,404.77959 128.26891,404.165951 C128.85108,403.552313 129.14216,402.852147 129.14216,402.065431 L129.14216,395.740268 C129.14216,395.582925 129.220831,395.449185 129.378174,395.339045 C129.535517,395.228905 129.716459,395.173836 129.921005,395.173836 C130.125551,395.173836 130.30256,395.228905 130.452036,395.339045 C130.601512,395.449185 130.676248,395.582925 130.676248,395.740268 L130.676248,402.065431 C130.676248,403.245505 130.231761,404.28002 129.342772,405.169009 C128.453783,406.057998 127.403533,406.502486 126.191991,406.502486 C124.964715,406.502486 123.910531,406.057998 123.02941,405.169009 C122.148288,404.28002 121.707734,403.245505 121.707734,402.065431 Z M135.505675,402.867877 L135.505675,390.429964 C135.505675,390.27262 135.584346,390.138881 135.741689,390.028741 C135.899032,389.9186 136.072107,389.863531 136.260919,389.863531 C136.465465,389.863531 136.646407,389.9186 136.80375,390.028741 C136.961093,390.138881 137.039763,390.27262 137.039763,390.429964 L137.039763,395.173836 L140.084338,395.173836 C140.241681,395.173836 140.371487,395.236772 140.47376,395.362646 C140.576033,395.488521 140.627169,395.637995 140.627169,395.811072 C140.627169,395.98415 140.576033,396.133623 140.47376,396.259498 C140.371487,396.385372 140.241681,396.448309 140.084338,396.448309 L137.039763,396.448309 L137.039763,402.867877 C137.039763,403.638858 137.201038,404.177751 137.523591,404.48457 C137.846144,404.791389 138.416505,404.944796 139.234689,404.944796 L139.895527,404.944796 C140.100073,404.944796 140.269214,405.011666 140.402956,405.145408 C140.536698,405.279149 140.603568,405.440424 140.603568,405.629235 C140.603568,405.818047 140.536698,405.983255 140.402956,406.124864 C140.269214,406.266473 140.100073,406.337276 139.895527,406.337276 L139.234689,406.337276 C136.748667,406.337276 135.505675,405.180821 135.505675,402.867877 Z M144.583346,391.58643 C144.3788,391.381884 144.276528,391.145873 144.276528,390.878389 C144.276528,390.610906 144.3788,390.382762 144.583346,390.19395 C144.787892,390.005138 145.039637,389.910734 145.338589,389.910734 C145.621807,389.910734 145.861751,390.005138 146.05843,390.19395 C146.255109,390.382762 146.353447,390.610906 146.353447,390.878389 C146.353447,391.145873 146.255109,391.37795 146.05843,391.574629 C145.861751,391.771308 145.621807,391.869646 145.338589,391.869646 C145.039637,391.869646 144.787892,391.775242 144.583346,391.58643 Z M144.583346,405.723641 L144.583346,395.740268 C144.583346,395.582925 144.654149,395.449185 144.795758,395.339045 C144.937367,395.228905 145.118309,395.173836 145.338589,395.173836 C145.558869,395.173836 145.743745,395.228905 145.893221,395.339045 C146.042697,395.449185 146.117434,395.582925 146.117434,395.740268 L146.117434,405.723641 C146.117434,405.880984 146.038763,406.022591 145.88142,406.148465 C145.724077,406.27434 145.543135,406.337276 145.338589,406.337276 C145.134043,406.337276 144.957035,406.27434 144.807559,406.148465 C144.658083,406.022591 144.583346,405.880984 144.583346,405.723641 Z M150.663644,402.018228 L150.663644,399.445681 C150.663644,398.249873 151.104199,397.215357 151.98532,396.342103 C152.866442,395.468848 153.912758,395.032228 155.1243,395.032228 C156.335842,395.032228 157.390026,395.464915 158.286882,396.330302 C159.183738,397.195689 159.632159,398.234138 159.632159,399.445681 L159.632159,402.018228 C159.632159,403.198302 159.179804,404.240685 158.275081,405.145408 C157.370358,406.050131 156.320108,406.502486 155.1243,406.502486 C153.944227,406.502486 152.905777,406.050131 152.008921,405.145408 C151.112066,404.240685 150.663644,403.198302 150.663644,402.018228 Z M152.197732,402.018228 C152.197732,402.820678 152.484879,403.532645 153.059182,404.154151 C153.633484,404.775656 154.32185,405.086404 155.1243,405.086404 C155.942485,405.086404 156.642651,404.775656 157.224821,404.154151 C157.80699,403.532645 158.098071,402.820678 158.098071,402.018228 L158.098071,399.445681 C158.098071,398.674699 157.803057,397.9824 157.21302,397.368762 C156.622983,396.755123 155.92675,396.448309 155.1243,396.448309 C154.32185,396.448309 153.633484,396.755123 153.059182,397.368762 C152.484879,397.9824 152.197732,398.674699 152.197732,399.445681 L152.197732,402.018228 Z M164.178369,405.723641 L164.178369,395.740268 C164.178369,395.567191 164.249173,395.429517 164.390782,395.327244 C164.53239,395.224971 164.713332,395.173836 164.933613,395.173836 C165.122424,395.173836 165.287632,395.228905 165.429241,395.339045 C165.57085,395.449185 165.641653,395.582925 165.641653,395.740268 L165.641653,396.82593 C165.909137,396.322432 166.318223,395.897612 166.868924,395.551457 C167.419625,395.205302 168.064722,395.032228 168.804235,395.032228 C169.937105,395.032228 170.920485,395.464915 171.754404,396.330302 C172.588323,397.195689 173.005276,398.234138 173.005276,399.445681 L173.005276,405.723641 C173.005276,405.912453 172.926605,406.061926 172.769262,406.172067 C172.611919,406.282207 172.430977,406.337276 172.226431,406.337276 C172.037619,406.337276 171.864544,406.282207 171.707201,406.172067 C171.549858,406.061926 171.471188,405.912453 171.471188,405.723641 L171.471188,399.445681 C171.471188,398.674699 171.180107,397.9824 170.597938,397.368762 C170.015768,396.755123 169.323469,396.448309 168.521018,396.448309 C167.781506,396.448309 167.128541,396.723655 166.562106,397.274356 C165.995671,397.825057 165.712457,398.548825 165.712457,399.445681 L165.712457,405.723641 C165.712457,405.880984 165.633787,406.022591 165.476444,406.148465 C165.319101,406.27434 165.138159,406.337276 164.933613,406.337276 C164.713332,406.337276 164.53239,406.27434 164.390782,406.148465 C164.249173,406.022591 164.178369,405.880984 164.178369,405.723641 Z M177.362675,405.393222 C177.362675,405.078536 177.464947,404.81499 177.669493,404.602577 C177.874039,404.390163 178.133651,404.283958 178.448338,404.283958 C178.731555,404.283958 178.979367,404.394097 179.19178,404.614377 C179.404194,404.834658 179.510399,405.09427 179.510399,405.393222 C179.510399,405.67644 179.404194,405.928185 179.19178,406.148465 C178.979367,406.368746 178.731555,406.478884 178.448338,406.478884 C178.133651,406.478884 177.874039,406.372679 177.669493,406.160266 C177.464947,405.947853 177.362675,405.692174 177.362675,405.393222 Z" id="Playevolution." fill="#E4E7D1" fill-rule="nonzero"></path>
                </g>
            </g>
        </g>
    </g>
</svg>
