<svg width="150px" height="49px" viewBox="0 0 150 49" version="1.1" xmlns="http://www.w3.org/2000/svg" xmlns:xlink="http://www.w3.org/1999/xlink">
    <g id="Symbols" stroke="none" stroke-width="1" fill="none" fill-rule="evenodd">
        <g id="button_resume">
            <rect id="button" stroke="#69ab6c" stroke-width="1.78571429" fill-rule="nonzero" x="0.892857143" y="0.892857143" width="148.214282" height="46.4285702" rx="23.2142851"></rect>
            <rect id="button" fill="#69ab6c" fill-rule="nonzero" x="4.46428571" y="4.46428571" width="141.071429" height="39.2857143" rx="19.6428571"></rect>
            <g id="icon_resume"
              transform="translate(115, 18)" fill="#202020" fill-rule="nonzero">
                <path d="M6.53116153,6.19276043 L1.35280105,11.3711209 C1.21811337,11.5058086 1.05186076,11.5542112 0.854038232,11.5163303 C0.656215703,11.4784494 0.473127385,11.3753307 0.304767786,11.2069711 C0.153244146,11.0554475 0.0564388289,10.8828815 0.0143489291,10.6892679 C-0.0277409707,10.4956544 0.0227661514,10.3272973 0.165871811,10.1841917 L4.58156712,5.76849636 L0.165871811,1.35280105 C0.0311841314,1.21811337 -0.0172185273,1.05186076 0.0206623825,0.854038232 C0.0585432923,0.656215703 0.161662,0.473127385 0.330021599,0.304767786 C0.481545239,0.153244146 0.654111239,0.0564388289 0.847724778,0.0143489291 C1.04133832,-0.0277409707 1.20969539,0.0227661514 1.35280105,0.165871811 L6.53116153,5.34423229 C6.76547611,5.57854687 6.76547611,5.95844585 6.53116153,6.19276043 Z" id="Path"></path>
            </g>
        </g>
    </g>
</svg>
