<?xml version="1.0" encoding="UTF-8"?>
<svg width="74px" height="86px" viewBox="0 0 74 86" version="1.1" xmlns="http://www.w3.org/2000/svg" xmlns:xlink="http://www.w3.org/1999/xlink">
    <!-- Generator: Sketch 53 (72520) - https://sketchapp.com -->
    <title>red_flower_dark</title>
    <desc>Created with Sketch.</desc>
    <g id="red_flower_dark" stroke="none" stroke-width="1" fill="none" fill-rule="evenodd" stroke-linecap="round" stroke-linejoin="round">
        <polygon id="hex" stroke="#4E2406" fill="#E0993E" fill-rule="nonzero" points="44 31 51 43 44 55 30 55 23 43 30 31"></polygon>
        <path d="M30.0449433,30.8756443 C24.0834661,18.9585481 26.4018183,8.66666667 37,0 C47.5981817,8.66666667 49.9165339,18.9585481 43.9550567,30.8756443 L30.0449433,30.8756443 Z M43.9550567,30.8756443 C51.2285637,19.7209438 61.2435448,16.595729 74,21.5 C71.8417265,35.0709376 64.1450977,42.2376043 50.9101135,43 L43.9550567,30.8756443 Z M50.9101135,43 C64.1450977,43.7623957 71.8417265,50.9290624 74,64.5 C61.2435448,69.404271 51.2285637,66.2790562 43.9550567,55.1243557 L50.9101135,43 Z M43.9550567,55.1243557 C49.9165339,67.0414519 47.5981817,77.3333333 37,86 C26.4018183,77.3333333 24.0834661,67.0414519 30.0449433,55.1243557 L43.9550567,55.1243557 Z M30.0449433,55.1243557 C22.7714363,66.2790562 12.7564552,69.404271 2.78888024e-13,64.5 C2.1582735,50.9290624 9.85490234,43.7623957 23.0898865,43 L30.0449433,55.1243557 Z M23.0898865,43 C9.85490234,42.2376043 2.1582735,35.0709376 -2.66453526e-14,21.5 C12.7564552,16.595729 22.7714363,19.7209438 30.0449433,30.8756443 L23.0898865,43 Z" id="petals" stroke="#4E2406" fill="#BC1600" fill-rule="nonzero"></path>
    </g>
</svg>