<?xml version="1.0" encoding="UTF-8"?>
<svg width="80px" height="22px" viewBox="0 0 80 22" version="1.1" xmlns="http://www.w3.org/2000/svg" xmlns:xlink="http://www.w3.org/1999/xlink">
    <!-- Generator: Sketch 53 (72520) - https://sketchapp.com -->
    <title>helper</title>
    <desc>Created with Sketch.</desc>
    <g id="[Screens]" stroke="none" stroke-width="1" fill="none" fill-rule="evenodd">
        <g id="game-mode-settings" transform="translate(-687.000000, -275.000000)" fill="#2588CC" fill-rule="nonzero">
            <g id="helper" transform="translate(687.000000, 270.000000)">
                <path d="M41.599403,23.027035 C41.6928673,22.9168018 41.8579968,22.903208 41.9682299,22.9966723 C42.0784631,23.0901366 42.0920569,23.255266 41.9985926,23.3654992 L39.5476946,26.2561242 C39.4431793,26.3793911 39.2530202,26.3793911 39.1485049,26.2561242 L36.6976069,23.3654992 C36.6041425,23.255266 36.6177364,23.0901366 36.7279696,22.9966723 C36.8382027,22.903208 37.0033322,22.9168018 37.0967965,23.027035 L39.3480997,25.6822549 L41.599403,23.027035 Z M0.945046729,14.6714019 L0.945046729,6.4411215 C0.945046729,6.27364402 1.04473421,6.18990654 1.24411215,6.18990654 C1.44349009,6.18990654 1.54317757,6.27364402 1.54317757,6.4411215 L1.54317757,10.1256075 L5.1917757,10.1256075 L5.1917757,6.4411215 C5.1917757,6.27364402 5.29146318,6.18990654 5.49084112,6.18990654 C5.69021907,6.18990654 5.78990654,6.27364402 5.78990654,6.4411215 L5.78990654,14.6714019 C5.78990654,14.8468545 5.69021907,14.9345794 5.49084112,14.9345794 C5.29146318,14.9345794 5.1917757,14.8468545 5.1917757,14.6714019 L5.1917757,10.6758879 L1.54317757,10.6758879 L1.54317757,14.6714019 C1.54317757,14.8468545 1.44349009,14.9345794 1.24411215,14.9345794 C1.04473421,14.9345794 0.945046729,14.8468545 0.945046729,14.6714019 Z M7.15896158,12.793271 L7.15896158,11.4056075 C7.15896158,10.8154488 7.37428653,10.3030551 7.80494289,9.86841121 C8.23559924,9.4337673 8.74998662,9.2164486 9.34812046,9.2164486 C9.93827917,9.2164486 10.4526665,9.43177355 10.891298,9.86242991 C11.3299295,10.2930863 11.549242,10.8074736 11.549242,11.4056075 L11.549242,12.793271 C11.549242,13.3754546 11.3279358,13.889842 10.8853167,14.3364486 C10.4426977,14.7830552 9.93030405,15.0063551 9.34812046,15.0063551 C8.76593686,15.0063551 8.25553698,14.7850489 7.8169055,14.3424299 C7.37827403,13.8998109 7.15896158,13.3834297 7.15896158,12.793271 Z M7.7451298,12.793271 C7.7451298,13.2239274 7.90263601,13.608721 8.21765317,13.9476636 C8.53267032,14.2866061 8.90948898,14.4560748 9.34812046,14.4560748 C9.78675193,14.4560748 10.1655643,14.2866061 10.4845691,13.9476636 C10.8035738,13.608721 10.9630737,13.2239274 10.9630737,12.793271 L10.9630737,11.4056075 C10.9630737,10.9829262 10.8035738,10.6041138 10.4845691,10.2691589 C10.1655643,9.93420393 9.78675193,9.76672897 9.34812046,9.76672897 C8.90948898,9.76672897 8.53267032,9.93420393 8.21765317,10.2691589 C7.90263601,10.6041138 7.7451298,10.9829262 7.7451298,11.4056075 L7.7451298,12.793271 Z M12.2603531,9.55140187 C12.2603531,9.47165069 12.2942468,9.40585696 12.3620353,9.35401869 C12.4298238,9.30218043 12.50758,9.27626168 12.5953063,9.27626168 C12.706958,9.27626168 12.786708,9.32411167 12.8345587,9.41981308 L14.4495119,13.9057944 L15.7534372,9.79065421 C15.7853376,9.67102744 15.8730626,9.61121495 16.0166147,9.61121495 C16.1521917,9.61121495 16.2359292,9.67102744 16.2678297,9.79065421 L17.5358671,13.9656075 L19.1867082,9.41981308 C19.2106336,9.32411167 19.286396,9.27626168 19.4139979,9.27626168 C19.5017242,9.27626168 19.5774867,9.30018668 19.6412876,9.34803738 C19.7050886,9.39588809 19.7369886,9.45968807 19.7369886,9.53943925 C19.7369886,9.61121531 19.7210386,9.6710278 19.6891381,9.7188785 L17.8229699,14.8508411 C17.7751192,14.9624928 17.6953692,15.0183178 17.5837175,15.0183178 C17.4720659,15.0183178 17.3923159,14.9664803 17.3444652,14.8628037 L16.0166147,10.6519626 L14.7007269,14.8029907 C14.6528762,14.9465428 14.5651512,15.0183178 14.4375493,15.0183178 C14.3099474,15.0183178 14.2222225,14.9465428 14.1743718,14.8029907 L12.3082035,9.7188785 C12.2763031,9.62317709 12.2603531,9.5673521 12.2603531,9.55140187 Z M22.7861267,12.793271 L22.7861267,11.4056075 C22.7861267,10.7994985 22.9974641,10.2831174 23.4201454,9.8564486 C23.8428266,9.4297798 24.349239,9.2164486 24.9393977,9.2164486 C25.3062531,9.2164486 25.6272468,9.30217983 25.9023884,9.47364486 C26.1775299,9.64510989 26.3868736,9.86242859 26.5304257,10.1256075 L26.5304257,6.02242991 C26.5304257,5.95065385 26.5583382,5.89084136 26.6141641,5.84299065 C26.6699899,5.79513995 26.7417649,5.77121495 26.8294912,5.77121495 C26.9092423,5.77121495 26.9770298,5.79513995 27.0328557,5.84299065 C27.0886815,5.89084136 27.116594,5.95065385 27.116594,6.02242991 L27.116594,14.6714019 C27.116594,14.7431779 27.0886815,14.8049842 27.0328557,14.8568224 C26.9770298,14.9086607 26.9092423,14.9345794 26.8294912,14.9345794 C26.74974,14.9345794 26.6819525,14.9066669 26.6261267,14.8508411 C26.5703009,14.7950153 26.5423884,14.7352028 26.5423884,14.6714019 L26.5423884,14.0971963 C26.4068114,14.3524 26.1894927,14.567725 25.8904257,14.7431776 C25.5913588,14.9186302 25.2663777,15.0063551 24.9154725,15.0063551 C24.3492391,15.0063551 23.8527955,14.7830552 23.4261267,14.3364486 C22.9994579,13.889842 22.7861267,13.3754546 22.7861267,12.793271 Z M23.3722949,12.793271 C23.3722949,13.2239274 23.5317949,13.608721 23.8507996,13.9476636 C24.1698043,14.2866061 24.5406417,14.4560748 24.9633229,14.4560748 C25.3700539,14.4560748 25.7329164,14.3045498 26.0519211,14.0014953 C26.3709258,13.6984409 26.5304257,13.4312784 26.5304257,13.2 L26.5304257,11.4056075 C26.5304257,10.9191253 26.3729195,10.5243629 26.0579024,10.2213084 C25.7428852,9.91825394 25.3820166,9.76672897 24.9752856,9.76672897 C24.5446292,9.76672897 24.1698043,9.93420393 23.8507996,10.2691589 C23.5317949,10.6041138 23.3722949,10.9829262 23.3722949,11.4056075 L23.3722949,12.793271 Z M28.4019107,12.793271 L28.4019107,11.4056075 C28.4019107,10.8154488 28.6172356,10.3030551 29.047892,9.86841121 C29.4785484,9.4337673 29.9929357,9.2164486 30.5910696,9.2164486 C31.1812283,9.2164486 31.6956157,9.43177355 32.1342471,9.86242991 C32.5728786,10.2930863 32.7921911,10.8074736 32.7921911,11.4056075 L32.7921911,12.793271 C32.7921911,13.3754546 32.5708849,13.889842 32.1282658,14.3364486 C31.6856468,14.7830552 31.1732532,15.0063551 30.5910696,15.0063551 C30.008886,15.0063551 29.4984861,14.7850489 29.0598546,14.3424299 C28.6212231,13.8998109 28.4019107,13.3834297 28.4019107,12.793271 Z M28.9880789,12.793271 C28.9880789,13.2239274 29.1455851,13.608721 29.4606023,13.9476636 C29.7756194,14.2866061 30.1524381,14.4560748 30.5910696,14.4560748 C31.029701,14.4560748 31.4085135,14.2866061 31.7275182,13.9476636 C32.0465229,13.608721 32.2060228,13.2239274 32.2060228,12.793271 L32.2060228,11.4056075 C32.2060228,10.9829262 32.0465229,10.6041138 31.7275182,10.2691589 C31.4085135,9.93420393 31.029701,9.76672897 30.5910696,9.76672897 C30.1524381,9.76672897 29.7756194,9.93420393 29.4606023,10.2691589 C29.1455851,10.6041138 28.9880789,10.9829262 28.9880789,11.4056075 L28.9880789,12.793271 Z M33.8621807,12.793271 L33.8621807,11.3697196 C33.8621807,10.7795609 34.0775056,10.2731485 34.508162,9.85046729 C34.9388183,9.42778605 35.4571932,9.2164486 36.0633022,9.2164486 C36.6534609,9.2164486 37.1638608,9.42379855 37.5945171,9.83850467 C38.0251735,10.2532108 38.2404984,10.7675982 38.2404984,11.3816822 C38.2404984,11.5970104 38.2145797,11.7704666 38.1627414,11.9020561 C38.1109032,12.0336455 38.0291594,12.1273517 37.9175078,12.1831776 C37.8058561,12.2390034 37.7041749,12.2728971 37.612461,12.2848598 C37.5207472,12.2968225 37.3911535,12.3028037 37.223676,12.3028037 L34.4483489,12.3028037 L34.4483489,12.8052336 C34.4483489,13.3076661 34.6277864,13.7104035 34.9866667,14.0134579 C35.345547,14.3165124 35.8080968,14.4680374 36.3743302,14.4680374 C36.6614344,14.4680374 36.9046719,14.4281624 37.1040498,14.3484112 C37.3034278,14.26866 37.4549527,14.1889101 37.5586293,14.1091589 C37.6623058,14.0294077 37.7420558,13.9895327 37.7978816,13.9895327 C37.8696577,13.9895327 37.9334577,14.0214327 37.9892835,14.0852336 C38.0451093,14.1490346 38.0730218,14.2128346 38.0730218,14.2766355 C38.0730218,14.4281628 37.9075406,14.5876627 37.5765732,14.7551402 C37.2456058,14.9226177 36.8368872,15.0063551 36.350405,15.0063551 C35.6166941,15.0063551 35.0185693,14.8029927 34.5560125,14.3962617 C34.0934556,13.9895307 33.8621807,13.4552058 33.8621807,12.793271 Z M34.4483489,11.8123364 L36.9963863,11.8123364 C37.2675403,11.8123364 37.4469777,11.784424 37.534704,11.7285981 C37.6224303,11.6727723 37.6662928,11.5571348 37.6662928,11.3816822 C37.6662928,10.959001 37.5147679,10.5801886 37.2117134,10.2452336 C36.9086589,9.9102787 36.525859,9.74280374 36.0633022,9.74280374 C35.6166956,9.74280374 35.2358894,9.8983162 34.9208723,10.2093458 C34.6058551,10.5203754 34.4483489,10.8912128 34.4483489,11.3218692 L34.4483489,11.8123364 Z M39.0473105,14.1928972 C39.0473105,14.1290963 39.0692417,14.06729 39.1131049,14.0074766 C39.156968,13.9476633 39.2068118,13.917757 39.2626376,13.917757 C39.3104883,13.9097819 39.3742883,13.9376944 39.4540394,14.0014953 L39.7291796,14.1928972 C39.824881,14.2566981 39.9724185,14.3204981 40.1717965,14.3842991 C40.3711744,14.4481 40.5944743,14.48 40.841703,14.48 C41.2883096,14.48 41.619272,14.3942688 41.8346002,14.2228037 C42.0499284,14.0513387 42.1575909,13.8300325 42.1575909,13.5588785 C42.1575909,13.2398738 42.0559096,12.9886614 41.8525441,12.8052336 C41.6491786,12.6218059 41.4019537,12.4882247 41.1108619,12.404486 C40.8197701,12.3207472 40.5266889,12.2310285 40.2316095,12.1353271 C39.9365302,12.0396257 39.6873115,11.8841132 39.483946,11.668785 C39.2805805,11.4534569 39.1788993,11.1623694 39.1788993,10.795514 C39.1788993,10.3808079 39.332418,10.013958 39.63946,9.69495327 C39.946502,9.37594856 40.3990832,9.2164486 40.997217,9.2164486 C41.3720476,9.2164486 41.7209537,9.27426733 42.043946,9.38990654 C42.3669383,9.50554575 42.528432,9.62716447 42.528432,9.75476636 C42.528432,9.8185673 42.5005195,9.88635478 42.4446937,9.95813084 C42.3888678,10.0299069 42.3290553,10.0657944 42.2652544,10.0657944 C42.2572793,10.0657944 42.1177168,10.0119632 41.8465628,9.90429907 C41.5754088,9.79663498 41.2962839,9.74280374 41.0091796,9.74280374 C40.5785233,9.74280374 40.2575296,9.85046621 40.046189,10.0657944 C39.8348484,10.2811226 39.7291796,10.5203725 39.7291796,10.7835514 C39.7291796,11.0547054 39.8308609,11.2660429 40.0342264,11.4175701 C40.2375919,11.5690973 40.4868106,11.6847348 40.7818899,11.764486 C41.0769693,11.8442372 41.3720442,11.9339559 41.6671236,12.0336449 C41.9622029,12.1333338 42.2114216,12.3047963 42.4147871,12.5480374 C42.6181526,12.7912785 42.7198338,13.1162596 42.7198338,13.5229907 C42.7198338,13.9855475 42.5563464,14.3484099 42.2293666,14.6115888 C41.9023867,14.8747677 41.4438243,15.0063551 40.8536656,15.0063551 C40.3432581,15.0063551 39.9146019,14.9166364 39.5676843,14.7371963 C39.2207667,14.5577561 39.0473105,14.3763249 39.0473105,14.1928972 Z M46.0321495,7.06317757 C46.0321495,6.95152592 46.076012,6.85383219 46.1637383,6.77009346 C46.2514646,6.68635472 46.3591271,6.64448598 46.486729,6.64448598 C46.6063557,6.64448598 46.7100307,6.68635472 46.797757,6.77009346 C46.8854833,6.85383219 46.9293458,6.95152592 46.9293458,7.06317757 C46.9293458,7.18280434 46.8854833,7.28647931 46.797757,7.37420561 C46.7100307,7.4619319 46.6063557,7.50579439 46.486729,7.50579439 C46.3591271,7.50579439 46.2514646,7.4619319 46.1637383,7.37420561 C46.076012,7.28647931 46.0321495,7.18280434 46.0321495,7.06317757 Z M46.1996262,14.6714019 L46.1996262,9.52747664 C46.1996262,9.36797428 46.2953261,9.2882243 46.486729,9.2882243 C46.6861069,9.2882243 46.7857944,9.36797428 46.7857944,9.52747664 L46.7857944,14.6714019 C46.7857944,14.7352028 46.7558881,14.7950153 46.6960748,14.8508411 C46.6362614,14.9066669 46.5664801,14.9345794 46.486729,14.9345794 C46.4069778,14.9345794 46.3391903,14.9086607 46.2833645,14.8568224 C46.2275386,14.8049842 46.1996262,14.7431779 46.1996262,14.6714019 Z M48.2744756,13.2239252 L48.2744756,6.8 C48.2744756,6.72822394 48.3043818,6.66841145 48.3641952,6.62056075 C48.4240086,6.57271004 48.4898023,6.54878505 48.5615784,6.54878505 C48.6413296,6.54878505 48.7111108,6.57271004 48.7709242,6.62056075 C48.8307376,6.66841145 48.8606438,6.72822394 48.8606438,6.8 L48.8606438,9.2882243 L50.4516718,9.2882243 C50.5154728,9.2882243 50.569304,9.31414304 50.6131672,9.36598131 C50.6570303,9.41781957 50.6789616,9.47962581 50.6789616,9.55140187 C50.6789616,9.61520281 50.6550366,9.67302155 50.6071859,9.72485981 C50.5593352,9.77669808 50.5074977,9.80261682 50.4516718,9.80261682 L48.8606438,9.80261682 L48.8606438,13.2239252 C48.8606438,13.6466065 48.9523563,13.9456689 49.135784,14.1211215 C49.3192117,14.2965741 49.6382116,14.3842991 50.0927933,14.3842991 L50.3918588,14.3842991 C50.4716099,14.3842991 50.5374037,14.4102178 50.5892419,14.4620561 C50.6410802,14.5138943 50.6669989,14.5796881 50.6669989,14.6594393 C50.6669989,14.7312153 50.6410802,14.7950153 50.5892419,14.8508411 C50.5374037,14.9066669 50.4716099,14.9345794 50.3918588,14.9345794 L50.0927933,14.9345794 C48.8805754,14.9345794 48.2744756,14.3643671 48.2744756,13.2239252 Z M53.3811838,9.55140187 C53.3811838,9.47165069 53.4150775,9.40585696 53.482866,9.35401869 C53.5506545,9.30218043 53.6284108,9.27626168 53.7161371,9.27626168 C53.8277887,9.27626168 53.9075387,9.32411167 53.9553894,9.41981308 L55.5703427,13.9057944 L56.8742679,9.79065421 C56.9061684,9.67102744 56.9938933,9.61121495 57.1374455,9.61121495 C57.2730225,9.61121495 57.3567599,9.67102744 57.3886604,9.79065421 L58.6566978,13.9656075 L60.3075389,9.41981308 C60.3314643,9.32411167 60.4072268,9.27626168 60.5348286,9.27626168 C60.6225549,9.27626168 60.6983174,9.30018668 60.7621184,9.34803738 C60.8259193,9.39588809 60.8578193,9.45968807 60.8578193,9.53943925 C60.8578193,9.61121531 60.8418693,9.6710278 60.8099688,9.7188785 L58.9438006,14.8508411 C58.8959499,14.9624928 58.8161999,15.0183178 58.7045483,15.0183178 C58.5928966,15.0183178 58.5131466,14.9664803 58.4652959,14.8628037 L57.1374455,10.6519626 L55.8215576,14.8029907 C55.7737069,14.9465428 55.6859819,15.0183178 55.55838,15.0183178 C55.4307782,15.0183178 55.3430532,14.9465428 55.2952025,14.8029907 L53.4290342,9.7188785 C53.3971338,9.62317709 53.3811838,9.5673521 53.3811838,9.55140187 Z M61.5689304,12.793271 L61.5689304,11.4056075 C61.5689304,10.8154488 61.7842554,10.3030551 62.2149117,9.86841121 C62.6455681,9.4337673 63.1599555,9.2164486 63.7580893,9.2164486 C64.348248,9.2164486 64.8626354,9.43177355 65.3012669,9.86242991 C65.7398983,10.2930863 65.9592108,10.8074736 65.9592108,11.4056075 L65.9592108,12.793271 C65.9592108,13.3754546 65.7379046,13.889842 65.2952855,14.3364486 C64.8526665,14.7830552 64.3402729,15.0063551 63.7580893,15.0063551 C63.1759057,15.0063551 62.6655058,14.7850489 62.2268743,14.3424299 C61.7882429,13.8998109 61.5689304,13.3834297 61.5689304,12.793271 Z M62.1550986,12.793271 C62.1550986,13.2239274 62.3126048,13.608721 62.627622,13.9476636 C62.9426391,14.2866061 63.3194578,14.4560748 63.7580893,14.4560748 C64.1967208,14.4560748 64.5755332,14.2866061 64.8945379,13.9476636 C65.2135426,13.608721 65.3730426,13.2239274 65.3730426,12.793271 L65.3730426,11.4056075 C65.3730426,10.9829262 65.2135426,10.6041138 64.8945379,10.2691589 C64.5755332,9.93420393 64.1967208,9.76672897 63.7580893,9.76672897 C63.3194578,9.76672897 62.9426391,9.93420393 62.627622,10.2691589 C62.3126048,10.6041138 62.1550986,10.9829262 62.1550986,11.4056075 L62.1550986,12.793271 Z M67.2445275,14.6714019 L67.2445275,9.52747664 C67.2445275,9.36797428 67.3402275,9.2882243 67.5316303,9.2882243 C67.6113815,9.2882243 67.679169,9.31015554 67.7349948,9.35401869 C67.7908206,9.39788184 67.8187331,9.45570058 67.8187331,9.52747664 L67.8187331,10.1375701 C67.9622852,9.87439121 68.1756164,9.65507876 68.4587331,9.47962617 C68.7418498,9.30417358 69.0708185,9.2164486 69.445649,9.2164486 L69.8763032,9.2164486 C69.9480793,9.2164486 70.0098855,9.24236734 70.0617238,9.29420561 C70.113562,9.34604387 70.1394808,9.41183761 70.1394808,9.49158879 C70.1394808,9.57133996 70.113562,9.6371337 70.0617238,9.68897196 C70.0098855,9.74081023 69.9480793,9.76672897 69.8763032,9.76672897 L69.445649,9.76672897 C69.0149926,9.76672897 68.638174,9.92822268 68.3151817,10.251215 C67.9921894,10.5742072 67.8306957,10.9948884 67.8306957,11.513271 L67.8306957,14.6714019 C67.8306957,14.7352028 67.8007895,14.7950153 67.7409761,14.8508411 C67.6811627,14.9066669 67.6113815,14.9345794 67.5316303,14.9345794 C67.4518791,14.9345794 67.3840916,14.9086607 67.3282658,14.8568224 C67.27244,14.8049842 67.2445275,14.7431779 67.2445275,14.6714019 Z M70.9941433,14.6714019 L70.9941433,6.02242991 C70.9941433,5.95065385 71.0220558,5.89084136 71.0778816,5.84299065 C71.1337074,5.79513995 71.2014949,5.77121495 71.2812461,5.77121495 C71.3689724,5.77121495 71.4407474,5.79513995 71.4965732,5.84299065 C71.552399,5.89084136 71.5803115,5.95065385 71.5803115,6.02242991 L71.5803115,12.0396262 L74.6666666,9.33607477 C74.7065422,9.29619918 74.7543922,9.27626168 74.810218,9.27626168 C74.8899692,9.27626168 74.9617442,9.30018668 75.0255451,9.34803738 C75.0893461,9.39588809 75.1212461,9.46367557 75.1212461,9.55140187 C75.1212461,9.63115305 75.0933336,9.69495303 75.0375078,9.74280374 L73.1833022,11.357757 L75.3365732,14.5158879 C75.3604985,14.5557634 75.372461,14.5996259 75.372461,14.6474766 C75.372461,14.7192527 75.3425548,14.7870402 75.2827414,14.8508411 C75.222928,14.9146421 75.1531468,14.9465421 75.0733956,14.9465421 C74.9936444,14.9465421 74.925857,14.9066671 74.8700311,14.8269159 L72.7646106,11.7405607 L71.5803115,12.7693458 L71.5803115,14.6714019 C71.5803115,14.7352028 71.5504053,14.7950153 71.4905919,14.8508411 C71.4307785,14.9066669 71.3609973,14.9345794 71.2812461,14.9345794 C71.2014949,14.9345794 71.1337074,14.9086607 71.0778816,14.8568224 C71.0220558,14.8049842 70.9941433,14.7431779 70.9941433,14.6714019 Z M75.6170301,6.81196262 C75.6170301,6.62853491 75.7944738,6.44909745 76.1493665,6.27364486 C76.5042593,6.09819227 76.9089904,6.01046729 77.3635721,6.01046729 C78.0813327,6.01046729 78.6296139,6.21183599 79.008432,6.61457944 C79.3872501,7.01732289 79.5766563,7.53370401 79.5766563,8.16373832 C79.5766563,8.52261862 79.5088688,8.86354979 79.3732918,9.18654206 C79.2377148,9.50953433 79.0941648,9.75476552 78.9426376,9.92224299 C78.7911103,10.0897205 78.5997104,10.2851079 78.368432,10.5084112 C78.1371535,10.7317145 77.9896161,10.8832395 77.9258151,10.9629907 C77.7663128,11.1464184 77.6666253,11.3677246 77.6267497,11.6269159 C77.5868741,11.8861072 77.5669366,12.2908384 77.5669366,12.8411215 C77.5669366,13.0006239 77.4792117,13.0803738 77.3037591,13.0803738 C77.1362816,13.0803738 77.0525441,12.9886614 77.0525441,12.8052336 C77.0525441,12.1592491 77.0884316,11.6867305 77.1602077,11.3876636 C77.2319837,11.0885966 77.3476212,10.8513404 77.5071235,10.6758879 C77.5709245,10.6041118 77.7164682,10.4605618 77.9437591,10.2452336 C78.1710499,10.0299055 78.3484936,9.85046801 78.4760955,9.70691589 C78.6036974,9.56336377 78.7273099,9.35402007 78.8469366,9.0788785 C78.9665634,8.80373694 79.0263759,8.51065576 79.0263759,8.19962617 C79.0263759,7.6732684 78.8808322,7.26454974 78.5897404,6.97345794 C78.2986486,6.68236615 77.8739799,6.53682243 77.3157217,6.53682243 C77.0126672,6.53682243 76.759461,6.58068492 76.5560955,6.66841121 C76.35273,6.75613751 76.1992113,6.84585624 76.0955348,6.93757009 C75.9918582,7.02928395 75.9121082,7.07514019 75.8562824,7.07514019 C75.8004566,7.07514019 75.7466254,7.04922144 75.6947871,6.99738318 C75.6429488,6.94554491 75.6170301,6.88373868 75.6170301,6.81196262 Z M76.9568432,14.8628037 C76.8691169,14.7671023 76.8252544,14.6514649 76.8252544,14.5158879 C76.8252544,14.3803108 76.8731044,14.2646734 76.9688058,14.168972 C77.0645072,14.0732705 77.1761572,14.0254206 77.3037591,14.0254206 C77.4313609,14.0254206 77.5430109,14.0732705 77.6387123,14.168972 C77.7344137,14.2646734 77.7822637,14.3803108 77.7822637,14.5158879 C77.7822637,14.6514649 77.7364075,14.7671023 77.6446936,14.8628037 C77.5529798,14.9585052 77.4393361,15.0063551 77.3037591,15.0063551 C77.1681821,15.0063551 77.0525446,14.9585052 76.9568432,14.8628037 Z" id="Combined-Shape"></path>
            </g>
        </g>
    </g>
</svg>