<?xml version="1.0" encoding="UTF-8"?>
<svg width="70px" height="118px" viewBox="0 0 70 118" version="1.1" xmlns="http://www.w3.org/2000/svg" xmlns:xlink="http://www.w3.org/1999/xlink">
    <!-- Generator: Sketch 53 (72520) - https://sketchapp.com -->
    <title>demo_plant_large_red</title>
    <desc>Created with Sketch.</desc>
    <g id="demo_plant_large_red" stroke="none" stroke-width="1" fill="none" fill-rule="evenodd">
        <path d="M0.30696932,91.2287713 C13.6465305,84.5737181 24.4259003,87.4581853 32.6450787,99.8821729 C19.3676313,106.308211 8.58826151,103.423744 0.30696932,91.2287713 Z M36.9468037,99.7265017 C45.2280959,87.5315291 56.0074657,84.6470619 69.2849131,91.0731001 C61.0657347,103.497088 50.2863649,106.381555 36.9468037,99.7265017 Z" id="lower-leaves" fill="#555555" fill-rule="nonzero"></path>
        <path d="M0.30696932,67.2287713 C13.6465305,60.5737181 24.4259003,63.4581853 32.6450787,75.8821729 C19.3676313,82.3082111 8.58826151,79.4237439 0.30696932,67.2287713 Z M36.9468037,75.7265017 C45.2280959,63.5315291 56.0074657,60.6470619 69.2849131,67.0731001 C61.0657347,79.4970877 50.2863649,82.3815549 36.9468037,75.7265017 Z" id="lower-leaves" fill="#555555" fill-rule="nonzero"></path>
        <path d="M5.2565967,42.2857562 C17.6321109,38.1438533 26.6260163,41.9564426 32.238313,53.7235242 C19.9445457,57.6745431 10.9506403,53.8619538 5.2565967,42.2857562 Z M64.3590886,42.2857562 C58.665045,53.8619538 49.6711396,57.6745431 37.3773723,53.7235242 C42.989669,41.9564426 51.9835745,38.1438533 64.3590886,42.2857562 Z" id="upper-leaves" fill="#555555" fill-rule="nonzero"></path>
        <polygon id="Rectangle" fill="#222222" fill-rule="nonzero" points="31.6018571 21.1250038 38.0138282 21.1250038 38.0138282 117.315362 31.6018571 117.315362"></polygon>
        <path d="M17.8619193,29.5014261 C18.8482384,23.3078623 22.3600103,20.0307041 28.397235,19.6699515 L28.397235,19.6652832 C22.3600103,19.3045306 18.8482384,16.0273724 17.8619193,9.83380868 C23.7043493,7.59066159 28.2911899,9.02009249 31.6224411,14.1221014 C28.8920969,8.67138303 29.9538974,3.9640159 34.8078427,0 C39.6617879,3.9640159 40.7235885,8.67138303 37.9932442,14.1221014 C41.3244954,9.02009249 45.911336,7.59066159 51.7537661,9.83380868 C50.7674469,16.0273724 47.255675,19.3045306 41.2184503,19.6652832 L41.2198137,19.6676174 C47.255675,20.0307041 50.7674469,23.3078623 51.7537661,29.5014261 C45.911336,31.7445731 41.3244954,30.3151423 37.9932442,25.2131334 C40.7235885,30.6638517 39.6617879,35.3712188 34.8078427,39.3352347 C29.9538974,35.3712188 28.8920969,30.6638517 31.6224411,25.2131334 C28.2911899,30.3151423 23.7043493,31.7445731 17.8619193,29.5014261 Z" id="petals" fill="#E33131" fill-rule="nonzero"></path>
        <polygon id="hex" fill="#222222" fill-rule="nonzero" points="37.5558302 15.0937529 40.3038178 19.8963106 37.5558302 24.6988683 32.0598551 24.6988683 29.3118675 19.8963106 32.0598551 15.0937529"></polygon>
    </g>
</svg>