<?xml version="1.0" encoding="UTF-8"?>
<svg width="653px" height="177px" viewBox="0 0 653 177" version="1.1" xmlns="http://www.w3.org/2000/svg" xmlns:xlink="http://www.w3.org/1999/xlink">
    <!-- Generator: Sketch 53 (72520) - https://sketchapp.com -->
    <title>KISSED</title>
    <desc>Created with Sketch.</desc>
    <defs>
        <path d="M14.912604,258.3 L14.912604,112.66 C14.912604,110.166654 16.0492593,108.296673 18.322604,107.05 C20.5959487,105.803327 23.3459212,105.18 26.572604,105.18 C29.7992868,105.18 32.5492593,105.803327 34.822604,107.05 C37.0959487,108.296673 38.232604,110.166654 38.232604,112.66 L38.232604,179.54 L91.912604,108.48 C93.379278,106.279989 95.579256,105.18 98.512604,105.18 C101.592619,105.18 104.599256,106.463321 107.532604,109.03 C110.465952,111.596679 111.932604,114.346652 111.932604,117.28 C111.932604,119.040009 111.345943,120.579993 110.172604,121.9 L67.932604,174.7 L118.092604,251.04 C118.972608,252.360007 119.412604,253.753326 119.412604,255.22 C119.412604,258.006681 117.982618,260.609988 115.122604,263.03 C112.26259,265.450012 109.145954,266.66 105.772604,266.66 C102.105919,266.66 99.3192802,265.193348 97.412604,262.26 L52.532604,194.28 L38.232604,212.32 L38.232604,258.3 C38.232604,260.646678 37.0959487,262.51666 34.822604,263.91 C32.5492593,265.30334 29.7992868,266 26.572604,266 C23.4925886,266 20.7792824,265.30334 18.432604,263.91 C16.0859256,262.51666 14.912604,260.646678 14.912604,258.3 Z M139.671736,258.3 L139.671736,112.66 C139.671736,110.166654 140.808391,108.296673 143.081736,107.05 C145.355081,105.803327 148.105053,105.18 151.331736,105.18 C154.558419,105.18 157.308391,105.803327 159.581736,107.05 C161.855081,108.296673 162.991736,110.166654 162.991736,112.66 L162.991736,258.3 C162.991736,260.646678 161.855081,262.51666 159.581736,263.91 C157.308391,265.30334 154.558419,266 151.331736,266 C148.251721,266 145.538414,265.30334 143.191736,263.91 C140.845058,262.51666 139.671736,260.646678 139.671736,258.3 Z M189.630868,241.8 C189.630868,239.013319 190.657524,236.226681 192.710868,233.44 C194.764212,230.653319 197.110855,229.26 199.750868,229.26 C201.364209,229.26 203.307523,230.176657 205.580868,232.01 C207.854213,233.843343 210.090857,235.823323 212.290868,237.95 C214.490879,240.076677 217.827512,242.056658 222.300868,243.89 C226.774224,245.723343 231.797507,246.64 237.370868,246.64 C245.73091,246.64 252.440843,244.66002 257.500868,240.7 C262.560893,236.73998 265.090868,230.946705 265.090868,223.32 C265.090868,216.279965 262.634226,210.413357 257.720868,205.72 C252.80751,201.026643 246.867569,197.286681 239.900868,194.5 C232.934166,191.713319 225.930903,188.706683 218.890868,185.48 C211.850833,182.253317 205.874226,177.413366 200.960868,170.96 C196.04751,164.506634 193.590868,156.440048 193.590868,146.76 C193.590868,138.986628 195.094186,132.240029 198.100868,126.52 C201.10755,120.799971 205.177509,116.400015 210.310868,113.32 C215.444227,110.239985 220.834173,108.00334 226.480868,106.61 C232.127563,105.21666 238.10417,104.52 244.410868,104.52 C248.370888,104.52 252.51418,104.776664 256.840868,105.29 C261.167556,105.803336 265.457513,106.646661 269.710868,107.82 C273.964223,108.993339 277.484187,110.679989 280.270868,112.88 C283.057549,115.080011 284.450868,117.573319 284.450868,120.36 C284.450868,123.146681 283.570877,125.933319 281.810868,128.72 C280.050859,131.506681 277.704216,132.9 274.770868,132.9 C273.304194,132.9 271.324214,132.20334 268.830868,130.81 C266.337522,129.41666 263.000889,128.02334 258.820868,126.63 C254.640847,125.23666 249.837562,124.54 244.410868,124.54 C236.050826,124.54 229.37756,126.189983 224.390868,129.49 C219.404176,132.790017 216.910868,137.8133 216.910868,144.56 C216.910868,148.960022 218.230855,152.736651 220.870868,155.89 C223.510881,159.043349 226.920847,161.646656 231.100868,163.7 C235.280889,165.753344 239.937509,167.76999 245.070868,169.75 C250.204227,171.73001 255.300843,174.039987 260.360868,176.68 C265.420893,179.320013 270.040847,182.363316 274.220868,185.81 C278.400889,189.256684 281.810855,193.986637 284.450868,200 C287.090881,206.013363 288.410868,212.97996 288.410868,220.9 C288.410868,236.15341 283.82758,247.776627 274.660868,255.77 C265.494155,263.763373 253.35761,267.76 238.250868,267.76 C224.757467,267.76 213.280915,264.936695 203.820868,259.29 C194.360821,253.643305 189.630868,247.813363 189.630868,241.8 Z M308.01,241.8 C308.01,239.013319 309.036656,236.226681 311.09,233.44 C313.143344,230.653319 315.489987,229.26 318.13,229.26 C319.743341,229.26 321.686655,230.176657 323.96,232.01 C326.233345,233.843343 328.469989,235.823323 330.67,237.95 C332.870011,240.076677 336.206644,242.056658 340.68,243.89 C345.153356,245.723343 350.176639,246.64 355.75,246.64 C364.110042,246.64 370.819975,244.66002 375.88,240.7 C380.940025,236.73998 383.47,230.946705 383.47,223.32 C383.47,216.279965 381.013358,210.413357 376.1,205.72 C371.186642,201.026643 365.246701,197.286681 358.28,194.5 C351.313298,191.713319 344.310035,188.706683 337.27,185.48 C330.229965,182.253317 324.253358,177.413366 319.34,170.96 C314.426642,164.506634 311.97,156.440048 311.97,146.76 C311.97,138.986628 313.473318,132.240029 316.48,126.52 C319.486682,120.799971 323.556641,116.400015 328.69,113.32 C333.823359,110.239985 339.213305,108.00334 344.86,106.61 C350.506695,105.21666 356.483302,104.52 362.79,104.52 C366.75002,104.52 370.893312,104.776664 375.22,105.29 C379.546688,105.803336 383.836645,106.646661 388.09,107.82 C392.343355,108.993339 395.863319,110.679989 398.65,112.88 C401.436681,115.080011 402.83,117.573319 402.83,120.36 C402.83,123.146681 401.950009,125.933319 400.19,128.72 C398.429991,131.506681 396.083348,132.9 393.15,132.9 C391.683326,132.9 389.703346,132.20334 387.21,130.81 C384.716654,129.41666 381.380021,128.02334 377.2,126.63 C373.019979,125.23666 368.216694,124.54 362.79,124.54 C354.429958,124.54 347.756692,126.189983 342.77,129.49 C337.783308,132.790017 335.29,137.8133 335.29,144.56 C335.29,148.960022 336.609987,152.736651 339.25,155.89 C341.890013,159.043349 345.299979,161.646656 349.48,163.7 C353.660021,165.753344 358.316641,167.76999 363.45,169.75 C368.583359,171.73001 373.679975,174.039987 378.74,176.68 C383.800025,179.320013 388.419979,182.363316 392.6,185.81 C396.780021,189.256684 400.189987,193.986637 402.83,200 C405.470013,206.013363 406.79,212.97996 406.79,220.9 C406.79,236.15341 402.206712,247.776627 393.04,255.77 C383.873287,263.763373 371.736742,267.76 356.63,267.76 C343.136599,267.76 331.660047,264.936695 322.2,259.29 C312.739953,253.643305 308.01,247.813363 308.01,241.8 Z M434.529132,258.3 L434.529132,112.88 C434.529132,110.533322 435.555788,108.66334 437.609132,107.27 C439.662476,105.87666 442.082451,105.18 444.869132,105.18 L523.189132,105.18 C525.682478,105.18 527.589125,106.206656 528.909132,108.26 C530.229139,110.313344 530.889132,112.659987 530.889132,115.3 C530.889132,118.233348 530.192472,120.726656 528.799132,122.78 C527.405792,124.833344 525.53581,125.86 523.189132,125.86 L457.849132,125.86 L457.849132,176.24 L491.729132,176.24 C494.07581,176.24 495.945792,177.156657 497.339132,178.99 C498.732472,180.823342 499.429132,183.059987 499.429132,185.7 C499.429132,188.046678 498.769139,190.136658 497.449132,191.97 C496.129125,193.803342 494.222478,194.72 491.729132,194.72 L457.849132,194.72 L457.849132,245.32 L523.189132,245.32 C525.53581,245.32 527.405792,246.346656 528.799132,248.4 C530.192472,250.453344 530.889132,252.946652 530.889132,255.88 C530.889132,258.520013 530.229139,260.866656 528.909132,262.92 C527.589125,264.973344 525.682478,266 523.189132,266 L444.869132,266 C442.082451,266 439.662476,265.30334 437.609132,263.91 C435.555788,262.51666 434.529132,260.646678 434.529132,258.3 Z M555.328264,258.52 L555.328264,112.66 C555.328264,110.606656 556.318254,108.846674 558.298264,107.38 C560.278274,105.913326 562.734916,105.18 565.668264,105.18 L604.608264,105.18 C619.568339,105.18 631.558219,109.13996 640.578264,117.06 C649.598309,124.98004 654.108264,137.373249 654.108264,154.24 L654.108264,216.94 C654.108264,233.806751 649.598309,246.19996 640.578264,254.12 C631.558219,262.04004 619.568339,266 604.608264,266 L565.668264,266 C562.734916,266 560.278274,265.266674 558.298264,263.8 C556.318254,262.333326 555.328264,260.573344 555.328264,258.52 Z M578.648264,245.32 L604.608264,245.32 C622.061685,245.32 630.788264,235.860095 630.788264,216.94 L630.788264,154.24 C630.788264,135.319905 622.061685,125.86 604.608264,125.86 L578.648264,125.86 L578.648264,245.32 Z" id="path-1"></path>
        <filter x="-1.6%" y="-6.4%" width="103.3%" height="112.9%" filterUnits="objectBoundingBox" id="filter-2">
            <feMorphology radius="0.5" operator="dilate" in="SourceAlpha" result="shadowSpreadOuter1"></feMorphology>
            <feOffset dx="0" dy="0" in="shadowSpreadOuter1" result="shadowOffsetOuter1"></feOffset>
            <feGaussianBlur stdDeviation="3" in="shadowOffsetOuter1" result="shadowBlurOuter1"></feGaussianBlur>
            <feColorMatrix values="0 0 0 0 0   0 0 0 0 0   0 0 0 0 0  0 0 0 1 0" type="matrix" in="shadowBlurOuter1"></feColorMatrix>
        </filter>
    </defs>
    <g id="[Screens]" stroke="none" stroke-width="1" fill="none" fill-rule="evenodd">
        <g id="game-win" transform="translate(-399.000000, -258.000000)" fill-rule="nonzero">
            <g id="overlay_game_win" transform="translate(266.000000, 67.000000)">
                <g id="text" transform="translate(125.500000, 93.000000)">
                    <g id="KISSED">
                        <use fill="black" fill-opacity="1" filter="url(#filter-2)" xlink:href="#path-1"></use>
                        <use fill="#FFFFFF" xlink:href="#path-1"></use>
                    </g>
                </g>
            </g>
        </g>
    </g>
</svg>