<svg width="19px" height="19px" viewBox="0 0 19 19" version="1.1" xmlns="http://www.w3.org/2000/svg" xmlns:xlink="http://www.w3.org/1999/xlink">
    <g id="Symbols" stroke="none" stroke-width="1" fill="none" fill-rule="evenodd">
        <g id="icon_edit" fill="#202020" fill-rule="nonzero">
            <path d="M10.0379646,21.6318837 L7.28796459,16.8097572 C7.26644783,16.7720275 7.25513201,16.7293431 7.25513201,16.6859092 L7.25513201,3.80339851 C7.25513201,3.66532732 7.36706082,3.55339851 7.50513201,3.55339851 L13.005132,3.55339851 C13.1432032,3.55339851 13.255132,3.66532732 13.255132,3.80339851 L13.255132,16.6859092 C13.255132,16.7293431 13.2438162,16.7720275 13.2222994,16.8097572 L10.4722994,21.6318837 C10.4039001,21.751822 10.2512223,21.7936025 10.1312841,21.7252032 C10.0923804,21.7030169 10.0601509,21.6707874 10.0379646,21.6318837 Z M8.75513201,-1.24781476 L11.755132,-1.24781476 C12.5835591,-1.24781476 13.255132,-0.576241886 13.255132,0.252185238 L13.255132,2.50218524 C13.255132,2.64025643 13.1432032,2.75218524 13.005132,2.75218524 L7.50513201,2.75218524 C7.36706082,2.75218524 7.25513201,2.64025643 7.25513201,2.50218524 L7.25513201,0.252185238 C7.25513201,-0.576241886 7.92670488,-1.24781476 8.75513201,-1.24781476 Z" transform="translate(10.255132, 10.255132) rotate(-45.000000) translate(-10.255132, -10.255132) "></path>
        </g>
    </g>
</svg>
