<svg width="20px" height="20px" viewBox="-2 -2 22 22" version="1.1" xmlns="http://www.w3.org/2000/svg" xmlns:xlink="http://www.w3.org/1999/xlink">
    <g id="Symbols" stroke="none" stroke-width="1" fill="none" fill-rule="evenodd"
      fill-opacity="1">
        <g id="icon_exit_modal" fill="#111111" fill-rule="nonzero">
            <g id="exit">
                <path d="M9.67939143,8.5 L16.75574,15.5763486 C17.08142,15.9020286 17.08142,16.4300601 16.75574,16.75574 C16.4300601,17.08142 15.9020286,17.08142 15.5763486,16.75574 L8.5,9.67939143 L1.4236514,16.75574 C1.09797145,17.08142 0.569939915,17.08142 0.244259964,16.75574 C-0.0814199879,16.4300601 -0.0814199879,15.9020286 0.244259964,15.5763486 L7.32060857,8.5 L0.244259964,1.4236514 C-0.0814199879,1.09797145 -0.0814199879,0.569939915 0.244259964,0.244259964 C0.569939915,-0.0814199879 1.09797145,-0.0814199879 1.4236514,0.244259964 L8.5,7.32060857 L15.5763486,0.244259964 C15.9020286,-0.0814199879 16.4300601,-0.0814199879 16.75574,0.244259964 C17.08142,0.569939915 17.08142,1.09797145 16.75574,1.4236514 L9.67939143,8.5 Z"
                  fill="#A70000"
                ></path>
            </g>
        </g>
    </g>
</svg>
